<svg xmlns="http://www.w3.org/2000/svg" width="1050" height="1906" viewBox="0 0 1050 1906">
  <g id="Grupo_1110260" data-name="Grupo 1110260" transform="translate(-285.332 -679)">
    <rect id="Rectángulo_34091" data-name="Rectángulo 34091" width="820" height="72" rx="8" transform="translate(390.332 679)" fill="#12263f"/>
    <text id="Parámetros_de_asignación_y_soluciones_de_un_sistema_" data-name="Parámetros de asignación y soluciones de un sistema
" transform="translate(845.332 721)" fill="#fff" font-size="18" font-family="Roboto-Black, Roboto" font-weight="800"><tspan x="-218.109" y="0">Parámetros de asignación y soluciones de un sistema</tspan><tspan x="0" y="25"></tspan></text>
    <rect id="Rectángulo_403387" data-name="Rectángulo 403387" width="190" height="101" rx="8" transform="translate(285.332 792)" fill="#12263f"/>
    <text id="Modelo_para_el_desarrollo_de_un_sistema_" data-name="Modelo para el desarrollo de un sistema
" transform="translate(293.332 809)" fill="#fff" font-size="16" font-family="Roboto-Regular, Roboto"><tspan x="-52.684" y="15">Modelo para el </tspan><tspan x="-57.105" y="39">desarrollo de un </tspan><tspan x="-28.406" y="63">sistema</tspan><tspan x="0" y="87"></tspan></text>
    <rect id="Rectángulo_403388" data-name="Rectángulo 403388" width="214" height="101" rx="8" transform="translate(535.332 792)" fill="#12263f"/>
    <text id="Elementos_del_mantenimiento_industrial_" data-name="Elementos del 
mantenimiento industrial

" transform="translate(562.332 809)" fill="#fff" font-size="16" font-family="Roboto-Regular, Roboto"><tspan x="30.215" y="15">Elementos del </tspan><tspan x="26.813" y="39">mantenimiento </tspan><tspan x="47.543" y="63">industrial</tspan></text>
    <rect id="Rectángulo_403389" data-name="Rectángulo 403389" width="218" height="101" rx="8" transform="translate(845.332 792)" fill="#12263f"/>
    <text id="Actividades_de_mantenimiento_" data-name="Actividades de mantenimiento

" transform="translate(874.332 820)" fill="#fff" font-size="16" font-family="Roboto-Regular, Roboto"><tspan x="28.254" y="15">Actividades de </tspan><tspan x="26.813" y="39">mantenimiento</tspan></text>
    <rect id="Rectángulo_403390" data-name="Rectángulo 403390" width="190" height="101" rx="8" transform="translate(1125.332 792)" fill="#12263f"/>
    <text id="Matrices_y_tablas_de_tiempos_" data-name="Matrices y tablas de tiempos


" transform="translate(1136.332 820)" fill="#fff" font-size="16" font-family="Roboto-Regular, Roboto"><tspan x="9.004" y="15">Matrices y tablas de </tspan><tspan x="51.52" y="39">tiempos</tspan></text>
    <path id="Trazado_878017" data-name="Trazado 878017" d="M-12382.8-8296.054h-6V-8662h6Z" transform="translate(12691.333 9555)" fill="#3076b6"/>
    <rect id="Rectángulo_403391" data-name="Rectángulo 403391" width="152" height="68" rx="8" transform="translate(323.332 921)" fill="#acc8e2"/>
    <rect id="Rectángulo_403392" data-name="Rectángulo 403392" width="152" height="68" rx="8" transform="translate(323.332 1067)" fill="#acc8e2"/>
    <rect id="Rectángulo_403393" data-name="Rectángulo 403393" width="152" height="88" rx="8" transform="translate(323.332 1222)" fill="#acc8e2"/>
    <rect id="Rectángulo_403394" data-name="Rectángulo 403394" width="169" height="68" rx="8" transform="translate(580.332 921)" fill="#acc8e2"/>
    <rect id="Rectángulo_403395" data-name="Rectángulo 403395" width="169" height="68" rx="8" transform="translate(580.332 1008)" fill="#acc8e2"/>
    <rect id="Rectángulo_403396" data-name="Rectángulo 403396" width="169" height="68" rx="8" transform="translate(580.332 1095)" fill="#acc8e2"/>
    <rect id="Rectángulo_403397" data-name="Rectángulo 403397" width="169" height="68" rx="8" transform="translate(580.332 1182)" fill="#acc8e2"/>
    <rect id="Rectángulo_403398" data-name="Rectángulo 403398" width="169" height="68" rx="8" transform="translate(580.332 1269)" fill="#acc8e2"/>
    <rect id="Rectángulo_403399" data-name="Rectángulo 403399" width="169" height="68" rx="8" transform="translate(580.332 1356)" fill="#acc8e2"/>
    <rect id="Rectángulo_403400" data-name="Rectángulo 403400" width="169" height="68" rx="8" transform="translate(580.332 1443)" fill="#acc8e2"/>
    <rect id="Rectángulo_403401" data-name="Rectángulo 403401" width="169" height="68" rx="8" transform="translate(580.332 1530)" fill="#acc8e2"/>
    <rect id="Rectángulo_403402" data-name="Rectángulo 403402" width="169" height="68" rx="8" transform="translate(580.332 1617)" fill="#acc8e2"/>
    <rect id="Rectángulo_403403" data-name="Rectángulo 403403" width="169" height="68" rx="8" transform="translate(580.332 1704)" fill="#acc8e2"/>
    <rect id="Rectángulo_403404" data-name="Rectángulo 403404" width="169" height="68" rx="8" transform="translate(895.332 921)" fill="#acc8e2"/>
    <rect id="Rectángulo_403405" data-name="Rectángulo 403405" width="169" height="68" rx="8" transform="translate(895.332 1008)" fill="#acc8e2"/>
    <rect id="Rectángulo_403406" data-name="Rectángulo 403406" width="169" height="68" rx="8" transform="translate(895.332 1095)" fill="#acc8e2"/>
    <rect id="Rectángulo_403407" data-name="Rectángulo 403407" width="169" height="68" rx="8" transform="translate(895.332 1182)" fill="#acc8e2"/>
    <rect id="Rectángulo_403408" data-name="Rectángulo 403408" width="169" height="68" rx="8" transform="translate(895.332 1269)" fill="#acc8e2"/>
    <rect id="Rectángulo_403409" data-name="Rectángulo 403409" width="169" height="68" rx="8" transform="translate(895.332 1356)" fill="#acc8e2"/>
    <rect id="Rectángulo_403410" data-name="Rectángulo 403410" width="169" height="68" rx="8" transform="translate(895.332 1443)" fill="#acc8e2"/>
    <rect id="Rectángulo_403411" data-name="Rectángulo 403411" width="169" height="68" rx="8" transform="translate(895.332 1530)" fill="#acc8e2"/>
    <rect id="Rectángulo_403412" data-name="Rectángulo 403412" width="169" height="68" rx="8" transform="translate(895.332 1617)" fill="#acc8e2"/>
    <rect id="Rectángulo_403413" data-name="Rectángulo 403413" width="169" height="68" rx="8" transform="translate(895.332 1704)" fill="#acc8e2"/>
    <rect id="Rectángulo_403414" data-name="Rectángulo 403414" width="169" height="68" rx="8" transform="translate(895.332 921)" fill="#acc8e2"/>
    <rect id="Rectángulo_403415" data-name="Rectángulo 403415" width="169" height="68" rx="8" transform="translate(895.332 1008)" fill="#acc8e2"/>
    <rect id="Rectángulo_403416" data-name="Rectángulo 403416" width="169" height="68" rx="8" transform="translate(895.332 1095)" fill="#acc8e2"/>
    <rect id="Rectángulo_403417" data-name="Rectángulo 403417" width="169" height="68" rx="8" transform="translate(895.332 1182)" fill="#acc8e2"/>
    <rect id="Rectángulo_403418" data-name="Rectángulo 403418" width="169" height="68" rx="8" transform="translate(895.332 1269)" fill="#acc8e2"/>
    <rect id="Rectángulo_403419" data-name="Rectángulo 403419" width="169" height="68" rx="8" transform="translate(895.332 1356)" fill="#acc8e2"/>
    <rect id="Rectángulo_403420" data-name="Rectángulo 403420" width="169" height="68" rx="8" transform="translate(895.332 1443)" fill="#acc8e2"/>
    <rect id="Rectángulo_403421" data-name="Rectángulo 403421" width="169" height="68" rx="8" transform="translate(895.332 1530)" fill="#acc8e2"/>
    <rect id="Rectángulo_403422" data-name="Rectángulo 403422" width="169" height="68" rx="8" transform="translate(895.332 1617)" fill="#acc8e2"/>
    <rect id="Rectángulo_403423" data-name="Rectángulo 403423" width="169" height="68" rx="8" transform="translate(895.332 1704)" fill="#acc8e2"/>
    <rect id="Rectángulo_403424" data-name="Rectángulo 403424" width="169" height="68" rx="8" transform="translate(1166.332 921)" fill="#acc8e2"/>
    <rect id="Rectángulo_403425" data-name="Rectángulo 403425" width="169" height="68" rx="8" transform="translate(1166.332 1008)" fill="#acc8e2"/>
    <path id="Trazado_878018" data-name="Trazado 878018" d="M-12382.8-8644.2h-6V-8662h6Z" transform="translate(-8338.666 13641.796) rotate(90)" fill="#3076b6"/>
    <path id="Trazado_878019" data-name="Trazado 878019" d="M-12382.8-8644.2h-6V-8662h6Z" transform="translate(-8338.668 13486.796) rotate(90)" fill="#3076b6"/>
    <path id="Trazado_878020" data-name="Trazado 878020" d="M-12382.8-8644.2h-6V-8662h6Z" transform="translate(-8338.668 13340.796) rotate(90)" fill="#3076b6"/>
    <path id="Trazado_878021" data-name="Trazado 878021" d="M-12382.8-7031.035h-6V-8662h6Z" transform="translate(12939.23 9555)" fill="#3076b6"/>
    <path id="Trazado_878022" data-name="Trazado 878022" d="M-12382.8-8635.436h-6V-8662h6Z" transform="translate(-8082 13340.796) rotate(90)" fill="#3076b6"/>
    <path id="Trazado_878023" data-name="Trazado 878023" d="M-12382.8-8635.436h-6V-8662h6Z" transform="translate(-8082 13427.796) rotate(90)" fill="#3076b6"/>
    <path id="Trazado_878024" data-name="Trazado 878024" d="M-12382.8-8635.436h-6V-8662h6Z" transform="translate(-8082 13514.796) rotate(90)" fill="#3076b6"/>
    <path id="Trazado_878025" data-name="Trazado 878025" d="M-12382.8-8635.436h-6V-8662h6Z" transform="translate(-8082 13601.796) rotate(90)" fill="#3076b6"/>
    <path id="Trazado_878026" data-name="Trazado 878026" d="M-12382.8-8635.436h-6V-8662h6Z" transform="translate(-8082 13688.796) rotate(90)" fill="#3076b6"/>
    <path id="Trazado_878027" data-name="Trazado 878027" d="M-12382.8-8635.436h-6V-8662h6Z" transform="translate(-8082 13775.796) rotate(90)" fill="#3076b6"/>
    <path id="Trazado_878028" data-name="Trazado 878028" d="M-12382.8-8635.436h-6V-8662h6Z" transform="translate(-8082 13862.796) rotate(90)" fill="#3076b6"/>
    <path id="Trazado_878029" data-name="Trazado 878029" d="M-12382.8-8635.436h-6V-8662h6Z" transform="translate(-8082 13949.796) rotate(90)" fill="#3076b6"/>
    <path id="Trazado_878030" data-name="Trazado 878030" d="M-12382.8-8635.436h-6V-8662h6Z" transform="translate(-8082 14036.796) rotate(90)" fill="#3076b6"/>
    <path id="Trazado_878031" data-name="Trazado 878031" d="M-12382.8-8635.436h-6V-8662h6Z" transform="translate(-8082 14123.796) rotate(90)" fill="#3076b6"/>
    <path id="Trazado_878032" data-name="Trazado 878032" d="M-12382.8-7814h-6v-848h6Z" transform="translate(13254.229 9555)" fill="#3076b6"/>
    <path id="Trazado_878033" data-name="Trazado 878033" d="M-12382.8-8635.436h-6V-8662h6Z" transform="translate(-7767.002 13340.796) rotate(90)" fill="#3076b6"/>
    <path id="Trazado_878034" data-name="Trazado 878034" d="M-12382.8-8635.436h-6V-8662h6Z" transform="translate(-7767 13427.796) rotate(90)" fill="#3076b6"/>
    <path id="Trazado_878035" data-name="Trazado 878035" d="M-12382.8-8635.436h-6V-8662h6Z" transform="translate(-7767 13514.796) rotate(90)" fill="#3076b6"/>
    <path id="Trazado_878036" data-name="Trazado 878036" d="M-12382.8-8635.436h-6V-8662h6Z" transform="translate(-7767 13601.796) rotate(90)" fill="#3076b6"/>
    <path id="Trazado_878037" data-name="Trazado 878037" d="M-12382.8-8635.436h-6V-8662h6Z" transform="translate(-7767 13688.796) rotate(90)" fill="#3076b6"/>
    <path id="Trazado_878038" data-name="Trazado 878038" d="M-12382.8-8635.436h-6V-8662h6Z" transform="translate(-7767 13775.796) rotate(90)" fill="#3076b6"/>
    <path id="Trazado_878039" data-name="Trazado 878039" d="M-12382.8-8635.436h-6V-8662h6Z" transform="translate(-7767 13862.796) rotate(90)" fill="#3076b6"/>
    <path id="Trazado_878040" data-name="Trazado 878040" d="M-12382.8-8635.436h-6V-8662h6Z" transform="translate(-7767 13949.796) rotate(90)" fill="#3076b6"/>
    <path id="Trazado_878041" data-name="Trazado 878041" d="M-12382.8-8635.436h-6V-8662h6Z" transform="translate(-7767 14036.796) rotate(90)" fill="#3076b6"/>
    <path id="Trazado_878042" data-name="Trazado 878042" d="M-12382.8-8635.436h-6V-8662h6Z" transform="translate(-7767 14123.796) rotate(90)" fill="#3076b6"/>
    <path id="Trazado_878043" data-name="Trazado 878043" d="M-12382.8-8510h-6v-152h6Z" transform="translate(13522.129 9555)" fill="#3076b6"/>
    <path id="Trazado_878044" data-name="Trazado 878044" d="M-12382.8-8632h-6v-30h6Z" transform="translate(-7495.668 13340.796) rotate(90)" fill="#3076b6"/>
    <path id="Trazado_878045" data-name="Trazado 878045" d="M-12382.8-8632h-6v-30h6Z" transform="translate(-7495.668 13427.796) rotate(90)" fill="#3076b6"/>
    <path id="Trazado_878046" data-name="Trazado 878046" d="M-12382.8-7819.437h-6V-8662h6Z" transform="translate(-7448.996 13157.797) rotate(90)" fill="#3076b6"/>
    <path id="Trazado_878047" data-name="Trazado 878047" d="M-12382.8-8644.2h-6V-8662h6Z" transform="translate(-12012.361 -7870) rotate(180)" fill="#3076b6"/>
    <path id="Trazado_878048" data-name="Trazado 878048" d="M-12382.8-8644.2h-6V-8662h6Z" transform="translate(-11175.797 -7870) rotate(180)" fill="#3076b6"/>
    <path id="Trazado_878049" data-name="Trazado 878049" d="M-12382.8-8644.2h-6V-8662h6Z" transform="translate(-11431.463 -7870) rotate(180)" fill="#3076b6"/>
    <path id="Trazado_878050" data-name="Trazado 878050" d="M-12382.8-8644.2h-6V-8662h6Z" transform="translate(-11746.465 -7870) rotate(180)" fill="#3076b6"/>
    <path id="Trazado_878051" data-name="Trazado 878051" d="M-12382.8-8641h-6v-21h6Z" transform="translate(-11585.463 -7890) rotate(180)" fill="#3076b6"/>
    <text id="La_importancia_del_mantenimiento_" data-name="La importancia del mantenimiento
" transform="translate(314.332 932)" fill="#12263f" font-size="16" font-family="Roboto-Regular, Roboto"><tspan x="-66.074" y="15">La importancia del </tspan><tspan x="-53.688" y="33">mantenimiento</tspan><tspan x="0" y="51"></tspan></text>
    <text id="Excelencia_en_la_Gestión_del_mantenimiento_" data-name="Excelencia en la Gestión del mantenimiento

" transform="translate(314.332 1070)" fill="#12263f" font-size="16" font-family="Roboto-Regular, Roboto"><tspan x="-56.84" y="15">Excelencia en la </tspan><tspan x="-40.016" y="33">Gestión del </tspan><tspan x="-53.688" y="51">mantenimiento</tspan><tspan x="0" y="69"></tspan><tspan x="0" y="87"></tspan></text>
    <text id="La_excelencia_o_el_desempeño_superior_" data-name="La excelencia o el desempeño 
superior
" transform="translate(335.332 1229)" fill="#12263f" font-size="16" font-family="Roboto-Regular, Roboto"><tspan x="0" y="15">La excelencia o el </tspan><tspan x="0" y="39">desempeño </tspan><tspan x="0" y="63">superior</tspan></text>
    <text id="Concepción_del_mantenimiento_" data-name="Concepción del mantenimiento

" transform="translate(580.332 932)" fill="#12263f" font-size="16" font-family="Roboto-Regular, Roboto"><tspan x="25.625" y="15">Concepción del </tspan><tspan x="26.813" y="33">mantenimiento</tspan></text>
    <text id="Concepciones_mas_usadas_" data-name="Concepciones mas usadas

" transform="translate(580.332 1019)" fill="#12263f" font-size="16" font-family="Roboto-Regular, Roboto"><tspan x="-68.035" y="15">Concepciones mas </tspan><tspan x="-25.875" y="33">usadas</tspan><tspan x="0" y="51"></tspan><tspan x="0" y="69"></tspan></text>
    <text id="Casos_del_mantenimiento_industrial_" data-name="Casos del mantenimiento industrial

" transform="translate(580.332 1101)" fill="#12263f" font-size="16" font-family="Roboto-Regular, Roboto"><tspan x="45.457" y="15">Casos del </tspan><tspan x="26.813" y="33">mantenimiento </tspan><tspan x="47.543" y="51">industrial</tspan></text>
    <text id="Gestión_estratégica_de_la_función_mantenimiento_" data-name="Gestión estratégica de la función mantenimiento

" transform="translate(580.332 1190)" fill="#12263f" font-size="16" font-family="Roboto-Regular, Roboto"><tspan x="0.746" y="15">Gestión estratégica de </tspan><tspan x="45.52" y="33">la función </tspan><tspan x="26.813" y="51">mantenimiento</tspan></text>
    <text id="El_mantenimiento_y_su_gestión_" data-name="El mantenimiento y su gestión

" transform="translate(580.332 1280)" fill="#12263f" font-size="16" font-family="Roboto-Regular, Roboto"><tspan x="-78.438" y="15">El mantenimiento y su </tspan><tspan x="-26.383" y="33">gestión</tspan><tspan x="0" y="51"></tspan><tspan x="0" y="69"></tspan></text>
    <text id="Formas_mas_usadas_" data-name="Formas mas usadas

" transform="translate(580.332 1367)" fill="#12263f" font-size="16" font-family="Roboto-Regular, Roboto"><tspan x="-72.422" y="15">Formas mas usadas</tspan><tspan x="0" y="33"></tspan><tspan x="0" y="51"></tspan></text>
    <text id="Formas_mas_adecuada_" data-name="Formas mas adecuada

" transform="translate(580.332 1461)" fill="#12263f" font-size="16" font-family="Roboto-Regular, Roboto"><tspan x="-44.566" y="15">Formas mas </tspan><tspan x="-34.914" y="33">adecuada</tspan><tspan x="0" y="51"></tspan><tspan x="0" y="69"></tspan></text>
    <text id="Variables_del_mantenimiento_" data-name="Variables del mantenimiento

" transform="translate(580.332 1548)" fill="#12263f" font-size="16" font-family="Roboto-Regular, Roboto"><tspan x="-45.727" y="15">Variables del </tspan><tspan x="-53.688" y="33">mantenimiento</tspan><tspan x="0" y="51"></tspan><tspan x="0" y="69"></tspan></text>
    <text id="Integración_del_mantenimiento_" data-name="Integración del mantenimiento

" transform="translate(580.332 1632)" fill="#12263f" font-size="16" font-family="Roboto-Regular, Roboto"><tspan x="-52.609" y="15">Integración del </tspan><tspan x="-53.688" y="33">mantenimiento</tspan><tspan x="0" y="51"></tspan><tspan x="0" y="69"></tspan></text>
    <text id="Ingeniería_del_manteniento_" data-name="Ingeniería del manteniento


" transform="translate(580.332 1719)" fill="#12263f" font-size="16" font-family="Roboto-Regular, Roboto"><tspan x="-47.617" y="15">Ingeniería del </tspan><tspan x="-44.734" y="33">manteniento</tspan><tspan x="0" y="51"></tspan><tspan x="0" y="69"></tspan><tspan x="0" y="87"></tspan></text>
    <rect id="Rectángulo_403426" data-name="Rectángulo 403426" width="169" height="68" rx="8" transform="translate(580.332 1791)" fill="#acc8e2"/>
    <rect id="Rectángulo_403427" data-name="Rectángulo 403427" width="169" height="68" rx="8" transform="translate(580.332 1878)" fill="#acc8e2"/>
    <rect id="Rectángulo_403428" data-name="Rectángulo 403428" width="169" height="68" rx="8" transform="translate(580.332 1965)" fill="#acc8e2"/>
    <rect id="Rectángulo_403429" data-name="Rectángulo 403429" width="169" height="68" rx="8" transform="translate(580.332 2052)" fill="#acc8e2"/>
    <rect id="Rectángulo_403430" data-name="Rectángulo 403430" width="169" height="68" rx="8" transform="translate(580.332 2139)" fill="#acc8e2"/>
    <rect id="Rectángulo_403431" data-name="Rectángulo 403431" width="169" height="68" rx="8" transform="translate(580.332 2226)" fill="#acc8e2"/>
    <rect id="Rectángulo_403432" data-name="Rectángulo 403432" width="169" height="68" rx="8" transform="translate(580.332 2313)" fill="#acc8e2"/>
    <rect id="Rectángulo_403433" data-name="Rectángulo 403433" width="169" height="68" rx="8" transform="translate(580.332 2400)" fill="#acc8e2"/>
    <rect id="Rectángulo_403434" data-name="Rectángulo 403434" width="169" height="68" rx="8" transform="translate(580.332 2487)" fill="#acc8e2"/>
    <path id="Trazado_878052" data-name="Trazado 878052" d="M-12382.8-8635.436h-6V-8662h6Z" transform="translate(-8082 14210.796) rotate(90)" fill="#3076b6"/>
    <path id="Trazado_878053" data-name="Trazado 878053" d="M-12382.8-8635.436h-6V-8662h6Z" transform="translate(-8082 14297.796) rotate(90)" fill="#3076b6"/>
    <path id="Trazado_878054" data-name="Trazado 878054" d="M-12382.8-8635.436h-6V-8662h6Z" transform="translate(-8082 14384.796) rotate(90)" fill="#3076b6"/>
    <path id="Trazado_878055" data-name="Trazado 878055" d="M-12382.8-8635.436h-6V-8662h6Z" transform="translate(-8082 14471.796) rotate(90)" fill="#3076b6"/>
    <path id="Trazado_878056" data-name="Trazado 878056" d="M-12382.8-8635.436h-6V-8662h6Z" transform="translate(-8082 14558.796) rotate(90)" fill="#3076b6"/>
    <path id="Trazado_878057" data-name="Trazado 878057" d="M-12382.8-8635.436h-6V-8662h6Z" transform="translate(-8082 14645.796) rotate(90)" fill="#3076b6"/>
    <path id="Trazado_878058" data-name="Trazado 878058" d="M-12382.8-8635.436h-6V-8662h6Z" transform="translate(-8082 14732.796) rotate(90)" fill="#3076b6"/>
    <path id="Trazado_878059" data-name="Trazado 878059" d="M-12382.8-8635.436h-6V-8662h6Z" transform="translate(-8082 14819.796) rotate(90)" fill="#3076b6"/>
    <path id="Trazado_878060" data-name="Trazado 878060" d="M-12382.8-8635.436h-6V-8662h6Z" transform="translate(-8082 14906.796) rotate(90)" fill="#3076b6"/>
    <text id="Mantenimiento_basado_en_la_falla_" data-name="Mantenimiento basado en la falla


" transform="translate(580.332 1802)" fill="#12263f" font-size="16" font-family="Roboto-Regular, Roboto"><tspan x="26.84" y="15">Mantenimiento </tspan><tspan x="17.859" y="33">basado en la falla</tspan></text>
    <text id="Mantenimiento_basado_en_la_condición_" data-name="Mantenimiento basado en la condición


" transform="translate(580.332 1889)" fill="#12263f" font-size="16" font-family="Roboto-Regular, Roboto"><tspan x="26.84" y="15">Mantenimiento </tspan><tspan x="35.203" y="33">basado en la </tspan><tspan x="45.777" y="51">condición</tspan></text>
    <text id="Mantenimiento_basado_en_el_uso_del_tiempo_" data-name="Mantenimiento basado  en el uso del tiempo


" transform="translate(580.332 1971)" fill="#12263f" font-size="16" font-family="Roboto-Regular, Roboto"><tspan x="26.84" y="15">Mantenimiento </tspan><tspan x="5.586" y="33" xml:space="preserve">basado  en el uso del </tspan><tspan x="55.645" y="51">tiempo</tspan></text>
    <text id="Tercerización_" data-name="Tercerización


" transform="translate(580.332 2071)" fill="#12263f" font-size="16" font-family="Roboto-Regular, Roboto"><tspan x="32.746" y="15">Tercerización</tspan><tspan x="80.5" y="33"></tspan><tspan x="80.5" y="51"></tspan></text>
    <text id="Requerimiento_" data-name="Requerimiento


" transform="translate(580.332 2157)" fill="#12263f" font-size="16" font-family="Roboto-Regular, Roboto"><tspan x="-51.711" y="15">Requerimiento</tspan><tspan x="0" y="33"></tspan><tspan x="0" y="51"></tspan><tspan x="0" y="69"></tspan></text>
    <text id="Planificación_" data-name="Planificación

" transform="translate(580.332 2248)" fill="#12263f" font-size="16" font-family="Roboto-Regular, Roboto"><tspan x="-45.77" y="15">Planificación</tspan><tspan x="0" y="33"></tspan><tspan x="0" y="51"></tspan></text>
    <text id="Ejecución_" data-name="Ejecución


" transform="translate(580.332 2334)" fill="#12263f" font-size="16" font-family="Roboto-Regular, Roboto"><tspan x="-34.398" y="15">Ejecución</tspan><tspan x="0" y="33"></tspan><tspan x="0" y="51"></tspan><tspan x="0" y="69"></tspan></text>
    <text id="Finalización_" data-name="Finalización


" transform="translate(580.332 2418)" fill="#12263f" font-size="16" font-family="Roboto-Regular, Roboto"><tspan x="-42.434" y="15">Finalización</tspan><tspan x="0" y="33"></tspan><tspan x="0" y="51"></tspan><tspan x="0" y="69"></tspan></text>
    <text id="Control_" data-name="Control


" transform="translate(580.332 2512)" fill="#12263f" font-size="16" font-family="Roboto-Regular, Roboto"><tspan x="-25.93" y="15">Control</tspan><tspan x="0" y="33"></tspan><tspan x="0" y="51"></tspan><tspan x="0" y="69"></tspan></text>
    <text id="Método_CPM_" data-name="Método CPM
" transform="translate(898.332 932)" fill="#12263f" font-size="16" font-family="Roboto-Regular, Roboto"><tspan x="33.887" y="15">Método CPM</tspan><tspan x="80.5" y="33"></tspan></text>
    <text id="Método_PERT_" data-name="Método PERT
" transform="translate(898.332 1025)" fill="#12263f" font-size="16" font-family="Roboto-Regular, Roboto"><tspan x="-48.355" y="15">Método PERT</tspan><tspan x="0" y="33"></tspan></text>
    <text id="Mantenimiento_" data-name="Mantenimiento
" transform="translate(898.332 1113)" fill="#12263f" font-size="16" font-family="Roboto-Regular, Roboto"><tspan x="26.84" y="15">Mantenimiento</tspan></text>
    <text id="Lista_de_actividades_" data-name="Lista de actividades


" transform="translate(898.332 1200)" fill="#12263f" font-size="16" font-family="Roboto-Regular, Roboto"><tspan x="9.805" y="15">Lista de actividades</tspan></text>
    <text id="Planificación_2" data-name="Planificación
" transform="translate(898.332 1287)" fill="#12263f" font-size="16" font-family="Roboto-Regular, Roboto"><tspan x="34.73" y="15">Planificación</tspan></text>
    <text id="Construcción_de_la_red_" data-name="Construcción de la red


" transform="translate(898.332 1380)" fill="#12263f" font-size="16" font-family="Roboto-Regular, Roboto"><tspan x="0.801" y="15">Construcción de la red</tspan></text>
    <text id="Diagrama_de_flechas_" data-name="Diagrama de flechas


" transform="translate(898.332 1463)" fill="#12263f" font-size="16" font-family="Roboto-Regular, Roboto"><tspan x="7.645" y="15">Diagrama de flechas</tspan></text>
    <text id="Dibujar_la_red_" data-name="Dibujar la red


" transform="translate(898.332 1550)" fill="#12263f" font-size="16" font-family="Roboto-Regular, Roboto"><tspan x="33.809" y="15">Dibujar la red</tspan></text>
    <text id="Tipos_de_tiempo_" data-name="Tipos de tiempo


" transform="translate(898.332 1638)" fill="#12263f" font-size="16" font-family="Roboto-Regular, Roboto"><tspan x="23.043" y="15">Tipos de tiempo</tspan></text>
    <text id="Holguras_" data-name="Holguras


" transform="translate(898.332 1725)" fill="#12263f" font-size="16" font-family="Roboto-Regular, Roboto"><tspan x="48.367" y="15">Holguras</tspan></text>
    <text id="Representación_gráfica_" data-name="Representación gráfica
" transform="translate(1174.332 944)" fill="#12263f" font-size="16" font-family="Roboto-Regular, Roboto"><tspan x="25.129" y="15">Representación </tspan><tspan x="56.141" y="33">gráfica</tspan></text>
    <text id="Matriz_de_tiempos_" data-name="Matriz de tiempos

" transform="translate(1174.332 1025)" fill="#12263f" font-size="16" font-family="Roboto-Regular, Roboto"><tspan x="16.246" y="15">Matriz de tiempos</tspan></text>
  </g>
</svg>
