<svg xmlns="http://www.w3.org/2000/svg" width="93" height="94" viewBox="0 0 93 94">
  <g id="Grupo_1110232" data-name="Grupo 1110232" transform="translate(-326.509 -2343.174)">
    <ellipse id="Elipse_11699" data-name="Elipse 11699" cx="46.5" cy="47" rx="46.5" ry="47" transform="translate(326.509 2343.174)" fill="#e69999"/>
    <g id="planning_5656211" transform="translate(320.337 2361.652)">
      <g id="Grupo_1110035" data-name="Grupo 1110035" transform="translate(29.848 0.906)">
        <g id="Grupo_1110033" data-name="Grupo 1110033" transform="translate(0)">
          <path id="Trazado_881622" data-name="Trazado 881622" d="M78.248,50.35a2.523,2.523,0,0,1,2.518,2.519V99.209a2.523,2.523,0,0,1-2.518,2.518H39.462a2.523,2.523,0,0,1-2.518-2.518V52.869a2.523,2.523,0,0,1,2.518-2.519Z" transform="translate(-36.944 -45.554)" fill="#837683" fill-rule="evenodd"/>
          <path id="Trazado_881623" data-name="Trazado 881623" d="M372.943,101.728h3.25a2.523,2.523,0,0,0,2.518-2.518V52.869a2.523,2.523,0,0,0-2.518-2.519h-3.25Z" transform="translate(-334.89 -45.554)" fill="#685e68" fill-rule="evenodd"/>
          <path id="Trazado_881624" data-name="Trazado 881624" d="M103.561,81.285H69.011a1.135,1.135,0,0,0-1.133,1.133v42.106a1.135,1.135,0,0,0,1.133,1.133h34.55a1.135,1.135,0,0,0,1.133-1.133V82.418A1.135,1.135,0,0,0,103.561,81.285Z" transform="translate(-64.375 -72.985)" fill="#eceff1" fill-rule="evenodd"/>
          <path id="Trazado_881625" data-name="Trazado 881625" d="M372.943,125.657h1.133c.036,0,.071,0,.106,0a1.135,1.135,0,0,0,1.027-1.128V82.418a1.135,1.135,0,0,0-1.027-1.128q-.052,0-.106,0h-1.133Z" transform="translate(-334.89 -72.986)" fill="#d1d1d6" fill-rule="evenodd"/>
          <path id="Trazado_881626" data-name="Trazado 881626" d="M145.928,11.274h3.59a1.112,1.112,0,0,0,1.04-.685,4.283,4.283,0,0,1,7.868,0,1.112,1.112,0,0,0,1.04.685h3.59a1.135,1.135,0,0,1,1.133,1.133V16.69a1.135,1.135,0,0,1-1.133,1.133H145.928a1.135,1.135,0,0,1-1.133-1.133V12.406a1.135,1.135,0,0,1,1.133-1.132Z" transform="translate(-132.58 -8)" fill="#e3a76f" fill-rule="evenodd"/>
          <path id="Trazado_881627" data-name="Trazado 881627" d="M161.923,42.324H144.8a1.135,1.135,0,0,0,1.133,1.133h17.128a1.135,1.135,0,0,0,1.133-1.133V38.041a1.135,1.135,0,0,0-1.133-1.133v4.283a1.135,1.135,0,0,1-1.133,1.132Z" transform="translate(-132.581 -33.634)" fill="#c48958" fill-rule="evenodd"/>
        </g>
        <g id="Grupo_1110034" data-name="Grupo 1110034" transform="translate(20.172 29.438)">
          <path id="Trazado_881628" data-name="Trazado 881628" d="M244.5,287.788V304.2a2.294,2.294,0,0,1-.7,1.679l-3.6,3.6a2.294,2.294,0,0,1-1.679.7h-21.1a2.379,2.379,0,0,1-2.375-2.375V287.788a2.379,2.379,0,0,1,2.375-2.375h24.7A2.379,2.379,0,0,1,244.5,287.788Z" transform="translate(-215.056 -283.432)" fill="#f6dccd" fill-rule="evenodd"/>
          <path id="Trazado_881629" data-name="Trazado 881629" d="M440.738,290.6v16.368l1.086-1.086a2.294,2.294,0,0,0,.7-1.679V287.788a2.379,2.379,0,0,0-2.375-2.375h-1.781a2.374,2.374,0,0,1,2.375,2.375Z" transform="translate(-413.073 -283.432)" fill="#f1cbbc" fill-rule="evenodd"/>
          <path id="Trazado_881630" data-name="Trazado 881630" d="M291.327,364.528v2.078a.6.6,0,0,0,.594.594H294a.6.6,0,0,0,.594-.594v-2.078a.6.6,0,0,0-.594-.594h-2.078a.6.6,0,0,0-.594.594Zm8.905,8.905v2.078a.6.6,0,0,0,.594.594H302.9a.6.6,0,0,0,.594-.594v-2.078a.6.6,0,0,0-.594-.594h-2.078A.6.6,0,0,0,300.232,373.433Zm-4.452,0v2.078a.6.6,0,0,0,.594.594h2.078a.6.6,0,0,0,.594-.594v-2.078a.6.6,0,0,0-.594-.594h-2.078A.6.6,0,0,0,295.78,373.433Zm-4.453,0v2.078a.6.6,0,0,0,.594.594H294a.6.6,0,0,0,.594-.594v-2.078a.6.6,0,0,0-.594-.594h-2.078A.6.6,0,0,0,291.327,373.433Zm13.358-4.452v2.078a.6.6,0,0,0,.594.594h2.078a.6.6,0,0,0,.594-.594V368.98a.6.6,0,0,0-.594-.594h-2.078A.6.6,0,0,0,304.685,368.98Zm-4.452,0v2.078a.6.6,0,0,0,.594.594H302.9a.6.6,0,0,0,.594-.594V368.98a.6.6,0,0,0-.594-.594h-2.078A.6.6,0,0,0,300.232,368.98Zm-4.452,0v2.078a.6.6,0,0,0,.594.594h2.078a.6.6,0,0,0,.594-.594V368.98a.6.6,0,0,0-.594-.594h-2.078A.6.6,0,0,0,295.78,368.98Zm-4.453,0v2.078a.6.6,0,0,0,.594.594H294a.6.6,0,0,0,.594-.594V368.98a.6.6,0,0,0-.594-.594h-2.078A.6.6,0,0,0,291.327,368.98Zm13.358-4.453v2.078a.6.6,0,0,0,.594.594h2.078a.6.6,0,0,0,.594-.594v-2.078a.6.6,0,0,0-.594-.594h-2.078a.6.6,0,0,0-.594.594Zm-4.452,0v2.078a.6.6,0,0,0,.594.594H302.9a.6.6,0,0,0,.594-.594v-2.078a.6.6,0,0,0-.594-.594h-2.078a.6.6,0,0,0-.594.594Zm-4.452,0v2.078a.6.6,0,0,0,.594.594h2.078a.6.6,0,0,0,.594-.594v-2.078a.6.6,0,0,0-.594-.594h-2.078a.6.6,0,0,0-.594.594Z" transform="translate(-282.689 -353.06)" fill="#6cf5c2" fill-rule="evenodd"/>
          <path id="Trazado_881631" data-name="Trazado 881631" d="M302.9,372.839v2.078a.6.6,0,0,1-.594.594h-2.078a.6.6,0,0,0,.594.594H302.9a.6.6,0,0,0,.594-.594v-2.078A.6.6,0,0,0,302.9,372.839Zm-8.9-6.827a.6.6,0,0,1-.594.594h-2.078a.6.6,0,0,0,.594.594H294a.6.6,0,0,0,.594-.594v-2.078a.6.6,0,0,0-.594-.594Zm1.781.594a.6.6,0,0,0,.594.594h2.078a.6.6,0,0,0,.594-.594v-2.078a.6.6,0,0,0-.594-.594v2.078a.6.6,0,0,1-.594.594Zm4.452,0a.6.6,0,0,0,.594.594H302.9a.6.6,0,0,0,.594-.594v-2.078a.6.6,0,0,0-.594-.594v2.078a.6.6,0,0,1-.594.594Zm4.453,0a.6.6,0,0,0,.594.594h2.078a.6.6,0,0,0,.594-.594v-2.078a.6.6,0,0,0-.594-.594v2.078a.6.6,0,0,1-.594.594Zm2.672,3.859a.6.6,0,0,1-.594.594h-2.078a.6.6,0,0,0,.594.594h2.078a.6.6,0,0,0,.594-.594V368.98a.6.6,0,0,0-.594-.594Zm-4.453,1.187a.6.6,0,0,0,.594-.594V368.98a.6.6,0,0,0-.594-.594v2.078a.6.6,0,0,1-.594.594h-2.078a.6.6,0,0,0,.594.594Zm-4.453,0a.6.6,0,0,0,.594-.594V368.98a.6.6,0,0,0-.594-.594v2.078a.6.6,0,0,1-.594.594H295.78a.6.6,0,0,0,.594.594Zm-4.453,0a.6.6,0,0,0,.594-.594V368.98a.6.6,0,0,0-.594-.594v2.078a.6.6,0,0,1-.594.594h-2.078a.6.6,0,0,0,.594.594Zm.594,1.781a.6.6,0,0,0-.594-.594v2.078a.6.6,0,0,1-.594.594h-2.078a.6.6,0,0,0,.594.594H294a.6.6,0,0,0,.594-.594Zm3.859-.594v2.078a.6.6,0,0,1-.594.594H295.78a.6.6,0,0,0,.594.594h2.078a.6.6,0,0,0,.594-.594v-2.078A.6.6,0,0,0,298.451,372.839Z" transform="translate(-282.689 -353.06)" fill="#00e499" fill-rule="evenodd"/>
          <path id="Trazado_881632" data-name="Trazado 881632" d="M252.013,368.98v2.078a.6.6,0,0,0,.594.594h2.078a.6.6,0,0,0,.594-.594V368.98a.6.6,0,0,0-.594-.594h-2.078A.6.6,0,0,0,252.013,368.98Zm0-4.453v2.078a.6.6,0,0,0,.594.594h2.078a.6.6,0,0,0,.594-.594v-2.078a.6.6,0,0,0-.594-.594h-2.078a.6.6,0,0,0-.594.594Zm0,8.905v2.078a.6.6,0,0,0,.594.594h2.078a.6.6,0,0,0,.594-.594v-2.078a.6.6,0,0,0-.594-.594h-2.078A.6.6,0,0,0,252.013,373.433Z" transform="translate(-247.827 -353.06)" fill="#fe646f" fill-rule="evenodd"/>
          <path id="Trazado_881633" data-name="Trazado 881633" d="M254.684,367.2a.6.6,0,0,0,.594-.594v-2.078a.6.6,0,0,0-.594-.594v2.078a.6.6,0,0,1-.594.594h-2.078a.6.6,0,0,0,.594.594Zm0,3.265a.6.6,0,0,1-.594.594h-2.078a.6.6,0,0,0,.594.594h2.078a.6.6,0,0,0,.594-.594V368.98a.6.6,0,0,0-.594-.594Zm.594,2.968a.6.6,0,0,0-.594-.594v2.078a.6.6,0,0,1-.594.594h-2.078a.6.6,0,0,0,.594.594h2.078a.6.6,0,0,0,.594-.594Z" transform="translate(-247.827 -353.06)" fill="#fd4755" fill-rule="evenodd"/>
          <path id="Trazado_881634" data-name="Trazado 881634" d="M215.056,290.6H244.5v-2.808a2.379,2.379,0,0,0-2.375-2.375h-24.7a2.379,2.379,0,0,0-2.375,2.375V290.6Z" transform="translate(-215.056 -283.432)" fill="#f1cbbc" fill-rule="evenodd"/>
          <path id="Trazado_881635" data-name="Trazado 881635" d="M440.738,290.6h1.781v-2.808a2.379,2.379,0,0,0-2.375-2.375h-1.781a2.374,2.374,0,0,1,2.375,2.375Z" transform="translate(-413.073 -283.432)" fill="#d6b4a8" fill-rule="evenodd"/>
          <path id="Trazado_881636" data-name="Trazado 881636" d="M431.619,459.968a.6.6,0,0,0-.594.594v4.187a2.38,2.38,0,0,0,.7-.49l3.6-3.6a2.381,2.381,0,0,0,.49-.7h-4.187Z" transform="translate(-406.566 -438.218)" fill="#f1cbbc" fill-rule="evenodd"/>
          <path id="Trazado_881637" data-name="Trazado 881637" d="M459.33,461.75l1.086-1.086a2.381,2.381,0,0,0,.49-.7H459.33Z" transform="translate(-431.665 -438.219)" fill="#d6b4a8" fill-rule="evenodd"/>
          <path id="Trazado_881638" data-name="Trazado 881638" d="M247.785,267.924h1.177a.6.6,0,0,1,.594.594v3.6a.6.6,0,0,1-.594.594h-1.177a.6.6,0,0,1-.594-.594v-3.6A.6.6,0,0,1,247.785,267.924Zm19.8,0h1.177a.6.6,0,0,1,.594.594v3.6a.6.6,0,0,1-.594.594h-1.177a.6.6,0,0,1-.594-.594v-3.6A.6.6,0,0,1,267.588,267.924Zm-6.6,0h1.177a.6.6,0,0,1,.594.594v3.6a.6.6,0,0,1-.594.594h-1.177a.6.6,0,0,1-.594-.594v-3.6A.6.6,0,0,1,260.987,267.924Zm-6.6,0h1.177a.6.6,0,0,1,.594.594v3.6a.6.6,0,0,1-.594.594h-1.177a.6.6,0,0,1-.594-.594v-3.6A.6.6,0,0,1,254.386,267.924Z" transform="translate(-243.552 -267.924)" fill="#d6b4a8" fill-rule="evenodd"/>
          <path id="Trazado_881639" data-name="Trazado 881639" d="M266.994,272.119a.6.6,0,0,0,.594.594h1.177a.6.6,0,0,0,.594-.594v-3.6a.6.6,0,0,0-.594-.594v3.6a.6.6,0,0,1-.594.594Zm-12.025,0h-1.177a.6.6,0,0,0,.594.594h1.177a.6.6,0,0,0,.594-.594v-3.6a.6.6,0,0,0-.594-.594v3.6A.6.6,0,0,1,254.969,272.119Zm-6.007.594a.6.6,0,0,0,.594-.594v-3.6a.6.6,0,0,0-.594-.594v3.6a.6.6,0,0,1-.594.594h-1.177a.6.6,0,0,0,.594.594Zm13.2,0a.6.6,0,0,0,.594-.594v-3.6a.6.6,0,0,0-.594-.594v3.6a.6.6,0,0,1-.594.594h-1.177a.6.6,0,0,0,.594.594Z" transform="translate(-243.552 -267.924)" fill="#cca393" fill-rule="evenodd"/>
        </g>
      </g>
      <path id="Trazado_881640" data-name="Trazado 881640" d="M74.971,48.623V45.982H72.332v2.641Zm-4.456,4.452v-2.64H67.877v2.64Zm-15.995,0H57.16v-2.64H54.521Zm0-11.545V44.17H57.16V41.53ZM70.516,44.17V41.53H67.877V44.17Zm-4.45,4.452V45.982H63.427v2.641Zm-2.639,4.452h2.639v-2.64H63.427Zm-4.455-2.64v2.64h2.644v-2.64Zm4.455-6.264h2.639V41.53H63.427ZM61.616,41.53H58.971V44.17h2.644ZM57.16,45.982H54.521v2.641H57.16Zm1.811,2.641h2.644V45.982H58.971Zm11.545-2.641H67.877v2.641h2.639Zm4.456-4.452H72.332V44.17h2.639Zm.9,8.905H72.332v3.546a.907.907,0,0,1-.908.906H53.613a.905.905,0,0,1-.9-.906V40.624a.905.905,0,0,1,.9-.906H75.874a.907.907,0,0,1,.908.906v8.905A.907.907,0,0,1,75.874,50.435ZM77.279,53H75.388v1.893ZM73.5,56.174h-21.1a1.468,1.468,0,0,1-1.464-1.468V38.413H78.562V51.188H75.078a1.5,1.5,0,0,0-1.5,1.5v3.484c-.027,0-.053,0-.08,0Zm-41.131,0h17.1a3.233,3.233,0,0,1-.353-1.468v-.223H33.355a.907.907,0,0,1-.908-.906V9.206a.906.906,0,0,1,.908-.905H41.16V6.609H32.366a1.612,1.612,0,0,0-1.608,1.613v46.34A1.612,1.612,0,0,0,32.366,56.174Zm9.7-44.54H61.461a.905.905,0,0,0,.9-.906v-.617h6.9V29.577a1.461,1.461,0,0,0-.625-.139H67.455a1.5,1.5,0,0,0-1.5,1.5v.481H63.534v-.481a1.5,1.5,0,0,0-1.5-1.5H60.857a1.5,1.5,0,0,0-1.5,1.5v.481H56.931v-.481a1.5,1.5,0,0,0-1.5-1.5H54.254a1.5,1.5,0,0,0-1.5,1.5v.481h-.363a3.286,3.286,0,0,0-3.28,3.281V52.671H34.258V10.112h6.9v.617a.907.907,0,0,0,.908.906Zm.9-1.812V5.087H47.6a.9.9,0,0,0,.881-.693,3.378,3.378,0,0,1,6.566,0,.9.9,0,0,0,.881.693h4.626V9.823ZM62.364,6.609V8.3h7.805a.906.906,0,0,1,.908.905V31.418h1.48v-.481a1.52,1.52,0,0,1,.208-.758V8.221a1.613,1.613,0,0,0-1.613-1.613ZM74.923,31.25h-.55v2.976h.55Zm-6.6,2.976V31.25h-.55v2.976Zm-6.6,0V31.25h-.556v2.976Zm-6.6,0V31.25h-.55v2.976Zm20.114,1.812H74.058a1.5,1.5,0,0,1-1.5-1.5V33.23h-2.42v1.308a1.5,1.5,0,0,1-1.5,1.5H67.455a1.5,1.5,0,0,1-1.5-1.5V33.23H63.534v1.308a1.5,1.5,0,0,1-1.5,1.5H60.857a1.5,1.5,0,0,1-1.5-1.5V33.23H56.93v1.308a1.5,1.5,0,0,1-1.5,1.5H54.254a1.5,1.5,0,0,1-1.5-1.5V33.23h-.363A1.468,1.468,0,0,0,50.931,34.7v1.9H78.562V34.7a1.469,1.469,0,0,0-1.469-1.469h-.358v1.308A1.5,1.5,0,0,1,75.233,36.038ZM80.373,34.7V51.11a3.227,3.227,0,0,1-.956,2.32l-3.6,3.6a3.2,3.2,0,0,1-2.319.961H32.366a3.43,3.43,0,0,1-3.424-3.424V8.221A3.43,3.43,0,0,1,32.366,4.8H41.16V4.181a.907.907,0,0,1,.908-.906H46.94a5.187,5.187,0,0,1,9.643,0h4.878a.905.905,0,0,1,.9.906V4.8h8.788a3.431,3.431,0,0,1,3.43,3.425V29.438h.652a1.5,1.5,0,0,1,1.5,1.5v.481h.358a3.283,3.283,0,0,1,3.28,3.281Zm-30.141-7.03a.906.906,0,0,1,0-1.813H64.559a.906.906,0,1,1,0,1.813ZM45.124,41.791a.906.906,0,1,1,1.218,1.342l-5.006,4.545a.91.91,0,0,1-.609.235.9.9,0,0,1-.641-.265l-2.062-2.062a.906.906,0,0,1,1.282-1.281l1.453,1.451Zm0-8.608a.906.906,0,1,1,1.218,1.342l-5.006,4.545a.906.906,0,0,1-1.25-.03l-2.062-2.062A.906.906,0,0,1,39.306,35.7l1.453,1.452Zm0-8.607a.906.906,0,1,1,1.218,1.341l-5.006,4.545a.906.906,0,0,1-1.25-.03l-2.062-2.062a.906.906,0,0,1,1.282-1.282l1.453,1.452ZM51.759,3.283a1.133,1.133,0,1,0,1.133,1.133A1.133,1.133,0,0,0,51.759,3.283Zm-12.453,15.2,1.453,1.451,4.365-3.965a.906.906,0,1,1,1.218,1.342l-5.006,4.545a.907.907,0,0,1-1.25-.03l-2.062-2.062a.906.906,0,0,1,1.282-1.281Zm10.925-.936a.906.906,0,0,1,0-1.812H64.559a.906.906,0,1,1,0,1.812Zm-.9,4.155a.905.905,0,0,1,.9-.906H64.559a.906.906,0,1,1,0,1.812H50.231A.906.906,0,0,1,49.328,21.7Z" transform="translate(0)" fill-rule="evenodd"/>
    </g>
  </g>
</svg>
