<svg xmlns="http://www.w3.org/2000/svg" width="316" height="257" viewBox="0 0 316 257">
  <g id="Grupo_1110244" data-name="Grupo 1110244" transform="translate(-9854 6961)">
    <text id="Fuente:_SENA_LP_Risaralda_2014_." data-name="Fuente:(SENA – LP Risaralda, 2014)." transform="translate(9858 -6729)" fill="#12263f" font-size="14" font-family="Roboto-Regular, Roboto"><tspan x="0" y="13">Fuente:(SENA – LP Risaralda, 2014).</tspan></text>
    <text id="Sucesión_y_relación_entre_actividades." data-name="Sucesión y relación entre actividades." transform="translate(9858 -6759)" fill="#12263f" font-size="16" font-family="Roboto-Regular, Roboto"><tspan x="0" y="15">Sucesión y relación entre actividades.</tspan></text>
    <text id="Incorrecto" transform="translate(9886 -6822)" fill="#12263f" font-size="14" font-family="Roboto-Regular, Roboto"><tspan x="0" y="13">Incorrecto</tspan></text>
    <g id="Grupo_1108860" data-name="Grupo 1108860" transform="translate(10119 -6915) rotate(180)">
      <g id="Elipse_11655" data-name="Elipse 11655" transform="translate(0 0)" fill="#fff" stroke="#000" stroke-width="2">
        <circle cx="23" cy="23" r="23" stroke="none"/>
        <circle cx="23" cy="23" r="22" fill="none"/>
      </g>
    </g>
    <text id="A" transform="translate(10050 -6922)" font-size="13" font-family="Roboto-Black, Roboto" font-weight="800"><tspan x="0" y="0">A</tspan></text>
    <g id="Grupo_1108861" data-name="Grupo 1108861" transform="translate(10124.223 -6827.348) rotate(180)">
      <path id="Trazado_879042" data-name="Trazado 879042" d="M2.5,0A2.5,2.5,0,1,1,0,2.5,2.5,2.5,0,0,1,2.5,0Z" transform="translate(75.704 46.382)"/>
      <path id="Trazado_879026" data-name="Trazado 879026" d="M-1189.671-3024.7l67.048,21.815" transform="translate(1202.468 3052.706)" fill="none" stroke="#000" stroke-width="1"/>
      <path id="Trazado_879043" data-name="Trazado 879043" d="M2.5,0,5,5H0Z" transform="translate(8.412 28.96) rotate(-69)"/>
      <circle id="Elipse_11671" data-name="Elipse 11671" cx="2.5" cy="2.5" r="2.5" transform="translate(76.204 73.25)"/>
      <path id="Trazado_879041" data-name="Trazado 879041" d="M-1144.623-3066.228l26.353-19.013" transform="translate(1195.827 3161.706)" fill="none" stroke="#000" stroke-width="1"/>
    </g>
    <text id="_2_" data-name="2
" transform="translate(10092 -6932)" font-size="13" font-family="Roboto-Black, Roboto" font-weight="800"><tspan x="0" y="0">2</tspan><tspan x="0" y="16"></tspan></text>
    <g id="Grupo_1108863" data-name="Grupo 1108863" transform="translate(10161 -6827) rotate(180)">
      <g id="Elipse_11655-2" data-name="Elipse 11655" transform="translate(0 0)" fill="#fff" stroke="#000" stroke-width="2">
        <circle cx="23" cy="23" r="23" stroke="none"/>
        <circle cx="23" cy="23" r="22" fill="none"/>
      </g>
    </g>
    <text id="_3_" data-name="3
" transform="translate(10134 -6844)" font-size="13" font-family="Roboto-Black, Roboto" font-weight="800"><tspan x="0" y="0">3</tspan><tspan x="0" y="16"></tspan></text>
    <g id="Grupo_1108864" data-name="Grupo 1108864" transform="translate(10050 -6866) rotate(180)">
      <g id="Elipse_11655-3" data-name="Elipse 11655" transform="translate(0 0)" fill="#fff" stroke="#000" stroke-width="2">
        <circle cx="23" cy="23" r="23" stroke="none"/>
        <circle cx="23" cy="23" r="22" fill="none"/>
      </g>
    </g>
    <text id="_1_" data-name="1
" transform="translate(10023 -6883)" font-size="13" font-family="Roboto-Black, Roboto" font-weight="800"><tspan x="0" y="0">1</tspan><tspan x="0" y="16"></tspan></text>
    <g id="Grupo_1108865" data-name="Grupo 1108865" transform="translate(9982 -6867) rotate(180)">
      <g id="Elipse_11655-4" data-name="Elipse 11655" transform="translate(0 0)" fill="#fff" stroke="#000" stroke-width="2">
        <circle cx="23" cy="23" r="23" stroke="none"/>
        <circle cx="23" cy="23" r="22" fill="none"/>
      </g>
    </g>
    <text id="_2_2" data-name="2
" transform="translate(9955 -6884)" font-size="13" font-family="Roboto-Black, Roboto" font-weight="800"><tspan x="0" y="0">2</tspan><tspan x="0" y="16"></tspan></text>
    <g id="Grupo_1108866" data-name="Grupo 1108866" transform="translate(9982 -6867) rotate(180)">
      <g id="Elipse_11655-5" data-name="Elipse 11655" transform="translate(82 0)" fill="#fff" stroke="#000" stroke-width="2">
        <circle cx="23" cy="23" r="23" stroke="none"/>
        <circle cx="23" cy="23" r="22" fill="none"/>
      </g>
    </g>
    <path id="Trazado_879044" data-name="Trazado 879044" d="M2.5,0,5,5H0Z" transform="matrix(0.695, 0.719, -0.719, 0.695, 10073.062, -6926.636)"/>
    <path id="Trazado_879045" data-name="Trazado 879045" d="M-1141.706-3128.907l23.05,48.66" transform="translate(8986.376 -9998.955) rotate(180)" fill="none" stroke="red" stroke-width="1" stroke-dasharray="4"/>
    <text id="B" transform="translate(10069 -6850)" font-size="13" font-family="Roboto-Black, Roboto" font-weight="800"><tspan x="0" y="0">B</tspan></text>
    <text id="_1_2" data-name="1
" transform="translate(9873 -6884)" font-size="13" font-family="Roboto-Black, Roboto" font-weight="800"><tspan x="0" y="0">1</tspan><tspan x="0" y="16"></tspan></text>
    <circle id="Elipse_11672" data-name="Elipse 11672" cx="3" cy="3" r="3" transform="translate(9874 -6870)"/>
    <circle id="Elipse_11673" data-name="Elipse 11673" cx="3" cy="3" r="3" transform="translate(9874 -6916)"/>
    <path id="Trazado_879046" data-name="Trazado 879046" d="M683-5884s21.053-11.28,41.857-11.28,40.214,13.29,40.214,13.29" transform="translate(9195 -1029.926)" fill="none" stroke="#000" stroke-width="2"/>
    <path id="Trazado_879047" data-name="Trazado 879047" d="M685.44-5882.252s18.613-13.028,39.417-13.028S766.216-5884,766.216-5884" transform="translate(10644.216 -12750) rotate(180)" fill="none" stroke="#000" stroke-width="2"/>
    <text id="A-2" data-name="A" transform="translate(9915 -6931)" font-size="13" font-family="Roboto-Black, Roboto" font-weight="800"><tspan x="0" y="0">A</tspan></text>
    <text id="B-2" data-name="B" transform="translate(9915 -6839)" font-size="13" font-family="Roboto-Black, Roboto" font-weight="800"><tspan x="0" y="0">B</tspan></text>
    <text id="Correcto" transform="translate(10047 -6822)" fill="#12263f" font-size="14" font-family="Roboto-Regular, Roboto"><tspan x="0" y="13">Correcto</tspan></text>
  </g>
</svg>
