<svg xmlns="http://www.w3.org/2000/svg" width="1030" height="291" viewBox="0 0 1030 291">
  <g id="Grupo_1111375" data-name="Grupo 1111375" transform="translate(-285 -7156.746)">
    <path id="Trazado_908297" data-name="Trazado 908297" d="M0,0H1030V291H0Z" transform="translate(285 7156.746)" fill="#b0c0d2"/>
    <g id="Grupo_1111111" data-name="Grupo 1111111" transform="translate(3757.051 10397.262)">
      <g id="Grupo_1108798" data-name="Grupo 1108798" transform="translate(-4367.051 -11748.516)">
        <g id="Elipse_11655" data-name="Elipse 11655" transform="translate(1247.051 8535)" fill="#fff" stroke="#000" stroke-width="2">
          <circle cx="26" cy="26" r="26" stroke="none"/>
          <circle cx="26" cy="26" r="25" fill="none"/>
        </g>
        <path id="Trazado_879014" data-name="Trazado 879014" d="M-1002.051-3055.215h46.383" transform="translate(2251.445 11608)" fill="none" stroke="#000" stroke-width="1"/>
        <path id="Trazado_879015" data-name="Trazado 879015" d="M-978.275-3021v-34.434" transform="translate(2251.826 11608)" fill="none" stroke="#000" stroke-width="1"/>
      </g>
      <g id="Grupo_1108799" data-name="Grupo 1108799" transform="translate(-4254.051 -11748.516)">
        <g id="Elipse_11655-2" data-name="Elipse 11655" transform="translate(1247.051 8535)" fill="#fff" stroke="#000" stroke-width="2">
          <circle cx="26" cy="26" r="26" stroke="none"/>
          <circle cx="26" cy="26" r="25" fill="none"/>
        </g>
        <path id="Trazado_879014-2" data-name="Trazado 879014" d="M-1002.051-3055.215h45.882" transform="translate(2251.946 11608)" fill="none" stroke="#000" stroke-width="1"/>
        <path id="Trazado_879015-2" data-name="Trazado 879015" d="M-978.275-3021v-34.434" transform="translate(2251.826 11608)" fill="none" stroke="#000" stroke-width="1"/>
      </g>
      <g id="Grupo_1108800" data-name="Grupo 1108800" transform="translate(-4127.051 -11748.516)">
        <g id="Elipse_11655-3" data-name="Elipse 11655" transform="translate(1247.051 8535)" fill="#fff" stroke="#000" stroke-width="2">
          <circle cx="26" cy="26" r="26" stroke="none"/>
          <circle cx="26" cy="26" r="25" fill="none"/>
        </g>
        <path id="Trazado_879014-3" data-name="Trazado 879014" d="M-1002.051-3055.215H-956.1" transform="translate(2251.874 11608)" fill="none" stroke="#000" stroke-width="1"/>
        <path id="Trazado_879015-3" data-name="Trazado 879015" d="M-978.275-3021v-34.434" transform="translate(2251.826 11608)" fill="none" stroke="#000" stroke-width="1"/>
      </g>
      <g id="Grupo_1108801" data-name="Grupo 1108801" transform="translate(-4155.051 -11609.516)">
        <g id="Elipse_11655-4" data-name="Elipse 11655" transform="translate(1247.051 8535)" fill="#fff" stroke="#000" stroke-width="2">
          <circle cx="26" cy="26" r="26" stroke="none"/>
          <circle cx="26" cy="26" r="25" fill="none"/>
        </g>
        <path id="Trazado_879014-4" data-name="Trazado 879014" d="M-1002.051-3055.215H-956" transform="translate(2251.782 11608)" fill="none" stroke="#000" stroke-width="1"/>
        <path id="Trazado_879015-4" data-name="Trazado 879015" d="M-978.275-3021v-34.434" transform="translate(2251.826 11608)" fill="none" stroke="#000" stroke-width="1"/>
      </g>
      <g id="Grupo_1108802" data-name="Grupo 1108802" transform="translate(-4045.051 -11609.516)">
        <g id="Elipse_11655-5" data-name="Elipse 11655" transform="translate(1247.051 8535)" fill="#fff" stroke="#000" stroke-width="2">
          <circle cx="26" cy="26" r="26" stroke="none"/>
          <circle cx="26" cy="26" r="25" fill="none"/>
        </g>
        <path id="Trazado_879014-5" data-name="Trazado 879014" d="M-1002.051-3055.215h45.95" transform="translate(2251.878 11608)" fill="none" stroke="#000" stroke-width="1"/>
        <path id="Trazado_879015-5" data-name="Trazado 879015" d="M-978.275-3021v-34.434" transform="translate(2251.826 11608)" fill="none" stroke="#000" stroke-width="1"/>
      </g>
      <g id="Grupo_1108803" data-name="Grupo 1108803" transform="translate(-4389.051 -11609.516)">
        <g id="Elipse_11655-6" data-name="Elipse 11655" transform="translate(1247.051 8535)" fill="#fff" stroke="#000" stroke-width="2">
          <circle cx="26" cy="26" r="26" stroke="none"/>
          <circle cx="26" cy="26" r="25" fill="none"/>
        </g>
        <path id="Trazado_879014-6" data-name="Trazado 879014" d="M-1002.051-3055.215h45.96" transform="translate(2251.868 11608)" fill="none" stroke="#000" stroke-width="1"/>
        <path id="Trazado_879015-6" data-name="Trazado 879015" d="M-978.275-3021v-34.434" transform="translate(2251.826 11608)" fill="none" stroke="#000" stroke-width="1"/>
      </g>
      <g id="Grupo_1108804" data-name="Grupo 1108804" transform="translate(-4488.051 -11609.516)">
        <g id="Elipse_11655-7" data-name="Elipse 11655" transform="translate(1247.051 8535)" fill="#fff" stroke="#000" stroke-width="2">
          <circle cx="26" cy="26" r="26" stroke="none"/>
          <circle cx="26" cy="26" r="25" fill="none"/>
        </g>
        <path id="Trazado_879014-7" data-name="Trazado 879014" d="M-1002.051-3055.215h46.224" transform="translate(2251.604 11608)" fill="none" stroke="#000" stroke-width="1"/>
        <path id="Trazado_879015-7" data-name="Trazado 879015" d="M-978.275-3021v-34.434" transform="translate(2251.826 11608)" fill="none" stroke="#000" stroke-width="1"/>
      </g>
      <g id="Grupo_1108805" data-name="Grupo 1108805" transform="translate(-4279.051 -11609.516)">
        <g id="Elipse_11655-8" data-name="Elipse 11655" transform="translate(1247.051 8535)" fill="#fff" stroke="#000" stroke-width="2">
          <circle cx="26" cy="26" r="26" stroke="none"/>
          <circle cx="26" cy="26" r="25" fill="none"/>
        </g>
        <path id="Trazado_879014-8" data-name="Trazado 879014" d="M-1002.051-3055.215h46.07" transform="translate(2251.758 11608)" fill="none" stroke="#000" stroke-width="1"/>
        <path id="Trazado_879015-8" data-name="Trazado 879015" d="M-978.275-3021v-34.434" transform="translate(2251.826 11608)" fill="none" stroke="#000" stroke-width="1"/>
      </g>
      <text id="Fuente:_SENA_LP_Risaralda_2014_." data-name="Fuente:(SENA – LP Risaralda, 2014)." transform="translate(-3121 -3009.516)" fill="#12263f" font-size="16" font-family="Roboto-Regular, Roboto"><tspan x="0" y="17">Fuente:(SENA – LP Risaralda, 2014).</tspan></text>
      <circle id="Elipse_11656" data-name="Elipse 11656" cx="4" cy="4" r="4" transform="translate(-3073 -3191.516)"/>
      <path id="Trazado_879016" data-name="Trazado 879016" d="M-1193.262-3047h58.484" transform="translate(-1875 -140.516)" fill="none" stroke="#000" stroke-width="1"/>
      <path id="Polígono_13" data-name="Polígono 13" d="M4,0,8,7H0Z" transform="translate(-3007.5 -3191.516) rotate(90)"/>
      <circle id="Elipse_11657" data-name="Elipse 11657" cx="4" cy="4" r="4" transform="translate(-2961 -3191.516)"/>
      <path id="Trazado_879017" data-name="Trazado 879017" d="M-1193.262-3047h72.211" transform="translate(-1763 -140.516)" fill="none" stroke="#000" stroke-width="1"/>
      <path id="Polígono_14" data-name="Polígono 14" d="M4,0,8,7H0Z" transform="translate(-2880.551 -3191.516) rotate(90)"/>
      <circle id="Elipse_11658" data-name="Elipse 11658" cx="4" cy="4" r="4" transform="translate(-2986 -3052.516)"/>
      <path id="Trazado_879018" data-name="Trazado 879018" d="M-1193.262-3047h70.491" transform="translate(-1788 -1.516)" fill="none" stroke="#000" stroke-width="1"/>
      <path id="Polígono_15" data-name="Polígono 15" d="M4,0,8,7H0Z" transform="translate(-2908.051 -3052.516) rotate(90)"/>
      <circle id="Elipse_11659" data-name="Elipse 11659" cx="4" cy="4" r="4" transform="translate(-3097 -3052.516)"/>
      <path id="Trazado_879019" data-name="Trazado 879019" d="M-1193.262-3047h57.322" transform="translate(-1899 -1.516)" fill="none" stroke="#000" stroke-width="1"/>
      <path id="Polígono_16" data-name="Polígono 16" d="M4,0,8,7H0Z" transform="translate(-3032 -3052.516) rotate(90)"/>
      <path id="Polígono_17" data-name="Polígono 17" d="M4,0,8,7H0Z" transform="translate(-3143.051 -3052.516) rotate(90)"/>
      <circle id="Elipse_11661" data-name="Elipse 11661" cx="4" cy="4" r="4" transform="translate(-3196 -3052.516)"/>
      <path id="Trazado_879021" data-name="Trazado 879021" d="M-1193.262-3047h46" transform="translate(-1998 -1.516)" fill="none" stroke="#000" stroke-width="1"/>
      <circle id="Elipse_11662" data-name="Elipse 11662" cx="4" cy="4" r="4" transform="translate(-2861 -3052.016)"/>
      <path id="Trazado_879022" data-name="Trazado 879022" d="M-1193.262-3047h55.711" transform="translate(-1663 -1.016)" fill="none" stroke="#000" stroke-width="1"/>
      <path id="Polígono_18" data-name="Polígono 18" d="M4,0,8,7H0Z" transform="translate(-2798.051 -3052.016) rotate(90)"/>
      <text id="D" transform="translate(-3045 -3193.516)" font-size="16" font-family="Roboto-Black, Roboto" font-weight="800"><tspan x="0" y="0">D</tspan></text>
      <text id="G" transform="translate(-2922 -3193.516)" font-size="16" font-family="Roboto-Black, Roboto" font-weight="800"><tspan x="0" y="0">G</tspan></text>
      <text id="H" transform="translate(-2888 -3116.516)" font-size="16" font-family="Roboto-Black, Roboto" font-weight="800"><tspan x="0" y="0">H</tspan></text>
      <text id="F" transform="translate(-3019 -3116.516)" font-size="16" font-family="Roboto-Black, Roboto" font-weight="800"><tspan x="0" y="0">F</tspan></text>
      <text id="B" transform="translate(-3127 -3116.516)" font-size="16" font-family="Roboto-Black, Roboto" font-weight="800"><tspan x="0" y="0">B</tspan></text>
      <text id="A" transform="translate(-3176 -3056.516)" font-size="16" font-family="Roboto-Black, Roboto" font-weight="800"><tspan x="0" y="0">A</tspan></text>
      <text id="C" transform="translate(-3061 -3056.516)" font-size="16" font-family="Roboto-Black, Roboto" font-weight="800"><tspan x="0" y="0">C</tspan></text>
      <text id="E" transform="translate(-2946 -3056.516)" font-size="16" font-family="Roboto-Black, Roboto" font-weight="800"><tspan x="0" y="0">E</tspan></text>
      <text id="I" transform="translate(-2833 -3056.516)" font-size="16" font-family="Roboto-Black, Roboto" font-weight="800"><tspan x="0" y="0">I</tspan></text>
    </g>
  </g>
</svg>
