<svg xmlns="http://www.w3.org/2000/svg" xmlns:xlink="http://www.w3.org/1999/xlink" width="183.976" height="183.976" viewBox="0 0 183.976 183.976">
  <defs>
    <filter id="Elipse_11529" x="0" y="0" width="183.976" height="183.976" filterUnits="userSpaceOnUse">
      <feOffset dy="3" input="SourceAlpha"/>
      <feGaussianBlur stdDeviation="3" result="blur"/>
      <feFlood flood-opacity="0.161"/>
      <feComposite operator="in" in2="blur"/>
      <feComposite in="SourceGraphic"/>
    </filter>
    <filter id="Trazado_881572" x="43" y="38" width="108.185" height="108.443" filterUnits="userSpaceOnUse">
      <feOffset dx="5" dy="3" input="SourceAlpha"/>
      <feGaussianBlur stdDeviation="3" result="blur-2"/>
      <feFlood flood-opacity="0.161"/>
      <feComposite operator="in" in2="blur-2"/>
      <feComposite in="SourceGraphic"/>
    </filter>
  </defs>
  <g id="Grupo_1110231" data-name="Grupo 1110231" transform="translate(-1017.051 -1575)">
    <g transform="matrix(1, 0, 0, 1, 1017.05, 1575)" filter="url(#Elipse_11529)">
      <ellipse id="Elipse_11529-2" data-name="Elipse 11529" cx="82.988" cy="82.988" rx="82.988" ry="82.988" transform="translate(9 6)" fill="#f9e6e6"/>
    </g>
    <g transform="matrix(1, 0, 0, 1, 1017.05, 1575)" filter="url(#Trazado_881572)">
      <path id="Trazado_881572-2" data-name="Trazado 881572" d="M68.4,223.493c.269.412.541.8.814,1.2q-3.91,3.674-7.554,7.681A45.113,45.113,0,0,0,82.8,247.417c1.725-3.142,3.326-6.378,4.795-9.671a34.116,34.116,0,0,0,7.9,1.35q.441,5.378,1.3,10.738a45.007,45.007,0,0,0,24.951-7.17q-2.093-4.991-4.582-9.785a33.968,33.968,0,0,0,6-5.329c2.978,2.007,6.056,3.9,9.209,5.667a45.31,45.31,0,0,0,9.934-23.965c-3.482-.98-6.972-1.827-10.485-2.517a35.4,35.4,0,0,0-.448-8.025c3.423-1.077,6.819-2.295,10.137-3.653A45.451,45.451,0,0,0,129,172.338c-2.946,2.1-5.794,4.324-8.525,6.632a33.661,33.661,0,0,0-6.532-4.654q1.95-5.035,3.458-10.211a43.8,43.8,0,0,0-12.45-4.042,43.026,43.026,0,0,0-13.1-.319q-.288,5.427-.127,10.766a33.4,33.4,0,0,0-7.717,2.231q-2.7-4.614-5.834-9.078l-1.492.705c-.486.254-.956.529-1.427.8-.941.551-1.9,1.08-2.817,1.665a48.738,48.738,0,0,0-5.176,4.032,44.322,44.322,0,0,0-4.615,4.7c-.7.841-1.343,1.735-2.007,2.613a25.235,25.235,0,0,0-1.814,2.74q4.069,3.6,8.355,6.813l.007.011a33.236,33.236,0,0,0-3.081,7.409c-3.541-.513-7.1-.885-10.723-1.107a44.877,44.877,0,0,0,1.423,25.9q5.305-.918,10.541-2.282a33.221,33.221,0,0,0,3.049,5.834M82.99,182.532a26.32,26.32,0,1,1-7.641,36.419,26.351,26.351,0,0,1,7.641-36.419" transform="translate(-5.12 -115.39)" fill="#c10000"/>
    </g>
  </g>
</svg>
