<svg xmlns="http://www.w3.org/2000/svg" width="93" height="94" viewBox="0 0 93 94">
  <g id="Grupo_1110234" data-name="Grupo 1110234" transform="translate(-750.051 -2343)">
    <ellipse id="Elipse_11696" data-name="Elipse 11696" cx="46.5" cy="47" rx="46.5" ry="47" transform="translate(750.051 2343)" fill="#e69999"/>
    <g id="outsourcing_9015625" transform="translate(767.046 2326.02)">
      <path id="Trazado_881596" data-name="Trazado 881596" d="M52.738,72.269V67.718a.934.934,0,0,0-.935-.935H31.181V65.255h.008a13.617,13.617,0,1,0-1.886,0h.008v1.527H8.69a.934.934,0,0,0-.935.935v4.551H7.748a8.617,8.617,0,1,0,1.884,0H9.624V68.652H29.311v3.617H29.3a8.617,8.617,0,1,0,1.885,0h-.008V68.652H50.868v3.617H50.86a8.617,8.617,0,1,0,1.885,0Zm-2.461,8.344a15.085,15.085,0,0,0-2.472.442,3,3,0,0,0-2.353,2.033,6.74,6.74,0,1,1,12.7,0A2.993,2.993,0,0,0,55.8,81.055a15.025,15.025,0,0,0-2.369-.431,3.17,3.17,0,1,0-3.154-.011ZM30.246,74.095a6.738,6.738,0,0,1,6.35,8.994,2.994,2.994,0,0,0-2.352-2.034,15.078,15.078,0,0,0-2.369-.431,3.169,3.169,0,1,0-3.155-.011,15.1,15.1,0,0,0-2.472.442A3,3,0,0,0,23.9,83.087a6.736,6.736,0,0,1,6.349-8.993ZM11.918,77.873a3.168,3.168,0,1,0-4.755,2.74,15.022,15.022,0,0,0-2.471.442A3,3,0,0,0,2.34,83.088a6.739,6.739,0,1,1,12.7,0,2.994,2.994,0,0,0-2.352-2.034,15.069,15.069,0,0,0-2.372-.43,3.167,3.167,0,0,0,1.6-2.752Z" transform="translate(-0.06 -0.064)" fill="#f44336" fill-rule="evenodd"/>
      <path id="Trazado_881597" data-name="Trazado 881597" d="M58.092,83.025A2.993,2.993,0,0,0,55.74,80.99a15.024,15.024,0,0,0-2.369-.431,3.17,3.17,0,1,0-3.154-.011,15.085,15.085,0,0,0-2.472.442,3,3,0,0,0-2.353,2.033,6.74,6.74,0,1,1,12.7,0ZM51.8,79.09a1.282,1.282,0,1,0-1.281-1.281A1.282,1.282,0,0,0,51.8,79.09Zm-2.058,8.116a6.754,6.754,0,0,0,4,0v-2.86a.943.943,0,1,1,1.886,0v1.925a6.634,6.634,0,0,0,.654-.524V83.63c0-.448-.559-.692-1.028-.817a13.34,13.34,0,0,0-3.451-.446h-.112a13.345,13.345,0,0,0-3.457.446c-.469.125-1.029.369-1.029.817v2.115a6.769,6.769,0,0,0,.654.525V84.346a.943.943,0,1,1,1.886,0v2.86ZM36.925,80.769a6.718,6.718,0,0,1-.389,2.256,2.994,2.994,0,0,0-2.352-2.034,15.077,15.077,0,0,0-2.369-.431,3.169,3.169,0,1,0-3.155-.011,15.1,15.1,0,0,0-2.472.442,3,3,0,0,0-2.352,2.033,6.738,6.738,0,1,1,13.089-2.254ZM30.246,79.09a1.282,1.282,0,1,0-1.282-1.282,1.282,1.282,0,0,0,1.282,1.282Zm-2.059,8.116a6.757,6.757,0,0,0,4,0v-2.86a.943.943,0,1,1,1.886,0v1.925a6.659,6.659,0,0,0,.654-.524V83.63c0-.448-.56-.692-1.029-.817a13.338,13.338,0,0,0-3.451-.446h-.112a13.349,13.349,0,0,0-3.457.446c-.469.125-1.029.369-1.029.817v2.115a6.77,6.77,0,0,0,.655.525V84.346a.943.943,0,1,1,1.886,0v2.86ZM15.368,80.769a6.715,6.715,0,0,1-.389,2.256,2.994,2.994,0,0,0-2.352-2.034,15.069,15.069,0,0,0-2.372-.43A3.168,3.168,0,1,0,7.1,80.548a15.02,15.02,0,0,0-2.471.442,3,3,0,0,0-2.352,2.033,6.739,6.739,0,1,1,13.089-2.254ZM8.689,79.09a1.282,1.282,0,1,0-1.281-1.282A1.282,1.282,0,0,0,8.689,79.09ZM6.631,87.206a6.757,6.757,0,0,0,4,0v-2.86a.943.943,0,1,1,1.886,0v1.925a6.643,6.643,0,0,0,.654-.524V83.63c0-.448-.56-.692-1.029-.817a13.184,13.184,0,0,0-3.506-.446,13.3,13.3,0,0,0-3.513.446c-.469.125-1.029.369-1.029.817v2.115a6.671,6.671,0,0,0,.654.525V84.346a.943.943,0,1,1,1.886,0v2.86ZM26.588,60.147q-.23-.464-.43-.969a23.952,23.952,0,0,1,8.057,0q-.2.5-.43.969c-1.006,2.033-2.319,3.2-3.6,3.2s-2.59-1.164-3.6-3.2Zm-2.3-.554a13.2,13.2,0,0,0,1.494,2.9,11.764,11.764,0,0,1-3.495-2.2,15.867,15.867,0,0,1,2-.692ZM22.97,52.549a23.831,23.831,0,0,0,.748,5.248,16.725,16.725,0,0,0-2.781,1.03,11.67,11.67,0,0,1-2.452-6.279Zm.748-7.134a23.815,23.815,0,0,0-.748,5.248H18.486a11.662,11.662,0,0,1,2.452-6.278A16.948,16.948,0,0,0,23.718,45.415Zm.571-1.8a15.609,15.609,0,0,1-2-.692,11.761,11.761,0,0,1,3.494-2.2,13.154,13.154,0,0,0-1.494,2.894Zm9.495-.553c.153.308.3.633.43.967a23.952,23.952,0,0,1-8.057,0c.134-.334.277-.659.43-.967,1.007-2.034,2.319-3.2,3.6-3.2S32.778,41.032,33.784,43.066Zm2.3.553a13.108,13.108,0,0,0-1.493-2.894,11.757,11.757,0,0,1,3.494,2.2,15.554,15.554,0,0,1-2,.692ZM37.4,50.663a23.825,23.825,0,0,0-.746-5.248,17.036,17.036,0,0,0,2.78-1.03,11.683,11.683,0,0,1,2.452,6.278Zm-12.54,0a21.911,21.911,0,0,1,.7-4.822,25.68,25.68,0,0,0,9.253,0,21.917,21.917,0,0,1,.7,4.822Zm10.652,1.886a21.91,21.91,0,0,1-.7,4.822,25.673,25.673,0,0,0-9.253,0,21.9,21.9,0,0,1-.7-4.822Zm2.57,7.735a11.76,11.76,0,0,1-3.494,2.2,13.151,13.151,0,0,0,1.493-2.894,15.809,15.809,0,0,1,2,.692ZM36.655,57.8a23.84,23.84,0,0,0,.746-5.248h4.486a11.688,11.688,0,0,1-2.452,6.279,16.81,16.81,0,0,0-2.781-1.03Zm16.03,14.4V67.653a.943.943,0,0,0-.943-.943H31.129V65.2a13.625,13.625,0,1,0-1.886,0V66.71H8.629a.943.943,0,0,0-.943.943V72.2a8.625,8.625,0,1,0,1.886,0V68.6h19.67v3.6a8.625,8.625,0,1,0,1.886,0V68.6H50.8v3.6a8.625,8.625,0,1,0,1.886,0Z" transform="translate(0)" fill-rule="evenodd"/>
    </g>
  </g>
</svg>
