<svg xmlns="http://www.w3.org/2000/svg" width="93" height="94" viewBox="0 0 93 94">
  <g id="Grupo_1110233" data-name="Grupo 1110233" transform="translate(-540.509 -2343.174)">
    <ellipse id="Elipse_11698" data-name="Elipse 11698" cx="46.5" cy="47" rx="46.5" ry="47" transform="translate(540.509 2343.174)" fill="#c10000"/>
    <g id="conditions_1924356" transform="translate(555.051 2365)">
      <path id="Trazado_881574" data-name="Trazado 881574" d="M46,42H6a4,4,0,0,1-4-4V14H46Z" fill="#e6e9ed"/>
      <path id="Trazado_881575" data-name="Trazado 881575" d="M52,18v6H31V18H52Z" fill="#fcd770"/>
      <path id="Trazado_881576" data-name="Trazado 881576" d="M59,18a3,3,0,0,1,0,6H56V18Z" fill="#aab2bd"/>
      <path id="Trazado_881577" data-name="Trazado 881577" d="M52,18h4v6H52Z" fill="#e6e9ed"/>
      <path id="Trazado_881578" data-name="Trazado 881578" d="M31,18v6l-4.07-1.63a1.474,1.474,0,0,1,0-2.74Z" fill="#aab2bd"/>
      <path id="Trazado_881579" data-name="Trazado 881579" d="M46,8v6H2V8A2.006,2.006,0,0,1,4,6h6V8a2.006,2.006,0,0,0,2,2h2a2.006,2.006,0,0,0,2-2V6H32V8a2.006,2.006,0,0,0,2,2h2a2.006,2.006,0,0,0,2-2V6h6A2.006,2.006,0,0,1,46,8Z" fill="#ff826e"/>
      <path id="Trazado_881580" data-name="Trazado 881580" d="M38,6V8a2.006,2.006,0,0,1-2,2H34a2.006,2.006,0,0,1-2-2V4a2.006,2.006,0,0,1,2-2h2a2.006,2.006,0,0,1,2,2Z" fill="#ccd1d9"/>
      <path id="Trazado_881581" data-name="Trazado 881581" d="M16,6V8a2.006,2.006,0,0,1-2,2H12a2.006,2.006,0,0,1-2-2V4a2.006,2.006,0,0,1,2-2h2a2.006,2.006,0,0,1,2,2Z" fill="#ccd1d9"/>
      <path id="Trazado_881582" data-name="Trazado 881582" d="M46.01,34.01,44,32l2-2,3-3L61,39l-5,5-2.01-2Z" fill="#4fc1e9"/>
      <g id="Grupo_1110031" data-name="Grupo 1110031">
        <path id="Trazado_881583" data-name="Trazado 881583" d="M44.78,42.48a6.791,6.791,0,0,1-2.61.52H41l-1.41,1.41a2.006,2.006,0,0,1-1.42.59H34.41a1.414,1.414,0,0,1-1-2.41L39,37l.51-.51a8.642,8.642,0,0,1,2.76-1.85A8.433,8.433,0,0,1,45.51,34c.17,0,.33,0,.5.01L53.99,42c.01.16.01.32.01.49a8.469,8.469,0,0,1-2.49,6l-.01.01-6-6Z" fill="#f0d0b4"/>
        <path id="Trazado_881584" data-name="Trazado 881584" d="M49.38,52.38a2.121,2.121,0,0,1-3,3,2.121,2.121,0,0,1-3,3,2.121,2.121,0,0,1-3,3l-.88-.88-.01-.01A2.1,2.1,0,0,0,40,59.12a2.121,2.121,0,0,0-3.62-1.5,2.121,2.121,0,0,0-3-3,2.121,2.121,0,0,0-3-3,2.121,2.121,0,0,0-3-3L27,49l-.51-.51a8.469,8.469,0,0,1-2.49-6c0-.17,0-.33.01-.5l7.98-7.98c.17-.01.33-.01.5-.01a8.433,8.433,0,0,1,3.24.64,8.642,8.642,0,0,1,2.76,1.85L39,37l-5.59,5.59a1.414,1.414,0,0,0,1,2.41h3.76a2.006,2.006,0,0,0,1.42-.59L41,43h1.17a6.791,6.791,0,0,0,2.61-.52l.72.02,6,6,.88.88a2.121,2.121,0,0,1-3,3Z" fill="#f0d0b4"/>
        <path id="Trazado_881585" data-name="Trazado 881585" d="M39.38,57.62a2.133,2.133,0,0,1,.62,1.5,2.1,2.1,0,0,1-.51,1.37.689.689,0,0,1-.11.13l-.76.76a2.121,2.121,0,0,1-3-3l.76-.76a2.125,2.125,0,0,1,3,0Z" fill="#f0d0b4"/>
        <path id="Trazado_881586" data-name="Trazado 881586" d="M36.38,54.62a2.125,2.125,0,0,1,0,3l-.76.76a2.121,2.121,0,0,1-3-3l.76-.76a2.125,2.125,0,0,1,3,0Z" fill="#f0d0b4"/>
      </g>
      <path id="Trazado_881587" data-name="Trazado 881587" d="M31.99,34.01l-7.98,7.98L22,44l-2-2-3-3L28,28l1-1,5,5Z" fill="#4fc1e9"/>
      <path id="Trazado_881588" data-name="Trazado 881588" d="M33.38,51.62a2.125,2.125,0,0,1,0,3l-.76.76a2.121,2.121,0,0,1-3-3l.76-.76a2.125,2.125,0,0,1,3,0Z" fill="#f0d0b4"/>
      <path id="Trazado_881589" data-name="Trazado 881589" d="M30.38,48.62a2.125,2.125,0,0,1,0,3l-.76.76a2.121,2.121,0,0,1-3-3L27,49l.38-.38a2.125,2.125,0,0,1,3,0Z" fill="#f0d0b4"/>
      <path id="Trazado_881590" data-name="Trazado 881590" d="M26,21v5H18V18h8Z" fill="#fcd770"/>
      <path id="Trazado_881591" data-name="Trazado 881591" d="M6,30h8v8H6Z" fill="#ff826e"/>
      <path id="Trazado_881592" data-name="Trazado 881592" d="M6,18h8v8H6Z" fill="#ff826e"/>
      <path id="Trazado_881593" data-name="Trazado 881593" d="M47,27.586V25H59a4,4,0,0,0,0-8H47V8a3,3,0,0,0-3-3H39V4a3,3,0,0,0-3-3H34a3,3,0,0,0-3,3V5H17V4a3,3,0,0,0-3-3H12A3,3,0,0,0,9,4V5H4A3,3,0,0,0,1,8V40a3,3,0,0,0,3,3H19.586L22,45.414l1.167-1.167a9.393,9.393,0,0,0,2.458,4.776,3.1,3.1,0,0,0,2.386,4.966,3.113,3.113,0,0,0,3,3,3.113,3.113,0,0,0,3,3,3.115,3.115,0,0,0,5.317,2.1l.172-.172.172.172a3.115,3.115,0,0,0,5.317-2.1,3.113,3.113,0,0,0,3-3,3.113,3.113,0,0,0,3-3,3.115,3.115,0,0,0,2.1-5.317l-.208-.208a9.383,9.383,0,0,0,1.955-4.217L56,45.414,62.414,39,49,25.586ZM25,25H19V19h6Zm5-2.477-2.7-1.08a.477.477,0,0,1,0-.886l2.7-1.08ZM32,19H51v4H32Zm21,0h2v4H53Zm8,2a2,2,0,0,1-2,2H57V19h2A2,2,0,0,1,61,21ZM33,4a1,1,0,0,1,1-1h2a1,1,0,0,1,1,1V8a1,1,0,0,1-1,1H34a1,1,0,0,1-1-1ZM11,4a1,1,0,0,1,1-1h2a1,1,0,0,1,1,1V8a1,1,0,0,1-1,1H12a1,1,0,0,1-1-1ZM4,7H9V8a3,3,0,0,0,3,3h2a3,3,0,0,0,3-3V7H31V8a3,3,0,0,0,3,3h2a3,3,0,0,0,3-3V7h5a1,1,0,0,1,1,1v5H3V8A1,1,0,0,1,4,7ZM4,41a1,1,0,0,1-1-1V15H45v2H30.808L27,18.523V17H17V27H27V23.477L30.808,25H45v4.586L42.586,32l1.167,1.167A9.406,9.406,0,0,0,39,35.6a9.48,9.48,0,0,0-4.758-2.432L35.414,32,29,25.586,15.586,39l2,2Zm14.414-2L29,28.414,32.586,32,22,42.586ZM27,50.879a1.117,1.117,0,0,1,.328-.793l.758-.758a1.121,1.121,0,0,1,1.586,1.586l-.758.758A1.121,1.121,0,0,1,27,50.879Zm3,3a1.117,1.117,0,0,1,.328-.793l.758-.758a1.121,1.121,0,0,1,1.586,1.586l-.758.758A1.121,1.121,0,0,1,30,53.879Zm3,3a1.117,1.117,0,0,1,.328-.793l.758-.758a1.121,1.121,0,0,1,1.586,1.586l-.758.758A1.121,1.121,0,0,1,33,56.879Zm4.914,3.793a1.121,1.121,0,0,1-1.586-1.586l.758-.758a1.121,1.121,0,0,1,1.586,1.586ZM50.879,52a1.117,1.117,0,0,1-.793-.328l-2.379-2.379-1.414,1.414,2.379,2.379a1.121,1.121,0,0,1-1.586,1.586l-2.379-2.379-1.414,1.414,2.379,2.379a1.121,1.121,0,0,1-1.586,1.586l-2.379-2.379-1.414,1.414,2.379,2.379a1.121,1.121,0,0,1-1.586,1.586l-.334-.334a3.111,3.111,0,0,0-2.763-4.327,3.113,3.113,0,0,0-3-3,3.113,3.113,0,0,0-3-3A3.119,3.119,0,0,0,28.879,47a3.085,3.085,0,0,0-1.838.611A7.427,7.427,0,0,1,25,42.485c0-.025,0-.049,0-.073l7.4-7.4a7.505,7.505,0,0,1,5.173,2l-4.869,4.869A2.414,2.414,0,0,0,34.414,46h3.757a2.982,2.982,0,0,0,2.122-.879L41.414,44h.757a7.818,7.818,0,0,0,2.869-.546l6.632,6.632A1.121,1.121,0,0,1,50.879,52ZM53,42.485a7.421,7.421,0,0,1-1.55,4.55l-4.6-4.6a8.077,8.077,0,0,0,.856-.73l-1.414-1.414A5.793,5.793,0,0,1,42.171,42H40.586l-1.707,1.707a1,1,0,0,1-.708.293H34.414a.414.414,0,0,1-.293-.707l6.1-6.1A7.528,7.528,0,0,1,45.6,35.011l7.4,7.4c0,.026,0,.05,0,.074Zm3,.1L45.414,32,49,28.414,59.586,39Z"/>
      <path id="Trazado_881594" data-name="Trazado 881594" d="M5,27H15V17H5Zm2-8h6v6H7Z"/>
      <path id="Trazado_881595" data-name="Trazado 881595" d="M5,39H15V29H5Zm2-8h6v6H7Z"/>
    </g>
  </g>
</svg>
