<svg xmlns="http://www.w3.org/2000/svg" xmlns:xlink="http://www.w3.org/1999/xlink" width="37.284" height="36.28" viewBox="0 0 37.284 36.28">
  <defs>
    <filter id="Trazado_906062" x="1.022" y="0" width="36.262" height="36.28" filterUnits="userSpaceOnUse">
      <feOffset dx="5" dy="3" input="SourceAlpha"/>
      <feGaussianBlur stdDeviation="3" result="blur"/>
      <feFlood flood-opacity="0.161"/>
      <feComposite operator="in" in2="blur"/>
      <feComposite in="SourceGraphic"/>
    </filter>
  </defs>
  <g id="Grupo_1111372" data-name="Grupo 1111372" transform="translate(-294.096 -2474.516)">
    <g id="Grupo_1111097" data-name="Grupo 1111097" transform="translate(3.063 -649.615)">
      <g id="Grupo_1107067" data-name="Grupo 1107067" transform="translate(291.034 3124.905)">
        <path id="Trazado_903388" data-name="Trazado 903388" d="M200.682,135.353c-.006.026-.012.051-.02.075v0a.239.239,0,0,0,.02-.077" transform="translate(-172.566 -135.353)" fill="#2d2d2d"/>
        <path id="Trazado_903389" data-name="Trazado 903389" d="M14.094,0A14.094,14.094,0,1,1,0,14.094,14.094,14.094,0,0,1,14.094,0Z" transform="translate(0 0.479)" fill="#2b7f7b"/>
        <circle id="Elipse_12422" data-name="Elipse 12422" cx="14.127" cy="14.127" r="14.127" transform="translate(0.041 0.479)" fill="#ffc303"/>
      </g>
      <g transform="matrix(1, 0, 0, 1, 291.03, 3124.13)" filter="url(#Trazado_906062)">
        <path id="Trazado_906062-2" data-name="Trazado 906062" d="M55.315,171.993c.053.081.106.158.16.236q-.769.722-1.485,1.51a8.868,8.868,0,0,0,4.157,2.958c.339-.618.654-1.254.943-1.9a6.706,6.706,0,0,0,1.553.265q.087,1.057.256,2.111a8.847,8.847,0,0,0,4.9-1.409q-.412-.981-.9-1.924a6.679,6.679,0,0,0,1.179-1.048c.585.395,1.191.767,1.81,1.114a8.907,8.907,0,0,0,1.953-4.711c-.684-.193-1.37-.359-2.061-.495a6.959,6.959,0,0,0-.088-1.577c.673-.212,1.34-.451,1.993-.718a8.935,8.935,0,0,0-2.459-4.466c-.579.413-1.139.85-1.676,1.3a6.616,6.616,0,0,0-1.284-.915q.383-.99.68-2.007a8.61,8.61,0,0,0-2.447-.795,8.459,8.459,0,0,0-2.575-.063q-.057,1.067-.025,2.116a6.567,6.567,0,0,0-1.517.439q-.532-.907-1.147-1.785l-.293.139c-.1.05-.188.1-.28.158-.185.108-.373.212-.554.327a9.581,9.581,0,0,0-1.017.793,8.717,8.717,0,0,0-.907.923c-.138.165-.264.341-.395.514a4.961,4.961,0,0,0-.357.539q.8.708,1.642,1.339v0a6.533,6.533,0,0,0-.606,1.457c-.7-.1-1.4-.174-2.108-.218a8.822,8.822,0,0,0,.28,5.091q1.043-.18,2.072-.449a6.533,6.533,0,0,0,.6,1.147m2.869-8.052a5.174,5.174,0,1,1-1.5,7.159,5.18,5.18,0,0,1,1.5-7.159" transform="translate(-46.83 -153.14)" fill="#c10000" stroke="#000" stroke-width="0.5"/>
      </g>
    </g>
  </g>
</svg>
