<svg xmlns="http://www.w3.org/2000/svg" width="239.577" height="277.795" viewBox="0 0 239.577 277.795">
  <g id="Grupo_1111377" data-name="Grupo 1111377" transform="translate(-353.804 8489.842)">
    <g id="Grupo_1111376" data-name="Grupo 1111376">
      <g id="Grupo_1111371" data-name="Grupo 1111371" transform="translate(538.338 -8477.689)">
        <g id="Elipse_11655" data-name="Elipse 11655" transform="translate(0 0)" fill="#fff" stroke="#000" stroke-width="2">
          <circle cx="25.888" cy="25.888" r="25.888" stroke="none"/>
          <circle cx="25.888" cy="25.888" r="24.888" fill="none"/>
        </g>
        <path id="Trazado_879014" data-name="Trazado 879014" d="M-1002.051-3055.215h46.9" transform="translate(1004.426 3073.323)" fill="none" stroke="#000" stroke-width="1"/>
        <path id="Trazado_879015" data-name="Trazado 879015" d="M-978.275-3022.107v-33.327" transform="translate(1004.312 3073.323)" fill="none" stroke="#000" stroke-width="1"/>
      </g>
      <g id="Grupo_1111372" data-name="Grupo 1111372" transform="translate(507.113 -8327.617)">
        <g id="Elipse_11655-2" data-name="Elipse 11655" transform="translate(0 0)" fill="#fff" stroke="#000" stroke-width="2">
          <circle cx="25.888" cy="25.888" r="25.888" stroke="none"/>
          <circle cx="25.888" cy="25.888" r="24.888" fill="none"/>
        </g>
        <path id="Trazado_879014-2" data-name="Trazado 879014" d="M-1002.051-3055.215H-954.9" transform="translate(1004.309 3073.323)" fill="none" stroke="#000" stroke-width="1"/>
        <path id="Trazado_879015-2" data-name="Trazado 879015" d="M-978.275-3022.026v-33.408" transform="translate(1004.312 3073.323)" fill="none" stroke="#000" stroke-width="1"/>
      </g>
      <g id="Grupo_1111373" data-name="Grupo 1111373" transform="translate(588.113 -8404.011)">
        <path id="Trazado_879026" data-name="Trazado 879026" d="M-1223.532-3072.128l-26.486,92.373" transform="translate(1197.35 3050.452)" fill="none" stroke="#000" stroke-width="1"/>
        <path id="Trazado_879038" data-name="Trazado 879038" d="M3.452,0,5.259,3.163,6.9,6.04H0Z" transform="matrix(-0.934, -0.358, 0.358, -0.934, -51.797, 76.753)"/>
      </g>
      <path id="Trazado_908299" data-name="Trazado 908299" d="M3.885,0H2.862L1.351-2.654V0H.322V-4.266H1.351L2.859-1.611V-4.266H3.885Zm.48-1.614a1.871,1.871,0,0,1,.185-.845,1.32,1.32,0,0,1,.53-.57,1.6,1.6,0,0,1,.812-.2,1.458,1.458,0,0,1,1.122.441,1.692,1.692,0,0,1,.41,1.2v.035A1.642,1.642,0,0,1,7.012-.376,1.461,1.461,0,0,1,5.9.059,1.478,1.478,0,0,1,4.811-.347a1.587,1.587,0,0,1-.442-1.1Zm.987.062a1.179,1.179,0,0,0,.138.645A.459.459,0,0,0,5.9-.7q.527,0,.539-.812v-.1q0-.853-.545-.853-.5,0-.536.735Zm2.382-.056A1.936,1.936,0,0,1,8.06-2.795a1.07,1.07,0,0,1,.908-.434.91.91,0,0,1,.715.334V-4.5h.99V0H9.785l-.05-.34a.935.935,0,0,1-.773.4,1.068,1.068,0,0,1-.9-.434A2,2,0,0,1,7.734-1.608Zm.987.062q0,.844.492.844a.486.486,0,0,0,.469-.275V-2.186a.473.473,0,0,0-.463-.281q-.457,0-.5.738Zm2.388-.067a1.871,1.871,0,0,1,.185-.845,1.32,1.32,0,0,1,.53-.57,1.6,1.6,0,0,1,.812-.2,1.458,1.458,0,0,1,1.122.441,1.692,1.692,0,0,1,.41,1.2v.035a1.642,1.642,0,0,1-.412,1.176,1.461,1.461,0,0,1-1.115.435,1.478,1.478,0,0,1-1.087-.406,1.587,1.587,0,0,1-.442-1.1Zm.987.062a1.179,1.179,0,0,0,.138.645.459.459,0,0,0,.407.205q.527,0,.539-.812v-.1q0-.853-.545-.853-.5,0-.536.735Zm4.043-.531L16.4-4.266h2.493V-3.5H17.2l-.1.847a1.164,1.164,0,0,1,.277-.109,1.263,1.263,0,0,1,.335-.047,1.251,1.251,0,0,1,.977.376,1.516,1.516,0,0,1,.341,1.056,1.514,1.514,0,0,1-.183.743,1.259,1.259,0,0,1-.514.511,1.623,1.623,0,0,1-.782.179A1.747,1.747,0,0,1,16.8-.107a1.351,1.351,0,0,1-.551-.454,1.1,1.1,0,0,1-.2-.651h.99a.56.56,0,0,0,.149.371.474.474,0,0,0,.354.137q.5,0,.5-.737,0-.681-.609-.681a.608.608,0,0,0-.516.222Z" transform="translate(552.896 -8485.342)"/>
      <path id="Trazado_908302" data-name="Trazado 908302" d="M4.9,0H2.918V-6.3L.973-5.736v-1.5L4.717-8.531H4.9ZM9.275-5.092h.932a.969.969,0,0,0,1.107-1.084.937.937,0,0,0-.264-.688,1,1,0,0,0-.744-.267,1.07,1.07,0,0,0-.683.229.7.7,0,0,0-.29.568H7.359a2.021,2.021,0,0,1,.375-1.2,2.476,2.476,0,0,1,1.04-.823,3.556,3.556,0,0,1,1.462-.3A3.494,3.494,0,0,1,12.475-8a2.162,2.162,0,0,1,.814,1.787,1.8,1.8,0,0,1-.337,1.04,2.4,2.4,0,0,1-.981.794,2.294,2.294,0,0,1,1.066.747A1.967,1.967,0,0,1,13.424-2.4a2.2,2.2,0,0,1-.879,1.828,3.648,3.648,0,0,1-2.309.686A3.783,3.783,0,0,1,8.681-.2a2.437,2.437,0,0,1-1.087-.885,2.3,2.3,0,0,1-.369-1.286H9.211a.889.889,0,0,0,.316.68,1.117,1.117,0,0,0,.779.287,1.17,1.17,0,0,0,.832-.29.969.969,0,0,0,.311-.741,1.133,1.133,0,0,0-.322-.914,1.347,1.347,0,0,0-.891-.27H9.275Z" transform="translate(513.623 -8293.637)"/>
      <path id="Trazado_908298" data-name="Trazado 908298" d="M4.9,0H2.918V-6.3L.973-5.736v-1.5L4.717-8.531H4.9Zm8.525,0H7.471V-1.289l2.742-2.883a3.273,3.273,0,0,0,1.014-1.834,1.276,1.276,0,0,0-.24-.838.858.858,0,0,0-.7-.287.868.868,0,0,0-.732.384,1.577,1.577,0,0,0-.281.958H7.295a2.8,2.8,0,0,1,.393-1.45,2.753,2.753,0,0,1,1.09-1.04,3.237,3.237,0,0,1,1.559-.375,3.185,3.185,0,0,1,2.13.639,2.28,2.28,0,0,1,.747,1.834,2.663,2.663,0,0,1-.187.981,4.3,4.3,0,0,1-.583,1,14.686,14.686,0,0,1-1.274,1.4l-1.1,1.271h3.357Z" transform="translate(545.896 -8443.709)"/>
      <path id="Trazado_908297" data-name="Trazado 908297" d="M7.775,0H5.73V-3.562H2.7V0H.645V-8.531H2.7v3.387H5.73V-8.531H7.775Z" transform="translate(525.001 -8376.637)"/>
      <path id="Trazado_908300" data-name="Trazado 908300" d="M4.9,0H2.918V-6.3L.973-5.736v-1.5L4.717-8.531H4.9Z" transform="translate(571.205 -8376.637)"/>
      <path id="Trazado_908305" data-name="Trazado 908305" d="M3.885,0H2.862L1.351-2.654V0H.322V-4.266H1.351L2.859-1.611V-4.266H3.885Zm.48-1.614a1.871,1.871,0,0,1,.185-.845,1.32,1.32,0,0,1,.53-.57,1.6,1.6,0,0,1,.812-.2,1.458,1.458,0,0,1,1.122.441,1.692,1.692,0,0,1,.41,1.2v.035A1.642,1.642,0,0,1,7.012-.376,1.461,1.461,0,0,1,5.9.059,1.478,1.478,0,0,1,4.811-.347a1.587,1.587,0,0,1-.442-1.1Zm.987.062a1.179,1.179,0,0,0,.138.645A.459.459,0,0,0,5.9-.7q.527,0,.539-.812v-.1q0-.853-.545-.853-.5,0-.536.735Zm2.382-.056A1.936,1.936,0,0,1,8.06-2.795a1.07,1.07,0,0,1,.908-.434.91.91,0,0,1,.715.334V-4.5h.99V0H9.785l-.05-.34a.935.935,0,0,1-.773.4,1.068,1.068,0,0,1-.9-.434A2,2,0,0,1,7.734-1.608Zm.987.062q0,.844.492.844a.486.486,0,0,0,.469-.275V-2.186a.473.473,0,0,0-.463-.281q-.457,0-.5.738Zm2.388-.067a1.871,1.871,0,0,1,.185-.845,1.32,1.32,0,0,1,.53-.57,1.6,1.6,0,0,1,.812-.2,1.458,1.458,0,0,1,1.122.441,1.692,1.692,0,0,1,.41,1.2v.035a1.642,1.642,0,0,1-.412,1.176,1.461,1.461,0,0,1-1.115.435,1.478,1.478,0,0,1-1.087-.406,1.587,1.587,0,0,1-.442-1.1Zm.987.062a1.179,1.179,0,0,0,.138.645.459.459,0,0,0,.407.205q.527,0,.539-.812v-.1q0-.853-.545-.853-.5,0-.536.735Zm6.369-2.774v.776h-.044a1.482,1.482,0,0,0-.91.265,1.119,1.119,0,0,0-.438.737,1.155,1.155,0,0,1,.844-.328,1.077,1.077,0,0,1,.882.4,1.631,1.631,0,0,1,.328,1.061,1.493,1.493,0,0,1-.192.747,1.369,1.369,0,0,1-.536.532,1.541,1.541,0,0,1-.763.192,1.592,1.592,0,0,1-.812-.207,1.42,1.42,0,0,1-.557-.59,1.944,1.944,0,0,1-.205-.885v-.4A2.462,2.462,0,0,1,16.346-3.2a2.05,2.05,0,0,1,.807-.825,2.308,2.308,0,0,1,1.163-.3Zm-.891,2.206a.565.565,0,0,0-.328.091.577.577,0,0,0-.2.223v.3q0,.809.56.809a.454.454,0,0,0,.376-.2.824.824,0,0,0,.151-.507.809.809,0,0,0-.154-.511A.492.492,0,0,0,17.575-2.121Z" transform="translate(518.123 -8263.342)"/>
      <g id="Grupo_1111374" data-name="Grupo 1111374" transform="translate(419.199 -8333.913) rotate(-106)">
        <path id="Trazado_879026-2" data-name="Trazado 879026" d="M-1223.532-3072.128l-26.486,92.373" transform="translate(1197.35 3050.452)" fill="none" stroke="#000" stroke-width="1"/>
        <path id="Trazado_879038-2" data-name="Trazado 879038" d="M3.452,0,5.259,3.163,6.9,6.04H0Z" transform="matrix(-0.934, -0.358, 0.358, -0.934, -51.797, 76.753)"/>
      </g>
      <g id="Grupo_1111375" data-name="Grupo 1111375" transform="translate(353.804 -8327.617)">
        <g id="Elipse_11655-3" data-name="Elipse 11655" transform="translate(0 0)" fill="#fff" stroke="#000" stroke-width="2">
          <circle cx="25.888" cy="25.888" r="25.888" stroke="none"/>
          <circle cx="25.888" cy="25.888" r="24.888" fill="none"/>
        </g>
        <path id="Trazado_879014-3" data-name="Trazado 879014" d="M-1002.051-3055.215H-954.9" transform="translate(1004.309 3073.323)" fill="none" stroke="#000" stroke-width="1"/>
        <path id="Trazado_879015-3" data-name="Trazado 879015" d="M-978.275-3022.026v-33.408" transform="translate(1004.312 3073.323)" fill="none" stroke="#000" stroke-width="1"/>
      </g>
      <path id="Trazado_908303" data-name="Trazado 908303" d="M6.451-7.477,3.264,0H1.178L4.371-7.008H.3V-8.531H6.451Z" transform="translate(365.871 -8291.435)"/>
      <path id="Trazado_908301" data-name="Trazado 908301" d="M5.936-3.621H2.7v2.039h3.82V0H.645V-8.531H6.533v1.588H2.7v1.8H5.936Z" transform="translate(445.306 -8311.637)"/>
      <path id="Trazado_908304" data-name="Trazado 908304" d="M5.736-3.334H6.6v1.523H5.736V0H3.762V-1.811H.463L.346-3.018l3.416-5.5v-.018H5.736Zm-3.51,0H3.762V-5.959l-.123.2Z" transform="translate(445.306 -8283.435)"/>
      <path id="Trazado_908306" data-name="Trazado 908306" d="M3.885,0H2.862L1.351-2.654V0H.322V-4.266H1.351L2.859-1.611V-4.266H3.885Zm.48-1.614a1.871,1.871,0,0,1,.185-.845,1.32,1.32,0,0,1,.53-.57,1.6,1.6,0,0,1,.812-.2,1.458,1.458,0,0,1,1.122.441,1.692,1.692,0,0,1,.41,1.2v.035A1.642,1.642,0,0,1,7.012-.376,1.461,1.461,0,0,1,5.9.059,1.478,1.478,0,0,1,4.811-.347a1.587,1.587,0,0,1-.442-1.1Zm.987.062a1.179,1.179,0,0,0,.138.645A.459.459,0,0,0,5.9-.7q.527,0,.539-.812v-.1q0-.853-.545-.853-.5,0-.536.735Zm2.382-.056A1.936,1.936,0,0,1,8.06-2.795a1.07,1.07,0,0,1,.908-.434.91.91,0,0,1,.715.334V-4.5h.99V0H9.785l-.05-.34a.935.935,0,0,1-.773.4,1.068,1.068,0,0,1-.9-.434A2,2,0,0,1,7.734-1.608Zm.987.062q0,.844.492.844a.486.486,0,0,0,.469-.275V-2.186a.473.473,0,0,0-.463-.281q-.457,0-.5.738Zm2.388-.067a1.871,1.871,0,0,1,.185-.845,1.32,1.32,0,0,1,.53-.57,1.6,1.6,0,0,1,.812-.2,1.458,1.458,0,0,1,1.122.441,1.692,1.692,0,0,1,.41,1.2v.035a1.642,1.642,0,0,1-.412,1.176,1.461,1.461,0,0,1-1.115.435,1.478,1.478,0,0,1-1.087-.406,1.587,1.587,0,0,1-.442-1.1Zm.987.062a1.179,1.179,0,0,0,.138.645.459.459,0,0,0,.407.205q.527,0,.539-.812v-.1q0-.853-.545-.853-.5,0-.536.735Zm4.887-.993h.466A.484.484,0,0,0,18-3.088a.469.469,0,0,0-.132-.344.5.5,0,0,0-.372-.133.535.535,0,0,0-.341.114.349.349,0,0,0-.145.284h-.987a1.011,1.011,0,0,1,.188-.6,1.238,1.238,0,0,1,.52-.412,1.778,1.778,0,0,1,.731-.148A1.747,1.747,0,0,1,18.583-4a1.081,1.081,0,0,1,.407.894.9.9,0,0,1-.168.52,1.2,1.2,0,0,1-.491.4,1.147,1.147,0,0,1,.533.374.984.984,0,0,1,.193.62,1.1,1.1,0,0,1-.439.914,1.824,1.824,0,0,1-1.154.343,1.892,1.892,0,0,1-.778-.16,1.219,1.219,0,0,1-.543-.442,1.15,1.15,0,0,1-.185-.643h.993a.445.445,0,0,0,.158.34A.559.559,0,0,0,17.5-.7a.585.585,0,0,0,.416-.145.485.485,0,0,0,.155-.371.567.567,0,0,0-.161-.457.674.674,0,0,0-.445-.135h-.48Z" transform="translate(370.191 -8263.342)"/>
      <path id="Trazado_879026-3" data-name="Trazado 879026" d="M-1239.7-3072.128l-10.318,32.617" transform="translate(3134.326 -10385.629) rotate(-107)" fill="none" stroke="#000" stroke-width="1"/>
    </g>
    <text id="Fuente:_SENA_LP_Risaralda_2014_." data-name="Fuente:(SENA – LP Risaralda, 2014)." transform="translate(364.113 -8239.047)" fill="#12263f" font-size="14" font-family="Roboto-Regular, Roboto"><tspan x="0" y="15">Fuente:(SENA – LP Risaralda, 2014).</tspan></text>
  </g>
</svg>
