<svg xmlns="http://www.w3.org/2000/svg" width="260.418" height="135.449" viewBox="0 0 260.418 135.449">
  <g id="Grupo_1111381" data-name="Grupo 1111381" transform="translate(-315.113 9065.28)">
    <path id="Trazado_908309" data-name="Trazado 908309" d="M6.645,10.6H2.468V15H1.155V5.047H7.321V6.12H2.468V9.531H6.645Zm6.467,3.664a2.686,2.686,0,0,1-2.167.868,2.3,2.3,0,0,1-1.8-.687,2.974,2.974,0,0,1-.625-2.034V7.6H9.782v4.778q0,1.682,1.367,1.682a1.893,1.893,0,0,0,1.928-1.08V7.6h1.265V15h-1.2Zm6.221.868a3.232,3.232,0,0,1-2.447-.988,3.666,3.666,0,0,1-.943-2.642v-.232a4.438,4.438,0,0,1,.42-1.965,3.28,3.28,0,0,1,1.176-1.354,2.956,2.956,0,0,1,1.637-.489,2.77,2.77,0,0,1,2.242.95,4.114,4.114,0,0,1,.8,2.721v.526H17.206a2.629,2.629,0,0,0,.639,1.767A2.009,2.009,0,0,0,19.4,14.1a2.2,2.2,0,0,0,1.135-.273,2.851,2.851,0,0,0,.813-.725l.772.6A3.106,3.106,0,0,1,19.332,15.137Zm-.157-6.631a1.687,1.687,0,0,0-1.285.557,2.708,2.708,0,0,0-.643,1.562h3.705v-.1a2.409,2.409,0,0,0-.52-1.494A1.588,1.588,0,0,0,19.175,8.506Zm5.7-.9.041.93a2.7,2.7,0,0,1,2.215-1.066q2.345,0,2.365,2.646V15H28.232V10.105a1.7,1.7,0,0,0-.366-1.183,1.466,1.466,0,0,0-1.118-.383,1.825,1.825,0,0,0-1.08.328,2.228,2.228,0,0,0-.725.861V15H23.68V7.6ZM33.12,5.813V7.6H34.5v.978H33.12v4.593a1.027,1.027,0,0,0,.185.667.777.777,0,0,0,.629.222,3.062,3.062,0,0,0,.6-.082V15a3.688,3.688,0,0,1-.971.136,1.575,1.575,0,0,1-1.278-.513,2.2,2.2,0,0,1-.431-1.456V8.581H30.509V7.6h1.347V5.813Zm5.927,9.324a3.232,3.232,0,0,1-2.447-.988,3.666,3.666,0,0,1-.943-2.642v-.232a4.438,4.438,0,0,1,.42-1.965,3.28,3.28,0,0,1,1.176-1.354,2.956,2.956,0,0,1,1.637-.489,2.77,2.77,0,0,1,2.242.95,4.114,4.114,0,0,1,.8,2.721v.526H36.921a2.629,2.629,0,0,0,.639,1.767,2.009,2.009,0,0,0,1.555.673,2.2,2.2,0,0,0,1.135-.273,2.851,2.851,0,0,0,.813-.725l.772.6A3.106,3.106,0,0,1,39.047,15.137ZM38.89,8.506a1.687,1.687,0,0,0-1.285.557,2.708,2.708,0,0,0-.643,1.562h3.705v-.1a2.409,2.409,0,0,0-.52-1.494A1.588,1.588,0,0,0,38.89,8.506Zm4.464,5.831a.792.792,0,0,1,.195-.547.742.742,0,0,1,.584-.219.765.765,0,0,1,.591.219.776.776,0,0,1,.2.547.734.734,0,0,1-.2.526.778.778,0,0,1-.591.212.7.7,0,0,1-.779-.738ZM43.36,8.3a.792.792,0,0,1,.195-.547.742.742,0,0,1,.584-.219.765.765,0,0,1,.591.219.776.776,0,0,1,.2.547.734.734,0,0,1-.2.526.778.778,0,0,1-.591.212A.7.7,0,0,1,43.36,8.3Zm3.377,2.659a10.569,10.569,0,0,1,.414-2.967,8.618,8.618,0,0,1,1.234-2.584,5.249,5.249,0,0,1,1.7-1.641l.26.834A5.444,5.444,0,0,0,48.709,6.94a10.135,10.135,0,0,0-.7,3.521L48,11.042a10.188,10.188,0,0,0,.964,4.58,5.47,5.47,0,0,0,1.381,1.818l-.26.772a5.418,5.418,0,0,1-1.736-1.7A9.5,9.5,0,0,1,46.737,10.96Zm7.964-.4a6.172,6.172,0,0,1-2.458-1.193,2.279,2.279,0,0,1-.769-1.747,2.408,2.408,0,0,1,.94-1.945,3.736,3.736,0,0,1,2.444-.769,4.078,4.078,0,0,1,1.829.4A3.007,3.007,0,0,1,57.931,6.4a2.8,2.8,0,0,1,.441,1.524H57.053A1.82,1.82,0,0,0,56.479,6.5a2.335,2.335,0,0,0-1.62-.518,2.391,2.391,0,0,0-1.514.428A1.428,1.428,0,0,0,52.8,7.6a1.285,1.285,0,0,0,.516,1.031,5.062,5.062,0,0,0,1.757.77,8.151,8.151,0,0,1,1.941.77,2.946,2.946,0,0,1,1.039.981,2.5,2.5,0,0,1,.338,1.319,2.326,2.326,0,0,1-.943,1.938,4.022,4.022,0,0,1-2.522.728,4.678,4.678,0,0,1-1.914-.393,3.221,3.221,0,0,1-1.371-1.077,2.627,2.627,0,0,1-.482-1.552h1.319a1.714,1.714,0,0,0,.667,1.425,2.806,2.806,0,0,0,1.781.523,2.58,2.58,0,0,0,1.593-.424,1.377,1.377,0,0,0,.554-1.155,1.351,1.351,0,0,0-.513-1.131A5.911,5.911,0,0,0,54.7,10.563Zm11-.164H61.387v3.527H66.4V15H60.074V5.047h6.255V6.12H61.387V9.326H65.7Zm9.98,4.6H74.361L69.351,7.33V15H68.031V5.047h1.319l5.024,7.7v-7.7h1.306Zm7.827-2.6h-4.17L78.4,15H77.048l3.8-9.953H82L85.8,15H84.458Zm-3.773-1.073h3.384l-1.7-4.655Zm17.675-.772H90.56V9.518h6.85Zm7.174,3.377H109.3V15h-6.036V5.047h1.319Zm7.526-2.823V15H110.8V5.047h3.671a3.688,3.688,0,0,1,2.56.834,2.827,2.827,0,0,1,.926,2.208,2.79,2.79,0,0,1-.906,2.232,3.853,3.853,0,0,1-2.594.783Zm0-1.073h2.358a2.358,2.358,0,0,0,1.613-.5,1.815,1.815,0,0,0,.561-1.435,1.876,1.876,0,0,0-.561-1.424,2.209,2.209,0,0,0-1.538-.555h-2.434Zm14.636.943h-2.338V15h-1.319V5.047h3.295a3.9,3.9,0,0,1,2.587.766,2.755,2.755,0,0,1,.906,2.229,2.68,2.68,0,0,1-.5,1.62,3,3,0,0,1-1.4,1.032l2.338,4.225V15h-1.408ZM124.407,9.9h2.017a2.275,2.275,0,0,0,1.555-.507,1.714,1.714,0,0,0,.578-1.356,1.8,1.8,0,0,0-.55-1.418,2.33,2.33,0,0,0-1.589-.5h-2.01Zm8.483,5.1h-1.265V7.6h1.265Zm-1.367-9.358a.755.755,0,0,1,.188-.52.706.706,0,0,1,.557-.212.717.717,0,0,1,.561.212.747.747,0,0,1,.191.52.722.722,0,0,1-.191.513.73.73,0,0,1-.561.205.718.718,0,0,1-.557-.205A.73.73,0,0,1,131.523,5.642Zm7.7,7.4a.931.931,0,0,0-.386-.8,3.718,3.718,0,0,0-1.347-.489,6.367,6.367,0,0,1-1.524-.492,2.169,2.169,0,0,1-.834-.684,1.635,1.635,0,0,1-.27-.943,1.919,1.919,0,0,1,.769-1.538,3,3,0,0,1,1.965-.629,3.091,3.091,0,0,1,2.041.649,2.063,2.063,0,0,1,.783,1.661h-1.271a1.142,1.142,0,0,0-.441-.9,1.652,1.652,0,0,0-1.111-.376,1.729,1.729,0,0,0-1.08.3.947.947,0,0,0-.39.786.767.767,0,0,0,.362.69,4.458,4.458,0,0,0,1.309.444,6.821,6.821,0,0,1,1.535.506,2.239,2.239,0,0,1,.872.708,1.74,1.74,0,0,1,.284,1.008,1.893,1.893,0,0,1-.793,1.589,3.326,3.326,0,0,1-2.058.6,3.725,3.725,0,0,1-1.572-.314,2.557,2.557,0,0,1-1.07-.878,2.117,2.117,0,0,1-.386-1.22h1.265a1.309,1.309,0,0,0,.509,1.008,1.976,1.976,0,0,0,1.254.373,2.039,2.039,0,0,0,1.152-.291A.893.893,0,0,0,139.221,13.038ZM146.7,15a2.657,2.657,0,0,1-.178-.779,2.822,2.822,0,0,1-2.105.916,2.611,2.611,0,0,1-1.794-.619,2,2,0,0,1-.7-1.569,2.091,2.091,0,0,1,.878-1.794,4.142,4.142,0,0,1,2.471-.639h1.23V9.935a1.42,1.42,0,0,0-.4-1.056,1.593,1.593,0,0,0-1.169-.393,1.844,1.844,0,0,0-1.135.342,1.007,1.007,0,0,0-.458.827h-1.271a1.745,1.745,0,0,1,.393-1.07,2.683,2.683,0,0,1,1.066-.817,3.588,3.588,0,0,1,1.48-.3,2.924,2.924,0,0,1,2,.639,2.306,2.306,0,0,1,.752,1.76v3.4a4.162,4.162,0,0,0,.26,1.62V15Zm-2.1-.964a2.223,2.223,0,0,0,1.128-.308,1.861,1.861,0,0,0,.772-.8V11.411h-.991q-2.324,0-2.324,1.36a1.151,1.151,0,0,0,.4.93A1.524,1.524,0,0,0,144.6,14.036Zm8.723-5.3a3.79,3.79,0,0,0-.622-.048,1.667,1.667,0,0,0-1.688,1.06V15h-1.265V7.6h1.23l.021.854a1.969,1.969,0,0,1,1.764-.991,1.292,1.292,0,0,1,.561.1ZM158.778,15a2.657,2.657,0,0,1-.178-.779,2.822,2.822,0,0,1-2.105.916,2.611,2.611,0,0,1-1.794-.619,2,2,0,0,1-.7-1.569,2.091,2.091,0,0,1,.878-1.794,4.142,4.142,0,0,1,2.471-.639h1.23V9.935a1.42,1.42,0,0,0-.4-1.056,1.593,1.593,0,0,0-1.169-.393,1.844,1.844,0,0,0-1.135.342,1.007,1.007,0,0,0-.458.827H154.15a1.745,1.745,0,0,1,.393-1.07,2.683,2.683,0,0,1,1.066-.817,3.588,3.588,0,0,1,1.48-.3,2.924,2.924,0,0,1,2,.639,2.306,2.306,0,0,1,.752,1.76v3.4a4.162,4.162,0,0,0,.26,1.62V15Zm-2.1-.964a2.223,2.223,0,0,0,1.128-.308,1.861,1.861,0,0,0,.772-.8V11.411h-.991q-2.324,0-2.324,1.36a1.151,1.151,0,0,0,.4.93A1.524,1.524,0,0,0,156.68,14.036ZM163.2,15h-1.265V4.5H163.2Zm1.716-3.76a4.333,4.333,0,0,1,.807-2.738,2.745,2.745,0,0,1,4.17-.147V4.5h1.265V15H170l-.062-.793a2.575,2.575,0,0,1-2.112.93,2.526,2.526,0,0,1-2.1-1.053,4.382,4.382,0,0,1-.81-2.748Zm1.265.144a3.281,3.281,0,0,0,.52,1.969,1.68,1.68,0,0,0,1.436.711,1.845,1.845,0,0,0,1.757-1.08v-3.4A1.859,1.859,0,0,0,168.15,8.54a1.687,1.687,0,0,0-1.449.718A3.612,3.612,0,0,0,166.182,11.384ZM177.687,15a2.657,2.657,0,0,1-.178-.779,2.822,2.822,0,0,1-2.105.916,2.611,2.611,0,0,1-1.794-.619,2,2,0,0,1-.7-1.569,2.091,2.091,0,0,1,.878-1.794,4.142,4.142,0,0,1,2.471-.639h1.23V9.935a1.42,1.42,0,0,0-.4-1.056,1.593,1.593,0,0,0-1.169-.393,1.844,1.844,0,0,0-1.135.342,1.007,1.007,0,0,0-.458.827h-1.271a1.745,1.745,0,0,1,.393-1.07,2.683,2.683,0,0,1,1.066-.817,3.588,3.588,0,0,1,1.48-.3,2.924,2.924,0,0,1,2,.639,2.306,2.306,0,0,1,.752,1.76v3.4a4.162,4.162,0,0,0,.26,1.62V15Zm-2.1-.964a2.223,2.223,0,0,0,1.128-.308,1.861,1.861,0,0,0,.772-.8V11.411H176.5q-2.324,0-2.324,1.36a1.151,1.151,0,0,0,.4.93A1.524,1.524,0,0,0,175.588,14.036Zm5.106,2.946-.718-.492a3.3,3.3,0,0,0,.67-1.846V13.5h1.237v.991a3.114,3.114,0,0,1-.338,1.381A3.233,3.233,0,0,1,180.694,16.982ZM193.341,15h-6.521v-.909l3.445-3.828a8.185,8.185,0,0,0,1.056-1.412,2.356,2.356,0,0,0,.291-1.125,1.786,1.786,0,0,0-.472-1.278,1.649,1.649,0,0,0-1.258-.5,1.953,1.953,0,0,0-1.466.537,2.05,2.05,0,0,0-.523,1.494h-1.265a2.936,2.936,0,0,1,.885-2.222,3.282,3.282,0,0,1,2.369-.848,3.153,3.153,0,0,1,2.194.728,2.483,2.483,0,0,1,.807,1.938q0,1.47-1.873,3.5l-2.666,2.892h5Zm7.581-4.245a5.784,5.784,0,0,1-.759,3.3,3.153,3.153,0,0,1-4.73.024,5.49,5.49,0,0,1-.793-3.155V9.237a5.655,5.655,0,0,1,.759-3.261,3.21,3.21,0,0,1,4.744-.038,5.458,5.458,0,0,1,.779,3.175Zm-1.265-1.729a4.634,4.634,0,0,0-.451-2.341,1.553,1.553,0,0,0-1.429-.735,1.532,1.532,0,0,0-1.415.731A4.525,4.525,0,0,0,195.9,8.93v2.023a4.708,4.708,0,0,0,.468,2.382,1.55,1.55,0,0,0,1.418.769,1.529,1.529,0,0,0,1.391-.725,4.538,4.538,0,0,0,.475-2.283ZM206.7,15h-1.271V6.571l-2.55.937V6.359L206.5,5h.2Zm9.044-3.343h1.381v1.032h-1.381V15h-1.271V12.689h-4.532v-.745l4.457-6.9h1.347Zm-4.368,0h3.1V6.776l-.15.273Zm9.939-.629a10.574,10.574,0,0,1-.4,2.922,8.641,8.641,0,0,1-1.224,2.581,5.361,5.361,0,0,1-1.726,1.682l-.267-.772a5.5,5.5,0,0,0,1.692-2.505,10.839,10.839,0,0,0,.653-3.77v-.219a11.254,11.254,0,0,0-.3-2.669,9.009,9.009,0,0,0-.837-2.211A5.108,5.108,0,0,0,217.7,4.541l.267-.772a5.34,5.34,0,0,1,1.719,1.668,8.66,8.66,0,0,1,1.224,2.577A10.818,10.818,0,0,1,221.313,11.028Zm1.976,3.309a.792.792,0,0,1,.195-.547.742.742,0,0,1,.584-.219.765.765,0,0,1,.591.219.776.776,0,0,1,.2.547.734.734,0,0,1-.2.526.778.778,0,0,1-.591.212.7.7,0,0,1-.779-.738Z" transform="translate(338.113 -8948.044)" fill="#12263f"/>
    <g id="Grupo_1111378" data-name="Grupo 1111378" transform="translate(315.113 -9065.28)">
      <g id="Elipse_11655" data-name="Elipse 11655" transform="translate(0 0)" fill="#fff" stroke="#000" stroke-width="2">
        <ellipse cx="41.775" cy="41.775" rx="41.775" ry="41.775" stroke="none"/>
        <ellipse cx="41.775" cy="41.775" rx="40.775" ry="40.775" fill="none"/>
      </g>
      <path id="Trazado_879014" data-name="Trazado 879014" d="M-1002.051-3055.215h75.689" transform="translate(1005.883 3084.436)" fill="none" stroke="#000" stroke-width="1"/>
      <path id="Trazado_879015" data-name="Trazado 879015" d="M-978.275-3001.654v-53.779" transform="translate(1020.291 3084.302)" fill="none" stroke="#000" stroke-width="1"/>
    </g>
    <g id="Grupo_1111379" data-name="Grupo 1111379" transform="translate(491.982 -9065.28)">
      <g id="Elipse_11655-2" data-name="Elipse 11655" transform="translate(0 0)" fill="#fff" stroke="#000" stroke-width="2">
        <ellipse cx="41.775" cy="41.775" rx="41.775" ry="41.775" stroke="none"/>
        <ellipse cx="41.775" cy="41.775" rx="40.775" ry="40.775" fill="none"/>
      </g>
      <path id="Trazado_879014-2" data-name="Trazado 879014" d="M-1002.051-3055.215h76.093" transform="translate(1005.696 3084.436)" fill="none" stroke="#000" stroke-width="1"/>
      <path id="Trazado_879015-2" data-name="Trazado 879015" d="M-978.275-3001.523v-53.91" transform="translate(1020.291 3084.302)" fill="none" stroke="#000" stroke-width="1"/>
    </g>
    <g id="Grupo_1111380" data-name="Grupo 1111380" transform="translate(394.354 -9026.721)">
      <ellipse id="Elipse_11666" data-name="Elipse 11666" cx="5.57" cy="5.57" rx="5.57" ry="5.57" transform="translate(0 0)"/>
      <path id="Trazado_879026" data-name="Trazado 879026" d="M-1193.262-3047h83.871" transform="translate(1199.859 3052.57)" fill="none" stroke="#000" stroke-width="1"/>
      <path id="Trazado_879038" data-name="Trazado 879038" d="M5.57,0,8.487,5.1,11.14,9.747H0Z" transform="translate(95.342 0) rotate(90)"/>
    </g>
    <path id="Trazado_908313" data-name="Trazado 908313" d="M6.475,0h-1.7L2.251-4.424V0H.537V-7.109H2.251L4.766-2.686V-7.109H6.475Zm.8-2.69A3.118,3.118,0,0,1,7.583-4.1a2.2,2.2,0,0,1,.884-.95,2.662,2.662,0,0,1,1.353-.332,2.429,2.429,0,0,1,1.87.735,2.82,2.82,0,0,1,.684,2v.059a2.736,2.736,0,0,1-.686,1.96A2.436,2.436,0,0,1,9.829.1,2.463,2.463,0,0,1,8.018-.579,2.645,2.645,0,0,1,7.28-2.412Zm1.646.1A1.966,1.966,0,0,0,9.15-1.514a.765.765,0,0,0,.679.342q.879,0,.9-1.353V-2.69q0-1.421-.908-1.421-.825,0-.894,1.226Zm3.97-.093a3.227,3.227,0,0,1,.542-1.978,1.784,1.784,0,0,1,1.514-.723,1.517,1.517,0,0,1,1.191.557V-7.5h1.65V0H16.309l-.083-.566A1.558,1.558,0,0,1,14.937.1a1.781,1.781,0,0,1-1.494-.723A3.33,3.33,0,0,1,12.891-2.681Zm1.646.1q0,1.406.82,1.406a.81.81,0,0,0,.781-.459V-3.643a.788.788,0,0,0-.771-.469q-.762,0-.825,1.23Zm3.979-.112A3.118,3.118,0,0,1,18.823-4.1a2.2,2.2,0,0,1,.884-.95,2.662,2.662,0,0,1,1.353-.332,2.429,2.429,0,0,1,1.87.735,2.82,2.82,0,0,1,.684,2v.059a2.736,2.736,0,0,1-.686,1.96A2.436,2.436,0,0,1,21.069.1a2.463,2.463,0,0,1-1.812-.676,2.645,2.645,0,0,1-.737-1.833Zm1.646.1a1.966,1.966,0,0,0,.229,1.074.765.765,0,0,0,.679.342q.879,0,.9-1.353V-2.69q0-1.421-.908-1.421-.825,0-.894,1.226ZM31.743-6.23,29.087,0H27.349L30.01-5.84H26.621v-1.27h5.122Z" transform="translate(520.439 -8965.813)"/>
    <path id="Trazado_908308" data-name="Trazado 908308" d="M6.475,0h-1.7L2.251-4.424V0H.537V-7.109H2.251L4.766-2.686V-7.109H6.475Zm.8-2.69A3.118,3.118,0,0,1,7.583-4.1a2.2,2.2,0,0,1,.884-.95,2.662,2.662,0,0,1,1.353-.332,2.429,2.429,0,0,1,1.87.735,2.82,2.82,0,0,1,.684,2v.059a2.736,2.736,0,0,1-.686,1.96A2.436,2.436,0,0,1,9.829.1,2.463,2.463,0,0,1,8.018-.579,2.645,2.645,0,0,1,7.28-2.412Zm1.646.1A1.966,1.966,0,0,0,9.15-1.514a.765.765,0,0,0,.679.342q.879,0,.9-1.353V-2.69q0-1.421-.908-1.421-.825,0-.894,1.226Zm3.97-.093a3.227,3.227,0,0,1,.542-1.978,1.784,1.784,0,0,1,1.514-.723,1.517,1.517,0,0,1,1.191.557V-7.5h1.65V0H16.309l-.083-.566A1.558,1.558,0,0,1,14.937.1a1.781,1.781,0,0,1-1.494-.723A3.33,3.33,0,0,1,12.891-2.681Zm1.646.1q0,1.406.82,1.406a.81.81,0,0,0,.781-.459V-3.643a.788.788,0,0,0-.771-.469q-.762,0-.825,1.23Zm3.979-.112A3.118,3.118,0,0,1,18.823-4.1a2.2,2.2,0,0,1,.884-.95,2.662,2.662,0,0,1,1.353-.332,2.429,2.429,0,0,1,1.87.735,2.82,2.82,0,0,1,.684,2v.059a2.736,2.736,0,0,1-.686,1.96A2.436,2.436,0,0,1,21.069.1a2.463,2.463,0,0,1-1.812-.676,2.645,2.645,0,0,1-.737-1.833Zm1.646.1a1.966,1.966,0,0,0,.229,1.074.765.765,0,0,0,.679.342q.879,0,.9-1.353V-2.69q0-1.421-.908-1.421-.825,0-.894,1.226ZM30.776-7.212v1.294H30.7a2.47,2.47,0,0,0-1.516.442,1.866,1.866,0,0,0-.73,1.228,1.924,1.924,0,0,1,1.406-.547,1.8,1.8,0,0,1,1.47.674,2.718,2.718,0,0,1,.547,1.768,2.489,2.489,0,0,1-.32,1.245,2.282,2.282,0,0,1-.894.886A2.568,2.568,0,0,1,29.395.1a2.654,2.654,0,0,1-1.353-.344,2.367,2.367,0,0,1-.928-.984,3.24,3.24,0,0,1-.342-1.475v-.659a4.1,4.1,0,0,1,.471-1.975,3.416,3.416,0,0,1,1.345-1.375,3.846,3.846,0,0,1,1.938-.5ZM29.292-3.535a.941.941,0,0,0-.547.151.961.961,0,0,0-.327.371v.493q0,1.348.933,1.348a.757.757,0,0,0,.627-.337,1.373,1.373,0,0,0,.251-.845,1.348,1.348,0,0,0-.256-.852A.82.82,0,0,0,29.292-3.535Z" transform="translate(342.809 -8965.813)"/>
    <path id="Trazado_908310" data-name="Trazado 908310" d="M4.49,0H1.243V-13.508H4.49Z" transform="translate(430.713 -9033.178)"/>
    <path id="Trazado_908311" data-name="Trazado 908311" d="M7.756,0H4.62V-9.982l-3.08.9v-2.375l5.928-2.05h.288Z" transform="translate(430.713 -8995.581)"/>
    <path id="Trazado_908312" data-name="Trazado 908312" d="M8.164,0h-3.3V-10.508l-3.242.947v-2.5l6.24-2.158h.3ZM21.143-5.557h1.445v2.539H21.143V0H17.852V-3.018h-5.5l-.2-2.012,5.693-9.16v-.029h3.291Zm-5.85,0h2.559V-9.932l-.205.332Z" transform="translate(502.487 -9010.424)"/>
    <path id="Trazado_908307" data-name="Trazado 908307" d="M8.164,0h-3.3V-10.508l-3.242.947v-2.5l6.24-2.158h.3Zm7.295-8.486h1.553a1.614,1.614,0,0,0,1.846-1.807,1.562,1.562,0,0,0-.439-1.147,1.666,1.666,0,0,0-1.24-.444,1.784,1.784,0,0,0-1.138.381,1.162,1.162,0,0,0-.483.947H12.266a3.369,3.369,0,0,1,.625-2,4.127,4.127,0,0,1,1.733-1.372,5.926,5.926,0,0,1,2.437-.493,5.823,5.823,0,0,1,3.73,1.084,3.6,3.6,0,0,1,1.357,2.979,3,3,0,0,1-.562,1.733A4,4,0,0,1,19.951-7.3,3.823,3.823,0,0,1,21.729-6.06a3.279,3.279,0,0,1,.645,2.065A3.669,3.669,0,0,1,20.908-.947,6.08,6.08,0,0,1,17.061.2a6.306,6.306,0,0,1-2.593-.532,4.062,4.062,0,0,1-1.812-1.475,3.834,3.834,0,0,1-.615-2.144h3.311a1.482,1.482,0,0,0,.527,1.133,1.862,1.862,0,0,0,1.3.479,1.95,1.95,0,0,0,1.387-.483,1.616,1.616,0,0,0,.518-1.235,1.889,1.889,0,0,0-.537-1.523,2.245,2.245,0,0,0-1.484-.449h-1.6Z" transform="translate(327.309 -9010.424)"/>
  </g>
</svg>
