<svg xmlns="http://www.w3.org/2000/svg" width="396" height="224" viewBox="0 0 396 224">
  <g id="Grupo_1110255" data-name="Grupo 1110255" transform="translate(-17888.766 7155.469)">
    <text id="Fuente:_SENA_LP_Risaralda_2014_." data-name="Fuente:(SENA – LP Risaralda, 2014)." transform="translate(17947.766 -6989.469)" fill="#707070" font-size="20" font-family="Helvetica"><tspan x="0" y="15">Fuente:(SENA – LP Risaralda, </tspan><tspan x="0" y="39">2014).</tspan></text>
    <g id="Grupo_1108836" data-name="Grupo 1108836" transform="translate(15507.766 -7574.469)">
      <g id="Grupo_1108811" data-name="Grupo 1108811" transform="translate(2460.495 530.104)">
        <path id="Trazado_879014" data-name="Trazado 879014" d="M-965.288-3054.715h-36.763v-1h36.763Z" transform="translate(1004.163 3069.695)"/>
        <path id="Trazado_879015" data-name="Trazado 879015" d="M-977.775-3028.773h-1v-26.661h1Z" transform="translate(999.34 3069.739)"/>
        <path id="Elipse_11655" data-name="Elipse 11655" d="M21,2A19,19,0,0,0,7.565,34.435a19,19,0,1,0,26.87-26.87A18.876,18.876,0,0,0,21,2m0-2A21,21,0,1,1,0,21,21,21,0,0,1,21,0Z" transform="translate(-0.495 -0.104)" fill="red"/>
      </g>
      <g id="Grupo_1108807" data-name="Grupo 1108807" transform="translate(2568.994 419.456)">
        <circle id="Elipse_11655-2" data-name="Elipse 11655" cx="20.5" cy="20.5" r="20.5" transform="translate(0.006 -0.456)" fill="#fff"/>
        <path id="Elipse_11655_-_Contorno" data-name="Elipse 11655 - Contorno" d="M20.5,2A18.5,18.5,0,0,0,7.419,33.581,18.5,18.5,0,0,0,33.581,7.419,18.379,18.379,0,0,0,20.5,2m0-2A20.5,20.5,0,1,1,0,20.5,20.5,20.5,0,0,1,20.5,0Z" transform="translate(0.006 -0.456)"/>
        <path id="Trazado_879014-2" data-name="Trazado 879014" d="M-965.17-3054.715h-36.88v-1h36.88Z" transform="translate(1003.718 3068.966)"/>
        <path id="Trazado_879015-2" data-name="Trazado 879015" d="M-977.775-3027.843h-1v-27.591h1Z" transform="translate(999.013 3069.01)"/>
      </g>
      <g id="Grupo_1108808" data-name="Grupo 1108808" transform="translate(2669.974 419.456)">
        <ellipse id="Elipse_11655-3" data-name="Elipse 11655" cx="21" cy="20.5" rx="21" ry="20.5" transform="translate(0.026 -0.456)" fill="#fff"/>
        <path id="Elipse_11655_-_Contorno-2" data-name="Elipse 11655 - Contorno" d="M21,2A19.134,19.134,0,0,0,7.548,7.435a18.157,18.157,0,0,0,0,26.129,19.364,19.364,0,0,0,26.9,0,18.157,18.157,0,0,0,0-26.129A19.134,19.134,0,0,0,21,2m0-2A20.755,20.755,0,0,1,42,20.5,20.755,20.755,0,0,1,21,41,20.755,20.755,0,0,1,0,20.5,20.755,20.755,0,0,1,21,0Z" transform="translate(0.026 -0.456)"/>
        <path id="Trazado_879014-3" data-name="Trazado 879014" d="M-965.148-3054.715h-36.9v-1h36.9Z" transform="translate(1004.477 3068.966)"/>
        <path id="Trazado_879015-3" data-name="Trazado 879015" d="M-977.775-3027.843h-1v-27.591h1Z" transform="translate(999.795 3069.01)"/>
      </g>
      <g id="Grupo_1108810" data-name="Grupo 1108810" transform="translate(2735.503 530.104)">
        <path id="Trazado_879014-4" data-name="Trazado 879014" d="M-965.211-3054.715h-36.84v-1h36.84Z" transform="translate(1004.716 3069.695)"/>
        <path id="Trazado_879015-4" data-name="Trazado 879015" d="M-977.775-3028.524h-1v-26.91h1Z" transform="translate(999.97 3069.739)"/>
        <path id="Elipse_11655-4" data-name="Elipse 11655" d="M20.5,2A18.139,18.139,0,0,0,7.435,7.548a19.364,19.364,0,0,0,0,26.9,18.157,18.157,0,0,0,26.129,0,19.364,19.364,0,0,0,0-26.9A18.139,18.139,0,0,0,20.5,2m0-2A20.755,20.755,0,0,1,41,21,20.755,20.755,0,0,1,20.5,42,20.755,20.755,0,0,1,0,21,20.755,20.755,0,0,1,20.5,0Z" transform="translate(0.497 -0.104)" fill="red"/>
      </g>
      <g id="Grupo_1108813" data-name="Grupo 1108813" transform="translate(2548.583 530.104)">
        <path id="Trazado_879014-5" data-name="Trazado 879014" d="M-966.16-3054.715h-35.891v-1h35.891Z" transform="translate(1005.086 3069.695)"/>
        <path id="Trazado_879015-5" data-name="Trazado 879015" d="M-977.775-3028.6h-1v-26.835h1Z" transform="translate(999.392 3069.739)"/>
        <path id="Elipse_11655-5" data-name="Elipse 11655" d="M20.5,2A18.139,18.139,0,0,0,7.435,7.548a19.364,19.364,0,0,0,0,26.9,18.157,18.157,0,0,0,26.129,0,19.364,19.364,0,0,0,0-26.9A18.139,18.139,0,0,0,20.5,2m0-2A20.755,20.755,0,0,1,41,21,20.755,20.755,0,0,1,20.5,42,20.755,20.755,0,0,1,0,21,20.755,20.755,0,0,1,20.5,0Z" transform="translate(0.417 -0.104)" fill="red"/>
      </g>
      <ellipse id="Elipse_11663" data-name="Elipse 11663" cx="3.5" cy="3" rx="3.5" ry="3" transform="translate(2515 437)"/>
      <path id="Trazado_879023" data-name="Trazado 879023" d="M-1146.4-3046.5h-46.862v-1h46.862Z" transform="translate(3712.673 3486.79)"/>
      <path id="Polígono_19" data-name="Polígono 19" d="M3.205,0,6.41,5.609H0Z" transform="translate(2568.097 436.585) rotate(90)"/>
      <circle id="Elipse_11664" data-name="Elipse 11664" cx="3" cy="3" r="3" transform="translate(2606 437)" fill="red"/>
      <path id="Trazado_879024" data-name="Trazado 879024" d="M-1135.4-3046.5h-57.861v-1h57.861Z" transform="translate(3802.415 3486.79)" fill="red"/>
      <path id="Polígono_20" data-name="Polígono 20" d="M3.205,0,6.41,5.609H0Z" transform="translate(2669.818 436.585) rotate(90)" fill="red"/>
      <circle id="Elipse_11665" data-name="Elipse 11665" cx="3.5" cy="3.5" r="3.5" transform="translate(2585 548)"/>
      <path id="Trazado_879025" data-name="Trazado 879025" d="M-1136.78-3046.5h-56.483v-1h56.483Z" transform="translate(3782.383 3598.167)"/>
      <path id="Polígono_21" data-name="Polígono 21" d="M3.205,0,6.41,5.609H0Z" transform="translate(2647.783 547.962) rotate(90)"/>
      <ellipse id="Elipse_11666" data-name="Elipse 11666" cx="3" cy="3.5" rx="3" ry="3.5" transform="translate(2496 548)" fill="red"/>
      <path id="Trazado_879026" data-name="Trazado 879026" d="M-1147.332-3046.5h-45.931v-1h45.931Z" transform="translate(3693.442 3598.167)" fill="red"/>
      <path id="Polígono_22" data-name="Polígono 22" d="M3.5,0,7,6H0Z" transform="translate(2549 548) rotate(90)" fill="red"/>
      <ellipse id="Elipse_11668" data-name="Elipse 11668" cx="3.205" cy="3.205" rx="3.205" ry="3.205" transform="translate(2685.484 548.362)" fill="red"/>
      <path id="Trazado_879028" data-name="Trazado 879028" d="M-1148.622-3046.5h-44.64v-1h44.64Z" transform="translate(3882.542 3598.568)" fill="red"/>
      <path id="Polígono_24" data-name="Polígono 24" d="M3.205,0,6.41,5.609H0Z" transform="translate(2735.924 548.362) rotate(90)" fill="red"/>
      <g id="Grupo_1108806" data-name="Grupo 1108806" transform="translate(2477.683 419.456)">
        <ellipse id="Elipse_11655-6" data-name="Elipse 11655" cx="21" cy="20.5" rx="21" ry="20.5" transform="translate(0.317 -0.456)" fill="#fff"/>
        <path id="Elipse_11655_-_Contorno-3" data-name="Elipse 11655 - Contorno" d="M21,2A19.134,19.134,0,0,0,7.548,7.435a18.157,18.157,0,0,0,0,26.129,19.364,19.364,0,0,0,26.9,0,18.157,18.157,0,0,0,0-26.129A19.134,19.134,0,0,0,21,2m0-2A20.755,20.755,0,0,1,42,20.5,20.755,20.755,0,0,1,21,41,20.755,20.755,0,0,1,0,20.5,20.755,20.755,0,0,1,21,0Z" transform="translate(0.317 -0.456)"/>
        <path id="Trazado_879014-6" data-name="Trazado 879014" d="M-965.253-3054.715h-36.8v-1h36.8Z" transform="translate(1004.568 3068.966)"/>
        <path id="Trazado_879015-6" data-name="Trazado 879015" d="M-977.775-3027.843h-1v-27.591h1Z" transform="translate(999.78 3069.01)"/>
      </g>
      <path id="Polígono_23" data-name="Polígono 23" d="M3.205,0,6.41,5.609H0Z" transform="translate(2459.484 547.962) rotate(90)" fill="red"/>
      <ellipse id="Elipse_11667" data-name="Elipse 11667" cx="3" cy="3.5" rx="3" ry="3.5" transform="translate(2418 548)" fill="red"/>
      <path id="Trazado_879027" data-name="Trazado 879027" d="M-1156.406-3046.5h-36.856v-1h36.856Z" transform="translate(3614.116 3598.167)" fill="red"/>
      <path id="Polígono_25" data-name="Polígono 25" d="M3.205,0,6.41,5.609H0Z" transform="translate(2496.152 458.957) rotate(14)"/>
      <ellipse id="Elipse_11669" data-name="Elipse 11669" cx="3.205" cy="3.205" rx="3.205" ry="3.205" transform="translate(2478.375 527.129)"/>
      <path id="Trazado_879029" data-name="Trazado 879029" d="M0,.562v-1L69.5-.5v1Z" transform="translate(2481.786 529.055) rotate(-76)"/>
      <path id="Polígono_26" data-name="Polígono 26" d="M3.205,0,6.41,5.609H0Z" transform="translate(2585.874 458.957) rotate(14)" fill="red"/>
      <ellipse id="Elipse_11670" data-name="Elipse 11670" cx="3.205" cy="3.205" rx="3.205" ry="3.205" transform="translate(2568.097 527.129)" fill="red"/>
      <path id="Trazado_879030" data-name="Trazado 879030" d="M0,.562v-1L69.5-.5v1Z" transform="translate(2571.508 529.054) rotate(-76)" fill="red"/>
      <path id="Polígono_27" data-name="Polígono 27" d="M3.205,0,6.41,5.609H0Z" transform="translate(2675.237 531.831) rotate(-166)" fill="red"/>
      <path id="Trazado_879031" data-name="Trazado 879031" d="M71.471,1.5-.007.5l.014-1L71.485.5Z" transform="translate(2691.052 460.061) rotate(104)" fill="red"/>
      <text id="_12" data-name="12" transform="translate(2675 444)" font-size="10" font-family="Roboto-Black, Roboto" font-weight="800"><tspan x="0" y="0">12</tspan></text>
      <text id="_6" data-name="6" transform="translate(2488 444)" font-size="10" font-family="Roboto-Black, Roboto" font-weight="800"><tspan x="0" y="0">6</tspan></text>
      <text id="_9" data-name="9" transform="translate(2577 444)" font-size="10" font-family="Roboto-Black, Roboto" font-weight="800"><tspan x="0" y="0">9</tspan></text>
      <text id="_4" data-name="4" transform="translate(2470 558)" font-size="10" font-family="Roboto-Black, Roboto" font-weight="800"><tspan x="0" y="0">4</tspan></text>
      <text id="_0" data-name="0" transform="translate(2391 558)" font-size="10" font-family="Roboto-Black, Roboto" font-weight="800"><tspan x="0" y="0">0</tspan></text>
      <text id="_7" data-name="7" transform="translate(2557 558)" font-size="10" font-family="Roboto-Black, Roboto" font-weight="800"><tspan x="0" y="0">7</tspan></text>
      <text id="_13" data-name="13" transform="translate(2653 555)" font-size="10" font-family="Roboto-Black, Roboto" font-weight="800"><tspan x="0" y="0">13</tspan></text>
      <text id="_14" data-name="14" transform="translate(2741 556)" font-size="10" font-family="Roboto-Black, Roboto" font-weight="800"><tspan x="0" y="0">14</tspan></text>
      <text id="B" transform="translate(2470 493)" font-size="10" font-family="Roboto-Black, Roboto" font-weight="800"><tspan x="0" y="0">B</tspan></text>
      <text id="_2" data-name="2" transform="translate(2502 493)" font-size="10" font-family="Roboto-Black, Roboto" font-weight="800"><tspan x="0" y="0">2</tspan></text>
      <text id="F" transform="translate(2557 493)" fill="red" font-size="10" font-family="Roboto-Black, Roboto" font-weight="800"><tspan x="0" y="0">F</tspan></text>
      <text id="_2-2" data-name="2" transform="translate(2593 493)" font-size="10" font-family="Roboto-Black, Roboto" font-weight="800"><tspan x="0" y="0">2</tspan></text>
      <text id="H" transform="translate(2662 493)" fill="red" font-size="10" font-family="Roboto-Black, Roboto" font-weight="800"><tspan x="0" y="0">H</tspan></text>
      <text id="_1" data-name="1" transform="translate(2695 493)" font-size="10" font-family="Roboto-Black, Roboto" font-weight="800"><tspan x="0" y="0">1</tspan></text>
      <text id="C" transform="translate(2525 543)" font-size="10" font-family="Roboto-Black, Roboto" font-weight="800"><tspan x="0" y="0">C</tspan></text>
      <text id="C-2" data-name="C" transform="translate(2525 543)" fill="red" font-size="10" font-family="Roboto-Black, Roboto" font-weight="800"><tspan x="0" y="0">C</tspan></text>
      <text id="E" transform="translate(2615 543)" font-size="10" font-family="Roboto-Black, Roboto" font-weight="800"><tspan x="0" y="0">E</tspan></text>
      <text id="I" transform="translate(2705 543)" fill="red" font-size="10" font-family="Roboto-Black, Roboto" font-weight="800"><tspan x="0" y="0">I</tspan></text>
      <text id="_1-2" data-name="1" transform="translate(2708 565)" font-size="10" font-family="Roboto-Black, Roboto" font-weight="800"><tspan x="0" y="0">1</tspan></text>
      <text id="_4-2" data-name="4" transform="translate(2616 564)" font-size="10" font-family="Roboto-Black, Roboto" font-weight="800"><tspan x="0" y="0">4</tspan></text>
      <text id="_3" data-name="3" transform="translate(2524 564)" font-size="10" font-family="Roboto-Black, Roboto" font-weight="800"><tspan x="0" y="0">3</tspan></text>
      <text id="_4-3" data-name="4" transform="translate(2433 564)" font-size="10" font-family="Roboto-Black, Roboto" font-weight="800"><tspan x="0" y="0">4</tspan></text>
      <text id="A" transform="translate(2433 542)" fill="red" font-size="10" font-family="Roboto-Black, Roboto" font-weight="800"><tspan x="0" y="0">A</tspan></text>
      <text id="D" transform="translate(2537 433)" font-size="10" font-family="Roboto-Black, Roboto" font-weight="800"><tspan x="0" y="0">D</tspan></text>
      <text id="G" transform="translate(2635 433)" fill="red" font-size="10" font-family="Roboto-Black, Roboto" font-weight="800"><tspan x="0" y="0">G</tspan></text>
      <text id="Nodo_2" data-name="Nodo 2" transform="translate(2491 429)" font-size="5" font-family="Roboto-Black, Roboto" font-weight="800"><tspan x="0" y="0">Nodo 2</tspan></text>
      <text id="Nodo_4" data-name="Nodo 4" transform="translate(2580 429)" font-size="5" font-family="Roboto-Black, Roboto" font-weight="800"><tspan x="0" y="0">Nodo 4</tspan></text>
      <text id="Nodo_5" data-name="Nodo 5" transform="translate(2680 429)" font-size="5" font-family="Roboto-Black, Roboto" font-weight="800"><tspan x="0" y="0">Nodo 5</tspan></text>
      <text id="Nodo_7" data-name="Nodo 7" transform="translate(2747 540)" font-size="5" font-family="Roboto-Black, Roboto" font-weight="800"><tspan x="0" y="0">Nodo 7</tspan></text>
      <text id="Nodo_6" data-name="Nodo 6" transform="translate(2657 540)" font-size="5" font-family="Roboto-Black, Roboto" font-weight="800"><tspan x="0" y="0">Nodo 6</tspan></text>
      <text id="Nodo_3" data-name="Nodo 3" transform="translate(2558 540)" font-size="5" font-family="Roboto-Black, Roboto" font-weight="800"><tspan x="0" y="0">Nodo 3</tspan></text>
      <text id="Nodo_1" data-name="Nodo 1" transform="translate(2471 540)" font-size="5" font-family="Roboto-Black, Roboto" font-weight="800"><tspan x="0" y="0">Nodo 1</tspan></text>
      <text id="Nodo_0" data-name="Nodo 0" transform="translate(2392 540)" font-size="5" font-family="Roboto-Black, Roboto" font-weight="800"><tspan x="0" y="0">Nodo 0</tspan></text>
      <text id="_7-2" data-name="7" transform="translate(2504 444)" font-size="10" font-family="Roboto-Black, Roboto" font-weight="800"><tspan x="0" y="0">7</tspan></text>
      <text id="_9-2" data-name="9" transform="translate(2593 444)" font-size="10" font-family="Roboto-Black, Roboto" font-weight="800"><tspan x="0" y="0">9</tspan></text>
      <text id="_12-2" data-name="12" transform="translate(2694 444)" font-size="10" font-family="Roboto-Black, Roboto" font-weight="800"><tspan x="0" y="0">12</tspan></text>
      <text id="_14-2" data-name="14" transform="translate(2759 556)" font-size="10" font-family="Roboto-Black, Roboto" font-weight="800"><tspan x="0" y="0">14</tspan></text>
      <text id="_13-2" data-name="13" transform="translate(2670 555)" font-size="10" font-family="Roboto-Black, Roboto" font-weight="800"><tspan x="0" y="0">13</tspan></text>
      <text id="_7-3" data-name="7" transform="translate(2574 558)" font-size="10" font-family="Roboto-Black, Roboto" font-weight="800"><tspan x="0" y="0">7</tspan></text>
      <text id="_4-4" data-name="4" transform="translate(2484 558)" font-size="10" font-family="Roboto-Black, Roboto" font-weight="800"><tspan x="0" y="0">4</tspan></text>
      <text id="_0-2" data-name="0" transform="translate(2407 558)" font-size="10" font-family="Roboto-Black, Roboto" font-weight="800"><tspan x="0" y="0">0</tspan></text>
      <g id="Grupo_1108812" data-name="Grupo 1108812" transform="translate(2381 530.104)">
        <path id="Trazado_879014-7" data-name="Trazado 879014" d="M-964.39-3054.715h-37.661v-1h37.661Z" transform="translate(1004.066 3069.695)"/>
        <path id="Trazado_879015-7" data-name="Trazado 879015" d="M-977.775-3028.624h-1v-26.81h1Z" transform="translate(999.509 3069.739)"/>
        <path id="Elipse_11655-7" data-name="Elipse 11655" d="M21,2A19,19,0,0,0,7.565,34.435a19,19,0,1,0,26.87-26.87A18.876,18.876,0,0,0,21,2m0-2A21,21,0,1,1,0,21,21,21,0,0,1,21,0Z" transform="translate(0 -0.104)" fill="red"/>
      </g>
      <g id="Grupo_1108809" data-name="Grupo 1108809" transform="translate(2647.415 530.104)">
        <path id="Trazado_879014-8" data-name="Trazado 879014" d="M-1002.236-3055.215H-966" transform="translate(1005.451 3069.695)" fill="#fff"/>
        <path id="Trazado_879014_-_Contorno" data-name="Trazado 879014 - Contorno" d="M-966-3054.715h-36.988v-1H-966Z" transform="translate(1005.451 3069.695)"/>
        <path id="Trazado_879015-8" data-name="Trazado 879015" d="M-978.275-3028.524v-26.91" transform="translate(999.919 3069.739)" fill="#fff"/>
        <path id="Trazado_879015_-_Contorno" data-name="Trazado 879015 - Contorno" d="M-977.775-3028.524h-1v-26.91h1Z" transform="translate(999.919 3069.739)"/>
        <path id="Elipse_11655-8" data-name="Elipse 11655" d="M21,2A19,19,0,0,0,7.565,34.435a19,19,0,1,0,26.87-26.87A18.876,18.876,0,0,0,21,2m0-2A21,21,0,1,1,0,21,21,21,0,0,1,21,0Z" transform="translate(-0.414 -0.104)" fill="red"/>
      </g>
    </g>
  </g>
</svg>
