<svg xmlns="http://www.w3.org/2000/svg" width="300" height="308" viewBox="0 0 300 308">
  <g id="Grupo_1110253" data-name="Grupo 1110253" transform="translate(-17946.766 8153.469)">
    <text id="Fuente:_SENA_LP_Risaralda_2014_." data-name="Fuente:(SENA – LP Risaralda, 2014)." transform="translate(17946.766 -7903.469)" fill="#707070" font-size="20" font-family="Helvetica"><tspan x="0" y="15">Fuente:(SENA – LP Risaralda, </tspan><tspan x="0" y="39">2014).</tspan></text>
    <g id="Grupo_1108838" data-name="Grupo 1108838" transform="translate(15978.766 -7595.469)">
      <g id="Grupo_1108817" data-name="Grupo 1108817" transform="translate(2085.225 -544.347)">
        <circle id="Elipse_11655" data-name="Elipse 11655" cx="25.888" cy="25.888" r="25.888" transform="translate(0 0)" fill="#fff"/>
        <path id="Elipse_11655_-_Contorno" data-name="Elipse 11655 - Contorno" d="M25.888,2a23.894,23.894,0,0,0-9.3,45.9,23.894,23.894,0,0,0,18.6-44.022A23.736,23.736,0,0,0,25.888,2m0-2A25.888,25.888,0,1,1,0,25.888,25.888,25.888,0,0,1,25.888,0Z" transform="translate(0 0)"/>
        <path id="Trazado_879014" data-name="Trazado 879014" d="M-955.146-3054.715h-46.9v-1h46.9Z" transform="translate(1004.426 3073.323)"/>
        <path id="Trazado_879015" data-name="Trazado 879015" d="M-977.775-3022.107h-1v-33.327h1Z" transform="translate(1004.312 3073.323)"/>
      </g>
      <g id="Grupo_1108818" data-name="Grupo 1108818" transform="translate(2054 -394.275)">
        <circle id="Elipse_11655-2" data-name="Elipse 11655" cx="25.888" cy="25.888" r="25.888" transform="translate(0 0)" fill="#fff"/>
        <path id="Elipse_11655_-_Contorno-2" data-name="Elipse 11655 - Contorno" d="M25.888,2a23.894,23.894,0,0,0-9.3,45.9,23.894,23.894,0,0,0,18.6-44.022A23.736,23.736,0,0,0,25.888,2m0-2A25.888,25.888,0,1,1,0,25.888,25.888,25.888,0,0,1,25.888,0Z" transform="translate(0 0)"/>
        <path id="Trazado_879014-2" data-name="Trazado 879014" d="M-954.9-3054.715h-47.155v-1H-954.9Z" transform="translate(1004.309 3073.323)"/>
        <path id="Trazado_879015-2" data-name="Trazado 879015" d="M-977.775-3022.026h-1v-33.408h1Z" transform="translate(1004.312 3073.323)"/>
      </g>
      <g id="Grupo_1108825" data-name="Grupo 1108825" transform="translate(2135 -470.669)">
        <path id="Trazado_879026" data-name="Trazado 879026" d="M-1249.538-2979.618l-.961-.275,26.486-92.373.961.276Z" transform="translate(1197.35 3050.452)"/>
        <path id="Trazado_879038" data-name="Trazado 879038" d="M3.452,0,5.259,3.163,6.9,6.04H0Z" transform="matrix(-0.934, -0.358, 0.358, -0.934, -51.797, 76.753)"/>
      </g>
      <text id="Nodo_5" data-name="Nodo 5" transform="translate(2099.782 -552)" font-size="6" font-family="Roboto-Black, Roboto" font-weight="800"><tspan x="0" y="0">Nodo 5</tspan></text>
      <text id="_13" data-name="13" transform="translate(2060.51 -360.295)" font-size="12" font-family="Roboto-Black, Roboto" font-weight="800"><tspan x="0" y="0">13</tspan></text>
      <text id="_13-2" data-name="13" transform="translate(2081.303 -360.295)" font-size="12" font-family="Roboto-Black, Roboto" font-weight="800"><tspan x="0" y="0">13</tspan></text>
      <text id="_12" data-name="12" transform="translate(2092.782 -510.367)" font-size="12" font-family="Roboto-Black, Roboto" font-weight="800"><tspan x="0" y="0">12</tspan></text>
      <text id="_12-2" data-name="12" transform="translate(2115.091 -510.367)" font-size="12" font-family="Roboto-Black, Roboto" font-weight="800"><tspan x="0" y="0">12</tspan></text>
      <text id="H" transform="translate(2071.888 -443.295)" font-size="12" font-family="Roboto-Black, Roboto" font-weight="800"><tspan x="0" y="0">H</tspan></text>
      <text id="_1" data-name="1" transform="translate(2118.091 -443.295)" font-size="12" font-family="Roboto-Black, Roboto" font-weight="800"><tspan x="0" y="0">1</tspan></text>
      <text id="Nodo_6" data-name="Nodo 6" transform="translate(2065.01 -330)" font-size="6" font-family="Roboto-Black, Roboto" font-weight="800"><tspan x="0" y="0">Nodo 6</tspan></text>
    </g>
  </g>
</svg>
