<svg xmlns="http://www.w3.org/2000/svg" width="80" height="80" viewBox="0 0 80 80"><g transform="translate(-1247.051 -8535)"><circle cx="40" cy="40" r="40" transform="translate(1247.051 8535)" fill="#fff"/><path d="M40,2A38.011,38.011,0,0,0,25.209,75.015,38.01,38.01,0,0,0,54.791,4.985,37.76,37.76,0,0,0,40,2m0-2A40,40,0,1,1,0,40,40,40,0,0,1,40,0Z" transform="translate(1247.051 8535)"/><path d="M-930.955-3054.774H-1002.4v-1h71.445Z" transform="translate(2254.486 11617.576)"/><path d="M-977.775-3002.459h-1v-52.975h1Z" transform="translate(2266.095 11617.459)"/></g></svg>