<svg xmlns="http://www.w3.org/2000/svg" width="734.926" height="418.561" viewBox="0 0 734.926 418.561">
  <g id="Grupo_1111383" data-name="Grupo 1111383" transform="translate(-433.574 -6170.929)">
    <path id="Trazado_878006" data-name="Trazado 878006" d="M-1710,3235.133V3626.3" transform="translate(2158.455 2963.193)" fill="none" stroke="#707070" stroke-width="2"/>
    <path id="Trazado_878010" data-name="Trazado 878010" d="M-1710,3235.133V3626.3" transform="translate(2241.368 2963.193)" fill="none" stroke="#707070" stroke-width="2"/>
    <path id="Trazado_878011" data-name="Trazado 878011" d="M-1710,3235.133V3626.3" transform="translate(2331.78 2963.193)" fill="none" stroke="#707070" stroke-width="2"/>
    <path id="Trazado_878012" data-name="Trazado 878012" d="M-1710,3235.133V3626.3" transform="translate(2464.74 2963.193)" fill="none" stroke="#707070" stroke-width="2"/>
    <path id="Trazado_878013" data-name="Trazado 878013" d="M-1710,3235.133V3626.3" transform="translate(2576.426 2963.193)" fill="none" stroke="#707070" stroke-width="2"/>
    <path id="Trazado_878014" data-name="Trazado 878014" d="M-1710,3235.133V3626.3" transform="translate(2666.838 2963.193)" fill="none" stroke="#707070" stroke-width="2"/>
    <path id="Trazado_878015" data-name="Trazado 878015" d="M-1710,3235.133V3626.3" transform="translate(2778.524 2963.193)" fill="none" stroke="#707070" stroke-width="2"/>
    <path id="Trazado_878016" data-name="Trazado 878016" d="M-1710,3235.133V3626.3" transform="translate(2877.5 2963.193)" fill="none" stroke="#707070" stroke-width="2"/>
    <path id="Trazado_908314" data-name="Trazado 908314" d="M0,0H306.339V73.394H0Z" transform="translate(448.455 6235.414)" fill="#12263f"/>
    <path id="Trazado_908315" data-name="Trazado 908315" d="M0,0H236.136V58.5H0Z" transform="translate(813.296 6235.414)" fill="#9ebdd2"/>
    <path id="Trazado_908316" data-name="Trazado 908316" d="M0,0H312.721V72.33H0Z" transform="translate(545.25 6367.31)" fill="#12263f"/>
    <path id="Trazado_908317" data-name="Trazado 908317" d="M0,0H194.653V89.349H0Z" transform="translate(956.892 6356.673)" fill="#9ebdd2"/>
    <path id="Trazado_908318" data-name="Trazado 908318" d="M0,0H147.851V55.311H0Z" transform="translate(783.513 6476.868)" fill="#9ebdd2"/>
    <path id="Trazado_908319" data-name="Trazado 908319" d="M0,0H306.339V74.457H0Z" transform="translate(448.455 6473.677)" fill="#12263f"/>
    <path id="Trazado_908320" data-name="Trazado 908320" d="M9.041,0l9.041,18.082H0Z" transform="translate(751.603 6305.616) rotate(-90)" fill="#ffcf64"/>
    <g id="Trazado_908321" data-name="Trazado 908321" transform="translate(1167.5 6287.534) rotate(90)" fill="#12263f">
      <path d="M 17.27346992492676 17.58248519897461 L 0.8090195059776306 17.58248519897461 L 9.041244506835938 1.118034482002258 L 17.27346992492676 17.58248519897461 Z" stroke="none"/>
      <path d="M 9.041244506835938 2.236074447631836 L 1.618040084838867 17.08248519897461 L 16.46444892883301 17.08248519897461 L 9.041244506835938 2.236074447631836 M 9.041244506835938 3.814697265625e-06 L 18.08248519897461 18.08248519897461 L 3.814697265625e-06 18.08248519897461 L 9.041244506835938 3.814697265625e-06 Z" stroke="none" fill="#12263f"/>
    </g>
    <path id="Trazado_908322" data-name="Trazado 908322" d="M9.041,0l9.041,18.082H0Z" transform="translate(963.274 6396.028) rotate(90)" fill="#12263f"/>
    <path id="Trazado_908323" data-name="Trazado 908323" d="M7.139,0l7.139,14.279H0Z" transform="translate(749.636 6509.005) rotate(-90)" fill="#12263f"/>
    <path id="Trazado_908324" data-name="Trazado 908324" d="M9.041,0l9.041,18.082H0Z" transform="translate(853.716 6414.111) rotate(-90)" fill="#12263f"/>
    <path id="Trazado_908325" data-name="Trazado 908325" d="M7.139,0l7.139,14.279H0Z" transform="translate(787.692 6494.726) rotate(90)" fill="#12263f"/>
    <path id="Trazado_908326" data-name="Trazado 908326" d="M1.074,0V-14.219h4.58a6.737,6.737,0,0,1,3.389.854,6.006,6.006,0,0,1,2.349,2.412,7.283,7.283,0,0,1,.854,3.491v.654a7.325,7.325,0,0,1-.825,3.5A6.032,6.032,0,0,1,9.1-.884,6.589,6.589,0,0,1,5.752,0ZM4.5-11.572v8.936H5.693a2.666,2.666,0,0,0,2.266-1.05,5.145,5.145,0,0,0,.791-3.12v-.615a5.1,5.1,0,0,0-.791-3.105,2.713,2.713,0,0,0-2.3-1.045ZM20.146-1.143A3.393,3.393,0,0,1,17.324.2,3.328,3.328,0,0,1,14.692-.815,4.251,4.251,0,0,1,13.8-3.721v-6.846H17.09V-3.7a1.183,1.183,0,0,0,1.318,1.357,1.72,1.72,0,0,0,1.611-.811v-7.412H23.33V0H20.244ZM31.523-7.588l-1.084-.078a1.947,1.947,0,0,0-1.992.977V0H25.156V-10.566h3.086l.107,1.357a2.548,2.548,0,0,1,2.314-1.553,3.209,3.209,0,0,1,.918.117ZM38.369,0a3.716,3.716,0,0,1-.312-.947A3.06,3.06,0,0,1,35.518.2a3.749,3.749,0,0,1-2.539-.9,2.875,2.875,0,0,1-1.045-2.271,2.955,2.955,0,0,1,1.27-2.6,6.468,6.468,0,0,1,3.691-.879H37.91v-.559q0-1.462-1.26-1.462a1.03,1.03,0,0,0-1.172,1.158H32.188a2.95,2.95,0,0,1,1.3-2.487,5.479,5.479,0,0,1,3.325-.956,4.8,4.8,0,0,1,3.193.986,3.429,3.429,0,0,1,1.2,2.705v4.678A4.79,4.79,0,0,0,41.66-.166V0ZM36.309-2.148a1.836,1.836,0,0,0,1.021-.264,1.653,1.653,0,0,0,.581-.6V-4.7h-.957q-1.719,0-1.719,1.543a.942.942,0,0,0,.3.728A1.1,1.1,0,0,0,36.309-2.148Zm11.191-.2a1.464,1.464,0,0,0,1.074-.376,1.379,1.379,0,0,0,.371-1.05h3.086A3.653,3.653,0,0,1,50.786-.918,4.631,4.631,0,0,1,47.578.2,4.689,4.689,0,0,1,43.945-1.25a5.7,5.7,0,0,1-1.328-4v-.137a6.436,6.436,0,0,1,.591-2.827,4.3,4.3,0,0,1,1.7-1.885,5.081,5.081,0,0,1,2.637-.659A4.573,4.573,0,0,1,50.82-9.619a4.053,4.053,0,0,1,1.211,3.1H48.945a1.807,1.807,0,0,0-.4-1.26,1.382,1.382,0,0,0-1.074-.439q-1.279,0-1.494,1.631a11.507,11.507,0,0,0-.068,1.426,4.52,4.52,0,0,0,.381,2.207A1.319,1.319,0,0,0,47.5-2.344ZM56.895,0h-3.3V-10.566h3.3ZM53.4-13.291a1.469,1.469,0,0,1,.508-1.152,1.916,1.916,0,0,1,1.318-.449,1.916,1.916,0,0,1,1.318.449,1.469,1.469,0,0,1,.508,1.152,1.469,1.469,0,0,1-.508,1.152,1.916,1.916,0,0,1-1.318.449,1.916,1.916,0,0,1-1.318-.449A1.469,1.469,0,0,1,53.4-13.291Zm5.107,7.91A6.236,6.236,0,0,1,59.121-8.2a4.4,4.4,0,0,1,1.768-1.9,5.323,5.323,0,0,1,2.705-.664,4.858,4.858,0,0,1,3.74,1.47,5.64,5.64,0,0,1,1.367,4v.117a5.472,5.472,0,0,1-1.372,3.921A4.871,4.871,0,0,1,63.613.2,4.927,4.927,0,0,1,59.99-1.157a5.29,5.29,0,0,1-1.475-3.667Zm3.291.205a3.932,3.932,0,0,0,.459,2.148,1.529,1.529,0,0,0,1.357.684q1.758,0,1.8-2.705v-.332q0-2.842-1.816-2.842-1.65,0-1.787,2.451ZM64.043-15H67.52L64.8-11.934l-2.686,0Zm9.131,4.434.107,1.24A3.583,3.583,0,0,1,76.3-10.762a3.015,3.015,0,0,1,2.466.986,4.7,4.7,0,0,1,.845,2.969V0h-3.3V-6.67a1.783,1.783,0,0,0-.322-1.177,1.491,1.491,0,0,0-1.172-.376,1.569,1.569,0,0,0-1.436.762V0H70.088V-10.566Z" transform="translate(554.823 6279.814)" fill="#fff"/>
    <path id="Trazado_908327" data-name="Trazado 908327" d="M12.959,0H9.551V-5.937H4.5V0H1.074V-14.219H4.5v5.645H9.551v-5.645h3.408Zm1.6-5.381A6.236,6.236,0,0,1,15.176-8.2a4.4,4.4,0,0,1,1.768-1.9,5.323,5.323,0,0,1,2.705-.664,4.858,4.858,0,0,1,3.74,1.47,5.64,5.64,0,0,1,1.367,4v.117a5.472,5.472,0,0,1-1.372,3.921A4.871,4.871,0,0,1,19.668.2a4.927,4.927,0,0,1-3.623-1.353A5.29,5.29,0,0,1,14.57-4.824Zm3.291.205a3.932,3.932,0,0,0,.459,2.148,1.529,1.529,0,0,0,1.357.684q1.758,0,1.8-2.705v-.332q0-2.842-1.816-2.842-1.65,0-1.787,2.451ZM29.678,0h-3.3V-15h3.3Zm1.641-5.361a7.134,7.134,0,0,1,.527-2.832,4.245,4.245,0,0,1,1.514-1.9,3.99,3.99,0,0,1,2.295-.669,3.173,3.173,0,0,1,2.578,1.113l.117-.918h2.988V-.4a4.455,4.455,0,0,1-.649,2.427,4.167,4.167,0,0,1-1.88,1.582,6.91,6.91,0,0,1-2.852.552,5.961,5.961,0,0,1-2.251-.439,4.063,4.063,0,0,1-1.665-1.143L33.418.645A3.018,3.018,0,0,0,35.84,1.729,1.96,1.96,0,0,0,38.027-.518V-.85A3.09,3.09,0,0,1,35.635.2,3.819,3.819,0,0,1,32.51-1.284a6.13,6.13,0,0,1-1.191-3.96Zm3.3.205A3.759,3.759,0,0,0,35.107-3.1a1.541,1.541,0,0,0,1.367.757,1.748,1.748,0,0,0,1.553-.713V-7.5a1.7,1.7,0,0,0-1.533-.723,1.551,1.551,0,0,0-1.377.786A4.287,4.287,0,0,0,34.619-5.156ZM49.5-1.143A3.393,3.393,0,0,1,46.68.2,3.328,3.328,0,0,1,44.048-.815a4.251,4.251,0,0,1-.894-2.905v-6.846h3.291V-3.7a1.183,1.183,0,0,0,1.318,1.357,1.72,1.72,0,0,0,1.611-.811v-7.412h3.311V0H49.6ZM60.879-7.588l-1.084-.078a1.947,1.947,0,0,0-1.992.977V0H54.512V-10.566H57.6l.107,1.357a2.548,2.548,0,0,1,2.314-1.553,3.209,3.209,0,0,1,.918.117ZM67.725,0a3.716,3.716,0,0,1-.312-.947A3.06,3.06,0,0,1,64.873.2a3.749,3.749,0,0,1-2.539-.9,2.875,2.875,0,0,1-1.045-2.271,2.955,2.955,0,0,1,1.27-2.6,6.468,6.468,0,0,1,3.691-.879h1.016v-.559q0-1.462-1.26-1.462a1.03,1.03,0,0,0-1.172,1.158H61.543a2.95,2.95,0,0,1,1.3-2.487,5.479,5.479,0,0,1,3.325-.956,4.8,4.8,0,0,1,3.193.986,3.429,3.429,0,0,1,1.2,2.705v4.678a4.79,4.79,0,0,0,.449,2.227V0ZM65.664-2.148a1.836,1.836,0,0,0,1.021-.264,1.653,1.653,0,0,0,.581-.6V-4.7h-.957q-1.719,0-1.719,1.543a.942.942,0,0,0,.3.728A1.1,1.1,0,0,0,65.664-2.148ZM81.2-13.193v2.627h1.738v2.285H81.2v4.834a1.234,1.234,0,0,0,.215.83,1.152,1.152,0,0,0,.85.234,4.828,4.828,0,0,0,.82-.059V-.088A6.074,6.074,0,0,1,81.23.2a3.448,3.448,0,0,1-2.51-.8,3.282,3.282,0,0,1-.811-2.432V-8.281H76.563v-2.285H77.91v-2.627Zm2.324,7.813A6.236,6.236,0,0,1,84.141-8.2a4.4,4.4,0,0,1,1.768-1.9,5.323,5.323,0,0,1,2.705-.664,4.858,4.858,0,0,1,3.74,1.47,5.64,5.64,0,0,1,1.367,4v.117a5.472,5.472,0,0,1-1.372,3.921A4.871,4.871,0,0,1,88.633.2,4.927,4.927,0,0,1,85.01-1.157a5.29,5.29,0,0,1-1.475-3.667Zm3.291.205a3.932,3.932,0,0,0,.459,2.148,1.529,1.529,0,0,0,1.357.684q1.758,0,1.8-2.705v-.332q0-2.842-1.816-2.842-1.65,0-1.787,2.451ZM99-13.193v2.627h1.738v2.285H99v4.834a1.234,1.234,0,0,0,.215.83,1.152,1.152,0,0,0,.85.234,4.828,4.828,0,0,0,.82-.059V-.088A6.074,6.074,0,0,1,99.033.2a3.448,3.448,0,0,1-2.51-.8,3.282,3.282,0,0,1-.811-2.432V-8.281H94.365v-2.285h1.348v-2.627ZM107.988,0a3.716,3.716,0,0,1-.312-.947A3.06,3.06,0,0,1,105.137.2a3.749,3.749,0,0,1-2.539-.9,2.875,2.875,0,0,1-1.045-2.271,2.955,2.955,0,0,1,1.27-2.6,6.468,6.468,0,0,1,3.691-.879h1.016v-.559q0-1.462-1.26-1.462A1.03,1.03,0,0,0,105.1-7.319h-3.291a2.95,2.95,0,0,1,1.3-2.487,5.479,5.479,0,0,1,3.325-.956,4.8,4.8,0,0,1,3.193.986,3.429,3.429,0,0,1,1.2,2.705v4.678a4.79,4.79,0,0,0,.449,2.227V0Zm-2.061-2.148a1.836,1.836,0,0,0,1.021-.264,1.653,1.653,0,0,0,.581-.6V-4.7h-.957q-1.719,0-1.719,1.543a.942.942,0,0,0,.3.728A1.1,1.1,0,0,0,105.928-2.148ZM116.123,0h-3.3V-15h3.3Z" transform="translate(845.206 6272.369)" fill="#12263f"/>
    <path id="Trazado_908328" data-name="Trazado 908328" d="M13.607,0H10.028V-6.234h-5.3V0h-3.6V-14.93h3.6V-9h5.3V-14.93h3.579Zm1.682-5.65a6.548,6.548,0,0,1,.646-2.958A4.62,4.62,0,0,1,17.791-10.6a5.59,5.59,0,0,1,2.84-.7,5.1,5.1,0,0,1,3.927,1.543,5.922,5.922,0,0,1,1.436,4.2v.123a5.746,5.746,0,0,1-1.441,4.117,5.115,5.115,0,0,1-3.9,1.523,5.173,5.173,0,0,1-3.8-1.42A5.555,5.555,0,0,1,15.3-5.065Zm3.456.215a4.128,4.128,0,0,0,.482,2.256,1.606,1.606,0,0,0,1.425.718q1.846,0,1.887-2.84V-5.65q0-2.984-1.907-2.984-1.733,0-1.876,2.574ZM31.162,0H27.7V-15.75h3.466Zm1.723-5.629A7.491,7.491,0,0,1,33.438-8.6,4.458,4.458,0,0,1,35.027-10.6a4.19,4.19,0,0,1,2.41-.7,3.331,3.331,0,0,1,2.707,1.169l.123-.964H43.4V-.42a4.678,4.678,0,0,1-.682,2.548,4.375,4.375,0,0,1-1.974,1.661,7.255,7.255,0,0,1-2.994.579,6.259,6.259,0,0,1-2.364-.461,4.266,4.266,0,0,1-1.748-1.2L35.089.677a3.169,3.169,0,0,0,2.543,1.138,2.058,2.058,0,0,0,2.3-2.358V-.892a3.245,3.245,0,0,1-2.512,1.1,4.01,4.01,0,0,1-3.281-1.553,6.436,6.436,0,0,1-1.251-4.158Zm3.466.215a3.947,3.947,0,0,0,.513,2.158,1.618,1.618,0,0,0,1.436.795,1.835,1.835,0,0,0,1.63-.749V-7.875a1.789,1.789,0,0,0-1.61-.759,1.628,1.628,0,0,0-1.446.825A4.5,4.5,0,0,0,36.35-5.414ZM51.977-1.2a3.563,3.563,0,0,1-2.963,1.4A3.494,3.494,0,0,1,46.25-.856a4.463,4.463,0,0,1-.938-3.051v-7.188h3.456v7.208a1.242,1.242,0,0,0,1.384,1.425,1.806,1.806,0,0,0,1.692-.851v-7.783H55.32V0H52.08ZM63.923-7.967l-1.138-.082a2.044,2.044,0,0,0-2.092,1.025V0H57.237V-11.095h3.24l.113,1.425a2.676,2.676,0,0,1,2.43-1.63,3.37,3.37,0,0,1,.964.123ZM71.111,0a3.9,3.9,0,0,1-.328-.995,3.213,3.213,0,0,1-2.666,1.2,3.936,3.936,0,0,1-2.666-.948,3.019,3.019,0,0,1-1.1-2.384,3.1,3.1,0,0,1,1.333-2.728,6.791,6.791,0,0,1,3.876-.923h1.066v-.587q0-1.535-1.323-1.535a1.081,1.081,0,0,0-1.23,1.216H64.62A3.1,3.1,0,0,1,65.989-10.3a5.753,5.753,0,0,1,3.491-1,5.044,5.044,0,0,1,3.353,1.036,3.6,3.6,0,0,1,1.261,2.84v4.912a5.03,5.03,0,0,0,.472,2.338V0ZM68.947-2.256a1.928,1.928,0,0,0,1.072-.277,1.735,1.735,0,0,0,.61-.625V-4.932h-1q-1.8,0-1.8,1.62a.989.989,0,0,0,.318.764A1.15,1.15,0,0,0,68.947-2.256ZM4.614,28H1.148V16.905H4.614ZM.943,14.044a1.542,1.542,0,0,1,.533-1.21,2.012,2.012,0,0,1,1.384-.472,2.012,2.012,0,0,1,1.384.472,1.639,1.639,0,0,1,0,2.42,2.012,2.012,0,0,1-1.384.472,2.012,2.012,0,0,1-1.384-.472A1.542,1.542,0,0,1,.943,14.044Zm8.972,2.861.113,1.3A3.762,3.762,0,0,1,13.2,16.7a3.165,3.165,0,0,1,2.589,1.036,4.93,4.93,0,0,1,.887,3.117V28H13.207V21a1.872,1.872,0,0,0-.338-1.236,1.565,1.565,0,0,0-1.23-.395,1.648,1.648,0,0,0-1.507.8V28H6.675V16.905Zm8.234,5.465a6.777,6.777,0,0,1,1.138-4.153A3.746,3.746,0,0,1,22.466,16.7a3.186,3.186,0,0,1,2.5,1.169V12.25h3.466V28H25.327l-.174-1.189a3.272,3.272,0,0,1-2.707,1.395,3.74,3.74,0,0,1-3.138-1.518A6.992,6.992,0,0,1,18.149,22.371Zm3.456.215q0,2.953,1.723,2.953a1.7,1.7,0,0,0,1.641-.964V20.351a1.655,1.655,0,0,0-1.62-.984q-1.6,0-1.733,2.584Zm14.161,5.619a5.7,5.7,0,0,1-4.132-1.523,5.258,5.258,0,0,1-1.579-3.963v-.287a6.814,6.814,0,0,1,.631-3,4.614,4.614,0,0,1,1.841-2.015A5.556,5.556,0,0,1,35.4,16.7a4.8,4.8,0,0,1,3.691,1.451A5.7,5.7,0,0,1,40.441,22.2V23.54h-6.87a2.491,2.491,0,0,0,.81,1.466,2.41,2.41,0,0,0,1.62.533,3.106,3.106,0,0,0,2.563-1.148l1.579,1.866a4.414,4.414,0,0,1-1.83,1.42A6.185,6.185,0,0,1,35.766,28.205Zm-.39-8.839q-1.518,0-1.8,2.01h3.486v-.267a1.712,1.712,0,0,0-.42-1.287A1.673,1.673,0,0,0,35.376,19.366Zm16.755,3.168a6.691,6.691,0,0,1-1.164,4.127,3.731,3.731,0,0,1-3.143,1.543,3.2,3.2,0,0,1-2.512-1.118v5.178H41.856V16.905h3.23l.1,1.025A3.2,3.2,0,0,1,47.8,16.7a3.761,3.761,0,0,1,3.189,1.512,6.773,6.773,0,0,1,1.138,4.158Zm-3.456-.215q0-2.953-1.723-2.953a1.626,1.626,0,0,0-1.641.882v4.368a1.679,1.679,0,0,0,1.661.923q1.651,0,1.7-2.851Zm10.346,5.886a5.7,5.7,0,0,1-4.132-1.523,5.258,5.258,0,0,1-1.579-3.963v-.287a6.814,6.814,0,0,1,.631-3,4.614,4.614,0,0,1,1.841-2.015,5.556,5.556,0,0,1,2.871-.713,4.8,4.8,0,0,1,3.691,1.451A5.7,5.7,0,0,1,63.7,22.2V23.54h-6.87a2.491,2.491,0,0,0,.81,1.466,2.41,2.41,0,0,0,1.62.533,3.106,3.106,0,0,0,2.563-1.148L63.4,26.257a4.414,4.414,0,0,1-1.83,1.42A6.185,6.185,0,0,1,59.021,28.205Zm-.39-8.839q-1.518,0-1.8,2.01h3.486v-.267a1.712,1.712,0,0,0-.42-1.287A1.673,1.673,0,0,0,58.632,19.366Zm9.628-2.461.113,1.3A3.762,3.762,0,0,1,71.542,16.7a3.165,3.165,0,0,1,2.589,1.036,4.93,4.93,0,0,1,.887,3.117V28H71.552V21a1.872,1.872,0,0,0-.338-1.236,1.565,1.565,0,0,0-1.23-.395,1.648,1.648,0,0,0-1.507.8V28H65.02V16.905Zm8.234,5.465a6.777,6.777,0,0,1,1.138-4.153A3.746,3.746,0,0,1,80.811,16.7a3.186,3.186,0,0,1,2.5,1.169V12.25h3.466V28H83.672L83.5,26.811a3.272,3.272,0,0,1-2.707,1.395,3.74,3.74,0,0,1-3.138-1.518A6.992,6.992,0,0,1,76.494,22.371Zm3.456.215q0,2.953,1.723,2.953a1.7,1.7,0,0,0,1.641-.964V20.351a1.655,1.655,0,0,0-1.62-.984q-1.6,0-1.733,2.584ZM92.388,28H88.922V16.905h3.466ZM88.717,14.044a1.542,1.542,0,0,1,.533-1.21,2.267,2.267,0,0,1,2.769,0,1.639,1.639,0,0,1,0,2.42,2.267,2.267,0,0,1-2.769,0A1.542,1.542,0,0,1,88.717,14.044ZM99.883,28.205a5.7,5.7,0,0,1-4.132-1.523,5.258,5.258,0,0,1-1.579-3.963v-.287a6.814,6.814,0,0,1,.631-3,4.614,4.614,0,0,1,1.841-2.015,5.556,5.556,0,0,1,2.871-.713,4.8,4.8,0,0,1,3.691,1.451,5.7,5.7,0,0,1,1.354,4.045V23.54h-6.87a2.491,2.491,0,0,0,.81,1.466,2.41,2.41,0,0,0,1.62.533,3.106,3.106,0,0,0,2.563-1.148l1.579,1.866a4.414,4.414,0,0,1-1.83,1.42A6.185,6.185,0,0,1,99.883,28.205Zm-.39-8.839q-1.518,0-1.8,2.01h3.486v-.267a1.712,1.712,0,0,0-.42-1.287A1.673,1.673,0,0,0,99.494,19.366Zm9.628-2.461.113,1.3A3.762,3.762,0,0,1,112.4,16.7a3.165,3.165,0,0,1,2.589,1.036,4.93,4.93,0,0,1,.887,3.117V28h-3.466V21a1.872,1.872,0,0,0-.338-1.236,1.565,1.565,0,0,0-1.23-.395,1.648,1.648,0,0,0-1.507.8V28h-3.456V16.905Zm12.694-2.758v2.758h1.825v2.4h-1.825V24.38a1.3,1.3,0,0,0,.226.872,1.21,1.21,0,0,0,.892.246,5.069,5.069,0,0,0,.861-.062v2.471a6.377,6.377,0,0,1-1.948.3,3.62,3.62,0,0,1-2.635-.841,3.446,3.446,0,0,1-.851-2.553V19.3h-1.415v-2.4h1.415V14.147Zm8.552,14.058a5.7,5.7,0,0,1-4.132-1.523,5.258,5.258,0,0,1-1.579-3.963v-.287a6.814,6.814,0,0,1,.631-3,4.614,4.614,0,0,1,1.841-2.015A5.556,5.556,0,0,1,130,16.7a4.8,4.8,0,0,1,3.691,1.451,5.7,5.7,0,0,1,1.354,4.045V23.54h-6.87a2.491,2.491,0,0,0,.81,1.466,2.41,2.41,0,0,0,1.62.533,3.106,3.106,0,0,0,2.563-1.148l1.579,1.866a4.414,4.414,0,0,1-1.83,1.42A6.185,6.185,0,0,1,130.368,28.205Zm-.39-8.839q-1.518,0-1.8,2.01h3.486v-.267a1.712,1.712,0,0,0-.42-1.287A1.673,1.673,0,0,0,129.979,19.366Z" transform="translate(985.611 6395.691)" fill="#12263f"/>
    <path id="Trazado_908329" data-name="Trazado 908329" d="M12.959,0H9.551V-5.937H4.5V0H1.074V-14.219H4.5v5.645H9.551v-5.645h3.408Zm1.6-5.381A6.236,6.236,0,0,1,15.176-8.2a4.4,4.4,0,0,1,1.768-1.9,5.323,5.323,0,0,1,2.705-.664,4.858,4.858,0,0,1,3.74,1.47,5.64,5.64,0,0,1,1.367,4v.117a5.472,5.472,0,0,1-1.372,3.921A4.871,4.871,0,0,1,19.668.2a4.927,4.927,0,0,1-3.623-1.353A5.29,5.29,0,0,1,14.57-4.824Zm3.291.205a3.932,3.932,0,0,0,.459,2.148,1.529,1.529,0,0,0,1.357.684q1.758,0,1.8-2.705v-.332q0-2.842-1.816-2.842-1.65,0-1.787,2.451ZM29.678,0h-3.3V-15h3.3Zm1.641-5.361a7.134,7.134,0,0,1,.527-2.832,4.245,4.245,0,0,1,1.514-1.9,3.99,3.99,0,0,1,2.295-.669,3.173,3.173,0,0,1,2.578,1.113l.117-.918h2.988V-.4a4.455,4.455,0,0,1-.649,2.427,4.167,4.167,0,0,1-1.88,1.582,6.91,6.91,0,0,1-2.852.552,5.961,5.961,0,0,1-2.251-.439,4.063,4.063,0,0,1-1.665-1.143L33.418.645A3.018,3.018,0,0,0,35.84,1.729,1.96,1.96,0,0,0,38.027-.518V-.85A3.09,3.09,0,0,1,35.635.2,3.819,3.819,0,0,1,32.51-1.284a6.13,6.13,0,0,1-1.191-3.96Zm3.3.205A3.759,3.759,0,0,0,35.107-3.1a1.541,1.541,0,0,0,1.367.757,1.748,1.748,0,0,0,1.553-.713V-7.5a1.7,1.7,0,0,0-1.533-.723,1.551,1.551,0,0,0-1.377.786A4.287,4.287,0,0,0,34.619-5.156ZM49.5-1.143A3.393,3.393,0,0,1,46.68.2,3.328,3.328,0,0,1,44.048-.815a4.251,4.251,0,0,1-.894-2.905v-6.846h3.291V-3.7a1.183,1.183,0,0,0,1.318,1.357,1.72,1.72,0,0,0,1.611-.811v-7.412h3.311V0H49.6ZM60.879-7.588l-1.084-.078a1.947,1.947,0,0,0-1.992.977V0H54.512V-10.566H57.6l.107,1.357a2.548,2.548,0,0,1,2.314-1.553,3.209,3.209,0,0,1,.918.117ZM67.725,0a3.716,3.716,0,0,1-.312-.947A3.06,3.06,0,0,1,64.873.2a3.749,3.749,0,0,1-2.539-.9,2.875,2.875,0,0,1-1.045-2.271,2.955,2.955,0,0,1,1.27-2.6,6.468,6.468,0,0,1,3.691-.879h1.016v-.559q0-1.462-1.26-1.462a1.03,1.03,0,0,0-1.172,1.158H61.543a2.95,2.95,0,0,1,1.3-2.487,5.479,5.479,0,0,1,3.325-.956,4.8,4.8,0,0,1,3.193.986,3.429,3.429,0,0,1,1.2,2.705v4.678a4.79,4.79,0,0,0,.449,2.227V0ZM65.664-2.148a1.836,1.836,0,0,0,1.021-.264,1.653,1.653,0,0,0,.581-.6V-4.7h-.957q-1.719,0-1.719,1.543a.942.942,0,0,0,.3.728A1.1,1.1,0,0,0,65.664-2.148ZM80.84,0h-3.3V-15h3.3Zm5.5,0h-3.3V-10.566h3.3Zm-3.5-13.291a1.469,1.469,0,0,1,.508-1.152,1.916,1.916,0,0,1,1.318-.449,1.916,1.916,0,0,1,1.318.449,1.469,1.469,0,0,1,.508,1.152,1.469,1.469,0,0,1-.508,1.152,1.916,1.916,0,0,1-1.318.449,1.916,1.916,0,0,1-1.318-.449A1.469,1.469,0,0,1,82.842-13.291ZM98.174-5.2A6.44,6.44,0,0,1,97.1-1.2,3.6,3.6,0,0,1,94.072.2a3.122,3.122,0,0,1-2.6-1.279L91.338,0H88.389V-15H91.68v5.283a3.013,3.013,0,0,1,2.373-1.045A3.6,3.6,0,0,1,97.1-9.346a6.473,6.473,0,0,1,1.074,3.984Zm-3.3-.21a4.3,4.3,0,0,0-.405-2.169,1.366,1.366,0,0,0-1.245-.648,1.576,1.576,0,0,0-1.543.848v4.192a1.585,1.585,0,0,0,1.563.838,1.4,1.4,0,0,0,1.475-1.131A8.121,8.121,0,0,0,94.873-5.405Zm11.143-2.183-1.084-.078a1.947,1.947,0,0,0-1.992.977V0H99.648V-10.566h3.086l.107,1.357a2.548,2.548,0,0,1,2.314-1.553,3.209,3.209,0,0,1,.918.117ZM112.314.2a5.432,5.432,0,0,1-3.936-1.45,5.008,5.008,0,0,1-1.5-3.774V-5.3a6.489,6.489,0,0,1,.6-2.861,4.395,4.395,0,0,1,1.753-1.919,5.292,5.292,0,0,1,2.734-.679,4.574,4.574,0,0,1,3.516,1.382,5.43,5.43,0,0,1,1.289,3.853v1.279h-6.543a2.372,2.372,0,0,0,.771,1.4,2.3,2.3,0,0,0,1.543.508,2.958,2.958,0,0,0,2.441-1.094l1.5,1.777a4.2,4.2,0,0,1-1.743,1.353A5.891,5.891,0,0,1,112.314.2Zm-.371-8.418q-1.445,0-1.719,1.914h3.32v-.254a1.63,1.63,0,0,0-.4-1.226A1.593,1.593,0,0,0,111.943-8.223Z" transform="translate(795.213 6509.568)" fill="#12263f"/>
    <path id="Trazado_908330" data-name="Trazado 908330" d="M1.074,0V-14.219h4.58a6.737,6.737,0,0,1,3.389.854,6.006,6.006,0,0,1,2.349,2.412,7.283,7.283,0,0,1,.854,3.491v.654a7.325,7.325,0,0,1-.825,3.5A6.032,6.032,0,0,1,9.1-.884,6.589,6.589,0,0,1,5.752,0ZM4.5-11.572v8.936H5.693a2.666,2.666,0,0,0,2.266-1.05,5.145,5.145,0,0,0,.791-3.12v-.615a5.1,5.1,0,0,0-.791-3.105,2.713,2.713,0,0,0-2.3-1.045ZM20.146-1.143A3.393,3.393,0,0,1,17.324.2,3.328,3.328,0,0,1,14.692-.815,4.251,4.251,0,0,1,13.8-3.721v-6.846H17.09V-3.7a1.183,1.183,0,0,0,1.318,1.357,1.72,1.72,0,0,0,1.611-.811v-7.412H23.33V0H20.244ZM31.523-7.588l-1.084-.078a1.947,1.947,0,0,0-1.992.977V0H25.156V-10.566h3.086l.107,1.357a2.548,2.548,0,0,1,2.314-1.553,3.209,3.209,0,0,1,.918.117ZM38.369,0a3.716,3.716,0,0,1-.312-.947A3.06,3.06,0,0,1,35.518.2a3.749,3.749,0,0,1-2.539-.9,2.875,2.875,0,0,1-1.045-2.271,2.955,2.955,0,0,1,1.27-2.6,6.468,6.468,0,0,1,3.691-.879H37.91v-.559q0-1.462-1.26-1.462a1.03,1.03,0,0,0-1.172,1.158H32.188a2.95,2.95,0,0,1,1.3-2.487,5.479,5.479,0,0,1,3.325-.956,4.8,4.8,0,0,1,3.193.986,3.429,3.429,0,0,1,1.2,2.705v4.678A4.79,4.79,0,0,0,41.66-.166V0ZM36.309-2.148a1.836,1.836,0,0,0,1.021-.264,1.653,1.653,0,0,0,.581-.6V-4.7h-.957q-1.719,0-1.719,1.543a.942.942,0,0,0,.3.728A1.1,1.1,0,0,0,36.309-2.148Zm11.191-.2a1.464,1.464,0,0,0,1.074-.376,1.379,1.379,0,0,0,.371-1.05h3.086A3.653,3.653,0,0,1,50.786-.918,4.631,4.631,0,0,1,47.578.2,4.689,4.689,0,0,1,43.945-1.25a5.7,5.7,0,0,1-1.328-4v-.137a6.436,6.436,0,0,1,.591-2.827,4.3,4.3,0,0,1,1.7-1.885,5.081,5.081,0,0,1,2.637-.659A4.573,4.573,0,0,1,50.82-9.619a4.053,4.053,0,0,1,1.211,3.1H48.945a1.807,1.807,0,0,0-.4-1.26,1.382,1.382,0,0,0-1.074-.439q-1.279,0-1.494,1.631a11.507,11.507,0,0,0-.068,1.426,4.52,4.52,0,0,0,.381,2.207A1.319,1.319,0,0,0,47.5-2.344ZM56.895,0h-3.3V-10.566h3.3ZM53.4-13.291a1.469,1.469,0,0,1,.508-1.152,1.916,1.916,0,0,1,1.318-.449,1.916,1.916,0,0,1,1.318.449,1.469,1.469,0,0,1,.508,1.152,1.469,1.469,0,0,1-.508,1.152,1.916,1.916,0,0,1-1.318.449,1.916,1.916,0,0,1-1.318-.449A1.469,1.469,0,0,1,53.4-13.291Zm5.107,7.91A6.236,6.236,0,0,1,59.121-8.2a4.4,4.4,0,0,1,1.768-1.9,5.323,5.323,0,0,1,2.705-.664,4.858,4.858,0,0,1,3.74,1.47,5.64,5.64,0,0,1,1.367,4v.117a5.472,5.472,0,0,1-1.372,3.921A4.871,4.871,0,0,1,63.613.2,4.927,4.927,0,0,1,59.99-1.157a5.29,5.29,0,0,1-1.475-3.667Zm3.291.205a3.932,3.932,0,0,0,.459,2.148,1.529,1.529,0,0,0,1.357.684q1.758,0,1.8-2.705v-.332q0-2.842-1.816-2.842-1.65,0-1.787,2.451ZM64.043-15H67.52L64.8-11.934l-2.686,0Zm9.131,4.434.107,1.24A3.583,3.583,0,0,1,76.3-10.762a3.015,3.015,0,0,1,2.466.986,4.7,4.7,0,0,1,.845,2.969V0h-3.3V-6.67a1.783,1.783,0,0,0-.322-1.177,1.491,1.491,0,0,0-1.172-.376,1.569,1.569,0,0,0-1.436.762V0H70.088V-10.566Z" transform="translate(668.636 6410.646)" fill="#fff"/>
    <path id="Trazado_908331" data-name="Trazado 908331" d="M1.074,0V-14.219h4.58a6.737,6.737,0,0,1,3.389.854,6.006,6.006,0,0,1,2.349,2.412,7.283,7.283,0,0,1,.854,3.491v.654a7.325,7.325,0,0,1-.825,3.5A6.032,6.032,0,0,1,9.1-.884,6.589,6.589,0,0,1,5.752,0ZM4.5-11.572v8.936H5.693a2.666,2.666,0,0,0,2.266-1.05,5.145,5.145,0,0,0,.791-3.12v-.615a5.1,5.1,0,0,0-.791-3.105,2.713,2.713,0,0,0-2.3-1.045ZM20.146-1.143A3.393,3.393,0,0,1,17.324.2,3.328,3.328,0,0,1,14.692-.815,4.251,4.251,0,0,1,13.8-3.721v-6.846H17.09V-3.7a1.183,1.183,0,0,0,1.318,1.357,1.72,1.72,0,0,0,1.611-.811v-7.412H23.33V0H20.244ZM31.523-7.588l-1.084-.078a1.947,1.947,0,0,0-1.992.977V0H25.156V-10.566h3.086l.107,1.357a2.548,2.548,0,0,1,2.314-1.553,3.209,3.209,0,0,1,.918.117ZM38.369,0a3.716,3.716,0,0,1-.312-.947A3.06,3.06,0,0,1,35.518.2a3.749,3.749,0,0,1-2.539-.9,2.875,2.875,0,0,1-1.045-2.271,2.955,2.955,0,0,1,1.27-2.6,6.468,6.468,0,0,1,3.691-.879H37.91v-.559q0-1.462-1.26-1.462a1.03,1.03,0,0,0-1.172,1.158H32.188a2.95,2.95,0,0,1,1.3-2.487,5.479,5.479,0,0,1,3.325-.956,4.8,4.8,0,0,1,3.193.986,3.429,3.429,0,0,1,1.2,2.705v4.678A4.79,4.79,0,0,0,41.66-.166V0ZM36.309-2.148a1.836,1.836,0,0,0,1.021-.264,1.653,1.653,0,0,0,.581-.6V-4.7h-.957q-1.719,0-1.719,1.543a.942.942,0,0,0,.3.728A1.1,1.1,0,0,0,36.309-2.148Zm11.191-.2a1.464,1.464,0,0,0,1.074-.376,1.379,1.379,0,0,0,.371-1.05h3.086A3.653,3.653,0,0,1,50.786-.918,4.631,4.631,0,0,1,47.578.2,4.689,4.689,0,0,1,43.945-1.25a5.7,5.7,0,0,1-1.328-4v-.137a6.436,6.436,0,0,1,.591-2.827,4.3,4.3,0,0,1,1.7-1.885,5.081,5.081,0,0,1,2.637-.659A4.573,4.573,0,0,1,50.82-9.619a4.053,4.053,0,0,1,1.211,3.1H48.945a1.807,1.807,0,0,0-.4-1.26,1.382,1.382,0,0,0-1.074-.439q-1.279,0-1.494,1.631a11.507,11.507,0,0,0-.068,1.426,4.52,4.52,0,0,0,.381,2.207A1.319,1.319,0,0,0,47.5-2.344ZM56.895,0h-3.3V-10.566h3.3ZM53.4-13.291a1.469,1.469,0,0,1,.508-1.152,1.916,1.916,0,0,1,1.318-.449,1.916,1.916,0,0,1,1.318.449,1.469,1.469,0,0,1,.508,1.152,1.469,1.469,0,0,1-.508,1.152,1.916,1.916,0,0,1-1.318.449,1.916,1.916,0,0,1-1.318-.449A1.469,1.469,0,0,1,53.4-13.291Zm5.107,7.91A6.236,6.236,0,0,1,59.121-8.2a4.4,4.4,0,0,1,1.768-1.9,5.323,5.323,0,0,1,2.705-.664,4.858,4.858,0,0,1,3.74,1.47,5.64,5.64,0,0,1,1.367,4v.117a5.472,5.472,0,0,1-1.372,3.921A4.871,4.871,0,0,1,63.613.2,4.927,4.927,0,0,1,59.99-1.157a5.29,5.29,0,0,1-1.475-3.667Zm3.291.205a3.932,3.932,0,0,0,.459,2.148,1.529,1.529,0,0,0,1.357.684q1.758,0,1.8-2.705v-.332q0-2.842-1.816-2.842-1.65,0-1.787,2.451ZM64.043-15H67.52L64.8-11.934l-2.686,0Zm9.131,4.434.107,1.24A3.583,3.583,0,0,1,76.3-10.762a3.015,3.015,0,0,1,2.466.986,4.7,4.7,0,0,1,.845,2.969V0h-3.3V-6.67a1.783,1.783,0,0,0-.322-1.177,1.491,1.491,0,0,0-1.172-.376,1.569,1.569,0,0,0-1.436.762V0H70.088V-10.566Z" transform="translate(545.25 6513.823)" fill="#fff"/>
    <g id="Trazado_908332" data-name="Trazado 908332" transform="translate(751.603 6305.616) rotate(-90)" fill="#12263f">
      <path d="M 17.27346992492676 17.58248519897461 L 0.8090195059776306 17.58248519897461 L 9.041244506835938 1.118034482002258 L 17.27346992492676 17.58248519897461 Z" stroke="none"/>
      <path d="M 9.041244506835938 2.236074447631836 L 1.618040084838867 17.08248519897461 L 16.46444892883301 17.08248519897461 L 9.041244506835938 2.236074447631836 M 9.041244506835938 3.814697265625e-06 L 18.08248519897461 18.08248519897461 L 3.814697265625e-06 18.08248519897461 L 9.041244506835938 3.814697265625e-06 Z" stroke="none" fill="#12263f"/>
    </g>
    <path id="Trazado_878008" data-name="Trazado 878008" d="M-1408,3327.5h73.394" transform="translate(2279.798 3077.57)" fill="none" stroke="#12263f" stroke-width="4"/>
    <path id="Trazado_878009" data-name="Trazado 878009" d="M-1408,3327.5h9.5" transform="translate(2171.915 3174.364)" fill="none" stroke="#12263f" stroke-width="4"/>
    <path id="Trazado_878007" data-name="Trazado 878007" d="M-1408,3327.5h380.731" transform="translate(2177.685 2969.075)" fill="none" stroke="#12263f" stroke-width="4"/>
    <path id="Trazado_908333" data-name="Trazado 908333" d="M4.5-4.824V0H1.074V-14.219H6.748a6.608,6.608,0,0,1,2.886.6,4.526,4.526,0,0,1,1.943,1.709,4.667,4.667,0,0,1,.688,2.515,4.114,4.114,0,0,1-1.489,3.325A6.179,6.179,0,0,1,6.689-4.824Zm0-2.646H6.748a2.118,2.118,0,0,0,1.519-.5,1.85,1.85,0,0,0,.522-1.406,2.287,2.287,0,0,0-.537-1.592,1.9,1.9,0,0,0-1.465-.605H4.5ZM23.047-5.664H17.52V0H14.092V-14.219H23.6v2.646H17.52V-8.3h5.527ZM28.682,0H25.264V-14.219h3.418Z" transform="translate(432.5 6185.147)" fill="#12263f"/>
    <path id="Trazado_908334" data-name="Trazado 908334" d="M12.227-14.219v9.307a5.349,5.349,0,0,1-.674,2.739A4.365,4.365,0,0,1,9.619-.41,6.812,6.812,0,0,1,6.641.2,5.885,5.885,0,0,1,2.549-1.152,4.806,4.806,0,0,1,1.025-4.844v-9.375H4.473v9.443q.059,2.334,2.168,2.334a2.1,2.1,0,0,0,1.611-.586,2.739,2.739,0,0,0,.547-1.9v-9.287ZM23.32-5.664H17.793V0H14.365V-14.219h9.512v2.646H17.793V-8.3H23.32Zm13.34-5.908H32.393V0H28.965V-11.572H24.775v-2.646H36.66Zm8.35,8.916h-4.7L39.492,0H35.83l5.215-14.219h3.223L49.521,0H45.84ZM41.133-5.3h3.057l-1.533-4.932Zm17.5,2.646h-4.7L53.115,0H49.453l5.215-14.219h3.223L63.145,0H59.463ZM54.756-5.3h3.057l-1.533-4.932Z" transform="translate(497.384 6185.147)" fill="#12263f"/>
    <path id="Trazado_908335" data-name="Trazado 908335" d="M4.5-4.824V0H1.074V-14.219H6.748a6.608,6.608,0,0,1,2.886.6,4.526,4.526,0,0,1,1.943,1.709,4.667,4.667,0,0,1,.688,2.515,4.114,4.114,0,0,1-1.489,3.325A6.179,6.179,0,0,1,6.689-4.824Zm0-2.646H6.748a2.118,2.118,0,0,0,1.519-.5,1.85,1.85,0,0,0,.522-1.406,2.287,2.287,0,0,0-.537-1.592,1.9,1.9,0,0,0-1.465-.605H4.5ZM23.047-5.664H17.52V0H14.092V-14.219H23.6v2.646H17.52V-8.3h5.527Zm13.34-5.908H32.119V0H28.691V-11.572H24.5v-2.646H36.387Z" transform="translate(733.52 6185.147)" fill="#12263f"/>
    <path id="Trazado_908336" data-name="Trazado 908336" d="M12.227-14.219v9.307a5.349,5.349,0,0,1-.674,2.739A4.365,4.365,0,0,1,9.619-.41,6.812,6.812,0,0,1,6.641.2,5.885,5.885,0,0,1,2.549-1.152,4.806,4.806,0,0,1,1.025-4.844v-9.375H4.473v9.443q.059,2.334,2.168,2.334a2.1,2.1,0,0,0,1.611-.586,2.739,2.739,0,0,0,.547-1.9v-9.287ZM23.32-5.664H17.793V0H14.365V-14.219h9.512v2.646H17.793V-8.3H23.32ZM28.955,0H25.537V-14.219h3.418Z" transform="translate(845.206 6185.147)" fill="#12263f"/>
    <path id="Trazado_908337" data-name="Trazado 908337" d="M4.5-4.824V0H1.074V-14.219H6.748a6.608,6.608,0,0,1,2.886.6,4.526,4.526,0,0,1,1.943,1.709,4.667,4.667,0,0,1,.688,2.515,4.114,4.114,0,0,1-1.489,3.325A6.179,6.179,0,0,1,6.689-4.824Zm0-2.646H6.748a2.118,2.118,0,0,0,1.519-.5,1.85,1.85,0,0,0,.522-1.406,2.287,2.287,0,0,0-.537-1.592,1.9,1.9,0,0,0-1.465-.605H4.5ZM23.047-5.664H17.52V0H14.092V-14.219H23.6v2.646H17.52V-8.3h5.527ZM28.682,0H25.264V-14.219h3.418ZM39.141-2.656h-4.7L33.623,0H29.961l5.215-14.219H38.4L43.652,0H39.971ZM35.264-5.3H38.32l-1.533-4.932Zm12.852.479V0H44.688V-14.219h5.674a6.608,6.608,0,0,1,2.886.6,4.526,4.526,0,0,1,1.943,1.709,4.667,4.667,0,0,1,.688,2.515A4.114,4.114,0,0,1,54.39-6.069,6.179,6.179,0,0,1,50.3-4.824Zm0-2.646h2.246a2.118,2.118,0,0,0,1.519-.5A1.85,1.85,0,0,0,52.4-9.375a2.287,2.287,0,0,0-.537-1.592,1.9,1.9,0,0,0-1.465-.605H48.115Z" transform="translate(933.491 6185.147)" fill="#12263f"/>
    <path id="Trazado_908338" data-name="Trazado 908338" d="M12.227-14.219v9.307a5.349,5.349,0,0,1-.674,2.739A4.365,4.365,0,0,1,9.619-.41,6.812,6.812,0,0,1,6.641.2,5.885,5.885,0,0,1,2.549-1.152,4.806,4.806,0,0,1,1.025-4.844v-9.375H4.473v9.443q.059,2.334,2.168,2.334a2.1,2.1,0,0,0,1.611-.586,2.739,2.739,0,0,0,.547-1.9v-9.287ZM23.32-5.664H17.793V0H14.365V-14.219h9.512v2.646H17.793V-8.3H23.32Zm13.34-5.908H32.393V0H28.965V-11.572H24.775v-2.646H36.66Z" transform="translate(1050.496 6185.147)" fill="#12263f"/>
  </g>
</svg>
