<?xml version="1.0" encoding="utf-8"?>
<!-- Generator: Adobe Illustrator 28.3.0, SVG Export Plug-In . SVG Version: 6.00 Build 0)  -->
<svg version="1.1" id="Capa_1" xmlns="http://www.w3.org/2000/svg" xmlns:xlink="http://www.w3.org/1999/xlink" x="0px" y="0px"
	 viewBox="0 0 1240 578.1" style="enable-background:new 0 0 1240 578.1;" xml:space="preserve">
<style type="text/css">
	.st0{fill:#FFFFFF;}
	.st1{fill:#265E92;}
	.st2{enable-background:new    ;}
	.st3{fill:#12263F;}
</style>
<g id="Rectángulo_403529">
	<rect x="0.4" y="0" class="st0" width="1238.6" height="576.3"/>
</g>
<g id="Rectángulo_403529_-_Contorno">
	<path class="st1" d="M1.4,1v574.3H1238V1H1.4 M0.4,0H1239v576.3H0.4V0z"/>
</g>
<g id="Línea_3985">
	<path class="st1" d="M523.5,576.7h-1V91.5h1V576.7z"/>
</g>
<g id="Línea_3986">
	<path class="st1" d="M343.7,576.7h-1V0h1V576.7z"/>
</g>
<g id="Línea_3987">
	<path class="st1" d="M1206.9,182.1H0.4v-1h1206.4V182.1z"/>
</g>
<g id="Línea_3989">
	<path class="st1" d="M702.5,576.3h-1V91h1V576.3z"/>
</g>
<g id="Línea_3990">
	<path class="st1" d="M1238.8,225.5H0.4v-1h1238.4V225.5z"/>
</g>
<g id="Línea_3991">
	<path class="st1" d="M1238.5,268.9H0v-1h1238.5V268.9z"/>
</g>
<g id="Línea_3992">
	<path class="st1" d="M91.7,576.7h-1V91.5h1V576.7z"/>
</g>
<g id="Línea_4002">
	<path class="st1" d="M184.7,576.7h-1V91.5h1V576.7z"/>
</g>
<g id="Línea_4006">
	<path class="st1" d="M613.7,576.3h-1V52.5h1V576.3z"/>
</g>
<g id="Línea_4007">
	<path class="st1" d="M792,576.3h-1V52.5h1V576.3z"/>
</g>
<g id="Línea_4009">
	<path class="st1" d="M1238.8,312.2H0.4v-1h1238.4V312.2z"/>
</g>
<g id="Línea_4010">
	<path class="st1" d="M1238.4,355.6H0v-1h1238.4V355.6z"/>
</g>
<g id="Línea_4011">
	<path class="st1" d="M1238.5,403.3H0.4v-1h1238.1V403.3z"/>
</g>
<g id="Línea_4012">
	<path class="st1" d="M1238.4,446.6H0v-1h1238.4V446.6z"/>
</g>
<g id="Línea_4013">
	<path class="st1" d="M1239,490H0.7v-1H1239V490z"/>
</g>
<g id="Línea_4014">
	<path class="st1" d="M1238.6,533.4H0.2v-1h1238.4V533.4z"/>
</g>
<g id="Línea_4017">
	<path class="st1" d="M433.5,91.5h-1V52.1h1V91.5z"/>
</g>
<g id="Trazado_879057">
	<path class="st1" d="M343.2,91.5H1v-1h342.2V91.5z"/>
</g>
<g id="Línea_4020">
	<path class="st1" d="M1238.5,52.6H0.9v-1h1237.6V52.6z"/>
</g>
<g id="Línea_4021">
	<path class="st1" d="M433.1,576.7h-1V91.4h1V576.7z"/>
</g>
<g class="st2">
	<path class="st3" d="M51.9,203.1c0,1.7-0.3,3-0.9,3.8s-1.5,1.2-2.7,1.2c-1.2,0-2.1-0.4-2.7-1.2c-0.6-0.8-0.9-2-0.9-3.6v-1.9
		c0-1.7,0.3-2.9,0.9-3.7s1.5-1.2,2.7-1.2c1.2,0,2.1,0.4,2.7,1.2s0.9,2,0.9,3.6V203.1z M50.5,201.1c0-1.2-0.2-2.1-0.5-2.7
		s-0.9-0.8-1.6-0.8c-0.7,0-1.3,0.3-1.6,0.8c-0.3,0.6-0.5,1.4-0.5,2.6v2.3c0,1.2,0.2,2.1,0.5,2.7c0.4,0.6,0.9,0.9,1.6,0.9
		c0.7,0,1.2-0.3,1.6-0.8c0.3-0.6,0.5-1.4,0.5-2.6V201.1z"/>
</g>
<g class="st2">
	<path class="st3" d="M49.5,251.3h-1.5v-9.6l-2.9,1.1v-1.3l4.1-1.6h0.2V251.3z"/>
</g>
<g class="st2">
	<path class="st3" d="M49.5,294h-1.5v-9.6l-2.9,1.1v-1.3l4.1-1.6h0.2V294z"/>
</g>
<g class="st2">
	<path class="st3" d="M52.2,337.4h-7.5v-1l3.9-4.4c0.6-0.7,1-1.2,1.2-1.6c0.2-0.4,0.3-0.8,0.3-1.3c0-0.6-0.2-1.1-0.5-1.5
		s-0.8-0.6-1.4-0.6c-0.7,0-1.3,0.2-1.7,0.6s-0.6,1-0.6,1.7h-1.4c0-1,0.3-1.9,1-2.5c0.7-0.6,1.6-1,2.7-1c1.1,0,1.9,0.3,2.5,0.8
		c0.6,0.6,0.9,1.3,0.9,2.2c0,1.1-0.7,2.5-2.1,4l-3,3.3h5.7V337.4z"/>
</g>
<g class="st2">
	<path class="st3" d="M46.9,375H48c0.7,0,1.2-0.2,1.6-0.5s0.6-0.8,0.6-1.4c0-1.3-0.7-2-2-2c-0.6,0-1.1,0.2-1.5,0.5
		c-0.4,0.4-0.6,0.8-0.6,1.4h-1.4c0-0.9,0.3-1.6,1-2.2c0.7-0.6,1.5-0.9,2.5-0.9c1.1,0,1.9,0.3,2.5,0.9s0.9,1.4,0.9,2.4
		c0,0.5-0.2,1-0.5,1.4s-0.8,0.8-1.3,1c0.6,0.2,1.1,0.5,1.4,1c0.3,0.5,0.5,1,0.5,1.7c0,1-0.3,1.8-1,2.4c-0.7,0.6-1.5,0.9-2.6,0.9
		c-1.1,0-1.9-0.3-2.6-0.9c-0.7-0.6-1-1.3-1-2.3H46c0,0.6,0.2,1.1,0.6,1.4s0.9,0.5,1.6,0.5c0.7,0,1.2-0.2,1.6-0.5
		c0.4-0.4,0.6-0.9,0.6-1.6c0-0.7-0.2-1.2-0.6-1.5s-1-0.5-1.8-0.5h-1.1V375z"/>
</g>
<g class="st2">
	<path class="st3" d="M50.9,468.6h1.6v1.2h-1.6v2.6h-1.5v-2.6h-5.2V469l5.1-7.9h1.5V468.6z M45.9,468.6h3.5v-5.6l-0.2,0.3
		L45.9,468.6z"/>
</g>
<g class="st2">
	<path class="st3" d="M46.9,422.7H48c0.7,0,1.2-0.2,1.6-0.5s0.6-0.8,0.6-1.4c0-1.3-0.7-2-2-2c-0.6,0-1.1,0.2-1.5,0.5
		c-0.4,0.4-0.6,0.8-0.6,1.4h-1.4c0-0.9,0.3-1.6,1-2.2c0.7-0.6,1.5-0.9,2.5-0.9c1.1,0,1.9,0.3,2.5,0.9s0.9,1.4,0.9,2.4
		c0,0.5-0.2,1-0.5,1.4s-0.8,0.8-1.3,1c0.6,0.2,1.1,0.5,1.4,1c0.3,0.5,0.5,1,0.5,1.7c0,1-0.3,1.8-1,2.4c-0.7,0.6-1.5,0.9-2.6,0.9
		c-1.1,0-1.9-0.3-2.6-0.9c-0.7-0.6-1-1.3-1-2.3H46c0,0.6,0.2,1.1,0.6,1.4s0.9,0.5,1.6,0.5c0.7,0,1.2-0.2,1.6-0.5
		c0.4-0.4,0.6-0.9,0.6-1.6c0-0.7-0.2-1.2-0.6-1.5s-1-0.5-1.8-0.5h-1.1V422.7z"/>
</g>
<g class="st2">
	<path class="st3" d="M45.4,510.1l0.6-5.7h5.8v1.3h-4.6l-0.3,3.1c0.6-0.3,1.2-0.5,1.9-0.5c1,0,1.9,0.3,2.5,1s0.9,1.6,0.9,2.8
		c0,1.2-0.3,2.1-0.9,2.8s-1.5,1-2.7,1c-1,0-1.8-0.3-2.5-0.8c-0.6-0.6-1-1.3-1.1-2.3h1.4c0.1,0.7,0.3,1.1,0.7,1.5s0.9,0.5,1.5,0.5
		c0.7,0,1.2-0.2,1.6-0.7s0.6-1.1,0.6-1.9c0-0.8-0.2-1.4-0.6-1.8s-1-0.7-1.7-0.7c-0.6,0-1.1,0.1-1.5,0.4l-0.4,0.3L45.4,510.1z"/>
</g>
<g class="st2">
	<path class="st3" d="M50.4,551.4v1.2h-0.3c-1.1,0-2,0.4-2.7,1c-0.7,0.6-1.1,1.6-1.2,2.7c0.6-0.7,1.4-1,2.5-1c1,0,1.8,0.3,2.4,1
		c0.6,0.7,0.9,1.6,0.9,2.7c0,1.2-0.3,2.1-1,2.8c-0.6,0.7-1.5,1.1-2.6,1.1c-1.1,0-2-0.4-2.6-1.3c-0.7-0.8-1-1.9-1-3.2v-0.6
		c0-2.1,0.4-3.7,1.3-4.8c0.9-1.1,2.2-1.7,4-1.7H50.4z M48.5,556.6c-0.5,0-1,0.1-1.4,0.4c-0.4,0.3-0.7,0.7-0.9,1.1v0.5
		c0,0.9,0.2,1.7,0.6,2.3s0.9,0.9,1.6,0.9c0.7,0,1.2-0.2,1.5-0.7c0.4-0.5,0.6-1.1,0.6-1.9c0-0.8-0.2-1.4-0.6-1.9
		C49.7,556.8,49.2,556.6,48.5,556.6z"/>
</g>
<g id="Línea_4022">
	<path class="st1" d="M1239.6,182.1H89v-1h1150.5V182.1z"/>
</g>
<g class="st2">
	<path class="st3" d="M138.1,207.9h-1.5v-9.6l-2.9,1.1v-1.3l4.1-1.6h0.2V207.9z"/>
</g>
<g class="st2">
	<path class="st3" d="M140.8,251.3h-7.5v-1l3.9-4.4c0.6-0.7,1-1.2,1.2-1.6c0.2-0.4,0.3-0.8,0.3-1.3c0-0.6-0.2-1.1-0.5-1.5
		s-0.8-0.6-1.4-0.6c-0.7,0-1.3,0.2-1.7,0.6s-0.6,1-0.6,1.7h-1.4c0-1,0.3-1.9,1-2.5c0.7-0.6,1.6-1,2.7-1c1.1,0,1.9,0.3,2.5,0.8
		c0.6,0.6,0.9,1.3,0.9,2.2c0,1.1-0.7,2.5-2.1,4l-3,3.3h5.7V251.3z"/>
</g>
<g class="st2">
	<path class="st3" d="M135.5,287.6h1.1c0.7,0,1.2-0.2,1.6-0.5s0.6-0.8,0.6-1.4c0-1.3-0.7-2-2-2c-0.6,0-1.1,0.2-1.5,0.5
		c-0.4,0.4-0.6,0.8-0.6,1.4h-1.4c0-0.9,0.3-1.6,1-2.2c0.7-0.6,1.5-0.9,2.5-0.9c1.1,0,1.9,0.3,2.5,0.9s0.9,1.4,0.9,2.4
		c0,0.5-0.2,1-0.5,1.4s-0.8,0.8-1.3,1c0.6,0.2,1.1,0.5,1.4,1c0.3,0.5,0.5,1,0.5,1.7c0,1-0.3,1.8-1,2.4c-0.7,0.6-1.5,0.9-2.6,0.9
		c-1.1,0-1.9-0.3-2.6-0.9c-0.7-0.6-1-1.3-1-2.3h1.5c0,0.6,0.2,1.1,0.6,1.4s0.9,0.5,1.6,0.5c0.7,0,1.2-0.2,1.6-0.5
		c0.4-0.4,0.6-0.9,0.6-1.6c0-0.7-0.2-1.2-0.6-1.5s-1-0.5-1.8-0.5h-1.1V287.6z"/>
</g>
<g class="st2">
	<path class="st3" d="M139.5,333.5h1.6v1.2h-1.6v2.6H138v-2.6h-5.2v-0.9l5.1-7.9h1.5V333.5z M134.5,333.5h3.5V328l-0.2,0.3
		L134.5,333.5z"/>
</g>
<g class="st2">
	<path class="st3" d="M139,370v1.2h-0.3c-1.1,0-2,0.4-2.7,1c-0.7,0.6-1.1,1.6-1.2,2.7c0.6-0.7,1.4-1,2.5-1c1,0,1.8,0.3,2.4,1
		c0.6,0.7,0.9,1.6,0.9,2.7c0,1.2-0.3,2.1-1,2.8c-0.6,0.7-1.5,1.1-2.6,1.1c-1.1,0-2-0.4-2.6-1.3c-0.7-0.8-1-1.9-1-3.2v-0.6
		c0-2.1,0.4-3.7,1.3-4.8c0.9-1.1,2.2-1.7,4-1.7H139z M137.1,375.2c-0.5,0-1,0.1-1.4,0.4c-0.4,0.3-0.7,0.7-0.9,1.1v0.5
		c0,0.9,0.2,1.7,0.6,2.3s0.9,0.9,1.6,0.9c0.7,0,1.2-0.2,1.5-0.7c0.4-0.5,0.6-1.1,0.6-1.9c0-0.8-0.2-1.4-0.6-1.9
		C138.3,375.4,137.8,375.2,137.1,375.2z"/>
</g>
<g class="st2">
	<path class="st3" d="M134,466.8l0.6-5.7h5.8v1.3h-4.6l-0.3,3.1c0.6-0.3,1.2-0.5,1.9-0.5c1,0,1.9,0.3,2.5,1s0.9,1.6,0.9,2.8
		c0,1.2-0.3,2.1-0.9,2.8s-1.5,1-2.7,1c-1,0-1.8-0.3-2.5-0.8c-0.6-0.6-1-1.3-1.1-2.3h1.4c0.1,0.7,0.3,1.1,0.7,1.5s0.9,0.5,1.5,0.5
		c0.7,0,1.2-0.2,1.6-0.7s0.6-1.1,0.6-1.9c0-0.8-0.2-1.4-0.6-1.8s-1-0.7-1.7-0.7c-0.6,0-1.1,0.1-1.5,0.4l-0.4,0.3L134,466.8z"/>
</g>
<g class="st2">
	<path class="st3" d="M139.5,425.3h1.6v1.2h-1.6v2.6H138v-2.6h-5.2v-0.9l5.1-7.9h1.5V425.3z M134.5,425.3h3.5v-5.6l-0.2,0.3
		L134.5,425.3z"/>
</g>
<g class="st2">
	<path class="st3" d="M139,504.4v1.2h-0.3c-1.1,0-2,0.4-2.7,1c-0.7,0.6-1.1,1.6-1.2,2.7c0.6-0.7,1.4-1,2.5-1c1,0,1.8,0.3,2.4,1
		c0.6,0.7,0.9,1.6,0.9,2.7c0,1.2-0.3,2.1-1,2.8c-0.6,0.7-1.5,1.1-2.6,1.1c-1.1,0-2-0.4-2.6-1.3c-0.7-0.8-1-1.9-1-3.2v-0.6
		c0-2.1,0.4-3.7,1.3-4.8c0.9-1.1,2.2-1.7,4-1.7H139z M137.1,509.6c-0.5,0-1,0.1-1.4,0.4c-0.4,0.3-0.7,0.7-0.9,1.1v0.5
		c0,0.9,0.2,1.7,0.6,2.3s0.9,0.9,1.6,0.9c0.7,0,1.2-0.2,1.5-0.7c0.4-0.5,0.6-1.1,0.6-1.9c0-0.8-0.2-1.4-0.6-1.9
		C138.3,509.8,137.8,509.6,137.1,509.6z"/>
</g>
<g class="st2">
	<path class="st3" d="M140.7,552.2l-4.7,10.6h-1.5l4.7-10.2H133v-1.2h7.7V552.2z"/>
</g>
<g id="Trazado_879069">
	<path class="st1" d="M1240,182.1H213.6v-1H1240V182.1z"/>
</g>
<g class="st2">
	<path class="st3" d="M263.8,205h-4.8l-1.1,3h-1.5l4.3-11.4h1.3l4.4,11.4h-1.5L263.8,205z M259.5,203.7h3.9l-1.9-5.3L259.5,203.7z"
		/>
</g>
<g class="st2">
	<path class="st3" d="M257.8,251.3v-11.4h3.7c1.2,0,2.2,0.3,2.8,0.8c0.6,0.5,0.9,1.3,0.9,2.3c0,0.5-0.2,1-0.5,1.4
		c-0.3,0.4-0.7,0.7-1.2,0.9c0.6,0.2,1.1,0.5,1.5,1c0.4,0.5,0.5,1.1,0.5,1.7c0,1-0.3,1.8-1,2.4c-0.7,0.6-1.6,0.9-2.8,0.9H257.8z
		 M259.3,244.8h2.3c0.7,0,1.2-0.2,1.6-0.5c0.4-0.3,0.6-0.8,0.6-1.3c0-0.6-0.2-1.1-0.5-1.4c-0.4-0.3-0.9-0.4-1.7-0.4h-2.2V244.8z
		 M259.3,246v4.1h2.5c0.7,0,1.2-0.2,1.7-0.5c0.4-0.4,0.6-0.9,0.6-1.5c0-1.4-0.7-2.1-2.2-2.1H259.3z"/>
</g>
<g class="st2">
	<path class="st3" d="M265.9,290.4c-0.1,1.2-0.6,2.1-1.3,2.8c-0.7,0.7-1.7,1-3,1c-1.3,0-2.4-0.5-3.2-1.4c-0.8-1-1.2-2.3-1.2-3.9
		v-1.1c0-1.1,0.2-2,0.6-2.8c0.4-0.8,0.9-1.4,1.6-1.8c0.7-0.4,1.5-0.6,2.4-0.6c1.2,0,2.2,0.3,2.9,1c0.7,0.7,1.2,1.6,1.3,2.8h-1.5
		c-0.1-0.9-0.4-1.6-0.8-2c-0.4-0.4-1-0.6-1.8-0.6c-1,0-1.7,0.4-2.3,1.1c-0.5,0.7-0.8,1.7-0.8,3v1.1c0,1.2,0.3,2.2,0.8,2.9
		c0.5,0.7,1.2,1.1,2.2,1.1c0.8,0,1.5-0.2,1.9-0.6c0.4-0.4,0.7-1,0.9-2H265.9z"/>
</g>
<g class="st2">
	<path class="st3" d="M257.5,337.4V326h3.2c1,0,1.9,0.2,2.6,0.7c0.8,0.4,1.3,1.1,1.8,1.9s0.6,1.7,0.6,2.8v0.7c0,1.1-0.2,2-0.6,2.8
		s-1,1.4-1.8,1.9c-0.8,0.4-1.7,0.7-2.7,0.7H257.5z M259,327.2v8.9h1.6c1.2,0,2.1-0.4,2.7-1.1c0.6-0.7,1-1.7,1-3.1v-0.7
		c0-1.3-0.3-2.3-0.9-3c-0.6-0.7-1.5-1.1-2.6-1.1H259z"/>
</g>
<g class="st2">
	<path class="st3" d="M264.6,376.2h-4.9v4h5.7v1.2h-7.2V370h7.1v1.2h-5.6v3.7h4.9V376.2z"/>
</g>
<g class="st2">
	<path class="st3" d="M265.7,471c-0.4,0.6-0.9,1-1.6,1.2c-0.7,0.3-1.5,0.4-2.4,0.4c-0.9,0-1.8-0.2-2.5-0.7s-1.3-1.1-1.7-1.9
		c-0.4-0.8-0.6-1.7-0.6-2.8v-1c0-1.7,0.4-3,1.2-4c0.8-0.9,1.9-1.4,3.4-1.4c1.2,0,2.1,0.3,2.9,0.9c0.7,0.6,1.2,1.5,1.3,2.6h-1.5
		c-0.3-1.5-1.2-2.3-2.7-2.3c-1,0-1.8,0.4-2.3,1.1c-0.5,0.7-0.8,1.7-0.8,3.1v0.9c0,1.3,0.3,2.3,0.9,3c0.6,0.8,1.4,1.1,2.4,1.1
		c0.6,0,1.1-0.1,1.5-0.2c0.4-0.1,0.8-0.3,1-0.6V468h-2.6v-1.2h4.1V471z"/>
</g>
<g class="st2">
	<path class="st3" d="M264.6,424.1h-4.8v5h-1.5v-11.4h7v1.2h-5.5v3.9h4.8V424.1z"/>
</g>
<g class="st2">
	<path class="st3" d="M265.8,515.8h-1.5v-5.3h-5.7v5.3h-1.5v-11.4h1.5v4.9h5.7v-4.9h1.5V515.8z"/>
</g>
<g class="st2">
	<path class="st3" d="M262.2,562.8h-1.5v-11.4h1.5V562.8z"/>
</g>
<g id="Línea_4024">
	<path class="st1" d="M880.8,576.3h-1V91h1V576.3z"/>
</g>
<g id="Línea_4025">
	<path class="st1" d="M969.5,576.3h-1V91h1V576.3z"/>
</g>
<g id="Línea_4026">
	<path class="st1" d="M1059.8,578.1h-1V52.5h1V578.1z"/>
</g>
<g id="Línea_4027">
	<path class="st1" d="M1149.1,576.3h-1V52.5h1V576.3z"/>
</g>
<g class="st2">
	<path class="st3" d="M388.7,204.1h1.6v1.2h-1.6v2.6h-1.5v-2.6H382v-0.9l5.1-7.9h1.5V204.1z M383.7,204.1h3.5v-5.6l-0.2,0.3
		L383.7,204.1z"/>
</g>
<g class="st2">
	<path class="st3" d="M390,251.3h-7.5v-1l3.9-4.4c0.6-0.7,1-1.2,1.2-1.6c0.2-0.4,0.3-0.8,0.3-1.3c0-0.6-0.2-1.1-0.5-1.5
		s-0.8-0.6-1.4-0.6c-0.7,0-1.3,0.2-1.7,0.6s-0.6,1-0.6,1.7h-1.4c0-1,0.3-1.9,1-2.5c0.7-0.6,1.6-1,2.7-1c1.1,0,1.9,0.3,2.5,0.8
		c0.6,0.6,0.9,1.3,0.9,2.2c0,1.1-0.7,2.5-2.1,4l-3,3.3h5.7V251.3z"/>
</g>
<g class="st2">
	<path class="st3" d="M384.7,287.6h1.1c0.7,0,1.2-0.2,1.6-0.5s0.6-0.8,0.6-1.4c0-1.3-0.7-2-2-2c-0.6,0-1.1,0.2-1.5,0.5
		c-0.4,0.4-0.6,0.8-0.6,1.4h-1.4c0-0.9,0.3-1.6,1-2.2c0.7-0.6,1.5-0.9,2.5-0.9c1.1,0,1.9,0.3,2.5,0.9s0.9,1.4,0.9,2.4
		c0,0.5-0.2,1-0.5,1.4s-0.8,0.8-1.3,1c0.6,0.2,1.1,0.5,1.4,1c0.3,0.5,0.5,1,0.5,1.7c0,1-0.3,1.8-1,2.4c-0.7,0.6-1.5,0.9-2.6,0.9
		c-1.1,0-1.9-0.3-2.6-0.9c-0.7-0.6-1-1.3-1-2.3h1.5c0,0.6,0.2,1.1,0.6,1.4s0.9,0.5,1.6,0.5c0.7,0,1.2-0.2,1.6-0.5
		c0.4-0.4,0.6-0.9,0.6-1.6c0-0.7-0.2-1.2-0.6-1.5s-1-0.5-1.8-0.5h-1.1V287.6z"/>
</g>
<g class="st2">
	<path class="st3" d="M390,337.4h-7.5v-1l3.9-4.4c0.6-0.7,1-1.2,1.2-1.6c0.2-0.4,0.3-0.8,0.3-1.3c0-0.6-0.2-1.1-0.5-1.5
		s-0.8-0.6-1.4-0.6c-0.7,0-1.3,0.2-1.7,0.6s-0.6,1-0.6,1.7h-1.4c0-1,0.3-1.9,1-2.5c0.7-0.6,1.6-1,2.7-1c1.1,0,1.9,0.3,2.5,0.8
		c0.6,0.6,0.9,1.3,0.9,2.2c0,1.1-0.7,2.5-2.1,4l-3,3.3h5.7V337.4z"/>
</g>
<g class="st2">
	<path class="st3" d="M390,381.4h-7.5v-1l3.9-4.4c0.6-0.7,1-1.2,1.2-1.6c0.2-0.4,0.3-0.8,0.3-1.3c0-0.6-0.2-1.1-0.5-1.5
		s-0.8-0.6-1.4-0.6c-0.7,0-1.3,0.2-1.7,0.6s-0.6,1-0.6,1.7h-1.4c0-1,0.3-1.9,1-2.5c0.7-0.6,1.6-1,2.7-1c1.1,0,1.9,0.3,2.5,0.8
		c0.6,0.6,0.9,1.3,0.9,2.2c0,1.1-0.7,2.5-2.1,4l-3,3.3h5.7V381.4z"/>
</g>
<g class="st2">
	<path class="st3" d="M384.7,466.1h1.1c0.7,0,1.2-0.2,1.6-0.5s0.6-0.8,0.6-1.4c0-1.3-0.7-2-2-2c-0.6,0-1.1,0.2-1.5,0.5
		c-0.4,0.4-0.6,0.8-0.6,1.4h-1.4c0-0.9,0.3-1.6,1-2.2c0.7-0.6,1.5-0.9,2.5-0.9c1.1,0,1.9,0.3,2.5,0.9s0.9,1.4,0.9,2.4
		c0,0.5-0.2,1-0.5,1.4s-0.8,0.8-1.3,1c0.6,0.2,1.1,0.5,1.4,1c0.3,0.5,0.5,1,0.5,1.7c0,1-0.3,1.8-1,2.4c-0.7,0.6-1.5,0.9-2.6,0.9
		c-1.1,0-1.9-0.3-2.6-0.9c-0.7-0.6-1-1.3-1-2.3h1.5c0,0.6,0.2,1.1,0.6,1.4s0.9,0.5,1.6,0.5c0.7,0,1.2-0.2,1.6-0.5
		c0.4-0.4,0.6-0.9,0.6-1.6c0-0.7-0.2-1.2-0.6-1.5s-1-0.5-1.8-0.5h-1.1V466.1z"/>
</g>
<g class="st2">
	<path class="st3" d="M388.7,425.3h1.6v1.2h-1.6v2.6h-1.5v-2.6H382v-0.9l5.1-7.9h1.5V425.3z M383.7,425.3h3.5v-5.6L387,420
		L383.7,425.3z"/>
</g>
<g class="st2">
	<path class="st3" d="M387.3,515.8h-1.5v-9.6l-2.9,1.1V506l4.1-1.6h0.2V515.8z"/>
</g>
<g class="st2">
	<path class="st3" d="M387.3,562.8h-1.5v-9.6l-2.9,1.1v-1.3l4.1-1.6h0.2V562.8z"/>
</g>
<g class="st2">
	<path class="st3" d="M479.1,203.1c0,1.7-0.3,3-0.9,3.8s-1.5,1.2-2.7,1.2c-1.2,0-2.1-0.4-2.7-1.2c-0.6-0.8-0.9-2-0.9-3.6v-1.9
		c0-1.7,0.3-2.9,0.9-3.7s1.5-1.2,2.7-1.2c1.2,0,2.1,0.4,2.7,1.2s0.9,2,0.9,3.6V203.1z M477.7,201.1c0-1.2-0.2-2.1-0.5-2.7
		s-0.9-0.8-1.6-0.8c-0.7,0-1.3,0.3-1.6,0.8c-0.3,0.6-0.5,1.4-0.5,2.6v2.3c0,1.2,0.2,2.1,0.5,2.7c0.4,0.6,0.9,0.9,1.6,0.9
		c0.7,0,1.2-0.3,1.6-0.8c0.3-0.6,0.5-1.4,0.5-2.6V201.1z"/>
</g>
<g class="st2">
	<path class="st3" d="M478.1,247.5h1.6v1.2h-1.6v2.6h-1.5v-2.6h-5.2v-0.9l5.1-7.9h1.5V247.5z M473.1,247.5h3.5v-5.6l-0.2,0.3
		L473.1,247.5z"/>
</g>
<g class="st2">
	<path class="st3" d="M478.1,290.2h1.6v1.2h-1.6v2.6h-1.5v-2.6h-5.2v-0.9l5.1-7.9h1.5V290.2z M473.1,290.2h3.5v-5.6l-0.2,0.3
		L473.1,290.2z"/>
</g>
<g class="st2">
	<path class="st3" d="M477.6,326v1.2h-0.3c-1.1,0-2,0.4-2.7,1c-0.7,0.6-1.1,1.6-1.2,2.7c0.6-0.7,1.4-1,2.5-1c1,0,1.8,0.3,2.4,1
		c0.6,0.7,0.9,1.6,0.9,2.7c0,1.2-0.3,2.1-1,2.8c-0.6,0.7-1.5,1.1-2.6,1.1c-1.1,0-2-0.4-2.6-1.3c-0.7-0.8-1-1.9-1-3.2v-0.6
		c0-2.1,0.4-3.7,1.3-4.8c0.9-1.1,2.2-1.7,4-1.7H477.6z M475.7,331.1c-0.5,0-1,0.1-1.4,0.4c-0.4,0.3-0.7,0.7-0.9,1.1v0.5
		c0,0.9,0.2,1.7,0.6,2.3s0.9,0.9,1.6,0.9c0.7,0,1.2-0.2,1.5-0.7c0.4-0.5,0.6-1.1,0.6-1.9c0-0.8-0.2-1.4-0.6-1.9
		C476.9,331.3,476.4,331.1,475.7,331.1z"/>
</g>
<g class="st2">
	<path class="st3" d="M479.3,370.9l-4.7,10.6h-1.5l4.7-10.2h-6.2V370h7.7V370.9z"/>
</g>
<g class="st2">
	<path class="st3" d="M477.5,467.5c-0.3,0.4-0.7,0.6-1.1,0.9c-0.4,0.2-0.9,0.3-1.4,0.3c-0.7,0-1.2-0.2-1.7-0.5
		c-0.5-0.3-0.9-0.8-1.1-1.4s-0.4-1.2-0.4-1.9c0-0.8,0.1-1.4,0.4-2.1s0.7-1.1,1.2-1.4s1.2-0.5,1.9-0.5c1.1,0,2,0.4,2.7,1.3s1,2,1,3.4
		v0.4c0,2.2-0.4,3.8-1.3,4.8s-2.2,1.5-4,1.6h-0.3v-1.2h0.3c1.2,0,2.1-0.3,2.8-0.9S477.5,468.8,477.5,467.5z M475.3,467.5
		c0.5,0,0.9-0.1,1.3-0.4c0.4-0.3,0.7-0.7,0.9-1.1v-0.6c0-0.9-0.2-1.7-0.6-2.3c-0.4-0.6-0.9-0.9-1.6-0.9c-0.6,0-1.1,0.2-1.5,0.7
		c-0.4,0.5-0.6,1.1-0.6,1.9c0,0.8,0.2,1.4,0.6,1.9C474.2,467.2,474.7,467.5,475.3,467.5z"/>
</g>
<g class="st2">
	<path class="st3" d="M479.3,418.5l-4.7,10.6h-1.5l4.7-10.2h-6.2v-1.2h7.7V418.5z"/>
</g>
<g class="st2">
	<path class="st3" d="M472.2,515.8h-1.5v-9.6l-2.9,1.1V506l4.1-1.6h0.2V515.8z"/>
	<path class="st3" d="M483.9,515.8h-7.5v-1l3.9-4.4c0.6-0.7,1-1.2,1.2-1.6c0.2-0.4,0.3-0.8,0.3-1.3c0-0.6-0.2-1.1-0.5-1.5
		s-0.8-0.6-1.4-0.6c-0.7,0-1.3,0.2-1.7,0.6s-0.6,1-0.6,1.7h-1.4c0-1,0.3-1.9,1-2.5c0.7-0.6,1.6-1,2.7-1c1.1,0,1.9,0.3,2.5,0.8
		c0.6,0.6,0.9,1.3,0.9,2.2c0,1.1-0.7,2.5-2.1,4l-3,3.3h5.7V515.8z"/>
</g>
<g class="st2">
	<path class="st3" d="M472.2,562.8h-1.5v-9.6l-2.9,1.1v-1.3l4.1-1.6h0.2V562.8z"/>
	<path class="st3" d="M478.6,556.4h1.1c0.7,0,1.2-0.2,1.6-0.5s0.6-0.8,0.6-1.4c0-1.3-0.7-2-2-2c-0.6,0-1.1,0.2-1.5,0.5
		c-0.4,0.4-0.6,0.8-0.6,1.4h-1.4c0-0.9,0.3-1.6,1-2.2c0.7-0.6,1.5-0.9,2.5-0.9c1.1,0,1.9,0.3,2.5,0.9s0.9,1.4,0.9,2.4
		c0,0.5-0.2,1-0.5,1.4s-0.8,0.8-1.3,1c0.6,0.2,1.1,0.5,1.4,1c0.3,0.5,0.5,1,0.5,1.7c0,1-0.3,1.8-1,2.4c-0.7,0.6-1.5,0.9-2.6,0.9
		c-1.1,0-1.9-0.3-2.6-0.9c-0.7-0.6-1-1.3-1-2.3h1.5c0,0.6,0.2,1.1,0.6,1.4s0.9,0.5,1.6,0.5c0.7,0,1.2-0.2,1.6-0.5
		c0.4-0.4,0.6-0.9,0.6-1.6c0-0.7-0.2-1.2-0.6-1.5s-1-0.5-1.8-0.5h-1.1V556.4z"/>
</g>
<g class="st2">
	<path class="st3" d="M568.4,204.1h1.6v1.2h-1.6v2.6H567v-2.6h-5.2v-0.9l5.1-7.9h1.5V204.1z M563.4,204.1h3.5v-5.6l-0.2,0.3
		L563.4,204.1z"/>
</g>
<g class="st2">
	<path class="st3" d="M568,239.9v1.2h-0.3c-1.1,0-2,0.4-2.7,1c-0.7,0.6-1.1,1.6-1.2,2.7c0.6-0.7,1.4-1,2.5-1c1,0,1.8,0.3,2.4,1
		c0.6,0.7,0.9,1.6,0.9,2.7c0,1.2-0.3,2.1-1,2.8c-0.6,0.7-1.5,1.1-2.6,1.1c-1.1,0-2-0.4-2.6-1.3c-0.7-0.8-1-1.9-1-3.2v-0.6
		c0-2.1,0.4-3.7,1.3-4.8c0.9-1.1,2.2-1.7,4-1.7H568z M566.1,245c-0.5,0-1,0.1-1.4,0.4c-0.4,0.3-0.7,0.7-0.9,1.1v0.5
		c0,0.9,0.2,1.7,0.6,2.3s0.9,0.9,1.6,0.9c0.7,0,1.2-0.2,1.5-0.7c0.4-0.5,0.6-1.1,0.6-1.9c0-0.8-0.2-1.4-0.6-1.9
		C567.2,245.3,566.7,245,566.1,245z"/>
</g>
<g class="st2">
	<path class="st3" d="M569.6,283.4l-4.7,10.6h-1.5l4.7-10.2H562v-1.2h7.7V283.4z"/>
</g>
<g class="st2">
	<path class="st3" d="M569.2,328.9c0,0.6-0.1,1.1-0.4,1.5c-0.3,0.4-0.7,0.8-1.2,1c0.6,0.3,1.1,0.6,1.4,1.1c0.3,0.5,0.5,1,0.5,1.7
		c0,1-0.3,1.8-1,2.4s-1.5,0.9-2.6,0.9c-1.1,0-2-0.3-2.6-0.9c-0.7-0.6-1-1.4-1-2.3c0-0.6,0.2-1.2,0.5-1.7s0.8-0.9,1.4-1.1
		c-0.5-0.2-0.9-0.6-1.2-1c-0.3-0.4-0.4-0.9-0.4-1.5c0-1,0.3-1.7,0.9-2.3c0.6-0.6,1.4-0.8,2.4-0.8c1,0,1.8,0.3,2.4,0.8
		S569.2,328,569.2,328.9z M568,334.2c0-0.6-0.2-1.2-0.6-1.6c-0.4-0.4-0.9-0.6-1.6-0.6c-0.7,0-1.2,0.2-1.6,0.6
		c-0.4,0.4-0.6,0.9-0.6,1.6s0.2,1.2,0.6,1.5s0.9,0.6,1.6,0.6c0.7,0,1.2-0.2,1.6-0.6C567.8,335.4,568,334.9,568,334.2z M565.9,327
		c-0.6,0-1,0.2-1.4,0.5s-0.5,0.8-0.5,1.4c0,0.6,0.2,1,0.5,1.4c0.3,0.4,0.8,0.5,1.4,0.5s1-0.2,1.4-0.5c0.3-0.4,0.5-0.8,0.5-1.4
		s-0.2-1-0.5-1.4S566.4,327,565.9,327z"/>
</g>
<g class="st2">
	<path class="st3" d="M567.8,376.4c-0.3,0.4-0.7,0.6-1.1,0.9c-0.4,0.2-0.9,0.3-1.4,0.3c-0.7,0-1.2-0.2-1.7-0.5
		c-0.5-0.3-0.9-0.8-1.1-1.4s-0.4-1.2-0.4-1.9c0-0.8,0.1-1.4,0.4-2.1s0.7-1.1,1.2-1.4s1.2-0.5,1.9-0.5c1.1,0,2,0.4,2.7,1.3s1,2,1,3.4
		v0.4c0,2.2-0.4,3.8-1.3,4.8s-2.2,1.5-4,1.6h-0.3v-1.2h0.3c1.2,0,2.1-0.3,2.8-0.9S567.8,377.7,567.8,376.4z M565.6,376.4
		c0.5,0,0.9-0.1,1.3-0.4c0.4-0.3,0.7-0.7,0.9-1.1v-0.6c0-0.9-0.2-1.7-0.6-2.3c-0.4-0.6-0.9-0.9-1.6-0.9c-0.6,0-1.1,0.2-1.5,0.7
		c-0.4,0.5-0.6,1.1-0.6,1.9c0,0.8,0.2,1.4,0.6,1.9C564.5,376.2,565,376.4,565.6,376.4z"/>
</g>
<g class="st2">
	<path class="st3" d="M562.6,472.5h-1.5v-9.6l-2.9,1.1v-1.3l4.1-1.6h0.2V472.5z"/>
	<path class="st3" d="M568.9,466.1h1.1c0.7,0,1.2-0.2,1.6-0.5s0.6-0.8,0.6-1.4c0-1.3-0.7-2-2-2c-0.6,0-1.1,0.2-1.5,0.5
		c-0.4,0.4-0.6,0.8-0.6,1.4h-1.4c0-0.9,0.3-1.6,1-2.2c0.7-0.6,1.5-0.9,2.5-0.9c1.1,0,1.9,0.3,2.5,0.9s0.9,1.4,0.9,2.4
		c0,0.5-0.2,1-0.5,1.4s-0.8,0.8-1.3,1c0.6,0.2,1.1,0.5,1.4,1c0.3,0.5,0.5,1,0.5,1.7c0,1-0.3,1.8-1,2.4c-0.7,0.6-1.5,0.9-2.6,0.9
		c-1.1,0-1.9-0.3-2.6-0.9c-0.7-0.6-1-1.3-1-2.3h1.5c0,0.6,0.2,1.1,0.6,1.4s0.9,0.5,1.6,0.5c0.7,0,1.2-0.2,1.6-0.5
		c0.4-0.4,0.6-0.9,0.6-1.6c0-0.7-0.2-1.2-0.6-1.5s-1-0.5-1.8-0.5h-1.1V466.1z"/>
</g>
<g class="st2">
	<path class="st3" d="M562.6,429.1h-1.5v-9.6l-2.9,1.1v-1.3l4.1-1.6h0.2V429.1z"/>
	<path class="st3" d="M571.5,429.1h-1.5v-9.6l-2.9,1.1v-1.3l4.1-1.6h0.2V429.1z"/>
</g>
<g class="st2">
	<path class="st3" d="M562.6,515.8h-1.5v-9.6l-2.9,1.1V506l4.1-1.6h0.2V515.8z"/>
	<path class="st3" d="M572.9,512h1.6v1.2h-1.6v2.6h-1.5v-2.6h-5.2v-0.9l5.1-7.9h1.5V512z M567.9,512h3.5v-5.6l-0.2,0.3L567.9,512z"
		/>
</g>
<g class="st2">
	<path class="st3" d="M562.6,562.8h-1.5v-9.6l-2.9,1.1v-1.3l4.1-1.6h0.2V562.8z"/>
	<path class="st3" d="M572.9,559h1.6v1.2h-1.6v2.6h-1.5v-2.6h-5.2v-0.9l5.1-7.9h1.5V559z M567.9,559h3.5v-5.6l-0.2,0.3L567.9,559z"
		/>
</g>
<g class="st2">
	<path class="st3" d="M659.7,203.1c0,1.7-0.3,3-0.9,3.8s-1.5,1.2-2.7,1.2c-1.2,0-2.1-0.4-2.7-1.2s-0.9-2-0.9-3.6v-1.9
		c0-1.7,0.3-2.9,0.9-3.7s1.5-1.2,2.7-1.2c1.2,0,2.1,0.4,2.7,1.2s0.9,2,0.9,3.6V203.1z M658.2,201.1c0-1.2-0.2-2.1-0.5-2.7
		s-0.9-0.8-1.6-0.8c-0.7,0-1.3,0.3-1.6,0.8s-0.5,1.4-0.5,2.6v2.3c0,1.2,0.2,2.1,0.5,2.7s0.9,0.9,1.6,0.9c0.7,0,1.2-0.3,1.6-0.8
		s0.5-1.4,0.5-2.6V201.1z"/>
</g>
<g class="st2">
	<path class="st3" d="M653.2,245.6l0.6-5.7h5.8v1.3H655l-0.3,3.1c0.6-0.3,1.2-0.5,1.9-0.5c1,0,1.9,0.3,2.5,1s0.9,1.6,0.9,2.8
		c0,1.2-0.3,2.1-0.9,2.8s-1.5,1-2.7,1c-1,0-1.8-0.3-2.5-0.8s-1-1.3-1.1-2.3h1.4c0.1,0.7,0.3,1.1,0.7,1.5s0.9,0.5,1.5,0.5
		c0.7,0,1.2-0.2,1.6-0.7s0.6-1.1,0.6-1.9c0-0.8-0.2-1.4-0.6-1.8s-1-0.7-1.7-0.7c-0.6,0-1.1,0.1-1.5,0.4l-0.4,0.3L653.2,245.6z"/>
</g>
<g class="st2">
	<path class="st3" d="M658.6,290.2h1.6v1.2h-1.6v2.6h-1.5v-2.6H652v-0.9l5.1-7.9h1.5V290.2z M653.7,290.2h3.5v-5.6l-0.2,0.3
		L653.7,290.2z"/>
</g>
<g class="st2">
	<path class="st3" d="M659.9,326.8l-4.7,10.6h-1.5l4.7-10.2h-6.2V326h7.7V326.8z"/>
</g>
<g class="st2">
	<path class="st3" d="M659.9,370.9l-4.7,10.6h-1.5l4.7-10.2h-6.2V370h7.7V370.9z"/>
</g>
<g class="st2">
	<path class="st3" d="M658.1,467.5c-0.3,0.4-0.7,0.6-1.1,0.9s-0.9,0.3-1.4,0.3c-0.7,0-1.2-0.2-1.7-0.5s-0.9-0.8-1.1-1.4
		s-0.4-1.2-0.4-1.9c0-0.8,0.1-1.4,0.4-2.1s0.7-1.1,1.2-1.4s1.2-0.5,1.9-0.5c1.1,0,2,0.4,2.7,1.3s1,2,1,3.4v0.4
		c0,2.2-0.4,3.8-1.3,4.8s-2.2,1.5-4,1.6H654v-1.2h0.3c1.2,0,2.1-0.3,2.8-0.9S658,468.8,658.1,467.5z M655.9,467.5
		c0.5,0,0.9-0.1,1.3-0.4s0.7-0.7,0.9-1.1v-0.6c0-0.9-0.2-1.7-0.6-2.3s-0.9-0.9-1.6-0.9c-0.6,0-1.1,0.2-1.5,0.7s-0.6,1.1-0.6,1.9
		c0,0.8,0.2,1.4,0.6,1.9S655.2,467.5,655.9,467.5z"/>
</g>
<g class="st2">
	<path class="st3" d="M658.1,424.1c-0.3,0.4-0.7,0.6-1.1,0.9s-0.9,0.3-1.4,0.3c-0.7,0-1.2-0.2-1.7-0.5s-0.9-0.8-1.1-1.4
		s-0.4-1.2-0.4-1.9c0-0.8,0.1-1.4,0.4-2.1s0.7-1.1,1.2-1.4s1.2-0.5,1.9-0.5c1.1,0,2,0.4,2.7,1.3s1,2,1,3.4v0.4
		c0,2.2-0.4,3.8-1.3,4.8s-2.2,1.5-4,1.6H654v-1.2h0.3c1.2,0,2.1-0.3,2.8-0.9S658,425.4,658.1,424.1z M655.9,424.1
		c0.5,0,0.9-0.1,1.3-0.4s0.7-0.7,0.9-1.1V422c0-0.9-0.2-1.7-0.6-2.3s-0.9-0.9-1.6-0.9c-0.6,0-1.1,0.2-1.5,0.7s-0.6,1.1-0.6,1.9
		c0,0.8,0.2,1.4,0.6,1.9S655.2,424.1,655.9,424.1z"/>
</g>
<g class="st2">
	<path class="st3" d="M652.8,515.8h-1.5v-9.6l-2.9,1.1V506l4.1-1.6h0.2V515.8z"/>
	<path class="st3" d="M664.5,515.8H657v-1l3.9-4.4c0.6-0.7,1-1.2,1.2-1.6c0.2-0.4,0.3-0.8,0.3-1.3c0-0.6-0.2-1.1-0.5-1.5
		s-0.8-0.6-1.4-0.6c-0.7,0-1.3,0.2-1.7,0.6s-0.6,1-0.6,1.7h-1.4c0-1,0.3-1.9,1-2.5c0.7-0.6,1.6-1,2.7-1c1.1,0,1.9,0.3,2.5,0.8
		c0.6,0.6,0.9,1.3,0.9,2.2c0,1.1-0.7,2.5-2.1,4l-3,3.3h5.7V515.8z"/>
</g>
<g class="st2">
	<path class="st3" d="M652.8,562.8h-1.5v-9.6l-2.9,1.1v-1.3l4.1-1.6h0.2V562.8z"/>
	<path class="st3" d="M659.1,556.4h1.1c0.7,0,1.2-0.2,1.6-0.5s0.6-0.8,0.6-1.4c0-1.3-0.7-2-2-2c-0.6,0-1.1,0.2-1.5,0.5
		c-0.4,0.4-0.6,0.8-0.6,1.4h-1.4c0-0.9,0.3-1.6,1-2.2c0.7-0.6,1.5-0.9,2.5-0.9c1.1,0,1.9,0.3,2.5,0.9s0.9,1.4,0.9,2.4
		c0,0.5-0.2,1-0.5,1.4s-0.8,0.8-1.3,1c0.6,0.2,1.1,0.5,1.4,1c0.3,0.5,0.5,1,0.5,1.7c0,1-0.3,1.8-1,2.4c-0.7,0.6-1.5,0.9-2.6,0.9
		c-1.1,0-1.9-0.3-2.6-0.9c-0.7-0.6-1-1.3-1-2.3h1.5c0,0.6,0.2,1.1,0.6,1.4s0.9,0.5,1.6,0.5c0.7,0,1.2-0.2,1.6-0.5
		c0.4-0.4,0.6-0.9,0.6-1.6c0-0.7-0.2-1.2-0.6-1.5s-1-0.5-1.8-0.5h-1.1V556.4z"/>
</g>
<g class="st2">
	<path class="st3" d="M747.4,204.1h1.6v1.2h-1.6v2.6H746v-2.6h-5.2v-0.9l5.1-7.9h1.5V204.1z M742.4,204.1h3.5v-5.6l-0.2,0.3
		L742.4,204.1z"/>
</g>
<g class="st2">
	<path class="st3" d="M748.7,240.7l-4.7,10.6h-1.5l4.7-10.2H741v-1.2h7.7V240.7z"/>
</g>
<g class="st2">
	<path class="st3" d="M748.7,283.4L744,294h-1.5l4.7-10.2H741v-1.2h7.7V283.4z"/>
</g>
<g class="st2">
	<path class="st3" d="M746.9,332.4c-0.3,0.4-0.7,0.6-1.1,0.9s-0.9,0.3-1.4,0.3c-0.7,0-1.2-0.2-1.7-0.5s-0.9-0.8-1.1-1.4
		s-0.4-1.2-0.4-1.9c0-0.8,0.1-1.4,0.4-2.1s0.7-1.1,1.2-1.4s1.2-0.5,1.9-0.5c1.1,0,2,0.4,2.7,1.3s1,2,1,3.4v0.4
		c0,2.2-0.4,3.8-1.3,4.8s-2.2,1.5-4,1.6h-0.3v-1.2h0.3c1.2,0,2.1-0.3,2.8-0.9S746.8,333.7,746.9,332.4z M744.6,332.4
		c0.5,0,0.9-0.1,1.3-0.4s0.7-0.7,0.9-1.1v-0.6c0-0.9-0.2-1.7-0.6-2.3s-0.9-0.9-1.6-0.9c-0.6,0-1.1,0.2-1.5,0.7s-0.6,1.1-0.6,1.9
		c0,0.8,0.2,1.4,0.6,1.9S744,332.4,744.6,332.4z"/>
</g>
<g class="st2">
	<path class="st3" d="M746.9,376.4c-0.3,0.4-0.7,0.6-1.1,0.9s-0.9,0.3-1.4,0.3c-0.7,0-1.2-0.2-1.7-0.5s-0.9-0.8-1.1-1.4
		s-0.4-1.2-0.4-1.9c0-0.8,0.1-1.4,0.4-2.1s0.7-1.1,1.2-1.4s1.2-0.5,1.9-0.5c1.1,0,2,0.4,2.7,1.3s1,2,1,3.4v0.4
		c0,2.2-0.4,3.8-1.3,4.8s-2.2,1.5-4,1.6h-0.3v-1.2h0.3c1.2,0,2.1-0.3,2.8-0.9S746.8,377.7,746.9,376.4z M744.6,376.4
		c0.5,0,0.9-0.1,1.3-0.4s0.7-0.7,0.9-1.1v-0.6c0-0.9-0.2-1.7-0.6-2.3s-0.9-0.9-1.6-0.9c-0.6,0-1.1,0.2-1.5,0.7s-0.6,1.1-0.6,1.9
		c0,0.8,0.2,1.4,0.6,1.9S744,376.4,744.6,376.4z"/>
</g>
<g class="st2">
	<path class="st3" d="M741.6,472.5h-1.5v-9.6l-2.9,1.1v-1.3l4.1-1.6h0.2V472.5z"/>
	<path class="st3" d="M753.3,472.5h-7.5v-1l3.9-4.4c0.6-0.7,1-1.2,1.2-1.6s0.3-0.8,0.3-1.3c0-0.6-0.2-1.1-0.5-1.5s-0.8-0.6-1.4-0.6
		c-0.7,0-1.3,0.2-1.7,0.6s-0.6,1-0.6,1.7h-1.4c0-1,0.3-1.9,1-2.5s1.6-1,2.7-1c1.1,0,1.9,0.3,2.5,0.8s0.9,1.3,0.9,2.2
		c0,1.1-0.7,2.5-2.1,4l-3,3.3h5.7V472.5z"/>
</g>
<g class="st2">
	<path class="st3" d="M741.6,429.1h-1.5v-9.6l-2.9,1.1v-1.3l4.1-1.6h0.2V429.1z"/>
	<path class="st3" d="M747.9,422.7h1.1c0.7,0,1.2-0.2,1.6-0.5s0.6-0.8,0.6-1.4c0-1.3-0.7-2-2-2c-0.6,0-1.1,0.2-1.5,0.5
		s-0.6,0.8-0.6,1.4h-1.4c0-0.9,0.3-1.6,1-2.2s1.5-0.9,2.5-0.9c1.1,0,1.9,0.3,2.5,0.9s0.9,1.4,0.9,2.4c0,0.5-0.2,1-0.5,1.4
		s-0.8,0.8-1.3,1c0.6,0.2,1.1,0.5,1.4,1s0.5,1,0.5,1.7c0,1-0.3,1.8-1,2.4s-1.5,0.9-2.6,0.9s-1.9-0.3-2.6-0.9s-1-1.3-1-2.3h1.5
		c0,0.6,0.2,1.1,0.6,1.4s0.9,0.5,1.6,0.5c0.7,0,1.2-0.2,1.6-0.5s0.6-0.9,0.6-1.6c0-0.7-0.2-1.2-0.6-1.5s-1-0.5-1.8-0.5h-1.1V422.7z"
		/>
</g>
<g class="st2">
	<path class="st3" d="M741.6,515.8h-1.5v-9.6l-2.9,1.1V506l4.1-1.6h0.2V515.8z"/>
	<path class="st3" d="M747.9,509.4h1.1c0.7,0,1.2-0.2,1.6-0.5s0.6-0.8,0.6-1.4c0-1.3-0.7-2-2-2c-0.6,0-1.1,0.2-1.5,0.5
		s-0.6,0.8-0.6,1.4h-1.4c0-0.9,0.3-1.6,1-2.2s1.5-0.9,2.5-0.9c1.1,0,1.9,0.3,2.5,0.9s0.9,1.4,0.9,2.4c0,0.5-0.2,1-0.5,1.4
		s-0.8,0.8-1.3,1c0.6,0.2,1.1,0.5,1.4,1s0.5,1,0.5,1.7c0,1-0.3,1.8-1,2.4s-1.5,0.9-2.6,0.9s-1.9-0.3-2.6-0.9s-1-1.3-1-2.3h1.5
		c0,0.6,0.2,1.1,0.6,1.4s0.9,0.5,1.6,0.5c0.7,0,1.2-0.2,1.6-0.5s0.6-0.9,0.6-1.6c0-0.7-0.2-1.2-0.6-1.5s-1-0.5-1.8-0.5h-1.1V509.4z"
		/>
</g>
<g class="st2">
	<path class="st3" d="M741.6,562.8h-1.5v-9.6l-2.9,1.1v-1.3l4.1-1.6h0.2V562.8z"/>
	<path class="st3" d="M751.9,559h1.6v1.2h-1.6v2.6h-1.5v-2.6h-5.2v-0.9l5.1-7.9h1.5V559z M746.9,559h3.5v-5.6l-0.2,0.3L746.9,559z"
		/>
</g>
<g class="st2">
	<path class="st3" d="M838,203.1c0,1.7-0.3,3-0.9,3.8s-1.5,1.2-2.7,1.2c-1.2,0-2.1-0.4-2.7-1.2s-0.9-2-0.9-3.6v-1.9
		c0-1.7,0.3-2.9,0.9-3.7s1.5-1.2,2.7-1.2c1.2,0,2.1,0.4,2.7,1.2s0.9,2,0.9,3.6V203.1z M836.5,201.1c0-1.2-0.2-2.1-0.5-2.7
		s-0.9-0.8-1.6-0.8c-0.7,0-1.3,0.3-1.6,0.8s-0.5,1.4-0.5,2.6v2.3c0,1.2,0.2,2.1,0.5,2.7s0.9,0.9,1.6,0.9c0.7,0,1.2-0.3,1.6-0.8
		s0.5-1.4,0.5-2.6V201.1z"/>
</g>
<g class="st2">
	<path class="st3" d="M835.6,251.3h-1.5v-9.6l-2.9,1.1v-1.3l4.1-1.6h0.2V251.3z"/>
</g>
<g class="st2">
	<path class="st3" d="M838,289.1c0,1.7-0.3,3-0.9,3.8c-0.6,0.8-1.5,1.2-2.7,1.2c-1.2,0-2.1-0.4-2.7-1.2s-0.9-2-0.9-3.6v-1.9
		c0-1.7,0.3-2.9,0.9-3.7s1.5-1.2,2.7-1.2c1.2,0,2.1,0.4,2.7,1.2s0.9,2,0.9,3.6V289.1z M836.5,287.2c0-1.2-0.2-2.1-0.5-2.7
		s-0.9-0.8-1.6-0.8c-0.7,0-1.3,0.3-1.6,0.8s-0.5,1.4-0.5,2.6v2.3c0,1.2,0.2,2.1,0.5,2.7s0.9,0.9,1.6,0.9c0.7,0,1.2-0.3,1.6-0.8
		c0.3-0.6,0.5-1.4,0.5-2.6V287.2z"/>
</g>
<g class="st2">
	<path class="st3" d="M835.6,337.4h-1.5v-9.6l-2.9,1.1v-1.3l4.1-1.6h0.2V337.4z"/>
</g>
<g class="st2">
	<path class="st3" d="M838,376.6c0,1.7-0.3,3-0.9,3.8s-1.5,1.2-2.7,1.2c-1.2,0-2.1-0.4-2.7-1.2s-0.9-2-0.9-3.6v-1.9
		c0-1.7,0.3-2.9,0.9-3.7s1.5-1.2,2.7-1.2c1.2,0,2.1,0.4,2.7,1.2s0.9,2,0.9,3.6V376.6z M836.5,374.6c0-1.2-0.2-2.1-0.5-2.7
		s-0.9-0.8-1.6-0.8c-0.7,0-1.3,0.3-1.6,0.8s-0.5,1.4-0.5,2.6v2.3c0,1.2,0.2,2.1,0.5,2.7s0.9,0.9,1.6,0.9c0.7,0,1.2-0.3,1.6-0.8
		s0.5-1.4,0.5-2.6V374.6z"/>
</g>
<g class="st2">
	<path class="st3" d="M838,467.6c0,1.7-0.3,3-0.9,3.8s-1.5,1.2-2.7,1.2c-1.2,0-2.1-0.4-2.7-1.2s-0.9-2-0.9-3.6v-1.9
		c0-1.7,0.3-2.9,0.9-3.7s1.5-1.2,2.7-1.2c1.2,0,2.1,0.4,2.7,1.2s0.9,2,0.9,3.6V467.6z M836.5,465.6c0-1.2-0.2-2.1-0.5-2.7
		s-0.9-0.8-1.6-0.8c-0.7,0-1.3,0.3-1.6,0.8s-0.5,1.4-0.5,2.6v2.3c0,1.2,0.2,2.1,0.5,2.7s0.9,0.9,1.6,0.9c0.7,0,1.2-0.3,1.6-0.8
		s0.5-1.4,0.5-2.6V465.6z"/>
</g>
<g class="st2">
	<path class="st3" d="M838.3,429.1h-7.5v-1l3.9-4.4c0.6-0.7,1-1.2,1.2-1.6s0.3-0.8,0.3-1.3c0-0.6-0.2-1.1-0.5-1.5s-0.8-0.6-1.4-0.6
		c-0.7,0-1.3,0.2-1.7,0.6s-0.6,1-0.6,1.7h-1.4c0-1,0.3-1.9,1-2.5s1.6-1,2.7-1c1.1,0,1.9,0.3,2.5,0.8s0.9,1.3,0.9,2.2
		c0,1.1-0.7,2.5-2.1,4l-3,3.3h5.7V429.1z"/>
</g>
<g class="st2">
	<path class="st3" d="M838,511c0,1.7-0.3,3-0.9,3.8s-1.5,1.2-2.7,1.2c-1.2,0-2.1-0.4-2.7-1.2c-0.6-0.8-0.9-2-0.9-3.6v-1.9
		c0-1.7,0.3-2.9,0.9-3.7s1.5-1.2,2.7-1.2c1.2,0,2.1,0.4,2.7,1.2s0.9,2,0.9,3.6V511z M836.5,509c0-1.2-0.2-2.1-0.5-2.7
		s-0.9-0.8-1.6-0.8c-0.7,0-1.3,0.3-1.6,0.8c-0.3,0.6-0.5,1.4-0.5,2.6v2.3c0,1.2,0.2,2.1,0.5,2.7c0.4,0.6,0.9,0.9,1.6,0.9
		c0.7,0,1.2-0.3,1.6-0.8c0.3-0.6,0.5-1.4,0.5-2.6V509z"/>
</g>
<g class="st2">
	<path class="st3" d="M838,558c0,1.7-0.3,3-0.9,3.8s-1.5,1.2-2.7,1.2c-1.2,0-2.1-0.4-2.7-1.2s-0.9-2-0.9-3.6v-1.9
		c0-1.7,0.3-2.9,0.9-3.7s1.5-1.2,2.7-1.2c1.2,0,2.1,0.4,2.7,1.2s0.9,2,0.9,3.6V558z M836.5,556c0-1.2-0.2-2.1-0.5-2.7
		s-0.9-0.8-1.6-0.8c-0.7,0-1.3,0.3-1.6,0.8s-0.5,1.4-0.5,2.6v2.3c0,1.2,0.2,2.1,0.5,2.7s0.9,0.9,1.6,0.9c0.7,0,1.2-0.3,1.6-0.8
		s0.5-1.4,0.5-2.6V556z"/>
</g>
<g class="st2">
	<path class="st3" d="M926.7,203.1c0,1.7-0.3,3-0.9,3.8s-1.5,1.2-2.7,1.2c-1.2,0-2.1-0.4-2.7-1.2c-0.6-0.8-0.9-2-0.9-3.6v-1.9
		c0-1.7,0.3-2.9,0.9-3.7s1.5-1.2,2.7-1.2c1.2,0,2.1,0.4,2.7,1.2s0.9,2,0.9,3.6V203.1z M925.3,201.1c0-1.2-0.2-2.1-0.5-2.7
		s-0.9-0.8-1.6-0.8c-0.7,0-1.3,0.3-1.6,0.8c-0.3,0.6-0.5,1.4-0.5,2.6v2.3c0,1.2,0.2,2.1,0.5,2.7c0.4,0.6,0.9,0.9,1.6,0.9
		c0.7,0,1.2-0.3,1.6-0.8c0.3-0.6,0.5-1.4,0.5-2.6V201.1z"/>
</g>
<g class="st2">
	<path class="st3" d="M926.7,246.5c0,1.7-0.3,3-0.9,3.8s-1.5,1.2-2.7,1.2c-1.2,0-2.1-0.4-2.7-1.2c-0.6-0.8-0.9-2-0.9-3.6v-1.9
		c0-1.7,0.3-2.9,0.9-3.7s1.5-1.2,2.7-1.2c1.2,0,2.1,0.4,2.7,1.2s0.9,2,0.9,3.6V246.5z M925.3,244.5c0-1.2-0.2-2.1-0.5-2.7
		s-0.9-0.8-1.6-0.8c-0.7,0-1.3,0.3-1.6,0.8c-0.3,0.6-0.5,1.4-0.5,2.6v2.3c0,1.2,0.2,2.1,0.5,2.7c0.4,0.6,0.9,0.9,1.6,0.9
		c0.7,0,1.2-0.3,1.6-0.8c0.3-0.6,0.5-1.4,0.5-2.6V244.5z"/>
</g>
<g class="st2">
	<path class="st3" d="M926.7,289.1c0,1.7-0.3,3-0.9,3.8c-0.6,0.8-1.5,1.2-2.7,1.2c-1.2,0-2.1-0.4-2.7-1.2c-0.6-0.8-0.9-2-0.9-3.6
		v-1.9c0-1.7,0.3-2.9,0.9-3.7s1.5-1.2,2.7-1.2c1.2,0,2.1,0.4,2.7,1.2s0.9,2,0.9,3.6V289.1z M925.3,287.2c0-1.2-0.2-2.1-0.5-2.7
		s-0.9-0.8-1.6-0.8c-0.7,0-1.3,0.3-1.6,0.8c-0.3,0.6-0.5,1.4-0.5,2.6v2.3c0,1.2,0.2,2.1,0.5,2.7c0.4,0.6,0.9,0.9,1.6,0.9
		c0.7,0,1.2-0.3,1.6-0.8c0.3-0.6,0.5-1.4,0.5-2.6V287.2z"/>
</g>
<g class="st2">
	<path class="st3" d="M924.4,337.4h-1.5v-9.6l-2.9,1.1v-1.3l4.1-1.6h0.2V337.4z"/>
</g>
<g class="st2">
	<path class="st3" d="M926.7,376.6c0,1.7-0.3,3-0.9,3.8s-1.5,1.2-2.7,1.2c-1.2,0-2.1-0.4-2.7-1.2c-0.6-0.8-0.9-2-0.9-3.6v-1.9
		c0-1.7,0.3-2.9,0.9-3.7s1.5-1.2,2.7-1.2c1.2,0,2.1,0.4,2.7,1.2s0.9,2,0.9,3.6V376.6z M925.3,374.6c0-1.2-0.2-2.1-0.5-2.7
		s-0.9-0.8-1.6-0.8c-0.7,0-1.3,0.3-1.6,0.8c-0.3,0.6-0.5,1.4-0.5,2.6v2.3c0,1.2,0.2,2.1,0.5,2.7c0.4,0.6,0.9,0.9,1.6,0.9
		c0.7,0,1.2-0.3,1.6-0.8c0.3-0.6,0.5-1.4,0.5-2.6V374.6z"/>
</g>
<g class="st2">
	<path class="st3" d="M926.7,467.6c0,1.7-0.3,3-0.9,3.8s-1.5,1.2-2.7,1.2c-1.2,0-2.1-0.4-2.7-1.2c-0.6-0.8-0.9-2-0.9-3.6v-1.9
		c0-1.7,0.3-2.9,0.9-3.7s1.5-1.2,2.7-1.2c1.2,0,2.1,0.4,2.7,1.2s0.9,2,0.9,3.6V467.6z M925.3,465.6c0-1.2-0.2-2.1-0.5-2.7
		s-0.9-0.8-1.6-0.8c-0.7,0-1.3,0.3-1.6,0.8c-0.3,0.6-0.5,1.4-0.5,2.6v2.3c0,1.2,0.2,2.1,0.5,2.7c0.4,0.6,0.9,0.9,1.6,0.9
		c0.7,0,1.2-0.3,1.6-0.8c0.3-0.6,0.5-1.4,0.5-2.6V465.6z"/>
</g>
<g class="st2">
	<path class="st3" d="M927.1,429.1h-7.5v-1l3.9-4.4c0.6-0.7,1-1.2,1.2-1.6c0.2-0.4,0.3-0.8,0.3-1.3c0-0.6-0.2-1.1-0.5-1.5
		s-0.8-0.6-1.4-0.6c-0.7,0-1.3,0.2-1.7,0.6s-0.6,1-0.6,1.7h-1.4c0-1,0.3-1.9,1-2.5c0.7-0.6,1.6-1,2.7-1c1.1,0,1.9,0.3,2.5,0.8
		c0.6,0.6,0.9,1.3,0.9,2.2c0,1.1-0.7,2.5-2.1,4l-3,3.3h5.7V429.1z"/>
</g>
<g class="st2">
	<path class="st3" d="M926.8,511c0,1.7-0.3,3-0.9,3.8s-1.5,1.2-2.7,1.2c-1.2,0-2.1-0.4-2.7-1.2c-0.6-0.8-0.9-2-0.9-3.6v-1.9
		c0-1.7,0.3-2.9,0.9-3.7s1.5-1.2,2.7-1.2c1.2,0,2.1,0.4,2.7,1.2s0.9,2,0.9,3.6V511z M925.3,509c0-1.2-0.2-2.1-0.5-2.7
		s-0.9-0.8-1.6-0.8c-0.7,0-1.3,0.3-1.6,0.8c-0.3,0.6-0.5,1.4-0.5,2.6v2.3c0,1.2,0.2,2.1,0.5,2.7c0.4,0.6,0.9,0.9,1.6,0.9
		c0.7,0,1.2-0.3,1.6-0.8c0.3-0.6,0.5-1.4,0.5-2.6V509z"/>
</g>
<g class="st2">
	<path class="st3" d="M926.7,558c0,1.7-0.3,3-0.9,3.8s-1.5,1.2-2.7,1.2c-1.2,0-2.1-0.4-2.7-1.2c-0.6-0.8-0.9-2-0.9-3.6v-1.9
		c0-1.7,0.3-2.9,0.9-3.7s1.5-1.2,2.7-1.2c1.2,0,2.1,0.4,2.7,1.2s0.9,2,0.9,3.6V558z M925.3,556c0-1.2-0.2-2.1-0.5-2.7
		s-0.9-0.8-1.6-0.8c-0.7,0-1.3,0.3-1.6,0.8c-0.3,0.6-0.5,1.4-0.5,2.6v2.3c0,1.2,0.2,2.1,0.5,2.7c0.4,0.6,0.9,0.9,1.6,0.9
		c0.7,0,1.2-0.3,1.6-0.8c0.3-0.6,0.5-1.4,0.5-2.6V556z"/>
</g>
<g class="st2">
	<path class="st3" d="M1015.5,203.1c0,1.7-0.3,3-0.9,3.8s-1.5,1.2-2.7,1.2c-1.2,0-2.1-0.4-2.7-1.2c-0.6-0.8-0.9-2-0.9-3.6v-1.9
		c0-1.7,0.3-2.9,0.9-3.7s1.5-1.2,2.7-1.2c1.2,0,2.1,0.4,2.7,1.2s0.9,2,0.9,3.6V203.1z M1014.1,201.1c0-1.2-0.2-2.1-0.5-2.7
		s-0.9-0.8-1.6-0.8c-0.7,0-1.3,0.3-1.6,0.8c-0.3,0.6-0.5,1.4-0.5,2.6v2.3c0,1.2,0.2,2.1,0.5,2.7c0.4,0.6,0.9,0.9,1.6,0.9
		c0.7,0,1.2-0.3,1.6-0.8c0.3-0.6,0.5-1.4,0.5-2.6V201.1z"/>
</g>
<g class="st2">
	<path class="st3" d="M1015.5,246.5c0,1.7-0.3,3-0.9,3.8s-1.5,1.2-2.7,1.2c-1.2,0-2.1-0.4-2.7-1.2c-0.6-0.8-0.9-2-0.9-3.6v-1.9
		c0-1.7,0.3-2.9,0.9-3.7s1.5-1.2,2.7-1.2c1.2,0,2.1,0.4,2.7,1.2s0.9,2,0.9,3.6V246.5z M1014.1,244.5c0-1.2-0.2-2.1-0.5-2.7
		s-0.9-0.8-1.6-0.8c-0.7,0-1.3,0.3-1.6,0.8c-0.3,0.6-0.5,1.4-0.5,2.6v2.3c0,1.2,0.2,2.1,0.5,2.7c0.4,0.6,0.9,0.9,1.6,0.9
		c0.7,0,1.2-0.3,1.6-0.8c0.3-0.6,0.5-1.4,0.5-2.6V244.5z"/>
</g>
<g class="st2">
	<path class="st3" d="M1015.5,289.1c0,1.7-0.3,3-0.9,3.8c-0.6,0.8-1.5,1.2-2.7,1.2c-1.2,0-2.1-0.4-2.7-1.2c-0.6-0.8-0.9-2-0.9-3.6
		v-1.9c0-1.7,0.3-2.9,0.9-3.7s1.5-1.2,2.7-1.2c1.2,0,2.1,0.4,2.7,1.2s0.9,2,0.9,3.6V289.1z M1014.1,287.2c0-1.2-0.2-2.1-0.5-2.7
		s-0.9-0.8-1.6-0.8c-0.7,0-1.3,0.3-1.6,0.8c-0.3,0.6-0.5,1.4-0.5,2.6v2.3c0,1.2,0.2,2.1,0.5,2.7c0.4,0.6,0.9,0.9,1.6,0.9
		c0.7,0,1.2-0.3,1.6-0.8c0.3-0.6,0.5-1.4,0.5-2.6V287.2z"/>
</g>
<g class="st2">
	<path class="st3" d="M1015.5,332.5c0,1.7-0.3,3-0.9,3.8s-1.5,1.2-2.7,1.2c-1.2,0-2.1-0.4-2.7-1.2c-0.6-0.8-0.9-2-0.9-3.6v-1.9
		c0-1.7,0.3-2.9,0.9-3.7s1.5-1.2,2.7-1.2c1.2,0,2.1,0.4,2.7,1.2s0.9,2,0.9,3.6V332.5z M1014.1,330.5c0-1.2-0.2-2.1-0.5-2.7
		s-0.9-0.8-1.6-0.8c-0.7,0-1.3,0.3-1.6,0.8c-0.3,0.6-0.5,1.4-0.5,2.6v2.3c0,1.2,0.2,2.1,0.5,2.7c0.4,0.6,0.9,0.9,1.6,0.9
		c0.7,0,1.2-0.3,1.6-0.8c0.3-0.6,0.5-1.4,0.5-2.6V330.5z"/>
</g>
<g class="st2">
	<path class="st3" d="M1015.5,376.6c0,1.7-0.3,3-0.9,3.8s-1.5,1.2-2.7,1.2c-1.2,0-2.1-0.4-2.7-1.2c-0.6-0.8-0.9-2-0.9-3.6v-1.9
		c0-1.7,0.3-2.9,0.9-3.7s1.5-1.2,2.7-1.2c1.2,0,2.1,0.4,2.7,1.2s0.9,2,0.9,3.6V376.6z M1014.1,374.6c0-1.2-0.2-2.1-0.5-2.7
		s-0.9-0.8-1.6-0.8c-0.7,0-1.3,0.3-1.6,0.8c-0.3,0.6-0.5,1.4-0.5,2.6v2.3c0,1.2,0.2,2.1,0.5,2.7c0.4,0.6,0.9,0.9,1.6,0.9
		c0.7,0,1.2-0.3,1.6-0.8c0.3-0.6,0.5-1.4,0.5-2.6V374.6z"/>
</g>
<g class="st2">
	<path class="st3" d="M1015.5,467.6c0,1.7-0.3,3-0.9,3.8s-1.5,1.2-2.7,1.2c-1.2,0-2.1-0.4-2.7-1.2c-0.6-0.8-0.9-2-0.9-3.6v-1.9
		c0-1.7,0.3-2.9,0.9-3.7s1.5-1.2,2.7-1.2c1.2,0,2.1,0.4,2.7,1.2s0.9,2,0.9,3.6V467.6z M1014.1,465.6c0-1.2-0.2-2.1-0.5-2.7
		s-0.9-0.8-1.6-0.8c-0.7,0-1.3,0.3-1.6,0.8c-0.3,0.6-0.5,1.4-0.5,2.6v2.3c0,1.2,0.2,2.1,0.5,2.7c0.4,0.6,0.9,0.9,1.6,0.9
		c0.7,0,1.2-0.3,1.6-0.8c0.3-0.6,0.5-1.4,0.5-2.6V465.6z"/>
</g>
<g class="st2">
	<path class="st3" d="M1015.8,429.1h-7.5v-1l3.9-4.4c0.6-0.7,1-1.2,1.2-1.6c0.2-0.4,0.3-0.8,0.3-1.3c0-0.6-0.2-1.1-0.5-1.5
		s-0.8-0.6-1.4-0.6c-0.7,0-1.3,0.2-1.7,0.6s-0.6,1-0.6,1.7h-1.4c0-1,0.3-1.9,1-2.5c0.7-0.6,1.6-1,2.7-1c1.1,0,1.9,0.3,2.5,0.8
		c0.6,0.6,0.9,1.3,0.9,2.2c0,1.1-0.7,2.5-2.1,4l-3,3.3h5.7V429.1z"/>
</g>
<g class="st2">
	<path class="st3" d="M1015.5,511c0,1.7-0.3,3-0.9,3.8s-1.5,1.2-2.7,1.2c-1.2,0-2.1-0.4-2.7-1.2c-0.6-0.8-0.9-2-0.9-3.6v-1.9
		c0-1.7,0.3-2.9,0.9-3.7s1.5-1.2,2.7-1.2c1.2,0,2.1,0.4,2.7,1.2s0.9,2,0.9,3.6V511z M1014.1,509c0-1.2-0.2-2.1-0.5-2.7
		s-0.9-0.8-1.6-0.8c-0.7,0-1.3,0.3-1.6,0.8c-0.3,0.6-0.5,1.4-0.5,2.6v2.3c0,1.2,0.2,2.1,0.5,2.7c0.4,0.6,0.9,0.9,1.6,0.9
		c0.7,0,1.2-0.3,1.6-0.8c0.3-0.6,0.5-1.4,0.5-2.6V509z"/>
</g>
<g class="st2">
	<path class="st3" d="M1015.5,558c0,1.7-0.3,3-0.9,3.8s-1.5,1.2-2.7,1.2c-1.2,0-2.1-0.4-2.7-1.2c-0.6-0.8-0.9-2-0.9-3.6v-1.9
		c0-1.7,0.3-2.9,0.9-3.7s1.5-1.2,2.7-1.2c1.2,0,2.1,0.4,2.7,1.2s0.9,2,0.9,3.6V558z M1014.1,556c0-1.2-0.2-2.1-0.5-2.7
		s-0.9-0.8-1.6-0.8c-0.7,0-1.3,0.3-1.6,0.8c-0.3,0.6-0.5,1.4-0.5,2.6v2.3c0,1.2,0.2,2.1,0.5,2.7c0.4,0.6,0.9,0.9,1.6,0.9
		c0.7,0,1.2-0.3,1.6-0.8c0.3-0.6,0.5-1.4,0.5-2.6V556z"/>
</g>
<g class="st2">
	<path class="st3" d="M1108.2,204.1h1.6v1.2h-1.6v2.6h-1.5v-2.6h-5.2v-0.9l5.1-7.9h1.5V204.1z M1103.2,204.1h3.5v-5.6l-0.2,0.3
		L1103.2,204.1z"/>
</g>
<g class="st2">
	<path class="st3" d="M1107.8,239.9v1.2h-0.3c-1.1,0-2,0.4-2.7,1c-0.7,0.6-1.1,1.6-1.2,2.7c0.6-0.7,1.4-1,2.5-1c1,0,1.8,0.3,2.4,1
		c0.6,0.7,0.9,1.6,0.9,2.7c0,1.2-0.3,2.1-1,2.8c-0.6,0.7-1.5,1.1-2.6,1.1c-1.1,0-2-0.4-2.6-1.3c-0.7-0.8-1-1.9-1-3.2v-0.6
		c0-2.1,0.4-3.7,1.3-4.8c0.9-1.1,2.2-1.7,4-1.7H1107.8z M1105.9,245c-0.5,0-1,0.1-1.4,0.4c-0.4,0.3-0.7,0.7-0.9,1.1v0.5
		c0,0.9,0.2,1.7,0.6,2.3s0.9,0.9,1.6,0.9c0.7,0,1.2-0.2,1.5-0.7c0.4-0.5,0.6-1.1,0.6-1.9c0-0.8-0.2-1.4-0.6-1.9
		C1107,245.3,1106.5,245,1105.9,245z"/>
</g>
<g class="st2">
	<path class="st3" d="M1109.4,283.4l-4.7,10.6h-1.5l4.7-10.2h-6.2v-1.2h7.7V283.4z"/>
</g>
<g class="st2">
	<path class="st3" d="M1107.6,332.4c-0.3,0.4-0.7,0.6-1.1,0.9c-0.4,0.2-0.9,0.3-1.4,0.3c-0.7,0-1.2-0.2-1.7-0.5
		c-0.5-0.3-0.9-0.8-1.1-1.4s-0.4-1.2-0.4-1.9c0-0.8,0.1-1.4,0.4-2.1s0.7-1.1,1.2-1.4s1.2-0.5,1.9-0.5c1.1,0,2,0.4,2.7,1.3s1,2,1,3.4
		v0.4c0,2.2-0.4,3.8-1.3,4.8s-2.2,1.5-4,1.6h-0.3v-1.2h0.3c1.2,0,2.1-0.3,2.8-0.9S1107.6,333.7,1107.6,332.4z M1105.4,332.4
		c0.5,0,0.9-0.1,1.3-0.4c0.4-0.3,0.7-0.7,0.9-1.1v-0.6c0-0.9-0.2-1.7-0.6-2.3c-0.4-0.6-0.9-0.9-1.6-0.9c-0.6,0-1.1,0.2-1.5,0.7
		c-0.4,0.5-0.6,1.1-0.6,1.9c0,0.8,0.2,1.4,0.6,1.9C1104.3,332.1,1104.8,332.4,1105.4,332.4z"/>
</g>
<g class="st2">
	<path class="st3" d="M1107.6,376.4c-0.3,0.4-0.7,0.6-1.1,0.9c-0.4,0.2-0.9,0.3-1.4,0.3c-0.7,0-1.2-0.2-1.7-0.5
		c-0.5-0.3-0.9-0.8-1.1-1.4s-0.4-1.2-0.4-1.9c0-0.8,0.1-1.4,0.4-2.1s0.7-1.1,1.2-1.4s1.2-0.5,1.9-0.5c1.1,0,2,0.4,2.7,1.3s1,2,1,3.4
		v0.4c0,2.2-0.4,3.8-1.3,4.8s-2.2,1.5-4,1.6h-0.3v-1.2h0.3c1.2,0,2.1-0.3,2.8-0.9S1107.6,377.7,1107.6,376.4z M1105.4,376.4
		c0.5,0,0.9-0.1,1.3-0.4c0.4-0.3,0.7-0.7,0.9-1.1v-0.6c0-0.9-0.2-1.7-0.6-2.3c-0.4-0.6-0.9-0.9-1.6-0.9c-0.6,0-1.1,0.2-1.5,0.7
		c-0.4,0.5-0.6,1.1-0.6,1.9c0,0.8,0.2,1.4,0.6,1.9C1104.3,376.2,1104.8,376.4,1105.4,376.4z"/>
</g>
<g class="st2">
	<path class="st3" d="M1102.4,472.5h-1.5v-9.6l-2.9,1.1v-1.3l4.1-1.6h0.2V472.5z"/>
	<path class="st3" d="M1114.1,472.5h-7.5v-1l3.9-4.4c0.6-0.7,1-1.2,1.2-1.6s0.3-0.8,0.3-1.3c0-0.6-0.2-1.1-0.5-1.5s-0.8-0.6-1.4-0.6
		c-0.7,0-1.3,0.2-1.7,0.6s-0.6,1-0.6,1.7h-1.4c0-1,0.3-1.9,1-2.5s1.6-1,2.7-1c1.1,0,1.9,0.3,2.5,0.8s0.9,1.3,0.9,2.2
		c0,1.1-0.7,2.5-2.1,4l-3,3.3h5.7V472.5z"/>
</g>
<g class="st2">
	<path class="st3" d="M1102.4,429.1h-1.5v-9.6l-2.9,1.1v-1.3l4.1-1.6h0.2V429.1z"/>
	<path class="st3" d="M1108.7,422.7h1.1c0.7,0,1.2-0.2,1.6-0.5s0.6-0.8,0.6-1.4c0-1.3-0.7-2-2-2c-0.6,0-1.1,0.2-1.5,0.5
		s-0.6,0.8-0.6,1.4h-1.4c0-0.9,0.3-1.6,1-2.2s1.5-0.9,2.5-0.9c1.1,0,1.9,0.3,2.5,0.9s0.9,1.4,0.9,2.4c0,0.5-0.2,1-0.5,1.4
		s-0.8,0.8-1.3,1c0.6,0.2,1.1,0.5,1.4,1s0.5,1,0.5,1.7c0,1-0.3,1.8-1,2.4s-1.5,0.9-2.6,0.9s-1.9-0.3-2.6-0.9s-1-1.3-1-2.3h1.5
		c0,0.6,0.2,1.1,0.6,1.4s0.9,0.5,1.6,0.5c0.7,0,1.2-0.2,1.6-0.5s0.6-0.9,0.6-1.6c0-0.7-0.2-1.2-0.6-1.5s-1-0.5-1.8-0.5h-1.1V422.7z"
		/>
</g>
<g class="st2">
	<path class="st3" d="M1102.4,515.8h-1.5v-9.6l-2.9,1.1V506l4.1-1.6h0.2V515.8z"/>
	<path class="st3" d="M1108.7,509.4h1.1c0.7,0,1.2-0.2,1.6-0.5s0.6-0.8,0.6-1.4c0-1.3-0.7-2-2-2c-0.6,0-1.1,0.2-1.5,0.5
		s-0.6,0.8-0.6,1.4h-1.4c0-0.9,0.3-1.6,1-2.2s1.5-0.9,2.5-0.9c1.1,0,1.9,0.3,2.5,0.9s0.9,1.4,0.9,2.4c0,0.5-0.2,1-0.5,1.4
		s-0.8,0.8-1.3,1c0.6,0.2,1.1,0.5,1.4,1s0.5,1,0.5,1.7c0,1-0.3,1.8-1,2.4s-1.5,0.9-2.6,0.9s-1.9-0.3-2.6-0.9s-1-1.3-1-2.3h1.5
		c0,0.6,0.2,1.1,0.6,1.4s0.9,0.5,1.6,0.5c0.7,0,1.2-0.2,1.6-0.5s0.6-0.9,0.6-1.6c0-0.7-0.2-1.2-0.6-1.5s-1-0.5-1.8-0.5h-1.1V509.4z"
		/>
</g>
<g class="st2">
	<path class="st3" d="M1102.4,562.8h-1.5v-9.6l-2.9,1.1v-1.3l4.1-1.6h0.2V562.8z"/>
	<path class="st3" d="M1112.7,559h1.6v1.2h-1.6v2.6h-1.5v-2.6h-5.2v-0.9l5.1-7.9h1.5V559z M1107.7,559h3.5v-5.6l-0.2,0.3L1107.7,559
		z"/>
</g>
<g class="st2">
	<path class="st3" d="M1195,203.1c0,1.7-0.3,3-0.9,3.8s-1.5,1.2-2.7,1.2c-1.2,0-2.1-0.4-2.7-1.2c-0.6-0.8-0.9-2-0.9-3.6v-1.9
		c0-1.7,0.3-2.9,0.9-3.7s1.5-1.2,2.7-1.2c1.2,0,2.1,0.4,2.7,1.2s0.9,2,0.9,3.6V203.1z M1193.6,201.1c0-1.2-0.2-2.1-0.5-2.7
		s-0.9-0.8-1.6-0.8c-0.7,0-1.3,0.3-1.6,0.8c-0.3,0.6-0.5,1.4-0.5,2.6v2.3c0,1.2,0.2,2.1,0.5,2.7c0.4,0.6,0.9,0.9,1.6,0.9
		c0.7,0,1.2-0.3,1.6-0.8c0.3-0.6,0.5-1.4,0.5-2.6V201.1z"/>
</g>
<g class="st2">
	<path class="st3" d="M1194,247.5h1.6v1.2h-1.6v2.6h-1.5v-2.6h-5.2v-0.9l5.1-7.9h1.5V247.5z M1189,247.5h3.5v-5.6l-0.2,0.3
		L1189,247.5z"/>
</g>
<g class="st2">
	<path class="st3" d="M1194,290.2h1.6v1.2h-1.6v2.6h-1.5v-2.6h-5.2v-0.9l5.1-7.9h1.5V290.2z M1189,290.2h3.5v-5.6l-0.2,0.3
		L1189,290.2z"/>
</g>
<g class="st2">
	<path class="st3" d="M1195.2,326.8l-4.7,10.6h-1.5l4.7-10.2h-6.2V326h7.7V326.8z"/>
</g>
<g class="st2">
	<path class="st3" d="M1195.2,370.9l-4.7,10.6h-1.5l4.7-10.2h-6.2V370h7.7V370.9z"/>
</g>
<g class="st2">
	<path class="st3" d="M1193.4,467.5c-0.3,0.4-0.7,0.6-1.1,0.9c-0.4,0.2-0.9,0.3-1.4,0.3c-0.7,0-1.2-0.2-1.7-0.5
		c-0.5-0.3-0.9-0.8-1.1-1.4s-0.4-1.2-0.4-1.9c0-0.8,0.1-1.4,0.4-2.1s0.7-1.1,1.2-1.4s1.2-0.5,1.9-0.5c1.1,0,2,0.4,2.7,1.3s1,2,1,3.4
		v0.4c0,2.2-0.4,3.8-1.3,4.8s-2.2,1.5-4,1.6h-0.3v-1.2h0.3c1.2,0,2.1-0.3,2.8-0.9S1193.4,468.8,1193.4,467.5z M1191.2,467.5
		c0.5,0,0.9-0.1,1.3-0.4c0.4-0.3,0.7-0.7,0.9-1.1v-0.6c0-0.9-0.2-1.7-0.6-2.3c-0.4-0.6-0.9-0.9-1.6-0.9c-0.6,0-1.1,0.2-1.5,0.7
		c-0.4,0.5-0.6,1.1-0.6,1.9c0,0.8,0.2,1.4,0.6,1.9C1190.1,467.2,1190.6,467.5,1191.2,467.5z"/>
</g>
<g class="st2">
	<path class="st3" d="M1195.2,418.5l-4.7,10.6h-1.5l4.7-10.2h-6.2v-1.2h7.7V418.5z"/>
</g>
<g class="st2">
	<path class="st3" d="M1188.2,515.8h-1.5v-9.6l-2.9,1.1V506l4.1-1.6h0.2V515.8z"/>
	<path class="st3" d="M1199.8,515.8h-7.5v-1l3.9-4.4c0.6-0.7,1-1.2,1.2-1.6s0.3-0.8,0.3-1.3c0-0.6-0.2-1.1-0.5-1.5s-0.8-0.6-1.4-0.6
		c-0.7,0-1.3,0.2-1.7,0.6s-0.6,1-0.6,1.7h-1.4c0-1,0.3-1.9,1-2.5s1.6-1,2.7-1c1.1,0,1.9,0.3,2.5,0.8s0.9,1.3,0.9,2.2
		c0,1.1-0.7,2.5-2.1,4l-3,3.3h5.7V515.8z"/>
</g>
<g class="st2">
	<path class="st3" d="M1188.2,562.8h-1.5v-9.6l-2.9,1.1v-1.3l4.1-1.6h0.2V562.8z"/>
	<path class="st3" d="M1194.5,556.4h1.1c0.7,0,1.2-0.2,1.6-0.5s0.6-0.8,0.6-1.4c0-1.3-0.7-2-2-2c-0.6,0-1.1,0.2-1.5,0.5
		s-0.6,0.8-0.6,1.4h-1.4c0-0.9,0.3-1.6,1-2.2s1.5-0.9,2.5-0.9c1.1,0,1.9,0.3,2.5,0.9s0.9,1.4,0.9,2.4c0,0.5-0.2,1-0.5,1.4
		s-0.8,0.8-1.3,1c0.6,0.2,1.1,0.5,1.4,1s0.5,1,0.5,1.7c0,1-0.3,1.8-1,2.4s-1.5,0.9-2.6,0.9s-1.9-0.3-2.6-0.9s-1-1.3-1-2.3h1.5
		c0,0.6,0.2,1.1,0.6,1.4s0.9,0.5,1.6,0.5c0.7,0,1.2-0.2,1.6-0.5s0.6-0.9,0.6-1.6c0-0.7-0.2-1.2-0.6-1.5s-1-0.5-1.8-0.5h-1.1V556.4z"
		/>
</g>
<g class="st2">
	<path class="st3" d="M47.5,149.6c0-0.2,0.1-0.4,0.2-0.6c0.1-0.2,0.4-0.2,0.6-0.2s0.5,0.1,0.6,0.2c0.1,0.2,0.2,0.4,0.2,0.6
		s-0.1,0.4-0.2,0.6c-0.1,0.2-0.4,0.2-0.6,0.2s-0.5-0.1-0.6-0.2C47.5,150,47.5,149.8,47.5,149.6z M49,160.3h-1.4v-8.5H49V160.3z"/>
</g>
<g class="st2">
	<path class="st3" d="M138.6,151.8v9.4c0,1.6-0.7,2.4-2.2,2.4c-0.3,0-0.6,0-0.9-0.1v-1.1c0.2,0,0.4,0.1,0.7,0.1
		c0.3,0,0.6-0.1,0.7-0.3c0.2-0.2,0.3-0.5,0.3-0.9v-9.5H138.6z M137,149.6c0-0.2,0.1-0.4,0.2-0.6c0.1-0.2,0.4-0.2,0.6-0.2
		c0.3,0,0.5,0.1,0.6,0.2c0.1,0.2,0.2,0.4,0.2,0.6s-0.1,0.4-0.2,0.6c-0.1,0.2-0.4,0.2-0.6,0.2s-0.5-0.1-0.6-0.2S137,149.8,137,149.6z
		"/>
</g>
<g class="st2">
	<path class="st3" d="M156,71h-4.8l-1.1,3h-1.5l4.3-11.4h1.3l4.4,11.4H157L156,71z M151.6,69.7h3.9l-1.9-5.3L151.6,69.7z"/>
	<path class="st3" d="M168.4,70.3c-0.1,1.2-0.6,2.1-1.3,2.8c-0.7,0.7-1.7,1-3,1c-1.3,0-2.4-0.5-3.2-1.4c-0.8-1-1.2-2.3-1.2-3.9v-1.1
		c0-1.1,0.2-2,0.6-2.8c0.4-0.8,0.9-1.4,1.6-1.8c0.7-0.4,1.5-0.6,2.4-0.6c1.2,0,2.2,0.3,2.9,1c0.7,0.7,1.2,1.6,1.3,2.8h-1.5
		c-0.1-0.9-0.4-1.6-0.8-2c-0.4-0.4-1-0.6-1.8-0.6c-1,0-1.7,0.4-2.3,1.1c-0.5,0.7-0.8,1.7-0.8,3v1.1c0,1.2,0.3,2.2,0.8,2.9
		s1.2,1.1,2.2,1.1c0.8,0,1.5-0.2,1.9-0.6s0.7-1,0.9-2H168.4z"/>
	<path class="st3" d="M178.1,63.8h-3.7v10.1h-1.5V63.8h-3.6v-1.2h8.8V63.8z"/>
	<path class="st3" d="M181.4,73.9h-1.5V62.6h1.5V73.9z"/>
	<path class="st3" d="M187.9,71.9l3.2-9.4h1.6l-4.2,11.4h-1.3L183,62.6h1.6L187.9,71.9z"/>
	<path class="st3" d="M195.9,73.9h-1.5V62.6h1.5V73.9z"/>
	<path class="st3" d="M198.6,73.9V62.6h3.2c1,0,1.9,0.2,2.6,0.7c0.8,0.4,1.3,1.1,1.8,1.9s0.6,1.7,0.6,2.8v0.7c0,1.1-0.2,2-0.6,2.8
		s-1,1.4-1.8,1.9c-0.8,0.4-1.7,0.7-2.7,0.7H198.6z M200.1,63.8v8.9h1.6c1.2,0,2.1-0.4,2.7-1.1c0.6-0.7,1-1.7,1-3.1v-0.7
		c0-1.3-0.3-2.3-0.9-3c-0.6-0.7-1.5-1.1-2.6-1.1H200.1z"/>
	<path class="st3" d="M215.3,71h-4.8l-1.1,3h-1.5l4.3-11.4h1.3l4.4,11.4h-1.5L215.3,71z M210.9,69.7h3.9l-1.9-5.3L210.9,69.7z"/>
	<path class="st3" d="M219.4,73.9V62.6h3.2c1,0,1.9,0.2,2.6,0.7c0.8,0.4,1.3,1.1,1.8,1.9s0.6,1.7,0.6,2.8v0.7c0,1.1-0.2,2-0.6,2.8
		s-1,1.4-1.8,1.9c-0.8,0.4-1.7,0.7-2.7,0.7H219.4z M220.9,63.8v8.9h1.6c1.2,0,2.1-0.4,2.7-1.1c0.6-0.7,1-1.7,1-3.1v-0.7
		c0-1.3-0.3-2.3-0.9-3c-0.6-0.7-1.5-1.1-2.6-1.1H220.9z"/>
</g>
<g class="st2">
	<path class="st3" d="M355.7,107.8V96.5h3.2c1,0,1.9,0.2,2.6,0.7c0.8,0.4,1.3,1.1,1.8,1.9s0.6,1.7,0.6,2.8v0.7c0,1.1-0.2,2-0.6,2.8
		s-1,1.4-1.8,1.9c-0.8,0.4-1.7,0.7-2.7,0.7H355.7z M357.2,97.7v8.9h1.6c1.2,0,2.1-0.4,2.7-1.1c0.6-0.7,1-1.7,1-3.1v-0.7
		c0-1.3-0.3-2.3-0.9-3c-0.6-0.7-1.5-1.1-2.6-1.1H357.2z"/>
	<path class="st3" d="M371.2,107c-0.6,0.7-1.4,1-2.5,1c-0.9,0-1.6-0.3-2.1-0.8c-0.5-0.5-0.7-1.3-0.7-2.3v-5.5h1.4v5.5
		c0,1.3,0.5,1.9,1.6,1.9c1.1,0,1.8-0.4,2.2-1.2v-6.1h1.4v8.5h-1.4L371.2,107z"/>
	<path class="st3" d="M378.8,100.7c-0.2,0-0.5-0.1-0.7-0.1c-0.9,0-1.6,0.4-1.9,1.2v6h-1.4v-8.5h1.4l0,1c0.5-0.8,1.1-1.1,2-1.1
		c0.3,0,0.5,0,0.6,0.1V100.7z"/>
	<path class="st3" d="M385.1,107.8c-0.1-0.2-0.2-0.5-0.2-0.9c-0.7,0.7-1.5,1-2.4,1c-0.8,0-1.5-0.2-2.1-0.7c-0.5-0.5-0.8-1.1-0.8-1.8
		c0-0.9,0.3-1.6,1-2.1c0.7-0.5,1.6-0.7,2.8-0.7h1.4v-0.7c0-0.5-0.2-0.9-0.5-1.2c-0.3-0.3-0.7-0.4-1.3-0.4c-0.5,0-0.9,0.1-1.3,0.4
		c-0.3,0.3-0.5,0.6-0.5,0.9h-1.5c0-0.4,0.1-0.8,0.4-1.2c0.3-0.4,0.7-0.7,1.2-0.9c0.5-0.2,1.1-0.3,1.7-0.3c1,0,1.7,0.2,2.3,0.7
		c0.6,0.5,0.8,1.2,0.9,2v3.9c0,0.8,0.1,1.4,0.3,1.9v0.1H385.1z M382.7,106.7c0.5,0,0.9-0.1,1.3-0.4s0.7-0.5,0.9-0.9v-1.7h-1.1
		c-1.8,0-2.7,0.5-2.7,1.6c0,0.5,0.2,0.8,0.5,1.1C381.8,106.6,382.2,106.7,382.7,106.7z"/>
	<path class="st3" d="M391.9,106.8c0.5,0,1-0.2,1.4-0.5c0.4-0.3,0.6-0.7,0.6-1.2h1.4c0,0.5-0.2,0.9-0.5,1.4c-0.3,0.4-0.7,0.8-1.2,1
		c-0.5,0.3-1.1,0.4-1.6,0.4c-1.2,0-2.1-0.4-2.7-1.2s-1-1.8-1-3.2v-0.2c0-0.8,0.2-1.6,0.5-2.2c0.3-0.6,0.7-1.1,1.3-1.5
		c0.6-0.4,1.2-0.5,2-0.5c0.9,0,1.7,0.3,2.4,0.9c0.6,0.6,1,1.3,1,2.2h-1.4c0-0.5-0.2-1-0.6-1.3c-0.4-0.4-0.8-0.5-1.4-0.5
		c-0.7,0-1.3,0.3-1.7,0.8c-0.4,0.5-0.6,1.3-0.6,2.3v0.3c0,1,0.2,1.7,0.6,2.2C390.6,106.6,391.2,106.8,391.9,106.8z"/>
	<path class="st3" d="M396.9,97.1c0-0.2,0.1-0.4,0.2-0.6c0.1-0.2,0.4-0.2,0.6-0.2s0.5,0.1,0.6,0.2c0.1,0.2,0.2,0.4,0.2,0.6
		s-0.1,0.4-0.2,0.6c-0.1,0.2-0.4,0.2-0.6,0.2s-0.5-0.1-0.6-0.2C397,97.6,396.9,97.4,396.9,97.1z M398.5,107.8h-1.4v-8.5h1.4V107.8z"
		/>
	<path class="st3" d="M400.4,103.5c0-0.8,0.2-1.6,0.5-2.2c0.3-0.7,0.8-1.2,1.4-1.5c0.6-0.4,1.2-0.5,2-0.5c1.2,0,2.1,0.4,2.8,1.2
		s1.1,1.9,1.1,3.2v0.1c0,0.8-0.2,1.6-0.5,2.2c-0.3,0.7-0.8,1.2-1.4,1.5s-1.3,0.5-2,0.5c-1.1,0-2.1-0.4-2.8-1.2s-1.1-1.9-1.1-3.2
		V103.5z M401.9,103.7c0,0.9,0.2,1.7,0.7,2.3c0.4,0.6,1,0.9,1.7,0.9c0.7,0,1.3-0.3,1.8-0.9c0.4-0.6,0.6-1.4,0.6-2.4
		c0-0.9-0.2-1.7-0.7-2.3c-0.4-0.6-1-0.9-1.8-0.9c-0.7,0-1.3,0.3-1.7,0.9S401.9,102.6,401.9,103.7z M404.9,95.8h1.8l-2.1,2.3l-1.2,0
		L404.9,95.8z"/>
	<path class="st3" d="M411.3,99.4l0,1.1c0.6-0.8,1.5-1.2,2.5-1.2c1.8,0,2.7,1,2.7,3v5.6h-1.4v-5.6c0-0.6-0.1-1.1-0.4-1.4
		s-0.7-0.4-1.3-0.4c-0.5,0-0.9,0.1-1.2,0.4c-0.4,0.2-0.6,0.6-0.8,1v6h-1.4v-8.5H411.3z"/>
</g>
<g class="st2">
	<path class="st3" d="M386.6,121.7h-3.7v10.1h-1.5v-10.1h-3.6v-1.2h8.8V121.7z"/>
	<path class="st3" d="M388,121.1c0-0.2,0.1-0.4,0.2-0.6c0.1-0.2,0.4-0.2,0.6-0.2s0.5,0.1,0.6,0.2c0.1,0.2,0.2,0.4,0.2,0.6
		s-0.1,0.4-0.2,0.6c-0.1,0.2-0.4,0.2-0.6,0.2s-0.5-0.1-0.6-0.2C388.1,121.6,388,121.4,388,121.1z M389.6,131.8h-1.4v-8.5h1.4V131.8z
		"/>
	<path class="st3" d="M393.4,123.4v9.4c0,1.6-0.7,2.4-2.2,2.4c-0.3,0-0.6,0-0.9-0.1V134c0.2,0,0.4,0.1,0.7,0.1
		c0.3,0,0.6-0.1,0.7-0.3c0.2-0.2,0.3-0.5,0.3-0.9v-9.5H393.4z M391.8,121.1c0-0.2,0.1-0.4,0.2-0.6c0.1-0.2,0.4-0.2,0.6-0.2
		c0.3,0,0.5,0.1,0.6,0.2c0.1,0.2,0.2,0.4,0.2,0.6s-0.1,0.4-0.2,0.6c-0.1,0.2-0.4,0.2-0.6,0.2s-0.5-0.1-0.6-0.2
		S391.8,121.4,391.8,121.1z"/>
</g>
<g class="st2">
	<path class="st3" d="M467.3,143.6h-1.5v-11.4h1.5V143.6z"/>
	<path class="st3" d="M471.2,135.1l0,1.1c0.6-0.8,1.5-1.2,2.5-1.2c1.8,0,2.7,1,2.7,3v5.6h-1.4V138c0-0.6-0.1-1.1-0.4-1.4
		s-0.7-0.4-1.3-0.4c-0.5,0-0.9,0.1-1.2,0.4c-0.4,0.2-0.6,0.6-0.8,1v6h-1.4v-8.5H471.2z"/>
	<path class="st3" d="M478.7,132.9c0-0.2,0.1-0.4,0.2-0.6c0.1-0.2,0.4-0.2,0.6-0.2s0.5,0.1,0.6,0.2c0.1,0.2,0.2,0.4,0.2,0.6
		s-0.1,0.4-0.2,0.6c-0.1,0.2-0.4,0.2-0.6,0.2s-0.5-0.1-0.6-0.2C478.8,133.3,478.7,133.1,478.7,132.9z M480.3,143.6h-1.4v-8.5h1.4
		V143.6z"/>
	<path class="st3" d="M486,142.5c0.5,0,1-0.2,1.4-0.5c0.4-0.3,0.6-0.7,0.6-1.2h1.4c0,0.5-0.2,0.9-0.5,1.4c-0.3,0.4-0.7,0.8-1.2,1
		c-0.5,0.3-1.1,0.4-1.6,0.4c-1.2,0-2.1-0.4-2.7-1.2s-1-1.8-1-3.2v-0.2c0-0.8,0.2-1.6,0.5-2.2c0.3-0.6,0.7-1.1,1.3-1.5
		c0.6-0.4,1.2-0.5,2-0.5c0.9,0,1.7,0.3,2.4,0.9c0.6,0.6,1,1.3,1,2.2H488c0-0.5-0.2-1-0.6-1.3c-0.4-0.4-0.8-0.5-1.4-0.5
		c-0.7,0-1.3,0.3-1.7,0.8c-0.4,0.5-0.6,1.3-0.6,2.3v0.3c0,1,0.2,1.7,0.6,2.2C484.6,142.3,485.2,142.5,486,142.5z"/>
	<path class="st3" d="M491,142.8c0-0.2,0.1-0.5,0.2-0.6s0.4-0.2,0.7-0.2s0.5,0.1,0.7,0.2c0.2,0.2,0.2,0.4,0.2,0.6
		c0,0.2-0.1,0.4-0.2,0.6c-0.2,0.2-0.4,0.2-0.7,0.2s-0.5-0.1-0.7-0.2S491,143,491,142.8z"/>
</g>
<g class="st2">
	<path class="st3" d="M554.5,133.4h-3.7v10.1h-1.5v-10.1h-3.6v-1.2h8.8V133.4z"/>
	<path class="st3" d="M558.7,143.7c-1.1,0-2.1-0.4-2.8-1.1s-1.1-1.8-1.1-3v-0.3c0-0.8,0.2-1.6,0.5-2.2s0.8-1.2,1.3-1.5
		c0.6-0.4,1.2-0.6,1.9-0.6c1.1,0,2,0.4,2.6,1.1s0.9,1.8,0.9,3.1v0.6h-5.7c0,0.8,0.3,1.5,0.7,2c0.5,0.5,1.1,0.8,1.8,0.8
		c0.5,0,0.9-0.1,1.3-0.3c0.4-0.2,0.7-0.5,0.9-0.8l0.9,0.7C561.2,143.2,560.1,143.7,558.7,143.7z M558.5,136.1
		c-0.6,0-1.1,0.2-1.5,0.6c-0.4,0.4-0.6,1-0.7,1.8h4.2v-0.1c0-0.7-0.2-1.3-0.6-1.7C559.6,136.3,559.1,136.1,558.5,136.1z"/>
	<path class="st3" d="M567.7,136.4c-0.2,0-0.5-0.1-0.7-0.1c-0.9,0-1.6,0.4-1.9,1.2v6h-1.4v-8.5h1.4l0,1c0.5-0.8,1.1-1.1,2-1.1
		c0.3,0,0.5,0,0.6,0.1V136.4z"/>
	<path class="st3" d="M570.4,135.1l0,0.9c0.6-0.7,1.5-1.1,2.5-1.1c1.2,0,2,0.5,2.4,1.4c0.3-0.4,0.6-0.7,1.1-1c0.5-0.2,1-0.4,1.6-0.4
		c1.9,0,2.8,1,2.8,2.9v5.7h-1.4V138c0-0.6-0.1-1.1-0.4-1.4c-0.3-0.3-0.7-0.4-1.4-0.4c-0.5,0-1,0.2-1.3,0.5c-0.4,0.3-0.6,0.8-0.6,1.3
		v5.6h-1.5V138c0-1.2-0.6-1.8-1.8-1.8c-0.9,0-1.6,0.4-1.9,1.2v6.2h-1.4v-8.5H570.4z"/>
	<path class="st3" d="M583.1,142.8c0-0.2,0.1-0.5,0.2-0.6s0.4-0.2,0.7-0.2s0.5,0.1,0.7,0.2c0.2,0.2,0.2,0.4,0.2,0.6
		c0,0.2-0.1,0.4-0.2,0.6c-0.2,0.2-0.4,0.2-0.7,0.2s-0.5-0.1-0.7-0.2S583.1,143,583.1,142.8z"/>
</g>
<g class="st2">
	<path class="st3" d="M645,143.6h-1.5v-11.4h1.5V143.6z"/>
	<path class="st3" d="M648.9,135.1l0,1.1c0.6-0.8,1.5-1.2,2.5-1.2c1.8,0,2.7,1,2.7,3v5.6h-1.4V138c0-0.6-0.1-1.1-0.4-1.4
		s-0.7-0.4-1.3-0.4c-0.5,0-0.9,0.1-1.2,0.4s-0.6,0.6-0.8,1v6h-1.4v-8.5H648.9z"/>
	<path class="st3" d="M656.4,132.9c0-0.2,0.1-0.4,0.2-0.6s0.4-0.2,0.6-0.2s0.5,0.1,0.6,0.2s0.2,0.4,0.2,0.6s-0.1,0.4-0.2,0.6
		s-0.4,0.2-0.6,0.2s-0.5-0.1-0.6-0.2S656.4,133.1,656.4,132.9z M657.9,143.6h-1.4v-8.5h1.4V143.6z"/>
	<path class="st3" d="M663.6,142.5c0.5,0,1-0.2,1.4-0.5s0.6-0.7,0.6-1.2h1.4c0,0.5-0.2,0.9-0.5,1.4s-0.7,0.8-1.2,1s-1.1,0.4-1.6,0.4
		c-1.2,0-2.1-0.4-2.7-1.2s-1-1.8-1-3.2v-0.2c0-0.8,0.2-1.6,0.5-2.2s0.7-1.1,1.3-1.5s1.2-0.5,2-0.5c0.9,0,1.7,0.3,2.4,0.9
		s1,1.3,1,2.2h-1.4c0-0.5-0.2-1-0.6-1.3s-0.8-0.5-1.4-0.5c-0.7,0-1.3,0.3-1.7,0.8s-0.6,1.3-0.6,2.3v0.3c0,1,0.2,1.7,0.6,2.2
		S662.9,142.5,663.6,142.5z"/>
	<path class="st3" d="M668.6,142.8c0-0.2,0.1-0.5,0.2-0.6s0.4-0.2,0.7-0.2s0.5,0.1,0.7,0.2s0.2,0.4,0.2,0.6c0,0.2-0.1,0.4-0.2,0.6
		s-0.4,0.2-0.7,0.2s-0.5-0.1-0.7-0.2S668.6,143,668.6,142.8z"/>
</g>
<g class="st2">
	<path class="st3" d="M734.4,133.4h-3.7v10.1h-1.5v-10.1h-3.6v-1.2h8.8V133.4z"/>
	<path class="st3" d="M738.6,143.7c-1.1,0-2.1-0.4-2.8-1.1s-1.1-1.8-1.1-3v-0.3c0-0.8,0.2-1.6,0.5-2.2s0.8-1.2,1.3-1.5
		c0.6-0.4,1.2-0.6,1.9-0.6c1.1,0,2,0.4,2.6,1.1s0.9,1.8,0.9,3.1v0.6h-5.7c0,0.8,0.3,1.5,0.7,2c0.5,0.5,1.1,0.8,1.8,0.8
		c0.5,0,0.9-0.1,1.3-0.3c0.4-0.2,0.7-0.5,0.9-0.8l0.9,0.7C741.1,143.2,740,143.7,738.6,143.7z M738.4,136.1c-0.6,0-1.1,0.2-1.5,0.6
		c-0.4,0.4-0.6,1-0.7,1.8h4.2v-0.1c0-0.7-0.2-1.3-0.6-1.7C739.5,136.3,739,136.1,738.4,136.1z"/>
	<path class="st3" d="M747.7,136.4c-0.2,0-0.5-0.1-0.7-0.1c-0.9,0-1.6,0.4-1.9,1.2v6h-1.4v-8.5h1.4l0,1c0.5-0.8,1.1-1.1,2-1.1
		c0.3,0,0.5,0,0.6,0.1V136.4z"/>
	<path class="st3" d="M750.4,135.1l0,0.9c0.6-0.7,1.5-1.1,2.5-1.1c1.2,0,2,0.5,2.4,1.4c0.3-0.4,0.6-0.7,1.1-1c0.5-0.2,1-0.4,1.6-0.4
		c1.9,0,2.8,1,2.8,2.9v5.7h-1.4V138c0-0.6-0.1-1.1-0.4-1.4c-0.3-0.3-0.7-0.4-1.4-0.4c-0.5,0-1,0.2-1.3,0.5c-0.4,0.3-0.6,0.8-0.6,1.3
		v5.6h-1.5V138c0-1.2-0.6-1.8-1.8-1.8c-0.9,0-1.6,0.4-1.9,1.2v6.2H749v-8.5H750.4z"/>
	<path class="st3" d="M763.1,142.8c0-0.2,0.1-0.5,0.2-0.6s0.4-0.2,0.7-0.2s0.5,0.1,0.7,0.2c0.2,0.2,0.2,0.4,0.2,0.6
		c0,0.2-0.1,0.4-0.2,0.6c-0.2,0.2-0.4,0.2-0.7,0.2s-0.5-0.1-0.7-0.2S763.1,143,763.1,142.8z"/>
</g>
<g class="st2">
	<path class="st3" d="M829.8,133.4h-3.7v10.1h-1.5v-10.1H821v-1.2h8.8V133.4z"/>
	<path class="st3" d="M830.1,139.3c0-0.8,0.2-1.6,0.5-2.2c0.3-0.7,0.8-1.2,1.4-1.5c0.6-0.4,1.2-0.5,2-0.5c1.2,0,2.1,0.4,2.8,1.2
		s1.1,1.9,1.1,3.2v0.1c0,0.8-0.2,1.6-0.5,2.2c-0.3,0.7-0.8,1.2-1.4,1.5s-1.3,0.5-2,0.5c-1.1,0-2.1-0.4-2.8-1.2s-1.1-1.9-1.1-3.2
		V139.3z M831.6,139.4c0,0.9,0.2,1.7,0.7,2.3c0.4,0.6,1,0.9,1.7,0.9c0.7,0,1.3-0.3,1.8-0.9c0.4-0.6,0.6-1.4,0.6-2.4
		c0-0.9-0.2-1.7-0.7-2.3c-0.4-0.6-1-0.9-1.8-0.9c-0.7,0-1.3,0.3-1.7,0.9S831.6,138.4,831.6,139.4z"/>
	<path class="st3" d="M841.6,133.1v2h1.6v1.1h-1.6v5.2c0,0.3,0.1,0.6,0.2,0.8c0.1,0.2,0.4,0.3,0.7,0.3c0.2,0,0.4,0,0.7-0.1v1.2
		c-0.4,0.1-0.8,0.2-1.1,0.2c-0.6,0-1.1-0.2-1.5-0.6s-0.5-0.9-0.5-1.7v-5.2h-1.5v-1.1h1.5v-2H841.6z"/>
	<path class="st3" d="M844.9,142.8c0-0.2,0.1-0.5,0.2-0.6s0.4-0.2,0.7-0.2s0.5,0.1,0.7,0.2c0.2,0.2,0.2,0.4,0.2,0.6
		c0,0.2-0.1,0.4-0.2,0.6c-0.2,0.2-0.4,0.2-0.7,0.2s-0.5-0.1-0.7-0.2S844.9,143,844.9,142.8z"/>
</g>
<g class="st2">
	<path class="st3" d="M908.3,142.3h5.4v1.2h-6.9v-11.4h1.5V142.3z"/>
	<path class="st3" d="M915.2,132.9c0-0.2,0.1-0.4,0.2-0.6s0.4-0.2,0.6-0.2s0.5,0.1,0.6,0.2s0.2,0.4,0.2,0.6s-0.1,0.4-0.2,0.6
		s-0.4,0.2-0.6,0.2s-0.5-0.1-0.6-0.2S915.2,133.1,915.2,132.9z M916.7,143.6h-1.4v-8.5h1.4V143.6z"/>
	<path class="st3" d="M926.2,139.4c0,1.3-0.3,2.3-0.9,3.1s-1.4,1.2-2.4,1.2c-1.1,0-1.9-0.4-2.5-1.1l-0.1,1h-1.3v-12h1.4v4.5
		c0.6-0.7,1.4-1.1,2.4-1.1s1.8,0.4,2.4,1.2s0.9,1.8,0.9,3.2V139.4z M924.8,139.3c0-1-0.2-1.7-0.6-2.3s-0.9-0.8-1.6-0.8
		c-1,0-1.6,0.4-2.1,1.3v3.7c0.4,0.9,1.1,1.3,2.1,1.3c0.7,0,1.2-0.3,1.6-0.8S924.8,140.3,924.8,139.3z"/>
	<path class="st3" d="M932.1,136.4c-0.2,0-0.5-0.1-0.7-0.1c-0.9,0-1.6,0.4-1.9,1.2v6H928v-8.5h1.4l0,1c0.5-0.8,1.1-1.1,2-1.1
		c0.3,0,0.5,0,0.6,0.1V136.4z"/>
	<path class="st3" d="M936.8,143.7c-1.1,0-2.1-0.4-2.8-1.1s-1.1-1.8-1.1-3v-0.3c0-0.8,0.2-1.6,0.5-2.2s0.8-1.2,1.3-1.5
		s1.2-0.6,1.9-0.6c1.1,0,2,0.4,2.6,1.1s0.9,1.8,0.9,3.1v0.6h-5.7c0,0.8,0.3,1.5,0.7,2s1.1,0.8,1.8,0.8c0.5,0,0.9-0.1,1.3-0.3
		s0.7-0.5,0.9-0.8l0.9,0.7C939.3,143.2,938.2,143.7,936.8,143.7z M936.6,136.1c-0.6,0-1.1,0.2-1.5,0.6s-0.6,1-0.7,1.8h4.2v-0.1
		c0-0.7-0.2-1.3-0.6-1.7S937.2,136.1,936.6,136.1z"/>
</g>
<g class="st2">
	<path class="st3" d="M995,143.6h-1.5v-11.4h1.5V143.6z"/>
	<path class="st3" d="M998.8,135.1l0,1.1c0.6-0.8,1.5-1.2,2.5-1.2c1.8,0,2.7,1,2.7,3v5.6h-1.4V138c0-0.6-0.1-1.1-0.4-1.4
		s-0.7-0.4-1.3-0.4c-0.5,0-0.9,0.1-1.2,0.4c-0.4,0.2-0.6,0.6-0.8,1v6h-1.4v-8.5H998.8z"/>
	<path class="st3" d="M1005.9,139.3c0-1.3,0.3-2.3,0.9-3.1c0.6-0.8,1.4-1.2,2.4-1.2c1,0,1.8,0.3,2.4,1v-4.4h1.4v12h-1.3l-0.1-0.9
		c-0.6,0.7-1.4,1.1-2.4,1.1c-1,0-1.8-0.4-2.4-1.2s-0.9-1.8-0.9-3.1V139.3z M1007.4,139.4c0,1,0.2,1.7,0.6,2.2
		c0.4,0.5,0.9,0.8,1.6,0.8c0.9,0,1.6-0.4,2-1.2v-3.9c-0.4-0.8-1.1-1.2-2-1.2c-0.7,0-1.3,0.3-1.7,0.8
		C1007.6,137.6,1007.4,138.4,1007.4,139.4z"/>
	<path class="st3" d="M1018.8,143.7c-1.1,0-2.1-0.4-2.8-1.1s-1.1-1.8-1.1-3v-0.3c0-0.8,0.2-1.6,0.5-2.2s0.8-1.2,1.3-1.5
		c0.6-0.4,1.2-0.6,1.9-0.6c1.1,0,2,0.4,2.6,1.1s0.9,1.8,0.9,3.1v0.6h-5.7c0,0.8,0.3,1.5,0.7,2c0.5,0.5,1.1,0.8,1.8,0.8
		c0.5,0,0.9-0.1,1.3-0.3c0.4-0.2,0.7-0.5,0.9-0.8l0.9,0.7C1021.3,143.2,1020.2,143.7,1018.8,143.7z M1018.7,136.1
		c-0.6,0-1.1,0.2-1.5,0.6c-0.4,0.4-0.6,1-0.7,1.8h4.2v-0.1c0-0.7-0.2-1.3-0.6-1.7C1019.7,136.3,1019.3,136.1,1018.7,136.1z"/>
	<path class="st3" d="M1030.9,139.4c0,1.3-0.3,2.3-0.9,3.1c-0.6,0.8-1.4,1.2-2.4,1.2c-1,0-1.8-0.3-2.4-1v4.1h-1.4v-11.7h1.3l0.1,0.9
		c0.6-0.7,1.4-1.1,2.5-1.1c1,0,1.8,0.4,2.4,1.1c0.6,0.8,0.9,1.8,0.9,3.2V139.4z M1029.5,139.3c0-1-0.2-1.7-0.6-2.3s-1-0.8-1.7-0.8
		c-0.9,0-1.5,0.4-2,1.2v4c0.4,0.8,1.1,1.2,2,1.2c0.7,0,1.2-0.3,1.7-0.8C1029.3,141.2,1029.5,140.4,1029.5,139.3z"/>
</g>
<g class="st2">
	<path class="st3" d="M1088.5,122.4v4.5h-1.5v-11.4h4.2c1.2,0,2.2,0.3,2.9,1c0.7,0.6,1.1,1.5,1.1,2.5c0,1.1-0.3,2-1,2.6
		c-0.7,0.6-1.7,0.9-3,0.9H1088.5z M1088.5,121.1h2.7c0.8,0,1.4-0.2,1.8-0.6c0.4-0.4,0.6-0.9,0.6-1.6c0-0.7-0.2-1.2-0.6-1.6
		c-0.4-0.4-1-0.6-1.8-0.6h-2.8V121.1z"/>
	<path class="st3" d="M1103.3,121.8h-4.8v5h-1.5v-11.4h7v1.2h-5.5v3.9h4.8V121.8z"/>
	<path class="st3" d="M1107.5,126.8h-1.5v-11.4h1.5V126.8z"/>
	<path class="st3" d="M1116.7,123.8h-4.8l-1.1,3h-1.5l4.3-11.4h1.3l4.4,11.4h-1.5L1116.7,123.8z M1112.4,122.6h3.9l-1.9-5.3
		L1112.4,122.6z"/>
</g>
<g class="st2">
	<path class="st3" d="M1100.4,146.4v4.5h-1.5v-11.4h4.2c1.2,0,2.2,0.3,2.9,1c0.7,0.6,1.1,1.5,1.1,2.5c0,1.1-0.3,2-1,2.6
		c-0.7,0.6-1.7,0.9-3,0.9H1100.4z M1100.4,145.1h2.7c0.8,0,1.4-0.2,1.8-0.6c0.4-0.4,0.6-0.9,0.6-1.6c0-0.7-0.2-1.2-0.6-1.6
		c-0.4-0.4-1-0.6-1.8-0.6h-2.8V145.1z"/>
</g>
<g class="st2">
	<path class="st3" d="M1187.1,115.5v7.7c0,1.1-0.3,2-1,2.6s-1.6,1.1-2.7,1.1l-0.4,0c-1.2,0-2.2-0.3-3-1s-1.1-1.6-1.1-2.8v-7.8h1.5
		v7.7c0,0.8,0.2,1.5,0.7,1.9s1.1,0.7,1.9,0.7c0.8,0,1.5-0.2,1.9-0.7s0.7-1.1,0.7-1.9v-7.7H1187.1z"/>
	<path class="st3" d="M1195.8,121.8h-4.8v5h-1.5v-11.4h7v1.2h-5.5v3.9h4.8V121.8z"/>
	<path class="st3" d="M1206.4,116.7h-3.7v10.1h-1.5v-10.1h-3.6v-1.2h8.8V116.7z"/>
</g>
<g class="st2">
	<path class="st3" d="M1189.4,147.8h-4.8l-1.1,3h-1.5l4.3-11.4h1.3l4.4,11.4h-1.5L1189.4,147.8z M1185.1,146.6h3.9l-1.9-5.3
		L1185.1,146.6z"/>
	<path class="st3" d="M1199.9,147.8h-4.8l-1.1,3h-1.5l4.3-11.4h1.3l4.4,11.4h-1.5L1199.9,147.8z M1195.6,146.6h3.9l-1.9-5.3
		L1195.6,146.6z"/>
</g>
<g class="st2">
	<path class="st3" d="M237.6,143.6v-11.4h3.2c1,0,1.9,0.2,2.6,0.7c0.8,0.4,1.3,1.1,1.8,1.9s0.6,1.7,0.6,2.8v0.7c0,1.1-0.2,2-0.6,2.8
		s-1,1.4-1.8,1.9c-0.8,0.4-1.7,0.7-2.7,0.7H237.6z M239.1,133.4v8.9h1.6c1.2,0,2.1-0.4,2.7-1.1c0.6-0.7,1-1.7,1-3.1v-0.7
		c0-1.3-0.3-2.3-0.9-3c-0.6-0.7-1.5-1.1-2.6-1.1H239.1z"/>
	<path class="st3" d="M251.4,143.7c-1.1,0-2.1-0.4-2.8-1.1s-1.1-1.8-1.1-3v-0.3c0-0.8,0.2-1.6,0.5-2.2s0.8-1.2,1.3-1.5
		c0.6-0.4,1.2-0.6,1.9-0.6c1.1,0,2,0.4,2.6,1.1s0.9,1.8,0.9,3.1v0.6H249c0,0.8,0.3,1.5,0.7,2c0.5,0.5,1.1,0.8,1.8,0.8
		c0.5,0,0.9-0.1,1.3-0.3c0.4-0.2,0.7-0.5,0.9-0.8l0.9,0.7C253.9,143.2,252.8,143.7,251.4,143.7z M251.2,136.1
		c-0.6,0-1.1,0.2-1.5,0.6c-0.4,0.4-0.6,1-0.7,1.8h4.2v-0.1c0-0.7-0.2-1.3-0.6-1.7C252.3,136.3,251.8,136.1,251.2,136.1z"/>
	<path class="st3" d="M261.3,141.3c0-0.4-0.1-0.7-0.4-0.9c-0.3-0.2-0.8-0.4-1.5-0.6c-0.7-0.2-1.3-0.3-1.7-0.6s-0.7-0.5-1-0.8
		c-0.2-0.3-0.3-0.7-0.3-1.1c0-0.7,0.3-1.3,0.9-1.8s1.3-0.7,2.2-0.7c1,0,1.7,0.2,2.3,0.7c0.6,0.5,0.9,1.1,0.9,1.9h-1.5
		c0-0.4-0.2-0.7-0.5-1s-0.8-0.4-1.3-0.4c-0.5,0-0.9,0.1-1.2,0.3s-0.4,0.5-0.4,0.9c0,0.3,0.1,0.6,0.4,0.8c0.3,0.2,0.8,0.3,1.5,0.5
		c0.7,0.2,1.3,0.4,1.8,0.6c0.4,0.2,0.8,0.5,1,0.8c0.2,0.3,0.3,0.7,0.3,1.2c0,0.8-0.3,1.4-0.9,1.8c-0.6,0.5-1.4,0.7-2.4,0.7
		c-0.7,0-1.3-0.1-1.8-0.4c-0.5-0.2-0.9-0.6-1.2-1c-0.3-0.4-0.4-0.9-0.4-1.4h1.4c0,0.5,0.2,0.9,0.6,1.2c0.4,0.3,0.8,0.4,1.4,0.4
		c0.5,0,1-0.1,1.3-0.3C261.1,142,261.3,141.7,261.3,141.3z"/>
	<path class="st3" d="M268,142.5c0.5,0,1-0.2,1.4-0.5c0.4-0.3,0.6-0.7,0.6-1.2h1.4c0,0.5-0.2,0.9-0.5,1.4c-0.3,0.4-0.7,0.8-1.2,1
		c-0.5,0.3-1.1,0.4-1.6,0.4c-1.2,0-2.1-0.4-2.7-1.2s-1-1.8-1-3.2v-0.2c0-0.8,0.2-1.6,0.5-2.2c0.3-0.6,0.7-1.1,1.3-1.5
		c0.6-0.4,1.2-0.5,2-0.5c0.9,0,1.7,0.3,2.4,0.9c0.6,0.6,1,1.3,1,2.2H270c0-0.5-0.2-1-0.6-1.3c-0.4-0.4-0.8-0.5-1.4-0.5
		c-0.7,0-1.3,0.3-1.7,0.8c-0.4,0.5-0.6,1.3-0.6,2.3v0.3c0,1,0.2,1.7,0.6,2.2C266.7,142.3,267.2,142.5,268,142.5z"/>
	<path class="st3" d="M277.1,136.4c-0.2,0-0.5-0.1-0.7-0.1c-0.9,0-1.6,0.4-1.9,1.2v6H273v-8.5h1.4l0,1c0.5-0.8,1.1-1.1,2-1.1
		c0.3,0,0.5,0,0.6,0.1V136.4z"/>
	<path class="st3" d="M278.4,132.9c0-0.2,0.1-0.4,0.2-0.6c0.1-0.2,0.4-0.2,0.6-0.2s0.5,0.1,0.6,0.2c0.1,0.2,0.2,0.4,0.2,0.6
		s-0.1,0.4-0.2,0.6c-0.1,0.2-0.4,0.2-0.6,0.2s-0.5-0.1-0.6-0.2C278.5,133.3,278.4,133.1,278.4,132.9z M280,143.6h-1.4v-8.5h1.4
		V143.6z"/>
	<path class="st3" d="M289.4,139.4c0,1.3-0.3,2.3-0.9,3.1c-0.6,0.8-1.4,1.2-2.4,1.2c-1,0-1.8-0.3-2.4-1v4.1h-1.4v-11.7h1.3l0.1,0.9
		c0.6-0.7,1.4-1.1,2.5-1.1c1,0,1.8,0.4,2.4,1.1c0.6,0.8,0.9,1.8,0.9,3.2V139.4z M288,139.3c0-1-0.2-1.7-0.6-2.3s-1-0.8-1.7-0.8
		c-0.9,0-1.5,0.4-2,1.2v4c0.4,0.8,1.1,1.2,2,1.2c0.7,0,1.2-0.3,1.7-0.8C287.8,141.2,288,140.4,288,139.3z"/>
	<path class="st3" d="M291.3,142.8c0-0.2,0.1-0.5,0.2-0.6s0.4-0.2,0.7-0.2s0.5,0.1,0.7,0.2c0.2,0.2,0.2,0.4,0.2,0.6
		c0,0.2-0.1,0.4-0.2,0.6c-0.2,0.2-0.4,0.2-0.7,0.2s-0.5-0.1-0.7-0.2S291.3,143,291.3,142.8z"/>
</g>
<g id="Trazado_879058">
	<path class="st1" d="M1059.3,91.5H432.6v-1h626.7V91.5z"/>
</g>
<g class="st2">
	<path class="st3" d="M486.5,69.5v4.5H485V62.6h4.2c1.2,0,2.2,0.3,2.9,1c0.7,0.6,1.1,1.5,1.1,2.5c0,1.1-0.3,2-1,2.6
		c-0.7,0.6-1.7,0.9-3,0.9H486.5z M486.5,68.3h2.7c0.8,0,1.4-0.2,1.8-0.6c0.4-0.4,0.6-0.9,0.6-1.6c0-0.7-0.2-1.2-0.6-1.6
		c-0.4-0.4-1-0.6-1.8-0.6h-2.8V68.3z"/>
	<path class="st3" d="M498.9,66.8c-0.2,0-0.5-0.1-0.7-0.1c-0.9,0-1.6,0.4-1.9,1.2v6h-1.4v-8.5h1.4l0,1c0.5-0.8,1.1-1.1,2-1.1
		c0.3,0,0.5,0,0.6,0.1V66.8z"/>
	<path class="st3" d="M500.3,63.2c0-0.2,0.1-0.4,0.2-0.6c0.1-0.2,0.4-0.2,0.6-0.2s0.5,0.1,0.6,0.2c0.1,0.2,0.2,0.4,0.2,0.6
		s-0.1,0.4-0.2,0.6c-0.1,0.2-0.4,0.2-0.6,0.2s-0.5-0.1-0.6-0.2C500.3,63.7,500.3,63.5,500.3,63.2z M501.8,73.9h-1.4v-8.5h1.4V73.9z"
		/>
	<path class="st3" d="M505.5,65.5l0,0.9c0.6-0.7,1.5-1.1,2.5-1.1c1.2,0,2,0.5,2.4,1.4c0.3-0.4,0.6-0.7,1.1-1c0.5-0.2,1-0.4,1.6-0.4
		c1.9,0,2.8,1,2.8,2.9v5.7h-1.4v-5.6c0-0.6-0.1-1.1-0.4-1.4c-0.3-0.3-0.7-0.4-1.4-0.4c-0.5,0-1,0.2-1.3,0.5
		c-0.4,0.3-0.6,0.8-0.6,1.3v5.6h-1.5v-5.5c0-1.2-0.6-1.8-1.8-1.8c-0.9,0-1.6,0.4-1.9,1.2v6.2h-1.4v-8.5H505.5z"/>
	<path class="st3" d="M518.2,73.2c0-0.2,0.1-0.5,0.2-0.6s0.4-0.2,0.7-0.2s0.5,0.1,0.7,0.2c0.2,0.2,0.2,0.4,0.2,0.6
		c0,0.2-0.1,0.4-0.2,0.6c-0.2,0.2-0.4,0.2-0.7,0.2s-0.5-0.1-0.7-0.2S518.2,73.4,518.2,73.2z"/>
	<path class="st3" d="M528.9,68.9h-4.8v5h-1.5V62.6h7v1.2h-5.5v3.9h4.8V68.9z"/>
	<path class="st3" d="M534.6,74.1c-1.1,0-2.1-0.4-2.8-1.1s-1.1-1.8-1.1-3v-0.3c0-0.8,0.2-1.6,0.5-2.2s0.8-1.2,1.3-1.5
		c0.6-0.4,1.2-0.6,1.9-0.6c1.1,0,2,0.4,2.6,1.1s0.9,1.8,0.9,3.1v0.6h-5.7c0,0.8,0.3,1.5,0.7,2c0.5,0.5,1.1,0.8,1.8,0.8
		c0.5,0,0.9-0.1,1.3-0.3c0.4-0.2,0.7-0.5,0.9-0.8l0.9,0.7C537,73.5,536,74.1,534.6,74.1z M534.4,66.5c-0.6,0-1.1,0.2-1.5,0.6
		c-0.4,0.4-0.6,1-0.7,1.8h4.2v-0.1c0-0.7-0.2-1.3-0.6-1.7C535.5,66.7,535,66.5,534.4,66.5z"/>
	<path class="st3" d="M542.9,72.9c0.5,0,1-0.2,1.4-0.5c0.4-0.3,0.6-0.7,0.6-1.2h1.4c0,0.5-0.2,0.9-0.5,1.4c-0.3,0.4-0.7,0.8-1.2,1
		c-0.5,0.3-1.1,0.4-1.6,0.4c-1.2,0-2.1-0.4-2.7-1.2s-1-1.8-1-3.2v-0.2c0-0.8,0.2-1.6,0.5-2.2c0.3-0.6,0.7-1.1,1.3-1.5
		c0.6-0.4,1.2-0.5,2-0.5c0.9,0,1.7,0.3,2.4,0.9c0.6,0.6,1,1.3,1,2.2h-1.4c0-0.5-0.2-1-0.6-1.3c-0.4-0.4-0.8-0.5-1.4-0.5
		c-0.7,0-1.3,0.3-1.7,0.8c-0.4,0.5-0.6,1.3-0.6,2.3v0.3c0,1,0.2,1.7,0.6,2.2C541.6,72.6,542.2,72.9,542.9,72.9z"/>
	<path class="st3" d="M549.4,66.5c0.6-0.8,1.5-1.2,2.5-1.2c1.8,0,2.7,1,2.7,3v5.6h-1.4v-5.6c0-0.6-0.1-1.1-0.4-1.4s-0.7-0.4-1.3-0.4
		c-0.5,0-0.9,0.1-1.2,0.4c-0.4,0.2-0.6,0.6-0.8,1v6h-1.4v-12h1.4V66.5z"/>
	<path class="st3" d="M561.9,73.9c-0.1-0.2-0.2-0.5-0.2-0.9c-0.7,0.7-1.5,1-2.4,1c-0.8,0-1.5-0.2-2.1-0.7c-0.5-0.5-0.8-1.1-0.8-1.8
		c0-0.9,0.3-1.6,1-2.1c0.7-0.5,1.6-0.7,2.8-0.7h1.4v-0.7c0-0.5-0.2-0.9-0.5-1.2c-0.3-0.3-0.7-0.4-1.3-0.4c-0.5,0-0.9,0.1-1.3,0.4
		c-0.3,0.3-0.5,0.6-0.5,0.9h-1.5c0-0.4,0.1-0.8,0.4-1.2c0.3-0.4,0.7-0.7,1.2-0.9c0.5-0.2,1.1-0.3,1.7-0.3c1,0,1.7,0.2,2.3,0.7
		c0.6,0.5,0.8,1.2,0.9,2V72c0,0.8,0.1,1.4,0.3,1.9v0.1H561.9z M559.5,72.8c0.5,0,0.9-0.1,1.3-0.4s0.7-0.5,0.9-0.9v-1.7h-1.1
		c-1.8,0-2.7,0.5-2.7,1.6c0,0.5,0.2,0.8,0.5,1.1C558.7,72.7,559.1,72.8,559.5,72.8z"/>
</g>
<g class="st2">
	<path class="st3" d="M678.5,62.6v7.7c0,1.1-0.3,2-1,2.6c-0.7,0.7-1.6,1.1-2.7,1.1l-0.4,0c-1.2,0-2.2-0.3-3-1
		c-0.7-0.7-1.1-1.6-1.1-2.8v-7.8h1.5v7.7c0,0.8,0.2,1.5,0.7,1.9s1.1,0.7,1.9,0.7c0.8,0,1.5-0.2,1.9-0.7c0.5-0.5,0.7-1.1,0.7-1.9
		v-7.7H678.5z"/>
	<path class="st3" d="M682.2,73.9h-1.4v-12h1.4V73.9z"/>
	<path class="st3" d="M686.5,63.4v2h1.6v1.1h-1.6v5.2c0,0.3,0.1,0.6,0.2,0.8c0.1,0.2,0.4,0.3,0.7,0.3c0.2,0,0.4,0,0.7-0.1v1.2
		c-0.4,0.1-0.8,0.2-1.1,0.2c-0.6,0-1.1-0.2-1.5-0.6s-0.5-0.9-0.5-1.7v-5.2h-1.5v-1.1h1.5v-2H686.5z"/>
	<path class="st3" d="M700.2,68.9h-4.8v5h-1.5V62.6h7v1.2h-5.5v3.9h4.8V68.9z"/>
	<path class="st3" d="M705.9,74.1c-1.1,0-2.1-0.4-2.8-1.1s-1.1-1.8-1.1-3v-0.3c0-0.8,0.2-1.6,0.5-2.2s0.8-1.2,1.3-1.5
		c0.6-0.4,1.2-0.6,1.9-0.6c1.1,0,2,0.4,2.6,1.1s0.9,1.8,0.9,3.1v0.6h-5.7c0,0.8,0.3,1.5,0.7,2c0.5,0.5,1.1,0.8,1.8,0.8
		c0.5,0,0.9-0.1,1.3-0.3c0.4-0.2,0.7-0.5,0.9-0.8l0.9,0.7C708.4,73.5,707.3,74.1,705.9,74.1z M705.7,66.5c-0.6,0-1.1,0.2-1.5,0.6
		c-0.4,0.4-0.6,1-0.7,1.8h4.2v-0.1c0-0.7-0.2-1.3-0.6-1.7C706.8,66.7,706.3,66.5,705.7,66.5z"/>
	<path class="st3" d="M714.2,72.9c0.5,0,1-0.2,1.4-0.5c0.4-0.3,0.6-0.7,0.6-1.2h1.4c0,0.5-0.2,0.9-0.5,1.4c-0.3,0.4-0.7,0.8-1.2,1
		c-0.5,0.3-1.1,0.4-1.6,0.4c-1.2,0-2.1-0.4-2.7-1.2s-1-1.8-1-3.2v-0.2c0-0.8,0.2-1.6,0.5-2.2c0.3-0.6,0.7-1.1,1.3-1.5
		c0.6-0.4,1.2-0.5,2-0.5c0.9,0,1.7,0.3,2.4,0.9c0.6,0.6,1,1.3,1,2.2h-1.4c0-0.5-0.2-1-0.6-1.3c-0.4-0.4-0.8-0.5-1.4-0.5
		c-0.7,0-1.3,0.3-1.7,0.8c-0.4,0.5-0.6,1.3-0.6,2.3v0.3c0,1,0.2,1.7,0.6,2.2C712.9,72.6,713.5,72.9,714.2,72.9z"/>
	<path class="st3" d="M720.7,66.5c0.6-0.8,1.5-1.2,2.5-1.2c1.8,0,2.7,1,2.7,3v5.6h-1.4v-5.6c0-0.6-0.1-1.1-0.4-1.4s-0.7-0.4-1.3-0.4
		c-0.5,0-0.9,0.1-1.2,0.4c-0.4,0.2-0.6,0.6-0.8,1v6h-1.4v-12h1.4V66.5z"/>
	<path class="st3" d="M733.3,73.9c-0.1-0.2-0.2-0.5-0.2-0.9c-0.7,0.7-1.5,1-2.4,1c-0.8,0-1.5-0.2-2.1-0.7c-0.5-0.5-0.8-1.1-0.8-1.8
		c0-0.9,0.3-1.6,1-2.1c0.7-0.5,1.6-0.7,2.8-0.7h1.4v-0.7c0-0.5-0.2-0.9-0.5-1.2c-0.3-0.3-0.7-0.4-1.3-0.4c-0.5,0-0.9,0.1-1.3,0.4
		c-0.3,0.3-0.5,0.6-0.5,0.9H728c0-0.4,0.1-0.8,0.4-1.2c0.3-0.4,0.7-0.7,1.2-0.9c0.5-0.2,1.1-0.3,1.7-0.3c1,0,1.7,0.2,2.3,0.7
		c0.6,0.5,0.8,1.2,0.9,2V72c0,0.8,0.1,1.4,0.3,1.9v0.1H733.3z M730.9,72.8c0.5,0,0.9-0.1,1.3-0.4s0.7-0.5,0.9-0.9v-1.7h-1.1
		c-1.8,0-2.7,0.5-2.7,1.6c0,0.5,0.2,0.8,0.5,1.1C730,72.7,730.4,72.8,730.9,72.8z"/>
</g>
<g class="st2">
	<path class="st3" d="M905.2,73.9h-1.5v-5.3H898v5.3h-1.5V62.6h1.5v4.9h5.7v-4.9h1.5V73.9z"/>
	<path class="st3" d="M907.3,69.6c0-0.8,0.2-1.6,0.5-2.2c0.3-0.7,0.8-1.2,1.4-1.5c0.6-0.4,1.2-0.5,2-0.5c1.2,0,2.1,0.4,2.8,1.2
		s1.1,1.9,1.1,3.2v0.1c0,0.8-0.2,1.6-0.5,2.2c-0.3,0.7-0.8,1.2-1.4,1.5s-1.3,0.5-2,0.5c-1.1,0-2.1-0.4-2.8-1.2s-1.1-1.9-1.1-3.2
		V69.6z M908.7,69.8c0,0.9,0.2,1.7,0.7,2.3c0.4,0.6,1,0.9,1.7,0.9c0.7,0,1.3-0.3,1.8-0.9c0.4-0.6,0.6-1.4,0.6-2.4
		c0-0.9-0.2-1.7-0.7-2.3c-0.4-0.6-1-0.9-1.8-0.9c-0.7,0-1.3,0.3-1.7,0.9S908.7,68.7,908.7,69.8z"/>
	<path class="st3" d="M918.3,73.9h-1.4v-12h1.4V73.9z"/>
	<path class="st3" d="M920.3,69.6c0-1.3,0.3-2.4,0.9-3.1s1.4-1.2,2.4-1.2c1,0,1.8,0.4,2.4,1.1l0.1-0.9h1.3v8.2c0,1.1-0.3,2-1,2.6
		s-1.5,0.9-2.6,0.9c-0.6,0-1.2-0.1-1.8-0.4c-0.6-0.3-1-0.6-1.3-1.1l0.8-0.9c0.6,0.8,1.4,1.1,2.3,1.1c0.7,0,1.3-0.2,1.6-0.6
		c0.4-0.4,0.6-1,0.6-1.7v-0.7c-0.6,0.7-1.4,1-2.4,1c-1,0-1.8-0.4-2.4-1.2C920.6,72.1,920.3,71,920.3,69.6z M921.8,69.8
		c0,1,0.2,1.7,0.6,2.2s0.9,0.8,1.6,0.8c0.9,0,1.6-0.4,2-1.2v-3.9c-0.4-0.8-1.1-1.2-2-1.2c-0.7,0-1.3,0.3-1.6,0.8
		C922,67.9,921.8,68.7,921.8,69.8z"/>
	<path class="st3" d="M934.9,73.1c-0.6,0.7-1.4,1-2.5,1c-0.9,0-1.6-0.3-2.1-0.8c-0.5-0.5-0.7-1.3-0.7-2.3v-5.5h1.4v5.5
		c0,1.3,0.5,1.9,1.6,1.9c1.1,0,1.8-0.4,2.2-1.2v-6.1h1.4v8.5h-1.4L934.9,73.1z"/>
	<path class="st3" d="M942.5,66.8c-0.2,0-0.5-0.1-0.7-0.1c-0.9,0-1.6,0.4-1.9,1.2v6h-1.4v-8.5h1.4l0,1c0.5-0.8,1.1-1.1,2-1.1
		c0.3,0,0.5,0,0.6,0.1V66.8z"/>
	<path class="st3" d="M948.8,73.9c-0.1-0.2-0.2-0.5-0.2-0.9c-0.7,0.7-1.5,1-2.4,1c-0.8,0-1.5-0.2-2.1-0.7c-0.5-0.5-0.8-1.1-0.8-1.8
		c0-0.9,0.3-1.6,1-2.1c0.7-0.5,1.6-0.7,2.8-0.7h1.4v-0.7c0-0.5-0.2-0.9-0.5-1.2c-0.3-0.3-0.7-0.4-1.3-0.4c-0.5,0-0.9,0.1-1.3,0.4
		c-0.3,0.3-0.5,0.6-0.5,0.9h-1.5c0-0.4,0.1-0.8,0.4-1.2c0.3-0.4,0.7-0.7,1.2-0.9c0.5-0.2,1.1-0.3,1.7-0.3c1,0,1.7,0.2,2.3,0.7
		c0.6,0.5,0.8,1.2,0.9,2V72c0,0.8,0.1,1.4,0.3,1.9v0.1H948.8z M946.4,72.8c0.5,0,0.9-0.1,1.3-0.4s0.7-0.5,0.9-0.9v-1.7h-1.1
		c-1.8,0-2.7,0.5-2.7,1.6c0,0.5,0.2,0.8,0.5,1.1C945.5,72.7,945.9,72.8,946.4,72.8z"/>
</g>
<g id="Trazado_879059">
	<path class="st1" d="M184.7,52.1h-1V0h1V52.1z"/>
</g>
<g id="Trazado_879060">
	<path class="st1" d="M433.2,52.5h-1V0h1V52.5z"/>
</g>
<g id="Trazado_879061">
	<path class="st1" d="M524.4,52.5h-1V0.4h1V52.5z"/>
</g>
<g id="Trazado_879062">
	<path class="st1" d="M613.5,52.5h-1V0.4h1V52.5z"/>
</g>
<g id="Trazado_879063">
	<path class="st1" d="M702.7,52.5h-1V0.3h1V52.5z"/>
</g>
<g id="Trazado_879064">
	<path class="st1" d="M881,52.5h-1V0.4h1V52.5z"/>
</g>
<g id="Trazado_879065">
	<path class="st1" d="M792.2,52.5h-1V0.4h1V52.5z"/>
</g>
<g id="Trazado_879066">
	<path class="st1" d="M970.5,52.5h-1V0.3h1V52.5z"/>
</g>
<g id="Trazado_879067">
	<path class="st1" d="M1059.3,52.5h-1V0.3h1V52.5z"/>
</g>
<g id="Trazado_879068">
	<path class="st1" d="M1148.6,52.5h-1V0.3h1V52.5z"/>
</g>
<g class="st2">
	<path class="st3" d="M100.1,30.7h-1.5v-9.6l-2.9,1.1v-1.3l4.1-1.6h0.2V30.7z"/>
</g>
<g class="st2">
	<path class="st3" d="M47.5,149.6c0-0.2,0.1-0.4,0.2-0.6c0.1-0.2,0.4-0.2,0.6-0.2s0.5,0.1,0.6,0.2c0.1,0.2,0.2,0.4,0.2,0.6
		s-0.1,0.4-0.2,0.6c-0.1,0.2-0.4,0.2-0.6,0.2s-0.5-0.1-0.6-0.2C47.5,150,47.5,149.8,47.5,149.6z M49,160.3h-1.4v-8.5H49V160.3z"/>
</g>
<g class="st2">
	<path class="st3" d="M262.4,30.7H255v-1l3.9-4.4c0.6-0.7,1-1.2,1.2-1.6c0.2-0.4,0.3-0.8,0.3-1.3c0-0.6-0.2-1.1-0.5-1.5
		s-0.8-0.6-1.4-0.6c-0.7,0-1.3,0.2-1.7,0.6s-0.6,1-0.6,1.7h-1.4c0-1,0.3-1.9,1-2.5c0.7-0.6,1.6-1,2.7-1c1.1,0,1.9,0.3,2.5,0.8
		c0.6,0.6,0.9,1.3,0.9,2.2c0,1.1-0.7,2.5-2.1,4l-3,3.3h5.7V30.7z"/>
</g>
<g class="st2">
	<path class="st3" d="M384.7,24.3h1.1c0.7,0,1.2-0.2,1.6-0.5s0.6-0.8,0.6-1.4c0-1.3-0.7-2-2-2c-0.6,0-1.1,0.2-1.5,0.5
		c-0.4,0.4-0.6,0.8-0.6,1.4h-1.4c0-0.9,0.3-1.6,1-2.2c0.7-0.6,1.5-0.9,2.5-0.9c1.1,0,1.9,0.3,2.5,0.9s0.9,1.4,0.9,2.4
		c0,0.5-0.2,1-0.5,1.4s-0.8,0.8-1.3,1c0.6,0.2,1.1,0.5,1.4,1c0.3,0.5,0.5,1,0.5,1.7c0,1-0.3,1.8-1,2.4c-0.7,0.6-1.5,0.9-2.6,0.9
		c-1.1,0-1.9-0.3-2.6-0.9c-0.7-0.6-1-1.3-1-2.3h1.5c0,0.6,0.2,1.1,0.6,1.4s0.9,0.5,1.6,0.5c0.7,0,1.2-0.2,1.6-0.5
		c0.4-0.4,0.6-0.9,0.6-1.6c0-0.7-0.2-1.2-0.6-1.5s-1-0.5-1.8-0.5h-1.1V24.3z"/>
</g>
<g class="st2">
	<path class="st3" d="M480.4,26.9h1.6v1.2h-1.6v2.6h-1.5v-2.6h-5.2v-0.9l5.1-7.9h1.5V26.9z M475.4,26.9h3.5v-5.6l-0.2,0.3
		L475.4,26.9z"/>
</g>
<g class="st2">
	<path class="st3" d="M480.4,26.9h1.6v1.2h-1.6v2.6h-1.5v-2.6h-5.2v-0.9l5.1-7.9h1.5V26.9z M475.4,26.9h3.5v-5.6l-0.2,0.3
		L475.4,26.9z"/>
</g>
<g class="st2">
	<path class="st3" d="M561.5,25l0.6-5.7h5.8v1.3h-4.6l-0.3,3.1c0.6-0.3,1.2-0.5,1.9-0.5c1,0,1.9,0.3,2.5,1s0.9,1.6,0.9,2.8
		c0,1.2-0.3,2.1-0.9,2.8s-1.5,1-2.7,1c-1,0-1.8-0.3-2.5-0.8c-0.6-0.6-1-1.3-1.1-2.3h1.4c0.1,0.7,0.3,1.1,0.7,1.5s0.9,0.5,1.5,0.5
		c0.7,0,1.2-0.2,1.6-0.7s0.6-1.1,0.6-1.9c0-0.8-0.2-1.4-0.6-1.8s-1-0.7-1.7-0.7c-0.6,0-1.1,0.1-1.5,0.4l-0.4,0.3L561.5,25z"/>
</g>
<g class="st2">
	<path class="st3" d="M659,19.3v1.2h-0.3c-1.1,0-2,0.4-2.7,1s-1.1,1.6-1.2,2.7c0.6-0.7,1.4-1,2.5-1c1,0,1.8,0.3,2.4,1
		s0.9,1.6,0.9,2.7c0,1.2-0.3,2.1-1,2.8s-1.5,1.1-2.6,1.1c-1.1,0-2-0.4-2.6-1.3s-1-1.9-1-3.2v-0.6c0-2.1,0.4-3.7,1.3-4.8
		s2.2-1.7,4-1.7H659z M657.1,24.5c-0.5,0-1,0.1-1.4,0.4s-0.7,0.7-0.9,1.1v0.5c0,0.9,0.2,1.7,0.6,2.3s0.9,0.9,1.6,0.9
		c0.7,0,1.2-0.2,1.5-0.7s0.6-1.1,0.6-1.9c0-0.8-0.2-1.4-0.6-1.9S657.8,24.5,657.1,24.5z"/>
</g>
<g class="st2">
	<path class="st3" d="M749.5,20.2l-4.7,10.6h-1.5l4.7-10.2h-6.2v-1.2h7.7V20.2z"/>
</g>
<g class="st2">
	<path class="st3" d="M839,22.3c0,0.6-0.2,1.1-0.4,1.5c-0.3,0.4-0.7,0.8-1.2,1c0.6,0.3,1.1,0.6,1.4,1.1c0.3,0.5,0.5,1,0.5,1.7
		c0,1-0.3,1.8-1,2.4s-1.5,0.9-2.6,0.9c-1.1,0-2-0.3-2.6-0.9c-0.7-0.6-1-1.4-1-2.3c0-0.6,0.2-1.2,0.5-1.7s0.8-0.9,1.4-1.1
		c-0.5-0.2-0.9-0.6-1.2-1c-0.3-0.4-0.4-0.9-0.4-1.5c0-1,0.3-1.7,0.9-2.3c0.6-0.6,1.4-0.8,2.4-0.8c1,0,1.8,0.3,2.4,0.8
		S839,21.4,839,22.3z M837.9,27.6c0-0.6-0.2-1.2-0.6-1.6c-0.4-0.4-0.9-0.6-1.6-0.6c-0.7,0-1.2,0.2-1.6,0.6c-0.4,0.4-0.6,0.9-0.6,1.6
		s0.2,1.2,0.6,1.5s0.9,0.6,1.6,0.6c0.7,0,1.2-0.2,1.6-0.6C837.7,28.8,837.9,28.3,837.9,27.6z M835.7,20.4c-0.6,0-1,0.2-1.4,0.5
		s-0.5,0.8-0.5,1.4c0,0.6,0.2,1,0.5,1.4c0.3,0.4,0.8,0.5,1.4,0.5s1-0.2,1.4-0.5c0.3-0.4,0.5-0.8,0.5-1.4s-0.2-1-0.5-1.4
		S836.2,20.4,835.7,20.4z"/>
</g>
<g class="st2">
	<path class="st3" d="M926.5,25.7c-0.3,0.4-0.7,0.6-1.1,0.9c-0.4,0.2-0.9,0.3-1.4,0.3c-0.7,0-1.2-0.2-1.7-0.5
		c-0.5-0.3-0.9-0.8-1.1-1.4s-0.4-1.2-0.4-1.9c0-0.8,0.1-1.4,0.4-2.1s0.7-1.1,1.2-1.4s1.2-0.5,1.9-0.5c1.1,0,2,0.4,2.7,1.3s1,2,1,3.4
		v0.4c0,2.2-0.4,3.8-1.3,4.8s-2.2,1.5-4,1.6h-0.3v-1.2h0.3c1.2,0,2.1-0.3,2.8-0.9S926.4,27,926.5,25.7z M924.2,25.7
		c0.5,0,0.9-0.1,1.3-0.4c0.4-0.3,0.7-0.7,0.9-1.1v-0.6c0-0.9-0.2-1.7-0.6-2.3c-0.4-0.6-0.9-0.9-1.6-0.9c-0.6,0-1.1,0.2-1.5,0.7
		c-0.4,0.5-0.6,1.1-0.6,1.9c0,0.8,0.2,1.4,0.6,1.9C923.1,25.5,923.6,25.7,924.2,25.7z"/>
</g>
<g class="st2">
	<path class="st3" d="M1008.6,30.7h-1.5v-9.6l-2.9,1.1v-1.3l4.1-1.6h0.2V30.7z"/>
	<path class="st3" d="M1019.9,25.9c0,1.7-0.3,3-0.9,3.8s-1.5,1.2-2.7,1.2c-1.2,0-2.1-0.4-2.7-1.2c-0.6-0.8-0.9-2-0.9-3.6v-1.9
		c0-1.7,0.3-2.9,0.9-3.7s1.5-1.2,2.7-1.2c1.2,0,2.1,0.4,2.7,1.2s0.9,2,0.9,3.6V25.9z M1018.5,23.9c0-1.2-0.2-2.1-0.5-2.7
		s-0.9-0.8-1.6-0.8c-0.7,0-1.3,0.3-1.6,0.8c-0.3,0.6-0.5,1.4-0.5,2.6v2.3c0,1.2,0.2,2.1,0.5,2.7c0.4,0.6,0.9,0.9,1.6,0.9
		c0.7,0,1.2-0.3,1.6-0.8c0.3-0.6,0.5-1.4,0.5-2.6V23.9z"/>
</g>
<g class="st2">
	<path class="st3" d="M1097.3,30.7h-1.5v-9.6l-2.9,1.1v-1.3l4.1-1.6h0.2V30.7z"/>
	<path class="st3" d="M1106.3,30.7h-1.5v-9.6l-2.9,1.1v-1.3l4.1-1.6h0.2V30.7z"/>
</g>
<g class="st2">
	<path class="st3" d="M1188.2,30.7h-1.5v-9.6l-2.9,1.1v-1.3l4.1-1.6h0.2V30.7z"/>
	<path class="st3" d="M1199.9,30.7h-7.5v-1l3.9-4.4c0.6-0.7,1-1.2,1.2-1.6s0.3-0.8,0.3-1.3c0-0.6-0.2-1.1-0.5-1.5s-0.8-0.6-1.4-0.6
		c-0.7,0-1.3,0.2-1.7,0.6s-0.6,1-0.6,1.7h-1.4c0-1,0.3-1.9,1-2.5s1.6-1,2.7-1c1.1,0,1.9,0.3,2.5,0.8s0.9,1.3,0.9,2.2
		c0,1.1-0.7,2.5-2.1,4l-3,3.3h5.7V30.7z"/>
</g>
</svg>
