<svg xmlns="http://www.w3.org/2000/svg" width="300" height="294.248" viewBox="0 0 300 294.248">
  <g id="Grupo_1110250" data-name="Grupo 1110250" transform="translate(-1023 -2548.43)">
    <text id="Fuente:_SENA_LP_Risaralda_2014_." data-name="Fuente:(SENA – LP Risaralda, 2014)." transform="translate(1023 2784.678)" fill="#12263f" font-size="16" font-family="Roboto-Regular, Roboto"><tspan x="0" y="15">Fuente:(SENA – LP Risaralda, 2014).</tspan></text>
    <g id="Grupo_1108831" data-name="Grupo 1108831" transform="translate(-1.051 -8583.322)">
      <g id="Grupo_1108817" data-name="Grupo 1108817" transform="translate(1034.051 11286.528)">
        <circle id="Elipse_11655" data-name="Elipse 11655" cx="24.823" cy="24.823" r="24.823" transform="translate(0 0)" fill="#fff"/>
        <path id="Elipse_11655_-_Contorno" data-name="Elipse 11655 - Contorno" d="M24.823,2A22.829,22.829,0,0,0,15.94,45.853,22.829,22.829,0,0,0,33.706,3.793,22.678,22.678,0,0,0,24.823,2m0-2A24.823,24.823,0,1,1,0,24.823,24.823,24.823,0,0,1,24.823,0Z" transform="translate(0 0)"/>
        <path id="Trazado_879014" data-name="Trazado 879014" d="M-958.623-3054.715h-43.428v-1h43.428Z" transform="translate(1004.931 3072.579)"/>
        <path id="Trazado_879015" data-name="Trazado 879015" d="M-977.775-3023.38h-1v-32.054h1Z" transform="translate(1003.241 3072.587)"/>
        <path id="Trazado_879034" data-name="Trazado 879034" d="M-977.775-3023.38h-1v-32.054h1Z" transform="translate(1003.241 3072.587)"/>
      </g>
      <g id="Grupo_1108818" data-name="Grupo 1108818" transform="translate(1154.87 11286.528)">
        <circle id="Elipse_11655-2" data-name="Elipse 11655" cx="24.823" cy="24.823" r="24.823" transform="translate(0 0)" fill="#fff"/>
        <path id="Elipse_11655_-_Contorno-2" data-name="Elipse 11655 - Contorno" d="M24.823,2A22.829,22.829,0,0,0,15.94,45.853,22.829,22.829,0,0,0,33.706,3.793,22.678,22.678,0,0,0,24.823,2m0-2A24.823,24.823,0,1,1,0,24.823,24.823,24.823,0,0,1,24.823,0Z" transform="translate(0 0)"/>
        <path id="Trazado_879014-2" data-name="Trazado 879014" d="M-958.623-3054.715h-43.428v-1h43.428Z" transform="translate(1004.931 3072.579)"/>
      </g>
      <g id="Grupo_1108823" data-name="Grupo 1108823" transform="translate(1200.681 11234.969)">
        <circle id="Elipse_11669" data-name="Elipse 11669" cx="3.31" cy="3.31" r="3.31" transform="translate(0 74.477)"/>
      </g>
      <g id="Grupo_1108824" data-name="Grupo 1108824" transform="translate(1081.228 11309.441)">
        <ellipse id="Elipse_11666" data-name="Elipse 11666" cx="3.31" cy="3.31" rx="3.31" ry="3.31" transform="translate(0 0)"/>
        <path id="Trazado_879026" data-name="Trazado 879026" d="M-1128.59-3046.5h-64.673v-1h64.673Z" transform="translate(1197.182 3050.309)"/>
        <path id="Polígono_22" data-name="Polígono 22" d="M3.31,0l3.31,5.792H0Z" transform="translate(70.957) rotate(90)"/>
        <path id="Trazado_879036" data-name="Trazado 879036" d="M148.772,3.81H123.427v-1h25.345Z"/>
      </g>
      <text id="E" transform="translate(1102.741 11303.72)" font-size="10" font-family="Roboto-Black, Roboto" font-weight="800"><tspan x="0" y="0">E</tspan></text>
      <text id="_4" data-name="4" transform="translate(1102.741 11325.061)" font-size="9" font-family="Roboto-Black, Roboto" font-weight="800"><tspan x="0" y="0">4</tspan></text>
      <g id="Grupo_1108825" data-name="Grupo 1108825" transform="matrix(0.951, -0.309, 0.309, 0.951, 1115.63, 11300.166)">
        <path id="Polígono_22-2" data-name="Polígono 22" d="M3.31,0l3.31,5.792H0Z" transform="translate(71.159 0) rotate(90)"/>
      </g>
      <text id="Nodo_5" data-name="Nodo 5" transform="translate(1200.681 11136.752)" font-size="5" font-family="Roboto-Black, Roboto" font-weight="800"><tspan x="0" y="0">Nodo 5</tspan></text>
      <path id="Trazado_879033" data-name="Trazado 879033" d="M1496.039,11204.136l-.962-.271,25.223-89.107.962.271Z" transform="translate(-313.983 77.517)"/>
      <path id="Trazado_879035" data-name="Trazado 879035" d="M-977.775-3023.38h-1v-32.054h1Z" transform="translate(2158.292 14359.115)"/>
      <g id="Grupo_1108830" data-name="Grupo 1108830" transform="translate(1182.354 11142.764)">
        <circle id="Elipse_11655-3" data-name="Elipse 11655" cx="24.823" cy="24.823" r="24.823" transform="translate(0 0)" fill="#fff"/>
        <path id="Elipse_11655_-_Contorno-3" data-name="Elipse 11655 - Contorno" d="M24.823,2A22.829,22.829,0,0,0,15.94,45.853,22.829,22.829,0,0,0,33.706,3.793,22.678,22.678,0,0,0,24.823,2m0-2A24.823,24.823,0,1,1,0,24.823,24.823,24.823,0,0,1,24.823,0Z" transform="translate(0 0)"/>
        <path id="Trazado_879014-3" data-name="Trazado 879014" d="M-958.623-3054.715h-43.428v-1h43.428Z" transform="translate(1004.931 3072.579)"/>
        <path id="Trazado_879015-2" data-name="Trazado 879015" d="M-977.775-3023.38h-1v-32.054h1Z" transform="translate(1003.241 3072.587)"/>
        <path id="Trazado_879034-2" data-name="Trazado 879034" d="M-977.775-3023.38h-1v-32.054h1Z" transform="translate(1003.241 3072.587)"/>
      </g>
      <text id="Nodo_3" data-name="Nodo 3" transform="translate(1048.131 11349.517)" font-size="5" font-family="Roboto-Black, Roboto" font-weight="800"><tspan x="0" y="0">Nodo 3</tspan></text>
      <text id="Nodo_6" data-name="Nodo 6" transform="translate(1171.692 11349.517)" font-size="5" font-family="Roboto-Black, Roboto" font-weight="800"><tspan x="0" y="0">Nodo 6</tspan></text>
      <text id="_7" data-name="7" transform="translate(1048.131 11321.352)" font-size="10" font-family="Roboto-Black, Roboto" font-weight="800"><tspan x="0" y="0">7</tspan></text>
      <text id="_13" data-name="13" transform="translate(1164.626 11321.352)" font-size="10" font-family="Roboto-Black, Roboto" font-weight="800"><tspan x="0" y="0">13</tspan></text>
      <text id="_12" data-name="12" transform="translate(1190.681 11177.587)" font-size="10" font-family="Roboto-Black, Roboto" font-weight="800"><tspan x="0" y="0">12</tspan></text>
      <text id="_1" data-name="1" transform="translate(1204 11240)" font-size="10" font-family="Roboto-Black, Roboto" font-weight="800"><tspan x="0" y="0">1</tspan></text>
      <text id="H" transform="translate(1177.798 11240)" font-size="10" font-family="Roboto-Black, Roboto" font-weight="800"><tspan x="0" y="0">H</tspan></text>
    </g>
  </g>
</svg>
