<svg xmlns="http://www.w3.org/2000/svg" width="300" height="306" viewBox="0 0 300 306">
  <g id="Grupo_1110254" data-name="Grupo 1110254" transform="translate(-17947.766 7688.469)">
    <text id="Fuente:_SENA_LP_Risaralda_2014_." data-name="Fuente:(SENA – LP Risaralda, 2014)." transform="translate(17947.766 -7440.469)" fill="#707070" font-size="20" font-family="Helvetica"><tspan x="0" y="15">Fuente:(SENA – LP Risaralda, </tspan><tspan x="0" y="39">2014).</tspan></text>
    <g id="Grupo_1108839" data-name="Grupo 1108839" transform="translate(15929.766 -7130.469)">
      <g id="Grupo_1108817" data-name="Grupo 1108817" transform="translate(2085.225 -544.347)">
        <circle id="Elipse_11655" data-name="Elipse 11655" cx="25.888" cy="25.888" r="25.888" transform="translate(0 0)" fill="#fff"/>
        <path id="Elipse_11655_-_Contorno" data-name="Elipse 11655 - Contorno" d="M25.888,2a23.894,23.894,0,0,0-9.3,45.9,23.894,23.894,0,0,0,18.6-44.022A23.736,23.736,0,0,0,25.888,2m0-2A25.888,25.888,0,1,1,0,25.888,25.888,25.888,0,0,1,25.888,0Z" transform="translate(0 0)"/>
        <path id="Trazado_879014" data-name="Trazado 879014" d="M-955.146-3054.715h-46.9v-1h46.9Z" transform="translate(1004.426 3073.323)"/>
        <path id="Trazado_879015" data-name="Trazado 879015" d="M-977.775-3022.107h-1v-33.327h1Z" transform="translate(1004.312 3073.323)"/>
      </g>
      <g id="Grupo_1108818" data-name="Grupo 1108818" transform="translate(2054 -394.275)">
        <circle id="Elipse_11655-2" data-name="Elipse 11655" cx="25.888" cy="25.888" r="25.888" transform="translate(0 0)" fill="#fff"/>
        <path id="Elipse_11655_-_Contorno-2" data-name="Elipse 11655 - Contorno" d="M25.888,2a23.894,23.894,0,0,0-9.3,45.9,23.894,23.894,0,0,0,18.6-44.022A23.736,23.736,0,0,0,25.888,2m0-2A25.888,25.888,0,1,1,0,25.888,25.888,25.888,0,0,1,25.888,0Z" transform="translate(0 0)"/>
        <path id="Trazado_879014-2" data-name="Trazado 879014" d="M-954.9-3054.715h-47.155v-1H-954.9Z" transform="translate(1004.309 3073.323)"/>
        <path id="Trazado_879015-2" data-name="Trazado 879015" d="M-977.775-3022.026h-1v-33.408h1Z" transform="translate(1004.312 3073.323)"/>
      </g>
      <text id="Nodo_4" data-name="Nodo 4" transform="translate(2099.782 -552)" font-size="6" font-family="Roboto-Black, Roboto" font-weight="800"><tspan x="0" y="0">Nodo 4</tspan></text>
      <text id="_7" data-name="7" transform="translate(2064.888 -360.295)" font-size="12" font-family="Roboto-Black, Roboto" font-weight="800"><tspan x="0" y="0">7</tspan></text>
      <text id="_7-2" data-name="7" transform="translate(2085.782 -360.295)" font-size="12" font-family="Roboto-Black, Roboto" font-weight="800"><tspan x="0" y="0">7</tspan></text>
      <text id="_9" data-name="9" transform="translate(2096.282 -510.367)" font-size="12" font-family="Roboto-Black, Roboto" font-weight="800"><tspan x="0" y="0">9</tspan></text>
      <text id="_9-2" data-name="9" transform="translate(2115.091 -510.367)" font-size="12" font-family="Roboto-Black, Roboto" font-weight="800"><tspan x="0" y="0">9</tspan></text>
      <text id="F" transform="translate(2071.888 -443.295)" font-size="12" font-family="Roboto-Black, Roboto" font-weight="800"><tspan x="0" y="0">F</tspan></text>
      <text id="_2" data-name="2" transform="translate(2118.091 -443.295)" font-size="12" font-family="Roboto-Black, Roboto" font-weight="800"><tspan x="0" y="0">2</tspan></text>
      <text id="Nodo_3" data-name="Nodo 3" transform="translate(2065.01 -330)" font-size="6" font-family="Roboto-Black, Roboto" font-weight="800"><tspan x="0" y="0">Nodo 3</tspan></text>
    </g>
    <g id="Grupo_1108840" data-name="Grupo 1108840" transform="translate(18144.99 -7674.816)">
      <circle id="Elipse_11655-3" data-name="Elipse 11655" cx="25.888" cy="25.888" r="25.888" transform="translate(0 0)" fill="#fff"/>
      <path id="Elipse_11655_-_Contorno-3" data-name="Elipse 11655 - Contorno" d="M25.888,2a23.894,23.894,0,0,0-9.3,45.9,23.894,23.894,0,0,0,18.6-44.022A23.736,23.736,0,0,0,25.888,2m0-2A25.888,25.888,0,1,1,0,25.888,25.888,25.888,0,0,1,25.888,0Z" transform="translate(0 0)"/>
      <path id="Trazado_879014-3" data-name="Trazado 879014" d="M-955.146-3054.715h-46.9v-1h46.9Z" transform="translate(1004.426 3073.323)"/>
      <path id="Trazado_879015-3" data-name="Trazado 879015" d="M-977.775-3022.107h-1v-33.327h1Z" transform="translate(1004.312 3073.323)"/>
    </g>
    <g id="Grupo_1108841" data-name="Grupo 1108841" transform="translate(18113.766 -7524.744)">
      <circle id="Elipse_11655-4" data-name="Elipse 11655" cx="25.888" cy="25.888" r="25.888" transform="translate(0 0)" fill="#fff"/>
      <path id="Elipse_11655_-_Contorno-4" data-name="Elipse 11655 - Contorno" d="M25.888,2a23.894,23.894,0,0,0-9.3,45.9,23.894,23.894,0,0,0,18.6-44.022A23.736,23.736,0,0,0,25.888,2m0-2A25.888,25.888,0,1,1,0,25.888,25.888,25.888,0,0,1,25.888,0Z" transform="translate(0 0)"/>
      <path id="Trazado_879014-4" data-name="Trazado 879014" d="M-954.9-3054.715h-47.155v-1H-954.9Z" transform="translate(1004.309 3073.323)"/>
      <path id="Trazado_879015-4" data-name="Trazado 879015" d="M-977.775-3022.026h-1v-33.408h1Z" transform="translate(1004.312 3073.323)"/>
    </g>
    <text id="Nodo_5" data-name="Nodo 5" transform="translate(18159.547 -7682.469)" font-size="6" font-family="Roboto-Black, Roboto" font-weight="800"><tspan x="0" y="0">Nodo 5</tspan></text>
    <text id="_13" data-name="13" transform="translate(18120.275 -7490.764)" font-size="12" font-family="Roboto-Black, Roboto" font-weight="800"><tspan x="0" y="0">13</tspan></text>
    <text id="_13-2" data-name="13" transform="translate(18141.068 -7490.764)" font-size="12" font-family="Roboto-Black, Roboto" font-weight="800"><tspan x="0" y="0">13</tspan></text>
    <text id="_12" data-name="12" transform="translate(18152.547 -7640.836)" font-size="12" font-family="Roboto-Black, Roboto" font-weight="800"><tspan x="0" y="0">12</tspan></text>
    <text id="_12-2" data-name="12" transform="translate(18174.857 -7640.836)" font-size="12" font-family="Roboto-Black, Roboto" font-weight="800"><tspan x="0" y="0">12</tspan></text>
    <text id="H" transform="translate(18131.652 -7573.764)" font-size="12" font-family="Roboto-Black, Roboto" font-weight="800"><tspan x="0" y="0">H</tspan></text>
    <text id="_1" data-name="1" transform="translate(18177.857 -7573.764)" font-size="12" font-family="Roboto-Black, Roboto" font-weight="800"><tspan x="0" y="0">1</tspan></text>
    <text id="E" transform="translate(18071.652 -7511.744)" font-size="12" font-family="Roboto-Black, Roboto" font-weight="800"><tspan x="0" y="0">E</tspan></text>
    <text id="_4" data-name="4" transform="translate(18071.652 -7469.469)" font-size="12" font-family="Roboto-Black, Roboto" font-weight="800"><tspan x="0" y="0">4</tspan></text>
    <text id="G" transform="translate(18100.652 -7663.469)" font-size="12" font-family="Roboto-Black, Roboto" font-weight="800"><tspan x="0" y="0">G</tspan></text>
    <text id="_3" data-name="3" transform="translate(18100.652 -7632.836)" font-size="12" font-family="Roboto-Black, Roboto" font-weight="800"><tspan x="0" y="0">3</tspan></text>
    <g id="Grupo_1108825" data-name="Grupo 1108825" transform="translate(18005.311 -7530.314)">
      <ellipse id="Elipse_11666" data-name="Elipse 11666" cx="5.57" cy="5.57" rx="5.57" ry="5.57" transform="translate(0 0)"/>
      <path id="Trazado_879026" data-name="Trazado 879026" d="M-1193.861-3047.084l-.959-.283,26.048-88.214.959.283Z" transform="translate(1199.859 3052.57)"/>
      <path id="Trazado_879039" data-name="Trazado 879039" d="M5.57,0,8.487,5.1,11.14,9.747H0Z" transform="translate(30.13 -94.035) rotate(22)"/>
    </g>
    <g id="Grupo_1108842" data-name="Grupo 1108842" transform="translate(18164.281 -7628.758)">
      <path id="Trazado_879026-2" data-name="Trazado 879026" d="M-1220.579-2954.995l-.957-.29,27.8-91.86.957.29Z" transform="translate(1199.859 3052.57)"/>
      <path id="Trazado_879038" data-name="Trazado 879038" d="M5.57,0,8.487,5.1,11.14,9.747H0Z" transform="translate(-16.15 90.847) rotate(76)"/>
    </g>
    <g id="Grupo_1108844" data-name="Grupo 1108844" transform="translate(18061.232 -7653.336)">
      <ellipse id="Elipse_11666-2" data-name="Elipse 11666" cx="4.408" cy="4.408" rx="4.408" ry="4.408" transform="translate(0 0)"/>
      <path id="Trazado_879026-3" data-name="Trazado 879026" d="M-1122.749-3046.5h-70.514v-1h70.514Z" transform="translate(1198.483 3051.408)"/>
      <path id="Trazado_879038-2" data-name="Trazado 879038" d="M4.408,0,6.716,4.039l2.1,3.674H0Z" transform="translate(83.448 0) rotate(90)"/>
    </g>
    <g id="Grupo_1108845" data-name="Grupo 1108845" transform="translate(18030.982 -7501.172)">
      <ellipse id="Elipse_11666-3" data-name="Elipse 11666" cx="4.769" cy="4.769" rx="4.769" ry="4.769" transform="translate(0 0)"/>
      <path id="Trazado_879026-4" data-name="Trazado 879026" d="M-1121.45-3046.5h-71.812v-1h71.812Z" transform="translate(1198.911 3051.769)"/>
      <path id="Trazado_879038-3" data-name="Trazado 879038" d="M4.769,0l2.5,4.37L9.538,8.346H0Z" transform="translate(81.634 0) rotate(90)"/>
    </g>
    <text id="Nodo_6" data-name="Nodo 6" transform="translate(18130.152 -7464.469)" font-size="6" font-family="Roboto-Black, Roboto" font-weight="800"><tspan x="0" y="0">Nodo 6</tspan></text>
  </g>
</svg>
