<svg xmlns="http://www.w3.org/2000/svg" width="316.608" height="125.056" viewBox="0 0 316.608 125.056"><g transform="translate(-495 -10723.944)"><g transform="translate(495 10742.944)"><ellipse cx="43.608" cy="43.608" rx="43.608" ry="43.608" transform="translate(0 0)" fill="#fff"/><path d="M43.608,2a41.619,41.619,0,0,0-16.2,79.947A41.619,41.619,0,0,0,59.8,5.269,41.345,41.345,0,0,0,43.608,2m0-2A43.608,43.608,0,1,1,0,43.608,43.608,43.608,0,0,1,43.608,0Z" transform="translate(0 0)"/><path d="M-921.732-3054.715h-80.319v-1h80.319Z" transform="translate(1005.426 3085.719)"/><path d="M-977.775-2999.161h-1v-56.272h1Z" transform="translate(1022.332 3085.568)"/></g><g transform="translate(724.392 10742.944)"><ellipse cx="43.608" cy="43.608" rx="43.608" ry="43.608" transform="translate(0 0)" fill="#fff"/><path d="M43.608,2a41.619,41.619,0,0,0-16.2,79.947A41.619,41.619,0,0,0,59.8,5.269,41.345,41.345,0,0,0,43.608,2m0-2A43.608,43.608,0,1,1,0,43.608,43.608,43.608,0,0,1,43.608,0Z" transform="translate(0 0)"/><path d="M-921.1-3054.715h-80.951v-1H-921.1Z" transform="translate(1005.051 3085.719)"/><path d="M-977.775-2999.031h-1v-56.4h1Z" transform="translate(1022.332 3085.568)"/></g><text transform="translate(523.699 10847)" font-size="10" font-family="Roboto-Black, Roboto" font-weight="800"><tspan x="0" y="0">Nodo 3</tspan></text><text transform="translate(523.699 10732.944)" font-size="10" font-family="Roboto-Black, Roboto" font-weight="800"><tspan x="0" y="0">Nodo 4</tspan></text><text transform="translate(753.091 10732.944)" font-size="10" font-family="Roboto-Black, Roboto" font-weight="800"><tspan x="0" y="0">Nodo 5</tspan></text><text transform="translate(642 10816.266)" font-size="20" font-family="Roboto-Black, Roboto" font-weight="800"><tspan x="0" y="0">3</tspan></text><text transform="translate(512 10803.266)" font-size="20" font-family="Roboto-Black, Roboto" font-weight="800"><tspan x="0" y="0">9</tspan></text><text transform="translate(642 10772.266)" font-size="20" font-family="Roboto-Black, Roboto" font-weight="800"><tspan x="0" y="0">G</tspan></text><text transform="translate(742 10803.266)" font-size="20" font-family="Roboto-Black, Roboto" font-weight="800"><tspan x="0" y="0">12</tspan></text></g></svg>