<svg xmlns="http://www.w3.org/2000/svg" width="396" height="208.213" viewBox="0 0 396 208.213"><g transform="translate(-853.245 -2674)"><path d="M6.645,8.6H2.468V13H1.155V3.047H7.321v1.08H2.468v3.4H6.645Zm6.467,3.664a2.686,2.686,0,0,1-2.167.868,2.3,2.3,0,0,1-1.8-.687,2.974,2.974,0,0,1-.625-2.034V5.6H9.782v4.778q0,1.682,1.367,1.682a1.893,1.893,0,0,0,1.928-1.08V5.6h1.265V13h-1.2Zm6.221.868a3.232,3.232,0,0,1-2.447-.988,3.666,3.666,0,0,1-.943-2.642V9.274a4.438,4.438,0,0,1,.42-1.965,3.28,3.28,0,0,1,1.176-1.354,2.956,2.956,0,0,1,1.637-.489,2.77,2.77,0,0,1,2.242.95,4.114,4.114,0,0,1,.8,2.721v.526H17.206a2.629,2.629,0,0,0,.639,1.767A2.009,2.009,0,0,0,19.4,12.1a2.2,2.2,0,0,0,1.135-.273,2.851,2.851,0,0,0,.813-.725l.772.6A3.106,3.106,0,0,1,19.332,13.137Zm-.157-6.631a1.687,1.687,0,0,0-1.285.557,2.708,2.708,0,0,0-.643,1.562h3.705v-.1a2.409,2.409,0,0,0-.52-1.494A1.588,1.588,0,0,0,19.175,6.506Zm5.7-.9.041.93a2.7,2.7,0,0,1,2.215-1.066q2.345,0,2.365,2.646V13H28.232V8.105a1.7,1.7,0,0,0-.366-1.183,1.466,1.466,0,0,0-1.118-.383,1.825,1.825,0,0,0-1.08.328,2.228,2.228,0,0,0-.725.861V13H23.68V5.6ZM33.12,3.813V5.6H34.5v.978H33.12v4.587a1.024,1.024,0,0,0,.185.667.777.777,0,0,0,.629.222,3.062,3.062,0,0,0,.6-.082V13a3.666,3.666,0,0,1-.971.137,1.575,1.575,0,0,1-1.278-.513,2.2,2.2,0,0,1-.431-1.456V6.581H30.509V5.6h1.347V3.813Zm5.927,9.324a3.232,3.232,0,0,1-2.447-.988,3.666,3.666,0,0,1-.943-2.642V9.274a4.438,4.438,0,0,1,.42-1.965,3.28,3.28,0,0,1,1.176-1.354,2.956,2.956,0,0,1,1.637-.489,2.77,2.77,0,0,1,2.242.95,4.114,4.114,0,0,1,.8,2.721v.526H36.921a2.629,2.629,0,0,0,.639,1.767,2.009,2.009,0,0,0,1.555.673,2.2,2.2,0,0,0,1.135-.273,2.851,2.851,0,0,0,.813-.725l.772.6A3.106,3.106,0,0,1,39.047,13.137ZM38.89,6.506a1.687,1.687,0,0,0-1.285.557,2.708,2.708,0,0,0-.643,1.562h3.705v-.1a2.409,2.409,0,0,0-.52-1.494A1.588,1.588,0,0,0,38.89,6.506Zm4.464,5.831a.792.792,0,0,1,.195-.547.742.742,0,0,1,.584-.219.765.765,0,0,1,.591.219.776.776,0,0,1,.2.547.734.734,0,0,1-.2.526.778.778,0,0,1-.591.212.7.7,0,0,1-.779-.738ZM43.36,6.3a.792.792,0,0,1,.195-.547.742.742,0,0,1,.584-.219.765.765,0,0,1,.591.219.776.776,0,0,1,.2.547.734.734,0,0,1-.2.526.778.778,0,0,1-.591.212A.7.7,0,0,1,43.36,6.3ZM46.737,8.96a10.569,10.569,0,0,1,.414-2.967,8.618,8.618,0,0,1,1.234-2.584,5.249,5.249,0,0,1,1.7-1.641l.26.834A5.444,5.444,0,0,0,48.709,4.94a10.135,10.135,0,0,0-.7,3.521L48,9.042a10.188,10.188,0,0,0,.964,4.58,5.47,5.47,0,0,0,1.381,1.818l-.26.772a5.418,5.418,0,0,1-1.736-1.7A9.5,9.5,0,0,1,46.737,8.96Zm7.964-.4a6.172,6.172,0,0,1-2.458-1.193,2.279,2.279,0,0,1-.769-1.747,2.408,2.408,0,0,1,.94-1.945,3.736,3.736,0,0,1,2.444-.769,4.078,4.078,0,0,1,1.829.4A3.007,3.007,0,0,1,57.931,4.4a2.8,2.8,0,0,1,.441,1.524H57.053a1.81,1.81,0,0,0-.574-1.418,2.34,2.34,0,0,0-1.62-.516,2.394,2.394,0,0,0-1.514.427A1.424,1.424,0,0,0,52.8,5.6a1.281,1.281,0,0,0,.516,1.029,5.066,5.066,0,0,0,1.757.769,8.136,8.136,0,0,1,1.941.769,2.946,2.946,0,0,1,1.039.981,2.5,2.5,0,0,1,.338,1.319,2.326,2.326,0,0,1-.943,1.938,4.022,4.022,0,0,1-2.522.728,4.678,4.678,0,0,1-1.914-.393,3.221,3.221,0,0,1-1.371-1.077,2.627,2.627,0,0,1-.482-1.552h1.319a1.714,1.714,0,0,0,.667,1.425,2.806,2.806,0,0,0,1.781.523,2.58,2.58,0,0,0,1.593-.424,1.377,1.377,0,0,0,.554-1.155,1.351,1.351,0,0,0-.513-1.131A5.911,5.911,0,0,0,54.7,8.563Zm11-.164H61.387v3.527H66.4V13H60.074V3.047h6.255v1.08H61.387v3.2H65.7Zm9.98,4.6H74.361L69.351,5.33V13H68.031V3.047h1.319l5.024,7.7v-7.7h1.306Zm7.95-2.6h-4.17L78.524,13H77.171l3.8-9.953H82.12L85.928,13H84.581Zm-3.773-1.08h3.384l-1.7-4.655ZM97.539,8.55H90.69V7.518h6.85Zm7.167,3.377h4.717V13h-6.036V3.047h1.319ZM112.232,9.1V13H110.92V3.047h3.671a3.688,3.688,0,0,1,2.56.834,2.827,2.827,0,0,1,.926,2.208,2.79,2.79,0,0,1-.906,2.232,3.853,3.853,0,0,1-2.594.783Zm0-1.073h2.358a2.361,2.361,0,0,0,1.613-.5,1.811,1.811,0,0,0,.561-1.432,1.871,1.871,0,0,0-.561-1.422,2.212,2.212,0,0,0-1.538-.554h-2.434Zm14.636.943H124.53V13h-1.319V3.047h3.295a3.9,3.9,0,0,1,2.587.766A2.755,2.755,0,0,1,130,6.041a2.68,2.68,0,0,1-.5,1.62,3,3,0,0,1-1.4,1.032l2.338,4.225V13h-1.408ZM124.53,7.9h2.017a2.277,2.277,0,0,0,1.555-.506,1.709,1.709,0,0,0,.578-1.354,1.8,1.8,0,0,0-.55-1.415,2.333,2.333,0,0,0-1.589-.5h-2.01Zm8.483,5.1h-1.265V5.6h1.265Zm-1.367-9.358a.755.755,0,0,1,.188-.52.706.706,0,0,1,.557-.212.717.717,0,0,1,.561.212.747.747,0,0,1,.191.52.722.722,0,0,1-.191.513.73.73,0,0,1-.561.205.718.718,0,0,1-.557-.205A.73.73,0,0,1,131.646,3.642Zm7.7,7.4a.931.931,0,0,0-.386-.8,3.718,3.718,0,0,0-1.347-.489,6.367,6.367,0,0,1-1.524-.492,2.169,2.169,0,0,1-.834-.684,1.635,1.635,0,0,1-.27-.943,1.919,1.919,0,0,1,.769-1.538,3,3,0,0,1,1.965-.629,3.091,3.091,0,0,1,2.041.649,2.063,2.063,0,0,1,.783,1.661h-1.271a1.142,1.142,0,0,0-.441-.9,1.652,1.652,0,0,0-1.111-.376,1.729,1.729,0,0,0-1.08.3.947.947,0,0,0-.39.786.767.767,0,0,0,.362.69,4.458,4.458,0,0,0,1.309.444,6.821,6.821,0,0,1,1.535.506,2.239,2.239,0,0,1,.872.708,1.74,1.74,0,0,1,.284,1.008,1.893,1.893,0,0,1-.793,1.589,3.326,3.326,0,0,1-2.058.6,3.725,3.725,0,0,1-1.572-.314,2.557,2.557,0,0,1-1.07-.878,2.117,2.117,0,0,1-.386-1.22h1.265a1.309,1.309,0,0,0,.509,1.008,1.976,1.976,0,0,0,1.254.373,2.039,2.039,0,0,0,1.152-.291A.893.893,0,0,0,139.344,11.038ZM146.822,13a2.657,2.657,0,0,1-.178-.779,2.822,2.822,0,0,1-2.105.916,2.611,2.611,0,0,1-1.794-.619,2,2,0,0,1-.7-1.569,2.091,2.091,0,0,1,.878-1.794,4.142,4.142,0,0,1,2.471-.639h1.23V7.935a1.42,1.42,0,0,0-.4-1.056,1.593,1.593,0,0,0-1.169-.393,1.844,1.844,0,0,0-1.135.342,1.007,1.007,0,0,0-.458.827h-1.271a1.745,1.745,0,0,1,.393-1.07,2.683,2.683,0,0,1,1.066-.817,3.588,3.588,0,0,1,1.48-.3,2.924,2.924,0,0,1,2,.639,2.306,2.306,0,0,1,.752,1.76v3.4a4.162,4.162,0,0,0,.26,1.62V13Zm-2.1-.964a2.223,2.223,0,0,0,1.128-.308,1.861,1.861,0,0,0,.772-.8V9.411h-.991q-2.324,0-2.324,1.36a1.151,1.151,0,0,0,.4.93A1.524,1.524,0,0,0,144.724,12.036Zm8.723-5.3a3.79,3.79,0,0,0-.622-.048,1.667,1.667,0,0,0-1.688,1.06V13h-1.265V5.6h1.23l.021.854a1.969,1.969,0,0,1,1.764-.991,1.292,1.292,0,0,1,.561.1ZM158.9,13a2.657,2.657,0,0,1-.178-.779,2.822,2.822,0,0,1-2.105.916,2.611,2.611,0,0,1-1.794-.619,2,2,0,0,1-.7-1.569A2.091,2.091,0,0,1,155,9.155a4.142,4.142,0,0,1,2.471-.639h1.23V7.935a1.42,1.42,0,0,0-.4-1.056,1.593,1.593,0,0,0-1.169-.393A1.844,1.844,0,0,0,156,6.827a1.007,1.007,0,0,0-.458.827h-1.271a1.745,1.745,0,0,1,.393-1.07,2.683,2.683,0,0,1,1.066-.817,3.588,3.588,0,0,1,1.48-.3,2.924,2.924,0,0,1,2,.639,2.306,2.306,0,0,1,.752,1.76v3.4a4.162,4.162,0,0,0,.26,1.62V13Zm-2.1-.964a2.223,2.223,0,0,0,1.128-.308,1.861,1.861,0,0,0,.772-.8V9.411h-.991q-2.324,0-2.324,1.36a1.151,1.151,0,0,0,.4.93A1.524,1.524,0,0,0,156.8,12.036Zm6.521.964H162.06V2.5h1.265Zm1.716-3.76a4.333,4.333,0,0,1,.807-2.738,2.745,2.745,0,0,1,4.17-.147V2.5h1.265V13h-1.162l-.062-.793a2.575,2.575,0,0,1-2.112.93,2.526,2.526,0,0,1-2.1-1.053,4.382,4.382,0,0,1-.81-2.748Zm1.265.144a3.281,3.281,0,0,0,.52,1.969,1.68,1.68,0,0,0,1.436.711,1.845,1.845,0,0,0,1.757-1.08v-3.4a1.859,1.859,0,0,0-1.743-1.046,1.687,1.687,0,0,0-1.449.718A3.612,3.612,0,0,0,166.3,9.384ZM177.81,13a2.657,2.657,0,0,1-.178-.779,2.822,2.822,0,0,1-2.105.916,2.611,2.611,0,0,1-1.794-.619,2,2,0,0,1-.7-1.569,2.091,2.091,0,0,1,.878-1.794,4.142,4.142,0,0,1,2.471-.639h1.23V7.935a1.42,1.42,0,0,0-.4-1.056,1.593,1.593,0,0,0-1.169-.393,1.844,1.844,0,0,0-1.135.342,1.007,1.007,0,0,0-.458.827h-1.271a1.745,1.745,0,0,1,.393-1.07,2.683,2.683,0,0,1,1.066-.817,3.588,3.588,0,0,1,1.48-.3,2.924,2.924,0,0,1,2,.639,2.306,2.306,0,0,1,.752,1.76v3.4a4.162,4.162,0,0,0,.26,1.62V13Zm-2.1-.964a2.223,2.223,0,0,0,1.128-.308,1.861,1.861,0,0,0,.772-.8V9.411h-.991q-2.324,0-2.324,1.36a1.151,1.151,0,0,0,.4.93A1.524,1.524,0,0,0,175.711,12.036Zm5.106,2.946-.718-.492a3.3,3.3,0,0,0,.67-1.846V11.5h1.237v.991a3.114,3.114,0,0,1-.338,1.381A3.233,3.233,0,0,1,180.817,14.982ZM193.464,13h-6.521v-.909l3.445-3.828a8.185,8.185,0,0,0,1.056-1.412,2.356,2.356,0,0,0,.291-1.125,1.786,1.786,0,0,0-.472-1.278,1.649,1.649,0,0,0-1.258-.5,1.953,1.953,0,0,0-1.466.537,2.05,2.05,0,0,0-.523,1.494h-1.265a2.936,2.936,0,0,1,.885-2.222A3.282,3.282,0,0,1,190,2.91a3.153,3.153,0,0,1,2.194.728,2.483,2.483,0,0,1,.807,1.938q0,1.47-1.873,3.5l-2.666,2.892h5Zm7.581-4.245a5.784,5.784,0,0,1-.759,3.3,3.153,3.153,0,0,1-4.73.024,5.49,5.49,0,0,1-.793-3.155V7.237a5.655,5.655,0,0,1,.759-3.261,3.21,3.21,0,0,1,4.744-.038,5.458,5.458,0,0,1,.779,3.175ZM199.78,7.025a4.634,4.634,0,0,0-.451-2.341,1.553,1.553,0,0,0-1.429-.735,1.532,1.532,0,0,0-1.415.731,4.525,4.525,0,0,0-.458,2.249V8.953a4.708,4.708,0,0,0,.468,2.382,1.55,1.55,0,0,0,1.418.769,1.529,1.529,0,0,0,1.391-.725A4.538,4.538,0,0,0,199.78,9.1ZM206.821,13H205.55V4.571L203,5.508V4.359L206.623,3h.2Zm9.044-3.343h1.381v1.032h-1.381V13h-1.271V10.689h-4.532V9.944l4.457-6.9h1.347Zm-4.368,0h3.1V4.776l-.15.273Zm9.939-.629a10.574,10.574,0,0,1-.4,2.922,8.641,8.641,0,0,1-1.224,2.581,5.361,5.361,0,0,1-1.726,1.682l-.267-.772a5.5,5.5,0,0,0,1.692-2.505,10.839,10.839,0,0,0,.653-3.77V8.946a11.254,11.254,0,0,0-.3-2.669,9.009,9.009,0,0,0-.837-2.211,5.108,5.108,0,0,0-1.207-1.524l.267-.772a5.34,5.34,0,0,1,1.719,1.668,8.66,8.66,0,0,1,1.224,2.577A10.818,10.818,0,0,1,221.437,9.028Zm1.976,3.309a.792.792,0,0,1,.195-.547.742.742,0,0,1,.584-.219.765.765,0,0,1,.591.219.776.776,0,0,1,.2.547.734.734,0,0,1-.2.526.778.778,0,0,1-.591.212.7.7,0,0,1-.779-.738Z" transform="translate(921.245 2866)" fill="#12263f"/><g transform="translate(1041.239 2674.456)"><circle cx="20.5" cy="20.5" r="20.5" transform="translate(0.006 -0.456)" fill="#fff"/><path d="M20.5,2A18.5,18.5,0,0,0,7.419,33.581,18.5,18.5,0,0,0,33.581,7.419,18.379,18.379,0,0,0,20.5,2m0-2A20.5,20.5,0,1,1,0,20.5,20.5,20.5,0,0,1,20.5,0Z" transform="translate(0.006 -0.456)"/><path d="M-965.17-3054.715h-36.88v-1h36.88Z" transform="translate(1003.718 3068.966)"/><path d="M-977.775-3027.843h-1v-27.591h1Z" transform="translate(999.013 3069.01)"/></g><g transform="translate(1142.218 2674.456)"><ellipse cx="21" cy="20.5" rx="21" ry="20.5" transform="translate(0.026 -0.456)" fill="#fff"/><path d="M21,2A19.134,19.134,0,0,0,7.548,7.435a18.157,18.157,0,0,0,0,26.129,19.364,19.364,0,0,0,26.9,0,18.157,18.157,0,0,0,0-26.129A19.134,19.134,0,0,0,21,2m0-2A20.755,20.755,0,0,1,42,20.5,20.755,20.755,0,0,1,21,41,20.755,20.755,0,0,1,0,20.5,20.755,20.755,0,0,1,21,0Z" transform="translate(0.026 -0.456)"/><path d="M-965.148-3054.715h-36.9v-1h36.9Z" transform="translate(1004.477 3068.966)"/><path d="M-977.775-3027.843h-1v-27.591h1Z" transform="translate(999.795 3069.01)"/></g><g transform="translate(1119.659 2785.104)"><circle cx="21" cy="21" r="21" transform="translate(-0.414 -0.104)" fill="#fff"/><path d="M21,2A19,19,0,0,0,7.565,34.435a19,19,0,1,0,26.87-26.87A18.876,18.876,0,0,0,21,2m0-2A21,21,0,1,1,0,21,21,21,0,0,1,21,0Z" transform="translate(-0.414 -0.104)"/><path d="M-966-3054.715h-36.988v-1H-966Z" transform="translate(1005.451 3069.695)"/><path d="M-977.775-3027.843h-1v-27.591h1Z" transform="translate(999.919 3069.739)"/></g><g transform="translate(1207.748 2785.104)"><ellipse cx="20.5" cy="21" rx="20.5" ry="21" transform="translate(0.497 -0.104)" fill="#fff"/><path d="M20.5,2A18.139,18.139,0,0,0,7.435,7.548a19.364,19.364,0,0,0,0,26.9,18.157,18.157,0,0,0,26.129,0,19.364,19.364,0,0,0,0-26.9A18.139,18.139,0,0,0,20.5,2m0-2A20.755,20.755,0,0,1,41,21,20.755,20.755,0,0,1,20.5,42,20.755,20.755,0,0,1,0,21,20.755,20.755,0,0,1,20.5,0Z" transform="translate(0.497 -0.104)"/><path d="M-965.211-3054.715h-36.84v-1h36.84Z" transform="translate(1004.716 3069.695)"/><path d="M-977.775-3027.843h-1v-27.591h1Z" transform="translate(999.97 3069.739)"/></g><g transform="translate(1020.828 2785.104)"><ellipse cx="20.5" cy="21" rx="20.5" ry="21" transform="translate(0.417 -0.104)" fill="#fff"/><path d="M20.5,2A18.139,18.139,0,0,0,7.435,7.548a19.364,19.364,0,0,0,0,26.9,18.157,18.157,0,0,0,26.129,0,19.364,19.364,0,0,0,0-26.9A18.139,18.139,0,0,0,20.5,2m0-2A20.755,20.755,0,0,1,41,21,20.755,20.755,0,0,1,20.5,42,20.755,20.755,0,0,1,0,21,20.755,20.755,0,0,1,20.5,0Z" transform="translate(0.417 -0.104)"/><path d="M-965.37-3054.715h-36.68v-1h36.68Z" transform="translate(1004.297 3069.695)"/><path d="M-977.775-3027.843h-1v-27.591h1Z" transform="translate(999.392 3069.739)"/></g><ellipse cx="3.5" cy="3" rx="3.5" ry="3" transform="translate(987.245 2692)"/><path d="M-1146.4-3046.5h-46.862v-1h46.862Z" transform="translate(2184.917 5741.79)"/><path d="M3.205,0,6.41,5.609H0Z" transform="translate(1040.342 2691.585) rotate(90)"/><circle cx="3" cy="3" r="3" transform="translate(1078.245 2692)"/><path d="M-1135.4-3046.5h-57.861v-1h57.861Z" transform="translate(2274.66 5741.79)"/><path d="M3.205,0,6.41,5.609H0Z" transform="translate(1142.063 2691.585) rotate(90)"/><circle cx="3.5" cy="3.5" r="3.5" transform="translate(1057.245 2803)"/><path d="M-1136.78-3046.5h-56.483v-1h56.483Z" transform="translate(2254.628 5853.167)"/><path d="M3.205,0,6.41,5.609H0Z" transform="translate(1120.028 2802.962) rotate(90)"/><ellipse cx="3" cy="3.5" rx="3" ry="3.5" transform="translate(968.245 2803)"/><path d="M-1147.332-3046.5h-45.931v-1h45.931Z" transform="translate(2165.687 5853.167)"/><path d="M3.5,0,7,6H0Z" transform="translate(1021.245 2803) rotate(90)"/><ellipse cx="3.205" cy="3.205" rx="3.205" ry="3.205" transform="translate(1157.729 2803.362)"/><path d="M-1148.622-3046.5h-44.64v-1h44.64Z" transform="translate(2354.788 5853.567)"/><path d="M3.205,0,6.41,5.609H0Z" transform="translate(1208.168 2803.362) rotate(90)"/><g transform="translate(949.927 2674.456)"><ellipse cx="21" cy="20.5" rx="21" ry="20.5" transform="translate(0.317 -0.456)" fill="#fff"/><path d="M21,2A19.134,19.134,0,0,0,7.548,7.435a18.157,18.157,0,0,0,0,26.129,19.364,19.364,0,0,0,26.9,0,18.157,18.157,0,0,0,0-26.129A19.134,19.134,0,0,0,21,2m0-2A20.755,20.755,0,0,1,42,20.5,20.755,20.755,0,0,1,21,41,20.755,20.755,0,0,1,0,20.5,20.755,20.755,0,0,1,21,0Z" transform="translate(0.317 -0.456)"/><path d="M-965.253-3054.715h-36.8v-1h36.8Z" transform="translate(1004.568 3068.966)"/><path d="M-977.775-3027.843h-1v-27.591h1Z" transform="translate(999.78 3069.01)"/></g><g transform="translate(932.739 2785.104)"><circle cx="21" cy="21" r="21" transform="translate(-0.495 -0.104)" fill="#fff"/><path d="M21,2A19,19,0,0,0,7.565,34.435a19,19,0,1,0,26.87-26.87A18.876,18.876,0,0,0,21,2m0-2A21,21,0,1,1,0,21,21,21,0,0,1,21,0Z" transform="translate(-0.495 -0.104)"/><path d="M-965.288-3054.715h-36.763v-1h36.763Z" transform="translate(1004.163 3069.695)"/><path d="M-977.775-3027.843h-1v-27.591h1Z" transform="translate(999.34 3069.739)"/></g><g transform="translate(853.245 2785.104)"><circle cx="21" cy="21" r="21" transform="translate(0 -0.104)" fill="#fff"/><path d="M21,2A19,19,0,0,0,7.565,34.435a19,19,0,1,0,26.87-26.87A18.876,18.876,0,0,0,21,2m0-2A21,21,0,1,1,0,21,21,21,0,0,1,21,0Z" transform="translate(0 -0.104)"/><path d="M-965.275-3054.715h-36.776v-1h36.776Z" transform="translate(1004.318 3069.695)"/><path d="M-977.775-3027.843h-1v-27.591h1Z" transform="translate(999.509 3069.739)"/></g><path d="M3.205,0,6.41,5.609H0Z" transform="translate(931.729 2802.962) rotate(90)"/><ellipse cx="3" cy="3.5" rx="3" ry="3.5" transform="translate(890.245 2803)"/><path d="M-1156.406-3046.5h-36.856v-1h36.856Z" transform="translate(2086.36 5853.167)"/><path d="M3.205,0,6.41,5.609H0Z" transform="translate(968.396 2713.957) rotate(14)"/><ellipse cx="3.205" cy="3.205" rx="3.205" ry="3.205" transform="translate(950.62 2782.129)"/><path d="M0,.562v-1L69.5-.5v1Z" transform="translate(954.03 2784.055) rotate(-76)"/><path d="M3.205,0,6.41,5.609H0Z" transform="translate(1058.119 2713.957) rotate(14)"/><ellipse cx="3.205" cy="3.205" rx="3.205" ry="3.205" transform="translate(1040.342 2782.129)"/><path d="M0,.562v-1L69.5-.5v1Z" transform="translate(1043.752 2784.055) rotate(-76)"/><path d="M3.205,0,6.41,5.609H0Z" transform="translate(1147.481 2786.832) rotate(-166)"/><path d="M71.471,1.5-.007.5l.014-1L71.485.5Z" transform="translate(1163.296 2715.062) rotate(104)"/><path d="M4.082,0H2.432V-5.254L.811-4.78V-6.03l3.12-1.079h.151Zm7.1,0H6.226V-1.074l2.285-2.4A2.727,2.727,0,0,0,9.355-5a1.063,1.063,0,0,0-.2-.7.715.715,0,0,0-.581-.239.724.724,0,0,0-.61.32,1.314,1.314,0,0,0-.234.8H6.079a2.335,2.335,0,0,1,.327-1.208A2.294,2.294,0,0,1,7.314-6.9a2.7,2.7,0,0,1,1.3-.312,2.654,2.654,0,0,1,1.775.532,1.9,1.9,0,0,1,.623,1.528,2.219,2.219,0,0,1-.156.818,3.587,3.587,0,0,1-.486.835A12.238,12.238,0,0,1,9.307-2.329L8.389-1.27h2.8Z" transform="translate(1147.245 2699)"/><path d="M4.409-7.212v1.294H4.336a2.47,2.47,0,0,0-1.516.442,1.866,1.866,0,0,0-.73,1.228A1.924,1.924,0,0,1,3.5-4.795a1.8,1.8,0,0,1,1.47.674,2.718,2.718,0,0,1,.547,1.768,2.489,2.489,0,0,1-.32,1.245A2.282,2.282,0,0,1,4.3-.222,2.568,2.568,0,0,1,3.027.1,2.654,2.654,0,0,1,1.675-.247,2.367,2.367,0,0,1,.747-1.23,3.24,3.24,0,0,1,.405-2.705v-.659A4.1,4.1,0,0,1,.876-5.339,3.416,3.416,0,0,1,2.222-6.714a3.846,3.846,0,0,1,1.938-.5ZM2.925-3.535a.941.941,0,0,0-.547.151.961.961,0,0,0-.327.371v.493q0,1.348.933,1.348a.757.757,0,0,0,.627-.337,1.373,1.373,0,0,0,.251-.845,1.348,1.348,0,0,0-.256-.852A.82.82,0,0,0,2.925-3.535Z" transform="translate(960.245 2699)"/><path d="M3.677-2.749a1.738,1.738,0,0,1-1.191.479A1.924,1.924,0,0,1,.952-2.925,2.578,2.578,0,0,1,.386-4.673,2.623,2.623,0,0,1,.7-5.942a2.381,2.381,0,0,1,.891-.928,2.429,2.429,0,0,1,1.267-.342,2.358,2.358,0,0,1,1.272.354,2.383,2.383,0,0,1,.886,1,3.438,3.438,0,0,1,.327,1.492v.63a4.274,4.274,0,0,1-.461,2.041A3.185,3.185,0,0,1,3.569-.366,4.112,4.112,0,0,1,1.577.1h-.1V-1.221l.313,0Q3.486-1.309,3.677-2.749ZM2.93-3.457A.8.8,0,0,0,3.7-3.921V-4.6a1.777,1.777,0,0,0-.229-1.011.72.72,0,0,0-.62-.327.68.68,0,0,0-.581.371,1.649,1.649,0,0,0-.234.9,1.478,1.478,0,0,0,.239.886A.765.765,0,0,0,2.93-3.457Z" transform="translate(1049.245 2699)"/><path d="M4.78-2.778H5.5v1.27H4.78V0H3.135V-1.509H.386l-.1-1.006,2.847-4.58v-.015H4.78Zm-2.925,0H3.135V-4.966l-.1.166Z" transform="translate(942.245 2813)"/><path d="M5.371-2.905A3.4,3.4,0,0,1,4.724-.684,2.236,2.236,0,0,1,2.9.1,2.248,2.248,0,0,1,1.064-.688,3.389,3.389,0,0,1,.415-2.905V-4.2a3.4,3.4,0,0,1,.647-2.222,2.241,2.241,0,0,1,1.829-.781,2.242,2.242,0,0,1,1.831.786A3.4,3.4,0,0,1,5.371-4.2ZM3.726-4.414a2.536,2.536,0,0,0-.2-1.145.669.669,0,0,0-.635-.378.653.653,0,0,0-.618.352,2.389,2.389,0,0,0-.208,1.064v1.816a2.555,2.555,0,0,0,.2,1.165.672.672,0,0,0,.635.369.663.663,0,0,0,.62-.359,2.439,2.439,0,0,0,.205-1.125Z" transform="translate(863.245 2813)"/><path d="M5.376-6.23,2.72,0H.981L3.643-5.84H.254v-1.27H5.376Z" transform="translate(1029.245 2813)"/><path d="M4.082,0H2.432V-5.254L.811-4.78V-6.03l3.12-1.079h.151ZM7.729-4.243h.776a.807.807,0,0,0,.923-.9.781.781,0,0,0-.22-.574.833.833,0,0,0-.62-.222.892.892,0,0,0-.569.19.581.581,0,0,0-.242.474H6.133a1.684,1.684,0,0,1,.313-1,2.064,2.064,0,0,1,.867-.686A2.963,2.963,0,0,1,8.53-7.212,2.912,2.912,0,0,1,10.4-6.67a1.8,1.8,0,0,1,.679,1.489,1.5,1.5,0,0,1-.281.867,2,2,0,0,1-.818.662,1.911,1.911,0,0,1,.889.623A1.64,1.64,0,0,1,11.187-2a1.834,1.834,0,0,1-.732,1.523A3.04,3.04,0,0,1,8.53.1a3.153,3.153,0,0,1-1.3-.266,2.031,2.031,0,0,1-.906-.737,1.917,1.917,0,0,1-.308-1.072H7.676a.741.741,0,0,0,.264.566.931.931,0,0,0,.649.239.975.975,0,0,0,.693-.242.808.808,0,0,0,.259-.618.944.944,0,0,0-.269-.762,1.123,1.123,0,0,0-.742-.225h-.8Z" transform="translate(1125.245 2810)"/><path d="M4.082,0H2.432V-5.254L.811-4.78V-6.03l3.12-1.079h.151Zm6.489-2.778h.723v1.27h-.723V0H8.926V-1.509H6.177l-.1-1.006,2.847-4.58v-.015h1.646Zm-2.925,0H8.926V-4.966l-.1.166Z" transform="translate(1213.245 2811)"/><path d="M.537,0V-7.109H3.091a3.616,3.616,0,0,1,2.087.5,1.673,1.673,0,0,1,.715,1.46A1.692,1.692,0,0,1,5.64-4.2a1.48,1.48,0,0,1-.747.576,1.5,1.5,0,0,1,.854.547,1.59,1.59,0,0,1,.3.977,1.882,1.882,0,0,1-.662,1.57A3.149,3.149,0,0,1,3.423,0ZM2.251-3.022v1.7H3.374a1.068,1.068,0,0,0,.713-.212.743.743,0,0,0,.249-.6.788.788,0,0,0-.884-.894Zm0-1.123h.894a1.272,1.272,0,0,0,.8-.205.727.727,0,0,0,.239-.591.763.763,0,0,0-.259-.647,1.388,1.388,0,0,0-.835-.2h-.84Z" transform="translate(942.245 2748)"/><path d="M5.4,0H.435V-1.074l2.285-2.4A2.727,2.727,0,0,0,3.564-5a1.063,1.063,0,0,0-.2-.7.715.715,0,0,0-.581-.239.724.724,0,0,0-.61.32,1.314,1.314,0,0,0-.234.8H.288A2.335,2.335,0,0,1,.615-6.033,2.294,2.294,0,0,1,1.523-6.9a2.7,2.7,0,0,1,1.3-.312A2.654,2.654,0,0,1,4.6-6.68,1.9,1.9,0,0,1,5.22-5.151a2.219,2.219,0,0,1-.156.818,3.587,3.587,0,0,1-.486.835A12.238,12.238,0,0,1,3.516-2.329L2.6-1.27H5.4Z" transform="translate(974.245 2748)"/><path d="M5.015-2.832H2.251V0H.537V-7.109H5.293v1.323H2.251V-4.15H5.015Z" transform="translate(1029.245 2748)"/><path d="M5.4,0H.435V-1.074l2.285-2.4A2.727,2.727,0,0,0,3.564-5a1.063,1.063,0,0,0-.2-.7.715.715,0,0,0-.581-.239.724.724,0,0,0-.61.32,1.314,1.314,0,0,0-.234.8H.288A2.335,2.335,0,0,1,.615-6.033,2.294,2.294,0,0,1,1.523-6.9a2.7,2.7,0,0,1,1.3-.312A2.654,2.654,0,0,1,4.6-6.68,1.9,1.9,0,0,1,5.22-5.151a2.219,2.219,0,0,1-.156.818,3.587,3.587,0,0,1-.486.835A12.238,12.238,0,0,1,3.516-2.329L2.6-1.27H5.4Z" transform="translate(1065.245 2748)"/><path d="M6.479,0h-1.7V-2.969H2.251V0H.537V-7.109H2.251v2.822H4.775V-7.109h1.7Z" transform="translate(1134.245 2748)"/><path d="M4.082,0H2.432V-5.254L.811-4.78V-6.03l3.12-1.079h.151Z" transform="translate(1167.245 2748)"/><text transform="translate(997.245 2798)" font-size="10" font-family="Roboto-Black, Roboto" font-weight="800"><tspan x="0" y="0">C</tspan></text><path d="M6.289-2.407a2.6,2.6,0,0,1-.4,1.311,2.416,2.416,0,0,1-1.028.881A3.5,3.5,0,0,1,3.35.1,2.792,2.792,0,0,1,1.143-.815,3.77,3.77,0,0,1,.337-3.394v-.352A4.3,4.3,0,0,1,.7-5.574,2.756,2.756,0,0,1,1.748-6.785,2.922,2.922,0,0,1,3.33-7.212a3.064,3.064,0,0,1,2.08.681A2.691,2.691,0,0,1,6.3-4.653H4.595a1.273,1.273,0,0,0-.327-.933,1.346,1.346,0,0,0-.937-.283,1.024,1.024,0,0,0-.937.479A3.075,3.075,0,0,0,2.08-3.862v.5a3.4,3.4,0,0,0,.286,1.626,1.045,1.045,0,0,0,.984.488,1.316,1.316,0,0,0,.9-.278,1.181,1.181,0,0,0,.332-.884Z" transform="translate(997.245 2798)"/><path d="M4.946-3.013h-2.7v1.694H5.435V0H.537V-7.109H5.444v1.323H2.251v1.5h2.7Z" transform="translate(1087.245 2798)"/><path d="M2.363,0H.654V-7.109H2.363Z" transform="translate(1177.245 2798)"/><path d="M4.082,0H2.432V-5.254L.811-4.78V-6.03l3.12-1.079h.151Z" transform="translate(1180.245 2820)"/><path d="M4.78-2.778H5.5v1.27H4.78V0H3.135V-1.509H.386l-.1-1.006,2.847-4.58v-.015H4.78Zm-2.925,0H3.135V-4.966l-.1.166Z" transform="translate(1088.245 2819)"/><path d="M1.938-4.243h.776a.807.807,0,0,0,.923-.9.781.781,0,0,0-.22-.574.833.833,0,0,0-.62-.222.892.892,0,0,0-.569.19.581.581,0,0,0-.242.474H.342a1.684,1.684,0,0,1,.313-1,2.064,2.064,0,0,1,.867-.686,2.963,2.963,0,0,1,1.218-.247A2.912,2.912,0,0,1,4.6-6.67a1.8,1.8,0,0,1,.679,1.489A1.5,1.5,0,0,1,5-4.314a2,2,0,0,1-.818.662,1.911,1.911,0,0,1,.889.623A1.64,1.64,0,0,1,5.4-2,1.834,1.834,0,0,1,4.663-.474,3.04,3.04,0,0,1,2.739.1a3.153,3.153,0,0,1-1.3-.266A2.031,2.031,0,0,1,.537-.906,1.917,1.917,0,0,1,.229-1.978H1.885a.741.741,0,0,0,.264.566.931.931,0,0,0,.649.239.975.975,0,0,0,.693-.242.808.808,0,0,0,.259-.618.944.944,0,0,0-.269-.762,1.123,1.123,0,0,0-.742-.225h-.8Z" transform="translate(996.245 2819)"/><path d="M4.78-2.778H5.5v1.27H4.78V0H3.135V-1.509H.386l-.1-1.006,2.847-4.58v-.015H4.78Zm-2.925,0H3.135V-4.966l-.1.166Z" transform="translate(905.245 2819)"/><path d="M4.575-1.328H2.227L1.816,0H-.015L2.593-7.109H4.2L6.831,0H4.99ZM2.637-2.651H4.165L3.4-5.117Z" transform="translate(905.245 2797)"/><text transform="translate(1009.245 2688)" font-size="10" font-family="Roboto-Black, Roboto" font-weight="800"><tspan x="0" y="0">D</tspan></text><text transform="translate(1107.245 2688)" font-size="10" font-family="Roboto-Black, Roboto" font-weight="800"><tspan x="0" y="0">G</tspan></text><path d="M3.237,0H2.385L1.125-2.212V0H.269V-3.555h.857L2.383-1.343V-3.555h.854Zm.4-1.345a1.559,1.559,0,0,1,.154-.7,1.1,1.1,0,0,1,.442-.475A1.331,1.331,0,0,1,4.91-2.69a1.215,1.215,0,0,1,.935.367,1.41,1.41,0,0,1,.342,1v.029a1.368,1.368,0,0,1-.343.98,1.218,1.218,0,0,1-.929.363,1.232,1.232,0,0,1-.906-.338,1.323,1.323,0,0,1-.369-.917Zm.823.051a.983.983,0,0,0,.115.537.382.382,0,0,0,.339.171q.439,0,.449-.676v-.083q0-.71-.454-.71-.413,0-.447.613ZM6.445-1.34a1.614,1.614,0,0,1,.271-.989.892.892,0,0,1,.757-.361.759.759,0,0,1,.6.278V-3.75h.825V0h-.74L8.113-.283a.779.779,0,0,1-.645.332.89.89,0,0,1-.747-.361A1.665,1.665,0,0,1,6.445-1.34Zm.823.051q0,.7.41.7a.4.4,0,0,0,.391-.229V-1.821a.394.394,0,0,0-.386-.234q-.381,0-.413.615Zm1.99-.056a1.559,1.559,0,0,1,.154-.7,1.1,1.1,0,0,1,.442-.475,1.331,1.331,0,0,1,.676-.166,1.215,1.215,0,0,1,.935.367,1.41,1.41,0,0,1,.342,1v.029a1.368,1.368,0,0,1-.343.98,1.218,1.218,0,0,1-.929.363,1.232,1.232,0,0,1-.906-.338,1.323,1.323,0,0,1-.369-.917Zm.823.051a.983.983,0,0,0,.115.537.382.382,0,0,0,.339.171q.439,0,.449-.676v-.083q0-.71-.454-.71-.413,0-.447.613ZM15.881,0H13.4V-.537l1.143-1.2a1.364,1.364,0,0,0,.422-.764.532.532,0,0,0-.1-.349.357.357,0,0,0-.291-.12.362.362,0,0,0-.305.16.657.657,0,0,0-.117.4h-.825a1.167,1.167,0,0,1,.164-.6,1.147,1.147,0,0,1,.454-.433,1.349,1.349,0,0,1,.649-.156,1.327,1.327,0,0,1,.887.266.95.95,0,0,1,.311.764,1.11,1.11,0,0,1-.078.409,1.793,1.793,0,0,1-.243.417,6.119,6.119,0,0,1-.531.585l-.459.53h1.4Z" transform="translate(963.245 2684)"/><path d="M3.237,0H2.385L1.125-2.212V0H.269V-3.555h.857L2.383-1.343V-3.555h.854Zm.4-1.345a1.559,1.559,0,0,1,.154-.7,1.1,1.1,0,0,1,.442-.475A1.331,1.331,0,0,1,4.91-2.69a1.215,1.215,0,0,1,.935.367,1.41,1.41,0,0,1,.342,1v.029a1.368,1.368,0,0,1-.343.98,1.218,1.218,0,0,1-.929.363,1.232,1.232,0,0,1-.906-.338,1.323,1.323,0,0,1-.369-.917Zm.823.051a.983.983,0,0,0,.115.537.382.382,0,0,0,.339.171q.439,0,.449-.676v-.083q0-.71-.454-.71-.413,0-.447.613ZM6.445-1.34a1.614,1.614,0,0,1,.271-.989.892.892,0,0,1,.757-.361.759.759,0,0,1,.6.278V-3.75h.825V0h-.74L8.113-.283a.779.779,0,0,1-.645.332.89.89,0,0,1-.747-.361A1.665,1.665,0,0,1,6.445-1.34Zm.823.051q0,.7.41.7a.4.4,0,0,0,.391-.229V-1.821a.394.394,0,0,0-.386-.234q-.381,0-.413.615Zm1.99-.056a1.559,1.559,0,0,1,.154-.7,1.1,1.1,0,0,1,.442-.475,1.331,1.331,0,0,1,.676-.166,1.215,1.215,0,0,1,.935.367,1.41,1.41,0,0,1,.342,1v.029a1.368,1.368,0,0,1-.343.98,1.218,1.218,0,0,1-.929.363,1.232,1.232,0,0,1-.906-.338,1.323,1.323,0,0,1-.369-.917Zm.823.051a.983.983,0,0,0,.115.537.382.382,0,0,0,.339.171q.439,0,.449-.676v-.083q0-.71-.454-.71-.413,0-.447.613Zm5.493-.1h.361v.635h-.361V0h-.823V-.754H13.376l-.049-.5,1.423-2.29v-.007h.823Zm-1.462,0h.64V-2.483L14.7-2.4Z" transform="translate(1052.245 2684)"/><path d="M3.237,0H2.385L1.125-2.212V0H.269V-3.555h.857L2.383-1.343V-3.555h.854Zm.4-1.345a1.559,1.559,0,0,1,.154-.7,1.1,1.1,0,0,1,.442-.475A1.331,1.331,0,0,1,4.91-2.69a1.215,1.215,0,0,1,.935.367,1.41,1.41,0,0,1,.342,1v.029a1.368,1.368,0,0,1-.343.98,1.218,1.218,0,0,1-.929.363,1.232,1.232,0,0,1-.906-.338,1.323,1.323,0,0,1-.369-.917Zm.823.051a.983.983,0,0,0,.115.537.382.382,0,0,0,.339.171q.439,0,.449-.676v-.083q0-.71-.454-.71-.413,0-.447.613ZM6.445-1.34a1.614,1.614,0,0,1,.271-.989.892.892,0,0,1,.757-.361.759.759,0,0,1,.6.278V-3.75h.825V0h-.74L8.113-.283a.779.779,0,0,1-.645.332.89.89,0,0,1-.747-.361A1.665,1.665,0,0,1,6.445-1.34Zm.823.051q0,.7.41.7a.4.4,0,0,0,.391-.229V-1.821a.394.394,0,0,0-.386-.234q-.381,0-.413.615Zm1.99-.056a1.559,1.559,0,0,1,.154-.7,1.1,1.1,0,0,1,.442-.475,1.331,1.331,0,0,1,.676-.166,1.215,1.215,0,0,1,.935.367,1.41,1.41,0,0,1,.342,1v.029a1.368,1.368,0,0,1-.343.98,1.218,1.218,0,0,1-.929.363,1.232,1.232,0,0,1-.906-.338,1.323,1.323,0,0,1-.369-.917Zm.823.051a.983.983,0,0,0,.115.537.382.382,0,0,0,.339.171q.439,0,.449-.676v-.083q0-.71-.454-.71-.413,0-.447.613Zm3.369-.444.217-1.816h2.078v.64H14.336l-.081.706a.973.973,0,0,1,.231-.09,1.057,1.057,0,0,1,.28-.039,1.043,1.043,0,0,1,.814.314,1.264,1.264,0,0,1,.284.88,1.261,1.261,0,0,1-.153.619,1.049,1.049,0,0,1-.428.426,1.353,1.353,0,0,1-.652.149A1.455,1.455,0,0,1,14-.089a1.126,1.126,0,0,1-.459-.378.92.92,0,0,1-.164-.543h.825a.468.468,0,0,0,.125.31.4.4,0,0,0,.3.115q.415,0,.415-.615,0-.569-.508-.569a.506.506,0,0,0-.43.186Z" transform="translate(1152.245 2684)"/><path d="M3.237,0H2.385L1.125-2.212V0H.269V-3.555h.857L2.383-1.343V-3.555h.854Zm.4-1.345a1.559,1.559,0,0,1,.154-.7,1.1,1.1,0,0,1,.442-.475A1.331,1.331,0,0,1,4.91-2.69a1.215,1.215,0,0,1,.935.367,1.41,1.41,0,0,1,.342,1v.029a1.368,1.368,0,0,1-.343.98,1.218,1.218,0,0,1-.929.363,1.232,1.232,0,0,1-.906-.338,1.323,1.323,0,0,1-.369-.917Zm.823.051a.983.983,0,0,0,.115.537.382.382,0,0,0,.339.171q.439,0,.449-.676v-.083q0-.71-.454-.71-.413,0-.447.613ZM6.445-1.34a1.614,1.614,0,0,1,.271-.989.892.892,0,0,1,.757-.361.759.759,0,0,1,.6.278V-3.75h.825V0h-.74L8.113-.283a.779.779,0,0,1-.645.332.89.89,0,0,1-.747-.361A1.665,1.665,0,0,1,6.445-1.34Zm.823.051q0,.7.41.7a.4.4,0,0,0,.391-.229V-1.821a.394.394,0,0,0-.386-.234q-.381,0-.413.615Zm1.99-.056a1.559,1.559,0,0,1,.154-.7,1.1,1.1,0,0,1,.442-.475,1.331,1.331,0,0,1,.676-.166,1.215,1.215,0,0,1,.935.367,1.41,1.41,0,0,1,.342,1v.029a1.368,1.368,0,0,1-.343.98,1.218,1.218,0,0,1-.929.363,1.232,1.232,0,0,1-.906-.338,1.323,1.323,0,0,1-.369-.917Zm.823.051a.983.983,0,0,0,.115.537.382.382,0,0,0,.339.171q.439,0,.449-.676v-.083q0-.71-.454-.71-.413,0-.447.613Zm5.791-1.821L14.543,0h-.869L15-2.92H13.311v-.635h2.561Z" transform="translate(1215.245 2795)"/><path d="M3.237,0H2.385L1.125-2.212V0H.269V-3.555h.857L2.383-1.343V-3.555h.854Zm.4-1.345a1.559,1.559,0,0,1,.154-.7,1.1,1.1,0,0,1,.442-.475A1.331,1.331,0,0,1,4.91-2.69a1.215,1.215,0,0,1,.935.367,1.41,1.41,0,0,1,.342,1v.029a1.368,1.368,0,0,1-.343.98,1.218,1.218,0,0,1-.929.363,1.232,1.232,0,0,1-.906-.338,1.323,1.323,0,0,1-.369-.917Zm.823.051a.983.983,0,0,0,.115.537.382.382,0,0,0,.339.171q.439,0,.449-.676v-.083q0-.71-.454-.71-.413,0-.447.613ZM6.445-1.34a1.614,1.614,0,0,1,.271-.989.892.892,0,0,1,.757-.361.759.759,0,0,1,.6.278V-3.75h.825V0h-.74L8.113-.283a.779.779,0,0,1-.645.332.89.89,0,0,1-.747-.361A1.665,1.665,0,0,1,6.445-1.34Zm.823.051q0,.7.41.7a.4.4,0,0,0,.391-.229V-1.821a.394.394,0,0,0-.386-.234q-.381,0-.413.615Zm1.99-.056a1.559,1.559,0,0,1,.154-.7,1.1,1.1,0,0,1,.442-.475,1.331,1.331,0,0,1,.676-.166,1.215,1.215,0,0,1,.935.367,1.41,1.41,0,0,1,.342,1v.029a1.368,1.368,0,0,1-.343.98,1.218,1.218,0,0,1-.929.363,1.232,1.232,0,0,1-.906-.338,1.323,1.323,0,0,1-.369-.917Zm.823.051a.983.983,0,0,0,.115.537.382.382,0,0,0,.339.171q.439,0,.449-.676v-.083q0-.71-.454-.71-.413,0-.447.613Zm5.308-2.312v.647h-.037a1.235,1.235,0,0,0-.758.221.933.933,0,0,0-.365.614.962.962,0,0,1,.7-.273.9.9,0,0,1,.735.337,1.359,1.359,0,0,1,.273.884,1.244,1.244,0,0,1-.16.623,1.141,1.141,0,0,1-.447.443,1.284,1.284,0,0,1-.636.16,1.327,1.327,0,0,1-.676-.172,1.183,1.183,0,0,1-.464-.492,1.62,1.62,0,0,1-.171-.737v-.33a2.052,2.052,0,0,1,.236-.988,1.708,1.708,0,0,1,.673-.687,1.923,1.923,0,0,1,.969-.249Zm-.742,1.838a.471.471,0,0,0-.273.076.48.48,0,0,0-.164.186v.247q0,.674.466.674a.378.378,0,0,0,.314-.168.687.687,0,0,0,.126-.422.674.674,0,0,0-.128-.426A.41.41,0,0,0,14.646-1.768Z" transform="translate(1129.245 2795)"/><path d="M3.237,0H2.385L1.125-2.212V0H.269V-3.555h.857L2.383-1.343V-3.555h.854Zm.4-1.345a1.559,1.559,0,0,1,.154-.7,1.1,1.1,0,0,1,.442-.475A1.331,1.331,0,0,1,4.91-2.69a1.215,1.215,0,0,1,.935.367,1.41,1.41,0,0,1,.342,1v.029a1.368,1.368,0,0,1-.343.98,1.218,1.218,0,0,1-.929.363,1.232,1.232,0,0,1-.906-.338,1.323,1.323,0,0,1-.369-.917Zm.823.051a.983.983,0,0,0,.115.537.382.382,0,0,0,.339.171q.439,0,.449-.676v-.083q0-.71-.454-.71-.413,0-.447.613ZM6.445-1.34a1.614,1.614,0,0,1,.271-.989.892.892,0,0,1,.757-.361.759.759,0,0,1,.6.278V-3.75h.825V0h-.74L8.113-.283a.779.779,0,0,1-.645.332.89.89,0,0,1-.747-.361A1.665,1.665,0,0,1,6.445-1.34Zm.823.051q0,.7.41.7a.4.4,0,0,0,.391-.229V-1.821a.394.394,0,0,0-.386-.234q-.381,0-.413.615Zm1.99-.056a1.559,1.559,0,0,1,.154-.7,1.1,1.1,0,0,1,.442-.475,1.331,1.331,0,0,1,.676-.166,1.215,1.215,0,0,1,.935.367,1.41,1.41,0,0,1,.342,1v.029a1.368,1.368,0,0,1-.343.98,1.218,1.218,0,0,1-.929.363,1.232,1.232,0,0,1-.906-.338,1.323,1.323,0,0,1-.369-.917Zm.823.051a.983.983,0,0,0,.115.537.382.382,0,0,0,.339.171q.439,0,.449-.676v-.083q0-.71-.454-.71-.413,0-.447.613Zm4.072-.828h.388A.4.4,0,0,0,15-2.573a.391.391,0,0,0-.11-.287.417.417,0,0,0-.31-.111.446.446,0,0,0-.284.1.29.29,0,0,0-.121.237h-.823a.842.842,0,0,1,.156-.5,1.032,1.032,0,0,1,.433-.343,1.482,1.482,0,0,1,.609-.123,1.456,1.456,0,0,1,.933.271.9.9,0,0,1,.339.745.751.751,0,0,1-.14.433,1,1,0,0,1-.409.331.956.956,0,0,1,.444.311A.82.82,0,0,1,15.881-1a.917.917,0,0,1-.366.762,1.52,1.52,0,0,1-.962.286,1.576,1.576,0,0,1-.648-.133,1.016,1.016,0,0,1-.453-.369A.958.958,0,0,1,13.3-.989h.828a.37.37,0,0,0,.132.283.465.465,0,0,0,.325.12.488.488,0,0,0,.347-.121.4.4,0,0,0,.129-.309.472.472,0,0,0-.134-.381.561.561,0,0,0-.371-.112h-.4Z" transform="translate(1030.245 2795)"/><path d="M3.237,0H2.385L1.125-2.212V0H.269V-3.555h.857L2.383-1.343V-3.555h.854Zm.4-1.345a1.559,1.559,0,0,1,.154-.7,1.1,1.1,0,0,1,.442-.475A1.331,1.331,0,0,1,4.91-2.69a1.215,1.215,0,0,1,.935.367,1.41,1.41,0,0,1,.342,1v.029a1.368,1.368,0,0,1-.343.98,1.218,1.218,0,0,1-.929.363,1.232,1.232,0,0,1-.906-.338,1.323,1.323,0,0,1-.369-.917Zm.823.051a.983.983,0,0,0,.115.537.382.382,0,0,0,.339.171q.439,0,.449-.676v-.083q0-.71-.454-.71-.413,0-.447.613ZM6.445-1.34a1.614,1.614,0,0,1,.271-.989.892.892,0,0,1,.757-.361.759.759,0,0,1,.6.278V-3.75h.825V0h-.74L8.113-.283a.779.779,0,0,1-.645.332.89.89,0,0,1-.747-.361A1.665,1.665,0,0,1,6.445-1.34Zm.823.051q0,.7.41.7a.4.4,0,0,0,.391-.229V-1.821a.394.394,0,0,0-.386-.234q-.381,0-.413.615Zm1.99-.056a1.559,1.559,0,0,1,.154-.7,1.1,1.1,0,0,1,.442-.475,1.331,1.331,0,0,1,.676-.166,1.215,1.215,0,0,1,.935.367,1.41,1.41,0,0,1,.342,1v.029a1.368,1.368,0,0,1-.343.98,1.218,1.218,0,0,1-.929.363,1.232,1.232,0,0,1-.906-.338,1.323,1.323,0,0,1-.369-.917Zm.823.051a.983.983,0,0,0,.115.537.382.382,0,0,0,.339.171q.439,0,.449-.676v-.083q0-.71-.454-.71-.413,0-.447.613ZM15.225,0H14.4V-2.627l-.811.237v-.625l1.56-.54h.076Z" transform="translate(943.245 2795)"/><path d="M3.237,0H2.385L1.125-2.212V0H.269V-3.555h.857L2.383-1.343V-3.555h.854Zm.4-1.345a1.559,1.559,0,0,1,.154-.7,1.1,1.1,0,0,1,.442-.475A1.331,1.331,0,0,1,4.91-2.69a1.215,1.215,0,0,1,.935.367,1.41,1.41,0,0,1,.342,1v.029a1.368,1.368,0,0,1-.343.98,1.218,1.218,0,0,1-.929.363,1.232,1.232,0,0,1-.906-.338,1.323,1.323,0,0,1-.369-.917Zm.823.051a.983.983,0,0,0,.115.537.382.382,0,0,0,.339.171q.439,0,.449-.676v-.083q0-.71-.454-.71-.413,0-.447.613ZM6.445-1.34a1.614,1.614,0,0,1,.271-.989.892.892,0,0,1,.757-.361.759.759,0,0,1,.6.278V-3.75h.825V0h-.74L8.113-.283a.779.779,0,0,1-.645.332.89.89,0,0,1-.747-.361A1.665,1.665,0,0,1,6.445-1.34Zm.823.051q0,.7.41.7a.4.4,0,0,0,.391-.229V-1.821a.394.394,0,0,0-.386-.234q-.381,0-.413.615Zm1.99-.056a1.559,1.559,0,0,1,.154-.7,1.1,1.1,0,0,1,.442-.475,1.331,1.331,0,0,1,.676-.166,1.215,1.215,0,0,1,.935.367,1.41,1.41,0,0,1,.342,1v.029a1.368,1.368,0,0,1-.343.98,1.218,1.218,0,0,1-.929.363,1.232,1.232,0,0,1-.906-.338,1.323,1.323,0,0,1-.369-.917Zm.823.051a.983.983,0,0,0,.115.537.382.382,0,0,0,.339.171q.439,0,.449-.676v-.083q0-.71-.454-.71-.413,0-.447.613Zm5.789-.159a1.7,1.7,0,0,1-.323,1.111,1.118,1.118,0,0,1-.912.391,1.124,1.124,0,0,1-.918-.393,1.7,1.7,0,0,1-.325-1.108V-2.1a1.7,1.7,0,0,1,.323-1.111,1.121,1.121,0,0,1,.914-.391,1.121,1.121,0,0,1,.916.393A1.7,1.7,0,0,1,15.869-2.1Zm-.823-.754a1.268,1.268,0,0,0-.1-.573.335.335,0,0,0-.317-.189.327.327,0,0,0-.309.176,1.194,1.194,0,0,0-.1.532v.908a1.277,1.277,0,0,0,.1.582.336.336,0,0,0,.317.184.331.331,0,0,0,.31-.179,1.219,1.219,0,0,0,.1-.563Z" transform="translate(864.245 2795)"/><path d="M5.376-6.23,2.72,0H.981L3.643-5.84H.254v-1.27H5.376Z" transform="translate(976.245 2699)"/><path d="M3.677-2.749a1.738,1.738,0,0,1-1.191.479A1.924,1.924,0,0,1,.952-2.925,2.578,2.578,0,0,1,.386-4.673,2.623,2.623,0,0,1,.7-5.942a2.381,2.381,0,0,1,.891-.928,2.429,2.429,0,0,1,1.267-.342,2.358,2.358,0,0,1,1.272.354,2.383,2.383,0,0,1,.886,1,3.438,3.438,0,0,1,.327,1.492v.63a4.274,4.274,0,0,1-.461,2.041A3.185,3.185,0,0,1,3.569-.366,4.112,4.112,0,0,1,1.577.1h-.1V-1.221l.313,0Q3.486-1.309,3.677-2.749ZM2.93-3.457A.8.8,0,0,0,3.7-3.921V-4.6a1.777,1.777,0,0,0-.229-1.011.72.72,0,0,0-.62-.327.68.68,0,0,0-.581.371,1.649,1.649,0,0,0-.234.9,1.478,1.478,0,0,0,.239.886A.765.765,0,0,0,2.93-3.457Z" transform="translate(1065.245 2699)"/><path d="M4.082,0H2.432V-5.254L.811-4.78V-6.03l3.12-1.079h.151Zm7.1,0H6.226V-1.074l2.285-2.4A2.727,2.727,0,0,0,9.355-5a1.063,1.063,0,0,0-.2-.7.715.715,0,0,0-.581-.239.724.724,0,0,0-.61.32,1.314,1.314,0,0,0-.234.8H6.079a2.335,2.335,0,0,1,.327-1.208A2.294,2.294,0,0,1,7.314-6.9a2.7,2.7,0,0,1,1.3-.312,2.654,2.654,0,0,1,1.775.532,1.9,1.9,0,0,1,.623,1.528,2.219,2.219,0,0,1-.156.818,3.587,3.587,0,0,1-.486.835A12.238,12.238,0,0,1,9.307-2.329L8.389-1.27h2.8Z" transform="translate(1166.245 2699)"/><path d="M4.082,0H2.432V-5.254L.811-4.78V-6.03l3.12-1.079h.151Zm6.489-2.778h.723v1.27h-.723V0H8.926V-1.509H6.177l-.1-1.006,2.847-4.58v-.015h1.646Zm-2.925,0H8.926V-4.966l-.1.166Z" transform="translate(1231.245 2811)"/><path d="M4.082,0H2.432V-5.254L.811-4.78V-6.03l3.12-1.079h.151ZM7.729-4.243h.776a.807.807,0,0,0,.923-.9.781.781,0,0,0-.22-.574.833.833,0,0,0-.62-.222.892.892,0,0,0-.569.19.581.581,0,0,0-.242.474H6.133a1.684,1.684,0,0,1,.313-1,2.064,2.064,0,0,1,.867-.686A2.963,2.963,0,0,1,8.53-7.212,2.912,2.912,0,0,1,10.4-6.67a1.8,1.8,0,0,1,.679,1.489,1.5,1.5,0,0,1-.281.867,2,2,0,0,1-.818.662,1.911,1.911,0,0,1,.889.623A1.64,1.64,0,0,1,11.187-2a1.834,1.834,0,0,1-.732,1.523A3.04,3.04,0,0,1,8.53.1a3.153,3.153,0,0,1-1.3-.266,2.031,2.031,0,0,1-.906-.737,1.917,1.917,0,0,1-.308-1.072H7.676a.741.741,0,0,0,.264.566.931.931,0,0,0,.649.239.975.975,0,0,0,.693-.242.808.808,0,0,0,.259-.618.944.944,0,0,0-.269-.762,1.123,1.123,0,0,0-.742-.225h-.8Z" transform="translate(1142.245 2810)"/><path d="M5.376-6.23,2.72,0H.981L3.643-5.84H.254v-1.27H5.376Z" transform="translate(1046.245 2813)"/><path d="M4.78-2.778H5.5v1.27H4.78V0H3.135V-1.509H.386l-.1-1.006,2.847-4.58v-.015H4.78Zm-2.925,0H3.135V-4.966l-.1.166Z" transform="translate(956.245 2813)"/><path d="M5.371-2.905A3.4,3.4,0,0,1,4.724-.684,2.236,2.236,0,0,1,2.9.1,2.248,2.248,0,0,1,1.064-.688,3.389,3.389,0,0,1,.415-2.905V-4.2a3.4,3.4,0,0,1,.647-2.222,2.241,2.241,0,0,1,1.829-.781,2.242,2.242,0,0,1,1.831.786A3.4,3.4,0,0,1,5.371-4.2ZM3.726-4.414a2.536,2.536,0,0,0-.2-1.145.669.669,0,0,0-.635-.378.653.653,0,0,0-.618.352,2.389,2.389,0,0,0-.208,1.064v1.816a2.555,2.555,0,0,0,.2,1.165.672.672,0,0,0,.635.369.663.663,0,0,0,.62-.359,2.439,2.439,0,0,0,.205-1.125Z" transform="translate(879.245 2813)"/></g></svg>