<svg xmlns="http://www.w3.org/2000/svg" width="320" height="307" viewBox="0 0 320 307"><g transform="translate(-601 -1601.678)"><g transform="translate(404 3421.678)"><g transform="translate(456.056 -1659.25)"><ellipse cx="30.5" cy="30" rx="30.5" ry="30" transform="translate(-0.056 0.25)" fill="#fff"/><path d="M30.5,2A28.756,28.756,0,0,0,19.4,4.2a28.441,28.441,0,0,0-9.061,6.009,27.887,27.887,0,0,0-6.1,8.9,27.644,27.644,0,0,0,0,21.775,27.887,27.887,0,0,0,6.1,8.9A28.441,28.441,0,0,0,19.4,55.8a29.071,29.071,0,0,0,22.207,0,28.441,28.441,0,0,0,9.061-6.009,27.887,27.887,0,0,0,6.1-8.9,27.644,27.644,0,0,0,0-21.775,27.887,27.887,0,0,0-6.1-8.9A28.441,28.441,0,0,0,41.6,4.2,28.756,28.756,0,0,0,30.5,2m0-2C47.345,0,61,13.431,61,30S47.345,60,30.5,60,0,46.569,0,30,13.655,0,30.5,0Z" transform="translate(-0.056 0.25)"/><path d="M-947.4-3054.715h-54.65v-1h54.65Z" transform="translate(1005.021 3075.758)"/><path d="M-977.775-3015.473h-1v-39.96h1Z" transform="translate(1009.516 3075.723)"/></g><g transform="translate(351.582 -1802.972)"><path d="M30,0A30,30,0,1,1,0,30,30,30,0,0,1,30,0Z" transform="translate(0.418 -0.028)" fill="#fff"/><path d="M30,2A28.008,28.008,0,0,0,19.1,55.8,28.008,28.008,0,0,0,40.9,4.2,27.823,27.823,0,0,0,30,2m0-2A30,30,0,1,1,0,30,30,30,0,0,1,30,0Z" transform="translate(0.418 -0.028)"/><path d="M-948.263-3054.715h-54.709v-1h54.709Z" transform="translate(1005.95 3076.172)"/><path d="M-978.346-3017.127l-1-.015.571-38.3,1,.015Z" transform="translate(1008.866 3076.137)"/></g><g transform="translate(329.214 -1659.25)"><circle cx="30" cy="30" r="30" transform="translate(-0.214 0.25)" fill="#fff"/><path d="M30,2A28.008,28.008,0,0,0,19.1,55.8,28.008,28.008,0,0,0,40.9,4.2,27.823,27.823,0,0,0,30,2m0-2A30,30,0,1,1,0,30,30,30,0,0,1,30,0Z" transform="translate(-0.214 0.25)"/><path d="M-948.728-3054.715h-53.323v-1h53.323Z" transform="translate(1004.95 3075.758)"/><path d="M-977.775-3015.473h-1v-39.96h1Z" transform="translate(1008.703 3075.723)"/></g><g transform="translate(214 -1659.25)"><circle cx="30" cy="30" r="30" transform="translate(0 0.25)" fill="#fff"/><path d="M30,2A28.008,28.008,0,0,0,19.1,55.8,28.008,28.008,0,0,0,40.9,4.2,27.823,27.823,0,0,0,30,2m0-2A30,30,0,1,1,0,30,30,30,0,0,1,30,0Z" transform="translate(0 0.25)"/><path d="M-948.731-3054.715h-53.32v-1h53.32Z" transform="translate(1005.278 3075.758)"/><path d="M-977.775-3015.473h-1v-39.96h1Z" transform="translate(1009.028 3075.723)"/></g><g transform="translate(-145 -283)"><circle cx="4" cy="4" r="4" transform="translate(419 -1348)"/><path d="M-1147.573-3046.5h-45.689v-1h45.689Z" transform="translate(1617 1703)"/><path d="M4,0,8,7H0Z" transform="translate(472 -1348) rotate(90)"/></g><g transform="translate(-40.473 -288)"><path d="M4,0,8,7H0Z" transform="translate(417.711 -1455.762) rotate(14)"/><circle cx="4" cy="4" r="4" transform="translate(396.525 -1374)"/><path d="M-1233.61-3044v-1l82.262-.077v1Z" transform="translate(3653.36 -1832.013) rotate(-76)"/></g><text transform="translate(419 -1607)" font-size="14" font-family="Roboto-Black, Roboto" font-weight="800"><tspan x="0" y="0">3</tspan></text><text transform="translate(287 -1607)" font-size="14" font-family="Roboto-Black, Roboto" font-weight="800"><tspan x="0" y="0">4</tspan></text><text transform="translate(288 -1635)" font-size="14" font-family="Roboto-Black, Roboto" font-weight="800"><tspan x="0" y="0">A</tspan></text><text transform="translate(369 -1813)" font-size="8" font-family="Roboto-Black, Roboto" font-weight="800"><tspan x="0" y="0">Nodo 2</tspan></text><text transform="translate(475 -1586)" font-size="8" font-family="Roboto-Black, Roboto" font-weight="800"><tspan x="0" y="0">Nodo 3</tspan></text><text transform="translate(347 -1586)" font-size="8" font-family="Roboto-Black, Roboto" font-weight="800"><tspan x="0" y="0">Nodo 1</tspan></text><text transform="translate(231 -1586)" font-size="8" font-family="Roboto-Black, Roboto" font-weight="800"><tspan x="0" y="0">Nodo 0</tspan></text><g transform="translate(-33 -283)"><circle cx="4" cy="4" r="4" transform="translate(419 -1348)"/><path d="M-1131.857-3046.5h-61.406v-1h61.406Z" transform="translate(1617 1703)"/><path d="M4,0,8,7H0Z" transform="translate(488 -1348) rotate(90)"/></g><text transform="translate(420 -1634)" font-size="14" font-family="Roboto-Black, Roboto" font-weight="800"><tspan x="0" y="0">C</tspan></text></g><text transform="translate(601 1868.678)" fill="#12263f" font-size="16" font-family="Roboto-Regular, Roboto"><tspan x="0" y="15">Fuente:(SENA – LP Risaralda, 2014).</tspan></text></g></svg>