<svg xmlns="http://www.w3.org/2000/svg" width="495" height="259" viewBox="0 0 495 259"><g transform="translate(-494 -750.678)"><text transform="translate(601 969.678)" fill="#12263f" font-size="16" font-family="Roboto-Regular, Roboto"><tspan x="0" y="15">Fuente:(SENA – LP Risaralda, 2014).</tspan></text><g transform="translate(496 3098.678)"><g transform="translate(-1015.051 -10883)"><circle cx="26" cy="26" r="26" transform="translate(1247.051 8535)" fill="#fff"/><path d="M26,2a24.007,24.007,0,0,0-9.341,46.115A24.007,24.007,0,0,0,35.341,3.885,23.848,23.848,0,0,0,26,2m0-2A26,26,0,1,1,0,26,26,26,0,0,1,26,0Z" transform="translate(1247.051 8535)"/><path d="M-956.024-3054.715h-46.027v-1h46.027Z" transform="translate(2251.801 11608)"/><path d="M-977.775-3021h-1v-34.434h1Z" transform="translate(2251.826 11608)"/></g><g transform="translate(-888.051 -10883)"><circle cx="26" cy="26" r="26" transform="translate(1247.051 8535)" fill="#fff"/><path d="M26,2a24.007,24.007,0,0,0-9.341,46.115A24.007,24.007,0,0,0,35.341,3.885,23.848,23.848,0,0,0,26,2m0-2A26,26,0,1,1,0,26,26,26,0,0,1,26,0Z" transform="translate(1247.051 8535)"/><path d="M-956-3054.715h-46.055v-1H-956Z" transform="translate(2251.773 11608)"/><path d="M-977.775-3021h-1v-34.434h1Z" transform="translate(2251.826 11608)"/></g><g transform="translate(-916.051 -10744)"><circle cx="26" cy="26" r="26" transform="translate(1247.051 8535)" fill="#fff"/><path d="M26,2a24.007,24.007,0,0,0-9.341,46.115A24.007,24.007,0,0,0,35.341,3.885,23.848,23.848,0,0,0,26,2m0-2A26,26,0,1,1,0,26,26,26,0,0,1,26,0Z" transform="translate(1247.051 8535)"/><path d="M-956.824-3054.715h-46.161v-1h46.161Z" transform="translate(2252.602 11608)"/><path d="M-977.775-3021h-1v-34.434h1Z" transform="translate(2251.826 11608)"/></g><g transform="translate(-806.051 -10744)"><circle cx="26" cy="26" r="26" transform="translate(1247.051 8535)" fill="#fff"/><path d="M26,2a24.007,24.007,0,0,0-9.341,46.115A24.007,24.007,0,0,0,35.341,3.885,23.848,23.848,0,0,0,26,2m0-2A26,26,0,1,1,0,26,26,26,0,0,1,26,0Z" transform="translate(1247.051 8535)"/><path d="M-956.074-3054.715h-45.977v-1h45.977Z" transform="translate(2251.852 11608)"/><path d="M-977.775-3021h-1v-34.434h1Z" transform="translate(2251.826 11608)"/></g><g transform="translate(-1040.051 -10744)"><circle cx="26" cy="26" r="26" transform="translate(1247.051 8535)" fill="#fff"/><path d="M26,2a24.007,24.007,0,0,0-9.341,46.115A24.007,24.007,0,0,0,35.341,3.885,23.848,23.848,0,0,0,26,2m0-2A26,26,0,1,1,0,26,26,26,0,0,1,26,0Z" transform="translate(1247.051 8535)"/><path d="M-956.273-3054.715h-45.778v-1h45.778Z" transform="translate(2252.051 11608)"/><path d="M-977.775-3021h-1v-34.434h1Z" transform="translate(2251.826 11608)"/></g><circle cx="4" cy="4" r="4" transform="translate(166 -2326)"/><path d="M-1134.778-3046.5h-58.484v-1h58.484Z" transform="translate(1364 725)"/><path d="M4,0,8,7H0Z" transform="translate(231.5 -2326) rotate(90)"/><circle cx="4" cy="4" r="4" transform="translate(278 -2326)"/><path d="M-1121.051-3046.5h-72.211v-1h72.211Z" transform="translate(1476 725)"/><path d="M4,0,8,7H0Z" transform="translate(358.449 -2326) rotate(90)"/><circle cx="4" cy="4" r="4" transform="translate(253 -2187)"/><path d="M-1122.771-3046.5h-70.491v-1h70.491Z" transform="translate(1451 864)"/><path d="M4,0,8,7H0Z" transform="translate(330.949 -2187) rotate(90)"/><circle cx="4" cy="4" r="4" transform="translate(142 -2187)"/><path d="M-1135.94-3046.5h-57.322v-1h57.322Z" transform="translate(1340 864)"/><path d="M4,0,8,7H0Z" transform="translate(207 -2187) rotate(90)"/><circle cx="4" cy="4" r="4" transform="translate(378 -2186.5)"/><path d="M-1137.551-3046.5h-55.711v-1h55.711Z" transform="translate(1576 864.5)"/><path d="M4,0,8,7H0Z" transform="translate(440.949 -2186.5) rotate(90)"/><g transform="translate(-1128.051 -10883)"><circle cx="26" cy="26" r="26" transform="translate(1247.051 8535)" fill="#fff"/><path d="M26,2a24.007,24.007,0,0,0-9.341,46.115A24.007,24.007,0,0,0,35.341,3.885,23.848,23.848,0,0,0,26,2m0-2A26,26,0,1,1,0,26,26,26,0,0,1,26,0Z" transform="translate(1247.051 8535)"/><path d="M-956.127-3054.715h-45.924v-1h45.924Z" transform="translate(2251.905 11608)"/><path d="M-977.775-3021h-1v-34.434h1Z" transform="translate(2251.826 11608)"/></g><g transform="translate(-1150.051 -10744)"><circle cx="26" cy="26" r="26" transform="translate(1247.051 8535)" fill="#fff"/><path d="M26,2a24.007,24.007,0,0,0-9.341,46.115A24.007,24.007,0,0,0,35.341,3.885,23.848,23.848,0,0,0,26,2m0-2A26,26,0,1,1,0,26,26,26,0,0,1,26,0Z" transform="translate(1247.051 8535)"/><path d="M-956.17-3054.715h-45.881v-1h45.881Z" transform="translate(2251.948 11608)"/><path d="M-977.775-3021h-1v-34.434h1Z" transform="translate(2251.826 11608)"/></g><g transform="translate(-1249.051 -10744)"><circle cx="26" cy="26" r="26" transform="translate(1247.051 8535)" fill="#fff"/><path d="M26,2a24.007,24.007,0,0,0-9.341,46.115A24.007,24.007,0,0,0,35.341,3.885,23.848,23.848,0,0,0,26,2m0-2A26,26,0,1,1,0,26,26,26,0,0,1,26,0Z" transform="translate(1247.051 8535)"/><path d="M-956.154-3054.715h-45.9v-1h45.9Z" transform="translate(2251.932 11608)"/><path d="M-977.775-3021h-1v-34.434h1Z" transform="translate(2251.826 11608)"/></g><path d="M4,0,8,7H0Z" transform="translate(95.949 -2187) rotate(90)"/><circle cx="4" cy="4" r="4" transform="translate(43 -2187)"/><path d="M-1147.266-3046.5h-46v-1h46Z" transform="translate(1241 864)"/><path d="M4,0,8,7H0Z" transform="translate(141.711 -2298.079) rotate(14)"/><circle cx="4" cy="4" r="4" transform="translate(119.525 -2213)"/><path d="M-1233.61-3044v-1l86.743-.077v1Z" transform="translate(3376.36 -2671.013) rotate(-76)"/><path d="M4,0,8,7H0Z" transform="translate(253.685 -2298.079) rotate(14)"/><circle cx="4" cy="4" r="4" transform="translate(231.5 -2213)"/><path d="M-1233.61-3044v-1l86.743-.077v1Z" transform="translate(3488.335 -2671.014) rotate(-76)"/><path d="M4,0,8,7H0Z" transform="translate(365.212 -2207.131) rotate(-166)"/><path d="M-1146.875-3044.078l-89.206-1.249.014-1,89.206,1.249Z" transform="translate(-2869.438 -1834.196) rotate(104)"/></g><g transform="translate(0.949 -8523.322)"><text transform="translate(861.051 9309)" font-size="14" font-family="Roboto-Black, Roboto" font-weight="800"><tspan x="0" y="0">12</tspan></text><text transform="translate(627.051 9309)" font-size="14" font-family="Roboto-Black, Roboto" font-weight="800"><tspan x="0" y="0">6</tspan></text><text transform="translate(737.051 9309)" font-size="14" font-family="Roboto-Black, Roboto" font-weight="800"><tspan x="0" y="0">9</tspan></text><text transform="translate(604.051 9450)" font-size="14" font-family="Roboto-Black, Roboto" font-weight="800"><tspan x="0" y="0">4</tspan></text><text transform="translate(505.051 9450)" font-size="14" font-family="Roboto-Black, Roboto" font-weight="800"><tspan x="0" y="0">0</tspan></text><text transform="translate(713.051 9450)" font-size="14" font-family="Roboto-Black, Roboto" font-weight="800"><tspan x="0" y="0">7</tspan></text><text transform="translate(832.051 9447)" font-size="14" font-family="Roboto-Black, Roboto" font-weight="800"><tspan x="0" y="0">13</tspan></text><text transform="translate(940.051 9448)" font-size="14" font-family="Roboto-Black, Roboto" font-weight="800"><tspan x="0" y="0">14</tspan></text><text transform="translate(604.051 9369)" font-size="14" font-family="Roboto-Black, Roboto" font-weight="800"><tspan x="0" y="0">B</tspan></text><text transform="translate(645.051 9369)" font-size="14" font-family="Roboto-Black, Roboto" font-weight="800"><tspan x="0" y="0">2</tspan></text><text transform="translate(713.051 9369)" font-size="14" font-family="Roboto-Black, Roboto" font-weight="800"><tspan x="0" y="0">F</tspan></text><text transform="translate(757.051 9369)" font-size="14" font-family="Roboto-Black, Roboto" font-weight="800"><tspan x="0" y="0">2</tspan></text><text transform="translate(844.051 9369)" font-size="14" font-family="Roboto-Black, Roboto" font-weight="800"><tspan x="0" y="0">H</tspan></text><text transform="translate(885.051 9369)" font-size="14" font-family="Roboto-Black, Roboto" font-weight="800"><tspan x="0" y="0">1</tspan></text><text transform="translate(673.051 9432)" font-size="14" font-family="Roboto-Black, Roboto" font-weight="800"><tspan x="0" y="0">C</tspan></text><text transform="translate(673.051 9432)" font-size="14" font-family="Roboto-Black, Roboto" font-weight="800"><tspan x="0" y="0">C</tspan></text><text transform="translate(785.051 9432)" font-size="14" font-family="Roboto-Black, Roboto" font-weight="800"><tspan x="0" y="0">E</tspan></text><text transform="translate(898.051 9432)" font-size="14" font-family="Roboto-Black, Roboto" font-weight="800"><tspan x="0" y="0">I</tspan></text><text transform="translate(900.051 9458)" font-size="14" font-family="Roboto-Black, Roboto" font-weight="800"><tspan x="0" y="0">1</tspan></text><text transform="translate(787.051 9457)" font-size="14" font-family="Roboto-Black, Roboto" font-weight="800"><tspan x="0" y="0">4</tspan></text><text transform="translate(671.051 9457)" font-size="14" font-family="Roboto-Black, Roboto" font-weight="800"><tspan x="0" y="0">3</tspan></text><text transform="translate(557.051 9457)" font-size="14" font-family="Roboto-Black, Roboto" font-weight="800"><tspan x="0" y="0">4</tspan></text><text transform="translate(557.051 9431)" font-size="14" font-family="Roboto-Black, Roboto" font-weight="800"><tspan x="0" y="0">A</tspan></text><text transform="translate(688.051 9294)" font-size="14" font-family="Roboto-Black, Roboto" font-weight="800"><tspan x="0" y="0">D</tspan></text><text transform="translate(810.051 9294)" font-size="14" font-family="Roboto-Black, Roboto" font-weight="800"><tspan x="0" y="0">G</tspan></text><text transform="translate(630.051 9288)" font-size="8" font-family="Roboto-Black, Roboto" font-weight="800"><tspan x="0" y="0">Nodo 2</tspan></text><text transform="translate(741.051 9288)" font-size="8" font-family="Roboto-Black, Roboto" font-weight="800"><tspan x="0" y="0">Nodo 4</tspan></text><text transform="translate(866.051 9288)" font-size="8" font-family="Roboto-Black, Roboto" font-weight="800"><tspan x="0" y="0">Nodo 5</tspan></text><text transform="translate(945.051 9428)" font-size="8" font-family="Roboto-Black, Roboto" font-weight="800"><tspan x="0" y="0">Nodo 7</tspan></text><text transform="translate(838.051 9428)" font-size="8" font-family="Roboto-Black, Roboto" font-weight="800"><tspan x="0" y="0">Nodo 6</tspan></text><text transform="translate(714.051 9428)" font-size="8" font-family="Roboto-Black, Roboto" font-weight="800"><tspan x="0" y="0">Nodo 3</tspan></text><text transform="translate(605.051 9428)" font-size="8" font-family="Roboto-Black, Roboto" font-weight="800"><tspan x="0" y="0">Nodo 1</tspan></text><text transform="translate(507.051 9428)" font-size="8" font-family="Roboto-Black, Roboto" font-weight="800"><tspan x="0" y="0">Nodo 0</tspan></text></g></g></svg>