<svg xmlns="http://www.w3.org/2000/svg" width="300" height="176.233" viewBox="0 0 300 176.233">
  <g id="Grupo_1110252" data-name="Grupo 1110252" transform="translate(-17946.766 8532.702)">
    <text id="Fuente:_SENA_LP_Risaralda_2014_." data-name="Fuente:(SENA – LP Risaralda, 2014)." transform="translate(17946.766 -8414.469)" fill="#707070" font-size="20" font-family="Helvetica"><tspan x="0" y="15">Fuente:(SENA – LP Risaralda, </tspan><tspan x="0" y="39">2014).</tspan></text>
    <g id="Grupo_1108837" data-name="Grupo 1108837" transform="translate(15961.766 -7308.889)">
      <g id="Grupo_1108817" data-name="Grupo 1108817" transform="translate(1985 -1223.813)">
        <ellipse id="Elipse_11655" data-name="Elipse 11655" cx="41.775" cy="41.775" rx="41.775" ry="41.775" transform="translate(0 0)" fill="#fff"/>
        <path id="Elipse_11655_-_Contorno" data-name="Elipse 11655 - Contorno" d="M41.775,2A39.786,39.786,0,0,0,26.293,78.424a39.785,39.785,0,0,0,30.963-73.3A39.524,39.524,0,0,0,41.775,2m0-2A41.775,41.775,0,1,1,0,41.775,41.775,41.775,0,0,1,41.775,0Z" transform="translate(0 0)"/>
        <path id="Trazado_879014" data-name="Trazado 879014" d="M-926.361-3054.715h-75.689v-1h75.689Z" transform="translate(1005.883 3084.436)"/>
        <path id="Trazado_879015" data-name="Trazado 879015" d="M-977.775-3001.654h-1v-53.779h1Z" transform="translate(1020.291 3084.302)"/>
      </g>
      <g id="Grupo_1108818" data-name="Grupo 1108818" transform="translate(2161.869 -1223.813)">
        <ellipse id="Elipse_11655-2" data-name="Elipse 11655" cx="41.775" cy="41.775" rx="41.775" ry="41.775" transform="translate(0 0)" fill="#fff"/>
        <path id="Elipse_11655_-_Contorno-2" data-name="Elipse 11655 - Contorno" d="M41.775,2A39.786,39.786,0,0,0,26.293,78.424a39.785,39.785,0,0,0,30.963-73.3A39.524,39.524,0,0,0,41.775,2m0-2A41.775,41.775,0,1,1,0,41.775,41.775,41.775,0,0,1,41.775,0Z" transform="translate(0 0)"/>
        <path id="Trazado_879014-2" data-name="Trazado 879014" d="M-925.957-3054.715h-76.093v-1h76.093Z" transform="translate(1005.696 3084.436)"/>
        <path id="Trazado_879015-2" data-name="Trazado 879015" d="M-977.775-3001.523h-1v-53.91h1Z" transform="translate(1020.291 3084.302)"/>
      </g>
      <g id="Grupo_1108825" data-name="Grupo 1108825" transform="translate(2064.241 -1185.254)">
        <ellipse id="Elipse_11666" data-name="Elipse 11666" cx="5.57" cy="5.57" rx="5.57" ry="5.57" transform="translate(0 0)"/>
        <path id="Trazado_879026" data-name="Trazado 879026" d="M-1109.391-3046.5h-83.871v-1h83.871Z" transform="translate(1199.859 3052.57)"/>
        <path id="Trazado_879038" data-name="Trazado 879038" d="M5.57,0,8.487,5.1,11.14,9.747H0Z" transform="translate(95.342 0) rotate(90)"/>
      </g>
      <text id="Nodo_7" data-name="Nodo 7" transform="translate(2190.326 -1124.346)" font-size="10" font-family="Roboto-Black, Roboto" font-weight="800"><tspan x="0" y="0">Nodo 7</tspan></text>
      <text id="Nodo_6" data-name="Nodo 6" transform="translate(2012.695 -1124.346)" font-size="10" font-family="Roboto-Black, Roboto" font-weight="800"><tspan x="0" y="0">Nodo 6</tspan></text>
      <text id="I" transform="translate(2100.6 -1191.711)" font-size="19" font-family="Roboto-Black, Roboto" font-weight="800"><tspan x="0" y="0">I</tspan></text>
      <text id="_1" data-name="1" transform="translate(2100.6 -1154.114)" font-size="19" font-family="Roboto-Black, Roboto" font-weight="800"><tspan x="0" y="0">1</tspan></text>
      <text id="_14" data-name="14" transform="translate(2172.374 -1168.957)" font-size="20" font-family="Roboto-Black, Roboto" font-weight="800"><tspan x="0" y="0">14</tspan></text>
      <text id="_14-2" data-name="14" transform="translate(2205.929 -1168.957)" font-size="20" font-family="Roboto-Black, Roboto" font-weight="800"><tspan x="0" y="0">14</tspan></text>
      <text id="_13" data-name="13" transform="translate(1997.195 -1168.957)" font-size="20" font-family="Roboto-Black, Roboto" font-weight="800"><tspan x="0" y="0">13</tspan></text>
      <text id="_13-2" data-name="13" transform="translate(2033.195 -1168.957)" font-size="20" font-family="Roboto-Black, Roboto" font-weight="800"><tspan x="0" y="0">13</tspan></text>
    </g>
  </g>
</svg>
