<svg xmlns="http://www.w3.org/2000/svg" width="736" height="423.342" viewBox="0 0 736 423.342"><g transform="translate(-192.051 -14813)"><path d="M-1709,3626.3h-2V3235.133h2Z" transform="translate(1918.006 11610.046)" fill="#707070"/><path d="M-1709,3626.3h-2V3235.133h2Z" transform="translate(2000.919 11610.046)" fill="#707070"/><path d="M-1709,3626.3h-2V3235.133h2Z" transform="translate(2091.331 11610.046)" fill="#707070"/><path d="M-1709,3626.3h-2V3235.133h2Z" transform="translate(2224.291 11610.046)" fill="#707070"/><path d="M-1709,3626.3h-2V3235.133h2Z" transform="translate(2335.977 11610.046)" fill="#707070"/><path d="M-1709,3626.3h-2V3235.133h2Z" transform="translate(2426.389 11610.046)" fill="#707070"/><path d="M-1709,3626.3h-2V3235.133h2Z" transform="translate(2538.075 11610.046)" fill="#707070"/><path d="M-1709,3626.3h-2V3235.133h2Z" transform="translate(2637.051 11610.046)" fill="#707070"/><rect width="306.339" height="73.394" transform="translate(208.006 14882.267)" fill="#e69999"/><rect width="236.136" height="58.502" transform="translate(572.847 14882.267)" fill="#9ebdd2"/><rect width="312.721" height="72.33" transform="translate(304.8 15014.162)" fill="#e69999"/><rect width="194.653" height="89.349" transform="translate(716.443 15003.525)" fill="#9ebdd2"/><rect width="147.851" height="55.311" transform="translate(543.064 15123.721)" fill="#9ebdd2"/><rect width="306.339" height="74.457" transform="translate(208.006 15120.529)" fill="#e69999"/><path d="M9.041,0l9.041,18.082H0Z" transform="translate(511.154 14952.469) rotate(-90)" fill="#ffcf64"/><path d="M9.041,0l9.041,18.082H0Z" transform="translate(927.051 14934.387) rotate(90)" fill="#ffcf64"/><path d="M9.041,0l9.041,18.082H0Z" transform="translate(722.825 15042.881) rotate(90)" fill="#ffcf64"/><path d="M9.041,0l9.041,18.082H0Z" transform="translate(509.026 15157.759) rotate(-90)" fill="#ffcf64"/><path d="M9.041,0l9.041,18.082H0Z" transform="translate(613.266 15060.964) rotate(-90)" fill="#ffcf64"/><path d="M9.041,0l9.041,18.082H0Z" transform="translate(548.382 15139.676) rotate(90)" fill="#ffcf64"/><text transform="translate(314.374 14926.667)" fill="#fff" font-size="20" font-family="Roboto-Black, Roboto" font-weight="800"><tspan x="0" y="0">Duración</tspan></text><text transform="translate(604.757 14919.222)" fill="#12263f" font-size="20" font-family="Roboto-Black, Roboto" font-weight="800"><tspan x="0" y="0">Holgura total</tspan></text><text transform="translate(745.162 15042.544)" fill="#12263f" font-size="21" font-family="Roboto-Black, Roboto" font-weight="800"><tspan x="0" y="0">Holgura</tspan><tspan x="0" y="28">Independiente</tspan></text><text transform="translate(554.764 15156.421)" fill="#12263f" font-size="20" font-family="Roboto-Black, Roboto" font-weight="800"><tspan x="0" y="0">Holgura libre</tspan></text><text transform="translate(428.187 15057.499)" fill="#fff" font-size="20" font-family="Roboto-Black, Roboto" font-weight="800"><tspan x="0" y="0">Duración</tspan></text><text transform="translate(304.8 15160.676)" fill="#fff" font-size="20" font-family="Roboto-Black, Roboto" font-weight="800"><tspan x="0" y="0">Duración</tspan></text><path d="M9.041,0l9.041,18.082H0Z" transform="translate(511.154 14952.469) rotate(-90)" fill="#ffcf64"/><path d="M-1334.606,3329.5H-1408v-4h73.394Z" transform="translate(2039.349 11724.423)" fill="#707070"/><path d="M-1404.809,3329.5H-1408v-4h3.191Z" transform="translate(1935.109 11821.217)" fill="#707070"/><path d="M-1027.269,3329.5H-1408v-4h380.731Z" transform="translate(1937.236 11615.928)" fill="#707070"/><text transform="translate(192.051 14832)" fill="#12263f" font-size="20" font-family="Roboto-Black, Roboto" font-weight="800"><tspan x="0" y="0">PFI</tspan></text><text transform="translate(256.935 14832)" fill="#12263f" font-size="20" font-family="Roboto-Black, Roboto" font-weight="800"><tspan x="0" y="0">UFTAA</tspan></text><text transform="translate(493.071 14832)" fill="#12263f" font-size="20" font-family="Roboto-Black, Roboto" font-weight="800"><tspan x="0" y="0">PFT</tspan></text><text transform="translate(604.757 14832)" fill="#12263f" font-size="20" font-family="Roboto-Black, Roboto" font-weight="800"><tspan x="0" y="0">UFI</tspan></text><text transform="translate(693.042 14832)" fill="#12263f" font-size="20" font-family="Roboto-Black, Roboto" font-weight="800"><tspan x="0" y="0">PFIAP</tspan></text><text transform="translate(810.046 14832)" fill="#12263f" font-size="20" font-family="Roboto-Black, Roboto" font-weight="800"><tspan x="0" y="0">UFT</tspan></text></g></svg>