<svg xmlns="http://www.w3.org/2000/svg" xmlns:xlink="http://www.w3.org/1999/xlink" width="99" height="98" viewBox="0 0 99 98"><defs><filter id="a" x="0" y="0" width="99" height="98" filterUnits="userSpaceOnUse"><feOffset dy="3" input="SourceAlpha"/><feGaussianBlur stdDeviation="3" result="b"/><feFlood flood-opacity="0.161"/><feComposite operator="in" in2="b"/><feComposite in="SourceGraphic"/></filter><clipPath id="c"><rect width="46.326" height="51.625" fill="none"/></clipPath><clipPath id="e"><rect width="35.522" height="20.575" fill="none"/></clipPath><clipPath id="f"><path d="M92.544,94.8l-1.111.646a3.419,3.419,0,0,1,3.449.338l1.111-.646a4.417,4.417,0,0,0-2.175-.665,2.5,2.5,0,0,0-1.273.327" transform="translate(-91.433 -94.478)" fill="none"/></clipPath><clipPath id="h"><path d="M104.44,97.632A10.643,10.643,0,0,1,109.269,106a3.393,3.393,0,0,1-1.413,3.109l1.111-.646a3.394,3.394,0,0,0,1.413-3.109,10.641,10.641,0,0,0-4.829-8.364Z" transform="translate(-104.44 -96.986)" fill="none"/></clipPath><clipPath id="j"><path d="M15.8,131.726c-.006,2.111,1.387,4.225,4.177,5.835,5.544,3.2,14.5,3.2,20.009,0,2.736-1.59,4.105-3.67,4.111-5.754l.017-6.064c-.006,2.083-1.375,4.164-4.111,5.754-5.508,3.2-14.465,3.2-20.009,0-2.789-1.61-4.183-3.725-4.176-5.835Z" transform="translate(-15.805 -125.662)" fill="none"/></clipPath><clipPath id="l"><path d="M22.316,114.434c-.005,1.7,1.118,3.407,3.368,4.7,4.469,2.581,11.692,2.581,16.131,0,2.206-1.282,3.31-2.959,3.315-4.64l.007-2.274c0,1.68-1.109,3.358-3.315,4.64-4.439,2.58-11.661,2.58-16.131,0-2.249-1.3-3.373-3-3.368-4.7Z" transform="translate(-22.316 -112.16)" fill="#fbfbf9"/></clipPath><clipPath id="n"><path d="M14.411,138.338l-1.111.646a3.42,3.42,0,0,1,3.449.338l1.111-.645a4.416,4.416,0,0,0-2.175-.665,2.5,2.5,0,0,0-1.273.327" transform="translate(-13.3 -138.011)" fill="none"/></clipPath><clipPath id="p"><path d="M26.307,141.165a10.64,10.64,0,0,1,4.829,8.364,3.393,3.393,0,0,1-1.413,3.109l1.111-.646a3.393,3.393,0,0,0,1.413-3.109,10.642,10.642,0,0,0-4.829-8.364Z" transform="translate(-26.307 -140.52)" fill="none"/></clipPath><clipPath id="r"><path d="M18.076,151.328l-.556.323a1.8,1.8,0,0,1,1.817.178l.555-.323a2.328,2.328,0,0,0-1.146-.35,1.318,1.318,0,0,0-.671.172" transform="translate(-17.52 -151.156)" fill="none"/></clipPath><clipPath id="t"><path d="M24.373,152.8a5.609,5.609,0,0,1,2.545,4.408,1.787,1.787,0,0,1-.745,1.637l.555-.323a1.787,1.787,0,0,0,.745-1.638,5.61,5.61,0,0,0-2.545-4.408Z" transform="translate(-24.373 -152.477)" fill="none"/></clipPath></defs><g transform="translate(8.953 5.603)"><g transform="matrix(1, 0, 0, 1, -8.95, -5.6)" filter="url(#a)"><ellipse cx="40.5" cy="40" rx="40.5" ry="40" transform="translate(9 6)" fill="#fff"/></g><path d="M36,4A32.009,32.009,0,0,0,23.545,65.487,32.009,32.009,0,0,0,48.455,6.513,31.8,31.8,0,0,0,36,4m0-4A36,36,0,1,1,0,36,36,36,0,0,1,36,0Z" transform="translate(4.047 4.398)" fill="#c10000"/><g transform="translate(16.924 13.712)"><g clip-path="url(#c)"><g clip-path="url(#c)"><g transform="translate(0 31.049)" opacity="0.2" style="mix-blend-mode:multiply;isolation:isolate"><g clip-path="url(#e)"><path d="M30.278,120.119c6.96,4.018,7,10.531.083,14.548s-18.158,4.018-25.118,0-7-10.531-.082-14.549,18.158-4.016,25.116,0" transform="translate(0 -117.106)" fill="#9193a3"/></g></g><path d="M91.433,95.451l1.111-.646a3.419,3.419,0,0,1,3.448.338l-1.111.646a3.419,3.419,0,0,0-3.448-.338" transform="translate(-67.191 -69.428)" fill="#fff"/></g><g transform="translate(24.242 25.05)"><g clip-path="url(#f)"><path d="M91.433,95.451l1.111-.646a2.567,2.567,0,0,1,1.489-.319l-1.111.645a2.569,2.569,0,0,0-1.489.319" transform="translate(-91.433 -94.478)" fill="#fff"/><path d="M97.048,95.152l1.111-.646a3.9,3.9,0,0,1,1.021.22l-1.111.646a3.886,3.886,0,0,0-1.021-.22" transform="translate(-95.559 -94.499)" fill="#fff"/><path d="M100.9,95.981l1.111-.646a5.585,5.585,0,0,1,.939.438l-1.111.646a5.6,5.6,0,0,0-.939-.438" transform="translate(-98.388 -95.108)" fill="#fff"/></g></g><g clip-path="url(#c)"><path d="M108.965,108.459l-1.111.646A3.393,3.393,0,0,0,109.268,106a10.642,10.642,0,0,0-4.829-8.364l1.111-.646a10.642,10.642,0,0,1,4.829,8.364,3.393,3.393,0,0,1-1.413,3.109" transform="translate(-76.748 -71.271)" fill="#fff"/></g><g transform="translate(27.691 25.715)"><g clip-path="url(#h)"><path d="M104.439,97.632l1.111-.646.048.028-1.111.646-.048-.028" transform="translate(-104.439 -96.986)" fill="#fff"/><path d="M104.619,97.737l1.111-.646a7.638,7.638,0,0,1,1.05.75l-1.111.645a7.659,7.659,0,0,0-1.05-.75" transform="translate(-104.572 -97.063)" fill="#fff"/><path d="M108.579,100.564l1.111-.646a9.622,9.622,0,0,1,1.019,1l-1.111.646a9.622,9.622,0,0,0-1.019-1" transform="translate(-107.482 -99.141)" fill="#fff"/><path d="M112.423,104.352l1.111-.646a11.655,11.655,0,0,1,1.874,2.948l-1.111.646a11.655,11.655,0,0,0-1.874-2.948" transform="translate(-110.306 -101.924)" fill="#fff"/><path d="M119.492,115.47l1.111-.646a10.791,10.791,0,0,1,.449,1.2l-1.111.646a10.849,10.849,0,0,0-.449-1.2" transform="translate(-115.501 -110.094)" fill="#fff"/><path d="M121.186,120l1.111-.646a9.26,9.26,0,0,1,.3,1.264l-1.111.645a9.267,9.267,0,0,0-.3-1.264" transform="translate(-116.746 -113.423)" fill="#fff"/><path d="M122.3,124.767l1.111-.646a7.384,7.384,0,0,1,.094,1.17s0,.009,0,.014l-1.111.646v-.014a7.384,7.384,0,0,0-.094-1.17" transform="translate(-117.563 -116.926)" fill="#fff"/><path d="M122.3,129.23l1.111-.646a5.36,5.36,0,0,1-.126,1.166l-1.111.646a5.361,5.361,0,0,0,.126-1.166" transform="translate(-117.474 -120.206)" fill="#fff"/><path d="M118.608,133.626l1.111-.646a2.869,2.869,0,0,1-1.287,1.929l-1.111.646a2.869,2.869,0,0,0,1.287-1.929" transform="translate(-113.906 -123.437)" fill="#fff"/></g></g><g clip-path="url(#c)"><path d="M90.965,97.578a10.642,10.642,0,0,1,4.829,8.364c-.009,3.076-2.184,4.316-4.861,2.771a10.642,10.642,0,0,1-4.83-8.366c.008-3.075,2.184-4.315,4.861-2.769" transform="translate(-63.274 -71.217)" fill="#252529"/><path d="M44.118,125.744l-.017,6.064c-.006,2.083-1.375,4.164-4.111,5.754-5.508,3.2-14.465,3.2-20.009,0-2.789-1.61-4.183-3.725-4.177-5.836l.017-6.064c-.006,2.111,1.387,4.225,4.177,5.835,5.544,3.2,14.5,3.2,20.009,0,2.736-1.59,4.105-3.67,4.111-5.754" transform="translate(-11.614 -92.344)" fill="#252529"/></g><g transform="translate(4.19 33.318)"><g clip-path="url(#j)"><path d="M122.284,125.97l-.017,6.064a4.814,4.814,0,0,1-.095.936l.017-6.064a4.817,4.817,0,0,0,.095-.936" transform="translate(-93.97 -125.888)" fill="#252529"/><path d="M111.537,129.5l-.017,6.064a7.518,7.518,0,0,1-3.843,4.716l.017-6.064a7.517,7.517,0,0,0,3.843-4.716" transform="translate(-83.317 -128.482)" fill="#252529"/><path d="M98.619,147.286,98.6,153.35l-.173.1a16,16,0,0,1-3.1,1.364l.017-6.064a16,16,0,0,0,3.1-1.364l.173-.1" transform="translate(-74.243 -141.553)" fill="#252529"/><path d="M70.694,152.814l-.017,6.064a23.2,23.2,0,0,1-8.894.955l.017-6.064a23.209,23.209,0,0,0,8.894-.955" transform="translate(-49.592 -145.615)" fill="#252529"/><path d="M28.012,133.815,28,139.879a19.423,19.423,0,0,1-8.014-2.319c-2.789-1.61-4.182-3.725-4.176-5.835l.017-6.064c-.006,2.111,1.388,4.225,4.177,5.836a19.428,19.428,0,0,0,8.014,2.318" transform="translate(-15.805 -125.661)" fill="#252529"/></g></g><g clip-path="url(#c)"><path d="M39.989,97.307c5.544,3.2,5.573,8.389.067,11.589s-14.465,3.2-20.009,0-5.573-8.389-.065-11.59,14.465-3.2,20.008,0" transform="translate(-11.662 -69.743)" fill="#38373e"/><path d="M45.135,112.226l-.006,2.274c0,1.68-1.109,3.357-3.315,4.639-4.439,2.58-11.661,2.58-16.131,0-2.249-1.3-3.372-3-3.368-4.7l.006-2.274c0,1.7,1.119,3.406,3.368,4.7,4.469,2.581,11.691,2.58,16.131,0,2.206-1.282,3.31-2.959,3.315-4.639" transform="translate(-16.398 -82.422)" fill="#e0e2ea"/></g><g transform="translate(5.917 29.738)"><g clip-path="url(#l)"><path d="M108.153,112.409l-.006,2.274a3.906,3.906,0,0,1-.076.755l.006-2.274a3.9,3.9,0,0,0,.076-.755" transform="translate(-85.333 -112.343)" fill="#fbfbf9"/><path d="M99.486,115.255l-.006,2.274a6.061,6.061,0,0,1-3.1,3.8l.007-2.274a6.062,6.062,0,0,0,3.1-3.8" transform="translate(-76.743 -114.434)" fill="#fbfbf9"/><path d="M89.075,129.6l-.006,2.274-.139.082a12.9,12.9,0,0,1-2.5,1.1l.006-2.274a12.9,12.9,0,0,0,2.5-1.1l.139-.082" transform="translate(-69.432 -124.974)" fill="#fbfbf9"/><path d="M66.563,134.051l-.006,2.274a18.713,18.713,0,0,1-7.171.77l.006-2.274a18.707,18.707,0,0,0,7.171-.77" transform="translate(-49.557 -128.247)" fill="#fbfbf9"/><path d="M32.151,118.733l-.006,2.274a15.664,15.664,0,0,1-6.461-1.869c-2.249-1.3-3.373-3-3.368-4.7l.006-2.274c0,1.7,1.118,3.407,3.368,4.7a15.661,15.661,0,0,0,6.461,1.869" transform="translate(-22.316 -112.159)" fill="#fbfbf9"/></g></g><g clip-path="url(#c)"><path d="M41.785,89.3c4.469,2.58,4.493,6.764.052,9.344s-11.661,2.58-16.131,0-4.493-6.764-.054-9.343,11.662-2.58,16.132,0" transform="translate(-16.416 -64.201)" fill="#b2bbc0"/><path d="M91.851,120.279a.51.51,0,0,1,.007.965,1.838,1.838,0,0,1-1.668,0,.51.51,0,0,1,0-.965,1.834,1.834,0,0,1,1.664,0" transform="translate(-66.023 -88.241)" fill="#c10000"/><path d="M13.3,138.984l1.111-.646a3.419,3.419,0,0,1,3.448.338l-1.111.646a3.419,3.419,0,0,0-3.448-.338" transform="translate(-9.774 -101.419)" fill="#fff"/></g><g transform="translate(3.526 36.592)"><g clip-path="url(#n)"><path d="M13.3,138.984l1.111-.646a2.567,2.567,0,0,1,1.489-.319l-1.111.645a2.567,2.567,0,0,0-1.489.319" transform="translate(-13.3 -138.011)" fill="#fff"/><path d="M18.915,138.685l1.111-.646a3.907,3.907,0,0,1,1.021.22l-1.111.646a3.886,3.886,0,0,0-1.021-.22" transform="translate(-17.426 -138.032)" fill="#fff"/><path d="M22.765,139.515l1.111-.646a5.586,5.586,0,0,1,.939.438l-1.111.645a5.619,5.619,0,0,0-.939-.437" transform="translate(-20.255 -138.642)" fill="#fff"/></g></g><g clip-path="url(#c)"><path d="M30.833,151.992l-1.111.646a3.393,3.393,0,0,0,1.413-3.109,10.641,10.641,0,0,0-4.829-8.364l1.111-.646a10.641,10.641,0,0,1,4.829,8.364,3.393,3.393,0,0,1-1.413,3.109" transform="translate(-19.332 -103.262)" fill="#fff"/></g><g transform="translate(6.975 37.257)"><g clip-path="url(#p)"><path d="M26.307,141.165l1.111-.646.047.028-1.111.646-.048-.028" transform="translate(-26.307 -140.519)" fill="#fff"/><path d="M26.486,141.27l1.111-.646a7.663,7.663,0,0,1,1.05.75l-1.111.646a7.664,7.664,0,0,0-1.05-.75" transform="translate(-26.439 -140.596)" fill="#fff"/><path d="M30.446,144.1l1.111-.646a9.622,9.622,0,0,1,1.019,1l-1.111.646a9.62,9.62,0,0,0-1.019-1" transform="translate(-29.349 -142.675)" fill="#fff"/><path d="M34.29,147.886l1.111-.646a11.655,11.655,0,0,1,1.874,2.948l-1.111.646a11.651,11.651,0,0,0-1.874-2.948" transform="translate(-32.173 -145.458)" fill="#fff"/><path d="M41.36,159l1.111-.646a10.793,10.793,0,0,1,.449,1.2l-1.111.646a10.845,10.845,0,0,0-.449-1.2" transform="translate(-37.369 -153.628)" fill="#fff"/><path d="M43.053,163.532l1.111-.646a9.262,9.262,0,0,1,.3,1.264l-1.111.646a9.261,9.261,0,0,0-.3-1.264" transform="translate(-38.613 -156.956)" fill="#fff"/><path d="M44.166,168.3l1.111-.646a7.351,7.351,0,0,1,.094,1.17v.014l-1.111.646v-.014a7.384,7.384,0,0,0-.094-1.169" transform="translate(-39.431 -160.46)" fill="#fff"/><path d="M44.17,172.763l1.111-.646a5.361,5.361,0,0,1-.126,1.166l-1.111.646a5.361,5.361,0,0,0,.126-1.166" transform="translate(-39.341 -163.739)" fill="#fff"/><path d="M40.476,177.16l1.111-.646a2.869,2.869,0,0,1-1.287,1.929l-1.111.645a2.868,2.868,0,0,0,1.287-1.929" transform="translate(-35.773 -166.971)" fill="#fff"/></g></g><g clip-path="url(#c)"><path d="M12.833,141.111a10.642,10.642,0,0,1,4.829,8.364c-.009,3.076-2.185,4.316-4.861,2.771a10.643,10.643,0,0,1-4.83-8.366c.009-3.075,2.185-4.315,4.862-2.769" transform="translate(-5.858 -103.208)" fill="#c2c3d0"/><path d="M17.521,151.651l.555-.323a1.8,1.8,0,0,1,1.817.178l-.555.323a1.8,1.8,0,0,0-1.817-.178" transform="translate(-12.876 -111.079)" fill="#38373e"/></g><g transform="translate(4.645 40.077)"><g clip-path="url(#r)"><path d="M17.521,151.651l.555-.323a1.352,1.352,0,0,1,.784-.168l-.555.323a1.354,1.354,0,0,0-.784.168" transform="translate(-17.521 -151.156)" fill="#38373e"/><path d="M20.479,151.494l.555-.323a2.05,2.05,0,0,1,.538.116l-.555.323a2.039,2.039,0,0,0-.538-.116" transform="translate(-19.694 -151.167)" fill="#38373e"/><path d="M22.507,151.931l.555-.323a2.951,2.951,0,0,1,.495.23l-.555.323a2.931,2.931,0,0,0-.495-.231" transform="translate(-21.185 -151.488)" fill="#38373e"/></g></g><g clip-path="url(#c)"><path d="M26.728,158.522l-.555.323a1.787,1.787,0,0,0,.745-1.638,5.608,5.608,0,0,0-2.545-4.408l.555-.323a5.609,5.609,0,0,1,2.545,4.408,1.786,1.786,0,0,1-.745,1.637" transform="translate(-17.911 -112.049)" fill="#38373e"/></g><g transform="translate(6.462 40.428)"><g clip-path="url(#t)"><path d="M24.373,152.8l.555-.323.025.015-.555.323-.025-.015" transform="translate(-24.373 -152.478)" fill="#38373e"/><path d="M24.468,152.856l.555-.323a4,4,0,0,1,.553.395l-.555.323a4.056,4.056,0,0,0-.553-.395" transform="translate(-24.443 -152.518)" fill="#38373e"/><path d="M26.553,154.345l.555-.323a5.1,5.1,0,0,1,.537.529l-.555.323a5.053,5.053,0,0,0-.537-.529" transform="translate(-25.975 -153.612)" fill="#38373e"/><path d="M28.579,156.342l.555-.323a6.147,6.147,0,0,1,.988,1.554l-.555.323a6.144,6.144,0,0,0-.988-1.554" transform="translate(-27.464 -155.08)" fill="#38373e"/><path d="M32.306,162.2l.555-.323a5.748,5.748,0,0,1,.237.633l-.555.323a5.7,5.7,0,0,0-.237-.633" transform="translate(-30.203 -159.387)" fill="#38373e"/><path d="M33.2,164.59l.555-.323a4.87,4.87,0,0,1,.155.666l-.555.323a4.882,4.882,0,0,0-.155-.666" transform="translate(-30.859 -161.141)" fill="#38373e"/><path d="M33.785,167.1l.555-.323a3.9,3.9,0,0,1,.049.616v.007l-.555.323v-.007a3.9,3.9,0,0,0-.049-.616" transform="translate(-31.29 -162.987)" fill="#38373e"/><path d="M33.787,169.453l.555-.323a2.829,2.829,0,0,1-.066.614l-.555.323a2.809,2.809,0,0,0,.066-.614" transform="translate(-31.242 -164.715)" fill="#38373e"/><path d="M31.84,171.768l.555-.323a1.511,1.511,0,0,1-.678,1.017l-.555.323a1.511,1.511,0,0,0,.678-1.017" transform="translate(-29.362 -166.416)" fill="#38373e"/></g></g><g clip-path="url(#c)"><path d="M17.273,152.724a5.609,5.609,0,0,1,2.545,4.408c0,1.62-1.151,2.274-2.562,1.46a5.608,5.608,0,0,1-2.545-4.408c0-1.62,1.151-2.274,2.562-1.46" transform="translate(-10.811 -111.973)" fill="#252529"/><path d="M110.3,33.83V1.413l1.674.967V34.81Z" transform="translate(-81.055 -1.039)" fill="#252529"/><path d="M116.613,4.022l.648-.374V36.083l-.648.369Z" transform="translate(-85.694 -2.681)" fill="#424242"/><path d="M110.3.374,110.945,0l1.676.967-.648.374Z" transform="translate(-81.055 0)" fill="#494949"/><path d="M73.532,61.6V29.179l1.674.967v32.43Z" transform="translate(-54.036 -21.442)" fill="#252529"/><path d="M79.846,31.787l.648-.374V63.848l-.648.369Z" transform="translate(-58.676 -23.084)" fill="#424242"/><path d="M73.532,28.14l.646-.375,1.675.967-.647.374Z" transform="translate(-54.036 -20.403)" fill="#494949"/><path d="M79.846,53.412v3.523l.48.277V53.689Z" transform="translate(-58.676 -39.25)" fill="#aa7d1a"/><path d="M81.653,37.829l10.4-6v3.53l-10.4,5.993Z" transform="translate(-60.004 -23.391)" fill="#ffcf64"/><path d="M79.846,36.782l.479.277,10.4-6-.481-.278Z" transform="translate(-58.676 -22.621)" fill="#e6c782"/><path d="M83.034,59.847l1.114-.643L98.96,67.756l-1.118.641Z" transform="translate(-61.018 -43.507)" fill="#494949"/><path d="M83.03,61.63V62.2l14.814,8.553,0-.576Z" transform="translate(-61.015 -45.289)" fill="#252529"/><path d="M138.884,92.1,140,91.457v.575l-1.114.643Z" transform="translate(-102.06 -67.208)" fill="#424242"/><path d="M114.657,41.581l1.114-.643,14.812,8.552-1.118.641Z" transform="translate(-84.257 -30.083)" fill="#494949"/><path d="M114.653,43.363v.573l14.814,8.553,0-.576Z" transform="translate(-84.253 -31.866)" fill="#252529"/><path d="M170.507,73.831l1.118-.641v.575l-1.114.643Z" transform="translate(-125.299 -53.785)" fill="#424242"/><path d="M95.267,49.6v-7.84l10.185,5.88v7.84Z" transform="translate(-70.008 -30.69)" fill="#bb884f"/><path d="M109.1,57.59V49.75l1.611.93,0,7.837Z" transform="translate(-80.174 -36.559)" fill="#abacc2"/><path d="M133.68,47.645l10.183-5.879V49.6l-10.185,5.88Z" transform="translate(-98.236 -30.692)" fill="#e0b477"/><path d="M151.629,51.011l1.606-.932v7.84l-1.606.927Z" transform="translate(-111.426 -36.801)" fill="#c2c3d0"/><path d="M95.267,25.467l10.183-5.879,10.184,5.88-10.183,5.879Z" transform="translate(-70.008 -14.394)" fill="#efcd90"/><path d="M109.1,33.449l10.18-5.881,1.614.932-10.183,5.879Z" transform="translate(-80.174 -20.258)" fill="#eaeaea"/><path d="M123.391,34.713,113.2,28.831l1.61-.93L125,33.781Z" transform="translate(-83.188 -20.503)" fill="#eaeaea"/><path d="M45.017,31.605a1.086,1.086,0,0,1,1.091-.109l-.309.538a.779.779,0,0,0-.781.077,2.251,2.251,0,0,0-.777.82l-.313-.177a3.142,3.142,0,0,1,1.088-1.149" transform="translate(-32.282 -23.07)" fill="#fff"/><path d="M36.215,11.476c2.349-1.356,4.266-.264,4.274,2.436a9.394,9.394,0,0,1-4.156,7.3v-.1l-.178.1v.1c-2.307,1.278-4.176.18-4.184-2.484a9.369,9.369,0,0,1,4.244-7.353m.027,9.583a8.978,8.978,0,0,0,4.069-7.046c-.007-2.587-1.844-3.634-4.1-2.334a8.977,8.977,0,0,0-4.067,7.047c.007,2.585,1.844,3.632,4.094,2.333" transform="translate(-23.494 -8.006)" fill="#fff"/><path d="M46.313,36.7c.232-.134.436-.106.545.046a.528.528,0,0,1,.086.311,1.382,1.382,0,0,1-.627,1.086c-.345.2-.628.038-.629-.361a1.132,1.132,0,0,1,.084-.409,1.366,1.366,0,0,1,.541-.674" transform="translate(-33.574 -26.903)" fill="#fff"/><path d="M42.413,25.369a2.023,2.023,0,0,1,2.029-.2l-.309.536a1.716,1.716,0,0,0-1.718.172A4.944,4.944,0,0,0,40.7,27.683l-.311-.177a5.835,5.835,0,0,1,2.021-2.136" transform="translate(-29.683 -18.355)" fill="#fff"/><path d="M39.806,19.133a2.961,2.961,0,0,1,2.964-.3l-.309.538a2.647,2.647,0,0,0-2.654.265,7.637,7.637,0,0,0-2.644,2.794l-.313-.178a8.548,8.548,0,0,1,2.956-3.121" transform="translate(-27.08 -13.64)" fill="#fff"/><path d="M46.726,79.211a.581.581,0,0,1,.09-.043c.247-.094.435.044.435.342a1.147,1.147,0,0,1-.521.9c-.288.166-.523.033-.523-.3a1.162,1.162,0,0,1,.432-.843.83.83,0,0,1,.088-.059" transform="translate(-33.955 -58.156)" fill="#fff"/><path d="M47.928,49.43v.1l.022,7.806a.625.625,0,0,0-.09.043.8.8,0,0,0-.088.059l-.022-7.806v-.1Z" transform="translate(-35.09 -36.324)" fill="#fff"/></g></g></g></g></svg>