<svg xmlns="http://www.w3.org/2000/svg" width="1030" height="429" viewBox="0 0 1030 429"><g transform="translate(-285.051 -12969)"><rect width="1030" height="429" transform="translate(285.051 12969)" fill="#d2e1f1"/><g transform="translate(346.262 12993.315)" opacity="0.48"><g transform="translate(602.227 153.424)"><path d="M387.061,396.057l-10.323,10.334L347.325,435.8l-29.162-18.052-5.624-3.474-4.044-21.722-52.97-52.97-19.158-19.154a24.614,24.614,0,0,1-2.486-31.552,23.017,23.017,0,0,1,2.349-2.86c.152-.181.329-.351.514-.54A24.725,24.725,0,0,1,271.7,285.1l72.124,72.128,21.7,4.04Z" transform="translate(-106.785 -268.993)" fill="#1d597e"/><path d="M372.128,356.81v20.112H244.095V356.81a25.689,25.689,0,0,1,25.7-25.7H346.44A25.7,25.7,0,0,1,372.128,356.81Z" transform="translate(-66.878 -125.722)" fill="#1d597e"/><path d="M253.93,352.446a37.611,37.611,0,0,1,6.186-20.719,25.68,25.68,0,0,0-15.177,23.431V375.27h8.991V352.446Z" transform="translate(-64.599 -124.07)" fill="#fff" opacity="0.3"/><path d="M311.9,342.108l-29.414,29.41-29.162-18.052,2.309-23.072v-.1c-.015-.289-.03-.562-.03-.844a27.577,27.577,0,1,1,55.153,0c0,.277-.015.551-.026.825l-.019.1Z" transform="translate(-41.95 -204.711)" opacity="0.2"/><path d="M317.46,407.82l-8.014-79.65c.018-.337.056-.666.056-1.006a24.456,24.456,0,1,0-48.912,0c0,.34.037.677.048,1.017l-8,79.635H317.46Z" transform="translate(-43.81 -202.427)"/><path d="M317.466,407.82H252.638l.289-2.978,7.71-76.66c-.011-.351-.048-.681-.048-1.017a24.456,24.456,0,1,1,48.912,0c0,.34-.033.67-.048,1.017l7.714,76.66Z" transform="translate(-43.813 -202.427)" fill="#468fbc"/><path d="M288.4,320.714a15.613,15.613,0,1,1-15.613-15.621A15.615,15.615,0,0,1,288.4,320.714Z" transform="translate(-31.561 -195.977)" fill="#1d597e"/><path d="M275.063,341.726A18.738,18.738,0,1,1,293.8,322.99,18.752,18.752,0,0,1,275.063,341.726Zm0-35.911a17.173,17.173,0,1,0,17.175,17.175A17.184,17.184,0,0,0,275.063,305.815Z" transform="translate(-33.835 -198.253)" fill="#f5cc1c"/><path d="M260.3,326.953a18.737,18.737,0,0,1,18.736-18.736,18.506,18.506,0,0,1,3.556.348,15.607,15.607,0,0,0-21.947,21.951A19.555,19.555,0,0,1,260.3,326.953Z" transform="translate(-31.561 -195.975)" opacity="0.3"/><g transform="translate(188.938 222.105)"><path d="M291.783,364.728h-44.52c0-16.076,9.964-29.1,22.258-29.1S291.783,348.652,291.783,364.728Z" transform="translate(-247.263 -335.632)" fill="#468fbc"/><path d="M308.029,364.728H263.5c0-16.076,9.964-29.1,22.273-29.1S308.029,348.652,308.029,364.728Z" transform="translate(-203.431 -335.632)" fill="#468fbc"/></g><g transform="translate(188.935 222.105)" opacity="0.2"><path d="M271.082,335.732a15.628,15.628,0,0,0-1.561-.1c-12.291,0-22.258,13.023-22.258,29.1h3.123C250.385,349.344,259.523,336.779,271.082,335.732Z" transform="translate(-247.262 -335.632)"/><path d="M287.335,335.732c-.522-.052-1.036-.1-1.565-.1-12.306,0-22.273,13.023-22.273,29.1h3.115C266.616,349.344,275.755,336.779,287.335,335.732Z" transform="translate(-203.43 -335.632)"/></g><rect width="1.565" height="62.705" transform="translate(240.447 142.688)" fill="#f5cc1c"/><path d="M317.466,333.288H252.638l.289-2.978H317.17Z" transform="translate(-43.813 -127.896)" opacity="0.2"/><g transform="translate(0)"><path d="M318.453,277.185s-1.983.725,0,.011a26.688,26.688,0,1,1,18.14,50.2c-1.979.718,0,0,0,0l-100.077,25.2a16.393,16.393,0,1,1-11.133-30.838Z" transform="translate(-146.626 -275.601)" fill="#468fbc"/><g transform="translate(70.196 2.032)" opacity="0.2"><path d="M221.984,327.085l102.507-38.36c-2.013.536.059-.026.059-.026l-.059.026a.219.219,0,0,0,.07-.022,28.3,28.3,0,0,1,24.167,4.706c-.007-.03-.019-.063-.026-.1a26,26,0,0,0-33.295-15.606.465.465,0,0,0-.067.022l-90.6,43.392a15.92,15.92,0,0,0-9.575,9.549A17.2,17.2,0,0,1,221.984,327.085Z" transform="translate(-215.169 -276.15)" fill="#fff"/><path d="M242.808,276.593l.067-.022S241.028,277.237,242.808,276.593Z" transform="translate(-142.639 -275.014)" fill="#fff"/></g><path d="M247.02,289.563l-11.34,24.186-5.872,1.469,12.975-27.642a2.34,2.34,0,0,1,4.236,1.987Z" transform="translate(-105.45 -246.907)" fill="#468fbc"/><path d="M223.035,346.906a13.267,13.267,0,0,1,1.125-24.489l.189-.074,92.921-44.5a23.563,23.563,0,0,1,16.12,44.283L233.18,347.38A13.189,13.189,0,0,1,223.035,346.906ZM334.6,280.1a21.991,21.991,0,0,0-16.742-.818l-92.91,44.5-.255.1a11.711,11.711,0,0,0,7.955,22.029l.189-.074,100.092-25.2a22.061,22.061,0,0,0,13.016-28.108A21.783,21.783,0,0,0,334.6,280.1Z" transform="translate(-144.348 -273.32)" fill="#f5cc1c"/><path d="M245.289,294.907a6.969,6.969,0,1,1-3.348-9.268A6.965,6.965,0,0,1,245.289,294.907Z" transform="translate(-99.517 -250.291)" fill="#474747"/><path d="M240.269,291.366a3.9,3.9,0,1,1-1.883-5.187A3.9,3.9,0,0,1,240.269,291.366Z" transform="translate(-97.275 -248.052)" fill="#d3d4d6"/><path d="M245.84,297.123l-4.255,2.042a17.911,17.911,0,0,0-10.078-11.924c-5.3-2.483-10.97-.8-13.19,3.937a2.344,2.344,0,0,1-4.244-1.994c3.308-7.037,11.839-9.745,19.428-6.182A22.441,22.441,0,0,1,245.84,297.123Z" transform="translate(-148.528 -259.851)" fill="#d40c0a"/><path d="M274.166,289.565l-15.98,34.072c-3.322,7.074-12.113,25.825-26.624,19.028-6.671-3.13-10.829-10.038-11.81-18.033a16.842,16.842,0,0,0,2.749-.725l1.772-.448c.636,6.7,3.911,12.439,9.275,14.962,4.78,2.246,11.418,2.357,20.393-16.771l15.991-34.075a2.339,2.339,0,1,1,4.233,1.991Z" transform="translate(-132.597 -246.909)" fill="#d40c0a"/><g transform="translate(0 29.262)"><path d="M208.321,302.475l6.723-14.322a6.238,6.238,0,0,1,8.306-3l10.134,4.751a6.25,6.25,0,0,1,3,8.306l-6.719,14.326Z" transform="translate(-163.462 -280.687)" fill="#f8b00b"/><path d="M216.873,291.2a7.894,7.894,0,0,1,10.5-3.785l-4.229-1.987a5.955,5.955,0,0,0-7.914,2.86l-6.4,13.638,2.46,1.154Z" transform="translate(-162.087 -279.841)" fill="#fff" opacity="0.3"/><path d="M212.71,288.542l1.75-3.737a2.252,2.252,0,0,1,3-1.08l3.641,1.713a2.24,2.24,0,0,1,1.077,2.986l-1.746,3.737Z" transform="translate(-151.612 -283.51)" fill="#474747"/><rect width="22.066" height="23.675" transform="matrix(0.425, -0.905, 0.905, 0.425, 14.112, 87.515)" fill="#f8b00b"/><rect width="22.069" height="4.425" transform="matrix(0.425, -0.905, 0.905, 0.425, 16.78, 88.803)" fill="#fff" opacity="0.3"/><rect width="15.14" height="14.315" transform="translate(42.669 37.421) rotate(-64.849)" fill="#e69006"/><rect width="15.136" height="2.897" transform="matrix(0.426, -0.905, 0.905, 0.426, 44.037, 38.193)" fill="#fff" opacity="0.3"/><rect width="19.517" height="23.679" transform="translate(30.164 53.192) rotate(-64.862)" fill="#f8b00b"/><rect width="19.517" height="4.425" transform="matrix(0.425, -0.905, 0.905, 0.425, 32.894, 54.462)" fill="#fff" opacity="0.3"/><rect width="15.869" height="4.425" transform="translate(32.114 71.653) rotate(-64.824)" fill="#d40c0a"/><rect width="15.869" height="4.425" transform="translate(40.834 75.783) rotate(-64.824)" fill="#d40c0a"/><rect width="15.876" height="4.418" transform="matrix(0.425, -0.905, 0.905, 0.425, 23.331, 67.511)" fill="#d40c0a"/><path d="M204.026,312.953l-1.3-.607,6.748-14.37,1.3.6Z" transform="translate(-178.564 -244.454)" fill="#fff" opacity="0.3"/><rect width="15.872" height="1.428" transform="translate(32.838 71.926) rotate(-64.862)" fill="#fff" opacity="0.3"/><path d="M208.741,315.165l-1.3-.607,6.745-14.37,1.295.61Z" transform="translate(-165.835 -238.482)" fill="#fff" opacity="0.3"/><path d="M207.812,308.522l10.711,5.021s3.519,9.656-.011,17.2c-2.546,5.409-13.427,9.324-17.452,9.013,3.234-2.934,9.205-8.606,9.808-15.088C211.249,320.517,207.812,308.522,207.812,308.522Z" transform="translate(-183.065 -215.981)" fill="#d3d4d6"/><path d="M220.943,312.194l-10.722-5.032s-9.675,3.47-13.208,11c-2.542,5.42,1.41,16.283,4.222,19.187.181-4.373.729-12.594,5.324-17.186C209.511,317.207,220.943,312.194,220.943,312.194Z" transform="translate(-196.196 -219.653)" fill="#d3d4d6"/><path d="M203.365,339.6c3.345-3.1,8.369-8.35,8.92-14.263.377-4.151-3.06-16.153-3.06-16.153l-1.413-.659s3.441,11.995,3.056,16.142c-.6,6.482-6.575,12.154-9.808,15.088A10.88,10.88,0,0,0,203.365,339.6Z" transform="translate(-183.065 -215.982)" opacity="0.2"/><path d="M198.434,318.833c3.533-7.537,13.194-11,13.194-11l-1.406-.67s-9.675,3.47-13.208,11c-2.542,5.42,1.41,16.283,4.222,19.187.011-.377.03-.8.056-1.221C198.774,331.871,196.28,323.406,198.434,318.833Z" transform="translate(-196.196 -219.659)" fill="#fff" opacity="0.3"/><path d="M222.315,296.888l-12.957-6.083.411-.87,12.953,6.083Z" transform="translate(-160.662 -266.161)" opacity="0.2"/><rect width="0.955" height="14.315" transform="translate(42.669 37.42) rotate(-64.849)" opacity="0.2"/></g></g></g><g transform="translate(383.695 174.099)"><g transform="translate(0)"><g transform="translate(9.845)"><rect width="33.787" height="20.689" transform="translate(26.028 53.496)" fill="#999"/><rect width="7.696" height="20.689" transform="translate(29.739 53.496)" fill="#fff" opacity="0.3"/><path d="M224.56,281.189l-3.522,7.44-.662,1.387L199.15,334.685H165.374l-21.226-44.668-.662-1.387-3.526-7.44Z" transform="translate(-139.338 -281.189)" fill="#d3d4d6"/><path d="M152.312,281.189H141l3.526,7.44.659,1.387,21.23,44.668h7.555Z" transform="translate(-136.536 -281.189)" fill="#fff" opacity="0.3"/><rect width="85.851" height="7.451" fill="#999"/><rect width="11.725" height="7.451" transform="translate(7.426)" fill="#fff" opacity="0.3"/><path d="M218.465,283.2l-.662,1.387H141.575l-.662-1.387Z" transform="translate(-136.766 -275.76)" opacity="0.2"/></g><g transform="translate(191.618 135.998)"><rect width="42.785" height="37.686" fill="#ddb170"/><path d="M193.362,325.609v-7.662h9.93v7.662l-1.243-1.391-1.232,1.391-1.247-1.391-1.232,1.391-1.243-1.391-1.247,1.391-1.243-1.391Z" transform="translate(-176.935 -317.947)" fill="#ebcd90"/><path d="M193.362,326.061v7.666h9.93v-7.666l-1.243,1.395-1.232-1.395-1.247,1.395-1.232-1.395-1.243,1.395-1.247-1.395-1.243,1.395Z" transform="translate(-176.935 -296.04)" fill="#ebcd90"/><g transform="translate(31.556 14.629)"><g transform="translate(1.813 1.276)"><path d="M198.913,326.294h.359v-1.669h.485l-.644-2.379-.629,2.379h.429Z" transform="translate(-196.475 -322.246)" fill="#b48a4d"/><path d="M198.487,326.294h.366v-1.669h.481l-.64-2.379-.644,2.379h.437Z" transform="translate(-197.647 -322.246)" fill="#b48a4d"/><rect width="3.626" height="0.374" transform="translate(0 4.355)" fill="#b48a4d"/></g><path d="M204.714,329.179h-7.263V321.9h7.263Zm-6.734-.525h6.208v-6.23H197.98Z" transform="translate(-197.451 -321.901)" fill="#b48a4d"/><path d="M201.082,327.318v-1.432h-3.063v1.432a1.467,1.467,0,0,0,1.521,1.424h-.185v1.491h-.792a.2.2,0,0,0-.2.189.207.207,0,0,0,.2.2h1.979a.2.2,0,0,0,.189-.2.194.194,0,0,0-.189-.189h-.8v-1.491h-.181A1.472,1.472,0,0,0,201.082,327.318Z" transform="translate(-195.918 -311.142)" fill="#b48a4d"/><path d="M204.714,332.808h-7.263v-7.263h7.263Zm-6.734-.529h6.208v-6.212H197.98Z" transform="translate(-197.451 -312.063)" fill="#b48a4d"/><path d="M200.2,324.35v-.226a.051.051,0,1,0-.1,0v.226a2.413,2.413,0,0,0-2.3,1.935.861.861,0,0,1,.755-.344c.451,0,.807.233.807.514a.135.135,0,0,1,.007-.052v-.011c.033-.226.3-.429.684-.451v2.364a.289.289,0,0,1-.026.13c-.015.007-.026.033-.041.041v.019c-.007.019-.022.019-.022.026a.023.023,0,0,0-.022.018s-.007.007-.011.007a.058.058,0,0,1-.044.015c0,.015,0,.015-.015.015s-.022.008-.026.015h-.018a.135.135,0,0,1-.052.007.1.1,0,0,1-.048-.007H199.7a.232.232,0,0,0-.041-.015s0-.015-.015-.015a.046.046,0,0,1-.022,0c-.011-.011-.011-.018-.026-.018s-.011-.011-.011-.018a.377.377,0,0,1-.067-.078.429.429,0,0,1-.037-.137.1.1,0,0,0-.1-.1.1.1,0,0,0-.1.1.5.5,0,0,0,.492.5.483.483,0,0,0,.481-.5v-2.364c.388.022.655.215.7.451v.063c0-.277.363-.514.8-.514a.873.873,0,0,1,.758.344A2.427,2.427,0,0,0,200.2,324.35Z" transform="translate(-196.52 -316.058)" fill="#b48a4d"/><path d="M204.714,330.98h-7.263v-7.255h7.263Zm-6.734-.522h6.208v-6.2H197.98Z" transform="translate(-197.451 -316.977)" fill="#b48a4d"/></g><rect width="42.785" height="0.614" transform="translate(0 37.072)" opacity="0.3"/><rect width="42.785" height="0.614" fill="#fff" opacity="0.3"/></g><g transform="translate(0 74.185)"><rect width="105.545" height="113.548" transform="translate(0 42.792)" fill="#f8b00b"/><rect width="105.545" height="19.864" transform="translate(0 136.476)" fill="#1d597e"/><rect width="105.545" height="2.283" transform="translate(0 154.057)" opacity="0.2"/><rect width="15.665" height="113.548" transform="translate(10.696 42.792)" fill="#fff" opacity="0.3"/><rect width="42.074" height="20.878" transform="translate(13.749 110.011)" opacity="0.2"/><rect width="42.071" height="20.882" transform="translate(12.731 108.986)" fill="#d3d4d6"/><rect width="72.317" height="24.452" transform="translate(16.298 18.336)" fill="#a70000"/><rect width="72.317" height="14.777" transform="translate(16.298 28.011)" fill="#d40c0a"/><rect width="72.317" height="1.876" transform="translate(16.298 40.917)" fill="#1f0002" opacity="0.2"/><rect width="43.954" height="18.336" transform="translate(30.905)" fill="#144463"/><rect width="43.954" height="2.212" transform="translate(30.905 16.128)" opacity="0.2"/><rect width="10.075" height="24.452" transform="translate(21.33 18.336)" fill="#fff" opacity="0.3"/><rect width="10.078" height="18.336" transform="translate(36.269)" fill="#fff" opacity="0.3"/><g transform="translate(16.879 111.191)"><path d="M143.476,347.761a1.776,1.776,0,0,1-1.783-1.787v-12.9a1.785,1.785,0,0,1,3.57,0v12.9A1.772,1.772,0,0,1,143.476,347.761Z" transform="translate(-141.693 -331.293)" fill="#999"/><path d="M144.837,347.761a1.773,1.773,0,0,1-1.783-1.787v-12.9a1.787,1.787,0,0,1,3.574,0v12.9A1.78,1.78,0,0,1,144.837,347.761Z" transform="translate(-138.019 -331.293)" fill="#999"/><path d="M146.2,347.761a1.782,1.782,0,0,1-1.791-1.787v-12.9a1.787,1.787,0,0,1,3.574,0v12.9A1.773,1.773,0,0,1,146.2,347.761Z" transform="translate(-134.347 -331.293)" fill="#999"/><path d="M147.565,347.761a1.78,1.78,0,0,1-1.791-1.787v-12.9a1.789,1.789,0,0,1,3.578,0v12.9A1.774,1.774,0,0,1,147.565,347.761Z" transform="translate(-130.675 -331.293)" fill="#999"/><path d="M148.921,347.761a1.771,1.771,0,0,1-1.783-1.787v-12.9a1.785,1.785,0,0,1,3.57,0v12.9A1.776,1.776,0,0,1,148.921,347.761Z" transform="translate(-126.992 -331.293)" fill="#999"/><path d="M150.281,347.761a1.776,1.776,0,0,1-1.783-1.787v-12.9a1.785,1.785,0,0,1,3.57,0v12.9A1.772,1.772,0,0,1,150.281,347.761Z" transform="translate(-123.321 -331.293)" fill="#999"/><path d="M151.65,347.761a1.782,1.782,0,0,1-1.791-1.787v-12.9a1.787,1.787,0,0,1,3.574,0v12.9A1.773,1.773,0,0,1,151.65,347.761Z" transform="translate(-119.646 -331.293)" fill="#999"/></g></g><g transform="translate(105.545 173.685)"><g transform="translate(0.001)"><path d="M370.263,339.224a9.949,9.949,0,0,1-1.421,5.176,10.186,10.186,0,0,1-8.758,5.01H176.739a10.164,10.164,0,0,1-8.839-5.135v-.022a10.015,10.015,0,0,1-1.339-5.032,10.177,10.177,0,0,1,10.178-10.186H360.084A10.182,10.182,0,0,1,370.263,339.224Z" transform="translate(-163.222 -325.698)" fill="#474747"/><g transform="translate(3.339 3.341)"><path d="M186.925,339.222a10.182,10.182,0,1,1-10.186-10.186A10.193,10.193,0,0,1,186.925,339.222Z" transform="translate(-166.561 -329.036)" fill="#e5e5e5"/><path d="M178.125,335.5a5.095,5.095,0,1,1-5.1-5.095A5.1,5.1,0,0,1,178.125,335.5Z" transform="translate(-162.849 -325.329)" fill="#999"/><path d="M169.068,336.259a5.089,5.089,0,0,1,5.1-5.076,5,5,0,0,1,2.235.529,5.021,5.021,0,0,0-3.374-1.3,5.084,5.084,0,0,0-2.238,9.653A5.083,5.083,0,0,1,169.068,336.259Z" transform="translate(-162.849 -325.326)" opacity="0.3"/></g><g transform="translate(23.707 3.341)"><path d="M192.437,339.211a10.186,10.186,0,1,1-10.186-10.175A10.184,10.184,0,0,1,192.437,339.211Z" transform="translate(-172.066 -329.036)" fill="#e5e5e5"/><path d="M183.628,335.5a5.093,5.093,0,1,1-5.091-5.095A5.1,5.1,0,0,1,183.628,335.5Z" transform="translate(-168.351 -325.329)" fill="#999"/><path d="M174.581,336.259a5.073,5.073,0,0,1,7.329-4.547,5.075,5.075,0,0,0-8.469,3.792,5.106,5.106,0,0,0,2.853,4.558A5.1,5.1,0,0,1,174.581,336.259Z" transform="translate(-168.354 -325.326)" opacity="0.3"/></g><g transform="translate(44.078 3.341)"><path d="M197.947,339.211a10.188,10.188,0,1,1-10.193-10.175A10.19,10.19,0,0,1,197.947,339.211Z" transform="translate(-177.572 -329.036)" fill="#e5e5e5"/><path d="M189.13,335.5a5.091,5.091,0,1,1-5.091-5.095A5.091,5.091,0,0,1,189.13,335.5Z" transform="translate(-173.857 -325.329)" fill="#999"/><path d="M180.084,336.259a5.079,5.079,0,0,1,7.337-4.547,5.081,5.081,0,1,0-5.616,8.351A5.083,5.083,0,0,1,180.084,336.259Z" transform="translate(-173.857 -325.326)" opacity="0.3"/></g><g transform="translate(64.453 3.341)"><path d="M203.45,339.211a10.186,10.186,0,1,1-10.189-10.175A10.189,10.189,0,0,1,203.45,339.211Z" transform="translate(-183.079 -329.036)" fill="#e5e5e5"/><path d="M194.645,335.5a5.1,5.1,0,1,1-5.095-5.095A5.094,5.094,0,0,1,194.645,335.5Z" transform="translate(-179.372 -325.329)" fill="#999"/><path d="M185.6,336.259a5.076,5.076,0,0,1,7.333-4.547,5.081,5.081,0,1,0-5.616,8.351A5.093,5.093,0,0,1,185.6,336.259Z" transform="translate(-179.372 -325.326)" opacity="0.3"/></g><g transform="translate(84.821 3.341)"><path d="M208.952,339.211a10.184,10.184,0,1,1-10.189-10.175A10.187,10.187,0,0,1,208.952,339.211Z" transform="translate(-188.584 -329.036)" fill="#e5e5e5"/><path d="M200.142,335.5a5.091,5.091,0,1,1-5.091-5.095A5.091,5.091,0,0,1,200.142,335.5Z" transform="translate(-184.869 -325.329)" fill="#999"/><path d="M191.1,336.259a5.076,5.076,0,0,1,7.333-4.547,5.081,5.081,0,1,0-5.62,8.351A5.063,5.063,0,0,1,191.1,336.259Z" transform="translate(-184.869 -325.326)" opacity="0.3"/></g><g transform="translate(105.192 3.341)"><path d="M214.461,339.211a10.186,10.186,0,1,1-10.186-10.175A10.184,10.184,0,0,1,214.461,339.211Z" transform="translate(-194.09 -329.036)" fill="#e5e5e5"/><path d="M205.652,335.5a5.093,5.093,0,1,1-5.091-5.095A5.093,5.093,0,0,1,205.652,335.5Z" transform="translate(-190.375 -325.329)" fill="#999"/><path d="M196.6,336.259a5.084,5.084,0,0,1,5.1-5.076,5.033,5.033,0,0,1,2.235.529,5.072,5.072,0,0,0-8.465,3.792,5.106,5.106,0,0,0,2.853,4.558A5.083,5.083,0,0,1,196.6,336.259Z" transform="translate(-190.372 -325.326)" opacity="0.3"/></g><g transform="translate(125.563 3.341)"><path d="M219.964,339.211a10.184,10.184,0,1,1-10.182-10.175A10.185,10.185,0,0,1,219.964,339.211Z" transform="translate(-199.596 -329.036)" fill="#e5e5e5"/><path d="M211.161,335.5a5.095,5.095,0,1,1-5.095-5.095A5.1,5.1,0,0,1,211.161,335.5Z" transform="translate(-195.881 -325.329)" fill="#999"/><path d="M202.1,336.259a5.079,5.079,0,0,1,7.337-4.547,5.042,5.042,0,0,0-3.374-1.3,5.084,5.084,0,0,0-2.242,9.653A5.109,5.109,0,0,1,202.1,336.259Z" transform="translate(-195.884 -325.326)" opacity="0.3"/></g><g transform="translate(145.931 3.341)"><path d="M225.469,339.211a10.184,10.184,0,1,1-10.182-10.175A10.181,10.181,0,0,1,225.469,339.211Z" transform="translate(-205.101 -329.036)" fill="#e5e5e5"/><path d="M216.67,335.5a5.1,5.1,0,1,1-5.095-5.095A5.094,5.094,0,0,1,216.67,335.5Z" transform="translate(-201.386 -325.329)" fill="#999"/><path d="M207.619,336.259a5.073,5.073,0,0,1,7.329-4.547,5.077,5.077,0,0,0-8.473,3.792,5.109,5.109,0,0,0,2.856,4.558A5.1,5.1,0,0,1,207.619,336.259Z" transform="translate(-201.389 -325.326)" opacity="0.3"/></g><g transform="translate(166.299 3.341)"><path d="M230.974,339.211A10.184,10.184,0,1,1,220.8,329.036,10.18,10.18,0,0,1,230.974,339.211Z" transform="translate(-210.606 -329.036)" fill="#e5e5e5"/><path d="M222.162,335.5a5.089,5.089,0,1,1-5.087-5.095A5.088,5.088,0,0,1,222.162,335.5Z" transform="translate(-206.886 -325.329)" fill="#999"/><path d="M213.116,336.259a5.079,5.079,0,0,1,7.337-4.547,5.081,5.081,0,1,0-5.62,8.351A5.08,5.08,0,0,1,213.116,336.259Z" transform="translate(-206.886 -325.326)" opacity="0.3"/></g><g transform="translate(186.67 3.341)"><path d="M236.483,339.222A10.186,10.186,0,1,1,226.3,329.036,10.187,10.187,0,0,1,236.483,339.222Z" transform="translate(-216.112 -329.036)" fill="#e5e5e5"/><path d="M227.675,335.5a5.093,5.093,0,1,1-5.087-5.095A5.09,5.09,0,0,1,227.675,335.5Z" transform="translate(-212.394 -325.329)" fill="#999"/><path d="M218.634,336.259a5.07,5.07,0,0,1,7.326-4.547,5.081,5.081,0,1,0-5.62,8.351A5.109,5.109,0,0,1,218.634,336.259Z" transform="translate(-212.4 -325.326)" opacity="0.3"/></g><path d="M368.842,344.4a9.959,9.959,0,0,0,1.421-5.176,10.177,10.177,0,0,0-10.178-10.186H176.739a10.174,10.174,0,0,0-10.178,10.186,10.014,10.014,0,0,0,1.339,5.032,8.357,8.357,0,0,1-.529-1.469,9.775,9.775,0,0,1,.392-6.2,9.778,9.778,0,0,1,7.019-5.853,14.611,14.611,0,0,1,3.385-.185H360.084a9.572,9.572,0,0,1,5.89,1.994,9.757,9.757,0,0,1,3.481,5.161,9.981,9.981,0,0,1-.385,6.212C369,344.073,368.92,344.232,368.842,344.4Z" transform="translate(-163.222 -325.693)" opacity="0.2"/><path d="M373.643,345.019l1.813.548a13.476,13.476,0,0,0,.385-6.212l-1.876.314a8.735,8.735,0,0,0-.248-1.047,10.239,10.239,0,0,0-.322-1.029l1.776-.681a13.653,13.653,0,0,0-3.463-5.172l-1.306,1.41c-.274-.252-.551-.492-.836-.71s-.592-.437-.9-.625l1.021-1.6a13.691,13.691,0,0,0-5.909-2.02l-.163,1.916a9.276,9.276,0,0,0-1.1-.059h-1.1v-1.913h-5.372v1.913h-2.2v-1.913h-5.38v1.913h-2.205v-1.913h-5.394v1.913h-2.175v-1.913h-5.405v1.913H331.1v-1.913H325.7v1.913h-2.179v-1.913h-5.394v1.913h-2.175v-1.913h-5.4v1.913h-2.179v-1.913h-5.4v1.913H300.8v-1.913h-5.4v1.913h-2.2v-1.913h-5.372v1.913h-2.209v-1.913h-5.376v1.913h-2.205v-1.913H272.66v1.913h-2.2v-1.913h-5.376v1.913h-2.2v-1.913H257.5v1.913h-2.2v-1.913h-5.394v1.913h-2.179v-1.913h-5.4v1.913h-2.179v-1.913h-5.4v1.913h-2.175v-1.913h-5.4v1.913h-2.179v-1.913H219.6v1.913h-2.179v-1.913h-5.4v1.913h-2.179v-1.913h-5.394v1.913h-2.179v-1.913h-5.4v1.913h-2.194v-1.913h-5.38v1.913h-2.2v-1.913h-5.383v1.913H179.5v-1.913a13.5,13.5,0,0,0-6.023,1.284l.788,1.7c-.318.174-.648.333-.955.514a7.509,7.509,0,0,0-.918.614l-1.121-1.55a13.639,13.639,0,0,0-4.07,4.688l1.687.9c-.163.318-.326.648-.466.966-.118.363-.248.7-.363,1.051l-1.817-.559a13.364,13.364,0,0,0-.385,6.219l1.876-.326a10.217,10.217,0,0,0,.244,1.058c.107.351.2.714.329,1.043l-1.776.67A13.5,13.5,0,0,0,170,351.582l1.306-1.413a9.577,9.577,0,0,0,.836.714c.285.215.588.433.892.618l-1.014,1.62a13.59,13.59,0,0,0,3.248,1.473,12.791,12.791,0,0,0,2.66.529l.159-1.913a9.192,9.192,0,0,0,1.1.074h1.1v1.909h5.376v-1.909h2.2v1.909h5.383v-1.909h2.194v1.909h5.387v-1.909h2.194v1.909h5.4v-1.909H210.6v1.909H216v-1.909h2.187v1.909h5.394v-1.909h2.179v1.909h5.4v-1.909h2.179v1.909h5.4v-1.909h2.172v1.909h5.4v-1.909h2.19v1.909h5.394v-1.909h2.2v1.909h5.376v-1.909h2.2v1.909h5.379v-1.909h2.205v1.909h5.38v-1.909h2.2v1.909h5.379v-1.909h2.2v1.909h5.372v-1.909H294v1.909h5.4v-1.909h2.176v1.909h5.394v-1.909h2.179v1.909h5.394v-1.909h2.179v1.909h5.4v-1.909H324.3v1.909H329.7v-1.909h2.183v1.909h5.394v-1.909h2.175v1.909h5.409v-1.909h2.19v1.909h5.383v-1.909h2.19v1.909h5.383v-1.909h2.2v1.909a13.706,13.706,0,0,0,6.031-1.291l-.818-1.706a8.117,8.117,0,0,0,.858-.451.735.735,0,0,1,.122-.056c.3-.189.61-.389.921-.611l1.1,1.536a13.577,13.577,0,0,0,4.077-4.684l-1.687-.888c.159-.329.329-.651.47-.973Zm-2.138.307A9.848,9.848,0,0,1,368.1,349.6c-.226.167-.448.281-.673.425a9.9,9.9,0,0,1-2.949,1.143,15.45,15.45,0,0,1-3.382.189H179.176a9.344,9.344,0,0,1-3.626-.7,9.881,9.881,0,0,1-2.261-1.306,9.662,9.662,0,0,1-3.482-5.154,9.744,9.744,0,0,1,4.458-10.918,10.017,10.017,0,0,1,2.952-1.147,15.031,15.031,0,0,1,3.385-.185H362.521a9.537,9.537,0,0,1,5.89,2.005,9.692,9.692,0,0,1,3.482,5.158A9.943,9.943,0,0,1,371.5,345.326Z" transform="translate(-165.658 -328.133)" fill="#474747"/></g><path d="M173.274,347.152v-1.909h-1.1a9.146,9.146,0,0,1-1.1-.074l-.159,1.913a12.33,12.33,0,0,1-2.66-.529l.3-3.933.573-7.426a4.075,4.075,0,1,1,8.151,0l.625,8.121.289,3.829h-4.913Z" transform="translate(-158.652 -320.096)" opacity="0.2"/><path d="M194.735,347.1v.044h-5.4v-1.909h-2.172v1.909h-2.409l.289-3.829.625-8.121a4.075,4.075,0,1,1,8.151,0l.625,8.121Z" transform="translate(-114.094 -320.088)" opacity="0.2"/><path d="M211.116,345.285h-.329v1.909h-5.394v-1.909h-2.176v1.909h-1.942l.292-3.829.629-8.191a4.074,4.074,0,1,1,8.147,0l.633,8.191Z" transform="translate(-69.498 -320.134)" opacity="0.2"/><path d="M226.649,344.151l.818,1.706a13.812,13.812,0,0,1-6.031,1.291v-1.909h-2.2v1.909h-1.443l.277-3.829.629-8.121a4.077,4.077,0,1,1,8.155,0l.488,6.367.167,2.139C227.241,343.863,226.952,344.011,226.649,344.151Z" transform="translate(-24.897 -320.088)" opacity="0.2"/><g transform="translate(0 10.959)"><rect width="204.438" height="9.923" transform="translate(0 35.962)" fill="#1d597e"/><rect width="204.438" height="5.357" transform="translate(0 30.601)" fill="#e69006"/><g transform="translate(7.411)"><g transform="translate(0 0.063)"><path d="M179.882,361.676h-12.22l.126-1.572L169.7,335.2a4.073,4.073,0,0,1,6.945-2.9,4.132,4.132,0,0,1,1.2,2.9l1.913,24.907Z" transform="translate(-167.661 -331.112)" fill="#f8b00b"/><path d="M172.542,333.581a1.867,1.867,0,1,1-1.872-1.861A1.866,1.866,0,0,1,172.542,333.581Z" transform="translate(-164.562 -329.47)" fill="#144463"/></g><g transform="translate(61.11 0.063)"><path d="M196.4,361.676H184.178l.126-1.572,1.913-24.907a4.074,4.074,0,1,1,8.147,0l1.924,24.907Z" transform="translate(-184.178 -331.112)" fill="#f8b00b"/><path d="M189.059,333.581a1.867,1.867,0,1,1-1.865-1.861A1.866,1.866,0,0,1,189.059,333.581Z" transform="translate(-181.079 -329.47)" fill="#144463"/></g><g transform="translate(122.224)"><path d="M212.913,361.648H200.7l.13-1.5,1.913-24.978A4.085,4.085,0,0,1,206.8,331.1a3.974,3.974,0,0,1,2.875,1.2,4.053,4.053,0,0,1,1.206,2.871l1.913,24.978Z" transform="translate(-200.696 -331.095)" fill="#f8b00b"/><path d="M205.575,333.583a1.865,1.865,0,1,1-1.865-1.876A1.867,1.867,0,0,1,205.575,333.583Z" transform="translate(-197.591 -329.443)" fill="#144463"/></g><g transform="translate(183.345 0.063)"><path d="M229.433,361.676H217.216l.122-1.572,1.913-24.907a4.073,4.073,0,0,1,6.945-2.9,4.144,4.144,0,0,1,1.2,2.9l1.924,24.907Z" transform="translate(-217.216 -331.112)" fill="#f8b00b"/><path d="M222.1,333.581a1.87,1.87,0,1,1-1.868-1.861A1.872,1.872,0,0,1,222.1,333.581Z" transform="translate(-214.125 -329.47)" fill="#144463"/></g></g><path d="M179.882,340.52H167.661l.126-1.572h11.973Z" transform="translate(-160.25 -309.893)" opacity="0.2"/><path d="M196.284,338.948l.115,1.572H184.178l.126-1.572Z" transform="translate(-115.657 -309.893)" opacity="0.2"/><path d="M212.8,338.948l.115,1.5H200.7l.13-1.5Z" transform="translate(-71.061 -309.893)" opacity="0.2"/><path d="M229.433,340.52H217.216l.118-1.572h11.98Z" transform="translate(-26.46 -309.893)" opacity="0.2"/></g></g></g><rect width="10.282" height="104.683" transform="translate(105.545 125.842)" fill="#474747"/></g><g transform="translate(137.29 56.625)"><g transform="translate(0 65.932)"><rect width="27.46" height="4.388" transform="translate(0 4.384)" fill="#a70000"/><rect width="25.388" height="4.388" transform="translate(1.036)" fill="#d40c0a"/></g><g transform="translate(0 57.159)"><rect width="27.46" height="4.388" transform="translate(0 4.384)" fill="#a70000"/><rect width="25.388" height="4.388" transform="translate(1.036)" fill="#d40c0a"/></g><g transform="translate(0 48.383)"><rect width="27.46" height="4.388" transform="translate(0 4.388)" fill="#a70000"/><rect width="25.388" height="4.388" transform="translate(1.036)" fill="#d40c0a"/></g><g transform="translate(0 38.867)"><rect width="27.46" height="4.388" transform="translate(0 5.132)" fill="#a70000"/><path d="M70.877,259.943l25.344,1.491-.018,3.641H70.814C70.829,263.48,70.77,262.559,70.877,259.943Z" transform="translate(-69.778 -259.943)" fill="#d40c0a"/></g><g transform="translate(0.059 25.866)"><path d="M71.617,258.067l26.624,6.712a11.586,11.586,0,0,0-.281,1.776l-27.412-1.613A39.2,39.2,0,0,1,71.617,258.067Z" transform="translate(-70.548 -252.007)" fill="#a70000"/><path d="M73.339,256.429l23.08,10.578a10.9,10.9,0,0,0-.692,1.942l-24.619-6.208A36.92,36.92,0,0,1,73.339,256.429Z" transform="translate(-69.036 -256.429)" fill="#d40c0a"/></g><g transform="translate(3.422 15.2)"><path d="M74.779,254.73l22.643,15.535a10.234,10.234,0,0,0-1,1.761l-24.963-11.44A37.607,37.607,0,0,1,74.779,254.73Z" transform="translate(-71.457 -250.349)" fill="#a70000"/><path d="M76.611,253.546l18.4,17.489a14.15,14.15,0,0,0-1.495,1.839L72.586,258.511A39.633,39.633,0,0,1,76.611,253.546Z" transform="translate(-68.409 -253.546)" fill="#d40c0a"/></g><g transform="translate(10.878 7.574)"><path d="M78.2,252.192l16.927,21.622a15.929,15.929,0,0,0-1.757,1.591l-19.9-18.917A42.733,42.733,0,0,1,78.2,252.192Z" transform="translate(-73.472 -249.576)" fill="#a70000"/><path d="M79.984,251.485l12.783,21.936a18.967,18.967,0,0,0-2.194,1.484l-15.65-19.99A45.082,45.082,0,0,1,79.984,251.485Z" transform="translate(-69.555 -251.485)" fill="#d40c0a"/></g><g transform="translate(20.789 2.927)"><path d="M81.656,250.5l10.659,25.3a19.71,19.71,0,0,0-2.342,1.165L76.151,253.246A48.006,48.006,0,0,1,81.656,250.5Z" transform="translate(-76.151 -249.495)" fill="#a70000"/><path d="M83.36,250.229l6.908,24.43a21.16,21.16,0,0,0-2.664.929l-9.856-23.4A48.085,48.085,0,0,1,83.36,250.229Z" transform="translate(-71.842 -250.229)" fill="#d40c0a"/></g><g transform="translate(32.026 0.641)"><path d="M85.06,249.611l4.288,27.123a21.44,21.44,0,0,0-2.69.588L79.188,250.9A49.256,49.256,0,0,1,85.06,249.611Z" transform="translate(-79.188 -249.611)" fill="#a70000"/><path d="M86.635,249.73,87.69,275.1a25.314,25.314,0,0,0-2.908.3l-3.963-25.077A51.54,51.54,0,0,1,86.635,249.73Z" transform="translate(-74.785 -249.29)" fill="#d40c0a"/></g><g transform="translate(43.836)"><path d="M87.334,249.439V276.9l-3.815.022-1.14-27.434C84.574,249.42,85.865,249.442,87.334,249.439Z" transform="translate(-82.38 -249.438)" fill="#a70000"/><rect width="4.388" height="25.385" transform="translate(4.954 1.037)" fill="#d40c0a"/></g><g transform="translate(53.178 0.001)"><rect width="4.388" height="27.46" fill="#a70000"/><rect width="4.388" height="25.385" transform="translate(4.388 1.036)" fill="#d40c0a"/></g><g transform="translate(61.95 0.001)"><rect width="4.388" height="27.46" fill="#a70000"/><rect width="4.388" height="25.385" transform="translate(4.388 1.036)" fill="#d40c0a"/></g><g transform="translate(70.722 0.001)"><rect width="4.388" height="27.46" fill="#a70000"/><rect width="4.388" height="25.385" transform="translate(4.388 1.036)" fill="#d40c0a"/></g><g transform="translate(79.498 0.001)"><rect width="4.388" height="27.46" fill="#a70000"/><rect width="4.388" height="25.385" transform="translate(4.384 1.036)" fill="#d40c0a"/></g><g transform="translate(88.271 0.001)"><rect width="4.388" height="27.46" fill="#a70000"/><rect width="4.388" height="25.385" transform="translate(4.384 1.036)" fill="#d40c0a"/></g><g transform="translate(97.043 0.001)"><rect width="4.388" height="27.46" fill="#a70000"/><rect width="4.388" height="25.385" transform="translate(4.384 1.036)" fill="#d40c0a"/></g><g transform="translate(105.815 0.001)"><rect width="4.388" height="27.46" fill="#a70000"/><rect width="4.388" height="25.385" transform="translate(4.388 1.036)" fill="#d40c0a"/></g><g transform="translate(114.588 0.001)"><rect width="4.388" height="27.46" fill="#a70000"/><rect width="4.384" height="25.385" transform="translate(4.388 1.036)" fill="#d40c0a"/></g></g><g transform="translate(0 127.837)"><rect width="108.079" height="117.044" transform="translate(98.893 63.789)" fill="#f8b00b"/><rect width="10.015" height="95.955" transform="translate(98.893 180.833)" fill="#144463"/><rect width="2.338" height="95.955" transform="translate(101.002 180.833)" fill="#fff" opacity="0.2"/><rect width="10.015" height="95.955" transform="translate(196.957 180.833)" fill="#144463"/><rect width="2.338" height="95.955" transform="translate(199.062 180.833)" fill="#fff" opacity="0.2"/><path d="M130.791,343.4H74.9a10.543,10.543,0,0,1-10.545-10.548V317.561h76.975v15.288A10.542,10.542,0,0,1,130.791,343.4Z" transform="translate(50.086 -136.728)" fill="#468fbc"/><path d="M80.829,335.125V317.562H66.067V332.85c0,5.827,2.612,10.548,8.436,10.548H84.522C81.6,341.637,80.829,338.181,80.829,335.125Z" transform="translate(54.703 -136.725)" fill="#fff" opacity="0.2"/><path d="M117.679,335.089H73.392c-3.493,0-6.327-2.361-6.327-5.276v-5.269h56.94v5.269C124.005,332.728,121.171,335.089,117.679,335.089Z" transform="translate(57.397 -117.875)" fill="#144463"/><path d="M78.75,329.813v-5.269H68.2v5.269c0,2.915,2.834,5.276,6.327,5.276h7.082A5.981,5.981,0,0,1,78.75,329.813Z" transform="translate(60.475 -117.875)" fill="#fff" opacity="0.2"/><rect width="45.338" height="59.578" transform="translate(130.26 217.213)" fill="#f8b00b"/><rect width="9.716" height="59.578" transform="translate(132.369 217.213)" fill="#fff" opacity="0.2"/><path d="M173.884,290.54H65.8l-7.744-6.323H181.632Z" transform="translate(33.088 -226.751)" fill="#144463"/><path d="M60.9,284.217l7.747,6.323h18.98l-7.747-6.323Z" transform="translate(40.753 -226.751)" fill="#fff" opacity="0.2"/><path d="M174.827,298.479H62.686c-2.331,0-4.222-1.535-4.222-3.426s1.887-3.426,4.222-3.426H174.827c2.327,0,4.218,1.532,4.218,3.426S177.155,298.479,174.827,298.479Z" transform="translate(34.176 -206.745)" fill="#a70000"/><path d="M185.352,294.808H62.654a6.071,6.071,0,0,1-6.134-6v-2.5a6.068,6.068,0,0,1,6.134-6h122.7a6.068,6.068,0,0,1,6.134,6v2.5A6.071,6.071,0,0,1,185.352,294.808Z" transform="translate(28.928 -237.343)" fill="#1d597e"/><path d="M81.969,289.574v-4.051a10.342,10.342,0,0,1,1.417-5.228H65.065a5.765,5.765,0,0,0-5.491,6v2.5a5.77,5.77,0,0,0,5.491,6H83.386A10.369,10.369,0,0,1,81.969,289.574Z" transform="translate(37.173 -237.34)" fill="#fff" opacity="0.2"/><rect width="18.98" height="117.044" transform="translate(109.4 63.789)" fill="#fff" opacity="0.2"/><path d="M58.061,311.64c0-21.478,26.876-42.955,60.034-42.955h3.5c33.154,0,60.034,24.252,60.034,42.955Z" transform="translate(33.088 -268.685)" fill="#f8b00b"/><path d="M113.94,269.629c-29.48.918-53.03,20.186-53.03,39.462H78.78C85.351,294.322,97.668,280.547,113.94,269.629Z" transform="translate(40.78 -266.136)" fill="#fff" opacity="0.2"/><g transform="translate(32.714 100.979)"><g transform="translate(0 44.923)"><rect width="17.352" height="2.701" transform="translate(0 2.705)" fill="#a70000"/><rect width="16.042" height="2.701" transform="translate(0.655)" fill="#d40c0a"/></g><g transform="translate(0 39.511)"><rect width="17.352" height="2.705" transform="translate(0 2.708)" fill="#a70000"/><rect width="16.042" height="2.708" transform="translate(0.655)" fill="#d40c0a"/></g><g transform="translate(0 33.069)"><path d="M42.3,305.837l17.341.67-.022,1.014v1.351H42.267V307.52Z" transform="translate(-42.267 -302.429)" fill="#a70000"/><path d="M42.745,304.916l15.909,2.1c-.092.644-.141,1.295-.17,1.946l-16.031-.614C42.5,307.2,42.586,306.056,42.745,304.916Z" transform="translate(-41.765 -304.916)" fill="#d40c0a"/></g><g transform="translate(0.333 26.339)"><path d="M42.979,303.958l16.916,3.874a15.825,15.825,0,0,0-.333,1.854l-17.2-2.272A33.956,33.956,0,0,1,42.979,303.958Z" transform="translate(-42.357 -300.772)" fill="#a70000"/><path d="M43.629,303.1l15.232,5.032c-.2.618-.385,1.247-.525,1.879L42.7,306.423C42.952,305.3,43.27,304.192,43.629,303.1Z" transform="translate(-41.439 -303.097)" fill="#d40c0a"/></g><g transform="translate(1.902 20.02)"><path d="M44.035,302.154l15.894,6.963c-.248.577-.481,1.162-.673,1.765l-16.475-5.446C43.144,304.322,43.569,303.227,44.035,302.154Z" transform="translate(-42.781 -299.324)" fill="#a70000"/><path d="M44.81,301.389l14.037,7.777c-.311.57-.607,1.158-.866,1.754l-14.7-6.434C43.744,303.428,44.259,302.4,44.81,301.389Z" transform="translate(-41.428 -301.389)" fill="#d40c0a"/></g><g transform="translate(4.71 14.337)"><path d="M45.379,300.5l14.337,9.775c-.348.533-.688,1.065-1,1.624l-15.18-8.41C44.11,302.461,44.728,301.469,45.379,300.5Z" transform="translate(-43.54 -298.117)" fill="#a70000"/><path d="M46.248,299.853l12.376,10.215c-.414.511-.807,1.032-1.184,1.572l-13.257-9.035C44.834,301.659,45.522,300.737,46.248,299.853Z" transform="translate(-41.804 -299.853)" fill="#d40c0a"/></g><g transform="translate(8.654 9.468)"><path d="M46.952,299.041l12.32,12.217c-.448.455-.873.932-1.284,1.421L44.606,301.631Q45.722,300.282,46.952,299.041Z" transform="translate(-44.606 -297.176)" fill="#a70000"/><path d="M47.9,298.537l10.311,12.287c-.5.422-.984.866-1.45,1.336l-11.392-11.3C46.175,300.05,47.015,299.273,47.9,298.537Z" transform="translate(-42.557 -298.537)" fill="#d40c0a"/></g><g transform="translate(13.571 5.557)"><path d="M48.71,297.829l9.9,14.248c-.529.363-1.032.755-1.521,1.162l-11.155-13.29C46.827,299.2,47.748,298.491,48.71,297.829Z" transform="translate(-45.935 -296.538)" fill="#a70000"/><path d="M49.693,297.48l7.918,13.952a19.126,19.126,0,0,0-1.669,1.051l-9.157-13.175C47.728,298.653,48.694,298.039,49.693,297.48Z" transform="translate(-43.64 -297.48)" fill="#d40c0a"/></g><g transform="translate(19.306 2.727)"><path d="M50.6,296.9l7.148,15.813a16.274,16.274,0,0,0-1.7.858l-8.561-15.088A33.261,33.261,0,0,1,50.6,296.9Z" transform="translate(-47.485 -296.221)" fill="#a70000"/><path d="M51.592,296.715l5.243,15.162c-.618.215-1.232.451-1.828.725L48.4,297.984C49.442,297.507,50.512,297.089,51.592,296.715Z" transform="translate(-45.017 -296.715)" fill="#d40c0a"/></g><g transform="translate(25.669 1.08)"><path d="M52.561,296.28l4.14,16.849c-.618.159-1.228.333-1.828.54l-5.668-16.4C50.3,296.887,51.429,296.561,52.561,296.28Z" transform="translate(-49.205 -296.243)" fill="#a70000"/><path d="M53.525,296.27l2.39,15.869c-.651.107-1.295.226-1.928.385l-3.833-15.576C51.268,296.666,52.4,296.455,53.525,296.27Z" transform="translate(-46.643 -296.27)" fill="#d40c0a"/></g><g transform="translate(32.455 0.078)"><path d="M54.509,296l1.017,17.323c-.636.033-1.273.111-1.905.192l-2.582-17.156C52.193,296.191,53.348,296.066,54.509,296Z" transform="translate(-51.039 -295.999)" fill="#a70000"/><path d="M55.161,296.156V312.2c-1.006-.007-1.554.015-2.235.044l-.94-16.017C53.112,296.164,54.366,296.153,55.161,296.156Z" transform="translate(-48.48 -295.576)" fill="#d40c0a"/></g><g transform="translate(39.137)"><rect width="2.705" height="17.356" fill="#a70000"/><rect width="2.701" height="16.042" transform="translate(2.705 0.659)" fill="#d40c0a"/></g><g transform="translate(44.546)"><rect width="2.705" height="17.356" fill="#a70000"/><rect width="2.705" height="16.042" transform="translate(2.705 0.659)" fill="#d40c0a"/></g><g transform="translate(49.955)"><rect width="2.705" height="17.356" fill="#a70000"/><rect width="2.701" height="16.042" transform="translate(2.705 0.659)" fill="#d40c0a"/></g><g transform="translate(55.361)"><rect width="2.705" height="17.356" fill="#a70000"/><rect width="2.705" height="16.042" transform="translate(2.705 0.659)" fill="#d40c0a"/></g><g transform="translate(60.77)"><rect width="2.705" height="17.356" fill="#a70000"/><rect width="2.705" height="16.042" transform="translate(2.705 0.659)" fill="#d40c0a"/></g></g><path d="M116.2,365.041H103.544v-6.327c0-5.72-6.756-10.548-14.762-10.548H60.841c-8,0-14.762,4.828-14.762,10.548v6.327H33.425v-6.327c0-12.794,12.3-23.2,27.416-23.2H88.782c15.118,0,27.416,10.4,27.416,23.2v6.327Z" transform="translate(-33.425 -88.253)" fill="#999"/><path d="M37.708,359.7c0-9.383,4.973-17.792,12.787-23.479-9.675,2.912-16.631,10.715-16.631,19.894v5.761h3.844V359.7Z" transform="translate(-32.24 -86.344)" fill="#fff" opacity="0.3"/><rect width="12.653" height="54.924" transform="translate(35.06 192.343)" fill="#999"/><rect width="3.03" height="54.924" transform="translate(37.172 192.343)" fill="#fff" opacity="0.3"/><path d="M54.06,316.966H47.475l-5.143-7.385H59.2Z" transform="translate(-9.378 -158.273)" fill="#a70000"/><rect width="6.589" height="26.358" transform="translate(38.097 158.693)" fill="#999"/><rect width="1.887" height="26.358" transform="translate(39.041 158.693)" fill="#fff" opacity="0.3"/><path d="M63.549,325.966a13.184,13.184,0,1,0,3.859,9.316A13.085,13.085,0,0,0,63.549,325.966Zm-3.8,2.312-4.066,4.07a3.26,3.26,0,0,0-2.9,0l-4.07-4.07a8.776,8.776,0,0,1,11.04,0Zm-12.531,1.487,4.066,4.074a3.276,3.276,0,0,0,0,2.9l-4.066,4.07a8.781,8.781,0,0,1,0-11.044ZM48.709,342.3l4.07-4.07a3.308,3.308,0,0,0,2.9,0l4.07,4.07a8.794,8.794,0,0,1-11.044,0Zm12.531-1.491-4.07-4.07a3.276,3.276,0,0,0,0-2.9l4.07-4.074a8.781,8.781,0,0,1,0,11.044Z" transform="translate(-12.839 -124.465)" opacity="0.2"/><g transform="translate(28.211 198.626)"><rect width="2.109" height="22.143" transform="translate(4.551 6.151) rotate(-45)" fill="#a70000"/><rect width="22.143" height="2.109" transform="translate(4.66 20.305) rotate(-44.972)" fill="#a70000"/><path d="M49.347,326.009a3.3,3.3,0,1,1-4.662,0A3.295,3.295,0,0,1,49.347,326.009Z" transform="translate(-33.838 -315.153)" fill="#d40c0a"/><path d="M54.229,348.731a13.169,13.169,0,1,1,9.32-3.855A13.085,13.085,0,0,1,54.229,348.731Zm0-22.14a8.969,8.969,0,1,0,6.338,2.627A8.9,8.9,0,0,0,54.229,326.591Z" transform="translate(-41.05 -322.37)" fill="#d40c0a"/></g><g transform="translate(31.944 184)"><rect width="18.891" height="7.292" transform="translate(0 1.051)" fill="#144463"/><g transform="translate(1.01)"><rect width="2.812" height="1.051" fill="#474747"/><rect width="2.812" height="1.051" transform="translate(7.03)" fill="#474747"/><rect width="2.812" height="1.051" transform="translate(14.059)" fill="#474747"/></g><g transform="translate(1.01 8.343)"><rect width="2.812" height="1.054" fill="#474747"/><rect width="2.812" height="1.054" transform="translate(7.03)" fill="#474747"/><rect width="2.812" height="1.054" transform="translate(14.059)" fill="#474747"/></g><rect width="18.891" height="1.058" transform="translate(0 4.17)" fill="#999"/></g><g transform="translate(31.944 232.719)"><rect width="18.891" height="7.289" transform="translate(0 1.058)" fill="#144463"/><g transform="translate(1.01)"><rect width="2.812" height="1.058" fill="#474747"/><rect width="2.812" height="1.058" transform="translate(7.03)" fill="#474747"/><rect width="2.812" height="1.058" transform="translate(14.059)" fill="#474747"/></g><g transform="translate(1.01 8.347)"><rect width="2.812" height="1.058" fill="#474747"/><rect width="2.812" height="1.058" transform="translate(7.03)" fill="#474747"/><rect width="2.812" height="1.058" transform="translate(14.059)" fill="#474747"/></g><rect width="18.891" height="1.051" transform="translate(0 4.177)" fill="#999"/></g><rect width="76.975" height="2.638" transform="translate(114.443 180.833)" opacity="0.2"/><rect width="56.94" height="1.843" transform="translate(124.462 206.669)" opacity="0.2"/><rect width="45.338" height="2.427" transform="translate(130.26 217.213)" opacity="0.2"/><rect width="108.079" height="2.46" transform="translate(98.893 91.734)" opacity="0.2"/><rect width="108.079" height="1.584" transform="translate(98.893 63.789)" opacity="0.2"/></g><g transform="translate(260.653)"><g transform="translate(17.3 20.686)"><path d="M184.774,242.624v40.465l-67.485,33.927-2.305,1.154V242.624Z" transform="translate(-91.183 -231.894)" fill="#f8b00b"/><rect width="23.805" height="108.794" fill="#1d597e"/><rect width="3.852" height="108.794" fill="#144463"/><rect width="19.598" height="29.588" transform="translate(35.463 26.543)" opacity="0.2"/><rect width="18.962" height="28.703" transform="translate(35.463 26.543)" fill="#999"/><path d="M138.763,286.694c-8.384,0-16.76-2.912-22.406-8a2.275,2.275,0,1,1,3.049-3.378c5.894,5.309,15.365,7.851,24.127,6.452,6.926-1.106,16.753-5.139,24.219-18.118a2.271,2.271,0,0,1,3.94,2.261c-8.354,14.548-19.535,19.1-27.445,20.353A34.477,34.477,0,0,1,138.763,286.694Z" transform="translate(-89.5 -178.211)" fill="#474747"/><g transform="translate(39.477 28.359)"><g transform="translate(0.004)"><path d="M124.69,247.389a5.468,5.468,0,1,0,5.468,5.472A5.468,5.468,0,0,0,124.69,247.389Z" transform="translate(-119.222 -247.389)" fill="#d3d4d6"/><path d="M123.862,247.7a4.327,4.327,0,1,0,4.325,4.333A4.334,4.334,0,0,0,123.862,247.7Z" transform="translate(-118.393 -246.557)" fill="#d40c0a"/><path d="M127.475,249.658a4.316,4.316,0,0,0-6.464,5.605,4.318,4.318,0,1,1,6.464-5.605Z" transform="translate(-118.396 -246.557)" fill="#fff" opacity="0.2"/></g><g transform="translate(0 14.133)"><path d="M124.693,251.209a5.466,5.466,0,1,0,5.468,5.461A5.462,5.462,0,0,0,124.693,251.209Z" transform="translate(-119.221 -251.209)" fill="#d3d4d6"/><path d="M123.862,251.516a4.327,4.327,0,1,0,4.325,4.325A4.323,4.323,0,0,0,123.862,251.516Z" transform="translate(-118.389 -250.38)" fill="#96c12a"/><path d="M127.475,253.481a4.312,4.312,0,0,0-6.464,5.594,4.264,4.264,0,0,1-1.484-3.234,4.324,4.324,0,0,1,7.947-2.36Z" transform="translate(-118.392 -250.38)" fill="#fff" opacity="0.2"/></g></g><path d="M132.751,271.229a3.031,3.031,0,0,1-3.03-3.038v-3.3a3.033,3.033,0,0,1,3.03-3.034h3.415v9.372h-3.415Z" transform="translate(-51.396 -179.969)" fill="#d40c0a"/><path d="M118.4,274.53a3.035,3.035,0,0,0,3.034-3.03v-3.3a3.038,3.038,0,0,0-3.034-3.034h-3.411v9.368Z" transform="translate(-91.178 -171.046)" fill="#d40c0a"/><path d="M117.289,242.624v74.393l-2.305,1.154V242.624Z" transform="translate(-91.183 -231.894)" opacity="0.2"/><rect width="1.136" height="9.372" transform="translate(83.638 81.888)" opacity="0.2"/><rect width="1.151" height="9.368" transform="translate(23.805 94.116)" opacity="0.2"/></g><g transform="translate(102.071)"><rect width="45.33" height="35.655" transform="translate(8.82 26.169)" fill="#1d597e"/><rect width="30.157" height="22.758" transform="translate(16.401 3.415)" fill="#f8b00b"/><path d="M169.946,237.548H136.563a1.516,1.516,0,0,1-1.51-1.521v-.381a1.514,1.514,0,0,1,1.51-1.513h33.384a1.515,1.515,0,0,1,1.513,1.513v.381A1.512,1.512,0,0,1,169.946,237.548Z" transform="translate(-121.771 -234.133)" fill="#d40c0a"/><rect width="57.085" height="37.949" transform="translate(2.945 61.824)" fill="#468fbc"/><rect width="81.74" height="14.97" transform="translate(0 99.777)" fill="#f8b00b"/><rect width="12.705" height="21.241" transform="translate(64.103 78.533)" fill="#d40c0a"/><rect width="10.43" height="14.045" transform="translate(65.243 64.488)" fill="#a70000"/><rect width="22.565" height="9.479" transform="translate(59.175 114.747)" fill="#1d597e"/><path d="M162.438,282.5h-7.4c-1.672-4.58-2.438-10.2-7.581-14.788h22.565C164.883,272.294,164.114,277.918,162.438,282.5Z" transform="translate(-88.282 -143.481)" fill="#468fbc"/><path d="M148.482,267.709c4.381,4.588,5.035,10.212,6.467,14.788,0,0,.862-9.305-.655-14.788Z" transform="translate(-85.515 -143.483)" fill="#fff" opacity="0.3"/><path d="M153.456,296.707l-3.411-7.581V271.707h3.411Z" transform="translate(-81.295 -132.69)" fill="#999"/><path d="M160.46,267.583l-.019-.37.64-.044a6.017,6.017,0,0,0-.481-1.979l-.588.263-.166-.337a2.775,2.775,0,0,0-.185-.322l.551-.34a6.081,6.081,0,0,0-1.347-1.524l-.4.5-.3-.215c-.007,0-.015,0-.015-.011a.9.9,0,0,1-.107-.067c-.067-.041-.13-.081-.189-.118l.322-.562a6.05,6.05,0,0,0-1.909-.721l-.118.633-.366-.056c-.122-.022-.241-.015-.37-.026l.037-.64a5.7,5.7,0,0,0-2.016.237l.189.618a2.882,2.882,0,0,0-.355.126.393.393,0,0,0-.1.033c-.052.022-.111.044-.163.07a.259.259,0,0,0-.078.041l-.277-.592a5.637,5.637,0,0,0-1.665,1.158l.44.459c0,.007,0,.011-.007.011l-.059.07c-.059.063-.122.122-.181.185-.078.092-.163.189-.233.289l-.514-.392a5.714,5.714,0,0,0-.951,1.8l.618.2c-.037.111-.067.24-.1.359,0,.033-.015.07-.019.1a1.027,1.027,0,0,1-.037.185.565.565,0,0,0-.011.078l-.64-.111a5.873,5.873,0,0,0,0,2.035l.64-.1c0,.022,0,.048.011.078a1.391,1.391,0,0,1,.037.17c0,.037.015.074.019.111.037.122.067.237.1.355l-.618.192a5.785,5.785,0,0,0,.951,1.806l.514-.4a2.169,2.169,0,0,0,.233.285c.059.063.118.129.174.185.026.026.044.052.07.074,0,0,.007.007.007.015l-.44.462a5.734,5.734,0,0,0,1.669,1.154l.274-.588a.121.121,0,0,0,.078.026.757.757,0,0,0,.166.078c.033.011.067.033.1.041.118.037.229.089.355.122l-.189.614a5.784,5.784,0,0,0,2.016.24l-.037-.64a2.983,2.983,0,0,0,.37-.033l.366-.059.118.64a5.92,5.92,0,0,0,1.909-.729l-.322-.555a1.306,1.306,0,0,1,.2-.122.609.609,0,0,1,.089-.059c.007,0,.015-.011.022-.011l.3-.222.4.5a5.881,5.881,0,0,0,1.347-1.521l-.551-.344a1.93,1.93,0,0,0,.185-.318l.167-.333.588.263a6,6,0,0,0,.481-1.979l-.64-.041Z" transform="translate(-83.573 -159.87)" opacity="0.2"/><g transform="translate(65.17 101.31)"><path d="M159.877,267a5.313,5.313,0,1,1-5.32-5.313A5.319,5.319,0,0,1,159.877,267Z" transform="translate(-148.608 -261.049)" fill="#999"/><g transform="translate(10.077 5.952)"><path d="M152.534,265.255l.6.259a6.068,6.068,0,0,0,.481-1.972l-.64-.052.022-.366h-.655a4.766,4.766,0,0,1-.537,2.164l.577.3Z" transform="translate(-151.801 -263.124)" fill="#474747"/></g><g transform="translate(8.605 8.113)"><path d="M152.062,265.691l.4.5a5.842,5.842,0,0,0,1.354-1.524l-.548-.34c.059-.107.137-.207.189-.318l-.577-.3a4.7,4.7,0,0,1-1.476,1.68l.363.522Z" transform="translate(-151.403 -263.708)" fill="#474747"/></g><g transform="translate(6.511 9.793)"><path d="M151.281,265.531l.122.625a5.893,5.893,0,0,0,1.9-.718l-.333-.559a2.667,2.667,0,0,0,.315-.2l-.363-.522a4.785,4.785,0,0,1-2.087.784l.078.644Z" transform="translate(-150.837 -264.162)" fill="#474747"/></g><g transform="translate(4.065 10.311)"><path d="M150.524,265.027l-.185.618a6.058,6.058,0,0,0,2.028.237l-.037-.644a2.106,2.106,0,0,0,.37-.026l-.078-.644a4.645,4.645,0,0,1-2.213-.266l-.233.6C150.294,264.942,150.416,264.994,150.524,265.027Z" transform="translate(-150.176 -264.302)" fill="#474747"/></g><g transform="translate(1.775 9.042)"><path d="M150.016,264.655l-.459.459a5.831,5.831,0,0,0,1.683,1.154l.266-.581a2.279,2.279,0,0,0,.34.141l.233-.6a4.65,4.65,0,0,1-1.839-1.269l-.485.422C149.853,264.473,149.931,264.573,150.016,264.655Z" transform="translate(-149.557 -263.959)" fill="#474747"/></g><g transform="translate(0.288 7.07)"><path d="M149.765,263.94l-.61.2a5.915,5.915,0,0,0,.944,1.794l.514-.392a2.4,2.4,0,0,0,.233.281l.485-.422a4.456,4.456,0,0,1-1.036-1.972l-.622.148A3.285,3.285,0,0,0,149.765,263.94Z" transform="translate(-149.155 -263.426)" fill="#474747"/></g><g transform="translate(0 4.683)"><path d="M149.794,263.14l-.625-.111a5.741,5.741,0,0,0,0,2.042l.625-.118c.019.122.055.24.085.363l.622-.148a4.4,4.4,0,0,1,0-2.235l-.622-.152C149.85,262.9,149.813,263.018,149.794,263.14Z" transform="translate(-149.077 -262.781)" fill="#474747"/></g><g transform="translate(0.288 2.327)"><path d="M150.613,262.536l-.514-.392a5.916,5.916,0,0,0-.943,1.794l.61.2a2.9,2.9,0,0,0-.1.363l.622.152a4.453,4.453,0,0,1,1.036-1.972l-.485-.433A3.44,3.44,0,0,0,150.613,262.536Z" transform="translate(-149.155 -262.144)" fill="#474747"/></g><g transform="translate(1.779 0.547)"><path d="M151.508,262.251l-.266-.588a5.778,5.778,0,0,0-1.683,1.154l.459.463c-.085.078-.163.17-.255.266l.485.433a4.632,4.632,0,0,1,1.839-1.273l-.233-.607A3.241,3.241,0,0,0,151.508,262.251Z" transform="translate(-149.558 -261.663)" fill="#474747"/></g><g transform="translate(4.073)"><path d="M152.328,262.162l.037-.64a6.061,6.061,0,0,0-2.028.237l.185.622c-.115.041-.229.081-.344.118l.233.607a4.633,4.633,0,0,1,2.213-.263l.078-.64A2.682,2.682,0,0,0,152.328,262.162Z" transform="translate(-150.178 -261.515)" fill="#474747"/></g><g transform="translate(6.514 0.106)"><path d="M152.973,262.817l.333-.548a6.027,6.027,0,0,0-1.9-.725l-.122.633-.366-.052-.078.64a4.616,4.616,0,0,1,2.087.784l.363-.529C153.191,262.943,153.08,262.887,152.973,262.817Z" transform="translate(-150.838 -261.544)" fill="#474747"/></g><g transform="translate(8.598 1.298)"><path d="M153.269,263.734l.548-.344a5.975,5.975,0,0,0-1.354-1.524l-.4.5-.3-.222-.363.529a4.693,4.693,0,0,1,1.476,1.676l.577-.3A2.981,2.981,0,0,0,153.269,263.734Z" transform="translate(-151.401 -261.866)" fill="#474747"/></g><g transform="translate(10.077 3.488)"><path d="M152.97,264.548l.64-.048a6.07,6.07,0,0,0-.481-1.972l-.6.259-.155-.329-.577.3a4.682,4.682,0,0,1,.536,2.161h.655Z" transform="translate(-151.801 -262.458)" fill="#474747"/></g></g><rect width="30.157" height="2.068" transform="translate(16.401 24.101)" opacity="0.2"/><rect width="30.157" height="2.076" transform="translate(16.401 3.415)" opacity="0.2"/><rect width="45.33" height="1.846" transform="translate(8.82 59.982)" opacity="0.2"/><rect width="57.085" height="2.401" transform="translate(2.945 97.372)" opacity="0.2"/><rect width="7.377" height="22.758" transform="translate(20.245 3.415)" fill="#fff" opacity="0.3"/><rect width="8.665" height="35.655" transform="translate(15.269 26.169)" fill="#fff" opacity="0.3"/><rect width="11.64" height="37.949" transform="translate(10.119 61.824)" fill="#fff" opacity="0.3"/><rect width="12.79" height="14.988" transform="translate(4.299 99.777)" fill="#fff" opacity="0.3"/><rect width="3.193" height="14.045" transform="translate(67.263 64.488)" fill="#fff" opacity="0.3"/><rect width="3.615" height="21.241" transform="translate(65.243 78.533)" fill="#fff" opacity="0.3"/><rect width="5.783" height="9.479" transform="translate(62.967 114.747)" fill="#fff" opacity="0.3"/><rect width="12.705" height="1.202" transform="translate(64.103 98.571)" opacity="0.2"/><rect width="10.43" height="1.72" transform="translate(65.243 76.812)" opacity="0.2"/></g><path d="M115.755,314.7c-6.563,0-11.88-7.229-11.88-16.146V259.136c0-8.917,5.32-16.146,11.88-16.146h5.42V314.7Z" transform="translate(-103.875 -210.221)" fill="#d40c0a"/></g></g><g transform="translate(980.852 13289.946)"><g transform="translate(11.331 4.356)"><rect width="11.388" height="12.978" transform="translate(2.548 22.222)" fill="#ffdab7"/><path d="M293.507,170.1v1.494c-.222.165-.47.34-.72.516-1.392.958-3.007,1.946-3.007,1.946a4.158,4.158,0,0,1-3.761,0s-1.715-1.052-3.135-2.038c-.267-.193-.525-.379-.765-.554V170.1h11.389Z" transform="translate(-279.571 -147.874)" opacity="0.2"/><path d="M293.479,147.034a6.647,6.647,0,0,1-1.411,2.443,10.258,10.258,0,0,1-.9.73c-.251.188-.525.384-.808.585-1.393.951-3.01,1.941-3.01,1.941a4.132,4.132,0,0,1-3.758,0s-1.722-1.051-3.137-2.041c-.237-.164-.467-.329-.676-.484a10.872,10.872,0,0,1-.9-.73,6.578,6.578,0,0,1-1.411-2.443c-.2-.955-.26-6.842-.233-11.075.009-1.795.036-3.288.073-3.987.078-1.5,1.055-3.448,2.16-3.69s2-.439,2-.439a22.047,22.047,0,0,1,8.006,0c.731.155,1.416.306,2,.439,1.11.242,2.083,2.192,2.165,3.69.031.7.059,2.2.068,3.992C293.734,140.2,293.679,146.079,293.479,147.034Z" transform="translate(-277.233 -127.477)" fill="#ffdab7"/></g><g transform="translate(0 29.325)"><path d="M294.65,185.562v12.772H255.5V185.562a4.3,4.3,0,0,1,2.765-3.826l6.3-1.877,2.556-.765,1.825-.547-.061,3.695v.009c.027.313.07.635.113.956h12.128a12.783,12.783,0,0,0,.147-1.5l.071-2.834,1.686.461,2.555.7,6.3,1.712A4.306,4.306,0,0,1,294.65,185.562Z" transform="translate(-255.502 -176.888)" fill="#144463"/><rect width="0.439" height="15.123" transform="translate(19.357 6.32)" fill="#468fbc"/><g transform="translate(12.626)"><path d="M300.334,181.133a9.9,9.9,0,0,1-1.126,5.173,5.661,5.661,0,0,1-.59.931c-.082-.111-.176-.23-.286-.36-.175-.211-.378-.442-.618-.681a46.113,46.113,0,0,0-3.891-3.431c-.009,0-.009,0-.009-.01,3.31-.783,4.8-2.462,5.283-5.616a3.817,3.817,0,0,1,.3.47,7.076,7.076,0,0,1,.766,2.122A7.591,7.591,0,0,1,300.334,181.133Z" transform="translate(-286.463 -176.215)" opacity="0.3"/><path d="M298.726,175.366a7.218,7.218,0,0,1-5.688,6.32s4.108,2.212,5.213,3.784C300.3,182.791,300.621,178.051,298.726,175.366Z" transform="translate(-286.092 -175.366)" fill="#1d597e"/><path d="M286.261,182.756c0,.01,0,.01-.009.01a47.933,47.933,0,0,0-3.937,3.476,6.571,6.571,0,0,0-.573.637c-.112.13-.2.25-.285.36a5.651,5.651,0,0,1-.591-.931,9.893,9.893,0,0,1-1.125-5.173,6.932,6.932,0,0,1,.128-1.152c.011-.083.029-.166.047-.249a6.924,6.924,0,0,1,.766-2.122,3.873,3.873,0,0,1,.294-.47C281.457,180.294,282.951,181.973,286.261,182.756Z" transform="translate(-279.722 -176.215)" opacity="0.3"/><path d="M280.977,175.366a7.215,7.215,0,0,0,5.686,6.32s-4.107,2.212-5.213,3.784C279.4,182.791,279.08,178.051,280.977,175.366Z" transform="translate(-279.717 -175.366)" fill="#1d597e"/></g></g><g transform="translate(10.796 2.97)"><path d="M282.825,126.012c-3.309,3.811,7.059,9.875,12.071,7.295,2.482-1.276,2.12-5.378-.137-6.857C292.276,124.821,284.583,123.988,282.825,126.012Z" transform="translate(-279.068 -124.821)" fill="#474747"/><path d="M279.964,127.072c-3.986.8-4.227,7.172-3.322,12.6.214-3.4,1.914-8.183,3.322-8.929C281.515,129.925,282.039,126.657,279.964,127.072Z" transform="translate(-276.206 -125.881)" fill="#474747"/><path d="M301.863,126.445c4.146,1.053,4.18,7.049,3.093,12.921-.114-4.688-1.685-8.5-3.093-9.246C300.311,129.3,299.81,125.923,301.863,126.445Z" transform="translate(-287.835 -125.572)" fill="#474747"/></g><g transform="translate(6.047 31.531)"><g transform="translate(2.331)"><g transform="translate(18.466 0.235)"><path d="M310.757,196.627h-3.616a.156.156,0,0,1-.157-.156v-2.661a.156.156,0,0,1,.157-.156h3.616a.156.156,0,0,1,.157.156v2.661A.157.157,0,0,1,310.757,196.627Zm-3.459-.313h3.3v-2.348h-3.3Z" transform="translate(-306.985 -186.559)"/><path d="M310.862,180.743v6.963h-2.555v-7.659Z" transform="translate(-307.618 -180.047)" fill="#f8b00b"/><rect width="2.553" height="2.337" transform="translate(0.688 9.395)" fill="#f8b00b"/></g><path d="M275.342,196.627h-3.615a.156.156,0,0,1-.157-.156v-2.661a.156.156,0,0,1,.157-.156h3.615a.157.157,0,0,1,.157.156v2.661A.157.157,0,0,1,275.342,196.627Zm-3.459-.313h3.3v-2.348h-3.3Z" transform="translate(-271.57 -186.323)"/><path d="M275.449,179.6v7.894h-2.556v-7.128Z" transform="translate(-272.203 -179.596)" fill="#f8b00b"/><rect width="2.553" height="2.337" transform="translate(0.688 9.631)" fill="#f8b00b"/></g><g transform="translate(0 11.968)"><rect width="23.583" height="7.27" transform="translate(1.738)" fill="#f8b00b"/><path d="M317.4,214.355h-1.738V212.03l1.738,1.739Z" transform="translate(-290.339 -207.086)" fill="#f8b00b"/><path d="M267.1,214.355h1.738V212.03l-1.738,1.739Z" transform="translate(-267.099 -207.086)" fill="#f8b00b"/><rect width="15.92" height="2.597" transform="translate(5.569 4.672)" fill="#f5cc1c"/></g></g><path d="M293.713,135.964a21.038,21.038,0,0,1-16.467,0c.009-1.795.037-3.288.073-3.987.078-1.5,1.055-3.448,2.16-3.69s2-.439,2-.439a22.047,22.047,0,0,1,8.006,0c.73.155,1.416.306,2,.439,1.11.242,2.083,2.192,2.165,3.69C293.677,132.671,293.7,134.169,293.713,135.964Z" transform="translate(-265.908 -123.122)" opacity="0.2"/><g transform="translate(9.258)"><path d="M293.855,130.623a.239.239,0,0,1-.008.076c.008-.076-2.458,2.8-9.89,2.8s-9.888-2.876-9.88-2.809a.2.2,0,0,1-.008-.067,9.893,9.893,0,0,1,19.786,0Z" transform="translate(-273.646 -119.895)" fill="#f5cc1c"/><path d="M293.466,120.587l-4.562,10c-.4.017-.815.017-1.227,0l-4.555-10a9.875,9.875,0,0,1,10.343,0Z" transform="translate(-277.979 -119.124)" fill="#f5cc1c"/><path d="M283.149,121.723l2.327,7.324-2.915-7.11Z" transform="translate(-277.71 -120.368)" fill="#e69006"/><path d="M297.916,129.047l2.335-7.324.589.214Z" transform="translate(-285.059 -120.368)" fill="#e69006"/><path d="M283.572,140.961a40.118,40.118,0,0,1-9.961-1.254.47.47,0,0,1,.234-.911,39.244,39.244,0,0,0,19.456,0,.47.47,0,0,1,.234.911A40.133,40.133,0,0,1,283.572,140.961Z" transform="translate(-273.258 -128.531)" fill="#e69006"/></g></g><g transform="translate(318.744 13164.069)"><ellipse cx="25.628" cy="25.628" rx="25.628" ry="25.628" fill="#265e92"/><ellipse cx="16.516" cy="16.516" rx="16.516" ry="16.516" transform="translate(9.112 9.112)" fill="#f6f6f6" opacity="0.995"/></g><g transform="translate(528.744 13081.069)"><ellipse cx="25.628" cy="25.628" rx="25.628" ry="25.628" fill="#265e92"/><ellipse cx="16.516" cy="16.516" rx="16.516" ry="16.516" transform="translate(9.112 9.112)" fill="#f6f6f6" opacity="0.995"/></g><g transform="translate(685 13197.953)"><ellipse cx="25.628" cy="25.628" rx="25.628" ry="25.628" fill="#265e92"/><ellipse cx="16.516" cy="16.516" rx="16.516" ry="16.516" transform="translate(9.112 9.112)" fill="#f6f6f6" opacity="0.995"/></g><g transform="translate(800 13081.069)"><ellipse cx="25.628" cy="25.628" rx="25.628" ry="25.628" fill="#265e92"/><ellipse cx="16.516" cy="16.516" rx="16.516" ry="16.516" transform="translate(9.112 9.112)" fill="#f6f6f6" opacity="0.995"/></g><g transform="translate(863.744 13249.209)"><ellipse cx="25.628" cy="25.628" rx="25.628" ry="25.628" fill="#265e92"/><ellipse cx="16.516" cy="16.516" rx="16.516" ry="16.516" transform="translate(9.112 9.112)" fill="#f6f6f6" opacity="0.995"/></g><g transform="translate(1053.744 13106.697)"><ellipse cx="25.628" cy="25.628" rx="25.628" ry="25.628" fill="#265e92"/><ellipse cx="16.516" cy="16.516" rx="16.516" ry="16.516" transform="translate(9.112 9.112)" fill="#f6f6f6" opacity="0.995"/></g><g transform="translate(1146.744 13282.697)"><ellipse cx="25.628" cy="25.628" rx="25.628" ry="25.628" fill="#265e92"/><ellipse cx="16.516" cy="16.516" rx="16.516" ry="16.516" transform="translate(9.112 9.112)" fill="#f6f6f6" opacity="0.995"/></g></g></svg>