<svg xmlns="http://www.w3.org/2000/svg" width="17.995" height="18.047" viewBox="0 0 17.995 18.047"><path d="M55.363,172.182c.054.082.108.161.162.239q-.78.733-1.507,1.533a9,9,0,0,0,4.219,3c.344-.627.664-1.273.957-1.93a6.809,6.809,0,0,0,1.576.269q.088,1.073.259,2.143a8.981,8.981,0,0,0,4.979-1.431q-.418-1-.914-1.953a6.778,6.778,0,0,0,1.2-1.063c.594.4,1.208.778,1.838,1.131a9.041,9.041,0,0,0,1.982-4.782c-.695-.2-1.391-.365-2.092-.5a7.062,7.062,0,0,0-.089-1.6c.683-.215,1.361-.458,2.023-.729a9.069,9.069,0,0,0-2.5-4.533c-.588.419-1.156.863-1.7,1.323a6.718,6.718,0,0,0-1.3-.929q.389-1,.69-2.037a8.739,8.739,0,0,0-2.484-.807,8.585,8.585,0,0,0-2.613-.064q-.058,1.083-.025,2.148a6.666,6.666,0,0,0-1.54.445q-.54-.921-1.164-1.811l-.3.141c-.1.051-.191.106-.285.161-.188.11-.379.216-.562.332a9.718,9.718,0,0,0-1.033.8,8.844,8.844,0,0,0-.921.937c-.141.168-.268.346-.4.521a5.033,5.033,0,0,0-.362.547q.812.719,1.667,1.359v0a6.632,6.632,0,0,0-.615,1.478c-.706-.1-1.417-.177-2.14-.221a8.954,8.954,0,0,0,.284,5.167q1.059-.183,2.1-.455a6.629,6.629,0,0,0,.608,1.164m2.912-8.173a5.252,5.252,0,1,1-1.525,7.267,5.258,5.258,0,0,1,1.525-7.267" transform="translate(-52.115 -159.392)" fill="#c10000"/></svg>