<svg xmlns="http://www.w3.org/2000/svg" width="93" height="94" viewBox="0 0 93 94"><g transform="translate(-807.458 -8058.337)"><ellipse cx="46.5" cy="47" rx="46.5" ry="47" transform="translate(807.458 8058.337)" fill="#c10000"/><g transform="translate(825.951 8070.099)"><path d="M50.7,16.2a14.279,14.279,0,0,0-2.9.3v-3a4.7,4.7,0,0,0-4.7-4.7H37.2V7.4a.945.945,0,0,0-1-1H30.9a.52.52,0,0,1-.4-.2.758.758,0,0,1-.2-.4A5.1,5.1,0,0,0,28.5,2a4.905,4.905,0,0,0-7.8,2.4,6.753,6.753,0,0,0-.2,1.4.52.52,0,0,1-.2.4.367.367,0,0,1-.3.1H14.6a.945.945,0,0,0-1,1V8.7H7.8a4.7,4.7,0,0,0-4.7,4.7V60.2a4.7,4.7,0,0,0,4.7,4.7H43.1a4.7,4.7,0,0,0,4.7-4.7v-20a13.523,13.523,0,0,0,2.9.4,12.2,12.2,0,0,0,0-24.4ZM24.5,6.1a1,1,0,0,1,2,0V7.2a1,1,0,1,1-2,0ZM41.9,36.9V58.8H9V15h4.7v1.7a.945.945,0,0,0,1,1H36.2a.945.945,0,0,0,1-1V15h4.7v5a12.371,12.371,0,0,0-3.5,8.5A12.79,12.79,0,0,0,41.9,36.9Zm8.8,1.7A10.2,10.2,0,1,1,60.9,28.4,10.243,10.243,0,0,1,50.7,38.6Z" fill="#fff"/><path d="M56.6,34.3a8.452,8.452,0,0,1-11.8,0A8.38,8.38,0,0,1,56.6,22.4a8.575,8.575,0,0,1,0,11.9Z" fill="#fff"/><path d="M13,26.8l2.6,2.6a1.08,1.08,0,0,0,.7.3.908.908,0,0,0,.7-.3l5.7-5.7a.99.99,0,0,0-1.4-1.4l-5,5-1.9-1.9A.99.99,0,1,0,13,26.8Z" fill="#fff"/><path d="M14.3,41.2a1.08,1.08,0,0,0,.7.3.908.908,0,0,0,.7-.3l2.1-2.1,2.1,2.1a1.08,1.08,0,0,0,.7.3.908.908,0,0,0,.7-.3.967.967,0,0,0,0-1.4l-2.1-2.1,2.1-2.1a.99.99,0,0,0-1.4-1.4l-2.1,2.1-2.1-2.1a.99.99,0,0,0-1.4,1.4l2.1,2.1-2.1,2.1a1.2,1.2,0,0,0,0,1.4Z" fill="#fff"/><path d="M21.4,45.9l-5,5L14.5,49a.99.99,0,1,0-1.4,1.4L15.7,53a.967.967,0,0,0,1.4,0l5.7-5.7a.99.99,0,1,0-1.4-1.4Z" fill="#fff"/><path d="M27,24.4h8.2a1,1,0,0,0,0-2H27a.945.945,0,0,0-1,1A1,1,0,0,0,27,24.4Z" fill="#fff"/><path d="M27,29.5h7.5a1,1,0,0,0,0-2H27a.945.945,0,0,0-1,1A1,1,0,0,0,27,29.5Z" fill="#fff"/><path d="M27,36.1h8.2a1,1,0,0,0,0-2H27a.945.945,0,0,0-1,1A1,1,0,0,0,27,36.1Z" fill="#fff"/><path d="M27,41.3H37.2a1,1,0,0,0,0-2H27a.945.945,0,0,0-1,1A1.075,1.075,0,0,0,27,41.3Z" fill="#fff"/><path d="M27,47.9h8.2a1,1,0,0,0,0-2H27a.945.945,0,0,0-1,1A1.075,1.075,0,0,0,27,47.9Z" fill="#fff"/><path d="M27,53H37.2a1,1,0,0,0,0-2H27a.945.945,0,0,0-1,1A1,1,0,0,0,27,53Z" fill="#fff"/></g></g></svg>