<svg xmlns="http://www.w3.org/2000/svg" width="93" height="94" viewBox="0 0 93 94"><g transform="translate(-813.44 -8335.6)"><ellipse cx="46.5" cy="47" rx="46.5" ry="47" transform="translate(813.44 8335.6)" fill="#c10000"/><path d="M57.671,43.735h-.929v-28.8a.929.929,0,0,0-.929-.929H22.368a.929.929,0,0,0-.929.929v28.8H20.51V40.948a.929.929,0,0,0-.929-.929h-.929V7.5a5.58,5.58,0,0,0-5.574-5.574h-.929A.929.929,0,0,0,11.219,1H1.929A.929.929,0,0,0,1,1.929V7.5a.929.929,0,0,0,.929.929h9.29a.929.929,0,0,0,.929-.929.929.929,0,0,1,.929.929V40.019h-.929a.929.929,0,0,0-.929.929v2.787H9.361a.929.929,0,0,0-.929.929V48.38a.929.929,0,0,0,.929.929h2.787v.929a4.605,4.605,0,0,0,.393,1.858A4.645,4.645,0,1,0,17.722,49.4v-.093H45.593v.929a4.605,4.605,0,0,0,.393,1.858A4.645,4.645,0,1,0,51.167,49.4v-.093h6.5a.929.929,0,0,0,.929-.929V44.664A.929.929,0,0,0,57.671,43.735ZM10.29,6.574H2.858V2.858H10.29ZM40.019,43.735V30.729h3.716v6.5a.929.929,0,0,0,1.586.657l2.13-2.13,2.13,2.13a.929.929,0,0,0,1.586-.657v-6.5h3.716V43.735Zm5.574-13.006h3.716v4.261l-1.2-1.2a.929.929,0,0,0-1.314,0l-1.2,1.2Zm9.29-1.858H40.019V15.864h3.716v6.5a.929.929,0,0,0,1.586.657l2.13-2.13,2.13,2.13a.929.929,0,0,0,1.586-.657v-6.5h3.716Zm-9.29-13.006h3.716v4.261l-1.2-1.2a.929.929,0,0,0-1.314,0l-1.2,1.2Zm-16.722,0h3.716v4.261l-1.2-1.2a.929.929,0,0,0-1.314,0l-1.2,1.2Zm-1.858,0v6.5a.929.929,0,0,0,1.586.657l2.13-2.13,2.13,2.13a.929.929,0,0,0,1.586-.657v-6.5h3.716V28.871H23.3V15.864Zm1.858,14.864h3.716v4.261l-1.2-1.2a.929.929,0,0,0-1.314,0l-1.2,1.2Zm-5.574,0h3.716v6.5a.929.929,0,0,0,1.586.657l2.13-2.13,2.13,2.13a.929.929,0,0,0,1.586-.657v-6.5h3.716V43.735H23.3ZM12.148,5.645V3.787h.929A3.716,3.716,0,0,1,16.793,7.5V40.019H14.935V8.432A2.787,2.787,0,0,0,12.148,5.645Zm.929,36.232h5.574v1.858H13.077Zm2.787,7.432v3.557a2.793,2.793,0,0,1-1.858-2.628v-.929Zm3.716,4.645a2.787,2.787,0,0,1-5.574,0v-.021a4.6,4.6,0,0,0,2.787.95.929.929,0,0,0,.929-.929V51.338A2.787,2.787,0,0,1,19.581,53.954Zm29.729-4.645v3.557a2.793,2.793,0,0,1-1.858-2.628v-.929Zm3.716,4.645a2.787,2.787,0,0,1-5.574,0v-.021a4.6,4.6,0,0,0,2.787.95.929.929,0,0,0,.929-.929V51.338a2.787,2.787,0,0,1,1.858,2.616Zm3.716-6.5H10.29V45.593H56.742Z" transform="translate(828.251 8355.2)" fill="#fff"/></g></svg>