<svg xmlns="http://www.w3.org/2000/svg" xmlns:xlink="http://www.w3.org/1999/xlink" width="104.565" height="113.481" viewBox="0 0 104.565 113.481"><defs><linearGradient id="a" x1="0.082" y1="0.952" x2="0.904" y2="0.195" gradientUnits="objectBoundingBox"><stop offset="0"/><stop offset="1"/></linearGradient></defs><path d="M47.174,19.121a1.78,1.78,0,0,1,1.78-1.78H86.473a1.78,1.78,0,1,1,0,3.56H48.954A1.78,1.78,0,0,1,47.174,19.121Zm-4.238,9.944H86.473a1.78,1.78,0,1,0,0-3.56H42.936a1.78,1.78,0,1,0,0,3.56Zm0,8.164H86.473a1.78,1.78,0,1,0,0-3.56H42.936a1.78,1.78,0,1,0,0,3.56Zm6.018-24.491H86.473a1.78,1.78,0,1,0,0-3.56H48.954a1.78,1.78,0,0,0,0,3.56ZM31.082,37.228h3.831a1.78,1.78,0,0,0,0-3.56H31.082a1.78,1.78,0,1,0,0,3.56Zm0-8.164h3.831a1.78,1.78,0,0,0,0-3.56H31.082a1.78,1.78,0,1,0,0,3.56Zm26.2,33.1v30.07a2.845,2.845,0,0,1-2.842,2.842H47.8a2.845,2.845,0,0,1-2.842-2.842V62.165A2.845,2.845,0,0,1,47.8,59.323h6.642A2.846,2.846,0,0,1,57.286,62.165Zm-3.56.718H48.519V91.518h5.207ZM41.976,79.089V92.236a2.845,2.845,0,0,1-2.842,2.842H32.492a2.845,2.845,0,0,1-2.842-2.842V79.089a2.845,2.845,0,0,1,2.842-2.842h6.642A2.845,2.845,0,0,1,41.976,79.089Zm-3.56.718H33.209V91.518h5.207ZM37.65,62.2l8.814-11.46a5.618,5.618,0,1,1,10.075-1.65L63,53.417a5.6,5.6,0,0,1,6.139-.478l8.708-8.04-1.985-.093a1.78,1.78,0,1,1,.168-3.556l6.454.3a1.78,1.78,0,0,1,1.668,2.1L83,50.006a1.78,1.78,0,1,1-3.5-.636l.25-1.376-8.19,7.561a5.618,5.618,0,1,1-10.538.818l-6.46-4.329a5.6,5.6,0,0,1-5.27.865L40.47,64.369A5.619,5.619,0,1,1,37.65,62.2Zm.221,5.308a2.058,2.058,0,1,0-2.058,2.058A2.06,2.06,0,0,0,37.871,67.506Zm26.5-9.645A2.058,2.058,0,1,0,66.432,55.8,2.06,2.06,0,0,0,64.374,57.861ZM49.064,47.6a2.058,2.058,0,1,0,2.058-2.058A2.06,2.06,0,0,0,49.064,47.6Zm53.54,54.025a1.78,1.78,0,0,1,0,2.517l-3.313,3.313a4.993,4.993,0,1,1-2.517-2.518l3.313-3.313A1.78,1.78,0,0,1,102.6,101.626Zm-6.438,7.867a1.429,1.429,0,1,0-1.429,1.429A1.43,1.43,0,0,0,96.167,109.492Zm29.434,0a1.78,1.78,0,0,1-1.78,1.78H109.388a1.78,1.78,0,0,1-1.78-1.78,12.869,12.869,0,1,0-25.738,0,1.78,1.78,0,0,1-1.78,1.78H65.656a1.78,1.78,0,0,1-1.78-1.78,30.9,30.9,0,0,1,.557-5.844H26.352a5.322,5.322,0,0,1-5.316-5.316V22.577a5.212,5.212,0,0,1,1.557-3.759L38.854,2.557A5.211,5.211,0,0,1,42.613,1H91.2a5.322,5.322,0,0,1,5.316,5.316V78.683A30.9,30.9,0,0,1,125.6,109.492ZM27.114,19.333H37.956a1.414,1.414,0,0,0,1.412-1.412V7.078Zm38.229,80.755a30.678,30.678,0,0,1,2.113-5.01H63.111a2.845,2.845,0,0,1-2.842-2.842V69.443A2.845,2.845,0,0,1,63.111,66.6h6.642A2.845,2.845,0,0,1,72.6,69.443V88.017a31.145,31.145,0,0,1,2.983-2.7V55.308a2.845,2.845,0,0,1,2.842-2.842h6.642a2.845,2.845,0,0,1,2.842,2.842V79.393a30.781,30.781,0,0,1,5.053-.711V6.316A1.758,1.758,0,0,0,91.2,4.56H42.929V17.92a4.978,4.978,0,0,1-4.972,4.972H24.6v75.44a1.758,1.758,0,0,0,1.756,1.756Zm19-44.062H79.138V82.872a30.744,30.744,0,0,1,5.207-2.44ZM69.035,70.161H63.829V91.518h5.207Zm12.9,29.049L74.224,91.5a27.191,27.191,0,0,0-6.731,16.216H78.4A16.352,16.352,0,0,1,81.938,99.21Zm11.02-6.048V82.249a27.19,27.19,0,0,0-16.216,6.73l7.713,7.713a16.35,16.35,0,0,1,8.5-3.53Zm12.063,3.53,7.713-7.713a27.187,27.187,0,0,0-16.216-6.73V93.162a16.349,16.349,0,0,1,8.5,3.53Zm16.962,11.02A27.191,27.191,0,0,0,115.252,91.5l-7.714,7.714a16.351,16.351,0,0,1,3.534,8.5h10.911Z" transform="translate(-21.036 -1)" fill="url(#a)"/></svg>