<svg xmlns="http://www.w3.org/2000/svg" width="84.358" height="84.744" viewBox="0 0 84.358 84.744">
  <path id="Trazado_879458" data-name="Trazado 879458" d="M132.029,133.928l-6.066,3.962a43.59,43.59,0,0,0,7.295,8.425,45.4,45.4,0,0,0,4.4,3.471c.771.514,1.58.986,2.379,1.466l1.2.721,1.258.615,3.228-6.452a35.048,35.048,0,0,0,12.41,3.551l-.69,7.2a40.912,40.912,0,0,0,5.585.146,43.065,43.065,0,0,0,5.565-.551,42.526,42.526,0,0,0,10.653-3.342L176.21,146.6a35.1,35.1,0,0,0,4.455-2.473,33.834,33.834,0,0,0,6.053-5.02l5.206,5.028,1.886-2.056c.626-.7,1.15-1.477,1.716-2.217a41.141,41.141,0,0,0,3.036-4.7,42.654,42.654,0,0,0,4.027-10.4l-7.013-1.715a35.272,35.272,0,0,0,.729-12.876l7.14-.933a42.063,42.063,0,0,0-8.473-20.412l-5.717,4.4a35.144,35.144,0,0,0-9.633-8.594l3.717-6.174a42.834,42.834,0,0,0-21.227-6.122l-.124,7.249a34.385,34.385,0,0,0-12.716,2.186l-2.511-6.787a43.164,43.164,0,0,0-18.045,12.787l5.606,4.6a35.112,35.112,0,0,0-6.232,11.319l-6.87-2.261a42.563,42.563,0,0,0-2.052,10.946,46.021,46.021,0,0,0,.03,5.583c.078.934.215,1.862.333,2.786l.189,1.377c.079.466.2.921.3,1.371l7.063-1.5a34.727,34.727,0,0,0,4.949,11.928M151.643,99.74a17.667,17.667,0,1,1-5.13,24.452,17.653,17.653,0,0,1,5.13-24.452" transform="translate(-119.084 -72.335)" fill="#e69999"/>
</svg>
