<svg xmlns="http://www.w3.org/2000/svg" width="93" height="94" viewBox="0 0 93 94"><g transform="translate(-1017.458 -8058.337)"><ellipse cx="46.5" cy="47" rx="46.5" ry="47" transform="translate(1017.458 8058.337)" fill="#e69999"/><g transform="translate(1033.658 8078.134)"><path d="M51.186,2H29.592a3.61,3.61,0,0,0-3.6,3.6v9.6H8a6,6,0,0,0-6,6V42.788a6,6,0,0,0,6,6H22.046L31.356,54.6a1.205,1.205,0,0,0,1.835-1.02v-4.8h13.2a6,6,0,0,0,6-6V22.178a3.588,3.588,0,0,0,2.4-3.383V5.6A3.61,3.61,0,0,0,51.186,2Zm-4.8,44.387h-14.4a1.2,1.2,0,0,0-1.2,1.2v3.839L23.03,46.579a1.1,1.1,0,0,0-.636-.192H8a3.61,3.61,0,0,1-3.6-3.6V21.194A3.61,3.61,0,0,1,8,17.6H25.993v1.2a3.61,3.61,0,0,0,3.6,3.6h7.2v3.6a1.2,1.2,0,0,0,1.2,1.2,1.153,1.153,0,0,0,.744-.264l5.674-4.535h5.578V42.788A3.61,3.61,0,0,1,46.387,46.387Zm6-27.592a1.2,1.2,0,0,1-1.2,1.2h-7.2a1.173,1.173,0,0,0-.744.264L39.189,23.5v-2.3a1.2,1.2,0,0,0-1.2-1.2h-8.4a1.2,1.2,0,0,1-1.2-1.2V5.6a1.2,1.2,0,0,1,1.2-1.2H51.186a1.2,1.2,0,0,1,1.2,1.2Z" transform="translate(0 0)"/><path d="M34.6,5A3.61,3.61,0,0,0,31,8.6a1.2,1.2,0,1,0,2.4,0,1.2,1.2,0,0,1,2.4,0,1.352,1.352,0,0,1-.348,1.056l-1.692,1.692c-.528.42-.324,1.476-.36,2.051a1.2,1.2,0,0,0,2.4,0V12.69l1.344-1.344C39.41,9.187,37.814,4.9,34.6,5Z" transform="translate(5.79 0.599)"/><path d="M34.217,14a1.2,1.2,0,0,0,0,2.4A1.2,1.2,0,0,0,34.217,14Z" transform="translate(6.196 2.396)"/><path d="M23.593,24a3.6,3.6,0,0,0,0,7.2A3.6,3.6,0,0,0,23.593,24Zm0,4.8a1.2,1.2,0,0,1,0-2.4A1.2,1.2,0,0,1,23.593,28.8Z" transform="translate(3.6 4.392)"/><path d="M13.593,24a3.6,3.6,0,0,0,0,7.2A3.6,3.6,0,0,0,13.593,24Zm0,4.8a1.2,1.2,0,0,1,0-2.4A1.2,1.2,0,0,1,13.593,28.8Z" transform="translate(1.603 4.392)"/><path d="M33.593,24a3.6,3.6,0,0,0,0,7.2A3.6,3.6,0,0,0,33.593,24Zm0,4.8a1.2,1.2,0,0,1,0-2.4A1.2,1.2,0,0,1,33.593,28.8Z" transform="translate(5.596 4.392)"/></g></g></svg>