<svg xmlns="http://www.w3.org/2000/svg" width="100.185" height="111.086" viewBox="0 0 100.185 111.086"><path d="M87.715,18.748h20.322a7.864,7.864,0,0,1,7.844,7.844v87.653a7.864,7.864,0,0,1-7.844,7.844H42.9a7.864,7.864,0,0,1-7.844-7.844V26.593A7.864,7.864,0,0,1,42.9,18.749H63.219a3.236,3.236,0,0,1,3.12-2.4h2.466a6.824,6.824,0,0,1,13.322,0h2.466a3.236,3.236,0,0,1,3.12,2.4Zm34.268,7.988h10.3v-2.97h-.006a.81.81,0,0,0-.8-.8h-8.688a.81.81,0,0,0-.8.8v2.97Zm13.245,1.348V97.765a1.843,1.843,0,0,1-.148.924l0,0-6.626,13.565a1.479,1.479,0,0,1-2.658,0l-6.624-13.563a1.471,1.471,0,0,1-.149-.647h0V23.764a3.767,3.767,0,0,1,3.76-3.76h8.688a3.768,3.768,0,0,1,3.76,3.76h-.006v4.319Zm-2.945,1.61h-3.693l-.043,61.042a4.2,4.2,0,0,1,.643.527l3.093,3.047V29.692Zm-6.638,0h-3.662v64.5l2.972-2.928a4.177,4.177,0,0,1,.647-.529l.043-61.042ZM132.035,98.2l-4.911-4.839c-.1-.095.015-.142-.05-.142s.045.047-.05.142l-4.833,4.761,4.942,10.117,4.9-10.04ZM68.027,95.911H99.853a1.478,1.478,0,1,0,0-2.957H68.027a1.478,1.478,0,1,0,0,2.957Zm0,5.974H99.853a1.478,1.478,0,1,0,0-2.957H68.027a1.478,1.478,0,1,0,0,2.957Zm0-55.906H85.7a1.478,1.478,0,1,0,0-2.957H68.027a1.478,1.478,0,1,0,0,2.957Zm25.86,0h5.966a1.478,1.478,0,0,0,0-2.957H93.887a1.478,1.478,0,1,0,0,2.957Zm-25.86-5.973H99.853a1.478,1.478,0,1,0,0-2.957H68.027a1.478,1.478,0,1,0,0,2.957Zm0,23.5H99.853a1.478,1.478,0,1,0,0-2.957H68.027a1.478,1.478,0,1,0,0,2.957Zm0-5.974H99.853a1.478,1.478,0,1,0,0-2.957H68.027a1.478,1.478,0,1,0,0,2.957Zm0,19.191H74.04a1.478,1.478,0,0,0,0-2.957H68.027a1.478,1.478,0,1,0,0,2.957Zm14.445,0H99.853a1.478,1.478,0,0,0,0-2.957H82.472a1.478,1.478,0,1,0,0,2.957ZM68.027,82.7H99.853a1.478,1.478,0,1,0,0-2.957H68.027a1.478,1.478,0,1,0,0,2.957Zm-9.7-1.02a3.736,3.736,0,1,1-.552-7.071,1.475,1.475,0,0,0,.7-2.864,6.685,6.685,0,1,0,.991,12.65,1.474,1.474,0,0,0-1.144-2.714Zm-3.882-3.342,2.473,2.471a1.478,1.478,0,0,0,2.09,0l4.342-4.342a1.478,1.478,0,1,0-2.09-2.09l-3.3,3.3-1.428-1.428a1.479,1.479,0,0,0-2.09,2.093Zm2.65,12.4A6.688,6.688,0,1,0,63.78,97.42,6.688,6.688,0,0,0,57.092,90.732Zm2.639,4.049a3.732,3.732,0,1,0,0,5.277A3.736,3.736,0,0,0,59.731,94.782Zm-2.639-42.43A6.688,6.688,0,1,0,63.78,59.04,6.688,6.688,0,0,0,57.092,52.352ZM59.731,56.4a3.732,3.732,0,1,0,0,5.277A3.736,3.736,0,0,0,59.731,56.4ZM58.458,44.959a3.736,3.736,0,1,1-.552-7.071,1.475,1.475,0,1,0,.7-2.864,6.685,6.685,0,1,0,.991,12.65,1.474,1.474,0,1,0-1.143-2.714Zm-3.881-3.343,2.473,2.473a1.479,1.479,0,0,0,2.091,0l4.342-4.342a1.478,1.478,0,1,0-2.091-2.091l-3.3,3.3-1.428-1.428a1.478,1.478,0,0,0-2.09,2.09ZM63.112,21.7H42.9a4.906,4.906,0,0,0-4.888,4.888v87.652a4.906,4.906,0,0,0,4.888,4.888h65.141a4.906,4.906,0,0,0,4.888-4.888V26.593a4.907,4.907,0,0,0-4.888-4.888H87.823v4.515h16.454a4.116,4.116,0,0,1,4.107,4.107V110.51a4.116,4.116,0,0,1-4.107,4.107H46.658a4.116,4.116,0,0,1-4.107-4.107V30.327a4.115,4.115,0,0,1,4.107-4.107H63.112V21.7Zm24.563,7.471a3.236,3.236,0,0,1-3.079,2.26H66.34a3.236,3.236,0,0,1-3.079-2.26h-16.6a1.158,1.158,0,0,0-1.151,1.151V110.51a1.158,1.158,0,0,0,1.151,1.15h57.62a1.158,1.158,0,0,0,1.151-1.151V30.327a1.158,1.158,0,0,0-1.151-1.151ZM84.6,19.3H80.812a1.479,1.479,0,0,1-1.479-1.478,3.866,3.866,0,1,0-7.731,0A1.478,1.478,0,0,1,70.123,19.3H66.34c-.372,0-.272.521-.272.923v7.982a.276.276,0,0,0,.272.272H84.6c.357,0,.272-.473.272-.782V19.575A.276.276,0,0,0,84.6,19.3Z" transform="translate(-35.053 -11.002)" fill="#fff" fill-rule="evenodd"/></svg>