<svg xmlns="http://www.w3.org/2000/svg" width="93" height="94" viewBox="0 0 93 94">
  <g id="Grupo_1110204" data-name="Grupo 1110204" transform="translate(-751.712 -9908.095)">
    <ellipse id="Elipse_11696" data-name="Elipse 11696" cx="46.5" cy="47" rx="46.5" ry="47" transform="translate(751.712 9908.095)" fill="#e69999"/>
    <g id="Layer_19" transform="translate(768.899 9929.261)">
      <g id="Grupo_1109295" data-name="Grupo 1109295" transform="translate(0 0)">
        <g id="Grupo_1109207" data-name="Grupo 1109207" transform="translate(22.151 0.607)">
          <g id="Grupo_1109206" data-name="Grupo 1109206">
            <path id="Trazado_881229" data-name="Trazado 881229" d="M121.934,15H92.956a1.792,1.792,0,0,0-1.792,1.792V18.8h27.119a1.792,1.792,0,0,1,1.792,1.792V62.3h1.859a1.792,1.792,0,0,0,1.792-1.792V16.788A1.792,1.792,0,0,0,121.935,15Z" transform="translate(-91.165 -14.996)" fill="#edf4fc"/>
          </g>
        </g>
        <g id="Grupo_1109209" data-name="Grupo 1109209" transform="translate(18.5 4.413)">
          <g id="Grupo_1109208" data-name="Grupo 1109208" transform="translate(0 0)">
            <path id="Trazado_881230" data-name="Trazado 881230" d="M106.91,30.66H77.931a1.792,1.792,0,0,0-1.792,1.792v2.014h27.119a1.792,1.792,0,0,1,1.792,1.792v41.7h1.859a1.792,1.792,0,0,0,1.792-1.792V32.451a1.792,1.792,0,0,0-1.792-1.792Z" transform="translate(-76.14 -30.66)" fill="#edf4fc"/>
          </g>
        </g>
        <g id="Grupo_1109211" data-name="Grupo 1109211" transform="translate(14.85 8.219)">
          <g id="Grupo_1109210" data-name="Grupo 1109210">
            <path id="Trazado_881231" data-name="Trazado 881231" d="M91.885,46.324H62.907a1.792,1.792,0,0,0-1.792,1.792v7.092h.558a1.684,1.684,0,0,1,1.678,1.549l.09,1.115a.98.98,0,0,0,.691.861,10.941,10.941,0,0,1,2,.826.981.981,0,0,0,1.1-.12l.851-.724a1.684,1.684,0,0,1,2.282.092L71.4,59.848a1.684,1.684,0,0,1,.092,2.282l-.724.851a.981.981,0,0,0-.12,1.1,10.944,10.944,0,0,1,.826,2,.98.98,0,0,0,.861.691l1.115.09A1.684,1.684,0,0,1,75,68.534v1.474a1.684,1.684,0,0,1-1.549,1.678l-1.114.09a.98.98,0,0,0-.861.691,10.942,10.942,0,0,1-.826,2,.981.981,0,0,0,.12,1.1l.724.851a1.684,1.684,0,0,1-.092,2.282l-1.042,1.042a1.684,1.684,0,0,1-2.282.092l-.851-.724a.981.981,0,0,0-1.1-.12,10.941,10.941,0,0,1-2,.826.98.98,0,0,0-.691.861l-.09,1.114a1.684,1.684,0,0,1-1.678,1.549h-.558v8.5a1.792,1.792,0,0,0,1.792,1.792H91.885a1.792,1.792,0,0,0,1.792-1.792V48.115a1.792,1.792,0,0,0-1.792-1.792Z" transform="translate(-61.116 -46.324)" fill="#edf4fc"/>
          </g>
        </g>
        <g id="Grupo_1109213" data-name="Grupo 1109213" transform="translate(14.85 8.219)">
          <g id="Grupo_1109212" data-name="Grupo 1109212">
            <path id="Trazado_881232" data-name="Trazado 881232" d="M91.885,46.324H62.907a1.792,1.792,0,0,0-1.792,1.792v4.446H93.677V48.116a1.792,1.792,0,0,0-1.792-1.792Z" transform="translate(-61.116 -46.324)" fill="#ffc299"/>
          </g>
        </g>
        <g id="Grupo_1109215" data-name="Grupo 1109215" transform="translate(22.151 0.608)">
          <g id="Grupo_1109214" data-name="Grupo 1109214">
            <path id="Trazado_881233" data-name="Trazado 881233" d="M121.934,15H92.956a1.791,1.791,0,0,0-1.792,1.792V18.8h27.119a1.792,1.792,0,0,1,1.792,1.792v.64h3.651V16.788A1.791,1.791,0,0,0,121.935,15Z" transform="translate(-91.165 -14.997)" fill="#fc8c48"/>
          </g>
        </g>
        <g id="Grupo_1109217" data-name="Grupo 1109217" transform="translate(18.5 4.413)">
          <g id="Grupo_1109216" data-name="Grupo 1109216">
            <path id="Trazado_881234" data-name="Trazado 881234" d="M106.909,30.66H77.931a1.792,1.792,0,0,0-1.792,1.792v2.014h27.119a1.792,1.792,0,0,1,1.792,1.792v.64H108.7V32.452A1.792,1.792,0,0,0,106.909,30.66Z" transform="translate(-76.14 -30.66)" fill="#fca265"/>
          </g>
        </g>
        <g id="Grupo_1109219" data-name="Grupo 1109219" transform="translate(0.607 17.103)">
          <g id="Grupo_1109218" data-name="Grupo 1109218">
            <path id="Trazado_881235" data-name="Trazado 881235" d="M29.077,94.535l-1.115-.09a.981.981,0,0,1-.861-.691,10.943,10.943,0,0,0-.826-2,.981.981,0,0,1,.12-1.1l.724-.851a1.684,1.684,0,0,0-.092-2.282l-1.042-1.042a1.684,1.684,0,0,0-2.282-.092l-.851.724a.981.981,0,0,1-1.1.12,10.94,10.94,0,0,0-2-.826.98.98,0,0,1-.691-.861l-.09-1.115A1.684,1.684,0,0,0,17.3,82.887H15.826a1.684,1.684,0,0,0-1.678,1.549l-.09,1.115a.98.98,0,0,1-.691.861,10.939,10.939,0,0,0-2,.826.981.981,0,0,1-1.1-.12l-.851-.724a1.684,1.684,0,0,0-2.282.092L6.1,87.527a1.684,1.684,0,0,0-.092,2.282l.724.851a.981.981,0,0,1,.12,1.1,10.944,10.944,0,0,0-.826,2,.98.98,0,0,1-.861.691l-1.115.09A1.684,1.684,0,0,0,2.5,96.213v1.474a1.684,1.684,0,0,0,1.549,1.678l1.114.09a.98.98,0,0,1,.861.691,10.942,10.942,0,0,0,.826,2,.981.981,0,0,1-.12,1.1l-.724.851a1.684,1.684,0,0,0,.092,2.282l1.043,1.043a1.684,1.684,0,0,0,2.282.092l.851-.724a.981.981,0,0,1,1.1-.12,10.943,10.943,0,0,0,2,.826.981.981,0,0,1,.691.861l.09,1.114a1.684,1.684,0,0,0,1.678,1.549H17.3a1.684,1.684,0,0,0,1.678-1.549l.09-1.114a.98.98,0,0,1,.691-.861,10.942,10.942,0,0,0,2-.826.981.981,0,0,1,1.1.12l.851.724a1.684,1.684,0,0,0,2.282-.092l1.042-1.042a1.684,1.684,0,0,0,.092-2.282l-.724-.851a.981.981,0,0,1-.12-1.1,10.942,10.942,0,0,0,.826-2,.98.98,0,0,1,.861-.691l1.114-.09a1.684,1.684,0,0,0,1.549-1.678V96.213A1.684,1.684,0,0,0,29.077,94.535Z" transform="translate(-2.5 -82.887)" fill="#f5c84c"/>
          </g>
        </g>
        <g id="Grupo_1109221" data-name="Grupo 1109221" transform="translate(4.188 48.48)">
          <g id="Grupo_1109220" data-name="Grupo 1109220">
            <path id="Trazado_881236" data-name="Trazado 881236" d="M20.342,213.525a1.894,1.894,0,0,1-1.506-1.482c0-.024-.073-.024-.073,0a1.894,1.894,0,0,1-1.506,1.482c-.024,0-.024.049,0,.073a1.894,1.894,0,0,1,1.506,1.482c0,.024.073.024.073,0a1.894,1.894,0,0,1,1.506-1.482C20.366,213.574,20.366,213.525,20.342,213.525Z" transform="translate(-17.238 -212.025)" fill="#fc657e"/>
          </g>
        </g>
        <g id="Grupo_1109223" data-name="Grupo 1109223" transform="translate(0 12.174)">
          <g id="Grupo_1109222" data-name="Grupo 1109222">
            <path id="Trazado_881237" data-name="Trazado 881237" d="M3.476,63.936H2.893v-.559a.768.768,0,0,0-.778-.778.778.778,0,0,0-.778.753v.583H.779A.768.768,0,0,0,0,64.714a.753.753,0,0,0,.778.778h.559v.559a.768.768,0,0,0,.778.778.778.778,0,0,0,.778-.753v-.583h.559a.768.768,0,0,0,.778-.778A.778.778,0,0,0,3.476,63.936Z" transform="translate(0 -62.6)" fill="#70d6f9"/>
          </g>
        </g>
        <g id="Grupo_1109225" data-name="Grupo 1109225" transform="translate(56.859 51.269)">
          <g id="Grupo_1109224" data-name="Grupo 1109224">
            <ellipse id="Elipse_11702" data-name="Elipse 11702" cx="0.826" cy="0.826" rx="0.826" ry="0.826" fill="#87d147"/>
          </g>
        </g>
        <g id="Grupo_1109227" data-name="Grupo 1109227" transform="translate(9.722 2.309)">
          <g id="Grupo_1109226" data-name="Grupo 1109226">
            <ellipse id="Elipse_11703" data-name="Elipse 11703" cx="0.826" cy="0.826" rx="0.826" ry="0.826" fill="#f5c84c"/>
          </g>
        </g>
        <g id="Grupo_1109229" data-name="Grupo 1109229" transform="translate(57.706 24.019)">
          <g id="Grupo_1109228" data-name="Grupo 1109228">
            <path id="Trazado_881238" data-name="Trazado 881238" d="M241.959,113.5a2.7,2.7,0,0,1-2.162-2.114c0-.049-.1-.049-.1,0a2.7,2.7,0,0,1-2.162,2.114c-.049,0-.049.073,0,.1a2.7,2.7,0,0,1,2.162,2.114c0,.049.1.049.1,0a2.7,2.7,0,0,1,2.162-2.114C242.007,113.573,242.007,113.5,241.959,113.5Z" transform="translate(-237.5 -111.35)" fill="#f5c84c"/>
          </g>
        </g>
        <g id="Grupo_1109232" data-name="Grupo 1109232" transform="translate(21.543)">
          <g id="Grupo_1109231" data-name="Grupo 1109231">
            <g id="Grupo_1109230" data-name="Grupo 1109230">
              <path id="Trazado_881239" data-name="Trazado 881239" d="M120.041,12.5H91.063a2.4,2.4,0,0,0-2.4,2.4V16.91a.607.607,0,0,0,.607.607h27.119a1.185,1.185,0,0,1,1.184,1.184v41.7a.607.607,0,0,0,.607.607h1.859a2.4,2.4,0,0,0,2.4-2.4V14.895a2.4,2.4,0,0,0-2.4-2.4Zm1.184,46.118a1.185,1.185,0,0,1-1.184,1.184H118.79V18.7a2.4,2.4,0,0,0-2.4-2.4H89.879V14.9a1.185,1.185,0,0,1,1.184-1.184h28.978a1.185,1.185,0,0,1,1.184,1.184V58.614Z" transform="translate(-88.664 -12.496)"/>
            </g>
          </g>
        </g>
        <g id="Grupo_1109235" data-name="Grupo 1109235" transform="translate(17.892 3.806)">
          <g id="Grupo_1109234" data-name="Grupo 1109234">
            <g id="Grupo_1109233" data-name="Grupo 1109233">
              <path id="Trazado_881240" data-name="Trazado 881240" d="M105.016,28.161H76.038a2.4,2.4,0,0,0-2.4,2.4v2.014a.607.607,0,0,0,.607.607h27.119a1.185,1.185,0,0,1,1.184,1.184v41.7a.607.607,0,0,0,.607.607h1.859a2.4,2.4,0,0,0,2.4-2.4V30.56a2.4,2.4,0,0,0-2.4-2.4ZM106.2,74.279a1.185,1.185,0,0,1-1.184,1.184h-1.252v-41.1a2.4,2.4,0,0,0-2.4-2.4H74.854V30.56a1.185,1.185,0,0,1,1.184-1.184h28.979A1.185,1.185,0,0,1,106.2,30.56V74.278Z" transform="translate(-73.639 -28.161)"/>
            </g>
          </g>
        </g>
        <g id="Grupo_1109237" data-name="Grupo 1109237" transform="translate(37.488 18.836)">
          <g id="Grupo_1109236" data-name="Grupo 1109236">
            <path id="Trazado_881241" data-name="Trazado 881241" d="M159.443,90.2a.607.607,0,0,0-.859,0L156.6,92.181l-1.275-1.275a.607.607,0,0,0-.859.859l1.7,1.7a.607.607,0,0,0,.859,0l2.415-2.415A.607.607,0,0,0,159.443,90.2Z" transform="translate(-154.286 -90.018)"/>
          </g>
        </g>
        <g id="Grupo_1109239" data-name="Grupo 1109239" transform="translate(26.434 18.709)">
          <g id="Grupo_1109238" data-name="Grupo 1109238">
            <path id="Trazado_881242" data-name="Trazado 881242" d="M117.7,89.5h-8.3a.607.607,0,1,0,0,1.215h8.3a.607.607,0,0,0,0-1.215Z" transform="translate(-108.795 -89.497)"/>
          </g>
        </g>
        <g id="Grupo_1109241" data-name="Grupo 1109241" transform="translate(28.257 21.625)">
          <g id="Grupo_1109240" data-name="Grupo 1109240">
            <path id="Trazado_881243" data-name="Trazado 881243" d="M123.377,101.5H116.9a.607.607,0,1,0,0,1.215h6.475a.607.607,0,0,0,0-1.215Z" transform="translate(-116.295 -101.497)"/>
          </g>
        </g>
        <g id="Grupo_1109243" data-name="Grupo 1109243" transform="translate(37.488 25.76)">
          <g id="Grupo_1109242" data-name="Grupo 1109242">
            <path id="Trazado_881244" data-name="Trazado 881244" d="M159.443,118.7a.607.607,0,0,0-.859,0l-1.986,1.985-1.275-1.275a.607.607,0,0,0-.859.859l1.7,1.7a.607.607,0,0,0,.859,0l2.415-2.415A.607.607,0,0,0,159.443,118.7Z" transform="translate(-154.286 -118.518)"/>
          </g>
        </g>
        <g id="Grupo_1109245" data-name="Grupo 1109245" transform="translate(29.026 25.634)">
          <g id="Grupo_1109244" data-name="Grupo 1109244">
            <path id="Trazado_881245" data-name="Trazado 881245" d="M125.775,118h-5.706a.607.607,0,1,0,0,1.215h5.706a.607.607,0,0,0,0-1.215Z" transform="translate(-119.462 -117.997)"/>
          </g>
        </g>
        <g id="Grupo_1109247" data-name="Grupo 1109247" transform="translate(30.241 28.55)">
          <g id="Grupo_1109246" data-name="Grupo 1109246">
            <path id="Trazado_881246" data-name="Trazado 881246" d="M129.56,130h-4.491a.607.607,0,1,0,0,1.215h4.491a.607.607,0,1,0,0-1.215Z" transform="translate(-124.462 -129.997)"/>
          </g>
        </g>
        <g id="Grupo_1109249" data-name="Grupo 1109249" transform="translate(37.731 32.685)">
          <g id="Grupo_1109248" data-name="Grupo 1109248">
            <path id="Trazado_881247" data-name="Trazado 881247" d="M160.443,147.2a.607.607,0,0,0-.859,0l-1.986,1.985-1.275-1.275a.607.607,0,0,0-.859.859l1.7,1.7a.607.607,0,0,0,.859,0l2.415-2.415a.607.607,0,0,0,0-.859Z" transform="translate(-155.286 -147.018)"/>
          </g>
        </g>
        <g id="Grupo_1109251" data-name="Grupo 1109251" transform="translate(30.241 32.559)">
          <g id="Grupo_1109250" data-name="Grupo 1109250">
            <path id="Trazado_881248" data-name="Trazado 881248" d="M129.8,146.5H125.07a.607.607,0,0,0,0,1.215H129.8a.607.607,0,1,0,0-1.215Z" transform="translate(-124.463 -146.497)"/>
          </g>
        </g>
        <g id="Grupo_1109253" data-name="Grupo 1109253" transform="translate(29.026 35.474)">
          <g id="Grupo_1109252" data-name="Grupo 1109252">
            <path id="Trazado_881249" data-name="Trazado 881249" d="M126.019,158.5H120.07a.607.607,0,1,0,0,1.215h5.949a.607.607,0,0,0,0-1.215Z" transform="translate(-119.463 -158.497)"/>
          </g>
        </g>
        <g id="Grupo_1109255" data-name="Grupo 1109255" transform="translate(37.488 39.61)">
          <g id="Grupo_1109254" data-name="Grupo 1109254">
            <path id="Trazado_881250" data-name="Trazado 881250" d="M159.443,175.7a.607.607,0,0,0-.859,0l-1.986,1.985-1.275-1.275a.607.607,0,0,0-.859.859l1.7,1.7a.607.607,0,0,0,.859,0l2.415-2.415A.607.607,0,0,0,159.443,175.7Z" transform="translate(-154.286 -175.518)"/>
          </g>
        </g>
        <g id="Grupo_1109257" data-name="Grupo 1109257" transform="translate(28.014 39.484)">
          <g id="Grupo_1109256" data-name="Grupo 1109256">
            <path id="Trazado_881251" data-name="Trazado 881251" d="M122.62,175H115.9a.607.607,0,0,0,0,1.215h6.718a.607.607,0,0,0,0-1.215Z" transform="translate(-115.295 -174.997)"/>
          </g>
        </g>
        <g id="Grupo_1109259" data-name="Grupo 1109259" transform="translate(26.92 42.399)">
          <g id="Grupo_1109258" data-name="Grupo 1109258">
            <path id="Trazado_881252" data-name="Trazado 881252" d="M119.214,187H111.4a.607.607,0,1,0,0,1.215h7.812a.607.607,0,1,0,0-1.215Z" transform="translate(-110.795 -186.997)"/>
          </g>
        </g>
        <g id="Grupo_1109261" data-name="Grupo 1109261" transform="translate(37.488 46.535)">
          <g id="Grupo_1109260" data-name="Grupo 1109260">
            <path id="Trazado_881253" data-name="Trazado 881253" d="M159.443,204.2a.607.607,0,0,0-.859,0l-1.986,1.985-1.275-1.275a.607.607,0,0,0-.859.859l1.7,1.7a.607.607,0,0,0,.859,0l2.415-2.415A.607.607,0,0,0,159.443,204.2Z" transform="translate(-154.286 -204.018)"/>
          </g>
        </g>
        <g id="Grupo_1109263" data-name="Grupo 1109263" transform="translate(20.081 46.408)">
          <g id="Grupo_1109262" data-name="Grupo 1109262">
            <path id="Trazado_881254" data-name="Trazado 881254" d="M97.9,203.5H83.253a.607.607,0,1,0,0,1.215H97.9a.607.607,0,0,0,0-1.215Z" transform="translate(-82.645 -203.497)"/>
          </g>
        </g>
        <g id="Grupo_1109265" data-name="Grupo 1109265" transform="translate(20.081 49.324)">
          <g id="Grupo_1109264" data-name="Grupo 1109264">
            <path id="Trazado_881255" data-name="Trazado 881255" d="M97.9,215.5H83.253a.607.607,0,0,0,0,1.215H97.9a.607.607,0,0,0,0-1.215Z" transform="translate(-82.645 -215.497)"/>
          </g>
        </g>
        <g id="Grupo_1109268" data-name="Grupo 1109268" transform="translate(14.242 7.612)">
          <g id="Grupo_1109267" data-name="Grupo 1109267">
            <g id="Grupo_1109266" data-name="Grupo 1109266">
              <path id="Trazado_881256" data-name="Trazado 881256" d="M89.992,43.824H61.014a2.4,2.4,0,0,0-2.4,2.4v7.092a.607.607,0,0,0,.607.607h.558a1.082,1.082,0,0,1,1.073.99l.09,1.115a1.579,1.579,0,0,0,1.121,1.394,10.356,10.356,0,0,1,1.885.78,1.579,1.579,0,0,0,1.778-.193l.851-.724a1.082,1.082,0,0,1,1.459.059l1.042,1.042a1.082,1.082,0,0,1,.058,1.459l-.724.851a1.579,1.579,0,0,0-.193,1.778A10.363,10.363,0,0,1,69,64.358a1.578,1.578,0,0,0,1.394,1.121l1.115.09a1.082,1.082,0,0,1,.99,1.073v1.474a1.082,1.082,0,0,1-.99,1.073l-1.115.09A1.578,1.578,0,0,0,69,70.4a10.384,10.384,0,0,1-.78,1.885,1.579,1.579,0,0,0,.193,1.778l.724.851a1.082,1.082,0,0,1-.058,1.459l-1.042,1.042a1.082,1.082,0,0,1-1.459.059l-.851-.724a1.579,1.579,0,0,0-1.778-.193,10.355,10.355,0,0,1-1.885.78,1.579,1.579,0,0,0-1.121,1.394l-.09,1.115a1.082,1.082,0,0,1-1.073.99h-.558a.607.607,0,0,0-.607.607v8.5a2.4,2.4,0,0,0,2.4,2.4H89.992a2.4,2.4,0,0,0,2.4-2.4V46.223a2.4,2.4,0,0,0-2.4-2.4Zm1.184,46.118a1.185,1.185,0,0,1-1.184,1.184H61.014a1.185,1.185,0,0,1-1.184-1.184V82.048a2.3,2.3,0,0,0,2.234-2.107l.09-1.114a.371.371,0,0,1,.262-.329,11.574,11.574,0,0,0,2.106-.872.371.371,0,0,1,.418.047l.851.724a2.3,2.3,0,0,0,3.105-.125l1.042-1.042a2.3,2.3,0,0,0,.125-3.1l-.724-.851a.371.371,0,0,1-.047-.418,11.593,11.593,0,0,0,.872-2.106.375.375,0,0,1,.328-.261l1.115-.09a2.3,2.3,0,0,0,2.107-2.284V66.641a2.3,2.3,0,0,0-2.107-2.284l-1.115-.09a.375.375,0,0,1-.329-.262,11.594,11.594,0,0,0-.872-2.106.371.371,0,0,1,.047-.418l.724-.851a2.3,2.3,0,0,0-.125-3.105L68.9,56.484a2.3,2.3,0,0,0-3.1-.125l-.851.724a.371.371,0,0,1-.418.047,11.579,11.579,0,0,0-2.106-.872.371.371,0,0,1-.262-.329l-.09-1.115a2.3,2.3,0,0,0-2.234-2.107V46.223a1.185,1.185,0,0,1,1.184-1.184H89.992a1.185,1.185,0,0,1,1.184,1.184V89.942Z" transform="translate(-58.615 -43.824)"/>
            </g>
          </g>
        </g>
        <g id="Grupo_1109270" data-name="Grupo 1109270" transform="translate(4.645 21.128)">
          <g id="Grupo_1109269" data-name="Grupo 1109269" transform="translate(0 0)">
            <circle id="Elipse_11704" data-name="Elipse 11704" cx="7.09" cy="7.09" r="7.09" transform="translate(0 10.039) rotate(-45.081)" fill="#70d6f9"/>
          </g>
        </g>
        <g id="Grupo_1109279" data-name="Grupo 1109279" transform="translate(10.062 25.705)">
          <g id="Grupo_1109272" data-name="Grupo 1109272" transform="translate(4.763 2.09)">
            <g id="Grupo_1109271" data-name="Grupo 1109271">
              <path id="Trazado_881257" data-name="Trazado 881257" d="M64.113,127.069a.607.607,0,1,0-.859.859,3.392,3.392,0,0,1-1.75,5.729.608.608,0,0,0,.115,1.2.614.614,0,0,0,.116-.011,4.606,4.606,0,0,0,2.379-7.78Z" transform="translate(-61.011 -126.891)"/>
            </g>
          </g>
          <g id="Grupo_1109274" data-name="Grupo 1109274" transform="translate(3.966 7.616)">
            <g id="Grupo_1109273" data-name="Grupo 1109273">
              <path id="Trazado_881258" data-name="Trazado 881258" d="M59.974,151.979l-.782-.589.589-.782a.608.608,0,0,0-.97-.731l-.954,1.267a.607.607,0,0,0,.12.851l1.267.954a.607.607,0,1,0,.731-.97Z" transform="translate(-57.734 -149.635)"/>
            </g>
          </g>
          <g id="Grupo_1109276" data-name="Grupo 1109276" transform="translate(0 0.993)">
            <g id="Grupo_1109275" data-name="Grupo 1109275">
              <path id="Trazado_881259" data-name="Trazado 881259" d="M45.848,122.87a.609.609,0,0,0-.712-.481,4.606,4.606,0,0,0-2.379,7.78.607.607,0,1,0,.859-.859,3.392,3.392,0,0,1,1.75-5.729A.607.607,0,0,0,45.848,122.87Z" transform="translate(-41.41 -122.377)"/>
            </g>
          </g>
          <g id="Grupo_1109278" data-name="Grupo 1109278" transform="translate(2.763)">
            <g id="Grupo_1109277" data-name="Grupo 1109277">
              <path id="Trazado_881260" data-name="Trazado 881260" d="M55.023,119.367l-1.267-.954a.607.607,0,1,0-.731.97l.782.589-.589.782a.608.608,0,0,0,.97.731l.954-1.267A.607.607,0,0,0,55.023,119.367Z" transform="translate(-52.783 -118.29)"/>
            </g>
          </g>
        </g>
        <g id="Grupo_1109282" data-name="Grupo 1109282" transform="translate(6.973 23.469)">
          <g id="Grupo_1109281" data-name="Grupo 1109281">
            <g id="Grupo_1109280" data-name="Grupo 1109280">
              <path id="Trazado_881261" data-name="Trazado 881261" d="M41.834,111.336a7.646,7.646,0,0,0-5.436-2.249h-.009a7.7,7.7,0,1,0,5.445,2.249Zm-.848,10.027h0a6.482,6.482,0,1,1-4.6-11.061H36.4a6.482,6.482,0,0,1,4.588,11.061Z" transform="translate(-28.7 -109.088)"/>
            </g>
          </g>
        </g>
        <g id="Grupo_1109285" data-name="Grupo 1109285" transform="translate(14.242 7.612)">
          <g id="Grupo_1109284" data-name="Grupo 1109284">
            <g id="Grupo_1109283" data-name="Grupo 1109283">
              <path id="Trazado_881262" data-name="Trazado 881262" d="M89.992,43.824H61.014a2.4,2.4,0,0,0-2.4,2.4v4.446a.607.607,0,0,0,.607.607H91.784a.607.607,0,0,0,.607-.607V46.223a2.4,2.4,0,0,0-2.4-2.4Zm1.184,6.238H59.83V46.223a1.185,1.185,0,0,1,1.184-1.184H89.992a1.185,1.185,0,0,1,1.184,1.184Z" transform="translate(-58.615 -43.824)"/>
            </g>
          </g>
        </g>
        <g id="Grupo_1109288" data-name="Grupo 1109288" transform="translate(21.543 0)">
          <g id="Grupo_1109287" data-name="Grupo 1109287">
            <g id="Grupo_1109286" data-name="Grupo 1109286">
              <path id="Trazado_881263" data-name="Trazado 881263" d="M120.041,12.5H91.063a2.4,2.4,0,0,0-2.4,2.4V16.91a.607.607,0,0,0,.607.607h27.119a1.185,1.185,0,0,1,1.184,1.184v.64a.607.607,0,0,0,.607.607h3.651a.607.607,0,0,0,.607-.607V14.9a2.4,2.4,0,0,0-2.4-2.4Zm1.184,6.238H118.79V18.7a2.4,2.4,0,0,0-2.4-2.4H89.879V14.9a1.186,1.186,0,0,1,1.184-1.184h28.978a1.185,1.185,0,0,1,1.184,1.184v3.839Z" transform="translate(-88.664 -12.497)"/>
            </g>
          </g>
        </g>
        <g id="Grupo_1109291" data-name="Grupo 1109291" transform="translate(17.892 3.806)">
          <g id="Grupo_1109290" data-name="Grupo 1109290">
            <g id="Grupo_1109289" data-name="Grupo 1109289">
              <path id="Trazado_881264" data-name="Trazado 881264" d="M105.016,28.16H76.038a2.4,2.4,0,0,0-2.4,2.4v2.014a.607.607,0,0,0,.607.607h27.119a1.185,1.185,0,0,1,1.184,1.184v.64a.607.607,0,0,0,.607.607h3.651a.607.607,0,0,0,.607-.607V30.559a2.4,2.4,0,0,0-2.4-2.4ZM106.2,34.4h-2.436v-.033a2.4,2.4,0,0,0-2.4-2.4H74.854V30.559a1.185,1.185,0,0,1,1.184-1.184h28.979a1.185,1.185,0,0,1,1.184,1.184V34.4Z" transform="translate(-73.639 -28.16)"/>
            </g>
          </g>
        </g>
        <g id="Grupo_1109294" data-name="Grupo 1109294" transform="translate(0 16.496)">
          <g id="Grupo_1109293" data-name="Grupo 1109293">
            <g id="Grupo_1109292" data-name="Grupo 1109292">
              <path id="Trazado_881265" data-name="Trazado 881265" d="M27.234,92.037l-1.115-.09a.375.375,0,0,1-.329-.262,11.594,11.594,0,0,0-.872-2.106.371.371,0,0,1,.047-.418l.724-.851a2.3,2.3,0,0,0-.125-3.105l-1.042-1.042a2.3,2.3,0,0,0-3.1-.125l-.851.724a.371.371,0,0,1-.418.047,11.581,11.581,0,0,0-2.106-.872.371.371,0,0,1-.262-.329l-.09-1.115a2.3,2.3,0,0,0-2.284-2.107H13.933a2.3,2.3,0,0,0-2.284,2.107l-.09,1.115a.375.375,0,0,1-.261.328,11.588,11.588,0,0,0-2.107.872.371.371,0,0,1-.418-.047l-.851-.724a2.3,2.3,0,0,0-3.1.125L3.776,85.205a2.3,2.3,0,0,0-.125,3.1l.724.851a.372.372,0,0,1,.047.418,11.563,11.563,0,0,0-.872,2.106.376.376,0,0,1-.329.262l-1.114.09A2.3,2.3,0,0,0,0,94.32v1.474a2.3,2.3,0,0,0,2.108,2.284l1.114.09a.371.371,0,0,1,.329.262,11.556,11.556,0,0,0,.872,2.106.371.371,0,0,1-.047.418l-.724.851a2.3,2.3,0,0,0,.125,3.1l1.043,1.042a2.3,2.3,0,0,0,3.1.125l.851-.724a.372.372,0,0,1,.418-.047,11.586,11.586,0,0,0,2.106.872.375.375,0,0,1,.261.329l.09,1.114a2.3,2.3,0,0,0,2.284,2.107h1.474a2.3,2.3,0,0,0,2.284-2.107l.09-1.114a.371.371,0,0,1,.262-.329,11.573,11.573,0,0,0,2.106-.872.371.371,0,0,1,.418.047l.851.724a2.3,2.3,0,0,0,3.105-.125l1.042-1.042a2.3,2.3,0,0,0,.125-3.1l-.724-.851a.371.371,0,0,1-.047-.418,11.6,11.6,0,0,0,.872-2.107.375.375,0,0,1,.328-.261l1.115-.09a2.3,2.3,0,0,0,2.107-2.284V94.32A2.3,2.3,0,0,0,27.234,92.037Zm.892,3.758a1.082,1.082,0,0,1-.99,1.073l-1.115.09a1.578,1.578,0,0,0-1.394,1.121,10.37,10.37,0,0,1-.78,1.885,1.579,1.579,0,0,0,.193,1.778l.724.851a1.082,1.082,0,0,1-.058,1.459l-1.042,1.042a1.083,1.083,0,0,1-1.459.059l-.851-.724a1.579,1.579,0,0,0-1.778-.193,10.355,10.355,0,0,1-1.885.78,1.579,1.579,0,0,0-1.121,1.394l-.09,1.114a1.082,1.082,0,0,1-1.073.99H13.933a1.082,1.082,0,0,1-1.073-.99l-.09-1.114a1.578,1.578,0,0,0-1.121-1.394,10.375,10.375,0,0,1-1.885-.78,1.579,1.579,0,0,0-1.778.193l-.851.724a1.082,1.082,0,0,1-1.459-.059l-1.042-1.042a1.082,1.082,0,0,1-.059-1.459l.724-.851a1.579,1.579,0,0,0,.193-1.778,10.344,10.344,0,0,1-.78-1.885,1.578,1.578,0,0,0-1.394-1.121l-1.114-.09a1.082,1.082,0,0,1-.99-1.073V94.32a1.082,1.082,0,0,1,.99-1.073l1.114-.09a1.579,1.579,0,0,0,1.394-1.121,10.345,10.345,0,0,1,.78-1.885A1.58,1.58,0,0,0,5.3,88.374l-.724-.851a1.082,1.082,0,0,1,.058-1.458l1.043-1.043a1.082,1.082,0,0,1,1.459-.059l.851.724a1.58,1.58,0,0,0,1.778.193,10.38,10.38,0,0,1,1.885-.78,1.579,1.579,0,0,0,1.121-1.394l.09-1.115a1.082,1.082,0,0,1,1.073-.99h1.474a1.082,1.082,0,0,1,1.073.99l.09,1.115A1.579,1.579,0,0,0,17.691,85.1a10.36,10.36,0,0,1,1.885.78,1.579,1.579,0,0,0,1.778-.193l.851-.724a1.082,1.082,0,0,1,1.459.059l1.042,1.042a1.082,1.082,0,0,1,.058,1.459l-.724.851a1.578,1.578,0,0,0-.193,1.778,10.364,10.364,0,0,1,.78,1.885,1.578,1.578,0,0,0,1.394,1.121l1.115.09a1.082,1.082,0,0,1,.99,1.073v1.474Z" transform="translate(0 -80.387)"/>
            </g>
          </g>
        </g>
      </g>
    </g>
  </g>
</svg>
