<svg xmlns="http://www.w3.org/2000/svg" xmlns:xlink="http://www.w3.org/1999/xlink" width="99" height="98" viewBox="0 0 99 98"><defs><filter id="a" x="0" y="0" width="99" height="98" filterUnits="userSpaceOnUse"><feOffset dy="3" input="SourceAlpha"/><feGaussianBlur stdDeviation="3" result="b"/><feFlood flood-opacity="0.161"/><feComposite operator="in" in2="b"/><feComposite in="SourceGraphic"/></filter><clipPath id="c"><rect width="57.748" height="52.721" fill="none"/></clipPath><clipPath id="e"><rect width="54.605" height="31.347" fill="none"/></clipPath><clipPath id="f"><path d="M62.584,47.212l-1.058.615a1.083,1.083,0,0,1,1.093.107l1.058-.615a1.4,1.4,0,0,0-.689-.211.8.8,0,0,0-.4.1" transform="translate(-61.526 -47.108)" fill="none"/></clipPath><clipPath id="h"><path d="M295.352,180.453a3.378,3.378,0,0,1,1.532,2.654,1.076,1.076,0,0,1-.448.986l1.058-.615a1.076,1.076,0,0,0,.448-.986,3.377,3.377,0,0,0-1.532-2.654Z" transform="translate(-295.352 -179.838)" fill="none"/></clipPath><clipPath id="j"><path d="M22.485,54.861l-9.777,5.682a.921.921,0,0,1,.929.091l9.777-5.682a1.189,1.189,0,0,0-.586-.179.674.674,0,0,0-.343.088" transform="translate(-12.708 -54.773)" fill="none"/></clipPath><clipPath id="l"><path d="M246.455,204.686a.914.914,0,0,1-.381.837l9.777-5.682a.914.914,0,0,0,.381-.837Z" transform="translate(-246.074 -199.004)" fill="none"/></clipPath><clipPath id="n"><path d="M241.11,190.394a2.867,2.867,0,0,1,1.3,2.253l9.777-5.682a2.868,2.868,0,0,0-1.3-2.254Z" transform="translate(-241.11 -184.712)" fill="none"/></clipPath><clipPath id="p"><path d="M3.479,82.069l-1.058.615a1.084,1.084,0,0,1,1.094.107l1.058-.615a1.4,1.4,0,0,0-.69-.211.794.794,0,0,0-.4.1" transform="translate(-2.421 -81.965)" fill="none"/></clipPath><clipPath id="r"><path d="M236.25,215.31a3.375,3.375,0,0,1,1.532,2.653,1.076,1.076,0,0,1-.448.986l1.058-.615a1.076,1.076,0,0,0,.448-.986,3.375,3.375,0,0,0-1.532-2.653Z" transform="translate(-236.25 -214.695)" fill="none"/></clipPath><clipPath id="t"><path d="M231.437,221.573l-.336.2a.6.6,0,0,1,.6.059l.336-.2a.772.772,0,0,0-.38-.116.437.437,0,0,0-.223.057" transform="translate(-231.101 -221.516)" fill="none"/></clipPath><clipPath id="v"><path d="M234.354,222.338a1.86,1.86,0,0,1,.844,1.462.593.593,0,0,1-.247.543l.337-.2a.593.593,0,0,0,.247-.543,1.861,1.861,0,0,0-.844-1.462Z" transform="translate(-234.354 -222.142)" fill="none"/></clipPath><clipPath id="x"><path d="M231.314,224.667l-.219.127a.389.389,0,0,1,.393.039l.219-.127a.5.5,0,0,0-.248-.076.285.285,0,0,0-.145.037" transform="translate(-231.095 -224.63)" fill="none"/></clipPath><clipPath id="z"><path d="M233.216,225.166a1.213,1.213,0,0,1,.55.953.387.387,0,0,1-.161.354l.219-.128a.387.387,0,0,0,.161-.354,1.213,1.213,0,0,0-.55-.953Z" transform="translate(-233.216 -225.039)" fill="none"/></clipPath><clipPath id="ab"><path d="M193.19,198.881l-.336.2a.6.6,0,0,1,.6.059l.337-.2a.771.771,0,0,0-.38-.116.44.44,0,0,0-.223.057" transform="translate(-192.854 -198.824)" fill="none"/></clipPath><clipPath id="ad"><path d="M196.106,199.646a1.859,1.859,0,0,1,.844,1.462.592.592,0,0,1-.247.543l.336-.2a.592.592,0,0,0,.247-.543,1.859,1.859,0,0,0-.844-1.462Z" transform="translate(-196.106 -199.451)" fill="none"/></clipPath><clipPath id="af"><path d="M193.067,201.975l-.219.128a.389.389,0,0,1,.393.039l.219-.128a.5.5,0,0,0-.248-.076.286.286,0,0,0-.145.037" transform="translate(-192.848 -201.938)" fill="none"/></clipPath><clipPath id="ah"><path d="M194.969,202.474a1.213,1.213,0,0,1,.55.953.387.387,0,0,1-.161.354l.219-.128a.387.387,0,0,0,.161-.354,1.213,1.213,0,0,0-.55-.953Z" transform="translate(-194.969 -202.346)" fill="none"/></clipPath><clipPath id="aj"><path d="M154.665,176.37l-.337.2a.6.6,0,0,1,.6.059l.336-.2a.77.77,0,0,0-.38-.116.436.436,0,0,0-.222.057" transform="translate(-154.328 -176.313)" fill="none"/></clipPath><clipPath id="al"><path d="M157.581,177.136a1.86,1.86,0,0,1,.844,1.462.593.593,0,0,1-.247.543l.336-.2a.593.593,0,0,0,.247-.543,1.86,1.86,0,0,0-.844-1.461Z" transform="translate(-157.581 -176.94)" fill="none"/></clipPath><clipPath id="an"><path d="M154.541,179.463l-.219.128a.389.389,0,0,1,.393.039l.22-.128a.5.5,0,0,0-.248-.076.286.286,0,0,0-.145.037" transform="translate(-154.322 -179.426)" fill="none"/></clipPath><clipPath id="ap"><path d="M156.443,179.963a1.213,1.213,0,0,1,.55.953.386.386,0,0,1-.161.354l.219-.127a.387.387,0,0,0,.161-.354,1.213,1.213,0,0,0-.55-.953Z" transform="translate(-156.443 -179.835)" fill="none"/></clipPath><clipPath id="ar"><path d="M115.046,153.678l-.336.2a.6.6,0,0,1,.6.059l.336-.2a.771.771,0,0,0-.38-.116.437.437,0,0,0-.222.057" transform="translate(-114.71 -153.621)" fill="none"/></clipPath><clipPath id="at"><path d="M117.962,154.443a1.86,1.86,0,0,1,.844,1.461.593.593,0,0,1-.247.543l.336-.2a.593.593,0,0,0,.247-.543,1.86,1.86,0,0,0-.844-1.462Z" transform="translate(-117.962 -154.247)" fill="none"/></clipPath><clipPath id="av"><path d="M114.922,156.771l-.219.127a.389.389,0,0,1,.393.039l.219-.127a.5.5,0,0,0-.248-.076.284.284,0,0,0-.145.037" transform="translate(-114.703 -156.734)" fill="none"/></clipPath><clipPath id="ax"><path d="M116.825,157.271a1.213,1.213,0,0,1,.55.953.386.386,0,0,1-.161.354l.219-.128a.386.386,0,0,0,.161-.354,1.213,1.213,0,0,0-.55-.953Z" transform="translate(-116.825 -157.144)" fill="none"/></clipPath><clipPath id="az"><path d="M77.118,132.259l-.336.2a.6.6,0,0,1,.6.059l.336-.2a.77.77,0,0,0-.38-.116.437.437,0,0,0-.223.057" transform="translate(-76.782 -132.202)" fill="none"/></clipPath><clipPath id="bb"><path d="M80.034,133.025a1.859,1.859,0,0,1,.844,1.462.593.593,0,0,1-.247.543l.336-.2a.592.592,0,0,0,.247-.543,1.86,1.86,0,0,0-.844-1.461Z" transform="translate(-80.034 -132.829)" fill="none"/></clipPath><clipPath id="bd"><path d="M76.995,135.352l-.22.127a.389.389,0,0,1,.393.039l.219-.128a.5.5,0,0,0-.248-.076.284.284,0,0,0-.145.037" transform="translate(-76.775 -135.315)" fill="none"/></clipPath><clipPath id="bf"><path d="M78.9,135.852a1.212,1.212,0,0,1,.55.953.386.386,0,0,1-.161.354l.219-.127a.386.386,0,0,0,.161-.354,1.214,1.214,0,0,0-.55-.953Z" transform="translate(-78.897 -135.724)" fill="none"/></clipPath><clipPath id="bh"><path d="M40.038,110.939l-.336.2a.6.6,0,0,1,.6.059l.336-.2a.771.771,0,0,0-.38-.116.438.438,0,0,0-.223.057" transform="translate(-39.702 -110.882)" fill="none"/></clipPath><clipPath id="bj"><path d="M42.954,111.7a1.86,1.86,0,0,1,.844,1.461.593.593,0,0,1-.247.543l.336-.2a.592.592,0,0,0,.247-.543,1.86,1.86,0,0,0-.844-1.462Z" transform="translate(-42.954 -111.509)" fill="none"/></clipPath><clipPath id="bl"><path d="M39.915,114.033l-.22.128a.389.389,0,0,1,.393.039l.219-.128A.5.5,0,0,0,40.06,114a.285.285,0,0,0-.145.037" transform="translate(-39.695 -113.996)" fill="none"/></clipPath><clipPath id="bn"><path d="M41.817,114.533a1.212,1.212,0,0,1,.55.953.386.386,0,0,1-.161.354l.219-.127a.387.387,0,0,0,.161-.354,1.213,1.213,0,0,0-.55-.953Z" transform="translate(-41.817 -114.405)" fill="none"/></clipPath><clipPath id="bp"><path d="M5.2,89.986l-.336.2a.6.6,0,0,1,.6.059l.336-.2a.772.772,0,0,0-.38-.116.437.437,0,0,0-.222.057" transform="translate(-4.864 -89.929)" fill="none"/></clipPath><clipPath id="br"><path d="M8.116,90.752a1.86,1.86,0,0,1,.844,1.462.593.593,0,0,1-.247.543l.336-.2a.593.593,0,0,0,.247-.543,1.86,1.86,0,0,0-.844-1.462Z" transform="translate(-8.116 -90.556)" fill="none"/></clipPath><clipPath id="bt"><path d="M5.076,93.08l-.219.128a.39.39,0,0,1,.393.038l.219-.127a.5.5,0,0,0-.248-.076.283.283,0,0,0-.145.037" transform="translate(-4.857 -93.043)" fill="none"/></clipPath><clipPath id="bv"><path d="M6.979,93.579a1.213,1.213,0,0,1,.55.953.386.386,0,0,1-.161.354l.219-.128a.387.387,0,0,0,.161-.354,1.213,1.213,0,0,0-.551-.953Z" transform="translate(-6.979 -93.452)" fill="none"/></clipPath><clipPath id="bx"><path d="M175.245,154.786a.419.419,0,0,0,.247.345v-.27a.418.418,0,0,1-.247-.345Z" transform="translate(-175.245 -154.517)" fill="none"/></clipPath><clipPath id="bz"><path d="M219.047,161.382v.27a.415.415,0,0,0,.243-.34v-.27a.415.415,0,0,1-.243.34" transform="translate(-219.046 -161.042)" fill="none"/></clipPath><clipPath id="cb"><path d="M200.293,170.071v.269a1.3,1.3,0,0,0,1.181,0v-.269a1.3,1.3,0,0,1-1.181,0" transform="translate(-200.292 -170.071)" fill="none"/></clipPath><clipPath id="cd"><path d="M217.381,177.844a.419.419,0,0,0,.247.345v-.27a.418.418,0,0,1-.247-.345Z" transform="translate(-217.381 -177.574)" fill="none"/></clipPath><clipPath id="cf"><path d="M261.182,184.44v.27a.415.415,0,0,0,.243-.34v-.27a.416.416,0,0,1-.243.34" transform="translate(-261.181 -184.1)" fill="none"/></clipPath><clipPath id="ch"><path d="M242.43,193.129v.269a1.3,1.3,0,0,0,1.181,0v-.269a1.3,1.3,0,0,1-1.181,0" transform="translate(-242.429 -193.129)" fill="none"/></clipPath><clipPath id="cj"><path d="M134.44,131.16a.419.419,0,0,0,.247.345v-.269a.418.418,0,0,1-.247-.345Z" transform="translate(-134.44 -130.891)" fill="none"/></clipPath><clipPath id="cl"><path d="M178.241,137.756v.27a.415.415,0,0,0,.243-.34v-.27a.415.415,0,0,1-.243.34" transform="translate(-178.24 -137.416)" fill="none"/></clipPath><clipPath id="cn"><path d="M159.488,146.445v.27a1.3,1.3,0,0,0,1.181,0v-.27a1.3,1.3,0,0,1-1.181,0" transform="translate(-159.487 -146.445)" fill="none"/></clipPath><clipPath id="cp"><path d="M95.3,107.411a.419.419,0,0,0,.247.345v-.27a.419.419,0,0,1-.247-.345Z" transform="translate(-95.303 -107.141)" fill="none"/></clipPath><clipPath id="cr"><path d="M139.1,114.006v.269a.415.415,0,0,0,.243-.34v-.27a.415.415,0,0,1-.243.34" transform="translate(-139.103 -113.666)" fill="none"/></clipPath><clipPath id="ct"><path d="M120.351,122.695v.27a1.3,1.3,0,0,0,1.181,0v-.27a1.3,1.3,0,0,1-1.181,0" transform="translate(-120.35 -122.695)" fill="none"/></clipPath><clipPath id="cv"><path d="M56.367,84.392a.419.419,0,0,0,.247.345v-.269a.419.419,0,0,1-.247-.345Z" transform="translate(-56.367 -84.123)" fill="none"/></clipPath><clipPath id="cx"><path d="M100.167,90.989v.269a.416.416,0,0,0,.243-.34v-.269a.416.416,0,0,1-.243.34" transform="translate(-100.166 -90.649)" fill="none"/></clipPath><clipPath id="cz"><path d="M81.415,99.678v.269a1.3,1.3,0,0,0,1.181,0v-.269a1.3,1.3,0,0,1-1.181,0" transform="translate(-81.414 -99.678)" fill="none"/></clipPath><clipPath id="db"><path d="M151.243,114.575a.1.1,0,0,0,.061.086.322.322,0,0,0,.293,0,.1.1,0,0,0,.06-.084l.013-4.537a.1.1,0,0,1-.06.084.323.323,0,0,1-.293,0,.1.1,0,0,1-.061-.086Z" transform="translate(-151.243 -110.038)" fill="none"/></clipPath><clipPath id="dd"><path d="M128.7,55.827l-.654.38a.71.71,0,0,1,.716.07l.654-.38a.916.916,0,0,0-.451-.138.521.521,0,0,0-.265.068" transform="translate(-128.049 -55.759)" fill="none"/></clipPath><clipPath id="df"><path d="M164.167,75.5a2.217,2.217,0,0,1,1,1.741.707.707,0,0,1-.294.648l.654-.38a.707.707,0,0,0,.294-.648,2.216,2.216,0,0,0-1-1.741Z" transform="translate(-164.167 -75.123)" fill="none"/></clipPath><clipPath id="dh"><path d="M121.7,41.023a.788.788,0,0,0,.465.65,2.458,2.458,0,0,0,2.23,0,.784.784,0,0,0,.458-.642l.022-7.561a.784.784,0,0,1-.459.642,2.458,2.458,0,0,1-2.23,0,.789.789,0,0,1-.465-.65Z" transform="translate(-121.702 -33.462)" fill="none"/></clipPath><clipPath id="dj"><path d="M147.256,110.645a.488.488,0,0,0,.287.4,1.517,1.517,0,0,0,1.377,0,.483.483,0,0,0,.283-.4l0-1.21a.484.484,0,0,1-.283.4,1.517,1.517,0,0,1-1.376,0,.487.487,0,0,1-.287-.4Z" transform="translate(-147.256 -109.435)" fill="none"/></clipPath><clipPath id="dl"><path d="M114.755,63.094l-.654.38a.712.712,0,0,1,.718.07l.654-.38a.919.919,0,0,0-.453-.138.523.523,0,0,0-.265.068" transform="translate(-114.101 -63.026)" fill="none"/></clipPath><clipPath id="dn"><path d="M150.221,82.768a2.215,2.215,0,0,1,1.006,1.742.706.706,0,0,1-.294.647l.654-.38a.706.706,0,0,0,.294-.647,2.214,2.214,0,0,0-1.006-1.742Z" transform="translate(-150.221 -82.388)" fill="none"/></clipPath></defs><g transform="translate(9.283 5.603)"><g transform="matrix(1, 0, 0, 1, -9.28, -5.6)" filter="url(#a)"><ellipse cx="40.5" cy="40" rx="40.5" ry="40" transform="translate(9 6)" fill="#fff"/></g><g transform="translate(12.799 11.959)"><g clip-path="url(#c)"><rect width="0.205" height="8.201" transform="translate(45.871 15.923)" fill="#fff"/><g clip-path="url(#c)"><path d="M246.724,127.658a.812.812,0,0,0-.321-.4c-.137-.079-.257-.062-.321.029a.317.317,0,0,0-.05.185.821.821,0,0,0,.371.643c.2.118.371.022.371-.214a.68.68,0,0,0-.05-.243" transform="translate(-200.471 -103.651)" fill="#fff"/><path d="M233.246,65.554a5.13,5.13,0,0,1,2.222,3.281,1.8,1.8,0,0,1,.266.127,3.364,3.364,0,0,1,1.526,2.644c0,.91-.607,1.312-1.378.957L230.736,69.6a3.363,3.363,0,0,1-1.526-2.643c0-.972.69-1.365,1.536-.876a2.306,2.306,0,0,1,.266.18c.254-1,1.159-1.329,2.234-.709" transform="translate(-186.764 -53.157)" fill="#fff"/><g transform="translate(3.143 21.375)" opacity="0.2" style="mix-blend-mode:multiply;isolation:isolate"><g clip-path="url(#e)"><path d="M61.788,131.073,16.971,115.425v9.389L55,146.772h5.246l11.327-6.608v-2.246Z" transform="translate(-16.971 -115.425)" fill="#9193a3"/></g></g><path d="M164.553,1.973l3.914,2.26,0,22.5-3.917-2.262Z" transform="translate(-134.076 -1.608)" fill="#abacc2"/><path d="M183.291,35.726V14.19L184.5,12.2V35.026Z" transform="translate(-149.348 -9.943)" fill="#c2c3d0"/><path d="M16.971,106.792l38.971,22.5v9l-38.971-22.5Z" transform="translate(-13.828 -87.016)" fill="#ffcf64"/><path d="M227.414,198.591l11.691-6.75v9l-11.691,6.75Z" transform="translate(-185.3 -156.316)" fill="#f4be48"/><path d="M16.971,77.092l11.691-6.75,38.971,22.5-11.674,6.75Z" transform="translate(-13.828 -57.316)" fill="#8c8c8c"/><path d="M61.526,47.827l1.058-.615a1.084,1.084,0,0,1,1.093.107l-1.058.615a1.084,1.084,0,0,0-1.093-.107" transform="translate(-50.132 -38.385)" fill="#fff"/></g><g transform="translate(11.394 8.724)"><g clip-path="url(#f)"><path d="M61.526,47.827l1.058-.615a.893.893,0,0,1,.691-.064l-1.058.615a.893.893,0,0,0-.691.064" transform="translate(-61.526 -47.108)" fill="#fff"/><path d="M65.26,47.938l1.058-.615a1.673,1.673,0,0,1,.4.171l-1.058.615a1.673,1.673,0,0,0-.4-.171" transform="translate(-64.569 -47.283)" fill="#fff"/></g></g><g clip-path="url(#c)"><path d="M67.429,48.861l1.058-.615,42.208,24.369-1.058.615Z" transform="translate(-54.942 -39.312)" fill="#fff"/><path d="M297.494,183.477l-1.058.615a1.076,1.076,0,0,0,.449-.986,3.378,3.378,0,0,0-1.532-2.654l1.058-.615a3.377,3.377,0,0,1,1.532,2.654,1.076,1.076,0,0,1-.448.986" transform="translate(-240.658 -146.534)" fill="#fff"/></g><g transform="translate(54.695 33.303)"><g clip-path="url(#h)"><path d="M295.352,180.453l1.058-.615c.041.024.082.049.122.076l-1.058.615q-.06-.04-.122-.076" transform="translate(-295.352 -179.838)" fill="#fff"/><path d="M296.011,180.863l1.058-.615a2.839,2.839,0,0,1,.547.487l-1.058.615a2.838,2.838,0,0,0-.547-.487" transform="translate(-295.889 -180.172)" fill="#fff"/><path d="M298.967,183.493l1.058-.615a3.7,3.7,0,0,1,.6.939l-1.058.615a3.694,3.694,0,0,0-.6-.939" transform="translate(-298.298 -182.315)" fill="#fff"/><path d="M302.191,188.564l1.058-.615a3.276,3.276,0,0,1,.212.651l-1.058.615a3.267,3.267,0,0,0-.212-.651" transform="translate(-300.925 -186.447)" fill="#fff"/><path d="M303.336,192.081l1.058-.615a2.44,2.44,0,0,1,.053.5q0,.066,0,.128l-1.058.615q0-.062,0-.128a2.441,2.441,0,0,0-.054-.5" transform="translate(-301.857 -189.313)" fill="#fff"/><path d="M301.647,195.476l1.058-.615a1.017,1.017,0,0,1-.444.858l-1.058.615a1.016,1.016,0,0,0,.444-.858" transform="translate(-300.12 -192.079)" fill="#fff"/></g></g><g clip-path="url(#c)"><path d="M102.852,75.007a3.378,3.378,0,0,1,1.532,2.654c0,.976-.693,1.369-1.542.879L60.634,54.171A3.376,3.376,0,0,1,59.1,51.518c0-.976.693-1.37,1.542-.88Z" transform="translate(-48.157 -41.089)" fill="#e0e2ea"/><path d="M22.485,54.861l-9.777,5.682a.921.921,0,0,1,.929.091l9.777-5.682a.921.921,0,0,0-.929-.091" transform="translate(-10.355 -44.63)" fill="#252529"/></g><g transform="translate(2.353 10.143)"><g clip-path="url(#j)"><path d="M14.93,60.634l9.777-5.682a1.145,1.145,0,0,0-.635-.177L14.3,60.457a1.145,1.145,0,0,1,.635.177" transform="translate(-14.001 -54.774)" fill="#252529"/><path d="M13,60.464l9.777-5.682a.662.662,0,0,0-.294.086L12.708,60.55A.66.66,0,0,1,13,60.464" transform="translate(-12.708 -54.78)" fill="#252529"/></g></g><g clip-path="url(#c)"><path d="M59.091,85.305l9.777-5.682L27.5,55.74l-9.777,5.682Z" transform="translate(-14.441 -45.418)" fill="#252529"/><path d="M246.073,205.523l9.777-5.682a.914.914,0,0,0,.381-.837l-9.777,5.682a.914.914,0,0,1-.381.837" transform="translate(-200.504 -162.152)" fill="#252529"/></g><g transform="translate(45.569 36.852)"><g clip-path="url(#l)"><path d="M246.073,205.523l9.777-5.682a.914.914,0,0,0,.381-.837l-9.777,5.682a.914.914,0,0,1-.381.837" transform="translate(-246.073 -199.004)" fill="#1a191d"/></g></g><g clip-path="url(#c)"><path d="M248.13,202.957l9.777-5.682v-.393l-9.777,5.682Z" transform="translate(-202.18 -160.422)" fill="#1a191d"/><path d="M242.411,192.648l9.777-5.682a2.868,2.868,0,0,0-1.3-2.254l-9.777,5.682a2.868,2.868,0,0,1,1.3,2.254" transform="translate(-196.46 -150.507)" fill="#252529"/></g><g transform="translate(44.65 34.206)"><g clip-path="url(#n)"><path d="M247.391,198.857l9.777-5.682a2.369,2.369,0,0,0-.169-.842l-9.777,5.682a2.368,2.368,0,0,1,.169.842" transform="translate(-246.09 -190.922)" fill="#1a191d"/><path d="M245.969,195.542l9.777-5.682a3.141,3.141,0,0,0-.285-.562l-9.777,5.682a3.143,3.143,0,0,1,.285.562" transform="translate(-244.837 -188.449)" fill="#1a191d"/><path d="M241.957,191.244l9.777-5.682a2.591,2.591,0,0,0-.847-.849l-9.777,5.682a2.589,2.589,0,0,1,.847.849" transform="translate(-241.11 -184.713)" fill="#1a191d"/></g></g><g clip-path="url(#c)"><path d="M2.421,82.683l1.058-.615a1.084,1.084,0,0,1,1.094.107l-1.058.615a1.084,1.084,0,0,0-1.094-.107" transform="translate(-1.973 -66.786)" fill="#fff"/></g><g transform="translate(0.448 15.179)"><g clip-path="url(#p)"><path d="M2.421,82.683l1.058-.615A.892.892,0,0,1,4.17,82l-1.058.615a.893.893,0,0,0-.691.064" transform="translate(-2.421 -81.965)" fill="#fff"/><path d="M6.155,82.795l1.058-.615a1.67,1.67,0,0,1,.4.171l-1.058.615a1.672,1.672,0,0,0-.4-.171" transform="translate(-5.464 -82.14)" fill="#fff"/></g></g><g clip-path="url(#c)"><path d="M8.326,83.719,9.384,83.1l42.208,24.369-1.058.615Z" transform="translate(-6.784 -67.714)" fill="#fff"/><path d="M238.391,218.334l-1.058.615a1.075,1.075,0,0,0,.448-.986,3.375,3.375,0,0,0-1.532-2.653l1.058-.615a3.376,3.376,0,0,1,1.532,2.653,1.076,1.076,0,0,1-.448.986" transform="translate(-192.5 -174.937)" fill="#fff"/></g><g transform="translate(43.75 39.758)"><g clip-path="url(#r)"><path d="M236.25,215.311l1.058-.615c.041.024.082.049.122.076l-1.058.615q-.06-.04-.122-.076" transform="translate(-236.25 -214.696)" fill="#fff"/><path d="M236.909,215.721l1.058-.615a2.838,2.838,0,0,1,.548.488l-1.058.615a2.838,2.838,0,0,0-.548-.488" transform="translate(-236.787 -215.03)" fill="#fff"/><path d="M239.868,218.354l1.058-.615a3.7,3.7,0,0,1,.6.938l-1.058.615a3.7,3.7,0,0,0-.6-.938" transform="translate(-239.198 -217.175)" fill="#fff"/><path d="M243.09,223.421l1.058-.615a3.277,3.277,0,0,1,.212.651l-1.058.615a3.262,3.262,0,0,0-.212-.651" transform="translate(-241.823 -221.304)" fill="#fff"/><path d="M244.233,226.934l1.058-.615a2.439,2.439,0,0,1,.053.5q0,.066,0,.128l-1.058.615q0-.062,0-.128a2.44,2.44,0,0,0-.054-.5" transform="translate(-242.755 -224.166)" fill="#fff"/><path d="M242.545,230.328l1.058-.615a1.017,1.017,0,0,1-.444.858l-1.058.615a1.016,1.016,0,0,0,.444-.858" transform="translate(-241.018 -226.932)" fill="#fff"/></g></g><g clip-path="url(#c)"><path d="M43.75,109.864a3.376,3.376,0,0,1,1.532,2.653c0,.976-.693,1.369-1.542.879L1.532,89.027A3.375,3.375,0,0,1,0,86.374C0,85.4.693,85,1.542,85.5Z" transform="translate(0 -69.491)" fill="#c2c3d0"/><path d="M231.1,221.768l.336-.2a.6.6,0,0,1,.6.059l-.336.2a.6.6,0,0,0-.6-.059" transform="translate(-188.305 -180.494)" fill="#fff"/></g><g transform="translate(42.796 41.021)"><g clip-path="url(#t)"><path d="M231.1,221.768l.336-.2a.448.448,0,0,1,.26-.056l-.336.2a.448.448,0,0,0-.26.056" transform="translate(-231.101 -221.516)" fill="#fff"/><path d="M232.506,221.719l.336-.2a.686.686,0,0,1,.178.038l-.336.2a.68.68,0,0,0-.178-.038" transform="translate(-232.246 -221.522)" fill="#fff"/><path d="M233.468,221.926l.336-.2a.986.986,0,0,1,.164.076l-.336.2a.986.986,0,0,0-.164-.076" transform="translate(-233.03 -221.69)" fill="#fff"/></g></g><g clip-path="url(#c)"><path d="M235.286,224.148l-.336.2a.593.593,0,0,0,.247-.543,1.86,1.86,0,0,0-.844-1.461l.336-.2a1.86,1.86,0,0,1,.844,1.462.593.593,0,0,1-.247.543" transform="translate(-190.955 -181.006)" fill="#fff"/></g><g transform="translate(43.399 41.137)"><g clip-path="url(#v)"><path d="M234.353,222.339l.336-.2.008,0-.336.2-.008,0" transform="translate(-234.353 -222.143)" fill="#fff"/><path d="M234.4,222.365l.336-.2a1.34,1.34,0,0,1,.184.131l-.336.2a1.318,1.318,0,0,0-.184-.131" transform="translate(-234.39 -222.164)" fill="#fff"/><path d="M235.389,223.072l.336-.2a1.669,1.669,0,0,1,.178.176l-.336.2a1.672,1.672,0,0,0-.178-.176" transform="translate(-235.197 -222.74)" fill="#fff"/><path d="M236.351,224.02l.337-.2a2.036,2.036,0,0,1,.328.515l-.336.2a2.038,2.038,0,0,0-.328-.515" transform="translate(-235.981 -223.513)" fill="#fff"/><path d="M238.119,226.8l.336-.2a1.89,1.89,0,0,1,.079.21l-.336.2a1.887,1.887,0,0,0-.079-.21" transform="translate(-237.422 -225.779)" fill="#fff"/><path d="M238.544,227.936l.336-.2a1.645,1.645,0,0,1,.051.221l-.336.2a1.646,1.646,0,0,0-.051-.221" transform="translate(-237.768 -226.703)" fill="#fff"/><path d="M238.822,229.129l.336-.2a1.291,1.291,0,0,1,.016.2v0l-.336.2v0a1.29,1.29,0,0,0-.016-.2" transform="translate(-237.995 -227.675)" fill="#fff"/><path d="M238.813,230.245l.336-.2a.934.934,0,0,1-.022.2l-.336.2a.934.934,0,0,0,.022-.2" transform="translate(-237.969 -228.585)" fill="#fff"/><path d="M237.8,231.345l.336-.2a.5.5,0,0,1-.225.337l-.336.2a.5.5,0,0,0,.225-.337" transform="translate(-236.98 -229.481)" fill="#fff"/></g></g><g clip-path="url(#c)"><path d="M230.616,222.688a1.86,1.86,0,0,1,.844,1.462c0,.538-.381.754-.849.484a1.859,1.859,0,0,1-.844-1.462c0-.537.381-.754.849-.484" transform="translate(-187.218 -181.355)" fill="#252529"/><path d="M231.1,224.794l.219-.128a.389.389,0,0,1,.393.039l-.219.128a.389.389,0,0,0-.393-.038" transform="translate(-188.3 -183.031)" fill="#fff"/></g><g transform="translate(42.795 41.598)"><g clip-path="url(#x)"><path d="M231.1,224.794l.219-.128a.292.292,0,0,1,.17-.036l-.219.127a.292.292,0,0,0-.17.036" transform="translate(-231.095 -224.629)" fill="#fff"/><path d="M232.011,224.762l.219-.128a.446.446,0,0,1,.116.025l-.219.127a.445.445,0,0,0-.116-.025" transform="translate(-231.841 -224.633)" fill="#fff"/><path d="M232.639,224.9l.219-.128a.623.623,0,0,1,.107.05l-.219.127a.635.635,0,0,0-.107-.05" transform="translate(-232.353 -224.743)" fill="#fff"/></g></g><g clip-path="url(#c)"><path d="M233.825,226.346l-.219.128a.386.386,0,0,0,.161-.354,1.213,1.213,0,0,0-.55-.953l.219-.128a1.213,1.213,0,0,1,.55.953.386.386,0,0,1-.161.354" transform="translate(-190.028 -183.365)" fill="#fff"/></g><g transform="translate(43.188 41.674)"><g clip-path="url(#z)"><path d="M233.216,225.166l.219-.128.005,0-.219.128-.005,0" transform="translate(-233.216 -225.038)" fill="#fff"/><path d="M233.245,225.183l.219-.128a.873.873,0,0,1,.12.086l-.219.127a.886.886,0,0,0-.12-.085" transform="translate(-233.24 -225.052)" fill="#fff"/><path d="M233.891,225.644l.219-.128a1.072,1.072,0,0,1,.116.115l-.219.127a1.105,1.105,0,0,0-.116-.114" transform="translate(-233.766 -225.428)" fill="#fff"/><path d="M234.518,226.262l.219-.128a1.335,1.335,0,0,1,.214.336l-.22.127a1.325,1.325,0,0,0-.214-.336" transform="translate(-234.277 -225.931)" fill="#fff"/><path d="M235.672,228.077l.219-.128a1.229,1.229,0,0,1,.051.137l-.219.128a1.224,1.224,0,0,0-.051-.137" transform="translate(-235.217 -227.41)" fill="#fff"/><path d="M235.949,228.816l.219-.128a1.054,1.054,0,0,1,.034.144l-.219.128a1.059,1.059,0,0,0-.034-.144" transform="translate(-235.443 -228.012)" fill="#fff"/><path d="M236.13,229.594l.219-.128a.843.843,0,0,1,.011.133h0l-.219.128v0a.866.866,0,0,0-.011-.133" transform="translate(-235.59 -228.646)" fill="#fff"/><path d="M236.124,230.322l.219-.128a.6.6,0,0,1-.014.133l-.219.128a.6.6,0,0,0,.014-.133" transform="translate(-235.574 -229.239)" fill="#fff"/><path d="M235.465,231.04l.219-.128a.326.326,0,0,1-.147.22l-.219.128a.327.327,0,0,0,.147-.22" transform="translate(-234.929 -229.824)" fill="#fff"/></g></g><g clip-path="url(#c)"><path d="M230.779,225.394a1.213,1.213,0,0,1,.55.953c0,.351-.249.492-.554.316a1.212,1.212,0,0,1-.55-.953c0-.35.249-.492.554-.316" transform="translate(-187.591 -183.593)" fill="#252529"/><path d="M192.854,199.076l.336-.2a.6.6,0,0,1,.6.059l-.336.2a.6.6,0,0,0-.6-.059" transform="translate(-157.14 -162.004)" fill="#fff"/></g><g transform="translate(35.714 36.819)"><g clip-path="url(#ab)"><path d="M192.854,199.076l.336-.2a.448.448,0,0,1,.26-.056l-.336.2a.448.448,0,0,0-.26.056" transform="translate(-192.854 -198.824)" fill="#fff"/><path d="M194.259,199.027l.336-.2a.68.68,0,0,1,.178.038l-.336.2a.681.681,0,0,0-.178-.038" transform="translate(-193.999 -198.83)" fill="#fff"/><path d="M195.221,199.234l.336-.2a.977.977,0,0,1,.164.076l-.336.2a.978.978,0,0,0-.164-.076" transform="translate(-194.783 -198.998)" fill="#fff"/></g></g><g clip-path="url(#c)"><path d="M197.041,201.456l-.337.2a.592.592,0,0,0,.247-.543,1.86,1.86,0,0,0-.844-1.462l.336-.2a1.86,1.86,0,0,1,.844,1.462.593.593,0,0,1-.247.543" transform="translate(-159.791 -162.516)" fill="#fff"/></g><g transform="translate(36.316 36.935)"><g clip-path="url(#ad)"><path d="M196.107,199.647l.336-.2.008,0-.336.2-.008,0" transform="translate(-196.107 -199.451)" fill="#fff"/><path d="M196.152,199.673l.336-.2a1.327,1.327,0,0,1,.184.131l-.336.2a1.339,1.339,0,0,0-.184-.131" transform="translate(-196.143 -199.472)" fill="#fff"/><path d="M197.142,200.38l.336-.2a1.671,1.671,0,0,1,.178.176l-.336.2a1.675,1.675,0,0,0-.178-.176" transform="translate(-196.95 -200.048)" fill="#fff"/><path d="M198.1,201.328l.336-.2a2.037,2.037,0,0,1,.328.515l-.337.2a2.035,2.035,0,0,0-.328-.515" transform="translate(-197.734 -200.821)" fill="#fff"/><path d="M199.872,204.11l.336-.2a1.88,1.88,0,0,1,.079.21l-.336.2a1.878,1.878,0,0,0-.079-.21" transform="translate(-199.175 -203.088)" fill="#fff"/><path d="M200.3,205.244l.336-.2a1.623,1.623,0,0,1,.051.221l-.337.2a1.614,1.614,0,0,0-.051-.221" transform="translate(-199.521 -204.012)" fill="#fff"/><path d="M200.575,206.437l.336-.2a1.288,1.288,0,0,1,.016.2v0l-.336.2v0a1.29,1.29,0,0,0-.016-.2" transform="translate(-199.747 -204.984)" fill="#fff"/><path d="M200.566,207.553l.336-.2a.914.914,0,0,1-.022.2l-.336.2a.938.938,0,0,0,.022-.2" transform="translate(-199.722 -205.893)" fill="#fff"/><path d="M199.555,208.653l.336-.2a.5.5,0,0,1-.225.337l-.336.2a.5.5,0,0,0,.225-.337" transform="translate(-198.733 -206.789)" fill="#fff"/></g></g><g clip-path="url(#c)"><path d="M192.369,200a1.86,1.86,0,0,1,.844,1.462c0,.538-.381.754-.849.484a1.859,1.859,0,0,1-.844-1.462c0-.537.381-.754.849-.484" transform="translate(-156.053 -162.865)" fill="#252529"/><path d="M192.848,202.1l.219-.128a.389.389,0,0,1,.393.039l-.219.128a.389.389,0,0,0-.393-.039" transform="translate(-157.136 -164.541)" fill="#fff"/></g><g transform="translate(35.712 37.396)"><g clip-path="url(#af)"><path d="M192.848,202.1l.219-.128a.292.292,0,0,1,.17-.036l-.219.127a.294.294,0,0,0-.17.036" transform="translate(-192.848 -201.937)" fill="#fff"/><path d="M193.764,202.07l.219-.128a.446.446,0,0,1,.116.025l-.219.127a.444.444,0,0,0-.116-.025" transform="translate(-193.594 -201.941)" fill="#fff"/><path d="M194.392,202.2l.219-.128a.64.64,0,0,1,.107.05l-.219.128a.636.636,0,0,0-.107-.05" transform="translate(-194.106 -202.051)" fill="#fff"/></g></g><g clip-path="url(#c)"><path d="M195.579,203.654l-.219.128a.386.386,0,0,0,.161-.354,1.213,1.213,0,0,0-.55-.953l.219-.128a1.213,1.213,0,0,1,.55.953.386.386,0,0,1-.161.354" transform="translate(-158.865 -164.875)" fill="#fff"/></g><g transform="translate(36.105 37.471)"><g clip-path="url(#ah)"><path d="M194.969,202.474l.219-.128.005,0-.219.128-.005,0" transform="translate(-194.969 -202.346)" fill="#fff"/><path d="M195,202.491l.219-.128a.858.858,0,0,1,.119.086l-.219.127a.886.886,0,0,0-.12-.085" transform="translate(-194.993 -202.36)" fill="#fff"/><path d="M195.644,202.952l.219-.128a1.091,1.091,0,0,1,.116.115l-.219.127a1.075,1.075,0,0,0-.116-.114" transform="translate(-195.519 -202.735)" fill="#fff"/><path d="M196.272,203.571l.219-.128a1.333,1.333,0,0,1,.214.336l-.22.127a1.33,1.33,0,0,0-.214-.336" transform="translate(-196.031 -203.24)" fill="#fff"/><path d="M197.425,205.385l.219-.128a1.222,1.222,0,0,1,.051.137l-.219.128a1.213,1.213,0,0,0-.051-.137" transform="translate(-196.97 -204.718)" fill="#fff"/><path d="M197.7,206.124l.219-.128a1.059,1.059,0,0,1,.034.144l-.219.127a1.06,1.06,0,0,0-.034-.144" transform="translate(-197.196 -205.32)" fill="#fff"/><path d="M197.883,206.9l.219-.128a.847.847,0,0,1,.011.133v0l-.219.128v0a.866.866,0,0,0-.011-.133" transform="translate(-197.343 -205.955)" fill="#fff"/><path d="M197.877,207.63l.219-.128a.6.6,0,0,1-.014.133l-.219.128a.6.6,0,0,0,.014-.133" transform="translate(-197.327 -206.547)" fill="#fff"/><path d="M197.218,208.348l.219-.128a.327.327,0,0,1-.147.22l-.219.128a.327.327,0,0,0,.147-.22" transform="translate(-196.682 -207.132)" fill="#fff"/></g></g><g clip-path="url(#c)"><path d="M192.532,202.7a1.213,1.213,0,0,1,.55.953c0,.351-.249.492-.554.316a1.212,1.212,0,0,1-.55-.953c0-.35.249-.492.554-.316" transform="translate(-156.427 -165.103)" fill="#252529"/><path d="M154.328,176.565l.336-.2a.6.6,0,0,1,.6.059l-.336.2a.6.6,0,0,0-.6-.059" transform="translate(-125.749 -143.662)" fill="#fff"/></g><g transform="translate(28.579 32.65)"><g clip-path="url(#aj)"><path d="M154.328,176.565l.336-.2a.448.448,0,0,1,.26-.056l-.336.2a.448.448,0,0,0-.26.056" transform="translate(-154.328 -176.313)" fill="#fff"/><path d="M155.733,176.516l.336-.2a.678.678,0,0,1,.178.038l-.336.2a.68.68,0,0,0-.178-.038" transform="translate(-155.473 -176.319)" fill="#fff"/><path d="M156.7,176.723l.336-.2a.983.983,0,0,1,.164.076l-.336.2a.983.983,0,0,0-.164-.077" transform="translate(-156.257 -176.487)" fill="#fff"/></g></g><g clip-path="url(#c)"><path d="M158.514,178.945l-.336.2a.592.592,0,0,0,.247-.543,1.86,1.86,0,0,0-.844-1.462l.336-.2a1.86,1.86,0,0,1,.844,1.461.593.593,0,0,1-.247.543" transform="translate(-128.399 -144.174)" fill="#fff"/></g><g transform="translate(29.182 32.767)"><g clip-path="url(#al)"><path d="M157.581,177.135l.336-.2.008,0-.337.2-.008,0" transform="translate(-157.581 -176.939)" fill="#fff"/><path d="M157.626,177.162l.336-.2a1.329,1.329,0,0,1,.183.131l-.336.2a1.328,1.328,0,0,0-.183-.131" transform="translate(-157.618 -176.961)" fill="#fff"/><path d="M158.616,177.869l.336-.2a1.694,1.694,0,0,1,.178.176l-.336.2a1.691,1.691,0,0,0-.178-.176" transform="translate(-158.424 -177.537)" fill="#fff"/><path d="M159.578,178.817l.336-.2a2.037,2.037,0,0,1,.327.515l-.336.2a2.035,2.035,0,0,0-.327-.515" transform="translate(-159.208 -178.31)" fill="#fff"/><path d="M161.347,181.6l.337-.2a1.877,1.877,0,0,1,.079.21l-.336.2a1.872,1.872,0,0,0-.079-.21" transform="translate(-160.65 -180.576)" fill="#fff"/><path d="M161.771,182.733l.336-.2a1.612,1.612,0,0,1,.052.221l-.336.2a1.613,1.613,0,0,0-.051-.221" transform="translate(-160.995 -181.501)" fill="#fff"/><path d="M162.049,183.926l.336-.2a1.29,1.29,0,0,1,.016.2v0l-.336.2v0a1.312,1.312,0,0,0-.016-.2" transform="translate(-161.222 -182.473)" fill="#fff"/><path d="M162.041,185.041l.336-.2a.938.938,0,0,1-.022.2l-.336.2a.937.937,0,0,0,.022-.2" transform="translate(-161.197 -183.381)" fill="#fff"/><path d="M161.03,186.142l.336-.2a.5.5,0,0,1-.225.337l-.336.2a.5.5,0,0,0,.225-.337" transform="translate(-160.208 -184.278)" fill="#fff"/></g></g><g clip-path="url(#c)"><path d="M153.843,177.484a1.86,1.86,0,0,1,.844,1.462c0,.538-.381.754-.849.484a1.859,1.859,0,0,1-.844-1.462c0-.537.381-.754.849-.484" transform="translate(-124.662 -144.522)" fill="#252529"/><path d="M154.322,179.591l.219-.128a.389.389,0,0,1,.393.039l-.219.128a.389.389,0,0,0-.393-.039" transform="translate(-125.744 -146.199)" fill="#fff"/></g><g transform="translate(28.578 33.227)"><g clip-path="url(#an)"><path d="M154.322,179.591l.219-.128a.292.292,0,0,1,.17-.036l-.219.127a.292.292,0,0,0-.17.036" transform="translate(-154.322 -179.426)" fill="#fff"/><path d="M155.238,179.558l.219-.128a.445.445,0,0,1,.116.025l-.219.127a.444.444,0,0,0-.116-.025" transform="translate(-155.068 -179.429)" fill="#fff"/><path d="M155.866,179.694l.219-.128a.635.635,0,0,1,.107.05l-.219.128a.638.638,0,0,0-.107-.05" transform="translate(-155.58 -179.54)" fill="#fff"/></g></g><g clip-path="url(#c)"><path d="M157.052,181.143l-.219.128a.387.387,0,0,0,.161-.354,1.213,1.213,0,0,0-.55-.953l.219-.128a1.213,1.213,0,0,1,.55.953.386.386,0,0,1-.161.354" transform="translate(-127.472 -146.532)" fill="#fff"/></g><g transform="translate(28.971 33.303)"><g clip-path="url(#ap)"><path d="M156.443,179.963l.219-.128.006,0-.219.128-.006,0" transform="translate(-156.443 -179.835)" fill="#fff"/><path d="M156.473,179.98l.219-.128a.87.87,0,0,1,.12.086l-.219.127a.887.887,0,0,0-.12-.085" transform="translate(-156.467 -179.849)" fill="#fff"/><path d="M157.119,180.441l.219-.128a1.076,1.076,0,0,1,.116.115l-.219.127a1.09,1.09,0,0,0-.116-.114" transform="translate(-156.994 -180.224)" fill="#fff"/><path d="M157.746,181.059l.219-.128a1.33,1.33,0,0,1,.214.336l-.219.128a1.329,1.329,0,0,0-.214-.336" transform="translate(-157.505 -180.728)" fill="#fff"/><path d="M158.9,182.873l.219-.128a1.227,1.227,0,0,1,.051.137l-.219.128a1.212,1.212,0,0,0-.051-.137" transform="translate(-158.444 -182.206)" fill="#fff"/><path d="M159.176,183.613l.219-.128a1.068,1.068,0,0,1,.034.144l-.219.128a1.059,1.059,0,0,0-.034-.144" transform="translate(-158.67 -182.809)" fill="#fff"/><path d="M159.358,184.391l.219-.128a.87.87,0,0,1,.011.133v0l-.219.128v0a.871.871,0,0,0-.011-.133" transform="translate(-158.818 -183.443)" fill="#fff"/><path d="M159.351,185.119l.219-.128a.6.6,0,0,1-.014.133l-.219.128a.6.6,0,0,0,.014-.133" transform="translate(-158.801 -184.036)" fill="#fff"/><path d="M158.693,185.837l.219-.128a.326.326,0,0,1-.147.22l-.219.128a.327.327,0,0,0,.147-.22" transform="translate(-158.157 -184.621)" fill="#fff"/></g></g><g clip-path="url(#c)"><path d="M154.006,180.191a1.213,1.213,0,0,1,.55.953c0,.351-.249.492-.554.316a1.212,1.212,0,0,1-.55-.953c0-.35.249-.492.554-.316" transform="translate(-125.035 -146.761)" fill="#252529"/><path d="M114.709,153.873l.336-.2a.6.6,0,0,1,.6.059l-.336.2a.6.6,0,0,0-.6-.059" transform="translate(-93.467 -125.172)" fill="#fff"/></g><g transform="translate(21.242 28.448)"><g clip-path="url(#ar)"><path d="M114.709,153.873l.336-.2a.448.448,0,0,1,.26-.056l-.336.2a.448.448,0,0,0-.26.056" transform="translate(-114.709 -153.621)" fill="#fff"/><path d="M116.114,153.824l.336-.2a.679.679,0,0,1,.178.038l-.336.2a.68.68,0,0,0-.178-.038" transform="translate(-115.854 -153.627)" fill="#fff"/><path d="M117.077,154.031l.336-.2a.986.986,0,0,1,.164.076l-.336.2a.985.985,0,0,0-.164-.076" transform="translate(-116.639 -153.795)" fill="#fff"/></g></g><g clip-path="url(#c)"><path d="M118.9,156.253l-.336.2a.593.593,0,0,0,.247-.543,1.86,1.86,0,0,0-.844-1.462l.336-.2a1.86,1.86,0,0,1,.844,1.462.593.593,0,0,1-.247.543" transform="translate(-96.117 -125.684)" fill="#fff"/></g><g transform="translate(21.845 28.564)"><g clip-path="url(#at)"><path d="M117.962,154.444l.336-.2.008,0-.336.2-.008,0" transform="translate(-117.962 -154.248)" fill="#fff"/><path d="M118.007,154.47l.336-.2a1.328,1.328,0,0,1,.183.131l-.336.2a1.325,1.325,0,0,0-.183-.131" transform="translate(-117.999 -154.269)" fill="#fff"/><path d="M119,155.177l.336-.2a1.674,1.674,0,0,1,.178.176l-.336.2a1.675,1.675,0,0,0-.178-.176" transform="translate(-118.805 -154.845)" fill="#fff"/><path d="M119.959,156.125l.336-.2a2.036,2.036,0,0,1,.328.515l-.336.2a2.036,2.036,0,0,0-.328-.515" transform="translate(-119.589 -155.618)" fill="#fff"/><path d="M121.728,158.907l.336-.2a1.891,1.891,0,0,1,.079.21l-.336.2a1.876,1.876,0,0,0-.079-.21" transform="translate(-121.031 -157.884)" fill="#fff"/><path d="M122.152,160.041l.336-.2a1.618,1.618,0,0,1,.051.221l-.336.2a1.617,1.617,0,0,0-.051-.221" transform="translate(-121.376 -158.808)" fill="#fff"/><path d="M122.43,161.234l.336-.2a1.289,1.289,0,0,1,.016.2v0l-.336.2v0a1.291,1.291,0,0,0-.016-.2" transform="translate(-121.603 -159.78)" fill="#fff"/><path d="M122.421,162.35l.336-.2a.926.926,0,0,1-.022.2l-.336.2a.923.923,0,0,0,.022-.2" transform="translate(-121.577 -160.69)" fill="#fff"/><path d="M121.411,163.45l.336-.2a.5.5,0,0,1-.225.337l-.336.2a.5.5,0,0,0,.225-.337" transform="translate(-120.589 -161.586)" fill="#fff"/></g></g><g clip-path="url(#c)"><path d="M114.224,154.793a1.86,1.86,0,0,1,.844,1.462c0,.538-.381.754-.849.484a1.859,1.859,0,0,1-.844-1.462c0-.537.382-.754.849-.484" transform="translate(-92.38 -126.033)" fill="#252529"/><path d="M114.7,156.9l.219-.128a.389.389,0,0,1,.393.039l-.219.128a.389.389,0,0,0-.393-.039" transform="translate(-93.462 -127.709)" fill="#fff"/></g><g transform="translate(21.241 29.025)"><g clip-path="url(#av)"><path d="M114.7,156.9l.219-.128a.292.292,0,0,1,.17-.036l-.219.127a.294.294,0,0,0-.17.036" transform="translate(-114.703 -156.734)" fill="#fff"/><path d="M115.619,156.867l.219-.128a.445.445,0,0,1,.116.025l-.219.127a.447.447,0,0,0-.116-.025" transform="translate(-115.449 -156.738)" fill="#fff"/><path d="M116.247,157l.219-.128a.64.64,0,0,1,.107.05l-.219.128a.637.637,0,0,0-.107-.05" transform="translate(-115.961 -156.848)" fill="#fff"/></g></g><g clip-path="url(#c)"><path d="M117.433,158.451l-.219.128a.386.386,0,0,0,.161-.354,1.213,1.213,0,0,0-.55-.953l.22-.128a1.213,1.213,0,0,1,.55.953.386.386,0,0,1-.161.354" transform="translate(-95.19 -128.043)" fill="#fff"/></g><g transform="translate(21.634 29.101)"><g clip-path="url(#ax)"><path d="M116.824,157.271l.219-.128.005,0-.219.128-.005,0" transform="translate(-116.824 -157.143)" fill="#fff"/><path d="M116.854,157.288l.219-.128a.875.875,0,0,1,.12.086l-.219.127a.886.886,0,0,0-.12-.085" transform="translate(-116.849 -157.157)" fill="#fff"/><path d="M117.5,157.749l.219-.128a1.109,1.109,0,0,1,.116.114l-.219.128a1.07,1.07,0,0,0-.116-.114" transform="translate(-117.374 -157.533)" fill="#fff"/><path d="M118.127,158.368l.219-.128a1.336,1.336,0,0,1,.214.336l-.22.128a1.325,1.325,0,0,0-.214-.336" transform="translate(-117.886 -158.037)" fill="#fff"/><path d="M119.28,160.182l.219-.128a1.23,1.23,0,0,1,.051.137l-.219.128a1.217,1.217,0,0,0-.051-.137" transform="translate(-118.825 -159.515)" fill="#fff"/><path d="M119.557,160.921l.219-.128a1.057,1.057,0,0,1,.034.144l-.219.128a1.056,1.056,0,0,0-.034-.144" transform="translate(-119.051 -160.117)" fill="#fff"/><path d="M119.738,161.7l.219-.128a.845.845,0,0,1,.011.133v0l-.219.128v0a.868.868,0,0,0-.011-.133" transform="translate(-119.199 -160.751)" fill="#fff"/><path d="M119.732,162.427l.219-.128a.6.6,0,0,1-.014.133l-.219.128a.6.6,0,0,0,.014-.133" transform="translate(-119.182 -161.344)" fill="#fff"/><path d="M119.073,163.145l.219-.128a.326.326,0,0,1-.147.22l-.219.128a.326.326,0,0,0,.147-.22" transform="translate(-118.537 -161.929)" fill="#fff"/></g></g><g clip-path="url(#c)"><path d="M114.387,157.5a1.213,1.213,0,0,1,.55.953c0,.351-.249.492-.554.316a1.212,1.212,0,0,1-.55-.953c0-.35.249-.492.554-.316" transform="translate(-92.753 -128.271)" fill="#252529"/><path d="M76.782,132.454l.336-.2a.6.6,0,0,1,.6.059l-.336.2a.6.6,0,0,0-.6-.059" transform="translate(-62.563 -107.72)" fill="#fff"/></g><g transform="translate(14.219 24.482)"><g clip-path="url(#az)"><path d="M76.782,132.454l.336-.2a.448.448,0,0,1,.26-.056l-.336.2a.448.448,0,0,0-.26.056" transform="translate(-76.782 -132.202)" fill="#fff"/><path d="M78.187,132.4l.336-.2a.673.673,0,0,1,.178.039l-.336.2a.68.68,0,0,0-.178-.038" transform="translate(-77.927 -132.208)" fill="#fff"/><path d="M79.149,132.612l.336-.2a.978.978,0,0,1,.164.076l-.336.2a.972.972,0,0,0-.164-.076" transform="translate(-78.711 -132.376)" fill="#fff"/></g></g><g clip-path="url(#c)"><path d="M80.968,134.834l-.336.2a.593.593,0,0,0,.247-.543,1.86,1.86,0,0,0-.844-1.461l.336-.2a1.86,1.86,0,0,1,.844,1.461.593.593,0,0,1-.247.543" transform="translate(-65.213 -108.231)" fill="#fff"/></g><g transform="translate(14.821 24.598)"><g clip-path="url(#bb)"><path d="M80.035,133.025l.336-.2.008,0-.336.2-.008,0" transform="translate(-80.035 -132.829)" fill="#fff"/><path d="M80.079,133.051l.336-.2a1.333,1.333,0,0,1,.183.131l-.336.2a1.326,1.326,0,0,0-.183-.131" transform="translate(-80.071 -132.85)" fill="#fff"/><path d="M81.07,133.758l.336-.2a1.677,1.677,0,0,1,.178.176l-.336.2a1.676,1.676,0,0,0-.178-.176" transform="translate(-80.878 -133.426)" fill="#fff"/><path d="M82.032,134.706l.336-.2a2.036,2.036,0,0,1,.328.515l-.337.2a2.034,2.034,0,0,0-.327-.515" transform="translate(-81.662 -134.199)" fill="#fff"/><path d="M83.8,137.488l.336-.2a1.874,1.874,0,0,1,.079.21l-.336.2a1.876,1.876,0,0,0-.079-.21" transform="translate(-83.103 -136.466)" fill="#fff"/><path d="M84.225,138.622l.336-.2a1.616,1.616,0,0,1,.051.221l-.336.2a1.619,1.619,0,0,0-.051-.221" transform="translate(-83.449 -137.39)" fill="#fff"/><path d="M84.5,139.815l.336-.2a1.29,1.29,0,0,1,.016.2v0l-.336.2v0a1.289,1.289,0,0,0-.016-.2" transform="translate(-83.675 -138.362)" fill="#fff"/><path d="M84.494,140.931l.336-.2a.935.935,0,0,1-.022.2l-.336.2a.936.936,0,0,0,.022-.2" transform="translate(-83.65 -139.271)" fill="#fff"/><path d="M83.483,142.031l.336-.2a.5.5,0,0,1-.225.337l-.336.2a.5.5,0,0,0,.225-.337" transform="translate(-82.661 -140.167)" fill="#fff"/></g></g><g clip-path="url(#c)"><path d="M76.3,133.374a1.859,1.859,0,0,1,.844,1.462c0,.538-.381.754-.849.484a1.859,1.859,0,0,1-.844-1.462c0-.537.381-.754.849-.484" transform="translate(-61.476 -108.581)" fill="#252529"/><path d="M76.776,135.48l.219-.128a.389.389,0,0,1,.393.039l-.219.128a.389.389,0,0,0-.393-.039" transform="translate(-62.558 -110.257)" fill="#fff"/></g><g transform="translate(14.218 25.058)"><g clip-path="url(#bd)"><path d="M76.776,135.48l.219-.128a.292.292,0,0,1,.17-.036l-.219.127a.292.292,0,0,0-.17.036" transform="translate(-76.776 -135.315)" fill="#fff"/><path d="M77.692,135.448l.219-.128a.447.447,0,0,1,.116.025l-.219.127a.445.445,0,0,0-.116-.025" transform="translate(-77.522 -135.319)" fill="#fff"/><path d="M78.32,135.583l.219-.128a.638.638,0,0,1,.107.05l-.219.128a.636.636,0,0,0-.107-.05" transform="translate(-78.034 -135.429)" fill="#fff"/></g></g><g clip-path="url(#c)"><path d="M79.505,137.032l-.219.127a.386.386,0,0,0,.161-.354,1.212,1.212,0,0,0-.55-.953l.22-.128a1.214,1.214,0,0,1,.55.953.387.387,0,0,1-.161.354" transform="translate(-64.286 -110.59)" fill="#fff"/></g><g transform="translate(14.61 25.134)"><g clip-path="url(#bf)"><path d="M78.9,135.852l.219-.128.005,0-.219.128-.005,0" transform="translate(-78.897 -135.724)" fill="#fff"/><path d="M78.926,135.869l.219-.128a.887.887,0,0,1,.12.085l-.219.128a.885.885,0,0,0-.12-.085" transform="translate(-78.921 -135.738)" fill="#fff"/><path d="M79.572,136.33l.219-.128a1.073,1.073,0,0,1,.116.115l-.219.127a1.089,1.089,0,0,0-.116-.114" transform="translate(-79.447 -136.113)" fill="#fff"/><path d="M80.2,136.949l.219-.128a1.32,1.32,0,0,1,.214.336l-.219.128a1.33,1.33,0,0,0-.214-.336" transform="translate(-79.959 -136.618)" fill="#fff"/><path d="M81.353,138.763l.219-.128a1.232,1.232,0,0,1,.051.137l-.219.128a1.218,1.218,0,0,0-.051-.137" transform="translate(-80.898 -138.096)" fill="#fff"/><path d="M81.63,139.5l.219-.128a1.058,1.058,0,0,1,.034.144l-.219.128a1.06,1.06,0,0,0-.034-.144" transform="translate(-81.124 -138.698)" fill="#fff"/><path d="M81.811,140.28l.219-.128a.867.867,0,0,1,.011.133v0l-.219.128v0a.869.869,0,0,0-.011-.133" transform="translate(-81.271 -139.332)" fill="#fff"/><path d="M81.805,141.008l.219-.128a.6.6,0,0,1-.014.133l-.219.128a.6.6,0,0,0,.014-.133" transform="translate(-81.255 -139.925)" fill="#fff"/><path d="M81.146,141.726l.219-.128a.326.326,0,0,1-.147.22l-.219.128a.327.327,0,0,0,.147-.22" transform="translate(-80.61 -140.51)" fill="#fff"/></g></g><g clip-path="url(#c)"><path d="M76.46,136.08a1.213,1.213,0,0,1,.55.953c0,.351-.249.492-.554.316a1.212,1.212,0,0,1-.55-.953c0-.35.249-.492.554-.316" transform="translate(-61.849 -110.818)" fill="#252529"/><path d="M39.7,111.135l.336-.2a.6.6,0,0,1,.6.059l-.336.2a.6.6,0,0,0-.6-.059" transform="translate(-32.35 -90.349)" fill="#fff"/></g><g transform="translate(7.352 20.534)"><g clip-path="url(#bh)"><path d="M39.7,111.135l.336-.2a.448.448,0,0,1,.26-.056l-.336.2a.448.448,0,0,0-.26.056" transform="translate(-39.702 -110.883)" fill="#fff"/><path d="M41.107,111.085l.336-.2a.677.677,0,0,1,.178.038l-.336.2a.678.678,0,0,0-.178-.038" transform="translate(-40.847 -110.888)" fill="#fff"/><path d="M42.069,111.293l.336-.2a.978.978,0,0,1,.164.076l-.336.2a.977.977,0,0,0-.164-.076" transform="translate(-41.631 -111.057)" fill="#fff"/></g></g><g clip-path="url(#c)"><path d="M43.888,113.515l-.336.2a.593.593,0,0,0,.247-.543,1.86,1.86,0,0,0-.844-1.462l.336-.2a1.86,1.86,0,0,1,.844,1.462.593.593,0,0,1-.247.543" transform="translate(-35 -90.86)" fill="#fff"/></g><g transform="translate(7.954 20.65)"><g clip-path="url(#bj)"><path d="M42.954,111.7l.336-.2.008,0-.336.2-.008,0" transform="translate(-42.954 -111.509)" fill="#fff"/><path d="M43,111.731l.336-.2a1.315,1.315,0,0,1,.183.131l-.336.2a1.327,1.327,0,0,0-.183-.131" transform="translate(-42.991 -111.53)" fill="#fff"/><path d="M43.99,112.439l.336-.2a1.675,1.675,0,0,1,.178.176l-.336.2a1.675,1.675,0,0,0-.178-.176" transform="translate(-43.798 -112.107)" fill="#fff"/><path d="M44.952,113.387l.336-.2a2.03,2.03,0,0,1,.327.515l-.336.2a2.036,2.036,0,0,0-.328-.515" transform="translate(-44.582 -112.88)" fill="#fff"/><path d="M46.72,116.168l.336-.2a1.873,1.873,0,0,1,.079.21l-.336.2a1.873,1.873,0,0,0-.079-.21" transform="translate(-46.023 -115.146)" fill="#fff"/><path d="M47.144,117.3l.336-.2a1.611,1.611,0,0,1,.051.221l-.336.2a1.612,1.612,0,0,0-.051-.221" transform="translate(-46.368 -116.07)" fill="#fff"/><path d="M47.423,118.5l.336-.2a1.29,1.29,0,0,1,.016.2v0l-.336.2v0a1.289,1.289,0,0,0-.016-.2" transform="translate(-46.595 -117.042)" fill="#fff"/><path d="M47.414,119.611l.336-.2a.936.936,0,0,1-.022.2l-.336.2a.936.936,0,0,0,.022-.2" transform="translate(-46.57 -117.951)" fill="#fff"/><path d="M46.4,120.712l.336-.2a.5.5,0,0,1-.225.337l-.336.2a.5.5,0,0,0,.225-.337" transform="translate(-45.581 -118.848)" fill="#fff"/></g></g><g clip-path="url(#c)"><path d="M39.217,112.054a1.86,1.86,0,0,1,.844,1.462c0,.538-.381.754-.849.484a1.859,1.859,0,0,1-.844-1.462c0-.537.381-.754.849-.484" transform="translate(-31.263 -91.209)" fill="#252529"/><path d="M39.695,114.161l.22-.128a.389.389,0,0,1,.393.039l-.219.128a.389.389,0,0,0-.393-.039" transform="translate(-32.344 -92.885)" fill="#fff"/></g><g transform="translate(7.351 21.11)"><g clip-path="url(#bl)"><path d="M39.695,114.161l.22-.128a.292.292,0,0,1,.17-.036l-.22.127a.293.293,0,0,0-.17.036" transform="translate(-39.695 -113.996)" fill="#fff"/><path d="M40.612,114.128l.219-.128a.446.446,0,0,1,.116.025l-.219.127a.445.445,0,0,0-.116-.025" transform="translate(-40.442 -113.999)" fill="#fff"/><path d="M41.239,114.264l.219-.128a.637.637,0,0,1,.107.05l-.219.128a.638.638,0,0,0-.107-.05" transform="translate(-40.953 -114.11)" fill="#fff"/></g></g><g clip-path="url(#c)"><path d="M42.425,115.713l-.219.128a.387.387,0,0,0,.161-.354,1.213,1.213,0,0,0-.55-.953l.219-.128a1.213,1.213,0,0,1,.55.953.386.386,0,0,1-.161.354" transform="translate(-34.072 -93.219)" fill="#fff"/></g><g transform="translate(7.744 21.186)"><g clip-path="url(#bn)"><path d="M41.817,114.533l.219-.128.005,0-.219.128-.005,0" transform="translate(-41.817 -114.405)" fill="#fff"/><path d="M41.846,114.55l.219-.128a.872.872,0,0,1,.12.086l-.219.127a.886.886,0,0,0-.12-.085" transform="translate(-41.841 -114.419)" fill="#fff"/><path d="M42.492,115.011l.219-.128a1.093,1.093,0,0,1,.116.115l-.219.127a1.107,1.107,0,0,0-.116-.114" transform="translate(-42.367 -114.794)" fill="#fff"/><path d="M43.119,115.629l.219-.128a1.328,1.328,0,0,1,.214.336l-.219.127a1.33,1.33,0,0,0-.214-.336" transform="translate(-42.878 -115.298)" fill="#fff"/><path d="M44.273,117.443l.219-.128a1.23,1.23,0,0,1,.051.137l-.219.128a1.215,1.215,0,0,0-.051-.137" transform="translate(-43.818 -116.776)" fill="#fff"/><path d="M44.549,118.183l.22-.128a1.124,1.124,0,0,1,.034.144l-.22.128a1.032,1.032,0,0,0-.034-.144" transform="translate(-44.043 -117.379)" fill="#fff"/><path d="M44.731,118.961l.219-.128a.868.868,0,0,1,.011.133v0l-.219.128v0a.867.867,0,0,0-.011-.133" transform="translate(-44.191 -118.013)" fill="#fff"/><path d="M44.725,119.689l.219-.128a.6.6,0,0,1-.014.133l-.219.128a.6.6,0,0,0,.014-.133" transform="translate(-44.175 -118.606)" fill="#fff"/><path d="M44.066,120.407l.219-.128a.326.326,0,0,1-.147.22l-.219.128a.327.327,0,0,0,.147-.22" transform="translate(-43.53 -119.191)" fill="#fff"/></g></g><g clip-path="url(#c)"><path d="M39.38,114.761a1.213,1.213,0,0,1,.55.953c0,.351-.249.492-.554.316a1.212,1.212,0,0,1-.55-.953c0-.35.249-.492.554-.316" transform="translate(-31.636 -93.447)" fill="#252529"/><path d="M4.863,90.181l.336-.2a.6.6,0,0,1,.6.059l-.336.2a.6.6,0,0,0-.6-.059" transform="translate(-3.962 -73.275)" fill="#fff"/></g><g transform="translate(0.901 16.653)"><g clip-path="url(#bp)"><path d="M4.863,90.181l.336-.2a.448.448,0,0,1,.26-.056l-.336.2a.448.448,0,0,0-.26.056" transform="translate(-4.863 -89.929)" fill="#fff"/><path d="M6.268,90.132l.336-.2a.68.68,0,0,1,.178.038l-.336.2a.68.68,0,0,0-.178-.038" transform="translate(-6.008 -89.935)" fill="#fff"/><path d="M7.231,90.339l.336-.2a.977.977,0,0,1,.164.076l-.336.2a.984.984,0,0,0-.164-.076" transform="translate(-6.793 -90.103)" fill="#fff"/></g></g><g clip-path="url(#c)"><path d="M9.05,92.561l-.336.2a.593.593,0,0,0,.247-.543,1.86,1.86,0,0,0-.844-1.461l.336-.2A1.86,1.86,0,0,1,9.3,92.017a.593.593,0,0,1-.247.543" transform="translate(-6.613 -73.786)" fill="#fff"/></g><g transform="translate(1.503 16.77)"><g clip-path="url(#br)"><path d="M8.116,90.752l.336-.2.008,0-.336.2-.008,0" transform="translate(-8.116 -90.556)" fill="#fff"/><path d="M8.161,90.778l.336-.2a1.332,1.332,0,0,1,.183.131l-.336.2a1.328,1.328,0,0,0-.183-.131" transform="translate(-8.153 -90.577)" fill="#fff"/><path d="M9.151,91.485l.336-.2a1.675,1.675,0,0,1,.178.176l-.336.2a1.675,1.675,0,0,0-.178-.176" transform="translate(-8.959 -91.153)" fill="#fff"/><path d="M10.113,92.433l.336-.2a2.035,2.035,0,0,1,.327.515l-.336.2a2.036,2.036,0,0,0-.328-.515" transform="translate(-9.743 -91.926)" fill="#fff"/><path d="M11.882,95.215l.336-.2a1.887,1.887,0,0,1,.079.21l-.336.2a1.873,1.873,0,0,0-.079-.21" transform="translate(-11.185 -94.193)" fill="#fff"/><path d="M12.306,96.349l.336-.2a1.647,1.647,0,0,1,.052.221l-.336.2a1.647,1.647,0,0,0-.052-.221" transform="translate(-11.53 -95.117)" fill="#fff"/><path d="M12.584,97.542l.336-.2a1.289,1.289,0,0,1,.016.2v0l-.336.2v0a1.289,1.289,0,0,0-.016-.2" transform="translate(-11.757 -96.089)" fill="#fff"/><path d="M12.576,98.658l.336-.2a.934.934,0,0,1-.022.2l-.336.2a.934.934,0,0,0,.022-.2" transform="translate(-11.732 -96.998)" fill="#fff"/><path d="M11.565,99.758l.336-.2a.5.5,0,0,1-.225.337l-.336.2a.5.5,0,0,0,.225-.337" transform="translate(-10.743 -97.894)" fill="#fff"/></g></g><g clip-path="url(#c)"><path d="M4.378,91.1a1.86,1.86,0,0,1,.844,1.462c0,.538-.381.754-.849.484a1.859,1.859,0,0,1-.844-1.462c0-.537.381-.754.849-.484" transform="translate(-2.875 -74.136)" fill="#252529"/><path d="M4.857,93.208l.219-.128a.39.39,0,0,1,.393.039l-.219.128a.389.389,0,0,0-.393-.039" transform="translate(-3.958 -75.813)" fill="#fff"/></g><g transform="translate(0.899 17.23)"><g clip-path="url(#bt)"><path d="M4.857,93.208l.219-.128a.292.292,0,0,1,.17-.036l-.219.127a.294.294,0,0,0-.17.036" transform="translate(-4.857 -93.043)" fill="#fff"/><path d="M5.773,93.175l.219-.128a.446.446,0,0,1,.116.025l-.219.127a.445.445,0,0,0-.116-.025" transform="translate(-5.603 -93.046)" fill="#fff"/><path d="M6.4,93.31l.219-.128a.624.624,0,0,1,.107.05l-.219.127a.638.638,0,0,0-.107-.05" transform="translate(-6.115 -93.156)" fill="#fff"/></g></g><g clip-path="url(#c)"><path d="M7.587,94.759l-.219.128a.387.387,0,0,0,.161-.354,1.213,1.213,0,0,0-.55-.953l.219-.128a1.213,1.213,0,0,1,.55.953.386.386,0,0,1-.161.354" transform="translate(-5.686 -76.145)" fill="#fff"/></g><g transform="translate(1.292 17.306)"><g clip-path="url(#bv)"><path d="M6.978,93.579l.219-.128.005,0-.219.128-.005,0" transform="translate(-6.978 -93.451)" fill="#fff"/><path d="M7.008,93.6l.219-.128a.872.872,0,0,1,.12.086l-.219.127a.887.887,0,0,0-.12-.085" transform="translate(-7.003 -93.465)" fill="#fff"/><path d="M7.654,94.058l.219-.128a1.075,1.075,0,0,1,.116.115l-.219.127a1.091,1.091,0,0,0-.116-.114" transform="translate(-7.529 -93.841)" fill="#fff"/><path d="M8.281,94.676l.219-.128a1.331,1.331,0,0,1,.214.336l-.219.128a1.331,1.331,0,0,0-.214-.336" transform="translate(-8.04 -94.345)" fill="#fff"/><path d="M9.434,96.49l.219-.128A1.229,1.229,0,0,1,9.7,96.5l-.219.128a1.216,1.216,0,0,0-.051-.137" transform="translate(-8.979 -95.823)" fill="#fff"/><path d="M9.711,97.23,9.93,97.1a1.054,1.054,0,0,1,.034.144l-.219.127a1.058,1.058,0,0,0-.034-.144" transform="translate(-9.205 -96.426)" fill="#fff"/><path d="M9.893,98.008l.219-.128a.868.868,0,0,1,.011.133v0l-.219.128v0a.867.867,0,0,0-.011-.133" transform="translate(-9.353 -97.06)" fill="#fff"/><path d="M9.886,98.735l.219-.128a.6.6,0,0,1-.014.133l-.219.127a.6.6,0,0,0,.014-.133" transform="translate(-9.336 -97.652)" fill="#fff"/><path d="M9.228,99.453l.219-.128a.326.326,0,0,1-.147.22l-.219.128a.327.327,0,0,0,.147-.22" transform="translate(-8.692 -98.237)" fill="#fff"/></g></g><g clip-path="url(#c)"><path d="M4.541,93.807a1.213,1.213,0,0,1,.55.953c0,.351-.249.492-.554.316a1.212,1.212,0,0,1-.55-.953c0-.35.249-.492.554-.316" transform="translate(-3.249 -76.374)" fill="#252529"/><path d="M175.245,154.786v-.27a.419.419,0,0,0,.247.345v.269a.419.419,0,0,1-.247-.345" transform="translate(-142.792 -125.902)" fill="#252529"/></g><g transform="translate(32.453 28.614)"><g clip-path="url(#bx)"><path d="M175.494,154.862v.269a.419.419,0,0,1-.247-.345v-.269a.419.419,0,0,0,.247.345" transform="translate(-175.246 -154.517)" fill="#252529"/></g></g><g clip-path="url(#c)"><path d="M219.29,161.042v.27a.415.415,0,0,1-.243.34v-.269a.416.416,0,0,0,.243-.34" transform="translate(-178.482 -131.22)" fill="#252529"/></g><g transform="translate(40.564 29.822)"><g clip-path="url(#bz)"><path d="M220.334,161.042v.27a.279.279,0,0,1-.006.055V161.1a.28.28,0,0,0,.006-.055" transform="translate(-220.091 -161.042)" fill="#252529"/><path d="M219.328,161.341v.269a.445.445,0,0,1-.227.279v-.27a.445.445,0,0,0,.227-.279" transform="translate(-219.09 -161.286)" fill="#252529"/><path d="M219.056,162.847v.27l-.01.006v-.269l.01-.006" transform="translate(-219.045 -162.513)" fill="#252529"/></g></g><g clip-path="url(#c)"><path d="M208.963,162.88v.269l-2.292,1.332v-.27Z" transform="translate(-168.398 -132.717)" fill="#252529"/><path d="M180.971,158.915v.269l-4.391-2.535v-.269Z" transform="translate(-143.879 -127.421)" fill="#252529"/><path d="M201.475,170.071v.269a1.3,1.3,0,0,1-1.181,0v-.269a1.3,1.3,0,0,0,1.181,0" transform="translate(-163.202 -138.577)" fill="#252529"/></g><g transform="translate(37.091 31.494)"><g clip-path="url(#cb)"><path d="M205.867,170.071v.269a.946.946,0,0,1-.183.081v-.269a.946.946,0,0,0,.183-.081" transform="translate(-204.685 -170.071)" fill="#252529"/><path d="M203.372,170.505v.269a1.371,1.371,0,0,1-.525.056v-.27a1.369,1.369,0,0,0,.525-.056" transform="translate(-202.373 -170.425)" fill="#252529"/><path d="M200.767,170.208v.27a1.148,1.148,0,0,1-.473-.137v-.27a1.146,1.146,0,0,0,.473.137" transform="translate(-200.293 -170.071)" fill="#252529"/></g></g><g clip-path="url(#c)"><path d="M183.358,147.4a.362.362,0,0,1,0,.685l-2.291,1.332a1.3,1.3,0,0,1-1.181,0l-4.391-2.535a.362.362,0,0,1,0-.685l2.292-1.332a1.3,1.3,0,0,1,1.182,0Z" transform="translate(-142.796 -117.926)" fill="#fff"/><path d="M181.835,148.558l.12.07.8-.464-.12-.07Z" transform="translate(-148.162 -120.669)" fill="#424242"/><path d="M179.144,153.872l-.7.408-1.148-.663.7-.408Z" transform="translate(-144.462 -124.837)" fill="#686868"/><path d="M196.365,153.039l-.7.408-1.148-.663.7-.408Z" transform="translate(-158.493 -124.158)" fill="#686868"/><path d="M200.625,150.8l-.343.2-.562-.325.343-.2Z" transform="translate(-162.735 -122.614)" fill="#686868"/><path d="M204.593,153.111l-.343.2-.562-.325.343-.2Z" transform="translate(-165.968 -124.493)" fill="#686868"/><path d="M190.052,154.523l-.539.313-.881-.509.539-.313Z" transform="translate(-153.701 -125.494)" fill="#686868"/><path d="M195.966,157.648l-.539.313-.881-.509.539-.313Z" transform="translate(-158.519 -128.04)" fill="#686868"/><path d="M193.94,163.521l-.435.253-.712-.411.435-.253Z" transform="translate(-157.091 -132.904)" fill="#686868"/><path d="M214.212,158.685l-.435.253-.712-.411.435-.253Z" transform="translate(-173.609 -128.964)" fill="#686868"/><path d="M208.781,155.633l-.436.253-.712-.411.436-.253Z" transform="translate(-169.183 -126.477)" fill="#686868"/><path d="M212.952,160.868l-.31.18-.507-.292.31-.18Z" transform="translate(-172.852 -130.84)" fill="#686868"/><path d="M210.683,162.3l-.31.18-.507-.293.31-.18Z" transform="translate(-171.003 -132.005)" fill="#686868"/><path d="M208.452,163.469l-.31.18-.507-.293.31-.18Z" transform="translate(-169.185 -132.959)" fill="#686868"/><path d="M186.744,157.514l-.9.524-1.474-.851.9-.524Z" transform="translate(-150.226 -127.651)" fill="#686868"/><path d="M191.351,146.666l-.792.46-1.295-.748.792-.46Z" transform="translate(-154.215 -118.896)" fill="#686868"/><path d="M203.828,157.026l-.792.46-1.295-.748.792-.46Z" transform="translate(-164.382 -127.338)" fill="#686868"/><path d="M196.813,161.874l-.26.151-.352-.2.26-.151Z" transform="translate(-159.868 -131.732)" fill="#686868"/><path d="M199.172,163.286l-.26.151-.352-.2.26-.151Z" transform="translate(-161.79 -132.882)" fill="#686868"/><path d="M200.5,161.229l-.337.2-.455-.263.337-.2Z" transform="translate(-162.725 -131.158)" fill="#686868"/><path d="M202.4,160.265l-.208.121-.28-.162.208-.121Z" transform="translate(-164.525 -130.455)" fill="#686868"/><path d="M204.489,161.555l-.207.12-.28-.162.207-.12Z" transform="translate(-166.224 -131.505)" fill="#686868"/><path d="M202.332,163.885l-.207.12-.281-.162.207-.12Z" transform="translate(-164.466 -133.404)" fill="#686868"/><path d="M203.943,163.018l-.208.121-.281-.162.208-.121Z" transform="translate(-165.778 -132.697)" fill="#686868"/><path d="M206.659,162.742l-.136.079-.17-.1.136-.079Z" transform="translate(-168.14 -132.525)" fill="#686868"/><path d="M199.122,165.8l-.586.34-.958-.553.586-.341Z" transform="translate(-160.99 -134.647)" fill="#686868"/><path d="M204.758,164.734l-.391.227-.638-.368.391-.227Z" transform="translate(-166.002 -133.927)" fill="#686868"/><path d="M183.451,151.3l-.57.331-.933-.539.57-.331Z" transform="translate(-148.254 -122.844)" fill="#686868"/><path d="M187.422,149.269l-.351.2-.575-.332.351-.2Z" transform="translate(-151.96 -121.356)" fill="#686868"/><path d="M191.365,151.674l-.351.2-.575-.332.351-.2Z" transform="translate(-155.173 -123.316)" fill="#686868"/><path d="M217.381,177.844v-.269a.419.419,0,0,0,.247.345v.269a.419.419,0,0,1-.247-.345" transform="translate(-177.125 -144.691)" fill="#252529"/></g><g transform="translate(40.256 32.884)"><g clip-path="url(#cd)"><path d="M217.629,177.92v.269a.419.419,0,0,1-.247-.345v-.269a.419.419,0,0,0,.247.345" transform="translate(-217.381 -177.575)" fill="#252529"/></g></g><g clip-path="url(#c)"><path d="M261.425,184.1v.269a.416.416,0,0,1-.243.34v-.27a.415.415,0,0,0,.243-.34" transform="translate(-212.814 -150.008)" fill="#252529"/></g><g transform="translate(48.367 34.092)"><g clip-path="url(#cf)"><path d="M262.469,184.1v.269a.3.3,0,0,1-.006.055v-.269a.28.28,0,0,0,.006-.055" transform="translate(-262.226 -184.1)" fill="#252529"/><path d="M261.464,184.4v.269a.445.445,0,0,1-.227.279v-.269a.445.445,0,0,0,.227-.279" transform="translate(-261.226 -184.344)" fill="#252529"/><path d="M261.192,185.9v.269l-.01.006v-.27l.01-.006" transform="translate(-261.181 -185.571)" fill="#252529"/></g></g><g clip-path="url(#c)"><path d="M251.1,185.937v.269l-2.292,1.332v-.27Z" transform="translate(-202.731 -151.505)" fill="#252529"/><path d="M223.106,181.973v.269l-4.391-2.535v-.269Z" transform="translate(-178.212 -146.209)" fill="#252529"/><path d="M243.61,193.129v.269a1.3,1.3,0,0,1-1.181,0v-.269a1.3,1.3,0,0,0,1.181,0" transform="translate(-197.534 -157.365)" fill="#252529"/></g><g transform="translate(44.894 35.764)"><g clip-path="url(#ch)"><path d="M248,193.129v.269a.948.948,0,0,1-.183.081v-.269a.945.945,0,0,0,.183-.081" transform="translate(-246.82 -193.129)" fill="#252529"/><path d="M245.508,193.563v.269a1.37,1.37,0,0,1-.525.057v-.27a1.37,1.37,0,0,0,.525-.056" transform="translate(-244.509 -193.483)" fill="#252529"/><path d="M242.9,193.266v.269a1.145,1.145,0,0,1-.473-.137v-.269a1.146,1.146,0,0,0,.473.137" transform="translate(-242.428 -193.129)" fill="#252529"/></g></g><g clip-path="url(#c)"><path d="M225.493,170.462a.362.362,0,0,1,0,.684l-2.291,1.332a1.3,1.3,0,0,1-1.181,0l-4.392-2.535a.362.362,0,0,1,0-.685l2.291-1.332a1.3,1.3,0,0,1,1.183,0Z" transform="translate(-177.129 -136.714)" fill="#fff"/><path d="M223.971,171.616l.12.07.8-.464-.12-.07Z" transform="translate(-182.495 -139.458)" fill="#424242"/><path d="M221.279,176.929l-.7.408-1.148-.663.7-.408Z" transform="translate(-178.794 -143.625)" fill="#686868"/><path d="M238.5,176.1l-.7.408-1.148-.663.7-.408Z" transform="translate(-192.826 -142.946)" fill="#686868"/><path d="M242.761,173.863l-.343.2-.562-.325.343-.2Z" transform="translate(-197.068 -141.402)" fill="#686868"/><path d="M246.728,176.169l-.343.2-.562-.325.343-.2Z" transform="translate(-200.3 -143.281)" fill="#686868"/><path d="M232.188,177.581l-.539.313-.881-.509.539-.313Z" transform="translate(-188.033 -144.282)" fill="#686868"/><path d="M238.1,180.706l-.539.313-.881-.509.539-.313Z" transform="translate(-192.852 -146.827)" fill="#686868"/><path d="M236.076,186.579l-.435.253-.712-.411.435-.253Z" transform="translate(-191.424 -151.692)" fill="#686868"/><path d="M256.348,181.743l-.435.253-.712-.411.435-.253Z" transform="translate(-207.942 -147.752)" fill="#686868"/><path d="M250.916,178.69l-.436.253-.712-.411.436-.253Z" transform="translate(-203.516 -145.265)" fill="#686868"/><path d="M255.088,183.926l-.31.18-.507-.293.31-.18Z" transform="translate(-207.184 -149.628)" fill="#686868"/><path d="M252.819,185.357l-.31.18-.507-.293.31-.18Z" transform="translate(-205.335 -150.793)" fill="#686868"/><path d="M250.588,186.527l-.31.18-.507-.293.31-.18Z" transform="translate(-203.518 -151.747)" fill="#686868"/><path d="M228.879,180.572l-.9.524-1.474-.851.9-.524Z" transform="translate(-184.558 -146.439)" fill="#686868"/><path d="M233.486,169.723l-.792.46-1.295-.748.792-.46Z" transform="translate(-188.548 -137.684)" fill="#686868"/><path d="M245.963,180.083l-.792.46-1.295-.747.792-.46Z" transform="translate(-198.714 -146.126)" fill="#686868"/><path d="M238.948,184.932l-.26.151-.352-.2.26-.151Z" transform="translate(-194.2 -150.52)" fill="#686868"/><path d="M241.308,186.344l-.26.151-.352-.2.26-.151Z" transform="translate(-196.123 -151.67)" fill="#686868"/><path d="M242.636,184.287l-.337.2-.455-.263.337-.2Z" transform="translate(-197.058 -149.946)" fill="#686868"/><path d="M244.54,183.323l-.208.121-.28-.162.208-.121Z" transform="translate(-198.858 -149.243)" fill="#686868"/><path d="M246.624,184.612l-.207.12-.28-.162.207-.12Z" transform="translate(-200.556 -150.293)" fill="#686868"/><path d="M244.468,186.943l-.207.12-.281-.162.207-.12Z" transform="translate(-198.799 -152.192)" fill="#686868"/><path d="M246.078,186.076l-.208.121-.281-.162.208-.121Z" transform="translate(-200.111 -151.485)" fill="#686868"/><path d="M248.794,185.8l-.136.079-.17-.1.136-.079Z" transform="translate(-202.472 -151.313)" fill="#686868"/><path d="M241.257,188.86l-.586.34-.958-.553.586-.341Z" transform="translate(-195.322 -153.435)" fill="#686868"/><path d="M246.894,187.791l-.391.227-.638-.368.391-.227Z" transform="translate(-200.334 -152.715)" fill="#686868"/><path d="M225.587,174.36l-.57.331-.933-.539.571-.331Z" transform="translate(-182.587 -141.632)" fill="#686868"/><path d="M229.558,172.327l-.351.2-.575-.332.351-.2Z" transform="translate(-186.293 -140.144)" fill="#686868"/><path d="M233.5,174.732l-.351.2-.575-.332.351-.2Z" transform="translate(-189.506 -142.104)" fill="#686868"/><path d="M134.44,131.16v-.27a.419.419,0,0,0,.247.345v.269a.419.419,0,0,1-.247-.345" transform="translate(-109.544 -106.651)" fill="#252529"/></g><g transform="translate(24.896 24.239)"><g clip-path="url(#cj)"><path d="M134.688,131.236v.269a.419.419,0,0,1-.247-.345v-.269a.419.419,0,0,0,.247.345" transform="translate(-134.44 -130.891)" fill="#252529"/></g></g><g clip-path="url(#c)"><path d="M178.483,137.416v.27a.415.415,0,0,1-.243.34v-.269a.416.416,0,0,0,.243-.34" transform="translate(-145.232 -111.969)" fill="#252529"/></g><g transform="translate(33.007 25.447)"><g clip-path="url(#cl)"><path d="M179.528,137.416v.27a.3.3,0,0,1-.006.055v-.27a.279.279,0,0,0,.006-.055" transform="translate(-179.285 -137.416)" fill="#252529"/><path d="M178.523,137.715v.27a.445.445,0,0,1-.227.279v-.27a.445.445,0,0,0,.227-.279" transform="translate(-178.285 -137.66)" fill="#252529"/><path d="M178.251,139.221v.27l-.01.006v-.269l.01-.006" transform="translate(-178.24 -138.887)" fill="#252529"/></g></g><g clip-path="url(#c)"><path d="M168.157,139.254v.269l-2.292,1.332v-.27Z" transform="translate(-135.149 -113.466)" fill="#252529"/><path d="M140.166,135.289v.269l-4.391-2.535v-.269Z" transform="translate(-110.63 -108.17)" fill="#252529"/><path d="M160.669,146.445v.269a1.3,1.3,0,0,1-1.181,0v-.269a1.3,1.3,0,0,0,1.181,0" transform="translate(-129.953 -119.326)" fill="#252529"/></g><g transform="translate(29.534 27.119)"><g clip-path="url(#cn)"><path d="M165.061,146.445v.269a.946.946,0,0,1-.183.081v-.27a.935.935,0,0,0,.183-.08" transform="translate(-163.879 -146.445)" fill="#252529"/><path d="M162.567,146.879v.269a1.37,1.37,0,0,1-.525.056v-.27a1.37,1.37,0,0,0,.525-.056" transform="translate(-161.568 -146.799)" fill="#252529"/><path d="M159.962,146.582v.269a1.142,1.142,0,0,1-.473-.137v-.269a1.146,1.146,0,0,0,.473.137" transform="translate(-159.488 -146.445)" fill="#252529"/></g></g><g clip-path="url(#c)"><path d="M142.553,123.778a.362.362,0,0,1,0,.685l-2.292,1.332a1.3,1.3,0,0,1-1.181,0l-4.391-2.535a.362.362,0,0,1,0-.685l2.291-1.332a1.3,1.3,0,0,1,1.183,0Z" transform="translate(-109.548 -98.675)" fill="#fff"/><path d="M141.03,124.932l.12.07.8-.464-.12-.07Z" transform="translate(-114.913 -101.418)" fill="#424242"/><path d="M138.338,130.245l-.7.408-1.148-.663.7-.408Z" transform="translate(-111.213 -105.586)" fill="#686868"/><path d="M155.56,129.413l-.7.408-1.148-.663.7-.408Z" transform="translate(-125.244 -104.907)" fill="#686868"/><path d="M159.82,127.179l-.343.2-.562-.325.343-.2Z" transform="translate(-129.486 -103.363)" fill="#686868"/><path d="M163.787,129.485l-.343.2-.562-.325.343-.2Z" transform="translate(-132.719 -105.242)" fill="#686868"/><path d="M149.247,130.9l-.539.313-.881-.509.539-.313Z" transform="translate(-120.452 -106.243)" fill="#686868"/><path d="M155.161,134.022l-.539.313-.881-.509.539-.313Z" transform="translate(-125.271 -108.789)" fill="#686868"/><path d="M153.135,139.895l-.435.253-.712-.411.435-.253Z" transform="translate(-123.842 -113.653)" fill="#686868"/><path d="M173.406,135.059l-.435.253-.712-.411.435-.253Z" transform="translate(-140.359 -109.713)" fill="#686868"/><path d="M167.976,132.006l-.436.253-.712-.411.436-.253Z" transform="translate(-135.934 -107.226)" fill="#686868"/><path d="M172.147,137.242l-.31.18-.507-.293.31-.18Z" transform="translate(-139.603 -111.589)" fill="#686868"/><path d="M169.878,138.672l-.31.18-.507-.293.31-.18Z" transform="translate(-137.754 -112.754)" fill="#686868"/><path d="M167.647,139.844l-.31.18-.507-.293.31-.18Z" transform="translate(-135.936 -113.709)" fill="#686868"/><path d="M145.938,133.888l-.9.524-1.474-.851.9-.524Z" transform="translate(-116.977 -108.4)" fill="#686868"/><path d="M150.546,123.04l-.792.46-1.295-.748.792-.46Z" transform="translate(-120.967 -99.646)" fill="#686868"/><path d="M163.022,133.4l-.792.46-1.295-.747.792-.46Z" transform="translate(-131.133 -108.087)" fill="#686868"/><path d="M156.008,138.248l-.26.151-.352-.2.26-.151Z" transform="translate(-126.619 -112.481)" fill="#686868"/><path d="M158.367,139.66l-.26.151-.352-.2.26-.151Z" transform="translate(-128.541 -113.632)" fill="#686868"/><path d="M159.7,137.6l-.337.2-.455-.263.337-.2Z" transform="translate(-129.477 -111.907)" fill="#686868"/><path d="M161.6,136.639l-.208.121-.28-.162.208-.121Z" transform="translate(-131.276 -111.204)" fill="#686868"/><path d="M163.683,137.929l-.207.12-.28-.162.207-.12Z" transform="translate(-132.975 -112.255)" fill="#686868"/><path d="M161.527,140.259l-.207.12-.281-.162.207-.12Z" transform="translate(-131.218 -114.153)" fill="#686868"/><path d="M163.138,139.392l-.208.121-.281-.162.208-.121Z" transform="translate(-132.529 -113.447)" fill="#686868"/><path d="M165.854,139.116l-.136.079-.17-.1.136-.079Z" transform="translate(-134.891 -113.274)" fill="#686868"/><path d="M158.316,142.176l-.586.341-.958-.553.586-.341Z" transform="translate(-127.741 -115.396)" fill="#686868"/><path d="M163.953,141.107l-.391.227-.638-.368.391-.227Z" transform="translate(-132.753 -114.676)" fill="#686868"/><path d="M142.646,127.676l-.57.331-.933-.539.571-.331Z" transform="translate(-115.005 -103.593)" fill="#686868"/><path d="M146.617,125.643l-.351.2-.575-.332.351-.2Z" transform="translate(-118.711 -102.105)" fill="#686868"/><path d="M150.56,128.048l-.351.2-.575-.332.351-.2Z" transform="translate(-121.924 -104.065)" fill="#686868"/><path d="M95.3,107.41v-.269a.419.419,0,0,0,.247.345v.269a.419.419,0,0,1-.247-.345" transform="translate(-77.654 -87.3)" fill="#252529"/></g><g transform="translate(17.649 19.841)"><g clip-path="url(#cp)"><path d="M95.551,107.486v.269a.419.419,0,0,1-.247-.345v-.269a.419.419,0,0,0,.247.345" transform="translate(-95.303 -107.141)" fill="#252529"/></g></g><g clip-path="url(#c)"><path d="M139.347,113.667v.269a.415.415,0,0,1-.243.34v-.269a.416.416,0,0,0,.243-.34" transform="translate(-113.343 -92.618)" fill="#252529"/></g><g transform="translate(25.76 21.049)"><g clip-path="url(#cr)"><path d="M140.391,113.667v.269a.293.293,0,0,1-.006.055v-.269a.281.281,0,0,0,.006-.055" transform="translate(-140.148 -113.667)" fill="#252529"/><path d="M139.386,113.966v.269a.444.444,0,0,1-.227.279v-.269a.445.445,0,0,0,.227-.279" transform="translate(-139.148 -113.91)" fill="#252529"/><path d="M139.114,115.472v.269l-.01.006v-.269l.01-.006" transform="translate(-139.103 -115.138)" fill="#252529"/></g></g><g clip-path="url(#c)"><path d="M129.02,115.5v.269l-2.292,1.332v-.27Z" transform="translate(-103.26 -94.115)" fill="#252529"/><path d="M101.029,111.54v.269l-4.391-2.535V109Z" transform="translate(-78.741 -88.819)" fill="#252529"/><path d="M121.532,122.7v.269a1.3,1.3,0,0,1-1.181,0V122.7a1.3,1.3,0,0,0,1.181,0" transform="translate(-98.063 -99.975)" fill="#252529"/></g><g transform="translate(22.287 22.721)"><g clip-path="url(#ct)"><path d="M125.924,122.7v.269a.945.945,0,0,1-.183.081v-.27a.934.934,0,0,0,.183-.08" transform="translate(-124.742 -122.696)" fill="#252529"/><path d="M123.43,123.13v.27a1.374,1.374,0,0,1-.525.056v-.269a1.374,1.374,0,0,0,.525-.056" transform="translate(-122.431 -123.049)" fill="#252529"/><path d="M120.825,122.833v.269a1.145,1.145,0,0,1-.473-.137V122.7a1.146,1.146,0,0,0,.473.137" transform="translate(-120.351 -122.696)" fill="#252529"/></g></g><g clip-path="url(#c)"><path d="M103.415,100.029a.362.362,0,0,1,0,.685l-2.292,1.332a1.3,1.3,0,0,1-1.181,0L95.555,99.51a.362.362,0,0,1,0-.685l2.291-1.332a1.3,1.3,0,0,1,1.183,0Z" transform="translate(-77.658 -79.324)" fill="#fff"/><path d="M101.893,101.182l.12.07.8-.464-.12-.07Z" transform="translate(-83.024 -82.067)" fill="#424242"/><path d="M99.2,106.5l-.7.408-1.148-.663.7-.408Z" transform="translate(-79.323 -86.235)" fill="#686868"/><path d="M116.422,105.664l-.7.408-1.148-.663.7-.408Z" transform="translate(-93.355 -85.556)" fill="#686868"/><path d="M120.683,103.43l-.343.2-.562-.325.343-.2Z" transform="translate(-97.597 -84.011)" fill="#686868"/><path d="M124.65,105.736l-.343.2-.562-.325.343-.2Z" transform="translate(-100.829 -85.891)" fill="#686868"/><path d="M110.11,107.148l-.539.313-.881-.508.539-.313Z" transform="translate(-88.562 -86.891)" fill="#686868"/><path d="M116.024,110.273l-.539.313-.881-.509.539-.313Z" transform="translate(-93.381 -89.437)" fill="#686868"/><path d="M114,116.145l-.435.253-.712-.411.435-.253Z" transform="translate(-91.953 -94.302)" fill="#686868"/><path d="M134.27,111.31l-.435.253-.712-.411.435-.253Z" transform="translate(-108.471 -90.362)" fill="#686868"/><path d="M128.838,108.257l-.436.253-.712-.411.436-.253Z" transform="translate(-104.045 -87.875)" fill="#686868"/><path d="M133.01,113.492l-.31.18-.507-.293.31-.18Z" transform="translate(-107.714 -92.237)" fill="#686868"/><path d="M130.741,114.924l-.31.18-.507-.293.31-.18Z" transform="translate(-105.865 -93.403)" fill="#686868"/><path d="M128.51,116.095l-.31.18-.507-.293.31-.18Z" transform="translate(-104.047 -94.358)" fill="#686868"/><path d="M106.8,110.138l-.9.524-1.474-.851.9-.524Z" transform="translate(-85.087 -89.049)" fill="#686868"/><path d="M111.409,99.29l-.792.46L109.322,99l.792-.46Z" transform="translate(-89.077 -80.294)" fill="#686868"/><path d="M123.885,109.651l-.792.46-1.295-.748.792-.46Z" transform="translate(-99.243 -88.736)" fill="#686868"/><path d="M116.87,114.5l-.26.151-.352-.2.26-.151Z" transform="translate(-94.729 -93.13)" fill="#686868"/><path d="M119.23,115.911l-.26.151-.352-.2.26-.151Z" transform="translate(-96.652 -94.28)" fill="#686868"/><path d="M120.558,113.854l-.337.2-.455-.263.337-.2Z" transform="translate(-97.587 -92.556)" fill="#686868"/><path d="M122.462,112.89l-.208.121-.28-.162.208-.121Z" transform="translate(-99.387 -91.853)" fill="#686868"/><path d="M124.546,114.179l-.207.12-.28-.162.207-.12Z" transform="translate(-101.085 -92.903)" fill="#686868"/><path d="M122.39,116.51l-.207.12-.281-.162.207-.12Z" transform="translate(-99.328 -94.802)" fill="#686868"/><path d="M124,115.643l-.208.121-.281-.162.208-.121Z" transform="translate(-100.64 -94.095)" fill="#686868"/><path d="M126.716,115.366l-.136.079-.17-.1.136-.079Z" transform="translate(-103.001 -93.922)" fill="#686868"/><path d="M119.179,118.426l-.586.341-.958-.553.586-.341Z" transform="translate(-95.851 -96.045)" fill="#686868"/><path d="M124.816,117.358l-.391.227-.638-.368.391-.227Z" transform="translate(-100.864 -95.325)" fill="#686868"/><path d="M103.509,103.926l-.57.331-.933-.539.571-.331Z" transform="translate(-83.116 -84.242)" fill="#686868"/><path d="M107.48,101.893l-.351.2-.575-.332.351-.2Z" transform="translate(-86.822 -82.754)" fill="#686868"/><path d="M111.423,104.3l-.351.2-.575-.332.351-.2Z" transform="translate(-90.035 -84.714)" fill="#686868"/><path d="M56.367,84.393v-.269a.419.419,0,0,0,.247.345v.269a.419.419,0,0,1-.247-.345" transform="translate(-45.929 -68.546)" fill="#252529"/></g><g transform="translate(10.438 15.578)"><g clip-path="url(#cv)"><path d="M56.615,84.468v.269a.418.418,0,0,1-.247-.345v-.269a.418.418,0,0,0,.247.345" transform="translate(-56.367 -84.123)" fill="#252529"/></g></g><g clip-path="url(#c)"><path d="M100.41,90.649v.269a.416.416,0,0,1-.243.34v-.27a.415.415,0,0,0,.243-.34" transform="translate(-81.617 -73.862)" fill="#252529"/></g><g transform="translate(18.549 16.787)"><g clip-path="url(#cx)"><path d="M101.455,90.649v.269a.294.294,0,0,1-.006.055V90.7a.28.28,0,0,0,.006-.055" transform="translate(-101.211 -90.649)" fill="#252529"/><path d="M100.45,90.948v.269a.444.444,0,0,1-.227.279v-.269a.445.445,0,0,0,.227-.279" transform="translate(-100.212 -90.893)" fill="#252529"/><path d="M100.178,92.454v.269l-.01.006V92.46l.01-.006" transform="translate(-100.167 -92.12)" fill="#252529"/></g></g><g clip-path="url(#c)"><path d="M90.084,92.486v.269l-2.292,1.332v-.27Z" transform="translate(-71.534 -75.359)" fill="#252529"/><path d="M62.092,88.522v.27L57.7,86.256v-.269Z" transform="translate(-47.015 -70.063)" fill="#252529"/><path d="M82.6,99.678v.27a1.3,1.3,0,0,1-1.181,0v-.27a1.3,1.3,0,0,0,1.181,0" transform="translate(-66.337 -81.219)" fill="#252529"/></g><g transform="translate(15.077 18.459)"><g clip-path="url(#cz)"><path d="M86.988,99.678v.27a.956.956,0,0,1-.183.08v-.269a.945.945,0,0,0,.183-.081" transform="translate(-85.806 -99.678)" fill="#252529"/><path d="M84.494,100.112v.269a1.37,1.37,0,0,1-.525.056v-.27a1.366,1.366,0,0,0,.525-.056" transform="translate(-83.495 -100.032)" fill="#252529"/><path d="M81.888,99.815v.269a1.147,1.147,0,0,1-.473-.137v-.27a1.145,1.145,0,0,0,.473.137" transform="translate(-81.414 -99.678)" fill="#252529"/></g></g><g clip-path="url(#c)"><path d="M64.479,77.011a.362.362,0,0,1,0,.685l-2.291,1.332a1.3,1.3,0,0,1-1.181,0l-4.391-2.535a.362.362,0,0,1,0-.685l2.291-1.332a1.3,1.3,0,0,1,1.183,0Z" transform="translate(-45.932 -60.569)" fill="#fff"/><path d="M62.956,78.164l.12.07.8-.464-.12-.07Z" transform="translate(-51.298 -63.312)" fill="#424242"/><path d="M60.265,83.478l-.7.408-1.148-.663.7-.408Z" transform="translate(-47.597 -67.479)" fill="#686868"/><path d="M77.486,82.646l-.7.408-1.148-.663.7-.408Z" transform="translate(-61.629 -66.801)" fill="#686868"/><path d="M81.747,80.412l-.343.2-.562-.325.343-.2Z" transform="translate(-65.871 -65.256)" fill="#686868"/><path d="M85.713,82.718l-.343.2-.562-.325.343-.2Z" transform="translate(-69.103 -67.135)" fill="#686868"/><path d="M71.174,84.13l-.539.313-.881-.509.539-.313Z" transform="translate(-56.836 -68.136)" fill="#686868"/><path d="M77.088,87.255l-.539.313-.881-.509.539-.313Z" transform="translate(-61.655 -70.682)" fill="#686868"/><path d="M75.062,93.127l-.435.253-.712-.411.435-.253Z" transform="translate(-60.227 -75.547)" fill="#686868"/><path d="M95.333,88.292l-.435.253-.712-.411.435-.253Z" transform="translate(-76.745 -71.607)" fill="#686868"/><path d="M89.9,85.24l-.436.253-.712-.411.436-.253Z" transform="translate(-72.319 -69.119)" fill="#686868"/><path d="M94.074,90.474l-.31.18-.507-.293.31-.18Z" transform="translate(-75.988 -73.482)" fill="#686868"/><path d="M91.8,91.9l-.31.18-.507-.293.31-.18Z" transform="translate(-74.139 -74.647)" fill="#686868"/><path d="M89.574,93.076l-.31.18-.507-.293.31-.18Z" transform="translate(-72.321 -75.602)" fill="#686868"/><path d="M67.865,87.121l-.9.524-1.474-.851.9-.524Z" transform="translate(-53.362 -70.294)" fill="#686868"/><path d="M72.472,76.273l-.792.46-1.295-.748.792-.46Z" transform="translate(-57.351 -61.54)" fill="#686868"/><path d="M84.949,86.633l-.792.46-1.295-.748.792-.46Z" transform="translate(-67.517 -69.981)" fill="#686868"/><path d="M77.934,91.481l-.26.151-.352-.2.26-.151Z" transform="translate(-63.004 -74.375)" fill="#686868"/><path d="M80.293,92.893l-.26.151-.352-.2.26-.151Z" transform="translate(-64.926 -75.525)" fill="#686868"/><path d="M81.622,90.836l-.337.2-.455-.263.337-.2Z" transform="translate(-65.861 -73.801)" fill="#686868"/><path d="M83.526,89.872l-.208.121-.28-.162.208-.121Z" transform="translate(-67.661 -73.098)" fill="#686868"/><path d="M85.61,91.161l-.207.12-.28-.162L85.33,91Z" transform="translate(-69.359 -74.148)" fill="#686868"/><path d="M83.454,93.492l-.207.12-.281-.162.207-.12Z" transform="translate(-67.602 -76.047)" fill="#686868"/><path d="M85.064,92.625l-.208.121-.281-.162.208-.121Z" transform="translate(-68.914 -75.34)" fill="#686868"/><path d="M87.78,92.349l-.136.079-.17-.1.136-.079Z" transform="translate(-71.275 -75.167)" fill="#686868"/><path d="M80.243,95.409l-.586.34L78.7,95.2l.586-.341Z" transform="translate(-64.126 -77.29)" fill="#686868"/><path d="M85.879,94.34l-.391.227L84.85,94.2l.391-.227Z" transform="translate(-69.137 -76.57)" fill="#686868"/><path d="M64.573,80.909,64,81.24l-.933-.539.571-.331Z" transform="translate(-51.39 -65.487)" fill="#686868"/><path d="M68.544,78.876l-.351.2-.575-.332.351-.2Z" transform="translate(-55.096 -63.999)" fill="#686868"/><path d="M72.486,81.281l-.351.2-.575-.332.351-.2Z" transform="translate(-58.309 -65.959)" fill="#686868"/><path d="M151.669,110.04l-.013,4.537a.1.1,0,0,1-.06.084.323.323,0,0,1-.293,0,.1.1,0,0,1-.061-.086l.013-4.537a.1.1,0,0,0,.061.086.323.323,0,0,0,.293,0,.1.1,0,0,0,.06-.084" transform="translate(-123.235 -89.662)" fill="#252529"/></g><g transform="translate(28.008 20.377)"><g clip-path="url(#db)"><path d="M153.483,110.046l-.013,4.537a.088.088,0,0,1,0,.014l.013-4.537a.07.07,0,0,0,0-.014" transform="translate(-153.057 -110.045)" fill="#252529"/><path d="M153.237,110.12l-.013,4.537a.11.11,0,0,1-.056.069l.013-4.537a.11.11,0,0,0,.056-.069" transform="translate(-152.812 -110.105)" fill="#252529"/><path d="M152.97,110.492l-.013,4.537h0a.246.246,0,0,1-.045.02l.013-4.537a.247.247,0,0,0,.046-.02h0" transform="translate(-152.6 -110.408)" fill="#252529"/><path d="M152.35,110.608l-.013,4.537a.339.339,0,0,1-.13.014l.013-4.537a.338.338,0,0,0,.13-.014" transform="translate(-152.028 -110.502)" fill="#252529"/><path d="M151.434,110.157l-.013,4.537a.286.286,0,0,1-.117-.034.1.1,0,0,1-.061-.086l.013-4.537a.1.1,0,0,0,.061.086.284.284,0,0,0,.117.034" transform="translate(-151.243 -110.038)" fill="#252529"/></g></g><g clip-path="url(#c)"><path d="M151.666,109.431a.09.09,0,0,1,0,.17.323.323,0,0,1-.293,0,.09.09,0,0,1,0-.17.325.325,0,0,1,.293,0" transform="translate(-123.292 -89.137)" fill="#252529"/></g><g transform="translate(23.713 10.326)"><g clip-path="url(#dd)"><path d="M128.049,56.207l.654-.38a.586.586,0,0,1,.454-.042l-.654.38a.585.585,0,0,0-.454.042" transform="translate(-128.049 -55.759)" fill="#3b3b3b"/><path d="M130.5,56.28l.654-.38a1.086,1.086,0,0,1,.263.112l-.654.38a1.1,1.1,0,0,0-.263-.112" transform="translate(-130.044 -55.874)" fill="#4a4a4a"/></g></g><g clip-path="url(#c)"><path d="M131.919,56.885l.654-.38,5.972,3.448-.654.38Z" transform="translate(-107.49 -46.041)" fill="#fff"/><path d="M165.531,77.511l-.654.38a.707.707,0,0,0,.294-.648,2.217,2.217,0,0,0-1-1.741l.654-.38a2.217,2.217,0,0,1,1,1.741.707.707,0,0,1-.294.648" transform="translate(-133.766 -61.211)" fill="#fff"/></g><g transform="translate(30.401 13.912)"><g clip-path="url(#df)"><path d="M164.167,75.5l.654-.38q.04.023.08.05l-.654.38q-.039-.026-.08-.05" transform="translate(-164.167 -75.122)" fill="#fff"/><path d="M164.6,75.772l.654-.38a1.858,1.858,0,0,1,.359.319l-.654.38a1.86,1.86,0,0,0-.359-.319" transform="translate(-164.518 -75.342)" fill="#fff"/><path d="M166.536,77.5l.654-.38a2.426,2.426,0,0,1,.392.616l-.654.38a2.428,2.428,0,0,0-.392-.616" transform="translate(-166.097 -76.747)" fill="#fff"/><path d="M168.652,80.823l.654-.38a2.148,2.148,0,0,1,.139.428l-.654.38a2.148,2.148,0,0,0-.139-.427" transform="translate(-167.821 -79.458)" fill="#fff"/><path d="M169.4,83.133l.654-.38a1.608,1.608,0,0,1,.035.329c0,.029,0,.057,0,.084l-.654.38q0-.041,0-.084a1.6,1.6,0,0,0-.035-.329" transform="translate(-168.433 -81.34)" fill="#fff"/><path d="M168.294,85.361l.654-.38a.668.668,0,0,1-.291.564l-.654.38a.668.668,0,0,0,.291-.564" transform="translate(-167.293 -83.155)" fill="#fff"/></g></g><g clip-path="url(#c)"><path d="M133.441,61.4a2.217,2.217,0,0,1,1,1.741c0,.641-.454.9-1.011.578l-5.972-3.448a2.215,2.215,0,0,1-1-1.741c0-.64.455-.9,1.011-.578Z" transform="translate(-103.04 -47.105)" fill="#abacc2"/><path d="M124.877,33.471l-.021,7.561a.783.783,0,0,1-.459.642,2.458,2.458,0,0,1-2.23,0,.789.789,0,0,1-.465-.65l.021-7.561a.789.789,0,0,0,.465.65,2.458,2.458,0,0,0,2.23,0,.783.783,0,0,0,.459-.642" transform="translate(-99.165 -27.265)" fill="#e0e2ea"/></g><g transform="translate(22.537 6.197)"><g clip-path="url(#dh)"><path d="M138.706,33.511l-.021,7.561a.522.522,0,0,1-.011.1l.021-7.561a.551.551,0,0,0,.011-.1" transform="translate(-135.531 -33.502)" fill="#c2c3d0"/><path d="M136.809,34.074l-.021,7.561a.838.838,0,0,1-.429.526l.021-7.561a.839.839,0,0,0,.429-.526" transform="translate(-133.645 -33.961)" fill="#c2c3d0"/><path d="M134.779,36.915l-.021,7.561-.019.011a1.761,1.761,0,0,1-.345.152l.021-7.561a1.776,1.776,0,0,0,.345-.151l.019-.011" transform="translate(-132.043 -36.276)" fill="#c2c3d0"/><path d="M130.054,37.795l-.021,7.561a2.585,2.585,0,0,1-.991.106l.021-7.561a2.586,2.586,0,0,0,.991-.106" transform="translate(-127.682 -36.993)" fill="#c2c3d0"/><path d="M123.082,34.371l-.021,7.561a2.165,2.165,0,0,1-.894-.259.788.788,0,0,1-.465-.65l.021-7.561a.788.788,0,0,0,.465.65,2.167,2.167,0,0,0,.894.259" transform="translate(-121.702 -33.462)" fill="#c2c3d0"/></g></g><g clip-path="url(#c)"><path d="M124.506,28.822a.683.683,0,0,1,.007,1.292,2.458,2.458,0,0,1-2.23,0,.682.682,0,0,1-.007-1.291,2.458,2.458,0,0,1,2.23,0" transform="translate(-99.259 -23.267)" fill="#e0e2ea"/><path d="M149.207,109.441l0,1.21a.484.484,0,0,1-.283.4,1.517,1.517,0,0,1-1.376,0,.487.487,0,0,1-.287-.4l0-1.21a.487.487,0,0,0,.287.4,1.517,1.517,0,0,0,1.377,0,.484.484,0,0,0,.283-.4" transform="translate(-119.987 -89.169)" fill="#abacc2"/></g><g transform="translate(27.269 20.266)"><g clip-path="url(#dj)"><path d="M157.744,109.465l0,1.21a.342.342,0,0,1-.007.064l0-1.21a.33.33,0,0,0,.007-.064" transform="translate(-155.794 -109.459)" fill="#c2c3d0"/><path d="M156.573,109.813l0,1.21a.516.516,0,0,1-.265.324l0-1.21a.519.519,0,0,0,.264-.324" transform="translate(-154.629 -109.743)" fill="#c2c3d0"/><path d="M155.318,111.565l0,1.21-.012.007a1.107,1.107,0,0,1-.213.094l0-1.21a1.089,1.089,0,0,0,.213-.094l.012-.007" transform="translate(-153.638 -111.171)" fill="#c2c3d0"/><path d="M152.4,112.109l0,1.21a1.6,1.6,0,0,1-.612.065l0-1.21a1.6,1.6,0,0,0,.612-.066" transform="translate(-150.946 -111.614)" fill="#c2c3d0"/><path d="M148.1,110l0,1.21a1.34,1.34,0,0,1-.551-.159.487.487,0,0,1-.287-.4l0-1.21a.487.487,0,0,0,.287.4,1.339,1.339,0,0,0,.551.159" transform="translate(-147.257 -109.435)" fill="#c2c3d0"/></g></g><g clip-path="url(#c)"><path d="M148.935,106.57a.421.421,0,0,1,0,.8,1.517,1.517,0,0,1-1.376,0,.421.421,0,0,1,0-.8,1.517,1.517,0,0,1,1.376,0" transform="translate(-120.002 -86.701)" fill="#c2c3d0"/><path d="M154.106,78l-.017,6.049-1.5.873.017-6.049Z" transform="translate(-124.33 -63.554)" fill="#c2c3d0"/><path d="M145.943,78.869l-.017,6.049-1.514-.874L144.43,78Z" transform="translate(-117.669 -63.552)" fill="#e0e2ea"/><path d="M147.522,74.153l-1.5.873-1.514-.874,1.5-.873Z" transform="translate(-117.745 -59.709)" fill="#fff"/><path d="M114.1,63.474l.654-.38a.712.712,0,0,1,.718.07l-.654.38a.712.712,0,0,0-.718-.07" transform="translate(-92.971 -51.354)" fill="#fff"/></g><g transform="translate(21.13 11.671)"><g clip-path="url(#dl)"><path d="M114.1,63.474l.654-.38a.586.586,0,0,1,.454-.042l-.654.38a.586.586,0,0,0-.454.042" transform="translate(-114.101 -63.026)" fill="#fff"/><path d="M116.554,63.547l.654-.38a1.09,1.09,0,0,1,.264.112l-.654.38a1.1,1.1,0,0,0-.264-.112" transform="translate(-116.1 -63.141)" fill="#fff"/></g></g><g clip-path="url(#c)"><path d="M117.979,64.153l.654-.38L124.6,67.22l-.654.38Z" transform="translate(-96.131 -51.963)" fill="#fff"/><path d="M151.585,84.777l-.654.38a.706.706,0,0,0,.294-.647,2.215,2.215,0,0,0-1.006-1.742l.654-.38a2.215,2.215,0,0,1,1.006,1.742.706.706,0,0,1-.294.647" transform="translate(-122.402 -67.131)" fill="#fff"/></g><g transform="translate(27.819 15.257)"><g clip-path="url(#dn)"><path d="M150.221,82.768l.654-.38q.041.023.08.05l-.654.38q-.04-.027-.08-.05" transform="translate(-150.221 -82.388)" fill="#fff"/><path d="M150.655,83.037l.654-.38a1.867,1.867,0,0,1,.36.321l-.654.38a1.868,1.868,0,0,0-.36-.321" transform="translate(-150.575 -82.607)" fill="#fff"/><path d="M152.6,84.769l.654-.38a2.422,2.422,0,0,1,.391.615l-.654.38a2.427,2.427,0,0,0-.391-.615" transform="translate(-152.159 -84.018)" fill="#fff"/><path d="M154.712,88.09l.654-.38a2.144,2.144,0,0,1,.139.427l-.654.38a2.152,2.152,0,0,0-.139-.427" transform="translate(-153.88 -86.724)" fill="#fff"/><path d="M155.462,90.4l.654-.38a1.589,1.589,0,0,1,.035.329c0,.029,0,.056,0,.084l-.654.38c0-.027,0-.055,0-.084a1.616,1.616,0,0,0-.035-.329" transform="translate(-154.491 -88.604)" fill="#fff"/><path d="M154.354,92.628l.654-.38a.668.668,0,0,1-.292.564l-.654.38a.668.668,0,0,0,.291-.564" transform="translate(-153.352 -90.422)" fill="#fff"/></g></g><g clip-path="url(#c)"><path d="M119.5,68.663A2.215,2.215,0,0,1,120.5,70.4c0,.64-.454.9-1.012.577l-5.971-3.447a2.219,2.219,0,0,1-1.006-1.742c0-.641.456-.9,1.012-.577Z" transform="translate(-91.677 -53.026)" fill="#e0e2ea"/><path d="M49.04,12.795,71.2,0l3.914,2.26L52.937,15.044Z" transform="translate(-39.958 0)" fill="#fff"/><path d="M48.938,69.092l-.023,23.9,3.931,2.269-.01-23.916Z" transform="translate(-39.856 -56.297)" fill="#e0e2ea"/><path d="M70.083,24.988,92.261,12.2l0,1.276L71.289,25.6Z" transform="translate(-57.105 -9.943)" fill="#c2c3d0"/><path d="M70.094,105.157l-.01-23.916,1.206.609v21.341Z" transform="translate(-57.106 -66.197)" fill="#c2c3d0"/><path d="M71.229,99.362l.491-.285-.014,4.775-.491.285Z" transform="translate(-58.028 -80.729)" fill="#424242"/><path d="M42.761,82.891l.49-.285,5.283,3.05-.491.285Z" transform="translate(-34.842 -67.309)" fill="#494949"/><path d="M47.985,87.2l-.014,4.775-5.283-3.05.014-4.775Z" transform="translate(-34.783 -68.563)" fill="#252529"/><path d="M49.111,89.931,49.1,93.9l-4.591-2.65.011-3.971Z" transform="translate(-36.267 -71.118)" fill="#fff"/><path d="M48.1,91.147l-.005,1.9-1.966-1.135.005-1.9Z" transform="translate(-37.587 -73.343)" fill="#3076b6"/><path d="M59.129,97.737a.719.719,0,0,1,.326.565c0,.207-.148.291-.328.187a.719.719,0,0,1-.326-.564c0-.207.148-.291.328-.187" transform="translate(-47.912 -79.601)" fill="#ffd100"/><path d="M64.531,100.7a.719.719,0,0,1,.326.565c0,.207-.148.291-.328.187a.719.719,0,0,1-.326-.564c0-.207.148-.291.328-.187" transform="translate(-52.314 -82.012)" fill="#ffd100"/><path d="M58.3,102.633l0,.6-.519-.3,0-.6Z" transform="translate(-47.083 -83.383)" fill="#252529"/><path d="M61.874,104.606l0,.6-.519-.3,0-.6Z" transform="translate(-49.991 -84.99)" fill="#252529"/><path d="M65.663,106.7l0,.6-.519-.3,0-.6Z" transform="translate(-53.079 -86.7)" fill="#252529"/><path d="M46.717,103.6l0,.6-.519-.3,0-.6Z" transform="translate(-37.642 -84.174)" fill="#252529"/><path d="M50.287,105.576l0,.6-.519-.3,0-.6Z" transform="translate(-40.55 -85.781)" fill="#252529"/><path d="M54.077,107.675l0,.6-.519-.3,0-.6Z" transform="translate(-43.638 -87.491)" fill="#252529"/><path d="M57.709,109.773l0,.6-.519-.3,0-.6Z" transform="translate(-46.598 -89.2)" fill="#252529"/><path d="M61.279,111.746l0,.6-.519-.3,0-.6Z" transform="translate(-49.507 -90.808)" fill="#252529"/><path d="M65.068,113.844l0,.6-.519-.3,0-.6Z" transform="translate(-52.594 -92.518)" fill="#252529"/><path d="M70.14,194.874l1.2-1.966,2.7-1.56v1.276Z" transform="translate(-57.151 -155.914)" fill="#c2c3d0"/><path d="M79.3,184.475l-2.7-1.562v3.122Z" transform="translate(-62.412 -149.04)" fill="#e0e2ea"/><path d="M53.934,129.021l1.025,2.641a.19.19,0,0,1-.272.233l-2.05-1.183a.19.19,0,0,1-.06-.273L53.6,128.98a.19.19,0,0,1,.332.041" transform="translate(-42.813 -105.03)" fill="#ffd100"/><path d="M54.551,131.742a.242.242,0,0,1-.122-.033l-2.05-1.183a.242.242,0,0,1-.077-.349l1.025-1.458a.242.242,0,0,1,.424.052l1.025,2.641a.243.243,0,0,1-.225.331m-1.026-3.021a.135.135,0,0,0-.111.058l-1.025,1.458a.137.137,0,0,0,.044.2l2.05,1.183a.137.137,0,0,0,.2-.168l-1.025-2.641a.135.135,0,0,0-.111-.086h-.017" transform="translate(-42.581 -104.798)" fill="#1a191d"/><path d="M58.817,132.728l-.03,1.062-.255-.147-.037-1.1Zm-.014,1.42c0,.028-.017.036-.042.022l-.2-.116a.079.079,0,0,1-.04-.069v-.236c0-.028.014-.042.04-.027l.2.116a.084.084,0,0,1,.042.075Z" transform="translate(-47.663 -107.997)" fill="#252529"/></g></g></g><path d="M36,4A32.009,32.009,0,0,0,23.545,65.487,32.009,32.009,0,0,0,48.455,6.513,31.8,31.8,0,0,0,36,4m0-4A36,36,0,1,1,0,36,36,36,0,0,1,36,0Z" transform="translate(4.717 4.398)" fill="#ffcf64"/></g></svg>