<svg xmlns="http://www.w3.org/2000/svg" xmlns:xlink="http://www.w3.org/1999/xlink" width="99" height="98" viewBox="0 0 99 98"><defs><filter id="a" x="0" y="0" width="99" height="98" filterUnits="userSpaceOnUse"><feOffset dy="3" input="SourceAlpha"/><feGaussianBlur stdDeviation="3" result="b"/><feFlood flood-opacity="0.161"/><feComposite operator="in" in2="b"/><feComposite in="SourceGraphic"/></filter><clipPath id="c"><rect width="35.03" height="57.909" transform="translate(0 0)" fill="none"/></clipPath><clipPath id="d"><rect width="35.03" height="65.514" fill="none"/></clipPath><clipPath id="e"><path d="M1.751,243.02c-.005,1.774,1.165,3.55,3.51,4.9,4.658,2.689,12.185,2.689,16.813,0,2.3-1.336,3.449-3.084,3.454-4.835l0-.8c-.005,1.751-1.156,3.5-3.454,4.835-4.628,2.689-12.155,2.689-16.813,0-2.344-1.353-3.515-3.129-3.51-4.9Z" transform="translate(-1.751 -242.218)" fill="none"/></clipPath><clipPath id="g"><path d="M87.314,229.926a.389.389,0,0,0,.229.32,1.21,1.21,0,0,0,1.1,0,.385.385,0,0,0,.226-.316v-.389a.385.385,0,0,1-.226.316,1.21,1.21,0,0,1-1.1,0,.388.388,0,0,1-.229-.32Z" transform="translate(-87.314 -229.537)" fill="none"/></clipPath><clipPath id="i"><path d="M92.679,243.216a.388.388,0,0,0,.229.32,1.21,1.21,0,0,0,1.1,0,.385.385,0,0,0,.226-.316v-.389a.386.386,0,0,1-.226.316,1.21,1.21,0,0,1-1.1,0,.388.388,0,0,1-.229-.32Z" transform="translate(-92.679 -242.827)" fill="none"/></clipPath><clipPath id="k"><path d="M85.7,255.749a.388.388,0,0,0,.229.32,1.21,1.21,0,0,0,1.1,0,.386.386,0,0,0,.226-.316v-.389a.385.385,0,0,1-.226.316,1.208,1.208,0,0,1-1.1,0,.389.389,0,0,1-.229-.32Z" transform="translate(-85.698 -255.36)" fill="none"/></clipPath><clipPath id="m"><path d="M70.557,263.833a.388.388,0,0,0,.229.32,1.209,1.209,0,0,0,1.1,0,.385.385,0,0,0,.226-.316v-.389a.385.385,0,0,1-.226.316,1.209,1.209,0,0,1-1.1,0,.388.388,0,0,1-.229-.32Z" transform="translate(-70.557 -263.443)" fill="none"/></clipPath><clipPath id="o"><path d="M48.581,266.893a.389.389,0,0,0,.229.32,1.209,1.209,0,0,0,1.1,0,.385.385,0,0,0,.226-.316v-.389a.385.385,0,0,1-.226.315,1.21,1.21,0,0,1-1.1,0,.388.388,0,0,1-.229-.32Z" transform="translate(-48.581 -266.503)" fill="none"/></clipPath><clipPath id="q"><path d="M24.111,262.654a.388.388,0,0,0,.229.32,1.209,1.209,0,0,0,1.1,0,.385.385,0,0,0,.226-.316v-.389a.386.386,0,0,1-.226.316,1.209,1.209,0,0,1-1.1,0,.388.388,0,0,1-.229-.32Z" transform="translate(-24.111 -262.265)" fill="none"/></clipPath><clipPath id="s"><path d="M7.727,250.5a.389.389,0,0,0,.229.32,1.21,1.21,0,0,0,1.1,0,.386.386,0,0,0,.226-.316v-.389a.384.384,0,0,1-.226.315,1.21,1.21,0,0,1-1.1,0,.388.388,0,0,1-.229-.32Z" transform="translate(-7.727 -250.114)" fill="none"/></clipPath><clipPath id="u"><path d="M8.97,231.937a.388.388,0,0,0,.229.32,1.209,1.209,0,0,0,1.1,0,.385.385,0,0,0,.226-.316v-.39a.386.386,0,0,1-.226.316,1.21,1.21,0,0,1-1.1,0,.388.388,0,0,1-.229-.32Z" transform="translate(-8.97 -231.548)" fill="none"/></clipPath><clipPath id="w"><path d="M11.549,207.916c0,1.411.927,2.824,2.792,3.9a14.746,14.746,0,0,0,13.38,0c1.829-1.063,2.744-2.454,2.748-3.847L30.5,198c0,1.393-.919,2.784-2.748,3.847a14.744,14.744,0,0,1-13.38,0c-1.865-1.077-2.8-2.49-2.792-3.9Z" transform="translate(-11.549 -197.944)" fill="#868c90"/></clipPath><clipPath id="y"><path d="M117.261,103.7l.946.55a.6.6,0,0,1-.25-.55l-.947-.55a.6.6,0,0,0,.25.55" transform="translate(-117.011 -103.15)" fill="none"/></clipPath><clipPath id="aa"><path d="M120.512,49.454l.947.55a.606.606,0,0,1,.61-.06l-.947-.55a.442.442,0,0,0-.225-.058.782.782,0,0,0-.385.118" transform="translate(-120.512 -49.336)" fill="none"/></clipPath><clipPath id="ac"><path d="M116.878,51.318l.946.55a1.884,1.884,0,0,1,.855-1.481l-.947-.55a1.882,1.882,0,0,0-.855,1.481" transform="translate(-116.878 -49.837)" fill="none"/></clipPath><clipPath id="ae"><path d="M16.666,189.829c0,1.08.8,2.162,2.419,2.986a14.28,14.28,0,0,0,11.587,0c1.585-.814,2.378-1.878,2.381-2.944l.006-1.844c0,1.066-.8,2.131-2.381,2.944a14.281,14.281,0,0,1-11.586,0c-1.616-.824-2.423-1.906-2.419-2.986Z" transform="translate(-16.666 -187.985)" fill="none"/></clipPath><clipPath id="ag"><path d="M55.461,142.755l4.793,2.785a2.344,2.344,0,0,1,2.364-.232l-4.793-2.785a1.717,1.717,0,0,0-.873-.224,3.026,3.026,0,0,0-1.491.456" transform="translate(-55.461 -142.299)" fill="none"/></clipPath><clipPath id="ai"><path d="M42.86,148.057l4.793,2.785a7.307,7.307,0,0,1,2.964-3.82l-4.793-2.785a7.308,7.308,0,0,0-2.964,3.82" transform="translate(-42.86 -144.237)" fill="none"/></clipPath><clipPath id="ak"><path d="M22.368,186.533l4.793,2.785c-.477-.277-.492-1.286.2-2.181l-4.793-2.785c-.694.895-.68,1.9-.2,2.181" transform="translate(-22.027 -184.352)" fill="none"/></clipPath><clipPath id="am"><path d="M126.689,49.865l1.725,1a.835.835,0,0,1,.838-.07l-1.725-1a.633.633,0,0,0-.321-.083,1.071,1.071,0,0,0-.517.153" transform="translate(-126.689 -49.712)" fill="none"/></clipPath><clipPath id="ao"><path d="M52.977,101.341l1.725,1a.894.894,0,0,1-.368-.819l-1.725-1a.894.894,0,0,0,.368.819" transform="translate(-52.609 -100.522)" fill="none"/></clipPath><clipPath id="aq"><path d="M52.6,91.077l1.725,1a2.731,2.731,0,0,1,1.22-2.156l-1.725-1a2.732,2.732,0,0,0-1.22,2.156" transform="translate(-52.601 -88.921)" fill="none"/></clipPath><clipPath id="as"><path d="M122.245,95.261l-2.478,1.44a.577.577,0,0,1,.582.057l2.479-1.44a.749.749,0,0,0-.367-.112.423.423,0,0,0-.215.055" transform="translate(-119.767 -95.206)" fill="none"/></clipPath><clipPath id="au"><path d="M122.243,97.123a1.8,1.8,0,0,1,.816,1.413l2.478-1.44a1.8,1.8,0,0,0-.816-1.414Z" transform="translate(-122.243 -95.683)" fill="none"/></clipPath><clipPath id="aw"><path d="M64.163,171.5l1.847,1.073a1.17,1.17,0,0,1-.468-1.124L63.7,170.373a1.17,1.17,0,0,0,.468,1.124" transform="translate(-63.694 -170.373)" fill="none"/></clipPath><clipPath id="ay"><path d="M73.583,78.967,75.43,80.04a1.136,1.136,0,0,1,1.146-.112l-1.847-1.074a.833.833,0,0,0-.423-.109,1.47,1.47,0,0,0-.723.221" transform="translate(-73.583 -78.746)" fill="none"/></clipPath><clipPath id="ba"><path d="M66.765,82.374l1.847,1.073a3.559,3.559,0,0,1,1.6-2.689l-1.847-1.074a3.558,3.558,0,0,0-1.6,2.689" transform="translate(-66.765 -79.685)" fill="none"/></clipPath><clipPath id="bc"><path d="M81.195,157.824l.6.35a1.028,1.028,0,0,1,1.037-.1l-.6-.35a.753.753,0,0,0-.383-.1,1.328,1.328,0,0,0-.654.2" transform="translate(-81.195 -157.624)" fill="none"/></clipPath><clipPath id="be"><path d="M75.023,160.988a1.019,1.019,0,0,0,.425.934l.6.35a1.019,1.019,0,0,1-.425-.934,3.2,3.2,0,0,1,1.452-2.515l-.6-.35a3.2,3.2,0,0,0-1.452,2.515" transform="translate(-75.023 -158.473)" fill="none"/></clipPath><clipPath id="bg"><path d="M129.91,110.346l.947.55a.6.6,0,0,1-.251-.55l-.947-.55a.6.6,0,0,0,.25.55" transform="translate(-129.66 -109.796)" fill="none"/></clipPath><clipPath id="bi"><path d="M133.161,56.1l.947.55a.606.606,0,0,1,.611-.06l-.947-.55a.444.444,0,0,0-.225-.058.784.784,0,0,0-.386.118" transform="translate(-133.161 -55.983)" fill="none"/></clipPath><clipPath id="bk"><path d="M129.527,57.964l.947.55a1.884,1.884,0,0,1,.855-1.481l-.947-.55a1.884,1.884,0,0,0-.855,1.48" transform="translate(-129.527 -56.484)" fill="none"/></clipPath><clipPath id="bm"><path d="M136.789,106.283l.23.133a.391.391,0,0,1,.394-.039l-.229-.133a.285.285,0,0,0-.146-.037.506.506,0,0,0-.249.076" transform="translate(-136.789 -106.207)" fill="none"/></clipPath><clipPath id="bo"><path d="M134.441,107.487a.388.388,0,0,0,.162.355l.229.133a.387.387,0,0,1-.161-.355,1.216,1.216,0,0,1,.552-.957l-.23-.133a1.218,1.218,0,0,0-.552.957" transform="translate(-134.441 -106.53)" fill="none"/></clipPath><clipPath id="bq"><path d="M137.525,60.257l.23.134a.393.393,0,0,1,.4-.039l-.23-.134a.288.288,0,0,0-.146-.038.507.507,0,0,0-.25.076" transform="translate(-137.525 -60.181)" fill="none"/></clipPath><clipPath id="bs"><path d="M135.169,61.466a.388.388,0,0,0,.162.356l.23.134a.388.388,0,0,1-.162-.357,1.221,1.221,0,0,1,.554-.96l-.23-.134a1.221,1.221,0,0,0-.554.96" transform="translate(-135.169 -60.506)" fill="none"/></clipPath><clipPath id="bu"><rect width="25.759" height="14.92" fill="none"/></clipPath></defs><g transform="translate(8.922 5.603)"><g transform="matrix(1, 0, 0, 1, -8.92, -5.6)" filter="url(#a)"><ellipse cx="40.5" cy="40" rx="40.5" ry="40" transform="translate(9 6)" fill="#fff"/></g><path d="M36,4A32.009,32.009,0,0,0,23.545,65.487,32.009,32.009,0,0,0,48.455,6.513,31.8,31.8,0,0,0,36,4m0-4A36,36,0,1,1,0,36,36,36,0,0,1,36,0Z" transform="translate(4.078 4.398)" fill="#12263f"/><g transform="translate(24.107 12.365)"><g transform="translate(0 0)" clip-path="url(#c)"><g transform="translate(0 -7.605)"><g clip-path="url(#d)"><path d="M25.529,242.287l0,.8c0,1.751-1.156,3.5-3.454,4.835-4.628,2.689-12.155,2.689-16.813,0-2.344-1.353-3.515-3.13-3.51-4.9l0-.8c0,1.773,1.166,3.55,3.51,4.9,4.658,2.689,12.185,2.689,16.813,0,2.3-1.336,3.449-3.084,3.454-4.835" transform="translate(-1.338 -185.246)" fill="#252529"/></g></g><g transform="translate(0.412 49.368)"><g clip-path="url(#e)"><path d="M25.529,242.287l0,.8c0,1.751-1.156,3.5-3.454,4.835-4.628,2.689-12.155,2.689-16.813,0-2.344-1.353-3.515-3.13-3.51-4.9l0-.8c0,1.773,1.166,3.55,3.51,4.9,4.658,2.689,12.185,2.689,16.813,0,2.3-1.336,3.449-3.084,3.454-4.835" transform="translate(-1.75 -242.219)" fill="#252529"/></g></g><g transform="translate(0 -7.605)"><g clip-path="url(#d)"><path d="M22.027,215.1c4.658,2.689,4.682,7.049.056,9.738s-12.155,2.689-16.813,0-4.683-7.05-.055-9.739,12.154-2.689,16.812,0" transform="translate(-1.346 -162.966)" fill="#38373e"/><path d="M88.866,229.541v.389a.385.385,0,0,1-.226.316,1.21,1.21,0,0,1-1.1,0,.389.389,0,0,1-.229-.32v-.389a.389.389,0,0,0,.229.32,1.209,1.209,0,0,0,1.1,0,.385.385,0,0,0,.226-.316" transform="translate(-66.776 -175.547)" fill="#c2c3d0"/></g></g><g transform="translate(20.537 46.385)"><g clip-path="url(#g)"><path d="M93.643,229.554v.389a.306.306,0,0,1-.083.2v-.389a.307.307,0,0,0,.083-.2" transform="translate(-92.09 -229.55)" fill="#c2c3d0"/><path d="M91.841,230.409v.389a.565.565,0,0,1-.143.115,1.026,1.026,0,0,1-.386.122v-.389a1.026,1.026,0,0,0,.386-.122.562.562,0,0,0,.143-.115" transform="translate(-90.371 -230.204)" fill="#c2c3d0"/><path d="M88.255,229.978v.389a1.189,1.189,0,0,1-.711-.121.389.389,0,0,1-.229-.32v-.389a.388.388,0,0,0,.229.32,1.19,1.19,0,0,0,.711.121" transform="translate(-87.314 -229.537)" fill="#c2c3d0"/></g></g><g transform="translate(0 -7.605)"><g clip-path="url(#d)"><path d="M88.641,227.767a.336.336,0,0,1,0,.635,1.21,1.21,0,0,1-1.1,0,.336.336,0,0,1,0-.636,1.208,1.208,0,0,1,1.1,0" transform="translate(-66.78 -174.092)" fill="#fff"/><path d="M94.231,242.831v.389a.385.385,0,0,1-.226.316,1.21,1.21,0,0,1-1.1,0,.389.389,0,0,1-.229-.32v-.389a.388.388,0,0,0,.229.32,1.21,1.21,0,0,0,1.1,0,.386.386,0,0,0,.226-.316" transform="translate(-70.879 -185.711)" fill="#c2c3d0"/></g></g><g transform="translate(21.799 49.511)"><g clip-path="url(#i)"><path d="M99.008,242.844v.389a.307.307,0,0,1-.083.2v-.389a.307.307,0,0,0,.083-.2" transform="translate(-97.455 -242.84)" fill="#c2c3d0"/><path d="M97.206,243.7v.389a.566.566,0,0,1-.143.115,1.027,1.027,0,0,1-.386.122v-.389a1.023,1.023,0,0,0,.386-.122.564.564,0,0,0,.143-.115" transform="translate(-95.736 -243.494)" fill="#c2c3d0"/><path d="M93.62,243.268v.389a1.189,1.189,0,0,1-.711-.121.389.389,0,0,1-.229-.32v-.389a.388.388,0,0,0,.229.32,1.188,1.188,0,0,0,.711.121" transform="translate(-92.679 -242.827)" fill="#c2c3d0"/></g></g><g transform="translate(0 -7.605)"><g clip-path="url(#d)"><path d="M94.006,241.057a.336.336,0,0,1,0,.635,1.21,1.21,0,0,1-1.1,0,.336.336,0,0,1,0-.636,1.208,1.208,0,0,1,1.1,0" transform="translate(-70.883 -184.256)" fill="#fff"/><path d="M87.25,255.364v.389a.385.385,0,0,1-.226.316,1.21,1.21,0,0,1-1.1,0,.389.389,0,0,1-.229-.32v-.389a.388.388,0,0,0,.229.32,1.209,1.209,0,0,0,1.1,0,.385.385,0,0,0,.226-.316" transform="translate(-65.54 -195.296)" fill="#c2c3d0"/></g></g><g transform="translate(20.157 52.459)"><g clip-path="url(#k)"><path d="M92.027,255.377v.389a.308.308,0,0,1-.083.2v-.389a.308.308,0,0,0,.083-.2" transform="translate(-90.474 -255.373)" fill="#c2c3d0"/><path d="M90.225,256.232v.389a.564.564,0,0,1-.143.115,1.027,1.027,0,0,1-.386.122v-.389a1.023,1.023,0,0,0,.386-.122.565.565,0,0,0,.143-.115" transform="translate(-88.755 -256.027)" fill="#c2c3d0"/><path d="M86.639,255.8v.389a1.189,1.189,0,0,1-.711-.121.389.389,0,0,1-.229-.32v-.389a.388.388,0,0,0,.229.32,1.188,1.188,0,0,0,.711.121" transform="translate(-85.698 -255.36)" fill="#c2c3d0"/></g></g><g transform="translate(0 -7.605)"><g clip-path="url(#d)"><path d="M87.025,253.59a.336.336,0,0,1,0,.635,1.21,1.21,0,0,1-1.1,0,.336.336,0,0,1,0-.636,1.208,1.208,0,0,1,1.1,0" transform="translate(-65.544 -193.841)" fill="#fff"/><path d="M72.11,263.447v.389a.385.385,0,0,1-.226.316,1.21,1.21,0,0,1-1.1,0,.389.389,0,0,1-.229-.32v-.389a.388.388,0,0,0,.229.32,1.209,1.209,0,0,0,1.1,0,.385.385,0,0,0,.226-.316" transform="translate(-53.961 -201.478)" fill="#c2c3d0"/></g></g><g transform="translate(16.596 54.36)"><g clip-path="url(#m)"><path d="M76.887,263.46v.389a.308.308,0,0,1-.083.2v-.389a.307.307,0,0,0,.083-.2" transform="translate(-75.334 -263.456)" fill="#c2c3d0"/><path d="M75.085,264.315v.389a.566.566,0,0,1-.143.115,1.026,1.026,0,0,1-.386.122v-.389a1.021,1.021,0,0,0,.386-.122.563.563,0,0,0,.143-.115" transform="translate(-73.615 -264.11)" fill="#c2c3d0"/><path d="M71.5,263.884v.389a1.189,1.189,0,0,1-.711-.121.389.389,0,0,1-.229-.32v-.389a.389.389,0,0,0,.229.32,1.189,1.189,0,0,0,.711.121" transform="translate(-70.557 -263.443)" fill="#c2c3d0"/></g></g><g transform="translate(0 -7.605)"><g clip-path="url(#d)"><path d="M71.885,261.673a.336.336,0,0,1,0,.635,1.21,1.21,0,0,1-1.1,0,.336.336,0,0,1,0-.636,1.209,1.209,0,0,1,1.1,0" transform="translate(-53.965 -200.023)" fill="#fff"/><path d="M50.134,266.507v.389a.385.385,0,0,1-.226.316,1.21,1.21,0,0,1-1.1,0,.389.389,0,0,1-.229-.32V266.5a.388.388,0,0,0,.229.32,1.21,1.21,0,0,0,1.1,0,.386.386,0,0,0,.226-.316" transform="translate(-37.154 -203.818)" fill="#c2c3d0"/></g></g><g transform="translate(11.427 55.08)"><g clip-path="url(#o)"><path d="M54.911,266.52v.389a.306.306,0,0,1-.083.2v-.389a.307.307,0,0,0,.083-.2" transform="translate(-53.358 -266.516)" fill="#c2c3d0"/><path d="M53.109,267.375v.389a.566.566,0,0,1-.143.115,1.027,1.027,0,0,1-.386.122v-.389a1.022,1.022,0,0,0,.386-.122.564.564,0,0,0,.143-.115" transform="translate(-51.639 -267.17)" fill="#c2c3d0"/><path d="M49.522,266.944v.389a1.189,1.189,0,0,1-.711-.121.389.389,0,0,1-.229-.32V266.5a.388.388,0,0,0,.229.32,1.189,1.189,0,0,0,.711.121" transform="translate(-48.581 -266.503)" fill="#c2c3d0"/></g></g><g transform="translate(0 -7.605)"><g clip-path="url(#d)"><path d="M49.909,264.733a.336.336,0,0,1,0,.635,1.21,1.21,0,0,1-1.1,0,.336.336,0,0,1,0-.636,1.209,1.209,0,0,1,1.1,0" transform="translate(-37.158 -202.363)" fill="#fff"/><path d="M25.663,262.269v.389a.385.385,0,0,1-.226.316,1.21,1.21,0,0,1-1.1,0,.389.389,0,0,1-.229-.32v-.389a.389.389,0,0,0,.229.32,1.209,1.209,0,0,0,1.1,0,.385.385,0,0,0,.226-.316" transform="translate(-18.439 -200.577)" fill="#c2c3d0"/></g></g><g transform="translate(5.671 54.083)"><g clip-path="url(#q)"><path d="M30.44,262.282v.389a.307.307,0,0,1-.083.2v-.389a.308.308,0,0,0,.083-.2" transform="translate(-28.887 -262.278)" fill="#c2c3d0"/><path d="M28.638,263.137v.389a.565.565,0,0,1-.143.115,1.027,1.027,0,0,1-.386.122v-.389a1.022,1.022,0,0,0,.386-.122.564.564,0,0,0,.143-.115" transform="translate(-27.168 -262.932)" fill="#c2c3d0"/><path d="M25.052,262.707v.389a1.189,1.189,0,0,1-.711-.121.389.389,0,0,1-.229-.32v-.389a.388.388,0,0,0,.229.32,1.19,1.19,0,0,0,.711.121" transform="translate(-24.111 -262.265)" fill="#c2c3d0"/></g></g><g transform="translate(0 -7.605)"><g clip-path="url(#d)"><path d="M25.438,260.495a.336.336,0,0,1,0,.635,1.21,1.21,0,0,1-1.1,0,.336.336,0,0,1,0-.636,1.208,1.208,0,0,1,1.1,0" transform="translate(-18.443 -199.122)" fill="#fff"/><path d="M9.279,250.118v.389a.385.385,0,0,1-.226.316,1.21,1.21,0,0,1-1.1,0,.389.389,0,0,1-.229-.32v-.389a.388.388,0,0,0,.229.32,1.209,1.209,0,0,0,1.1,0,.385.385,0,0,0,.226-.316" transform="translate(-5.909 -191.284)" fill="#c2c3d0"/></g></g><g transform="translate(1.817 51.225)"><g clip-path="url(#s)"><path d="M14.056,250.13v.389a.308.308,0,0,1-.083.2v-.389a.308.308,0,0,0,.083-.2" transform="translate(-12.503 -250.126)" fill="#c2c3d0"/><path d="M12.254,250.986v.389a.566.566,0,0,1-.143.115,1.027,1.027,0,0,1-.386.122v-.389a1.027,1.027,0,0,0,.386-.122.564.564,0,0,0,.143-.115" transform="translate(-10.784 -250.781)" fill="#c2c3d0"/><path d="M8.668,250.555v.389a1.189,1.189,0,0,1-.711-.121.389.389,0,0,1-.229-.32v-.389a.388.388,0,0,0,.229.32,1.187,1.187,0,0,0,.711.121" transform="translate(-7.727 -250.113)" fill="#c2c3d0"/></g></g><g transform="translate(0 -7.605)"><g clip-path="url(#d)"><path d="M9.054,248.344a.336.336,0,0,1,0,.635,1.21,1.21,0,0,1-1.1,0,.336.336,0,0,1,0-.636,1.208,1.208,0,0,1,1.1,0" transform="translate(-5.913 -189.829)" fill="#fff"/><path d="M10.523,231.553v.389a.385.385,0,0,1-.226.316,1.21,1.21,0,0,1-1.1,0,.389.389,0,0,1-.229-.32v-.389a.388.388,0,0,0,.229.32,1.21,1.21,0,0,0,1.1,0,.386.386,0,0,0,.226-.316" transform="translate(-6.86 -177.086)" fill="#c2c3d0"/></g></g><g transform="translate(2.11 46.858)"><g clip-path="url(#u)"><path d="M15.3,231.565v.389a.308.308,0,0,1-.083.2v-.389a.308.308,0,0,0,.083-.2" transform="translate(-13.747 -231.561)" fill="#c2c3d0"/><path d="M13.5,232.42v.389a.567.567,0,0,1-.143.115,1.027,1.027,0,0,1-.386.122v-.389a1.023,1.023,0,0,0,.386-.122.565.565,0,0,0,.143-.115" transform="translate(-12.028 -232.215)" fill="#c2c3d0"/><path d="M9.911,231.99v.389a1.189,1.189,0,0,1-.711-.121.389.389,0,0,1-.229-.32v-.389a.388.388,0,0,0,.229.32,1.19,1.19,0,0,0,.711.121" transform="translate(-8.97 -231.548)" fill="#c2c3d0"/></g></g><g transform="translate(0 -7.605)"><g clip-path="url(#d)"><path d="M10.3,229.778a.336.336,0,0,1,0,.635,1.209,1.209,0,0,1-1.1,0,.336.336,0,0,1,0-.636,1.208,1.208,0,0,1,1.1,0" transform="translate(-6.864 -175.63)" fill="#fff"/><path d="M30.5,198l-.028,9.972c0,1.393-.919,2.784-2.748,3.847a14.746,14.746,0,0,1-13.38,0c-1.865-1.077-2.8-2.49-2.792-3.9l.028-9.971c0,1.411.927,2.824,2.792,3.9a14.744,14.744,0,0,0,13.38,0c1.829-1.062,2.744-2.453,2.748-3.847" transform="translate(-8.832 -151.385)" fill="#117488"/></g></g><g transform="translate(2.716 38.954)"><g clip-path="url(#w)"><path d="M30.5,198l-.028,9.972c0,1.393-.919,2.784-2.748,3.847a14.746,14.746,0,0,1-13.38,0c-1.865-1.077-2.8-2.49-2.792-3.9l.028-9.971c0,1.411.927,2.824,2.792,3.9a14.744,14.744,0,0,0,13.38,0c1.829-1.062,2.744-2.453,2.748-3.847" transform="translate(-11.549 -197.944)" fill="#868c90"/></g></g><g transform="translate(0 -7.605)"><g clip-path="url(#d)"><path d="M27.8,176.365c3.707,2.14,3.726,5.61.045,7.75a14.746,14.746,0,0,1-13.38,0c-3.706-2.14-3.725-5.609-.042-7.75a14.742,14.742,0,0,1,13.377,0" transform="translate(-8.924 -133.654)" fill="#cbcbcb"/><path d="M118.208,104.25l-.947-.55a.6.6,0,0,1-.25-.55l.947.55a.6.6,0,0,0,.25.55" transform="translate(-89.489 -78.888)" fill="#e0e2ea"/></g></g><g transform="translate(27.522 16.657)"><g clip-path="url(#y)"><path d="M118.208,104.25l-.947-.55a.6.6,0,0,1-.25-.55l.947.55a.6.6,0,0,0,.25.55" transform="translate(-117.011 -103.15)" fill="#e0e2ea"/></g></g><g transform="translate(0 -7.605)"><g clip-path="url(#d)"><path d="M117.856,67.741l-.947-.55-.031-11.059.947.55Z" transform="translate(-89.387 -42.929)" fill="#e0e2ea"/><path d="M121.122,49.393l.947.55a.605.605,0,0,0-.61.06l-.947-.55a.605.605,0,0,1,.61-.06" transform="translate(-92.166 -37.731)" fill="#e0e2ea"/></g></g><g transform="translate(28.346 3.999)"><g clip-path="url(#aa)"><path d="M121.459,50.118l-.947-.55a.982.982,0,0,1,.181-.083l.947.55a.981.981,0,0,0-.181.083" transform="translate(-120.512 -49.45)" fill="#e0e2ea"/><path d="M122.23,49.921l-.947-.55a.606.606,0,0,1,.274-.031l.947.55a.606.606,0,0,0-.274.031" transform="translate(-121.102 -49.336)" fill="#e0e2ea"/><path d="M123.394,49.906l-.947-.55a.428.428,0,0,1,.155.053l.947.55a.426.426,0,0,0-.155-.053" transform="translate(-121.992 -49.351)" fill="#e0e2ea"/></g></g><g transform="translate(0 -7.605)"><g clip-path="url(#d)"><path d="M117.824,51.868l-.947-.55a1.884,1.884,0,0,1,.855-1.481l.947.55a1.884,1.884,0,0,0-.855,1.481" transform="translate(-89.386 -38.115)" fill="#e0e2ea"/></g></g><g transform="translate(27.491 4.117)"><g clip-path="url(#ac)"><path d="M117.824,55.894l-.947-.55a1.325,1.325,0,0,1,.023-.242l.947.55a1.324,1.324,0,0,0-.023.242" transform="translate(-116.877 -53.864)" fill="#e0e2ea"/><path d="M117.92,54.456l-.947-.55a1.782,1.782,0,0,1,.111-.368l.947.55a1.78,1.78,0,0,0-.111.368" transform="translate(-116.951 -52.667)" fill="#e0e2ea"/><path d="M118.394,52.99l-.947-.55a2.09,2.09,0,0,1,.181-.338l.947.55a2.091,2.091,0,0,0-.181.338" transform="translate(-117.313 -51.569)" fill="#e0e2ea"/><path d="M119.162,51.465l-.947-.55a1.887,1.887,0,0,1,.311-.365l.947.55a1.894,1.894,0,0,0-.311.365" transform="translate(-117.901 -50.382)" fill="#e0e2ea"/><path d="M120.486,50.555l-.947-.55a1.392,1.392,0,0,1,.229-.168l.947.55a1.393,1.393,0,0,0-.229.168" transform="translate(-118.913 -49.837)" fill="#e0e2ea"/></g></g><g transform="translate(0 -7.605)"><g clip-path="url(#d)"><path d="M121.758,51.793c.474-.274.859-.055.86.49l.031,11.059a1.883,1.883,0,0,1-.855,1.481c-.473.273-.859.054-.86-.49L120.9,53.273a1.883,1.883,0,0,1,.855-1.481" transform="translate(-92.465 -39.52)" fill="#c2c3d0"/><path d="M33.059,188.028l-.006,1.844c0,1.066-.8,2.131-2.381,2.944a14.28,14.28,0,0,1-11.587,0c-1.616-.824-2.423-1.906-2.419-2.986l.006-1.844c0,1.08.8,2.162,2.419,2.986a14.28,14.28,0,0,0,11.586,0c1.585-.814,2.378-1.878,2.381-2.944" transform="translate(-12.746 -143.769)" fill="#252529"/></g></g><g transform="translate(3.92 36.611)"><g clip-path="url(#ae)"><path d="M33.059,188.028l-.006,1.844c0,1.066-.8,2.131-2.381,2.944a14.28,14.28,0,0,1-11.587,0c-1.616-.824-2.423-1.906-2.419-2.986l.006-1.844c0,1.08.8,2.162,2.419,2.986a14.28,14.28,0,0,0,11.586,0c1.585-.814,2.378-1.878,2.381-2.944" transform="translate(-16.666 -187.986)" fill="#252529"/></g></g><g transform="translate(0 -7.605)"><g clip-path="url(#d)"><path d="M30.659,169.3c3.211,1.854,3.227,4.859.038,6.712a12.768,12.768,0,0,1-11.587,0c-3.211-1.853-3.228-4.859-.04-6.711a12.77,12.77,0,0,1,11.588,0" transform="translate(-12.765 -128.416)" fill="#38373e"/><path d="M57.824,142.524l4.793,2.785a2.344,2.344,0,0,0-2.364.231l-4.793-2.785a2.344,2.344,0,0,1,2.364-.231" transform="translate(-42.415 -108.829)" fill="#fff"/></g></g><g transform="translate(13.045 25.865)"><g clip-path="url(#ag)"><path d="M60.254,145.541l-4.793-2.785a2.648,2.648,0,0,1,1.944-.4l4.793,2.785a2.649,2.649,0,0,0-1.944.4" transform="translate(-55.461 -142.299)" fill="#fff"/><path d="M68.52,145.315l-4.793-2.785a1.617,1.617,0,0,1,.42.17l4.793,2.785a1.609,1.609,0,0,0-.42-.17" transform="translate(-61.783 -142.476)" fill="#fff"/></g></g><g transform="translate(0 -7.605)"><g clip-path="url(#d)"><path d="M47.653,150.842l-4.793-2.785a7.31,7.31,0,0,1,2.964-3.82l4.793,2.785a7.31,7.31,0,0,0-2.964,3.82" transform="translate(-32.779 -110.311)" fill="#fff"/></g></g><g transform="translate(10.081 26.321)"><g clip-path="url(#ai)"><path d="M47.653,159.4l-4.793-2.785a7.811,7.811,0,0,1,.53-1.189l4.793,2.785a7.8,7.8,0,0,0-.53,1.189" transform="translate(-42.86 -152.793)" fill="#fff"/><path d="M49.9,149.654l-4.793-2.785a6.862,6.862,0,0,1,2.434-2.632l4.793,2.785a6.862,6.862,0,0,0-2.434,2.632" transform="translate(-44.582 -144.237)" fill="#fff"/></g></g><g transform="translate(0 -7.605)"><g clip-path="url(#d)"><path d="M29.129,168.879l-4.793-2.785,4.357-5.615,4.793,2.785Z" transform="translate(-18.612 -122.731)" fill="#fff"/><path d="M27.16,189.317l-4.793-2.785c-.477-.277-.492-1.286.2-2.181l4.793,2.785c-.694.895-.68,1.9-.2,2.181" transform="translate(-16.845 -140.989)" fill="#fff"/></g></g><g transform="translate(5.181 35.757)"><g clip-path="url(#ak)"><path d="M27.16,190.565l-4.793-2.785c-.41-.238-.478-1.016-.05-1.8l4.793,2.785c-.428.781-.36,1.559.05,1.8" transform="translate(-22.026 -185.599)" fill="#fff"/><path d="M28.056,187.521l-4.793-2.785a2.911,2.911,0,0,1,.252-.383l4.793,2.785a2.913,2.913,0,0,0-.252.383" transform="translate(-22.972 -184.352)" fill="#fff"/></g></g><g transform="translate(0 -7.605)"><g clip-path="url(#d)"><path d="M50.268,154.6c1.835-1.06,3.328-.209,3.334,1.9a7.3,7.3,0,0,1-3.312,5.737l-6.734,3.888c-1.155.667-1.589-.826-.608-2.09l4.357-5.615a7.308,7.308,0,0,1,2.964-3.82" transform="translate(-32.43 -117.885)" fill="#c2c3d0"/><path d="M127.527,49.8l1.725,1a.835.835,0,0,0-.838.07l-1.725-1a.836.836,0,0,1,.838-.07" transform="translate(-96.89 -38.02)" fill="#fff"/></g></g><g transform="translate(29.799 4.088)"><g clip-path="url(#am)"><path d="M128.414,50.867l-1.725-1a.941.941,0,0,1,.683-.133l1.725,1a.94.94,0,0,0-.683.133" transform="translate(-126.689 -49.712)" fill="#fff"/><path d="M131.316,50.8l-1.725-1a.61.61,0,0,1,.156.063l1.725,1a.6.6,0,0,0-.156-.063" transform="translate(-128.908 -49.776)" fill="#fff"/></g></g><g transform="translate(0 -7.605)"><g clip-path="url(#d)"><path d="M54.7,102.343l-1.725-1a.894.894,0,0,1-.368-.819l1.725,1a.894.894,0,0,0,.368.819" transform="translate(-40.235 -76.878)" fill="#fff"/></g></g><g transform="translate(12.374 16.039)"><g clip-path="url(#ao)"><path d="M54.7,102.343l-1.725-1a.894.894,0,0,1-.368-.819l1.725,1a.894.894,0,0,0,.368.819" transform="translate(-52.609 -100.522)" fill="#fff"/></g></g><g transform="translate(0 -7.605)"><g clip-path="url(#d)"><path d="M59.513,60.434l-1.725-1,16.206-9.07,1.725,1Z" transform="translate(-44.196 -38.516)" fill="#fff"/><path d="M54.328,99.661l-1.725-1,0-.573,1.725,1Z" transform="translate(-40.229 -75.015)" fill="#fff"/><path d="M54.327,92.079l-1.725-1a2.73,2.73,0,0,1,1.22-2.156l1.725,1a2.73,2.73,0,0,0-1.22,2.156" transform="translate(-40.229 -68.006)" fill="#fff"/></g></g><g transform="translate(12.372 13.31)"><g clip-path="url(#aq)"><path d="M54.327,95.2l-1.725-1a2.554,2.554,0,0,1,.335-1.2l1.725,1a2.555,2.555,0,0,0-.335,1.2" transform="translate(-52.602 -92.044)" fill="#fff"/><path d="M55.753,90.884l-1.725-1a2.5,2.5,0,0,1,.885-.96l1.725,1a2.5,2.5,0,0,0-.885.961" transform="translate(-53.692 -88.921)" fill="#fff"/></g></g><g transform="translate(0 -7.605)"><g clip-path="url(#d)"><path d="M61.057,63.114l16.206-9.07c.668-.374,1.207-.038,1.209.753a2.738,2.738,0,0,1-1.2,2.145L61.085,66.574c-.693.4-1.244.069-1.246-.732l0-.573a2.73,2.73,0,0,1,1.22-2.156" transform="translate(-45.763 -41.216)" fill="#c2c3d0"/><path d="M118.447,123.594l.576-.33.441.767-.576.33Z" transform="translate(-90.587 -94.271)" fill="#2a2a2a"/><path d="M119.129,126.854l.576-.33-.367.214-.576.33Z" transform="translate(-90.828 -96.764)" fill="#232323"/><path d="M118.449,117.468l.576-.33,0,1.441-.576.329Z" transform="translate(-90.587 -89.586)" fill="#303030"/><path d="M119.264,115.464l.576-.33-.809.471-.576.33Z" transform="translate(-90.593 -88.054)" fill="#232323"/><path d="M120.982,112.387l.576-.33,1.22.7-.576.33Z" transform="translate(-92.526 -85.7)" fill="#1e1e1e"/><path d="M126.167,115.371l.576-.33v.6l-.576.329Z" transform="translate(-96.49 -87.982)" fill="#303030"/><path d="M118.578,114.76l-1.005-.578-.808.471,0,1.441.441.767-.367.214-.592-1.03,0-1.938,1.112-.648,1.22.7Z" transform="translate(-88.902 -86.772)" fill="#2b2b2b"/><path d="M134.122,134.786l.576-.33-.594.346-.576.33Z" transform="translate(-102.12 -102.83)" fill="#232323"/><path d="M126.167,115.37l.576-.33,1.22.7-.576.329Z" transform="translate(-96.491 -87.982)" fill="#1e1e1e"/><path d="M131.354,118.355l.576-.33,1.108,1.926-.576.33Z" transform="translate(-100.458 -90.264)" fill="#2a2a2a"/><path d="M136.057,126.545l.576-.33,0,1.938-.576.33Z" transform="translate(-104.053 -96.528)" fill="#303030"/><path d="M128.49,121.009l-.594.346-.366-.635.442-.258,0-1.441-.806-1.4-1.006-.579v-.6l1.22.7,1.108,1.926Z" transform="translate(-96.488 -89.053)" fill="#2b2b2b"/><path d="M125.684,103.134l2.478-1.44-.009,3.144-2.478,1.44Z" transform="translate(-96.115 -77.774)" fill="#c2c3d0"/><path d="M119.767,96.7l2.478-1.44a.578.578,0,0,1,.583.057l-2.478,1.44a.578.578,0,0,0-.583-.057" transform="translate(-91.596 -72.813)" fill="#c2c3d0"/></g></g><g transform="translate(28.171 14.789)"><g clip-path="url(#as)"><path d="M119.767,96.7l2.478-1.44a.435.435,0,0,1,.252-.054l-2.478,1.44a.433.433,0,0,0-.252.054" transform="translate(-119.767 -95.206)" fill="#c2c3d0"/><path d="M120.837,96.651l2.478-1.44a.674.674,0,0,1,.172.037l-2.478,1.44a.655.655,0,0,0-.172-.037" transform="translate(-120.585 -95.21)" fill="#c2c3d0"/><path d="M121.57,96.809l2.478-1.44a.958.958,0,0,1,.159.074l-2.478,1.44a.958.958,0,0,0-.159-.074" transform="translate(-121.146 -95.331)" fill="#c2c3d0"/></g></g><g transform="translate(0 -7.605)"><g clip-path="url(#d)"><path d="M122.243,97.123l2.478-1.44a1.8,1.8,0,0,1,.816,1.414l-2.479,1.44a1.8,1.8,0,0,0-.816-1.413" transform="translate(-93.49 -73.177)" fill="#c2c3d0"/></g></g><g transform="translate(28.753 14.901)"><g clip-path="url(#au)"><path d="M122.243,97.123l2.478-1.44.008,0-2.478,1.44-.008,0" transform="translate(-122.243 -95.683)" fill="#c2c3d0"/><path d="M122.277,97.143l2.478-1.44a1.277,1.277,0,0,1,.177.127l-2.478,1.44a1.305,1.305,0,0,0-.177-.127" transform="translate(-122.269 -95.698)" fill="#c2c3d0"/><path d="M123.031,97.682l2.478-1.44a1.625,1.625,0,0,1,.172.17l-2.479,1.44a1.626,1.626,0,0,0-.172-.17" transform="translate(-122.846 -96.111)" fill="#c2c3d0"/><path d="M123.763,98.4l2.478-1.44a1.965,1.965,0,0,1,.317.5L124.08,98.9a1.974,1.974,0,0,0-.317-.5" transform="translate(-123.405 -96.663)" fill="#c2c3d0"/><path d="M125.111,100.523l2.478-1.44a1.817,1.817,0,0,1,.076.2l-2.478,1.44a1.81,1.81,0,0,0-.076-.2" transform="translate(-124.436 -98.283)" fill="#c2c3d0"/><path d="M125.434,101.386l2.478-1.44a1.541,1.541,0,0,1,.05.214l-2.478,1.44a1.553,1.553,0,0,0-.05-.214" transform="translate(-124.683 -98.943)" fill="#c2c3d0"/><path d="M125.646,102.293l2.478-1.44a1.24,1.24,0,0,1,.016.2l-2.478,1.44a1.241,1.241,0,0,0-.016-.2" transform="translate(-124.846 -99.637)" fill="#c2c3d0"/></g></g><g transform="translate(0 -7.605)"><g clip-path="url(#d)"><path d="M119.543,101.442a1.8,1.8,0,0,1,.816,1.413L120.351,106l-1.638-.945.009-3.144c0-.519.369-.729.821-.468" transform="translate(-90.79 -77.496)" fill="#e0e2ea"/><path d="M66.011,172.571,64.163,171.5a1.17,1.17,0,0,1-.468-1.124l1.847,1.073a1.171,1.171,0,0,0,.468,1.125" transform="translate(-48.712 -130.299)" fill="#e0e2ea"/></g></g><g transform="translate(14.982 32.469)"><g clip-path="url(#aw)"><path d="M66.011,172.571,64.163,171.5a1.17,1.17,0,0,1-.468-1.124l1.847,1.073a1.171,1.171,0,0,0,.468,1.125" transform="translate(-63.694 -170.373)" fill="#e0e2ea"/></g></g><g transform="translate(0 -7.605)"><g clip-path="url(#d)"><path d="M74.729,78.855l1.847,1.073a1.137,1.137,0,0,0-1.146.112l-1.847-1.073a1.137,1.137,0,0,1,1.146-.112" transform="translate(-56.275 -60.224)" fill="#e0e2ea"/></g></g><g transform="translate(17.308 10.917)"><g clip-path="url(#ay)"><path d="M75.43,80.122l-1.847-1.073a1.679,1.679,0,0,1,.491-.2l1.847,1.074a1.675,1.675,0,0,0-.491.2" transform="translate(-73.583 -78.828)" fill="#e0e2ea"/><path d="M77.518,79.845l-1.847-1.073a.92.92,0,0,1,.627.068l1.847,1.073a.92.92,0,0,0-.627-.068" transform="translate(-75.18 -78.746)" fill="#e0e2ea"/><path d="M80.182,80.214,78.335,79.14l.029.016,1.847,1.073-.029-.016" transform="translate(-77.217 -79.047)" fill="#e0e2ea"/></g></g><g transform="translate(0 -7.605)"><g clip-path="url(#d)"><path d="M65.548,110.833,63.7,109.759l.721-18.642,1.847,1.073Z" transform="translate(-48.717 -69.686)" fill="#e0e2ea"/><path d="M68.611,83.447l-1.847-1.073a3.559,3.559,0,0,1,1.6-2.689l1.847,1.074a3.559,3.559,0,0,0-1.6,2.689" transform="translate(-51.06 -60.942)" fill="#e0e2ea"/></g></g><g transform="translate(15.704 11.138)"><g clip-path="url(#ba)"><path d="M68.611,88.523,66.764,87.45a3.12,3.12,0,0,1,.282-1.128L68.893,87.4a3.12,3.12,0,0,0-.282,1.128" transform="translate(-66.764 -84.761)" fill="#e0e2ea"/><path d="M69.81,84.548l-1.847-1.074a3.9,3.9,0,0,1,.54-.876l1.847,1.073a3.9,3.9,0,0,0-.539.876" transform="translate(-67.681 -81.914)" fill="#e0e2ea"/><path d="M72.1,81.444,70.256,80.37a2.939,2.939,0,0,1,.783-.685l1.847,1.073a2.936,2.936,0,0,0-.783.685" transform="translate(-69.435 -79.685)" fill="#e0e2ea"/></g></g><g transform="translate(0 -7.605)"><g clip-path="url(#d)"><path d="M73.873,83.531c.859-.5,1.569-.13,1.614.831l.824,17.75a3.513,3.513,0,0,1-1.6,2.87l-1.544.892c-.92.531-1.657.071-1.614-1.012l.72-18.642a3.559,3.559,0,0,1,1.6-2.689" transform="translate(-54.718 -63.714)" fill="#c2c3d0"/><path d="M82.232,157.722l.6.35a1.027,1.027,0,0,0-1.036.1l-.6-.35a1.027,1.027,0,0,1,1.036-.1" transform="translate(-62.098 -120.548)" fill="#fff"/></g></g><g transform="translate(19.098 29.47)"><g clip-path="url(#bc)"><path d="M81.8,158.174l-.6-.35a1.162,1.162,0,0,1,.852-.176l.6.35a1.161,1.161,0,0,0-.852.176" transform="translate(-81.196 -157.624)" fill="#fff"/><path d="M85.423,158.075l-.6-.35A.707.707,0,0,1,85,157.8l.6.35a.7.7,0,0,0-.184-.075" transform="translate(-83.967 -157.701)" fill="#fff"/></g></g><g transform="translate(0 -7.605)"><g clip-path="url(#d)"><path d="M76.05,162.272l-.6-.35a1.019,1.019,0,0,1-.425-.934,3.2,3.2,0,0,1,1.452-2.515l.6.35a3.2,3.2,0,0,0-1.452,2.515,1.019,1.019,0,0,0,.425.934" transform="translate(-57.377 -121.198)" fill="#fff"/></g></g><g transform="translate(17.646 29.67)"><g clip-path="url(#be)"><path d="M76.05,166.023l-.6-.35a1.018,1.018,0,0,1-.425-.934,2.906,2.906,0,0,1,.385-1.361l.6.35a2.906,2.906,0,0,0-.385,1.361,1.019,1.019,0,0,0,.425.934" transform="translate(-75.023 -162.224)" fill="#fff"/><path d="M77.261,159.977l-.6-.35a3.011,3.011,0,0,1,1.067-1.153l.6.35a3.006,3.006,0,0,0-1.067,1.153" transform="translate(-76.273 -158.473)" fill="#fff"/></g></g><g transform="translate(0 -7.605)"><g clip-path="url(#d)"><path d="M79.039,159.313c.8-.465,1.459-.091,1.461.833a3.2,3.2,0,0,1-1.452,2.514c-.8.464-1.459.092-1.461-.832a3.2,3.2,0,0,1,1.452-2.515" transform="translate(-59.338 -121.688)" fill="#252529"/><path d="M130.857,110.9l-.947-.55a.6.6,0,0,1-.25-.55l.947.55a.6.6,0,0,0,.25.55" transform="translate(-99.162 -83.971)" fill="#e0e2ea"/></g></g><g transform="translate(30.498 18.22)"><g clip-path="url(#bg)"><path d="M130.857,110.9l-.947-.55a.6.6,0,0,1-.25-.55l.947.55a.6.6,0,0,0,.25.55" transform="translate(-129.66 -109.797)" fill="#e0e2ea"/></g></g><g transform="translate(0 -7.605)"><g clip-path="url(#d)"><path d="M130.506,74.388l-.947-.55-.031-11.059.947.55Z" transform="translate(-99.061 -48.012)" fill="#e0e2ea"/><path d="M133.772,56.04l.947.55a.605.605,0,0,0-.61.06l-.947-.55a.605.605,0,0,1,.61-.06" transform="translate(-101.841 -42.815)" fill="#e0e2ea"/></g></g><g transform="translate(31.321 5.563)"><g clip-path="url(#bi)"><path d="M134.108,56.765l-.947-.55a.981.981,0,0,1,.181-.083l.947.55a.972.972,0,0,0-.181.083" transform="translate(-133.161 -56.097)" fill="#e0e2ea"/><path d="M134.88,56.568l-.947-.55a.6.6,0,0,1,.274-.031l.947.55a.6.6,0,0,0-.274.03" transform="translate(-133.751 -55.983)" fill="#e0e2ea"/><path d="M136.044,56.553,135.1,56a.428.428,0,0,1,.155.053l.947.55a.427.427,0,0,0-.155-.053" transform="translate(-134.642 -55.998)" fill="#e0e2ea"/></g></g><g transform="translate(0 -7.605)"><g clip-path="url(#d)"><path d="M130.474,58.515l-.947-.55a1.884,1.884,0,0,1,.855-1.481l.947.55a1.883,1.883,0,0,0-.855,1.481" transform="translate(-99.061 -43.198)" fill="#e0e2ea"/></g></g><g transform="translate(30.466 5.681)"><g clip-path="url(#bk)"><path d="M130.474,62.541l-.947-.55a1.325,1.325,0,0,1,.023-.242l.947.55a1.325,1.325,0,0,0-.023.242" transform="translate(-129.527 -60.511)" fill="#e0e2ea"/><path d="M130.57,61.1l-.947-.55a1.782,1.782,0,0,1,.111-.368l.946.55a1.8,1.8,0,0,0-.111.368" transform="translate(-129.6 -59.314)" fill="#e0e2ea"/><path d="M131.044,59.637l-.947-.55a2.074,2.074,0,0,1,.181-.338l.947.55a2.075,2.075,0,0,0-.181.338" transform="translate(-129.963 -58.216)" fill="#e0e2ea"/><path d="M131.812,58.111l-.947-.55a1.894,1.894,0,0,1,.311-.365l.947.55a1.888,1.888,0,0,0-.311.365" transform="translate(-130.55 -57.029)" fill="#e0e2ea"/><path d="M133.136,57.2l-.947-.55a1.392,1.392,0,0,1,.229-.168l.947.55a1.384,1.384,0,0,0-.229.168" transform="translate(-131.563 -56.484)" fill="#e0e2ea"/></g></g><g transform="translate(0 -7.605)"><g clip-path="url(#d)"><path d="M134.407,58.44c.474-.274.859-.055.86.49l.031,11.059a1.883,1.883,0,0,1-.855,1.481c-.473.273-.859.054-.86-.49l-.031-11.059a1.883,1.883,0,0,1,.855-1.481" transform="translate(-102.139 -44.604)" fill="#c2c3d0"/><path d="M137.184,106.244l.229.133a.391.391,0,0,0-.394.039l-.229-.133a.391.391,0,0,1,.394-.039" transform="translate(-104.615 -81.226)" fill="#fff"/></g></g><g transform="translate(32.174 17.376)"><g clip-path="url(#bm)"><path d="M137.019,106.417l-.229-.133a.442.442,0,0,1,.324-.067l.229.133a.443.443,0,0,0-.324.067" transform="translate(-136.79 -106.207)" fill="#fff"/><path d="M138.4,106.378l-.229-.133a.269.269,0,0,1,.07.028l.23.133a.276.276,0,0,0-.07-.028" transform="translate(-137.844 -106.236)" fill="#fff"/></g></g><g transform="translate(0 -7.605)"><g clip-path="url(#d)"><path d="M134.832,107.975l-.229-.133a.387.387,0,0,1-.162-.355,1.218,1.218,0,0,1,.552-.957l.229.133a1.217,1.217,0,0,0-.552.957.388.388,0,0,0,.162.355" transform="translate(-102.819 -81.473)" fill="#fff"/></g></g><g transform="translate(31.622 17.452)"><g clip-path="url(#bo)"><path d="M134.832,109.4l-.229-.133a.387.387,0,0,1-.162-.355,1.107,1.107,0,0,1,.146-.518l.229.133a1.106,1.106,0,0,0-.146.518.388.388,0,0,0,.162.355" transform="translate(-134.441 -107.957)" fill="#fff"/><path d="M135.292,107.1l-.229-.133a1.145,1.145,0,0,1,.406-.439l.229.133a1.146,1.146,0,0,0-.406.439" transform="translate(-134.917 -106.53)" fill="#fff"/></g></g><g transform="translate(0 -7.605)"><g clip-path="url(#d)"><path d="M135.969,106.85c.306-.177.555-.035.556.317a1.217,1.217,0,0,1-.553.957c-.306.177-.555.035-.556-.317a1.217,1.217,0,0,1,.552-.957" transform="translate(-103.565 -81.659)" fill="#252529"/><path d="M137.921,60.219l.23.134a.392.392,0,0,0-.4.039l-.23-.134a.392.392,0,0,1,.4-.039" transform="translate(-105.177 -46.026)" fill="#fff"/></g></g><g transform="translate(32.348 6.55)"><g clip-path="url(#bq)"><path d="M137.756,60.391l-.23-.134a.444.444,0,0,1,.325-.067l.23.134a.443.443,0,0,0-.325.067" transform="translate(-137.526 -60.181)" fill="#fff"/><path d="M139.139,60.354l-.23-.134a.278.278,0,0,1,.07.028l.23.134a.274.274,0,0,0-.07-.028" transform="translate(-138.583 -60.211)" fill="#fff"/></g></g><g transform="translate(0 -7.605)"><g clip-path="url(#d)"><path d="M135.562,61.955l-.23-.134a.389.389,0,0,1-.162-.356,1.221,1.221,0,0,1,.554-.96l.23.134a1.221,1.221,0,0,0-.554.96.389.389,0,0,0,.162.356" transform="translate(-103.376 -46.273)" fill="#fff"/></g></g><g transform="translate(31.793 6.627)"><g clip-path="url(#bs)"><path d="M135.562,63.388l-.23-.134a.389.389,0,0,1-.162-.356,1.107,1.107,0,0,1,.147-.519l.23.134a1.111,1.111,0,0,0-.147.52.389.389,0,0,0,.162.356" transform="translate(-135.17 -61.938)" fill="#fff"/><path d="M136.024,61.08l-.23-.134a1.145,1.145,0,0,1,.407-.44l.23.134a1.148,1.148,0,0,0-.407.44" transform="translate(-135.647 -60.506)" fill="#fff"/></g></g><g transform="translate(0 -7.605)"><g clip-path="url(#d)"><path d="M136.7,60.826c.307-.177.557-.035.558.318a1.22,1.22,0,0,1-.554.96c-.307.177-.557.035-.558-.318a1.222,1.222,0,0,1,.554-.96" transform="translate(-104.124 -46.461)" fill="#252529"/><g transform="translate(0 50.594)" opacity="0.2" style="mix-blend-mode:multiply;isolation:isolate"><g clip-path="url(#bu)"><path d="M21.957,217.282c5.046,2.913,5.073,7.637.06,10.55s-13.168,2.913-18.215,0-5.073-7.637-.059-10.55,13.168-2.913,18.214,0" transform="translate(0 -215.097)" fill="#9193a3"/></g></g></g></g></g></g></g></svg>