<svg xmlns="http://www.w3.org/2000/svg" width="93" height="94" viewBox="0 0 93 94"><g transform="translate(-432.712 -3581.824)"><ellipse cx="46.5" cy="47" rx="46.5" ry="47" transform="translate(432.712 3581.824)" fill="#e69999"/><g transform="translate(457.796 3596.246)"><path d="M85.375,33.831V85.013a1.246,1.246,0,0,1-1.246,1.246H44.246A1.246,1.246,0,0,1,43,85.013V33.831a1.246,1.246,0,0,1,1.246-1.246h7.229v1.994a1.246,1.246,0,0,0,1.246,1.246H75.654A1.246,1.246,0,0,0,76.9,34.579V32.585h7.229a1.246,1.246,0,0,1,1.246,1.246Z" transform="translate(-42.377 -25.856)" fill="#f2cccc"/><path d="M88.012,89.519H53.446a.623.623,0,1,1,0-1.246H87.388V39.708a.623.623,0,1,1,1.246,0V88.9A.623.623,0,0,1,88.012,89.519Zm-37.058,0h-.83a.623.623,0,1,1,0-1.246h.83a.623.623,0,0,1,0,1.246Z" transform="translate(-47.257 -30.736)" fill="#3076b6"/><path d="M117.2,140.4a5.366,5.366,0,0,1-3.155,4.888v4.967a9.682,9.682,0,0,1-4.424,0v-4.967a5.367,5.367,0,0,1-.1-9.734v5.8h4.62v-5.8A5.367,5.367,0,0,1,117.2,140.4Z" transform="translate(-90.025 -103.158)" fill="#72c1e8"/><path d="M93.375,103.086H90.648A13.253,13.253,0,0,0,89.3,99.828L91.229,97.9a1.035,1.035,0,0,0,0-1.463l-3.415-3.415a1.04,1.04,0,0,0-1.463,0l-1.932,1.932A13.3,13.3,0,0,0,81.166,93.6V90.874a1.034,1.034,0,0,0-1.034-1.034H75.3a1.034,1.034,0,0,0-1.034,1.034V93.6a13.353,13.353,0,0,0-3.253,1.351l-1.932-1.932a1.04,1.04,0,0,0-1.463,0L64.2,96.436a1.035,1.035,0,0,0,0,1.463l1.932,1.929a13.133,13.133,0,0,0-1.351,3.258H62.057a1.035,1.035,0,0,0-1.037,1.032v4.831a1.037,1.037,0,0,0,1.037,1.034h2.727a13.277,13.277,0,0,0,1.351,3.255L64.2,115.168a1.035,1.035,0,0,0,0,1.463l3.415,3.415a1.035,1.035,0,0,0,1.463,0l1.932-1.932a13.413,13.413,0,0,0,3.253,1.354v2.724a1.033,1.033,0,0,0,1.034,1.034h4.831a1.034,1.034,0,0,0,1.034-1.034v-2.724a13.306,13.306,0,0,0,3.253-1.354l1.932,1.932a1.035,1.035,0,0,0,1.463,0l3.415-3.415a1.035,1.035,0,0,0,0-1.463L89.3,113.239a13.275,13.275,0,0,0,1.351-3.255h2.727a1.037,1.037,0,0,0,1.037-1.034v-4.831A1.035,1.035,0,0,0,93.375,103.086Zm-13.445,12.85h0a9.658,9.658,0,1,1,7.448-9.4A9.671,9.671,0,0,1,79.927,115.936Z" transform="translate(-55.905 -68.839)" fill="#afafaf"/><path d="M117.2,140.4a5.365,5.365,0,0,1-3.156,4.888v4.968a9.671,9.671,0,0,1-4.422,0v-4.968a5.367,5.367,0,0,1-.1-9.734v5.8h4.621v-5.8A5.368,5.368,0,0,1,117.2,140.4Z" transform="translate(-90.026 -103.155)" fill="#f0c020"/><path d="M102.425,12.572v3.614a1.247,1.247,0,0,1-1.246,1.246H78.246A1.247,1.247,0,0,1,77,16.186V12.572a1.247,1.247,0,0,1,1.246-1.246h8.226a3.24,3.24,0,0,1,6.481,0h8.226A1.247,1.247,0,0,1,102.425,12.572Z" transform="translate(-67.902 -7.463)" fill="#f0c020"/><path d="M62.443,100.585H60.187a1.658,1.658,0,0,0-1.657,1.655v4.831a1.658,1.658,0,0,0,1.657,1.655h2.256a14.074,14.074,0,0,0,1.047,2.528l-1.6,1.6a1.657,1.657,0,0,0,0,2.343l3.417,3.415a1.663,1.663,0,0,0,2.341,0l1.6-1.6a13.981,13.981,0,0,0,2.523,1.049v2.256a1.661,1.661,0,0,0,1.657,1.657h4.831a1.661,1.661,0,0,0,1.658-1.657v-2.256a13.965,13.965,0,0,0,2.523-1.047l1.6,1.6a1.661,1.661,0,0,0,2.343,0l3.415-3.415a1.657,1.657,0,0,0,0-2.346l-1.6-1.6a14,14,0,0,0,1.047-2.528H91.5a1.661,1.661,0,0,0,1.66-1.655V102.24a1.662,1.662,0,0,0-1.66-1.655H89.249A13.917,13.917,0,0,0,88.2,98.06l1.6-1.6a1.657,1.657,0,0,0,.356-1.817.632.632,0,0,0-.815-.332.622.622,0,0,0-.334.815.409.409,0,0,1-.087.451l-1.932,1.932a.626.626,0,0,0-.1.753,12.566,12.566,0,0,1,1.286,3.1.624.624,0,0,0,.6.463H91.5a.415.415,0,0,1,.414.409v4.831a.413.413,0,0,1-.414.409H88.778a.624.624,0,0,0-.6.466,12.6,12.6,0,0,1-1.286,3.1.629.629,0,0,0,.1.755l1.932,1.929a.414.414,0,0,1,0,.583L85.5,117.73a.418.418,0,0,1-.584,0L82.991,115.8a.637.637,0,0,0-.755-.1,12.709,12.709,0,0,1-3.1,1.289.622.622,0,0,0-.461.6v2.724a.413.413,0,0,1-.411.411H73.431a.411.411,0,0,1-.411-.411V117.59a.625.625,0,0,0-.461-.6,12.941,12.941,0,0,1-3.066-1.266s0,0,0,0a.631.631,0,0,0-.788.078l-1.929,1.934a.421.421,0,0,1-.583,0l-3.415-3.415a.408.408,0,0,1,0-.583L64.7,111.8a.63.63,0,0,0,.1-.755,12.584,12.584,0,0,1-1.286-3.1.626.626,0,0,0-.6-.466H60.188a.413.413,0,0,1-.414-.409v-4.831a.415.415,0,0,1,.414-.409h2.727a.629.629,0,0,0,.6-.463,12.54,12.54,0,0,1,1.286-3.1.627.627,0,0,0-.1-.753L62.775,95.58a.406.406,0,0,1,0-.581l3.415-3.415a.414.414,0,0,1,.583,0L68.7,93.516a.631.631,0,0,0,.738.107,12.851,12.851,0,0,1,3.118-1.3.622.622,0,0,0,.461-.6V89a.411.411,0,0,1,.411-.411h4.831a.413.413,0,0,1,.411.411v2.727a.622.622,0,0,0,.461.6,12.715,12.715,0,0,1,3.1,1.289.637.637,0,0,0,.755-.1l1.929-1.932a.414.414,0,0,1,.584,0l.172.172a.642.642,0,0,0,.882,0,.627.627,0,0,0,0-.882h0l-.172-.172a1.66,1.66,0,0,0-2.343,0l-1.6,1.6a13.865,13.865,0,0,0-2.523-1.049V89a1.662,1.662,0,0,0-1.658-1.658H73.431A1.661,1.661,0,0,0,71.774,89v2.256A14.027,14.027,0,0,0,69.251,92.3l-1.6-1.6a1.661,1.661,0,0,0-2.346,0l-3.415,3.412a1.66,1.66,0,0,0,0,2.348l1.6,1.6a13.973,13.973,0,0,0-1.047,2.525Z" transform="translate(-54.036 -66.962)"/><path d="M174.836,108.945a.62.62,0,0,0,0-.88.634.634,0,0,0-.88,0,.623.623,0,0,0,.882.88Z" transform="translate(-140.552 -82.388)"/><path d="M92.184,136.226a.622.622,0,1,0,.618-1.079.639.639,0,0,0-.847.227v0A.618.618,0,0,0,92.184,136.226Z" transform="translate(-79.065 -102.794)"/><path d="M87.1,123.184a10.288,10.288,0,1,0,2.613-4.554.624.624,0,0,0,0,.882.639.639,0,0,0,.882,0,9.035,9.035,0,1,1,9.268,14.922v-3.757a5.992,5.992,0,0,0-.257-10.686.623.623,0,0,0-.89.563v5.177H95.345V120.55a.624.624,0,0,0-.89-.563,5.992,5.992,0,0,0-.257,10.686v3.758a8.985,8.985,0,0,1-6.2-8.581,9.126,9.126,0,0,1,.306-2.343.623.623,0,0,0-.441-.763A.631.631,0,0,0,87.1,123.184Zm5.19,2.211a4.719,4.719,0,0,1,1.81-3.729v4.684a.624.624,0,0,0,.623.621h4.621a.624.624,0,0,0,.623-.621v-4.681a4.743,4.743,0,0,1-.979,8.049.619.619,0,0,0-.364.566v4.459a9.157,9.157,0,0,1-3.178,0v-4.46a.624.624,0,0,0-.366-.566A4.755,4.755,0,0,1,92.289,125.4Z" transform="translate(-75.221 -88.155)"/><path d="M111.33,66.456a.623.623,0,1,0,0-1.246H96.623a.623.623,0,1,0,0,1.246Z" transform="translate(-82.166 -50.349)"/><path d="M82.252,11.695H75.647V10.7A1.872,1.872,0,0,0,73.777,8.83H66.125a3.864,3.864,0,0,0-7.628,0H50.845a1.872,1.872,0,0,0-1.87,1.869v.995H42.369a1.873,1.873,0,0,0-1.87,1.869v1.59a.623.623,0,1,0,1.246,0v-1.59a.627.627,0,0,1,.623-.623h6.606v1.373a1.871,1.871,0,0,0,1.87,1.867H73.777a1.871,1.871,0,0,0,1.869-1.867V12.941h6.606a.627.627,0,0,1,.623.623V64.746a.627.627,0,0,1-.623.626H42.369a.627.627,0,0,1-.623-.626V20.14a.623.623,0,0,0-1.246,0V64.746a1.874,1.874,0,0,0,1.87,1.872H82.252a1.874,1.874,0,0,0,1.869-1.872V13.564A1.873,1.873,0,0,0,82.252,11.695ZM50.221,10.7a.627.627,0,0,1,.623-.626H59.07a.622.622,0,0,0,.623-.623,2.617,2.617,0,1,1,5.235,0,.62.62,0,0,0,.623.623h8.226a.629.629,0,0,1,.623.626v3.612a.629.629,0,0,1-.623.623H50.845a.623.623,0,0,1-.623-.623Z" transform="translate(-40.5 -5.59)"/><ellipse cx="0.623" cy="0.623" rx="0.623" ry="0.623" transform="translate(0 11.434)"/><path d="M126.123,16.422a.623.623,0,0,0,.623-.621v-.469a.623.623,0,0,0-1.246,0V15.8A.623.623,0,0,0,126.123,16.422Z" transform="translate(-104.312 -12.437)"/><path d="M85.623,32.206h20.191a.623.623,0,1,0,0-1.246H85.623a.623.623,0,1,0,0,1.246Z" transform="translate(-73.908 -24.636)"/></g></g></svg>