<svg xmlns="http://www.w3.org/2000/svg" xmlns:xlink="http://www.w3.org/1999/xlink" width="73.888" height="74.048" viewBox="0 0 73.888 74.048">
  <defs>
    <radialGradient id="radial-gradient" cx="0.5" cy="0.5" r="0.81" gradientTransform="translate(-0.108 0.14) rotate(-14.357)" gradientUnits="objectBoundingBox">
      <stop offset="0" stop-color="#3076b6"/>
      <stop offset="0.479" stop-color="#c10000"/>
      <stop offset="0.842" stop-color="#1a4063"/>
      <stop offset="1" stop-color="#183b5b"/>
    </radialGradient>
    <filter id="Trazado_881540" x="0" y="0" width="73.888" height="74.048" filterUnits="userSpaceOnUse">
      <feOffset dx="5" dy="3" input="SourceAlpha"/>
      <feGaussianBlur stdDeviation="3" result="blur"/>
      <feFlood flood-opacity="0.161"/>
      <feComposite operator="in" in2="blur"/>
      <feComposite in="SourceGraphic"/>
    </filter>
  </defs>
  <g id="Grupo_1111368" data-name="Grupo 1111368" transform="translate(-176 -5937.292)">
    <g transform="matrix(1, 0, 0, 1, 176, 5937.29)" filter="url(#Trazado_881540)">
      <path id="Trazado_881540-2" data-name="Trazado 881540" d="M62.2,199.116c.167.255.336.5.5.742q-2.423,2.277-4.681,4.76a27.957,27.957,0,0,0,13.1,9.324c1.069-1.947,2.061-3.953,2.971-5.993a21.147,21.147,0,0,0,4.894.836q.273,3.333.805,6.654A27.891,27.891,0,0,0,95.264,211q-1.3-3.093-2.839-6.064a21.053,21.053,0,0,0,3.715-3.3c1.845,1.244,3.753,2.418,5.707,3.512A28.079,28.079,0,0,0,108,190.291c-2.158-.608-4.32-1.132-6.5-1.56a21.934,21.934,0,0,0-.277-4.973c2.121-.667,4.226-1.422,6.282-2.264a28.166,28.166,0,0,0-7.75-14.079c-1.826,1.3-3.591,2.68-5.283,4.11a20.862,20.862,0,0,0-4.048-2.884q1.208-3.12,2.143-6.328a27.142,27.142,0,0,0-7.715-2.5,26.664,26.664,0,0,0-8.116-.2q-.179,3.363-.079,6.672a20.7,20.7,0,0,0-4.782,1.383q-1.676-2.86-3.616-5.626l-.925.437c-.3.157-.592.328-.884.5-.583.342-1.176.669-1.746,1.032a30.189,30.189,0,0,0-3.207,2.5,27.47,27.47,0,0,0-2.86,2.91c-.437.521-.832,1.075-1.244,1.62a15.636,15.636,0,0,0-1.124,1.7q2.521,2.233,5.178,4.222l0,.007a20.6,20.6,0,0,0-1.909,4.592c-2.194-.318-4.4-.549-6.645-.686a27.81,27.81,0,0,0,.882,16.048q3.288-.569,6.532-1.414a20.59,20.59,0,0,0,1.889,3.616m9.044-25.384A16.31,16.31,0,1,1,66.513,196.3a16.33,16.33,0,0,1,4.735-22.569" transform="translate(-48.11 -153.39)" fill="url(#radial-gradient)"/>
    </g>
    <circle id="Elipse_12448" data-name="Elipse 12448" cx="17" cy="17" r="17" transform="translate(191.051 5954.293)" fill="#fff"/>
  </g>
</svg>
