<svg xmlns="http://www.w3.org/2000/svg" width="93" height="94" viewBox="0 0 93 94"><g transform="translate(-646.712 -3581.824)"><ellipse cx="46.5" cy="47" rx="46.5" ry="47" transform="translate(646.712 3581.824)" fill="#c10000"/><g transform="translate(662.734 3601.976)"><g transform="translate(26.875 15.188)"><path d="M53.081,29.982a1.629,1.629,0,0,0-1.123-.457h-.046c-.037-.192-.073-.374-.128-.566a2.732,2.732,0,0,1-.621.192,3.349,3.349,0,0,1-.685.073c-.1,0-.21,0-.31-.009a4.177,4.177,0,0,1-.849-.155A5.052,5.052,0,0,1,48,28.539a4.844,4.844,0,0,1-2.1-2.255.376.376,0,0,0-.648-.082A7.29,7.29,0,0,1,41.64,28.63a8.461,8.461,0,0,1-3.132.429,2.839,2.839,0,0,1-.4-.055c-.155-.018-.292-.046-.429-.073a2.733,2.733,0,0,1-.292-.073c-.128-.046-.247-.082-.356-.128-.073.265-.146.52-.2.794h-.037a1.712,1.712,0,0,0-1.187.5,9.576,9.576,0,0,1-3.972-5.351,4.287,4.287,0,0,1,4.858-5.415,28.074,28.074,0,0,0,4.228.813,15.326,15.326,0,0,0,4.483-.922c1.561-.429,2.484-.74,4.018-.247a4.957,4.957,0,0,1,3.287,3.643,1.7,1.7,0,0,1,1.771,1.242C55.227,26.092,53.894,28.713,53.081,29.982Z" transform="translate(-31.453 -18.654)" fill="#0e9c9c"/></g><g transform="translate(23.722 41.253)"><path d="M60.186,58.878a2.956,2.956,0,0,1-2.968,2.968H30.968A2.967,2.967,0,0,1,28,58.878l.009-1.644c0-2.091-.018-4.848,3.159-7.332a21.2,21.2,0,0,1,6.154-2.4c.082-.018,1.05-.237,1.47-.292l4.292,3.881a1.483,1.483,0,0,0,1.991,0l4.282-3.881c-.009,0-.009-.009-.018-.009.447.055,1.461.292,1.534.3,2.064.511,5.013,1.507,6.154,2.4,3.168,2.484,3.159,5.241,3.159,7.332Z" transform="translate(-28 -47.2)" fill="#e27082"/></g><g transform="translate(23.055 14.53)"><g transform="translate(0 7.379)"><g transform="translate(0 14.358)"><g transform="translate(0 4.325)"><path d="M57.155,62.459H30.9a3.632,3.632,0,0,1-3.634-3.643l.009-1.644c0-2.2,0-5.177,3.415-7.853,1.379-1.077,4.675-2.091,6.4-2.52l.21-.046c.338-.073,1-.219,1.324-.265a.674.674,0,0,1,.539.164l4.292,3.881a.813.813,0,0,0,1.1,0l4.173-3.78a.673.673,0,0,1,.621-.274c.365.046.986.183,1.5.292l.091.018c1.644.411,5.049,1.452,6.437,2.529,3.415,2.675,3.415,5.652,3.415,7.825l.009,1.671a3.632,3.632,0,0,1-3.643,3.643Zm-18.636-14.6-.922.192-.21.046a20.2,20.2,0,0,0-5.862,2.274c-2.9,2.274-2.9,4.766-2.9,6.775l-.009,1.68a2.309,2.309,0,0,0,.667,1.625,2.264,2.264,0,0,0,1.625.676H57.155a2.249,2.249,0,0,0,1.625-.676,2.309,2.309,0,0,0,.667-1.625l-.009-1.644c0-2.036,0-4.538-2.9-6.8A20.524,20.524,0,0,0,50.627,48.1l-.091-.018c-.192-.046-.676-.155-1.05-.219L45.44,51.529a2.134,2.134,0,0,1-2.885,0Z" transform="translate(-27.27 -46.475)" fill="#010101"/></g><g transform="translate(10.781)"><path d="M45.033,51.674a2.123,2.123,0,0,1-1.443-.557L39.3,47.237a.673.673,0,0,1,.119-1.087,5.165,5.165,0,0,0,2.328-2.511,3.759,3.759,0,0,0,.228-.612,6,6,0,0,0,.173-.74.668.668,0,0,1,.877-.511,6.04,6.04,0,0,0,3.99.009.662.662,0,0,1,.557.055.677.677,0,0,1,.32.466,5.359,5.359,0,0,0,1.014,2.4,5.1,5.1,0,0,0,1.707,1.443.666.666,0,0,1,.347.511.654.654,0,0,1-.219.575l-4.282,3.881A2.063,2.063,0,0,1,45.033,51.674Zm-4.191-4.848,3.643,3.3a.813.813,0,0,0,1.1,0l3.625-3.3A6.207,6.207,0,0,1,47.855,45.5a6.346,6.346,0,0,1-.776-1.324,6.1,6.1,0,0,1-.32-.922,7.351,7.351,0,0,1-3.451,0c-.009.046-.027.091-.037.128a3.929,3.929,0,0,1-.292.794A6.467,6.467,0,0,1,40.842,46.826Z" transform="translate(-39.077 -41.739)" fill="#010101"/></g></g><g transform="translate(6.583)"><path d="M44.634,42.1c-3.625,0-6.848-2.712-7.99-6.647a3.109,3.109,0,0,1-.1-5.889c.037-.128.064-.256.11-.374A.677.677,0,0,1,37,28.777a.689.689,0,0,1,.539-.018,6.348,6.348,0,0,0,4.155-.128,6.628,6.628,0,0,0,3.269-2.182,1.04,1.04,0,0,1,1.808.21,4.217,4.217,0,0,0,1.817,1.927,3.763,3.763,0,0,0,3.178.4.7.7,0,0,1,.557.009.679.679,0,0,1,.356.42c.009.046.027.091.037.137a3.109,3.109,0,0,1-.1,5.889C51.482,39.387,48.258,42.1,44.634,42.1Zm-7.451-7.962a.66.66,0,0,1,.639.52c.858,3.6,3.661,6.1,6.812,6.1s5.953-2.511,6.812-6.1a.674.674,0,0,1,.776-.5c.046-.009.1-.009.146-.018a1.568,1.568,0,0,0,1.077-1.644c0-.9-.566-1.662-1.233-1.662a.749.749,0,0,1-.648-.383,5.415,5.415,0,0,1-3.634-.694,5.669,5.669,0,0,1-2.182-2.146,8.933,8.933,0,0,1-7.98,2.611.215.215,0,0,1-.018.073.674.674,0,0,1-.657.539,1.52,1.52,0,0,0-1.278,1.662c0,.895.566,1.653,1.242,1.653C37.1,34.146,37.146,34.137,37.183,34.137Z" transform="translate(-34.48 -26.014)" fill="#010101"/></g></g><g transform="translate(3.166)"><path d="M35.552,30.64a.612.612,0,0,1-.347-.1,10.275,10.275,0,0,1-4.264-5.725,4.9,4.9,0,0,1,1.05-4.666,4.954,4.954,0,0,1,4.565-1.607c.557.1,1.087.228,1.6.365a11.585,11.585,0,0,0,2.529.447,9.763,9.763,0,0,0,3.269-.612c.329-.1.676-.2,1.023-.292l.247-.064a6.374,6.374,0,0,1,4.155-.173,5.6,5.6,0,0,1,3.607,3.634,2.414,2.414,0,0,1,1.863,1.625c1.05,2.557-.338,5.36-1.26,6.8a.661.661,0,0,1-.484.3.649.649,0,0,1-.539-.173.989.989,0,0,0-.667-.274.739.739,0,0,1-.648-.393h-.009a4.352,4.352,0,0,1-1.178.073,4.432,4.432,0,0,1-.986-.183,5.422,5.422,0,0,1-1.461-.584A5.669,5.669,0,0,1,45.431,26.9a8.3,8.3,0,0,1-3.643,2.292,8.743,8.743,0,0,1-3.388.457,2.806,2.806,0,0,1-.484-.064,3.487,3.487,0,0,1-.457-.082h-.018c-.009.027-.009.055-.018.082a.666.666,0,0,1-.657.548,1.022,1.022,0,0,0-.749.32.634.634,0,0,1-.466.192ZM35.7,19.811a3.627,3.627,0,0,0-2.712,1.224,3.579,3.579,0,0,0-.767,3.4,9.043,9.043,0,0,0,3.3,4.712,2.253,2.253,0,0,1,.7-.292c.037-.128.064-.247.1-.374a.649.649,0,0,1,.347-.411.69.69,0,0,1,.539-.027c.1.037.21.082.329.119.037.009.11.027.192.046.155.037.265.055.393.073a2.172,2.172,0,0,0,.374.046,7.7,7.7,0,0,0,2.876-.393,6.7,6.7,0,0,0,3.278-2.182,1.032,1.032,0,0,1,.959-.42,1.067,1.067,0,0,1,.849.639A4.278,4.278,0,0,0,48.271,27.9a4.347,4.347,0,0,0,1.141.447,3.126,3.126,0,0,0,.74.137c.091.009.183.009.265.009a3.025,3.025,0,0,0,.557-.055,1.906,1.906,0,0,0,.438-.128.68.68,0,0,1,.95.42c.009.046.027.091.037.137a1.974,1.974,0,0,1,.393.128c.73-1.306,1.516-3.287.813-5-.329-.785-.767-.858-1.1-.831a.645.645,0,0,1-.7-.539,4.27,4.27,0,0,0-2.831-3.132,5.074,5.074,0,0,0-3.388.192l-.247.073c-.338.091-.667.192-1,.283a12.216,12.216,0,0,1-3.68.667,12.466,12.466,0,0,1-2.831-.484c-.484-.128-.977-.247-1.5-.338a2.474,2.474,0,0,0-.63-.073Z" transform="translate(-30.738 -17.933)" fill="#010101"/></g></g><g transform="translate(0 0)"><g transform="translate(5.122 39.254)"><path d="M13.684,46.27v3.552a1.263,1.263,0,0,1-1.26,1.26H8.89a1.263,1.263,0,0,1-1.26-1.26V46.27a1.263,1.263,0,0,1,1.26-1.26h3.543A1.255,1.255,0,0,1,13.684,46.27Z" transform="translate(-7.63 -45.01)" fill="#f7b319"/></g><g transform="translate(5.122 28.013)"><path d="M13.684,33.96v3.552a1.263,1.263,0,0,1-1.26,1.26H8.89a1.263,1.263,0,0,1-1.26-1.26V33.96A1.263,1.263,0,0,1,8.89,32.7h3.543A1.255,1.255,0,0,1,13.684,33.96Z" transform="translate(-7.63 -32.7)" fill="#f7b319"/></g><g transform="translate(5.122 16.773)"><path d="M13.684,21.65V25.2a1.263,1.263,0,0,1-1.26,1.26H8.89A1.263,1.263,0,0,1,7.63,25.2V21.65a1.263,1.263,0,0,1,1.26-1.26h3.543A1.249,1.249,0,0,1,13.684,21.65Z" transform="translate(-7.63 -20.39)" fill="#f7b319"/></g><g transform="translate(5.122 5.524)"><path d="M13.684,9.33v3.552a1.263,1.263,0,0,1-1.26,1.26H8.89a1.263,1.263,0,0,1-1.26-1.26V9.33A1.263,1.263,0,0,1,8.89,8.07h3.543A1.255,1.255,0,0,1,13.684,9.33Z" transform="translate(-7.63 -8.07)" fill="#f7b319"/></g><path d="M22.217,52.468H5.362A3.343,3.343,0,0,1,2.02,49.126V5.362A3.343,3.343,0,0,1,5.362,2.02h33.8a3.343,3.343,0,0,1,3.342,3.342v8.884a.667.667,0,0,1-1.333,0V5.362a2.015,2.015,0,0,0-2.009-2.009H5.362A2.009,2.009,0,0,0,3.353,5.362V49.126a2.015,2.015,0,0,0,2.009,2.009H22.217a.667.667,0,1,1,0,1.333Z" transform="translate(-2.02 -2.02)" fill="#010101"/><g transform="translate(4.456 38.188)"><g transform="translate(0 0.399)"><path d="M12.36,51.685H8.827A1.933,1.933,0,0,1,6.9,49.759V46.207A1.933,1.933,0,0,1,8.827,44.28h3.543A1.933,1.933,0,0,1,14.3,46.207v3.552A1.935,1.935,0,0,1,12.36,51.685ZM8.827,45.622a.592.592,0,0,0-.594.594v3.552a.592.592,0,0,0,.594.594h3.543a.592.592,0,0,0,.594-.594V46.216a.592.592,0,0,0-.594-.594Z" transform="translate(-6.9 -44.28)" fill="#010101"/></g><g transform="translate(2.175)"><path d="M11.243,49.017a1.522,1.522,0,0,1-1.068-.438l-.694-.694a.656.656,0,0,1,0-.94.664.664,0,0,1,.94,0l.7.694a.192.192,0,0,0,.237,0l3.6-3.6a.656.656,0,0,1,.94,0,.664.664,0,0,1,0,.94l-3.6,3.6A1.469,1.469,0,0,1,11.243,49.017Z" transform="translate(-9.282 -43.842)" fill="#010101"/></g><g transform="translate(10.802 2.399)"><g transform="translate(0 4.072)"><path d="M24.738,52.263H19.4a.667.667,0,0,1,0-1.333h5.342a.667.667,0,0,1,0,1.333Z" transform="translate(-18.73 -50.93)" fill="#010101"/></g><g transform="translate(0)"><path d="M28.053,47.8H19.4a.667.667,0,0,1,0-1.333h8.656a.667.667,0,0,1,0,1.333Z" transform="translate(-18.73 -46.47)" fill="#010101"/></g></g></g><g transform="translate(4.456 26.947)"><g transform="translate(0 0.399)"><path d="M12.36,39.375H8.827A1.933,1.933,0,0,1,6.9,37.449V33.9A1.933,1.933,0,0,1,8.827,31.97h3.543A1.933,1.933,0,0,1,14.3,33.9v3.552A1.935,1.935,0,0,1,12.36,39.375ZM8.827,33.3a.592.592,0,0,0-.594.594v3.552a.592.592,0,0,0,.594.593h3.543a.592.592,0,0,0,.594-.593V33.9a.592.592,0,0,0-.594-.594Z" transform="translate(-6.9 -31.97)" fill="#010101"/></g><g transform="translate(2.175)"><path d="M11.243,36.707a1.506,1.506,0,0,1-1.068-.438l-.694-.694a.665.665,0,0,1,.94-.94l.694.694a.145.145,0,0,0,.237,0l3.6-3.6a.656.656,0,0,1,.94,0,.664.664,0,0,1,0,.94l-3.6,3.6A1.418,1.418,0,0,1,11.243,36.707Z" transform="translate(-9.282 -31.532)" fill="#010101"/></g><g transform="translate(10.793 2.399)"><g transform="translate(0 4.072)"><path d="M33.22,39.953H19.387a.667.667,0,1,1,0-1.333H33.22a.667.667,0,1,1,0,1.333Z" transform="translate(-18.72 -38.62)" fill="#010101"/></g><g transform="translate(0)"><path d="M30.426,35.493H19.387a.667.667,0,1,1,0-1.333H30.426a.667.667,0,1,1,0,1.333Z" transform="translate(-18.72 -34.16)" fill="#010101"/></g></g></g><g transform="translate(4.456 15.707)"><g transform="translate(0 0.39)"><path d="M12.36,27.055H8.827A1.933,1.933,0,0,1,6.9,25.129V21.577A1.933,1.933,0,0,1,8.827,19.65h3.543A1.933,1.933,0,0,1,14.3,21.577v3.552A1.929,1.929,0,0,1,12.36,27.055ZM8.827,20.992a.592.592,0,0,0-.594.594v3.552a.592.592,0,0,0,.594.594h3.543a.592.592,0,0,0,.594-.594V21.586a.592.592,0,0,0-.594-.594Z" transform="translate(-6.9 -19.65)" fill="#010101"/></g><g transform="translate(2.175)"><path d="M11.243,24.4a1.521,1.521,0,0,1-1.068-.438l-.694-.694a.656.656,0,0,1,0-.94.664.664,0,0,1,.94,0l.694.694a.192.192,0,0,0,.237,0l3.6-3.6a.656.656,0,0,1,.94,0,.664.664,0,0,1,0,.94L12.312,23.95A1.477,1.477,0,0,1,11.243,24.4Z" transform="translate(-9.282 -19.222)" fill="#010101"/></g><g transform="translate(10.793 2.399)"><g transform="translate(0 4.063)"><path d="M27.321,27.633H19.387a.667.667,0,1,1,0-1.333h7.935a.667.667,0,1,1,0,1.333Z" transform="translate(-18.72 -26.3)" fill="#010101"/></g><path d="M26.892,23.183H19.387a.667.667,0,0,1,0-1.333h7.506a.667.667,0,0,1,0,1.333Z" transform="translate(-18.72 -21.85)" fill="#010101"/></g></g><g transform="translate(4.456 4.458)"><g transform="translate(0 0.399)"><path d="M12.36,14.745H8.827A1.933,1.933,0,0,1,6.9,12.819V9.267A1.933,1.933,0,0,1,8.827,7.34h3.543A1.933,1.933,0,0,1,14.3,9.267v3.552A1.929,1.929,0,0,1,12.36,14.745ZM8.827,8.682a.592.592,0,0,0-.594.594v3.552a.592.592,0,0,0,.594.594h3.543a.592.592,0,0,0,.594-.594V9.267a.592.592,0,0,0-.594-.594H8.827Z" transform="translate(-6.9 -7.34)" fill="#010101"/></g><g transform="translate(2.175)"><path d="M11.243,12.077a1.521,1.521,0,0,1-1.068-.438l-.694-.694a.656.656,0,0,1,0-.94.664.664,0,0,1,.94,0l.694.694a.192.192,0,0,0,.237,0l3.6-3.6a.665.665,0,1,1,.94.94l-3.6,3.6A1.433,1.433,0,0,1,11.243,12.077Z" transform="translate(-9.282 -6.902)" fill="#010101"/></g><g transform="translate(10.793 2.408)"><g transform="translate(0 4.063)"><path d="M38.835,15.323H19.387a.667.667,0,1,1,0-1.333h19.44a.67.67,0,0,1,.667.667A.663.663,0,0,1,38.835,15.323Z" transform="translate(-18.72 -13.99)" fill="#010101"/></g><path d="M33.22,10.873H19.387a.667.667,0,1,1,0-1.333H33.22a.667.667,0,0,1,0,1.333Z" transform="translate(-18.72 -9.54)" fill="#010101"/></g></g></g></g></g></svg>