<svg xmlns="http://www.w3.org/2000/svg" width="93" height="94" viewBox="0 0 93 94"><g transform="translate(-1070.288 -3581.824)"><ellipse cx="46.5" cy="47" rx="46.5" ry="47" transform="translate(1070.288 3581.824)" fill="#c10000"/><g transform="translate(1085.6 3604.304)"><path d="M75.675,153.662l1.9,1.906-4.514,4.513-2.438.536.534-2.441Z" transform="translate(-64.965 -140.686)" fill="#c49e6c" fill-rule="evenodd"/><path d="M114.668,139.354l1.069-1.068a1.349,1.349,0,0,1,1.905,0,1.361,1.361,0,0,1,0,1.905l-1.07,1.07Z" transform="translate(-103.42 -126.917)" fill="#fd4755" fill-rule="evenodd"/><path d="M219.579,276.192a5.337,5.337,0,1,1-5.332,5.337A5.344,5.344,0,0,1,219.579,276.192Z" transform="translate(-190.366 -247.672)" fill="#f1cbbc" fill-rule="evenodd"/><path d="M189.677,377.28H167.025l.015-.268a11.329,11.329,0,0,1,22.621,0Z" transform="translate(-149.135 -326.377)" fill="#4c69b1" fill-rule="evenodd"/><path d="M33.977,145.971a1.694,1.694,0,0,1,1.691-1.69h8.121l-5.247,5.247,0,0a.339.339,0,0,0-.1.178l-.689,3.129a.39.39,0,0,0,.1.352.4.4,0,0,0,.276.115.391.391,0,0,0,.082-.009l3.124-.685a.382.382,0,0,0,.19-.1l5.191-5.192v8.014a1.69,1.69,0,0,1-1.691,1.69H35.668a1.694,1.694,0,0,1-1.691-1.69Z" transform="translate(-32.965 -132.495)" fill="#eceff1" fill-rule="evenodd"/><path d="M193.329,68.218a8.162,8.162,0,0,1-.043-2.3v-.006a.656.656,0,0,1,.645-.573,2.475,2.475,0,0,0,2.074-3.755l0,0a.663.663,0,0,1,.154-.848,7.914,7.914,0,0,1,.939-.664,8.253,8.253,0,0,1,1.03-.522.657.657,0,0,1,.821.268,2.473,2.473,0,0,0,4.288-.079.656.656,0,0,1,.811-.3,7.961,7.961,0,0,1,2.018,1.111.66.66,0,0,1,.175.846,2.479,2.479,0,0,0,2.221,3.677h.011a.663.663,0,0,1,.654.55v0a8.116,8.116,0,0,1,.037,2.3.653.653,0,0,1-.639.577,2.475,2.475,0,0,0-2.081,3.756.656.656,0,0,1-.146.854,8.029,8.029,0,0,1-.945.663,8.345,8.345,0,0,1-1.023.523.66.66,0,0,1-.828-.27,2.474,2.474,0,0,0-2.117-1.2h-.048a2.492,2.492,0,0,0-2.124,1.282.655.655,0,0,1-.81.3,7.983,7.983,0,0,1-2.012-1.112.657.657,0,0,1-.181-.848,2.474,2.474,0,0,0-2.166-3.676h-.059A.659.659,0,0,1,193.329,68.218Zm5.125.371a3.219,3.219,0,0,0,1.994,1.47,3.259,3.259,0,0,0,.783.1,3.231,3.231,0,1,0-2.777-1.566Z" transform="translate(-172.011 -58.375)" fill="#ffd266" fill-rule="evenodd"/><path d="M368.858,147.812a6.921,6.921,0,1,1,6.924,6.921A6.93,6.93,0,0,1,368.858,147.812Zm5.619,2.34a.378.378,0,0,0,.538,0l4.14-4.142a.38.38,0,1,0-.538-.538l-3.874,3.873-1.8-1.8a.378.378,0,1,0-.532.538Z" transform="translate(-325.363 -129.536)" fill="#00e499" fill-rule="evenodd"/><path d="M79.974,67.134a.631.631,0,0,1,0,.9l-4.14,4.142a.632.632,0,0,1-.9,0L72.87,70.1a.632.632,0,0,1,.891-.9l1.622,1.622,3.695-3.694A.635.635,0,0,1,79.974,67.134Zm-3.552,9.187a6.667,6.667,0,1,0-6.671-6.668A6.673,6.673,0,0,0,76.422,76.321Zm0-14.6a7.936,7.936,0,1,0,7.936,7.935A7.943,7.943,0,0,0,76.422,61.718ZM38.061,75.648H28.706a1.44,1.44,0,0,1-1.437-1.436V64.853a1.44,1.44,0,0,1,1.437-1.436h7.508L31.4,68.229a.593.593,0,0,0-.172.312l-.689,3.13a.645.645,0,0,0,.172.585.653.653,0,0,0,.451.185.66.66,0,0,0,.137-.015l3.124-.685a.637.637,0,0,0,.315-.171L39.5,66.81v7.4A1.437,1.437,0,0,1,38.061,75.648Zm1.212-13.041a1.07,1.07,0,0,0-.772.318l-.891.891,1.544,1.546.891-.891a1.092,1.092,0,0,0-.772-1.865Zm-2.56,2.106L32.43,68.994,32,70.975l1.978-.435,4.283-4.282Zm4.057.83.172-.174a2.361,2.361,0,0,0-3.338-3.34l-.125.12H28.706a2.706,2.706,0,0,0-2.7,2.7v9.359a2.707,2.707,0,0,0,2.7,2.7h9.356a2.708,2.708,0,0,0,2.709-2.7v-8.67Zm6.76-6.59a.4.4,0,0,1,.4-.355,2.728,2.728,0,0,0,2.287-4.141.408.408,0,0,1,.1-.525,7.568,7.568,0,0,1,.909-.643,7.811,7.811,0,0,1,1-.506.4.4,0,0,1,.5.165,2.727,2.727,0,0,0,4.728-.087.4.4,0,0,1,.5-.184A7.658,7.658,0,0,1,59.9,53.75a.4.4,0,0,1,.107.521,2.733,2.733,0,0,0,2.447,4.053h.006a.409.409,0,0,1,.4.341,7.779,7.779,0,0,1,.036,2.228.4.4,0,0,1-.392.355,2.729,2.729,0,0,0-2.293,4.142.4.4,0,0,1-.089.525,7.6,7.6,0,0,1-.915.642,8.122,8.122,0,0,1-.992.507.407.407,0,0,1-.511-.166,2.725,2.725,0,0,0-2.334-1.324h-.053a2.746,2.746,0,0,0-2.34,1.412.4.4,0,0,1-.5.185A7.7,7.7,0,0,1,50.536,66.1a.4.4,0,0,1-.113-.521,2.727,2.727,0,0,0-2.388-4.053h-.059a.408.408,0,0,1-.4-.341,8,8,0,0,1-.042-2.228Zm.475,3.838a1.458,1.458,0,0,1,1.307,2.169,1.669,1.669,0,0,0,.457,2.148,8.915,8.915,0,0,0,2.269,1.252,1.677,1.677,0,0,0,.6.11,1.654,1.654,0,0,0,1.455-.869,1.469,1.469,0,0,1,1.253-.756h.03a1.461,1.461,0,0,1,1.247.709,1.667,1.667,0,0,0,2.091.681,9.328,9.328,0,0,0,1.158-.589,9.159,9.159,0,0,0,1.057-.747,1.665,1.665,0,0,0,.374-2.164,1.477,1.477,0,0,1-.03-1.463,1.46,1.46,0,0,1,1.253-.753,1.662,1.662,0,0,0,1.633-1.464,8.822,8.822,0,0,0-.048-2.593,1.66,1.66,0,0,0-1.651-1.4h-.036a1.459,1.459,0,0,1-1.307-2.17,1.66,1.66,0,0,0-.451-2.148A8.994,8.994,0,0,0,58.4,51.487a1.67,1.67,0,0,0-2.061.759A1.462,1.462,0,0,1,55.091,53a1.486,1.486,0,0,1-1.283-.711,1.661,1.661,0,0,0-2.085-.681A9.194,9.194,0,0,0,49.5,52.948a1.662,1.662,0,0,0-.368,2.163,1.459,1.459,0,0,1-1.23,2.216,1.668,1.668,0,0,0-1.633,1.464,9.248,9.248,0,0,0,.048,2.593,1.669,1.669,0,0,0,1.687,1.4Zm6.065-4.766a2.219,2.219,0,1,0,3.047.755,2.2,2.2,0,0,0-1.366-1.008,2.268,2.268,0,0,0-.535-.066A2.233,2.233,0,0,0,54.07,58.023Zm.309,5.285a3.558,3.558,0,0,0,.843.1,3.453,3.453,0,0,0,1.794-.5,3.488,3.488,0,1,0-2.637.4ZM45.635,80.6,41,77.925a.635.635,0,0,1,.636-1.1l4.639,2.679-.422-1.587a.63.63,0,0,1,.446-.778.638.638,0,0,1,.778.449l.82,3.066v0h0a.557.557,0,0,1,.018.241.687.687,0,0,1-.077.236.7.7,0,0,1-.166.184.569.569,0,0,1-.22.11l-3.071.822a.588.588,0,0,1-.16.023.635.635,0,0,1-.166-1.247Zm24.039-3.546a.634.634,0,0,1-.238.866L64.8,80.6l1.592.426a.634.634,0,1,1-.333,1.224l-3.065-.821-.018-.005a.7.7,0,0,1-.2-.1.686.686,0,0,1-.166-.189.58.58,0,0,1-.077-.236.655.655,0,0,1,.012-.24s.006,0,.006-.006l.82-3.066a.634.634,0,1,1,1.224.329l-.428,1.587,4.645-2.679a.636.636,0,0,1,.867.232ZM55.852,70.17v5.359l1.164-1.162a.632.632,0,0,1,.9,0,.642.642,0,0,1,0,.9l-2.245,2.244a.614.614,0,0,1-.208.138.622.622,0,0,1-.244.048.669.669,0,0,1-.244-.048.653.653,0,0,1-.2-.138l-2.245-2.244a.634.634,0,0,1,.9-.9l1.164,1.162V70.17a.633.633,0,1,1,1.265,0Zm-11.69,31.856a11.076,11.076,0,0,1,22.115,0Zm5.976-16.791a5.082,5.082,0,1,1,5.079,5.083A5.085,5.085,0,0,1,50.138,85.235Zm8.257,5.5a6.353,6.353,0,1,0-6.35,0,12.359,12.359,0,0,0-9.166,11.927.63.63,0,0,0,.63.634H66.924a.635.635,0,0,0,.636-.634,12.366,12.366,0,0,0-9.166-11.927Z" transform="translate(-26.003 -51.377)" fill-rule="evenodd"/></g></g></svg>