<svg xmlns="http://www.w3.org/2000/svg" xmlns:xlink="http://www.w3.org/1999/xlink" width="47" height="54" viewBox="0 0 47 54"><defs><clipPath id="a"><rect width="47" height="54" transform="translate(292.051 19201)" fill="#fff" stroke="#707070" stroke-width="1"/></clipPath><clipPath id="b"><path d="M0,0V50.886H14.425A11.327,11.327,0,1,0,25.963,36.529V0Z" fill="none"/></clipPath></defs><g transform="translate(-292.051 -19201)" clip-path="url(#a)"><g transform="translate(0 16077.873)"><g transform="translate(294.104 3131.227)"><path d="M200.692,135.353c-.009.039-.019.076-.03.112v0a.36.36,0,0,0,.03-.117" transform="translate(-158.269 -135.353)" fill="#2d2d2d"/><path d="M21.265,0A21.265,21.265,0,1,1,0,21.265,21.265,21.265,0,0,1,21.265,0Z" transform="translate(0 0.722)" fill="#2b7f7b"/><circle cx="21.315" cy="21.315" r="21.315" transform="translate(0.062 0.722)" fill="#ffc303"/></g><path d="M55.851,174.1c.062.095.124.185.187.275q-.9.843-1.734,1.763a10.354,10.354,0,0,0,4.853,3.453c.4-.721.763-1.464,1.1-2.22a7.829,7.829,0,0,0,1.813.31q.1,1.234.3,2.464A10.329,10.329,0,0,0,68.1,178.5q-.48-1.145-1.052-2.246a7.8,7.8,0,0,0,1.376-1.223c.683.461,1.39.9,2.114,1.3a10.4,10.4,0,0,0,2.28-5.5c-.8-.225-1.6-.419-2.406-.578a8.124,8.124,0,0,0-.1-1.842c.786-.247,1.565-.527,2.327-.838a10.431,10.431,0,0,0-2.87-5.214c-.676.482-1.33.992-1.957,1.522a7.725,7.725,0,0,0-1.5-1.068q.447-1.156.794-2.344a10.053,10.053,0,0,0-2.857-.928,9.875,9.875,0,0,0-3.006-.073q-.066,1.246-.029,2.471a7.666,7.666,0,0,0-1.771.512q-.621-1.059-1.339-2.084l-.342.162c-.111.058-.219.121-.327.185-.216.127-.435.248-.647.382a11.188,11.188,0,0,0-1.188.925,10.175,10.175,0,0,0-1.059,1.078c-.162.193-.308.4-.461.6a5.792,5.792,0,0,0-.416.629q.934.827,1.918,1.564l0,0a7.627,7.627,0,0,0-.707,1.7c-.813-.118-1.63-.2-2.461-.254a10.3,10.3,0,0,0,.327,5.944q1.218-.211,2.419-.524a7.627,7.627,0,0,0,.7,1.339m3.35-9.4a6.041,6.041,0,1,1-1.754,8.359A6.048,6.048,0,0,1,59.2,164.7" transform="translate(260.043 2987.883)" fill="#c10000"/><path d="M62.415,180.4h-.26l-.034-.209c-.12-.747-.215-1.509-.282-2.269a8.08,8.08,0,0,1-1.442-.246c-.318.7-.661,1.386-1.021,2.041l-.1.183-.2-.066a10.625,10.625,0,0,1-4.971-3.537l-.128-.166.141-.155c.5-.547,1.03-1.095,1.592-1.63l-.069-.1a7.975,7.975,0,0,1-.638-1.18c-.731.185-1.48.344-2.229.474l-.206.036-.072-.2a10.594,10.594,0,0,1-.335-6.089l.05-.2.208.013c.749.046,1.51.122,2.267.226a7.9,7.9,0,0,1,.563-1.355c-.605-.461-1.2-.947-1.762-1.447l-.154-.136.1-.177a5.986,5.986,0,0,1,.435-.656l.116-.155c.112-.15.227-.3.351-.453l.051-.057a10.005,10.005,0,0,1,1.033-1.047,8.5,8.5,0,0,1,.952-.756l.255-.185.014-.009c.155-.1.314-.19.468-.279l.186-.108c.109-.064.221-.13.338-.191l.009,0,.533-.252.121.173c.439.627.856,1.269,1.24,1.914a7.944,7.944,0,0,1,1.41-.407c-.017-.754-.005-1.518.035-2.276L61,159.25l.208-.026a10.823,10.823,0,0,1,1.323-.083,9.682,9.682,0,0,1,1.759.158,10.29,10.29,0,0,1,2.926.951l.184.094-.058.2c-.209.721-.452,1.447-.723,2.162a8,8,0,0,1,1.193.85c.594-.5,1.2-.964,1.807-1.4l.172-.122.15.149a10.618,10.618,0,0,1,2.939,5.34l.043.2-.193.079c-.688.282-1.407.544-2.141.78a8.38,8.38,0,0,1,.082,1.466c.72.147,1.464.329,2.215.54l.2.058-.024.212a10.649,10.649,0,0,1-2.334,5.628l-.133.165-.184-.1c-.665-.373-1.321-.773-1.952-1.192a8.065,8.065,0,0,1-1.095.973c.345.677.668,1.373.961,2.072l.082.2-.179.113a11.352,11.352,0,0,1-2.8,1.273l-.006,0A11.373,11.373,0,0,1,62.415,180.4Zm-2.3-3.326.21.062a7.574,7.574,0,0,0,1.755.3l.218.011.018.218c.061.746.149,1.5.263,2.234a10.031,10.031,0,0,0,5.2-1.494c-.294-.686-.616-1.368-.96-2.031l-.1-.195.18-.125a7.561,7.561,0,0,0,1.332-1.184l.145-.163.181.122c.616.415,1.258.813,1.91,1.185a10.1,10.1,0,0,0,2.069-4.994c-.741-.2-1.474-.377-2.18-.515l-.214-.042.013-.218a7.875,7.875,0,0,0-.1-1.785l-.037-.215.208-.066c.722-.227,1.432-.48,2.112-.752a10.117,10.117,0,0,0-2.609-4.734c-.593.43-1.187.895-1.767,1.385l-.168.142-.162-.148a7.491,7.491,0,0,0-1.451-1.034l-.192-.105.079-.2c.271-.7.516-1.414.728-2.123a9.928,9.928,0,0,0-2.6-.812,9.574,9.574,0,0,0-2.724-.1c-.034.747-.041,1.5-.018,2.239l.007.219-.216.035a7.441,7.441,0,0,0-1.714.5l-.2.086-.111-.19c-.373-.636-.778-1.272-1.208-1.894l-.147.069c-.1.055-.206.114-.312.176l-.189.109c-.147.085-.3.172-.443.263l-.252.183a7.946,7.946,0,0,0-.9.716l-.014.012a9.427,9.427,0,0,0-.987,1l-.043.048c-.114.136-.219.278-.331.427l-.12.16a4.93,4.93,0,0,0-.294.428c.561.49,1.148.965,1.746,1.414l.04.03.1.167-.07.128a7.4,7.4,0,0,0-.684,1.645l-.059.211-.217-.031c-.743-.108-1.492-.188-2.23-.238a10.1,10.1,0,0,0,.3,5.4c.738-.133,1.474-.3,2.191-.483l.213-.056.082.2a7.4,7.4,0,0,0,.677,1.3c.059.091.122.181.182.267l.123.177-.156.149c-.555.521-1.085,1.056-1.577,1.592a10.134,10.134,0,0,0,4.407,3.136c.35-.649.683-1.326.99-2.016Zm2.4-1.025a6.288,6.288,0,1,1,3.429-1.021A6.281,6.281,0,0,1,62.516,176.048ZM62.5,163.971a5.789,5.789,0,1,0,4.856,2.621A5.763,5.763,0,0,0,62.5,163.971Z" transform="translate(260.043 2987.883)"/><g transform="matrix(0.602, 0.799, -0.799, 0.602, 332.249, 3112.481)"><g clip-path="url(#b)"><path d="M1.962,14.033,0,11.405,6.933,6.79,3.643.859,5.039,0l5.018,7.987Z" transform="translate(13.473 10.65)" fill="#fff"/><path d="M8.866,13.46l1.573-2.878L2.925,6.989,5.347.654,3.844,0,0,8.614Z" transform="translate(3.102 11.469)" fill="#fff"/><path d="M2.183,14.475l-.032,0a.221.221,0,0,1-.145-.086L.044,11.758A.221.221,0,0,1,.1,11.442l6.763-4.5L3.671,1.187a.221.221,0,0,1,.078-.3l1.4-.858a.221.221,0,0,1,.3.071l5.018,7.987a.221.221,0,0,1-.055.295l-8.1,6.046a.221.221,0,0,1-.132.044M.537,11.681l1.691,2.264L9.983,8.153,5.189.524l-1.03.633L7.347,6.9a.221.221,0,0,1-.071.291Z" transform="translate(13.252 10.429)" fill="#1d114b"/><path d="M9.087,13.9a.222.222,0,0,1-.106-.027L.115,9.029a.221.221,0,0,1-.1-.284L3.863.131a.221.221,0,0,1,.29-.113l1.5.653a.221.221,0,0,1,.118.282L3.425,7.1l7.33,3.505a.221.221,0,0,1,.1.305L9.281,13.787a.221.221,0,0,1-.132.106.225.225,0,0,1-.062.009M.506,8.739,9,13.381,10.354,10.9,3.05,7.409a.221.221,0,0,1-.111-.278L5.286.993,4.178.511Z" transform="translate(2.881 11.248)" fill="#1d114b"/><rect width="1.432" height="10.623" transform="translate(14.77 22.525) rotate(-4.048)" fill="#c10000"/><rect width="1.432" height="10.623" transform="translate(10.894 22.8) rotate(-4.048)" fill="#c10000"/><path d="M2.513.361A4.215,4.215,0,1,1,.361,5.919,4.213,4.213,0,0,1,2.513.361M7.018,2.979a3.063,3.063,0,1,0-1.564,4.04,3.061,3.061,0,0,0,1.564-4.04" transform="translate(9.398 19.35)" fill="#3076b6"/><path d="M1.827.262A3.063,3.063,0,1,1,.262,4.3,3.061,3.061,0,0,1,1.827.262M4.539,2.413a1.612,1.612,0,1,0-.824,2.122,1.613,1.613,0,0,0,.824-2.122" transform="translate(10.55 20.501)" fill="#b2bbc0"/><path d="M.961.138A1.61,1.61,0,1,1,.138,2.263,1.613,1.613,0,0,1,.961.138" transform="translate(12.002 21.954)" fill="#12263f"/><path d="M8.985,11.994,7.3,0,0,.517.022,12.628Z" transform="translate(10.583 32.07)" fill="#c10000"/><path d="M21.735,19.205a4.553,4.553,0,0,1-6.4.508L1.59,7.989A4.54,4.54,0,0,1,7.482,1.081L21.227,12.8a4.555,4.555,0,0,1,.508,6.4" transform="translate(10.545 39.292)" fill="#fff"/><path d="M18.49,21.236A4.714,4.714,0,0,1,15.413,20.1L1.667,8.378a4.772,4.772,0,0,1-.533-6.712,4.773,4.773,0,0,1,6.712-.533L21.592,12.857a4.756,4.756,0,0,1-2.716,8.364q-.194.015-.386.015M4.766.442q-.176,0-.352.014A4.319,4.319,0,0,0,1.954,8.042L15.7,19.766a4.332,4.332,0,0,0,6.089-.483,4.324,4.324,0,0,0-.483-6.089L7.56,1.47A4.283,4.283,0,0,0,4.766.442" transform="translate(10.324 39.071)" fill="#1d114b"/><path d="M3.15.065A2.578,2.578,0,1,1,.065,2.007,2.577,2.577,0,0,1,3.15.065M4.4,2.994A1.873,1.873,0,1,0,2.163,4.4,1.872,1.872,0,0,0,4.4,2.994" transform="translate(11.91 40.855)" fill="#3076b6"/><path d="M2.289.047A1.873,1.873,0,1,1,.047,1.458,1.872,1.872,0,0,1,2.289.047m.546,2.045a.986.986,0,1,0-1.179.741.986.986,0,0,0,1.179-.741" transform="translate(12.615 41.559)" fill="#b2bbc0"/><path d="M1.2.025A.985.985,0,1,1,.025.767.986.986,0,0,1,1.2.025" transform="translate(13.502 42.447)" fill="#1d114b"/><path d="M8.111,7.215a.221.221,0,0,1-.144-.053L.077.389A.221.221,0,0,1,.365.053l7.89,6.773a.221.221,0,0,1-.144.389" transform="translate(19.341 42.776)" fill="#1d114b"/><path d="M.663,4.307A3.546,3.546,0,0,1,.19,4.281a.221.221,0,0,1,.062-.437c.036,0,3.7.462,7.8-3.777a.221.221,0,0,1,.318.307C4.927,3.932,1.82,4.307.663,4.307" transform="translate(25.659 54.942)" fill="#1d114b"/></g></g></g></g></svg>