<svg xmlns="http://www.w3.org/2000/svg" width="247.844" height="262.713" viewBox="0 0 247.844 262.713"><g transform="translate(-40.269 8011.547)"><path d="M6.645,8.6H2.468V13H1.155V3.047H7.321v1.08H2.468v3.4H6.645Zm6.467,3.664a2.686,2.686,0,0,1-2.167.868,2.3,2.3,0,0,1-1.8-.687,2.974,2.974,0,0,1-.625-2.034V5.6H9.782v4.778q0,1.682,1.367,1.682a1.893,1.893,0,0,0,1.928-1.08V5.6h1.265V13h-1.2Zm6.221.868a3.232,3.232,0,0,1-2.447-.988,3.666,3.666,0,0,1-.943-2.642V9.274a4.438,4.438,0,0,1,.42-1.965,3.28,3.28,0,0,1,1.176-1.354,2.956,2.956,0,0,1,1.637-.489,2.77,2.77,0,0,1,2.242.95,4.114,4.114,0,0,1,.8,2.721v.526H17.206a2.629,2.629,0,0,0,.639,1.767A2.009,2.009,0,0,0,19.4,12.1a2.2,2.2,0,0,0,1.135-.273,2.851,2.851,0,0,0,.813-.725l.772.6A3.106,3.106,0,0,1,19.332,13.137Zm-.157-6.631a1.687,1.687,0,0,0-1.285.557,2.708,2.708,0,0,0-.643,1.562h3.705v-.1a2.409,2.409,0,0,0-.52-1.494A1.588,1.588,0,0,0,19.175,6.506Zm5.7-.9.041.93a2.7,2.7,0,0,1,2.215-1.066q2.345,0,2.365,2.646V13H28.232V8.105a1.7,1.7,0,0,0-.366-1.183,1.466,1.466,0,0,0-1.118-.383,1.825,1.825,0,0,0-1.08.328,2.228,2.228,0,0,0-.725.861V13H23.68V5.6ZM33.12,3.813V5.6H34.5v.978H33.12v4.587a1.024,1.024,0,0,0,.185.667.777.777,0,0,0,.629.222,3.062,3.062,0,0,0,.6-.082V13a3.666,3.666,0,0,1-.971.137,1.575,1.575,0,0,1-1.278-.513,2.2,2.2,0,0,1-.431-1.456V6.581H30.509V5.6h1.347V3.813Zm5.927,9.324a3.232,3.232,0,0,1-2.447-.988,3.666,3.666,0,0,1-.943-2.642V9.274a4.438,4.438,0,0,1,.42-1.965,3.28,3.28,0,0,1,1.176-1.354,2.956,2.956,0,0,1,1.637-.489,2.77,2.77,0,0,1,2.242.95,4.114,4.114,0,0,1,.8,2.721v.526H36.921a2.629,2.629,0,0,0,.639,1.767,2.009,2.009,0,0,0,1.555.673,2.2,2.2,0,0,0,1.135-.273,2.851,2.851,0,0,0,.813-.725l.772.6A3.106,3.106,0,0,1,39.047,13.137ZM38.89,6.506a1.687,1.687,0,0,0-1.285.557,2.708,2.708,0,0,0-.643,1.562h3.705v-.1a2.409,2.409,0,0,0-.52-1.494A1.588,1.588,0,0,0,38.89,6.506Zm4.464,5.831a.792.792,0,0,1,.195-.547.742.742,0,0,1,.584-.219.765.765,0,0,1,.591.219.776.776,0,0,1,.2.547.734.734,0,0,1-.2.526.778.778,0,0,1-.591.212.7.7,0,0,1-.779-.738ZM43.36,6.3a.792.792,0,0,1,.195-.547.742.742,0,0,1,.584-.219.765.765,0,0,1,.591.219.776.776,0,0,1,.2.547.734.734,0,0,1-.2.526.778.778,0,0,1-.591.212A.7.7,0,0,1,43.36,6.3ZM46.737,8.96a10.569,10.569,0,0,1,.414-2.967,8.618,8.618,0,0,1,1.234-2.584,5.249,5.249,0,0,1,1.7-1.641l.26.834A5.444,5.444,0,0,0,48.709,4.94a10.135,10.135,0,0,0-.7,3.521L48,9.042a10.188,10.188,0,0,0,.964,4.58,5.47,5.47,0,0,0,1.381,1.818l-.26.772a5.418,5.418,0,0,1-1.736-1.7A9.5,9.5,0,0,1,46.737,8.96Zm7.964-.4a6.172,6.172,0,0,1-2.458-1.193,2.279,2.279,0,0,1-.769-1.747,2.408,2.408,0,0,1,.94-1.945,3.736,3.736,0,0,1,2.444-.769,4.078,4.078,0,0,1,1.829.4A3.007,3.007,0,0,1,57.931,4.4a2.8,2.8,0,0,1,.441,1.524H57.053a1.81,1.81,0,0,0-.574-1.418,2.34,2.34,0,0,0-1.62-.516,2.394,2.394,0,0,0-1.514.427A1.424,1.424,0,0,0,52.8,5.6a1.281,1.281,0,0,0,.516,1.029,5.066,5.066,0,0,0,1.757.769,8.136,8.136,0,0,1,1.941.769,2.946,2.946,0,0,1,1.039.981,2.5,2.5,0,0,1,.338,1.319,2.326,2.326,0,0,1-.943,1.938,4.022,4.022,0,0,1-2.522.728,4.678,4.678,0,0,1-1.914-.393,3.221,3.221,0,0,1-1.371-1.077,2.627,2.627,0,0,1-.482-1.552h1.319a1.714,1.714,0,0,0,.667,1.425,2.806,2.806,0,0,0,1.781.523,2.58,2.58,0,0,0,1.593-.424,1.377,1.377,0,0,0,.554-1.155,1.351,1.351,0,0,0-.513-1.131A5.911,5.911,0,0,0,54.7,8.563Zm11-.164H61.387v3.527H66.4V13H60.074V3.047h6.255v1.08H61.387v3.2H65.7Zm9.98,4.6H74.361L69.351,5.33V13H68.031V3.047h1.319l5.024,7.7v-7.7h1.306Zm7.95-2.6h-4.17L78.524,13H77.171l3.8-9.953H82.12L85.928,13H84.581Zm-3.773-1.08h3.384l-1.7-4.655ZM97.539,8.55H90.69V7.518h6.85Zm7.167,3.377h4.717V13h-6.036V3.047h1.319ZM112.232,9.1V13H110.92V3.047h3.671a3.688,3.688,0,0,1,2.56.834,2.827,2.827,0,0,1,.926,2.208,2.79,2.79,0,0,1-.906,2.232,3.853,3.853,0,0,1-2.594.783Zm0-1.073h2.358a2.361,2.361,0,0,0,1.613-.5,1.811,1.811,0,0,0,.561-1.432,1.871,1.871,0,0,0-.561-1.422,2.212,2.212,0,0,0-1.538-.554h-2.434Zm14.636.943H124.53V13h-1.319V3.047h3.295a3.9,3.9,0,0,1,2.587.766A2.755,2.755,0,0,1,130,6.041a2.68,2.68,0,0,1-.5,1.62,3,3,0,0,1-1.4,1.032l2.338,4.225V13h-1.408ZM124.53,7.9h2.017a2.277,2.277,0,0,0,1.555-.506,1.709,1.709,0,0,0,.578-1.354,1.8,1.8,0,0,0-.55-1.415,2.333,2.333,0,0,0-1.589-.5h-2.01Zm8.483,5.1h-1.265V5.6h1.265Zm-1.367-9.358a.755.755,0,0,1,.188-.52.706.706,0,0,1,.557-.212.717.717,0,0,1,.561.212.747.747,0,0,1,.191.52.722.722,0,0,1-.191.513.73.73,0,0,1-.561.205.718.718,0,0,1-.557-.205A.73.73,0,0,1,131.646,3.642Zm7.7,7.4a.931.931,0,0,0-.386-.8,3.718,3.718,0,0,0-1.347-.489,6.367,6.367,0,0,1-1.524-.492,2.169,2.169,0,0,1-.834-.684,1.635,1.635,0,0,1-.27-.943,1.919,1.919,0,0,1,.769-1.538,3,3,0,0,1,1.965-.629,3.091,3.091,0,0,1,2.041.649,2.063,2.063,0,0,1,.783,1.661h-1.271a1.142,1.142,0,0,0-.441-.9,1.652,1.652,0,0,0-1.111-.376,1.729,1.729,0,0,0-1.08.3.947.947,0,0,0-.39.786.767.767,0,0,0,.362.69,4.458,4.458,0,0,0,1.309.444,6.821,6.821,0,0,1,1.535.506,2.239,2.239,0,0,1,.872.708,1.74,1.74,0,0,1,.284,1.008,1.893,1.893,0,0,1-.793,1.589,3.326,3.326,0,0,1-2.058.6,3.725,3.725,0,0,1-1.572-.314,2.557,2.557,0,0,1-1.07-.878,2.117,2.117,0,0,1-.386-1.22h1.265a1.309,1.309,0,0,0,.509,1.008,1.976,1.976,0,0,0,1.254.373,2.039,2.039,0,0,0,1.152-.291A.893.893,0,0,0,139.344,11.038ZM146.822,13a2.657,2.657,0,0,1-.178-.779,2.822,2.822,0,0,1-2.105.916,2.611,2.611,0,0,1-1.794-.619,2,2,0,0,1-.7-1.569,2.091,2.091,0,0,1,.878-1.794,4.142,4.142,0,0,1,2.471-.639h1.23V7.935a1.42,1.42,0,0,0-.4-1.056,1.593,1.593,0,0,0-1.169-.393,1.844,1.844,0,0,0-1.135.342,1.007,1.007,0,0,0-.458.827h-1.271a1.745,1.745,0,0,1,.393-1.07,2.683,2.683,0,0,1,1.066-.817,3.588,3.588,0,0,1,1.48-.3,2.924,2.924,0,0,1,2,.639,2.306,2.306,0,0,1,.752,1.76v3.4a4.162,4.162,0,0,0,.26,1.62V13Zm-2.1-.964a2.223,2.223,0,0,0,1.128-.308,1.861,1.861,0,0,0,.772-.8V9.411h-.991q-2.324,0-2.324,1.36a1.151,1.151,0,0,0,.4.93A1.524,1.524,0,0,0,144.724,12.036Zm8.723-5.3a3.79,3.79,0,0,0-.622-.048,1.667,1.667,0,0,0-1.688,1.06V13h-1.265V5.6h1.23l.021.854a1.969,1.969,0,0,1,1.764-.991,1.292,1.292,0,0,1,.561.1ZM158.9,13a2.657,2.657,0,0,1-.178-.779,2.822,2.822,0,0,1-2.105.916,2.611,2.611,0,0,1-1.794-.619,2,2,0,0,1-.7-1.569A2.091,2.091,0,0,1,155,9.155a4.142,4.142,0,0,1,2.471-.639h1.23V7.935a1.42,1.42,0,0,0-.4-1.056,1.593,1.593,0,0,0-1.169-.393A1.844,1.844,0,0,0,156,6.827a1.007,1.007,0,0,0-.458.827h-1.271a1.745,1.745,0,0,1,.393-1.07,2.683,2.683,0,0,1,1.066-.817,3.588,3.588,0,0,1,1.48-.3,2.924,2.924,0,0,1,2,.639,2.306,2.306,0,0,1,.752,1.76v3.4a4.162,4.162,0,0,0,.26,1.62V13Zm-2.1-.964a2.223,2.223,0,0,0,1.128-.308,1.861,1.861,0,0,0,.772-.8V9.411h-.991q-2.324,0-2.324,1.36a1.151,1.151,0,0,0,.4.93A1.524,1.524,0,0,0,156.8,12.036Zm6.521.964H162.06V2.5h1.265Zm1.716-3.76a4.333,4.333,0,0,1,.807-2.738,2.745,2.745,0,0,1,4.17-.147V2.5h1.265V13h-1.162l-.062-.793a2.575,2.575,0,0,1-2.112.93,2.526,2.526,0,0,1-2.1-1.053,4.382,4.382,0,0,1-.81-2.748Zm1.265.144a3.281,3.281,0,0,0,.52,1.969,1.68,1.68,0,0,0,1.436.711,1.845,1.845,0,0,0,1.757-1.08v-3.4a1.859,1.859,0,0,0-1.743-1.046,1.687,1.687,0,0,0-1.449.718A3.612,3.612,0,0,0,166.3,9.384ZM177.81,13a2.657,2.657,0,0,1-.178-.779,2.822,2.822,0,0,1-2.105.916,2.611,2.611,0,0,1-1.794-.619,2,2,0,0,1-.7-1.569,2.091,2.091,0,0,1,.878-1.794,4.142,4.142,0,0,1,2.471-.639h1.23V7.935a1.42,1.42,0,0,0-.4-1.056,1.593,1.593,0,0,0-1.169-.393,1.844,1.844,0,0,0-1.135.342,1.007,1.007,0,0,0-.458.827h-1.271a1.745,1.745,0,0,1,.393-1.07,2.683,2.683,0,0,1,1.066-.817,3.588,3.588,0,0,1,1.48-.3,2.924,2.924,0,0,1,2,.639,2.306,2.306,0,0,1,.752,1.76v3.4a4.162,4.162,0,0,0,.26,1.62V13Zm-2.1-.964a2.223,2.223,0,0,0,1.128-.308,1.861,1.861,0,0,0,.772-.8V9.411h-.991q-2.324,0-2.324,1.36a1.151,1.151,0,0,0,.4.93A1.524,1.524,0,0,0,175.711,12.036Zm5.106,2.946-.718-.492a3.3,3.3,0,0,0,.67-1.846V11.5h1.237v.991a3.114,3.114,0,0,1-.338,1.381A3.233,3.233,0,0,1,180.817,14.982ZM193.464,13h-6.521v-.909l3.445-3.828a8.185,8.185,0,0,0,1.056-1.412,2.356,2.356,0,0,0,.291-1.125,1.786,1.786,0,0,0-.472-1.278,1.649,1.649,0,0,0-1.258-.5,1.953,1.953,0,0,0-1.466.537,2.05,2.05,0,0,0-.523,1.494h-1.265a2.936,2.936,0,0,1,.885-2.222A3.282,3.282,0,0,1,190,2.91a3.153,3.153,0,0,1,2.194.728,2.483,2.483,0,0,1,.807,1.938q0,1.47-1.873,3.5l-2.666,2.892h5Zm7.581-4.245a5.784,5.784,0,0,1-.759,3.3,3.153,3.153,0,0,1-4.73.024,5.49,5.49,0,0,1-.793-3.155V7.237a5.655,5.655,0,0,1,.759-3.261,3.21,3.21,0,0,1,4.744-.038,5.458,5.458,0,0,1,.779,3.175ZM199.78,7.025a4.634,4.634,0,0,0-.451-2.341,1.553,1.553,0,0,0-1.429-.735,1.532,1.532,0,0,0-1.415.731,4.525,4.525,0,0,0-.458,2.249V8.953a4.708,4.708,0,0,0,.468,2.382,1.55,1.55,0,0,0,1.418.769,1.529,1.529,0,0,0,1.391-.725A4.538,4.538,0,0,0,199.78,9.1ZM206.821,13H205.55V4.571L203,5.508V4.359L206.623,3h.2Zm9.044-3.343h1.381v1.032h-1.381V13h-1.271V10.689h-4.532V9.944l4.457-6.9h1.347Zm-4.368,0h3.1V4.776l-.15.273Zm9.939-.629a10.574,10.574,0,0,1-.4,2.922,8.641,8.641,0,0,1-1.224,2.581,5.361,5.361,0,0,1-1.726,1.682l-.267-.772a5.5,5.5,0,0,0,1.692-2.505,10.839,10.839,0,0,0,.653-3.77V8.946a11.254,11.254,0,0,0-.3-2.669,9.009,9.009,0,0,0-.837-2.211,5.108,5.108,0,0,0-1.207-1.524l.267-.772a5.34,5.34,0,0,1,1.719,1.668,8.66,8.66,0,0,1,1.224,2.577A10.818,10.818,0,0,1,221.437,9.028Zm1.976,3.309a.792.792,0,0,1,.195-.547.742.742,0,0,1,.584-.219.765.765,0,0,1,.591.219.776.776,0,0,1,.2.547.734.734,0,0,1-.2.526.778.778,0,0,1-.591.212.7.7,0,0,1-.779-.738Z" transform="translate(39.113 -7765.047)" fill="#12263f"/><g transform="translate(106.338 -7999.395)"><circle cx="25.888" cy="25.888" r="25.888" transform="translate(0 0)" fill="#fff"/><path d="M25.888,2a23.894,23.894,0,0,0-9.3,45.9,23.894,23.894,0,0,0,18.6-44.022A23.736,23.736,0,0,0,25.888,2m0-2A25.888,25.888,0,1,1,0,25.888,25.888,25.888,0,0,1,25.888,0Z" transform="translate(0 0)"/><path d="M-955.146-3054.715h-46.9v-1h46.9Z" transform="translate(1004.426 3073.323)"/><path d="M-977.775-3022.107h-1v-33.327h1Z" transform="translate(1004.312 3073.323)"/></g><g transform="translate(75.113 -7849.322)"><circle cx="25.888" cy="25.888" r="25.888" transform="translate(0 0)" fill="#fff"/><path d="M25.888,2a23.894,23.894,0,0,0-9.3,45.9,23.894,23.894,0,0,0,18.6-44.022A23.736,23.736,0,0,0,25.888,2m0-2A25.888,25.888,0,1,1,0,25.888,25.888,25.888,0,0,1,25.888,0Z" transform="translate(0 0)"/><path d="M-954.9-3054.715h-47.155v-1H-954.9Z" transform="translate(1004.309 3073.323)"/><path d="M-977.775-3022.026h-1v-33.408h1Z" transform="translate(1004.312 3073.323)"/></g><path d="M3.885,0H2.862L1.351-2.654V0H.322V-4.266H1.351L2.859-1.611V-4.266H3.885Zm.48-1.614a1.871,1.871,0,0,1,.185-.845,1.32,1.32,0,0,1,.53-.57,1.6,1.6,0,0,1,.812-.2,1.458,1.458,0,0,1,1.122.441,1.692,1.692,0,0,1,.41,1.2v.035A1.642,1.642,0,0,1,7.012-.376,1.461,1.461,0,0,1,5.9.059,1.478,1.478,0,0,1,4.811-.347a1.587,1.587,0,0,1-.442-1.1Zm.987.062a1.179,1.179,0,0,0,.138.645A.459.459,0,0,0,5.9-.7q.527,0,.539-.812v-.1q0-.853-.545-.853-.5,0-.536.735Zm2.382-.056A1.936,1.936,0,0,1,8.06-2.795a1.07,1.07,0,0,1,.908-.434.91.91,0,0,1,.715.334V-4.5h.99V0H9.785l-.05-.34a.935.935,0,0,1-.773.4,1.068,1.068,0,0,1-.9-.434A2,2,0,0,1,7.734-1.608Zm.987.062q0,.844.492.844a.486.486,0,0,0,.469-.275V-2.186a.473.473,0,0,0-.463-.281q-.457,0-.5.738Zm2.388-.067a1.871,1.871,0,0,1,.185-.845,1.32,1.32,0,0,1,.53-.57,1.6,1.6,0,0,1,.812-.2,1.458,1.458,0,0,1,1.122.441,1.692,1.692,0,0,1,.41,1.2v.035a1.642,1.642,0,0,1-.412,1.176,1.461,1.461,0,0,1-1.115.435,1.478,1.478,0,0,1-1.087-.406,1.587,1.587,0,0,1-.442-1.1Zm.987.062a1.179,1.179,0,0,0,.138.645.459.459,0,0,0,.407.205q.527,0,.539-.812v-.1q0-.853-.545-.853-.5,0-.536.735Zm6.592-.114h.434v.762h-.434V0H17.7V-.905H16.052l-.059-.6L17.7-4.257v-.009h.987Zm-1.755,0H17.7V-2.979l-.062.1Z" transform="translate(120.896 -8007.047)"/><path d="M6.451-7.477,3.264,0H1.178L4.371-7.008H.3V-8.531H6.451Z" transform="translate(86.001 -7815.341)"/><path d="M6.451-7.477,3.264,0H1.178L4.371-7.008H.3V-8.531H6.451Z" transform="translate(106.896 -7815.341)"/><path d="M4.412-3.3a2.086,2.086,0,0,1-1.43.574,2.308,2.308,0,0,1-1.84-.785,3.093,3.093,0,0,1-.68-2.1A3.148,3.148,0,0,1,.844-7.131,2.858,2.858,0,0,1,1.913-8.244a2.915,2.915,0,0,1,1.521-.41,2.83,2.83,0,0,1,1.526.425,2.86,2.86,0,0,1,1.063,1.2,4.126,4.126,0,0,1,.393,1.79v.756a5.129,5.129,0,0,1-.554,2.449A3.823,3.823,0,0,1,4.283-.439,4.934,4.934,0,0,1,1.893.117H1.77V-1.465l.375-.006Q4.184-1.57,4.412-3.3Zm-.9-.85a.961.961,0,0,0,.926-.557v-.82a2.133,2.133,0,0,0-.275-1.213.864.864,0,0,0-.744-.393.816.816,0,0,0-.7.445,1.978,1.978,0,0,0-.281,1.078A1.774,1.774,0,0,0,2.73-4.544.918.918,0,0,0,3.516-4.148Z" transform="translate(117.396 -7965.414)"/><path d="M4.412-3.3a2.086,2.086,0,0,1-1.43.574,2.308,2.308,0,0,1-1.84-.785,3.093,3.093,0,0,1-.68-2.1A3.148,3.148,0,0,1,.844-7.131,2.858,2.858,0,0,1,1.913-8.244a2.915,2.915,0,0,1,1.521-.41,2.83,2.83,0,0,1,1.526.425,2.86,2.86,0,0,1,1.063,1.2,4.126,4.126,0,0,1,.393,1.79v.756a5.129,5.129,0,0,1-.554,2.449A3.823,3.823,0,0,1,4.283-.439,4.934,4.934,0,0,1,1.893.117H1.77V-1.465l.375-.006Q4.184-1.57,4.412-3.3Zm-.9-.85a.961.961,0,0,0,.926-.557v-.82a2.133,2.133,0,0,0-.275-1.213.864.864,0,0,0-.744-.393.816.816,0,0,0-.7.445,1.978,1.978,0,0,0-.281,1.078A1.774,1.774,0,0,0,2.73-4.544.918.918,0,0,0,3.516-4.148Z" transform="translate(136.205 -7965.414)"/><path d="M6.018-3.4H2.7V0H.645V-8.531H6.352v1.588H2.7V-4.98H6.018Z" transform="translate(93.001 -7898.341)"/><path d="M6.475,0H.521V-1.289L3.264-4.172A3.273,3.273,0,0,0,4.277-6.006a1.276,1.276,0,0,0-.24-.838.858.858,0,0,0-.7-.287.868.868,0,0,0-.732.384,1.577,1.577,0,0,0-.281.958H.346a2.8,2.8,0,0,1,.393-1.45,2.753,2.753,0,0,1,1.09-1.04,3.237,3.237,0,0,1,1.559-.375,3.185,3.185,0,0,1,2.13.639,2.28,2.28,0,0,1,.747,1.834,2.663,2.663,0,0,1-.187.981,4.3,4.3,0,0,1-.583,1,14.686,14.686,0,0,1-1.274,1.4l-1.1,1.271H6.475Z" transform="translate(139.205 -7898.341)"/><path d="M3.885,0H2.862L1.351-2.654V0H.322V-4.266H1.351L2.859-1.611V-4.266H3.885Zm.48-1.614a1.871,1.871,0,0,1,.185-.845,1.32,1.32,0,0,1,.53-.57,1.6,1.6,0,0,1,.812-.2,1.458,1.458,0,0,1,1.122.441,1.692,1.692,0,0,1,.41,1.2v.035A1.642,1.642,0,0,1,7.012-.376,1.461,1.461,0,0,1,5.9.059,1.478,1.478,0,0,1,4.811-.347a1.587,1.587,0,0,1-.442-1.1Zm.987.062a1.179,1.179,0,0,0,.138.645A.459.459,0,0,0,5.9-.7q.527,0,.539-.812v-.1q0-.853-.545-.853-.5,0-.536.735Zm2.382-.056A1.936,1.936,0,0,1,8.06-2.795a1.07,1.07,0,0,1,.908-.434.91.91,0,0,1,.715.334V-4.5h.99V0H9.785l-.05-.34a.935.935,0,0,1-.773.4,1.068,1.068,0,0,1-.9-.434A2,2,0,0,1,7.734-1.608Zm.987.062q0,.844.492.844a.486.486,0,0,0,.469-.275V-2.186a.473.473,0,0,0-.463-.281q-.457,0-.5.738Zm2.388-.067a1.871,1.871,0,0,1,.185-.845,1.32,1.32,0,0,1,.53-.57,1.6,1.6,0,0,1,.812-.2,1.458,1.458,0,0,1,1.122.441,1.692,1.692,0,0,1,.41,1.2v.035a1.642,1.642,0,0,1-.412,1.176,1.461,1.461,0,0,1-1.115.435,1.478,1.478,0,0,1-1.087-.406,1.587,1.587,0,0,1-.442-1.1Zm.987.062a1.179,1.179,0,0,0,.138.645.459.459,0,0,0,.407.205q.527,0,.539-.812v-.1q0-.853-.545-.853-.5,0-.536.735Zm4.887-.993h.466A.484.484,0,0,0,18-3.088a.469.469,0,0,0-.132-.344.5.5,0,0,0-.372-.133.535.535,0,0,0-.341.114.349.349,0,0,0-.145.284h-.987a1.011,1.011,0,0,1,.188-.6,1.238,1.238,0,0,1,.52-.412,1.778,1.778,0,0,1,.731-.148A1.747,1.747,0,0,1,18.583-4a1.081,1.081,0,0,1,.407.894.9.9,0,0,1-.168.52,1.2,1.2,0,0,1-.491.4,1.147,1.147,0,0,1,.533.374.984.984,0,0,1,.193.62,1.1,1.1,0,0,1-.439.914,1.824,1.824,0,0,1-1.154.343,1.892,1.892,0,0,1-.778-.16,1.219,1.219,0,0,1-.543-.442,1.15,1.15,0,0,1-.185-.643h.993a.445.445,0,0,0,.158.34A.559.559,0,0,0,17.5-.7a.585.585,0,0,0,.416-.145.485.485,0,0,0,.155-.371.567.567,0,0,0-.161-.457.674.674,0,0,0-.445-.135h-.48Z" transform="translate(86.123 -7785.047)"/><circle cx="25.888" cy="25.888" r="25.888" transform="translate(236.338 -7999.395)" fill="#fff"/><path d="M25.888,2a23.894,23.894,0,0,0-9.3,45.9,23.894,23.894,0,0,0,18.6-44.022A23.736,23.736,0,0,0,25.888,2m0-2A25.888,25.888,0,1,1,0,25.888,25.888,25.888,0,0,1,25.888,0Z" transform="translate(236.338 -7999.395)"/><path d="M-955.146-3054.715h-46.9v-1h46.9Z" transform="translate(1240.764 -4926.071)"/><path d="M-977.775-3022.107h-1v-33.327h1Z" transform="translate(1240.65 -4926.071)"/><circle cx="25.888" cy="25.888" r="25.888" transform="translate(205.113 -7849.322)" fill="#fff"/><path d="M25.888,2a23.894,23.894,0,0,0-9.3,45.9,23.894,23.894,0,0,0,18.6-44.022A23.736,23.736,0,0,0,25.888,2m0-2A25.888,25.888,0,1,1,0,25.888,25.888,25.888,0,0,1,25.888,0Z" transform="translate(205.113 -7849.322)"/><path d="M-954.9-3054.715h-47.155v-1H-954.9Z" transform="translate(1209.423 -4775.999)"/><path d="M-977.775-3022.026h-1v-33.408h1Z" transform="translate(1209.425 -4775.999)"/><path d="M3.885,0H2.862L1.351-2.654V0H.322V-4.266H1.351L2.859-1.611V-4.266H3.885Zm.48-1.614a1.871,1.871,0,0,1,.185-.845,1.32,1.32,0,0,1,.53-.57,1.6,1.6,0,0,1,.812-.2,1.458,1.458,0,0,1,1.122.441,1.692,1.692,0,0,1,.41,1.2v.035A1.642,1.642,0,0,1,7.012-.376,1.461,1.461,0,0,1,5.9.059,1.478,1.478,0,0,1,4.811-.347a1.587,1.587,0,0,1-.442-1.1Zm.987.062a1.179,1.179,0,0,0,.138.645A.459.459,0,0,0,5.9-.7q.527,0,.539-.812v-.1q0-.853-.545-.853-.5,0-.536.735Zm2.382-.056A1.936,1.936,0,0,1,8.06-2.795a1.07,1.07,0,0,1,.908-.434.91.91,0,0,1,.715.334V-4.5h.99V0H9.785l-.05-.34a.935.935,0,0,1-.773.4,1.068,1.068,0,0,1-.9-.434A2,2,0,0,1,7.734-1.608Zm.987.062q0,.844.492.844a.486.486,0,0,0,.469-.275V-2.186a.473.473,0,0,0-.463-.281q-.457,0-.5.738Zm2.388-.067a1.871,1.871,0,0,1,.185-.845,1.32,1.32,0,0,1,.53-.57,1.6,1.6,0,0,1,.812-.2,1.458,1.458,0,0,1,1.122.441,1.692,1.692,0,0,1,.41,1.2v.035a1.642,1.642,0,0,1-.412,1.176,1.461,1.461,0,0,1-1.115.435,1.478,1.478,0,0,1-1.087-.406,1.587,1.587,0,0,1-.442-1.1Zm.987.062a1.179,1.179,0,0,0,.138.645.459.459,0,0,0,.407.205q.527,0,.539-.812v-.1q0-.853-.545-.853-.5,0-.536.735Zm4.043-.533.261-2.18h2.493V-3.5H17.2l-.1.847a1.168,1.168,0,0,1,.277-.108,1.268,1.268,0,0,1,.335-.047,1.251,1.251,0,0,1,.977.376,1.516,1.516,0,0,1,.341,1.056,1.514,1.514,0,0,1-.183.743,1.259,1.259,0,0,1-.514.511,1.623,1.623,0,0,1-.782.179A1.745,1.745,0,0,1,16.8-.107a1.351,1.351,0,0,1-.551-.454,1.1,1.1,0,0,1-.2-.652h.99a.562.562,0,0,0,.149.372.474.474,0,0,0,.354.138q.5,0,.5-.738,0-.683-.609-.683a.608.608,0,0,0-.516.223Z" transform="translate(250.895 -8007.047)"/><path d="M4.9,0H2.918V-6.3L.973-5.736v-1.5L4.717-8.531H4.9ZM9.275-5.092h.932a.969.969,0,0,0,1.107-1.084.937.937,0,0,0-.264-.688,1,1,0,0,0-.744-.267,1.07,1.07,0,0,0-.683.229.7.7,0,0,0-.29.568H7.359a2.021,2.021,0,0,1,.375-1.2,2.476,2.476,0,0,1,1.04-.823,3.556,3.556,0,0,1,1.462-.3A3.494,3.494,0,0,1,12.475-8a2.162,2.162,0,0,1,.814,1.787,1.8,1.8,0,0,1-.337,1.04,2.4,2.4,0,0,1-.981.794,2.294,2.294,0,0,1,1.066.747A1.967,1.967,0,0,1,13.424-2.4a2.2,2.2,0,0,1-.879,1.828,3.648,3.648,0,0,1-2.309.686A3.783,3.783,0,0,1,8.681-.2a2.437,2.437,0,0,1-1.087-.885,2.3,2.3,0,0,1-.369-1.286H9.211a.889.889,0,0,0,.316.68,1.117,1.117,0,0,0,.779.287,1.17,1.17,0,0,0,.832-.29.969.969,0,0,0,.311-.741,1.133,1.133,0,0,0-.322-.914,1.347,1.347,0,0,0-.891-.27H9.275Z" transform="translate(211.623 -7815.342)"/><path d="M4.9,0H2.918V-6.3L.973-5.736v-1.5L4.717-8.531H4.9ZM9.275-5.092h.932a.969.969,0,0,0,1.107-1.084.937.937,0,0,0-.264-.688,1,1,0,0,0-.744-.267,1.07,1.07,0,0,0-.683.229.7.7,0,0,0-.29.568H7.359a2.021,2.021,0,0,1,.375-1.2,2.476,2.476,0,0,1,1.04-.823,3.556,3.556,0,0,1,1.462-.3A3.494,3.494,0,0,1,12.475-8a2.162,2.162,0,0,1,.814,1.787,1.8,1.8,0,0,1-.337,1.04,2.4,2.4,0,0,1-.981.794,2.294,2.294,0,0,1,1.066.747A1.967,1.967,0,0,1,13.424-2.4a2.2,2.2,0,0,1-.879,1.828,3.648,3.648,0,0,1-2.309.686A3.783,3.783,0,0,1,8.681-.2a2.437,2.437,0,0,1-1.087-.885,2.3,2.3,0,0,1-.369-1.286H9.211a.889.889,0,0,0,.316.68,1.117,1.117,0,0,0,.779.287,1.17,1.17,0,0,0,.832-.29.969.969,0,0,0,.311-.741,1.133,1.133,0,0,0-.322-.914,1.347,1.347,0,0,0-.891-.27H9.275Z" transform="translate(232.416 -7815.342)"/><path d="M4.9,0H2.918V-6.3L.973-5.736v-1.5L4.717-8.531H4.9Zm8.525,0H7.471V-1.289l2.742-2.883a3.273,3.273,0,0,0,1.014-1.834,1.276,1.276,0,0,0-.24-.838.858.858,0,0,0-.7-.287.868.868,0,0,0-.732.384,1.577,1.577,0,0,0-.281.958H7.295a2.8,2.8,0,0,1,.393-1.45,2.753,2.753,0,0,1,1.09-1.04,3.237,3.237,0,0,1,1.559-.375,3.185,3.185,0,0,1,2.13.639,2.28,2.28,0,0,1,.747,1.834,2.663,2.663,0,0,1-.187.981,4.3,4.3,0,0,1-.583,1,14.686,14.686,0,0,1-1.274,1.4l-1.1,1.271h3.357Z" transform="translate(243.895 -7965.414)"/><path d="M4.9,0H2.918V-6.3L.973-5.736v-1.5L4.717-8.531H4.9Zm8.525,0H7.471V-1.289l2.742-2.883a3.273,3.273,0,0,0,1.014-1.834,1.276,1.276,0,0,0-.24-.838.858.858,0,0,0-.7-.287.868.868,0,0,0-.732.384,1.577,1.577,0,0,0-.281.958H7.295a2.8,2.8,0,0,1,.393-1.45,2.753,2.753,0,0,1,1.09-1.04,3.237,3.237,0,0,1,1.559-.375,3.185,3.185,0,0,1,2.13.639,2.28,2.28,0,0,1,.747,1.834,2.663,2.663,0,0,1-.187.981,4.3,4.3,0,0,1-.583,1,14.686,14.686,0,0,1-1.274,1.4l-1.1,1.271h3.357Z" transform="translate(266.205 -7965.414)"/><path d="M7.775,0H5.73V-3.562H2.7V0H.645V-8.531H2.7v3.387H5.73V-8.531H7.775Z" transform="translate(223 -7898.342)"/><path d="M4.9,0H2.918V-6.3L.973-5.736v-1.5L4.717-8.531H4.9Z" transform="translate(269.205 -7898.342)"/><path d="M5.936-3.615H2.7v2.033h3.82V0H.645V-8.531H6.533v1.588H2.7v1.8H5.936Z" transform="translate(163 -7836.322)"/><path d="M5.736-3.334H6.6v1.523H5.736V0H3.762V-1.811H.463L.346-3.018l3.416-5.5v-.018H5.736Zm-3.51,0H3.762V-5.959l-.123.2Z" transform="translate(163 -7794.047)"/><path d="M7.629-1.055a3.307,3.307,0,0,1-1.389.85,5.989,5.989,0,0,1-2,.322A3.573,3.573,0,0,1,1.559-.908,4.151,4.151,0,0,1,.486-3.762L.48-4.5A5.091,5.091,0,0,1,.926-6.7,3.307,3.307,0,0,1,2.2-8.147a3.6,3.6,0,0,1,1.919-.507,3.779,3.779,0,0,1,2.476.729A3.091,3.091,0,0,1,7.623-5.748H5.643a1.618,1.618,0,0,0-.457-1.02,1.475,1.475,0,0,0-1-.3,1.342,1.342,0,0,0-1.2.656,3.5,3.5,0,0,0-.428,1.875v.516A3.43,3.43,0,0,0,3-2.106a1.544,1.544,0,0,0,1.374.642,1.728,1.728,0,0,0,1.2-.357V-3.146H4.143V-4.559H7.629Z" transform="translate(192 -7988.047)"/><path d="M2.326-5.092h.932A.969.969,0,0,0,4.365-6.176.937.937,0,0,0,4.1-6.864a1,1,0,0,0-.744-.267,1.07,1.07,0,0,0-.683.229.7.7,0,0,0-.29.568H.41a2.021,2.021,0,0,1,.375-1.2,2.476,2.476,0,0,1,1.04-.823,3.556,3.556,0,0,1,1.462-.3A3.494,3.494,0,0,1,5.525-8,2.162,2.162,0,0,1,6.34-6.217,1.8,1.8,0,0,1,6-5.177a2.4,2.4,0,0,1-.981.794,2.294,2.294,0,0,1,1.066.747A1.967,1.967,0,0,1,6.475-2.4,2.2,2.2,0,0,1,5.6-.568,3.648,3.648,0,0,1,3.287.117,3.783,3.783,0,0,1,1.731-.2,2.437,2.437,0,0,1,.645-1.087,2.3,2.3,0,0,1,.275-2.373H2.262a.889.889,0,0,0,.316.68,1.117,1.117,0,0,0,.779.287,1.17,1.17,0,0,0,.832-.29A.969.969,0,0,0,4.5-2.437a1.133,1.133,0,0,0-.322-.914,1.347,1.347,0,0,0-.891-.27H2.326Z" transform="translate(192 -7957.414)"/><ellipse cx="5.57" cy="5.57" rx="5.57" ry="5.57" transform="translate(96.658 -7854.893)"/><path d="M-1193.861-3047.084l-.959-.283,26.048-88.214.959.283Z" transform="translate(1296.518 -4802.322)"/><path d="M5.57,0,8.487,5.1,11.14,9.747H0Z" transform="translate(126.788 -7948.928) rotate(22)"/><path d="M-1220.579-2954.995l-.957-.29,27.8-91.86.957.29Z" transform="translate(1455.488 -4900.766)"/><path d="M5.57,0,8.487,5.1,11.14,9.747H0Z" transform="translate(239.479 -7862.489) rotate(76)"/><ellipse cx="4.408" cy="4.408" rx="4.408" ry="4.408" transform="translate(152.58 -7977.914)"/><path d="M-1122.749-3046.5h-70.514v-1h70.514Z" transform="translate(1351.063 -4926.506)"/><path d="M4.408,0,6.716,4.039l2.1,3.674H0Z" transform="translate(236.028 -7977.914) rotate(90)"/><ellipse cx="4.769" cy="4.769" rx="4.769" ry="4.769" transform="translate(122.33 -7825.75)"/><path d="M-1121.45-3046.5h-71.812v-1h71.812Z" transform="translate(1321.241 -4773.98)"/><path d="M4.769,0l2.5,4.37L9.538,8.346H0Z" transform="translate(203.964 -7825.75) rotate(90)"/><path d="M3.885,0H2.862L1.351-2.654V0H.322V-4.266H1.351L2.859-1.611V-4.266H3.885Zm.48-1.614a1.871,1.871,0,0,1,.185-.845,1.32,1.32,0,0,1,.53-.57,1.6,1.6,0,0,1,.812-.2,1.458,1.458,0,0,1,1.122.441,1.692,1.692,0,0,1,.41,1.2v.035A1.642,1.642,0,0,1,7.012-.376,1.461,1.461,0,0,1,5.9.059,1.478,1.478,0,0,1,4.811-.347a1.587,1.587,0,0,1-.442-1.1Zm.987.062a1.179,1.179,0,0,0,.138.645A.459.459,0,0,0,5.9-.7q.527,0,.539-.812v-.1q0-.853-.545-.853-.5,0-.536.735Zm2.382-.056A1.936,1.936,0,0,1,8.06-2.795a1.07,1.07,0,0,1,.908-.434.91.91,0,0,1,.715.334V-4.5h.99V0H9.785l-.05-.34a.935.935,0,0,1-.773.4,1.068,1.068,0,0,1-.9-.434A2,2,0,0,1,7.734-1.608Zm.987.062q0,.844.492.844a.486.486,0,0,0,.469-.275V-2.186a.473.473,0,0,0-.463-.281q-.457,0-.5.738Zm2.388-.067a1.871,1.871,0,0,1,.185-.845,1.32,1.32,0,0,1,.53-.57,1.6,1.6,0,0,1,.812-.2,1.458,1.458,0,0,1,1.122.441,1.692,1.692,0,0,1,.41,1.2v.035a1.642,1.642,0,0,1-.412,1.176,1.461,1.461,0,0,1-1.115.435,1.478,1.478,0,0,1-1.087-.406,1.587,1.587,0,0,1-.442-1.1Zm.987.062a1.179,1.179,0,0,0,.138.645.459.459,0,0,0,.407.205q.527,0,.539-.812v-.1q0-.853-.545-.853-.5,0-.536.735Zm6.369-2.774v.776h-.044a1.482,1.482,0,0,0-.91.265,1.119,1.119,0,0,0-.438.737,1.155,1.155,0,0,1,.844-.328,1.077,1.077,0,0,1,.882.4,1.631,1.631,0,0,1,.328,1.061,1.493,1.493,0,0,1-.192.747,1.369,1.369,0,0,1-.536.532,1.541,1.541,0,0,1-.763.192,1.592,1.592,0,0,1-.812-.207,1.42,1.42,0,0,1-.557-.59,1.944,1.944,0,0,1-.205-.885v-.4A2.462,2.462,0,0,1,16.346-3.2a2.05,2.05,0,0,1,.807-.825,2.308,2.308,0,0,1,1.163-.3Zm-.891,2.206a.565.565,0,0,0-.328.091.577.577,0,0,0-.2.223v.3q0,.809.56.809a.454.454,0,0,0,.376-.2.824.824,0,0,0,.151-.507.809.809,0,0,0-.154-.511A.492.492,0,0,0,17.575-2.121Z" transform="translate(221.5 -7789.047)"/></g></svg>