<svg xmlns="http://www.w3.org/2000/svg" xmlns:xlink="http://www.w3.org/1999/xlink" width="1274.551" height="320.967" viewBox="0 0 1274.551 320.967">
  <defs>
    <clipPath id="clip-path">
      <rect id="Rectángulo_403548" data-name="Rectángulo 403548" width="116" height="310" transform="translate(158.684 4.065)" fill="#fff"/>
    </clipPath>
    <filter id="Trazado_874371" x="-164.684" y="-10.066" width="304.369" height="304.576" filterUnits="userSpaceOnUse">
      <feOffset dx="3" dy="3" input="SourceAlpha"/>
      <feGaussianBlur stdDeviation="3" result="blur"/>
      <feFlood flood-opacity="0.161"/>
      <feComposite operator="in" in2="blur"/>
      <feComposite in="SourceGraphic"/>
    </filter>
    <clipPath id="clip-path-2">
      <rect id="Rectángulo_403551" data-name="Rectángulo 403551" width="282" height="95" transform="translate(1000.051 2542.28)" fill="#fff"/>
    </clipPath>
    <filter id="Trazado_878617" x="1146.867" y="-447.78" width="304.369" height="304.576" filterUnits="userSpaceOnUse">
      <feOffset dx="3" dy="3" input="SourceAlpha"/>
      <feGaussianBlur stdDeviation="3" result="blur-2"/>
      <feFlood flood-opacity="0.161"/>
      <feComposite operator="in" in2="blur-2"/>
      <feComposite in="SourceGraphic"/>
    </filter>
    <filter id="Trazado_878618" x="899.5" y="205.135" width="304.369" height="304.577" filterUnits="userSpaceOnUse">
      <feOffset dx="3" dy="3" input="SourceAlpha"/>
      <feGaussianBlur stdDeviation="3" result="blur-3"/>
      <feFlood flood-opacity="0.161"/>
      <feComposite operator="in" in2="blur-3"/>
      <feComposite in="SourceGraphic"/>
    </filter>
    <clipPath id="clip-path-3">
      <rect id="Rectángulo_403552" data-name="Rectángulo 403552" width="210" height="137" transform="translate(1210.051 2044.28)" fill="#fff"/>
    </clipPath>
    <filter id="Trazado_878620" x="1135.867" y="-116.034" width="304.369" height="304.576" filterUnits="userSpaceOnUse">
      <feOffset dx="3" dy="3" input="SourceAlpha"/>
      <feGaussianBlur stdDeviation="3" result="blur-4"/>
      <feFlood flood-opacity="0.161"/>
      <feComposite operator="in" in2="blur-4"/>
      <feComposite in="SourceGraphic"/>
    </filter>
  </defs>
  <g id="Grupo_1110248" data-name="Grupo 1110248" transform="translate(-180 -7741.518)">
    <rect id="Rectángulo_403728" data-name="Rectángulo 403728" width="1274" height="291" transform="translate(180.051 7771.484)" fill="#e69999"/>
    <g id="Grupo_1108798" data-name="Grupo 1108798" transform="translate(-621 -740.516)">
      <circle id="Elipse_11655" data-name="Elipse 11655" cx="26" cy="26" r="26" transform="translate(1247.051 8535)" fill="#fff"/>
      <path id="Elipse_11655_-_Contorno" data-name="Elipse 11655 - Contorno" d="M26,2a24.007,24.007,0,0,0-9.341,46.115A24.007,24.007,0,0,0,35.341,3.885,23.848,23.848,0,0,0,26,2m0-2A26,26,0,1,1,0,26,26,26,0,0,1,26,0Z" transform="translate(1247.051 8535)"/>
      <path id="Trazado_879014" data-name="Trazado 879014" d="M-955.668-3054.715h-46.383v-1h46.383Z" transform="translate(2251.445 11608)"/>
      <path id="Trazado_879015" data-name="Trazado 879015" d="M-977.775-3021h-1v-34.434h1Z" transform="translate(2251.826 11608)"/>
    </g>
    <g id="Grupo_1108799" data-name="Grupo 1108799" transform="translate(-508 -740.516)">
      <circle id="Elipse_11655-2" data-name="Elipse 11655" cx="26" cy="26" r="26" transform="translate(1247.051 8535)" fill="#fff"/>
      <path id="Elipse_11655_-_Contorno-2" data-name="Elipse 11655 - Contorno" d="M26,2a24.007,24.007,0,0,0-9.341,46.115A24.007,24.007,0,0,0,35.341,3.885,23.848,23.848,0,0,0,26,2m0-2A26,26,0,1,1,0,26,26,26,0,0,1,26,0Z" transform="translate(1247.051 8535)"/>
      <path id="Trazado_879014-2" data-name="Trazado 879014" d="M-956.168-3054.715h-45.882v-1h45.882Z" transform="translate(2251.946 11608)"/>
      <path id="Trazado_879015-2" data-name="Trazado 879015" d="M-977.775-3021h-1v-34.434h1Z" transform="translate(2251.826 11608)"/>
    </g>
    <g id="Grupo_1108800" data-name="Grupo 1108800" transform="translate(-381 -740.516)">
      <circle id="Elipse_11655-3" data-name="Elipse 11655" cx="26" cy="26" r="26" transform="translate(1247.051 8535)" fill="#fff"/>
      <path id="Elipse_11655_-_Contorno-3" data-name="Elipse 11655 - Contorno" d="M26,2a24.007,24.007,0,0,0-9.341,46.115A24.007,24.007,0,0,0,35.341,3.885,23.848,23.848,0,0,0,26,2m0-2A26,26,0,1,1,0,26,26,26,0,0,1,26,0Z" transform="translate(1247.051 8535)"/>
      <path id="Trazado_879014-3" data-name="Trazado 879014" d="M-956.1-3054.715h-45.955v-1H-956.1Z" transform="translate(2251.874 11608)"/>
      <path id="Trazado_879015-3" data-name="Trazado 879015" d="M-977.775-3021h-1v-34.434h1Z" transform="translate(2251.826 11608)"/>
    </g>
    <g id="Grupo_1108801" data-name="Grupo 1108801" transform="translate(-409 -601.516)">
      <circle id="Elipse_11655-4" data-name="Elipse 11655" cx="26" cy="26" r="26" transform="translate(1247.051 8535)" fill="#fff"/>
      <path id="Elipse_11655_-_Contorno-4" data-name="Elipse 11655 - Contorno" d="M26,2a24.007,24.007,0,0,0-9.341,46.115A24.007,24.007,0,0,0,35.341,3.885,23.848,23.848,0,0,0,26,2m0-2A26,26,0,1,1,0,26,26,26,0,0,1,26,0Z" transform="translate(1247.051 8535)"/>
      <path id="Trazado_879014-4" data-name="Trazado 879014" d="M-956-3054.715h-46.046v-1H-956Z" transform="translate(2251.782 11608)"/>
      <path id="Trazado_879015-4" data-name="Trazado 879015" d="M-977.775-3021h-1v-34.434h1Z" transform="translate(2251.826 11608)"/>
    </g>
    <g id="Grupo_1108802" data-name="Grupo 1108802" transform="translate(-299 -601.516)">
      <circle id="Elipse_11655-5" data-name="Elipse 11655" cx="26" cy="26" r="26" transform="translate(1247.051 8535)" fill="#fff"/>
      <path id="Elipse_11655_-_Contorno-5" data-name="Elipse 11655 - Contorno" d="M26,2a24.007,24.007,0,0,0-9.341,46.115A24.007,24.007,0,0,0,35.341,3.885,23.848,23.848,0,0,0,26,2m0-2A26,26,0,1,1,0,26,26,26,0,0,1,26,0Z" transform="translate(1247.051 8535)"/>
      <path id="Trazado_879014-5" data-name="Trazado 879014" d="M-956.1-3054.715h-45.95v-1h45.95Z" transform="translate(2251.878 11608)"/>
      <path id="Trazado_879015-5" data-name="Trazado 879015" d="M-977.775-3021h-1v-34.434h1Z" transform="translate(2251.826 11608)"/>
    </g>
    <g id="Grupo_1108803" data-name="Grupo 1108803" transform="translate(-643 -601.516)">
      <circle id="Elipse_11655-6" data-name="Elipse 11655" cx="26" cy="26" r="26" transform="translate(1247.051 8535)" fill="#fff"/>
      <path id="Elipse_11655_-_Contorno-6" data-name="Elipse 11655 - Contorno" d="M26,2a24.007,24.007,0,0,0-9.341,46.115A24.007,24.007,0,0,0,35.341,3.885,23.848,23.848,0,0,0,26,2m0-2A26,26,0,1,1,0,26,26,26,0,0,1,26,0Z" transform="translate(1247.051 8535)"/>
      <path id="Trazado_879014-6" data-name="Trazado 879014" d="M-956.09-3054.715h-45.96v-1h45.96Z" transform="translate(2251.868 11608)"/>
      <path id="Trazado_879015-6" data-name="Trazado 879015" d="M-977.775-3021h-1v-34.434h1Z" transform="translate(2251.826 11608)"/>
    </g>
    <g id="Grupo_1108804" data-name="Grupo 1108804" transform="translate(-742 -601.516)">
      <circle id="Elipse_11655-7" data-name="Elipse 11655" cx="26" cy="26" r="26" transform="translate(1247.051 8535)" fill="#fff"/>
      <path id="Elipse_11655_-_Contorno-7" data-name="Elipse 11655 - Contorno" d="M26,2a24.007,24.007,0,0,0-9.341,46.115A24.007,24.007,0,0,0,35.341,3.885,23.848,23.848,0,0,0,26,2m0-2A26,26,0,1,1,0,26,26,26,0,0,1,26,0Z" transform="translate(1247.051 8535)"/>
      <path id="Trazado_879014-7" data-name="Trazado 879014" d="M-955.827-3054.715h-46.224v-1h46.224Z" transform="translate(2251.604 11608)"/>
      <path id="Trazado_879015-7" data-name="Trazado 879015" d="M-977.775-3021h-1v-34.434h1Z" transform="translate(2251.826 11608)"/>
    </g>
    <g id="Grupo_1108805" data-name="Grupo 1108805" transform="translate(-533 -601.516)">
      <circle id="Elipse_11655-8" data-name="Elipse 11655" cx="26" cy="26" r="26" transform="translate(1247.051 8535)" fill="#fff"/>
      <path id="Elipse_11655_-_Contorno-8" data-name="Elipse 11655 - Contorno" d="M26,2a24.007,24.007,0,0,0-9.341,46.115A24.007,24.007,0,0,0,35.341,3.885,23.848,23.848,0,0,0,26,2m0-2A26,26,0,1,1,0,26,26,26,0,0,1,26,0Z" transform="translate(1247.051 8535)"/>
      <path id="Trazado_879014-8" data-name="Trazado 879014" d="M-955.98-3054.715h-46.07v-1h46.07Z" transform="translate(2251.758 11608)"/>
      <path id="Trazado_879015-8" data-name="Trazado 879015" d="M-977.775-3021h-1v-34.434h1Z" transform="translate(2251.826 11608)"/>
    </g>
    <text id="Fuente:_SENA_LP_Risaralda_2014_." data-name="Fuente:(SENA – LP Risaralda, 2014)." transform="translate(625.051 7998.484)" fill="#12263f" font-size="16" font-family="Roboto-Regular, Roboto"><tspan x="0" y="15">Fuente:(SENA – LP Risaralda, 2014).</tspan></text>
    <circle id="Elipse_11656" data-name="Elipse 11656" cx="4" cy="4" r="4" transform="translate(673.051 7816.484)"/>
    <path id="Trazado_879016" data-name="Trazado 879016" d="M-1134.778-3046.5h-58.484v-1h58.484Z" transform="translate(1871.051 10867.484)"/>
    <path id="Polígono_13" data-name="Polígono 13" d="M4,0,8,7H0Z" transform="translate(738.551 7816.484) rotate(90)"/>
    <circle id="Elipse_11657" data-name="Elipse 11657" cx="4" cy="4" r="4" transform="translate(785.051 7816.484)"/>
    <path id="Trazado_879017" data-name="Trazado 879017" d="M-1121.051-3046.5h-72.211v-1h72.211Z" transform="translate(1983.051 10867.484)"/>
    <path id="Polígono_14" data-name="Polígono 14" d="M4,0,8,7H0Z" transform="translate(865.5 7816.484) rotate(90)"/>
    <circle id="Elipse_11658" data-name="Elipse 11658" cx="4" cy="4" r="4" transform="translate(760.051 7955.484)"/>
    <path id="Trazado_879018" data-name="Trazado 879018" d="M-1122.771-3046.5h-70.491v-1h70.491Z" transform="translate(1958.051 11006.484)"/>
    <path id="Polígono_15" data-name="Polígono 15" d="M4,0,8,7H0Z" transform="translate(838 7955.484) rotate(90)"/>
    <circle id="Elipse_11659" data-name="Elipse 11659" cx="4" cy="4" r="4" transform="translate(649.051 7955.484)"/>
    <path id="Trazado_879019" data-name="Trazado 879019" d="M-1135.94-3046.5h-57.322v-1h57.322Z" transform="translate(1847.051 11006.484)"/>
    <path id="Polígono_16" data-name="Polígono 16" d="M4,0,8,7H0Z" transform="translate(714.051 7955.484) rotate(90)"/>
    <path id="Polígono_17" data-name="Polígono 17" d="M4,0,8,7H0Z" transform="translate(603 7955.484) rotate(90)"/>
    <circle id="Elipse_11661" data-name="Elipse 11661" cx="4" cy="4" r="4" transform="translate(550.051 7955.484)"/>
    <path id="Trazado_879021" data-name="Trazado 879021" d="M-1147.266-3046.5h-46v-1h46Z" transform="translate(1748.051 11006.484)"/>
    <circle id="Elipse_11662" data-name="Elipse 11662" cx="4" cy="4" r="4" transform="translate(885.051 7955.984)"/>
    <path id="Trazado_879022" data-name="Trazado 879022" d="M-1137.551-3046.5h-55.711v-1h55.711Z" transform="translate(2083.051 11006.984)"/>
    <path id="Polígono_18" data-name="Polígono 18" d="M4,0,8,7H0Z" transform="translate(948 7955.984) rotate(90)"/>
    <text id="D" transform="translate(701.051 7814.484)" font-size="16" font-family="Roboto-Black, Roboto" font-weight="800"><tspan x="0" y="0">D</tspan></text>
    <text id="G" transform="translate(824.051 7814.484)" font-size="16" font-family="Roboto-Black, Roboto" font-weight="800"><tspan x="0" y="0">G</tspan></text>
    <text id="H" transform="translate(858.051 7891.484)" font-size="16" font-family="Roboto-Black, Roboto" font-weight="800"><tspan x="0" y="0">H</tspan></text>
    <text id="F" transform="translate(727.051 7891.484)" font-size="16" font-family="Roboto-Black, Roboto" font-weight="800"><tspan x="0" y="0">F</tspan></text>
    <text id="B" transform="translate(619.051 7891.484)" font-size="16" font-family="Roboto-Black, Roboto" font-weight="800"><tspan x="0" y="0">B</tspan></text>
    <text id="A" transform="translate(570.051 7951.484)" font-size="16" font-family="Roboto-Black, Roboto" font-weight="800"><tspan x="0" y="0">A</tspan></text>
    <text id="C" transform="translate(685.051 7951.484)" font-size="16" font-family="Roboto-Black, Roboto" font-weight="800"><tspan x="0" y="0">C</tspan></text>
    <text id="E" transform="translate(800.051 7951.484)" font-size="16" font-family="Roboto-Black, Roboto" font-weight="800"><tspan x="0" y="0">E</tspan></text>
    <text id="I" transform="translate(913.051 7951.484)" font-size="16" font-family="Roboto-Black, Roboto" font-weight="800"><tspan x="0" y="0">I</tspan></text>
    <g id="Grupo_1108880" data-name="Grupo 1108880" transform="translate(4238.551 17166.484)">
      <g id="Componente_3_28" data-name="Componente 3 – 28" transform="translate(-4058.551 -9424.967)">
        <g id="Enmascarar_grupo_1101641" data-name="Enmascarar grupo 1101641" transform="translate(-158.684 -4.065)" clip-path="url(#clip-path)">
          <g transform="matrix(1, 0, 0, 1, 158.68, 4.07)" filter="url(#Trazado_874371)">
            <path id="Trazado_874371-2" data-name="Trazado 874371" d="M164.77,483.141a99.262,99.262,0,0,1-22.651-2.584,1.206,1.206,0,0,1-.9-1.439l3.556-15.689a83.114,83.114,0,0,1-26.494-11.485l-9.1,13.351a1.205,1.205,0,0,1-1.681.31A102.961,102.961,0,0,1,72.608,425.12a1.2,1.2,0,0,1,.564-1.595l14.423-7a84.734,84.734,0,0,1-7.535-27.969l-15.981,1.254a1.257,1.257,0,0,1-.878-.286,1.2,1.2,0,0,1-.418-.824,100.778,100.778,0,0,1,9.836-52.643,1.2,1.2,0,0,1,1.6-.547l14.418,6.947a85.133,85.133,0,0,1,17.174-23.27l-10.985-11.76a1.2,1.2,0,0,1,.036-1.681c5.676-5.577,12.651-10.566,21.951-15.7l1.968-.987a77.772,77.772,0,0,1,10.422-4.608c.759-.258,1.519-.535,2.277-.81,1.332-.486,2.71-.988,4.11-1.389l6.507-1.647a1.2,1.2,0,0,1,1.469.9l3.554,15.725a81.845,81.845,0,0,1,17.8-1.893,88.95,88.95,0,0,1,11.167.7l2.347-15.907a1.206,1.206,0,0,1,1.337-1.02c7.8.95,16.3,3.35,25.981,7.339.909.437,1.753.835,2.6,1.233a80.585,80.585,0,0,1,9.513,5.033,100.474,100.474,0,0,1,11.027,7.648,1.206,1.206,0,0,1,.211,1.707l-10.029,12.6a84.79,84.79,0,0,1,18.953,21.9l13.849-8.1a1.2,1.2,0,0,1,1.635.411l1.75,2.857,2.188,4.529c.742,1.53,1.508,3.113,2.207,4.724.439,1.242.874,2.4,1.309,3.561a72.4,72.4,0,0,1,3.03,9.35c2.7,9.122,3.314,18.582,3.562,26.623a1.2,1.2,0,0,1-1.2,1.242H250.255a83.973,83.973,0,0,1-5.373,28.5l15,5.81a1.2,1.2,0,0,1,.7,1.535l-.317.9c-.277.79-.553,1.576-.887,2.329l-2.282,4.733c-.7,1.428-1.425,2.905-2.209,4.332-.486.81-.942,1.585-1.4,2.36a78.416,78.416,0,0,1-5.906,9.046,101.791,101.791,0,0,1-18.658,19.448,1.179,1.179,0,0,1-.891.267,1.2,1.2,0,0,1-.814-.447l-10.029-12.557a85.925,85.925,0,0,1-25.6,13.6l4.871,15.425a1.2,1.2,0,0,1-.8,1.516,108.056,108.056,0,0,1-30.883,4.576m-20.936-4.663a101.93,101.93,0,0,0,49.954-1.878l-4.862-15.4a1.2,1.2,0,0,1,.789-1.511A83.557,83.557,0,0,0,216.637,445.4a1.2,1.2,0,0,1,1.687.193l10.009,12.528a98.262,98.262,0,0,0,17.321-18.255,76.879,76.879,0,0,0,5.755-8.82c.459-.781.918-1.562,1.386-2.338.733-1.337,1.414-2.725,2.134-4.192l2.256-4.68c.271-.607.5-1.265.737-1.928l-15.029-5.823a1.2,1.2,0,0,1-.687-1.564,81.582,81.582,0,0,0,5.648-29.951,1.2,1.2,0,0,1,1.2-1.2H265.1c-.269-7.61-.942-16.379-3.443-24.848a71.057,71.057,0,0,0-2.955-9.112c-.442-1.177-.883-2.351-1.3-3.527-.647-1.486-1.4-3.045-2.132-4.555l-2.134-4.426-1.074-1.746L238.2,339.259a1.2,1.2,0,0,1-1.649-.434A82.462,82.462,0,0,0,216.631,315.8a1.2,1.2,0,0,1-.191-1.691l10.007-12.572a88.978,88.978,0,0,0-9.838-6.759,77.647,77.647,0,0,0-9.293-4.913c-.848-.4-1.7-.8-2.549-1.213a100.351,100.351,0,0,0-24.127-6.994l-2.347,15.909a1.215,1.215,0,0,1-1.36,1.017,86.428,86.428,0,0,0-12.017-.839,78.828,78.828,0,0,0-18.421,2.1,1.189,1.189,0,0,1-.917-.147,1.2,1.2,0,0,1-.539-.758l-3.548-15.7-5.274,1.335c-1.281.367-2.559.833-3.911,1.325-.775.283-1.552.566-2.338.832a76.011,76.011,0,0,0-10.1,4.476l-1.933.967c-8.6,4.751-15.172,9.379-20.536,14.473l10.993,11.771a1.2,1.2,0,0,1-.058,1.7A82.777,82.777,0,0,0,90.272,344.59a1.205,1.205,0,0,1-1.606.558L74.253,338.2A98.387,98.387,0,0,0,65.1,387.319l15.968-1.254a1.25,1.25,0,0,1,.878.287,1.206,1.206,0,0,1,.417.825,82.336,82.336,0,0,0,7.913,29.4,1.2,1.2,0,0,1-.562,1.6L75.3,425.17a100.59,100.59,0,0,0,32.576,37.76l9.089-13.331a1.2,1.2,0,0,1,1.673-.317,80.758,80.758,0,0,0,27.841,12.07,1.2,1.2,0,0,1,.911,1.441Zm21.179-34.429a62.916,62.916,0,1,1,62.917-62.916,62.986,62.986,0,0,1-62.917,62.916m0-123.425a60.508,60.508,0,1,0,60.509,60.509,60.577,60.577,0,0,0-60.509-60.509" transform="matrix(0.6, 0.8, -0.8, 0.6, 189.57, -221.93)" fill="#fff"/>
          </g>
        </g>
      </g>
      <g id="Enmascarar_grupo_1101644" data-name="Enmascarar grupo 1101644" transform="translate(-4153.051 -11741.28)" clip-path="url(#clip-path-2)">
        <g id="Componente_2_57" data-name="Componente 2 – 57" transform="translate(1000 1874.534)">
          <g transform="matrix(1, 0, 0, 1, -905.5, 441.78)" filter="url(#Trazado_878617)">
            <path id="Trazado_878617-2" data-name="Trazado 878617" d="M164.77,483.141a99.262,99.262,0,0,1-22.651-2.584,1.206,1.206,0,0,1-.9-1.439l3.556-15.689a83.114,83.114,0,0,1-26.494-11.485l-9.1,13.351a1.205,1.205,0,0,1-1.681.31A102.961,102.961,0,0,1,72.608,425.12a1.2,1.2,0,0,1,.564-1.595l14.423-7a84.734,84.734,0,0,1-7.535-27.969l-15.981,1.254a1.257,1.257,0,0,1-.878-.286,1.2,1.2,0,0,1-.418-.824,100.778,100.778,0,0,1,9.836-52.643,1.2,1.2,0,0,1,1.6-.547l14.418,6.947a85.133,85.133,0,0,1,17.174-23.27l-10.985-11.76a1.2,1.2,0,0,1,.036-1.681c5.676-5.577,12.651-10.566,21.951-15.7l1.968-.987a77.772,77.772,0,0,1,10.422-4.608c.759-.258,1.519-.535,2.277-.81,1.332-.486,2.71-.988,4.11-1.389l6.507-1.647a1.2,1.2,0,0,1,1.469.9l3.554,15.725a81.845,81.845,0,0,1,17.8-1.893,88.95,88.95,0,0,1,11.167.7l2.347-15.907a1.206,1.206,0,0,1,1.337-1.02c7.8.95,16.3,3.35,25.981,7.339.909.437,1.753.835,2.6,1.233a80.585,80.585,0,0,1,9.513,5.033,100.474,100.474,0,0,1,11.027,7.648,1.206,1.206,0,0,1,.211,1.707l-10.029,12.6a84.79,84.79,0,0,1,18.953,21.9l13.849-8.1a1.2,1.2,0,0,1,1.635.411l1.75,2.857,2.188,4.529c.742,1.53,1.508,3.113,2.207,4.724.439,1.242.874,2.4,1.309,3.561a72.4,72.4,0,0,1,3.03,9.35c2.7,9.122,3.314,18.582,3.562,26.623a1.2,1.2,0,0,1-1.2,1.242H250.255a83.973,83.973,0,0,1-5.373,28.5l15,5.81a1.2,1.2,0,0,1,.7,1.535l-.317.9c-.277.79-.553,1.576-.887,2.329l-2.282,4.733c-.7,1.428-1.425,2.905-2.209,4.332-.486.81-.942,1.585-1.4,2.36a78.416,78.416,0,0,1-5.906,9.046,101.791,101.791,0,0,1-18.658,19.448,1.179,1.179,0,0,1-.891.267,1.2,1.2,0,0,1-.814-.447l-10.029-12.557a85.925,85.925,0,0,1-25.6,13.6l4.871,15.425a1.2,1.2,0,0,1-.8,1.516,108.056,108.056,0,0,1-30.883,4.576m-20.936-4.663a101.93,101.93,0,0,0,49.954-1.878l-4.862-15.4a1.2,1.2,0,0,1,.789-1.511A83.557,83.557,0,0,0,216.637,445.4a1.2,1.2,0,0,1,1.687.193l10.009,12.528a98.262,98.262,0,0,0,17.321-18.255,76.879,76.879,0,0,0,5.755-8.82c.459-.781.918-1.562,1.386-2.338.733-1.337,1.414-2.725,2.134-4.192l2.256-4.68c.271-.607.5-1.265.737-1.928l-15.029-5.823a1.2,1.2,0,0,1-.687-1.564,81.582,81.582,0,0,0,5.648-29.951,1.2,1.2,0,0,1,1.2-1.2H265.1c-.269-7.61-.942-16.379-3.443-24.848a71.057,71.057,0,0,0-2.955-9.112c-.442-1.177-.883-2.351-1.3-3.527-.647-1.486-1.4-3.045-2.132-4.555l-2.134-4.426-1.074-1.746L238.2,339.259a1.2,1.2,0,0,1-1.649-.434A82.462,82.462,0,0,0,216.631,315.8a1.2,1.2,0,0,1-.191-1.691l10.007-12.572a88.978,88.978,0,0,0-9.838-6.759,77.647,77.647,0,0,0-9.293-4.913c-.848-.4-1.7-.8-2.549-1.213a100.351,100.351,0,0,0-24.127-6.994l-2.347,15.909a1.215,1.215,0,0,1-1.36,1.017,86.428,86.428,0,0,0-12.017-.839,78.828,78.828,0,0,0-18.421,2.1,1.189,1.189,0,0,1-.917-.147,1.2,1.2,0,0,1-.539-.758l-3.548-15.7-5.274,1.335c-1.281.367-2.559.833-3.911,1.325-.775.283-1.552.566-2.338.832a76.011,76.011,0,0,0-10.1,4.476l-1.933.967c-8.6,4.751-15.172,9.379-20.536,14.473l10.993,11.771a1.2,1.2,0,0,1-.058,1.7A82.777,82.777,0,0,0,90.272,344.59a1.205,1.205,0,0,1-1.606.558L74.253,338.2A98.387,98.387,0,0,0,65.1,387.319l15.968-1.254a1.25,1.25,0,0,1,.878.287,1.206,1.206,0,0,1,.417.825,82.336,82.336,0,0,0,7.913,29.4,1.2,1.2,0,0,1-.562,1.6L75.3,425.17a100.59,100.59,0,0,0,32.576,37.76l9.089-13.331a1.2,1.2,0,0,1,1.673-.317,80.758,80.758,0,0,0,27.841,12.07,1.2,1.2,0,0,1,.911,1.441Zm21.179-34.429a62.916,62.916,0,1,1,62.917-62.916,62.986,62.986,0,0,1-62.917,62.916m0-123.425a60.508,60.508,0,1,0,60.509,60.509,60.577,60.577,0,0,0-60.509-60.509" transform="matrix(0.6, 0.8, -0.8, 0.6, 1501.13, -659.64)" fill="#fff"/>
          </g>
          <g transform="matrix(1, 0, 0, 1, -905.5, 441.78)" filter="url(#Trazado_878618)">
            <path id="Trazado_878618-2" data-name="Trazado 878618" d="M164.77,483.141a99.262,99.262,0,0,1-22.651-2.584,1.206,1.206,0,0,1-.9-1.439l3.556-15.689a83.114,83.114,0,0,1-26.494-11.485l-9.1,13.351a1.205,1.205,0,0,1-1.681.31A102.961,102.961,0,0,1,72.608,425.12a1.2,1.2,0,0,1,.564-1.595l14.423-7a84.734,84.734,0,0,1-7.535-27.969l-15.981,1.254a1.257,1.257,0,0,1-.878-.286,1.2,1.2,0,0,1-.418-.824,100.778,100.778,0,0,1,9.836-52.643,1.2,1.2,0,0,1,1.6-.547l14.418,6.947a85.133,85.133,0,0,1,17.174-23.27l-10.985-11.76a1.2,1.2,0,0,1,.036-1.681c5.676-5.577,12.651-10.566,21.951-15.7l1.968-.987a77.772,77.772,0,0,1,10.422-4.608c.759-.258,1.519-.535,2.277-.81,1.332-.486,2.71-.988,4.11-1.389l6.507-1.647a1.2,1.2,0,0,1,1.469.9l3.554,15.725a81.845,81.845,0,0,1,17.8-1.893,88.95,88.95,0,0,1,11.167.7l2.347-15.907a1.206,1.206,0,0,1,1.337-1.02c7.8.95,16.3,3.35,25.981,7.339.909.437,1.753.835,2.6,1.233a80.585,80.585,0,0,1,9.513,5.033,100.474,100.474,0,0,1,11.027,7.648,1.206,1.206,0,0,1,.211,1.707l-10.029,12.6a84.79,84.79,0,0,1,18.953,21.9l13.849-8.1a1.2,1.2,0,0,1,1.635.411l1.75,2.857,2.188,4.529c.742,1.53,1.508,3.113,2.207,4.724.439,1.242.874,2.4,1.309,3.561a72.4,72.4,0,0,1,3.03,9.35c2.7,9.122,3.314,18.582,3.562,26.623a1.2,1.2,0,0,1-1.2,1.242H250.255a83.973,83.973,0,0,1-5.373,28.5l15,5.81a1.2,1.2,0,0,1,.7,1.535l-.317.9c-.277.79-.553,1.576-.887,2.329l-2.282,4.733c-.7,1.428-1.425,2.905-2.209,4.332-.486.81-.942,1.585-1.4,2.36a78.416,78.416,0,0,1-5.906,9.046,101.791,101.791,0,0,1-18.658,19.448,1.179,1.179,0,0,1-.891.267,1.2,1.2,0,0,1-.814-.447l-10.029-12.557a85.925,85.925,0,0,1-25.6,13.6l4.871,15.425a1.2,1.2,0,0,1-.8,1.516,108.056,108.056,0,0,1-30.883,4.576m-20.936-4.663a101.93,101.93,0,0,0,49.954-1.878l-4.862-15.4a1.2,1.2,0,0,1,.789-1.511A83.557,83.557,0,0,0,216.637,445.4a1.2,1.2,0,0,1,1.687.193l10.009,12.528a98.262,98.262,0,0,0,17.321-18.255,76.879,76.879,0,0,0,5.755-8.82c.459-.781.918-1.562,1.386-2.338.733-1.337,1.414-2.725,2.134-4.192l2.256-4.68c.271-.607.5-1.265.737-1.928l-15.029-5.823a1.2,1.2,0,0,1-.687-1.564,81.582,81.582,0,0,0,5.648-29.951,1.2,1.2,0,0,1,1.2-1.2H265.1c-.269-7.61-.942-16.379-3.443-24.848a71.057,71.057,0,0,0-2.955-9.112c-.442-1.177-.883-2.351-1.3-3.527-.647-1.486-1.4-3.045-2.132-4.555l-2.134-4.426-1.074-1.746L238.2,339.259a1.2,1.2,0,0,1-1.649-.434A82.462,82.462,0,0,0,216.631,315.8a1.2,1.2,0,0,1-.191-1.691l10.007-12.572a88.978,88.978,0,0,0-9.838-6.759,77.647,77.647,0,0,0-9.293-4.913c-.848-.4-1.7-.8-2.549-1.213a100.351,100.351,0,0,0-24.127-6.994l-2.347,15.909a1.215,1.215,0,0,1-1.36,1.017,86.428,86.428,0,0,0-12.017-.839,78.828,78.828,0,0,0-18.421,2.1,1.189,1.189,0,0,1-.917-.147,1.2,1.2,0,0,1-.539-.758l-3.548-15.7-5.274,1.335c-1.281.367-2.559.833-3.911,1.325-.775.283-1.552.566-2.338.832a76.011,76.011,0,0,0-10.1,4.476l-1.933.967c-8.6,4.751-15.172,9.379-20.536,14.473l10.993,11.771a1.2,1.2,0,0,1-.058,1.7A82.777,82.777,0,0,0,90.272,344.59a1.205,1.205,0,0,1-1.606.558L74.253,338.2A98.387,98.387,0,0,0,65.1,387.319l15.968-1.254a1.25,1.25,0,0,1,.878.287,1.206,1.206,0,0,1,.417.825,82.336,82.336,0,0,0,7.913,29.4,1.2,1.2,0,0,1-.562,1.6L75.3,425.17a100.59,100.59,0,0,0,32.576,37.76l9.089-13.331a1.2,1.2,0,0,1,1.673-.317,80.758,80.758,0,0,0,27.841,12.07,1.2,1.2,0,0,1,.911,1.441Zm21.179-34.429a62.916,62.916,0,1,1,62.917-62.916,62.986,62.986,0,0,1-62.917,62.916m0-123.425a60.508,60.508,0,1,0,60.509,60.509,60.577,60.577,0,0,0-60.509-60.509" transform="matrix(0.6, 0.8, -0.8, 0.6, 1253.76, -6.73)" fill="#fff"/>
          </g>
        </g>
      </g>
      <g id="Enmascarar_grupo_1101645" data-name="Enmascarar grupo 1101645" transform="translate(-4204.051 -11439.28)" clip-path="url(#clip-path-3)">
        <g transform="matrix(1, 0, 0, 1, 145.5, 2014.31)" filter="url(#Trazado_878620)">
          <path id="Trazado_878620-2" data-name="Trazado 878620" d="M164.77,483.141a99.262,99.262,0,0,1-22.651-2.584,1.206,1.206,0,0,1-.9-1.439l3.556-15.689a83.114,83.114,0,0,1-26.494-11.485l-9.1,13.351a1.205,1.205,0,0,1-1.681.31A102.961,102.961,0,0,1,72.608,425.12a1.2,1.2,0,0,1,.564-1.595l14.423-7a84.734,84.734,0,0,1-7.535-27.969l-15.981,1.254a1.257,1.257,0,0,1-.878-.286,1.2,1.2,0,0,1-.418-.824,100.778,100.778,0,0,1,9.836-52.643,1.2,1.2,0,0,1,1.6-.547l14.418,6.947a85.133,85.133,0,0,1,17.174-23.27l-10.985-11.76a1.2,1.2,0,0,1,.036-1.681c5.676-5.577,12.651-10.566,21.951-15.7l1.968-.987a77.772,77.772,0,0,1,10.422-4.608c.759-.258,1.519-.535,2.277-.81,1.332-.486,2.71-.988,4.11-1.389l6.507-1.647a1.2,1.2,0,0,1,1.469.9l3.554,15.725a81.845,81.845,0,0,1,17.8-1.893,88.95,88.95,0,0,1,11.167.7l2.347-15.907a1.206,1.206,0,0,1,1.337-1.02c7.8.95,16.3,3.35,25.981,7.339.909.437,1.753.835,2.6,1.233a80.585,80.585,0,0,1,9.513,5.033,100.474,100.474,0,0,1,11.027,7.648,1.206,1.206,0,0,1,.211,1.707l-10.029,12.6a84.79,84.79,0,0,1,18.953,21.9l13.849-8.1a1.2,1.2,0,0,1,1.635.411l1.75,2.857,2.188,4.529c.742,1.53,1.508,3.113,2.207,4.724.439,1.242.874,2.4,1.309,3.561a72.4,72.4,0,0,1,3.03,9.35c2.7,9.122,3.314,18.582,3.562,26.623a1.2,1.2,0,0,1-1.2,1.242H250.255a83.973,83.973,0,0,1-5.373,28.5l15,5.81a1.2,1.2,0,0,1,.7,1.535l-.317.9c-.277.79-.553,1.576-.887,2.329l-2.282,4.733c-.7,1.428-1.425,2.905-2.209,4.332-.486.81-.942,1.585-1.4,2.36a78.416,78.416,0,0,1-5.906,9.046,101.791,101.791,0,0,1-18.658,19.448,1.179,1.179,0,0,1-.891.267,1.2,1.2,0,0,1-.814-.447l-10.029-12.557a85.925,85.925,0,0,1-25.6,13.6l4.871,15.425a1.2,1.2,0,0,1-.8,1.516,108.056,108.056,0,0,1-30.883,4.576m-20.936-4.663a101.93,101.93,0,0,0,49.954-1.878l-4.862-15.4a1.2,1.2,0,0,1,.789-1.511A83.557,83.557,0,0,0,216.637,445.4a1.2,1.2,0,0,1,1.687.193l10.009,12.528a98.262,98.262,0,0,0,17.321-18.255,76.879,76.879,0,0,0,5.755-8.82c.459-.781.918-1.562,1.386-2.338.733-1.337,1.414-2.725,2.134-4.192l2.256-4.68c.271-.607.5-1.265.737-1.928l-15.029-5.823a1.2,1.2,0,0,1-.687-1.564,81.582,81.582,0,0,0,5.648-29.951,1.2,1.2,0,0,1,1.2-1.2H265.1c-.269-7.61-.942-16.379-3.443-24.848a71.057,71.057,0,0,0-2.955-9.112c-.442-1.177-.883-2.351-1.3-3.527-.647-1.486-1.4-3.045-2.132-4.555l-2.134-4.426-1.074-1.746L238.2,339.259a1.2,1.2,0,0,1-1.649-.434A82.462,82.462,0,0,0,216.631,315.8a1.2,1.2,0,0,1-.191-1.691l10.007-12.572a88.978,88.978,0,0,0-9.838-6.759,77.647,77.647,0,0,0-9.293-4.913c-.848-.4-1.7-.8-2.549-1.213a100.351,100.351,0,0,0-24.127-6.994l-2.347,15.909a1.215,1.215,0,0,1-1.36,1.017,86.428,86.428,0,0,0-12.017-.839,78.828,78.828,0,0,0-18.421,2.1,1.189,1.189,0,0,1-.917-.147,1.2,1.2,0,0,1-.539-.758l-3.548-15.7-5.274,1.335c-1.281.367-2.559.833-3.911,1.325-.775.283-1.552.566-2.338.832a76.011,76.011,0,0,0-10.1,4.476l-1.933.967c-8.6,4.751-15.172,9.379-20.536,14.473l10.993,11.771a1.2,1.2,0,0,1-.058,1.7A82.777,82.777,0,0,0,90.272,344.59a1.205,1.205,0,0,1-1.606.558L74.253,338.2A98.387,98.387,0,0,0,65.1,387.319l15.968-1.254a1.25,1.25,0,0,1,.878.287,1.206,1.206,0,0,1,.417.825,82.336,82.336,0,0,0,7.913,29.4,1.2,1.2,0,0,1-.562,1.6L75.3,425.17a100.59,100.59,0,0,0,32.576,37.76l9.089-13.331a1.2,1.2,0,0,1,1.673-.317,80.758,80.758,0,0,0,27.841,12.07,1.2,1.2,0,0,1,.911,1.441Zm21.179-34.429a62.916,62.916,0,1,1,62.917-62.916,62.986,62.986,0,0,1-62.917,62.916m0-123.425a60.508,60.508,0,1,0,60.509,60.509,60.577,60.577,0,0,0-60.509-60.509" transform="matrix(0.6, 0.8, -0.8, 0.6, 1490.13, -327.9)" fill="#fff"/>
        </g>
      </g>
    </g>
  </g>
</svg>
