<svg xmlns="http://www.w3.org/2000/svg" width="93" height="94" viewBox="0 0 93 94"><g transform="translate(-1223.94 -8001.337)"><g transform="translate(-9.5 347)"><ellipse cx="46.5" cy="47" rx="46.5" ry="47" transform="translate(1233.44 7654.337)" fill="#c10000"/><g transform="translate(1249.941 7670.528)"><path d="M48.335,31.594H40.4a2.175,2.175,0,0,0-2.173,2.172v.5h-.453a2.3,2.3,0,0,1-1.5-.554l-2.825-2.421a4.3,4.3,0,0,0-2.8-1.035H25.027a5.15,5.15,0,0,0-1.031.1l-.216-2.639a12.011,12.011,0,0,0,6.114-10.4A11.857,11.857,0,0,0,21.5,5.934a1,1,0,0,0-1.3.956v8.987a2.225,2.225,0,1,1-4.449,0V6.89a1,1,0,0,0-1.3-.956,11.857,11.857,0,0,0-8.4,11.393,12.013,12.013,0,0,0,6.113,10.4l-.261,3.206H10.365a4.676,4.676,0,0,0-3.284,1.354A4.6,4.6,0,0,0,7.519,39.2a4.578,4.578,0,0,0-.446.365,4.657,4.657,0,0,0-1.347,3.276,4.6,4.6,0,0,0,1.8,3.631,4.6,4.6,0,0,0,.947,7.856A4.592,4.592,0,0,0,7.3,57.365,4.64,4.64,0,0,0,11.936,62h7.8c.455-.016,10.571-.434,18.494-5.074a2.172,2.172,0,0,0,2.168,2.13h7.932a2.175,2.175,0,0,0,2.172-2.172V33.766a2.175,2.175,0,0,0-2.172-2.172ZM21.6,53.145a4.544,4.544,0,0,0,.056-6.029,4.627,4.627,0,0,0,2.873,1.015,4.679,4.679,0,0,0,4.558-3.662,10.085,10.085,0,0,0,7.316,2.61,17.881,17.881,0,0,0,1.83-.111v7.6c-4.673,3.06-10.59,4.41-14.472,4.995a4.578,4.578,0,0,0,.582-2.2A4.634,4.634,0,0,0,21.6,53.145Zm-.619-6.68Zm9.68-14.208a2.293,2.293,0,0,1,1.5.554l2.825,2.42a4.3,4.3,0,0,0,2.8,1.036h.453v8.686c-6.874.811-8.734-2.938-9.028-3.679v-2.5a1,1,0,0,0-2,0v4.679a2.676,2.676,0,0,1-5.352,0V35.434a3.18,3.18,0,0,1,3.177-3.177Zm-17-6.012a10,10,0,0,1-5.6-8.918,9.863,9.863,0,0,1,5.692-8.983v7.533a4.225,4.225,0,1,0,8.45,0V8.344A9.864,9.864,0,0,1,27.9,17.327a10,10,0,0,1-5.6,8.918,1,1,0,0,0-.559.98l.325,3.981a5.138,5.138,0,0,0-.911.838,4.6,4.6,0,0,0-3.011-1.116h-4.22l.3-3.7a1,1,0,0,0-.557-.983ZM7.726,35.554A2.612,2.612,0,0,1,8.495,33.7a2.661,2.661,0,0,1,1.87-.768h7.77a2.6,2.6,0,0,1,1.986.93,5.115,5.115,0,0,0-.271,1.576V37.55a2.658,2.658,0,0,1-1.715.642h-7.77a2.641,2.641,0,0,1-2.639-2.638Zm10.409,4.638a2.648,2.648,0,0,1,1.715.65v2.613a4.632,4.632,0,0,0,.177,1.207c-.008.008-.014.018-.022.026a2.657,2.657,0,0,1-1.87.769H11.694c-.008,0-.016-.005-.024-.005s-.016.005-.024.005H10.365a2.633,2.633,0,1,1,0-5.265Zm-7.771,7.271h7.771a2.634,2.634,0,1,1,0,5.268H10.364a2.634,2.634,0,1,1,0-5.268ZM9.3,57.365a2.637,2.637,0,0,1,2.635-2.634H19.7A2.635,2.635,0,1,1,19.718,60H11.936A2.637,2.637,0,0,1,9.3,57.365Zm30.929-.482V33.766a.173.173,0,0,1,.173-.172H44.06V57.055H40.4a.173.173,0,0,1-.17-.172Zm8.277,0a.172.172,0,0,1-.172.172H46.06V33.594h2.275a.172.172,0,0,1,.172.172Z"/><path d="M57.274,2H32.846a1,1,0,0,0-1,1V27.429a1,1,0,0,0,1,1H57.274a1,1,0,0,0,1-1V3A1,1,0,0,0,57.274,2Zm-1,24.429H33.846V4H56.274Z"/><path d="M39.321,12.976a1,1,0,0,0,1.414,0l3.757-3.757A1,1,0,1,0,43.078,7.8l-3.05,3.049-1.08-1.081a1,1,0,0,0-1.414,1.415Z"/><path d="M47.377,11.745h5.462a1,1,0,1,0,0-2H47.377a1,1,0,0,0,0,2Z"/><path d="M39.321,20.82a1,1,0,0,0,1.414,0l3.757-3.757a1,1,0,1,0-1.414-1.414l-3.05,3.05-1.08-1.08a1,1,0,1,0-1.414,1.414Z"/><path d="M47.377,19.591h5.462a1,1,0,0,0,0-2H47.377a1,1,0,0,0,0,2Z"/></g></g></g></svg>