<svg xmlns="http://www.w3.org/2000/svg" width="495" height="191" viewBox="0 0 495 191">
  <g id="Grupo_1111370" data-name="Grupo 1111370" transform="translate(-545.5 -661.5)">
    <g id="Grupo_1108815" data-name="Grupo 1108815" transform="translate(547.5 3009.5)">
      <g id="Grupo_1108807" data-name="Grupo 1108807" transform="translate(-1015.051 -10883)">
        <g id="Elipse_11655" data-name="Elipse 11655" transform="translate(1247.051 8535)" fill="#fff" stroke="#000" stroke-width="2">
          <circle cx="26" cy="26" r="26" stroke="none"/>
          <circle cx="26" cy="26" r="25" fill="none"/>
        </g>
        <path id="Trazado_879014" data-name="Trazado 879014" d="M-1002.051-3055.215h46.027" transform="translate(2251.801 11608)" fill="none" stroke="#000" stroke-width="1"/>
        <path id="Trazado_879015" data-name="Trazado 879015" d="M-978.275-3021v-34.434" transform="translate(2251.826 11608)" fill="none" stroke="#000" stroke-width="1"/>
      </g>
      <g id="Grupo_1108808" data-name="Grupo 1108808" transform="translate(-888.051 -10883)">
        <g id="Elipse_11655-2" data-name="Elipse 11655" transform="translate(1247.051 8535)" fill="#fff" stroke="#000" stroke-width="2">
          <circle cx="26" cy="26" r="26" stroke="none"/>
          <circle cx="26" cy="26" r="25" fill="none"/>
        </g>
        <path id="Trazado_879014-2" data-name="Trazado 879014" d="M-1002.051-3055.215H-956" transform="translate(2251.773 11608)" fill="none" stroke="#000" stroke-width="1"/>
        <path id="Trazado_879015-2" data-name="Trazado 879015" d="M-978.275-3021v-34.434" transform="translate(2251.826 11608)" fill="none" stroke="#000" stroke-width="1"/>
      </g>
      <g id="Grupo_1108809" data-name="Grupo 1108809" transform="translate(-916.051 -10744)">
        <g id="Elipse_11655-3" data-name="Elipse 11655" transform="translate(1247.051 8535)" fill="#fff" stroke="#000" stroke-width="2">
          <circle cx="26" cy="26" r="26" stroke="none"/>
          <circle cx="26" cy="26" r="25" fill="none"/>
        </g>
        <path id="Trazado_879014-3" data-name="Trazado 879014" d="M-1002.051-3055.215h45.227" transform="translate(2252.602 11608)" fill="none" stroke="#000" stroke-width="1"/>
        <path id="Trazado_879015-3" data-name="Trazado 879015" d="M-978.275-3021v-34.434" transform="translate(2251.826 11608)" fill="none" stroke="#000" stroke-width="1"/>
      </g>
      <g id="Grupo_1108810" data-name="Grupo 1108810" transform="translate(-806.051 -10744)">
        <g id="Elipse_11655-4" data-name="Elipse 11655" transform="translate(1247.051 8535)" fill="#fff" stroke="#000" stroke-width="2">
          <circle cx="26" cy="26" r="26" stroke="none"/>
          <circle cx="26" cy="26" r="25" fill="none"/>
        </g>
        <path id="Trazado_879014-4" data-name="Trazado 879014" d="M-1002.051-3055.215h45.977" transform="translate(2251.852 11608)" fill="none" stroke="#000" stroke-width="1"/>
        <path id="Trazado_879015-4" data-name="Trazado 879015" d="M-978.275-3021v-34.434" transform="translate(2251.826 11608)" fill="none" stroke="#000" stroke-width="1"/>
      </g>
      <g id="Grupo_1108813" data-name="Grupo 1108813" transform="translate(-1040.051 -10744)">
        <g id="Elipse_11655-5" data-name="Elipse 11655" transform="translate(1247.051 8535)" fill="#fff" stroke="#000" stroke-width="2">
          <circle cx="26" cy="26" r="26" stroke="none"/>
          <circle cx="26" cy="26" r="25" fill="none"/>
        </g>
        <path id="Trazado_879014-5" data-name="Trazado 879014" d="M-1002.051-3055.215h45.778" transform="translate(2252.051 11608)" fill="none" stroke="#000" stroke-width="1"/>
        <path id="Trazado_879015-5" data-name="Trazado 879015" d="M-978.275-3021v-34.434" transform="translate(2251.826 11608)" fill="none" stroke="#000" stroke-width="1"/>
      </g>
      <circle id="Elipse_11663" data-name="Elipse 11663" cx="4" cy="4" r="4" transform="translate(166 -2326)"/>
      <path id="Trazado_879023" data-name="Trazado 879023" d="M-1193.262-3047h58.484" transform="translate(1364 725)" fill="none" stroke="#000" stroke-width="1"/>
      <path id="Polígono_19" data-name="Polígono 19" d="M4,0,8,7H0Z" transform="translate(231.5 -2326) rotate(90)"/>
      <circle id="Elipse_11664" data-name="Elipse 11664" cx="4" cy="4" r="4" transform="translate(278 -2326)"/>
      <path id="Trazado_879024" data-name="Trazado 879024" d="M-1193.262-3047h72.211" transform="translate(1476 725)" fill="none" stroke="#000" stroke-width="1"/>
      <path id="Polígono_20" data-name="Polígono 20" d="M4,0,8,7H0Z" transform="translate(358.449 -2326) rotate(90)"/>
      <circle id="Elipse_11665" data-name="Elipse 11665" cx="4" cy="4" r="4" transform="translate(253 -2187)"/>
      <path id="Trazado_879025" data-name="Trazado 879025" d="M-1193.262-3047h70.491" transform="translate(1451 864)" fill="none" stroke="#000" stroke-width="1"/>
      <path id="Polígono_21" data-name="Polígono 21" d="M4,0,8,7H0Z" transform="translate(330.949 -2187) rotate(90)"/>
      <circle id="Elipse_11666" data-name="Elipse 11666" cx="4" cy="4" r="4" transform="translate(142 -2187)"/>
      <path id="Trazado_879026" data-name="Trazado 879026" d="M-1193.262-3047h57.322" transform="translate(1340 864)" fill="none" stroke="#000" stroke-width="1"/>
      <path id="Polígono_22" data-name="Polígono 22" d="M4,0,8,7H0Z" transform="translate(207 -2187) rotate(90)"/>
      <circle id="Elipse_11668" data-name="Elipse 11668" cx="4" cy="4" r="4" transform="translate(378 -2186.5)"/>
      <path id="Trazado_879028" data-name="Trazado 879028" d="M-1193.262-3047h55.711" transform="translate(1576 864.5)" fill="none" stroke="#000" stroke-width="1"/>
      <path id="Polígono_24" data-name="Polígono 24" d="M4,0,8,7H0Z" transform="translate(440.949 -2186.5) rotate(90)"/>
      <g id="Grupo_1108806" data-name="Grupo 1108806" transform="translate(-1128.051 -10883)">
        <g id="Elipse_11655-6" data-name="Elipse 11655" transform="translate(1247.051 8535)" fill="#fff" stroke="#000" stroke-width="2">
          <circle cx="26" cy="26" r="26" stroke="none"/>
          <circle cx="26" cy="26" r="25" fill="none"/>
        </g>
        <path id="Trazado_879014-6" data-name="Trazado 879014" d="M-1002.051-3055.215h45.924" transform="translate(2251.905 11608)" fill="none" stroke="#000" stroke-width="1"/>
        <path id="Trazado_879015-6" data-name="Trazado 879015" d="M-978.275-3021v-34.434" transform="translate(2251.826 11608)" fill="none" stroke="#000" stroke-width="1"/>
      </g>
      <g id="Grupo_1108811" data-name="Grupo 1108811" transform="translate(-1150.051 -10744)">
        <g id="Elipse_11655-7" data-name="Elipse 11655" transform="translate(1247.051 8535)" fill="#fff" stroke="#000" stroke-width="2">
          <circle cx="26" cy="26" r="26" stroke="none"/>
          <circle cx="26" cy="26" r="25" fill="none"/>
        </g>
        <path id="Trazado_879014-7" data-name="Trazado 879014" d="M-1002.051-3055.215h45.881" transform="translate(2251.948 11608)" fill="none" stroke="#000" stroke-width="1"/>
        <path id="Trazado_879015-7" data-name="Trazado 879015" d="M-978.275-3021v-34.434" transform="translate(2251.826 11608)" fill="none" stroke="#000" stroke-width="1"/>
      </g>
      <g id="Grupo_1108812" data-name="Grupo 1108812" transform="translate(-1249.051 -10744)">
        <g id="Elipse_11655-8" data-name="Elipse 11655" transform="translate(1247.051 8535)" fill="#fff" stroke="#000" stroke-width="2">
          <circle cx="26" cy="26" r="26" stroke="none"/>
          <circle cx="26" cy="26" r="25" fill="none"/>
        </g>
        <path id="Trazado_879014-8" data-name="Trazado 879014" d="M-1002.051-3055.215h45.9" transform="translate(2251.932 11608)" fill="none" stroke="#000" stroke-width="1"/>
        <path id="Trazado_879015-8" data-name="Trazado 879015" d="M-978.275-3021v-34.434" transform="translate(2251.826 11608)" fill="none" stroke="#000" stroke-width="1"/>
      </g>
      <path id="Polígono_23" data-name="Polígono 23" d="M4,0,8,7H0Z" transform="translate(95.949 -2187) rotate(90)"/>
      <circle id="Elipse_11667" data-name="Elipse 11667" cx="4" cy="4" r="4" transform="translate(43 -2187)"/>
      <path id="Trazado_879027" data-name="Trazado 879027" d="M-1193.262-3047h46" transform="translate(1241 864)" fill="none" stroke="#000" stroke-width="1"/>
      <path id="Polígono_25" data-name="Polígono 25" d="M4,0,8,7H0Z" transform="translate(141.711 -2298.079) rotate(14)"/>
      <circle id="Elipse_11669" data-name="Elipse 11669" cx="4" cy="4" r="4" transform="translate(119.525 -2213)"/>
      <path id="Trazado_879029" data-name="Trazado 879029" d="M-1233.611-3044.5l86.743-.077" transform="translate(3376.36 -2671.013) rotate(-76)" fill="none" stroke="#000" stroke-width="1"/>
      <path id="Polígono_26" data-name="Polígono 26" d="M4,0,8,7H0Z" transform="translate(253.685 -2298.079) rotate(14)"/>
      <circle id="Elipse_11670" data-name="Elipse 11670" cx="4" cy="4" r="4" transform="translate(231.5 -2213)"/>
      <path id="Trazado_879030" data-name="Trazado 879030" d="M-1233.611-3044.5l86.743-.077" transform="translate(3488.335 -2671.014) rotate(-76)" fill="none" stroke="#000" stroke-width="1"/>
      <path id="Polígono_27" data-name="Polígono 27" d="M4,0,8,7H0Z" transform="translate(365.212 -2207.131) rotate(-166)"/>
      <path id="Trazado_879031" data-name="Trazado 879031" d="M-1236.074-3045.827l89.206,1.249" transform="translate(-2869.438 -1834.196) rotate(104)" fill="none" stroke="#000" stroke-width="1"/>
    </g>
    <g id="Grupo_1108814" data-name="Grupo 1108814" transform="translate(52.449 -8612.5)">
      <text id="_12" data-name="12" transform="translate(861.051 9309)" font-size="14" font-family="Roboto-Black, Roboto" font-weight="800"><tspan x="0" y="0">12</tspan></text>
      <text id="_6" data-name="6" transform="translate(627.051 9309)" font-size="14" font-family="Roboto-Black, Roboto" font-weight="800"><tspan x="0" y="0">6</tspan></text>
      <text id="_9" data-name="9" transform="translate(737.051 9309)" font-size="14" font-family="Roboto-Black, Roboto" font-weight="800"><tspan x="0" y="0">9</tspan></text>
      <text id="_4" data-name="4" transform="translate(604.051 9450)" font-size="14" font-family="Roboto-Black, Roboto" font-weight="800"><tspan x="0" y="0">4</tspan></text>
      <text id="_0" data-name="0" transform="translate(505.051 9450)" font-size="14" font-family="Roboto-Black, Roboto" font-weight="800"><tspan x="0" y="0">0</tspan></text>
      <text id="_7" data-name="7" transform="translate(713.051 9450)" font-size="14" font-family="Roboto-Black, Roboto" font-weight="800"><tspan x="0" y="0">7</tspan></text>
      <text id="_13" data-name="13" transform="translate(832.051 9447)" font-size="14" font-family="Roboto-Black, Roboto" font-weight="800"><tspan x="0" y="0">13</tspan></text>
      <text id="_14" data-name="14" transform="translate(940.051 9448)" font-size="14" font-family="Roboto-Black, Roboto" font-weight="800"><tspan x="0" y="0">14</tspan></text>
      <text id="B" transform="translate(604.051 9369)" font-size="14" font-family="Roboto-Black, Roboto" font-weight="800"><tspan x="0" y="0">B</tspan></text>
      <text id="_2" data-name="2" transform="translate(645.051 9369)" font-size="14" font-family="Roboto-Black, Roboto" font-weight="800"><tspan x="0" y="0">2</tspan></text>
      <text id="F" transform="translate(713.051 9369)" font-size="14" font-family="Roboto-Black, Roboto" font-weight="800"><tspan x="0" y="0">F</tspan></text>
      <text id="_2-2" data-name="2" transform="translate(757.051 9369)" font-size="14" font-family="Roboto-Black, Roboto" font-weight="800"><tspan x="0" y="0">2</tspan></text>
      <text id="H" transform="translate(844.051 9369)" font-size="14" font-family="Roboto-Black, Roboto" font-weight="800"><tspan x="0" y="0">H</tspan></text>
      <text id="_1" data-name="1" transform="translate(885.051 9369)" font-size="14" font-family="Roboto-Black, Roboto" font-weight="800"><tspan x="0" y="0">1</tspan></text>
      <text id="C" transform="translate(673.051 9432)" font-size="14" font-family="Roboto-Black, Roboto" font-weight="800"><tspan x="0" y="0">C</tspan></text>
      <text id="C-2" data-name="C" transform="translate(673.051 9432)" font-size="14" font-family="Roboto-Black, Roboto" font-weight="800"><tspan x="0" y="0">C</tspan></text>
      <text id="E" transform="translate(785.051 9432)" font-size="14" font-family="Roboto-Black, Roboto" font-weight="800"><tspan x="0" y="0">E</tspan></text>
      <text id="I" transform="translate(898.051 9432)" font-size="14" font-family="Roboto-Black, Roboto" font-weight="800"><tspan x="0" y="0">I</tspan></text>
      <text id="_1-2" data-name="1" transform="translate(900.051 9458)" font-size="14" font-family="Roboto-Black, Roboto" font-weight="800"><tspan x="0" y="0">1</tspan></text>
      <text id="_4-2" data-name="4" transform="translate(787.051 9457)" font-size="14" font-family="Roboto-Black, Roboto" font-weight="800"><tspan x="0" y="0">4</tspan></text>
      <text id="_3" data-name="3" transform="translate(671.051 9457)" font-size="14" font-family="Roboto-Black, Roboto" font-weight="800"><tspan x="0" y="0">3</tspan></text>
      <text id="_4-3" data-name="4" transform="translate(557.051 9457)" font-size="14" font-family="Roboto-Black, Roboto" font-weight="800"><tspan x="0" y="0">4</tspan></text>
      <text id="A" transform="translate(557.051 9431)" font-size="14" font-family="Roboto-Black, Roboto" font-weight="800"><tspan x="0" y="0">A</tspan></text>
      <text id="D" transform="translate(688.051 9294)" font-size="14" font-family="Roboto-Black, Roboto" font-weight="800"><tspan x="0" y="0">D</tspan></text>
      <text id="G" transform="translate(810.051 9294)" font-size="14" font-family="Roboto-Black, Roboto" font-weight="800"><tspan x="0" y="0">G</tspan></text>
      <text id="Nodo_2" data-name="Nodo 2" transform="translate(630.051 9288)" font-size="8" font-family="Roboto-Black, Roboto" font-weight="800"><tspan x="0" y="0">Nodo 2</tspan></text>
      <text id="Nodo_4" data-name="Nodo 4" transform="translate(741.051 9288)" font-size="8" font-family="Roboto-Black, Roboto" font-weight="800"><tspan x="0" y="0">Nodo 4</tspan></text>
      <text id="Nodo_5" data-name="Nodo 5" transform="translate(866.051 9288)" font-size="8" font-family="Roboto-Black, Roboto" font-weight="800"><tspan x="0" y="0">Nodo 5</tspan></text>
      <text id="Nodo_7" data-name="Nodo 7" transform="translate(945.051 9428)" font-size="8" font-family="Roboto-Black, Roboto" font-weight="800"><tspan x="0" y="0">Nodo 7</tspan></text>
      <text id="Nodo_6" data-name="Nodo 6" transform="translate(838.051 9428)" font-size="8" font-family="Roboto-Black, Roboto" font-weight="800"><tspan x="0" y="0">Nodo 6</tspan></text>
      <text id="Nodo_3" data-name="Nodo 3" transform="translate(714.051 9428)" font-size="8" font-family="Roboto-Black, Roboto" font-weight="800"><tspan x="0" y="0">Nodo 3</tspan></text>
      <text id="Nodo_1" data-name="Nodo 1" transform="translate(605.051 9428)" font-size="8" font-family="Roboto-Black, Roboto" font-weight="800"><tspan x="0" y="0">Nodo 1</tspan></text>
      <text id="Nodo_0" data-name="Nodo 0" transform="translate(507.051 9428)" font-size="8" font-family="Roboto-Black, Roboto" font-weight="800"><tspan x="0" y="0">Nodo 0</tspan></text>
    </g>
  </g>
</svg>
