<svg xmlns="http://www.w3.org/2000/svg" width="315" height="99" viewBox="0 0 315 99">
  <g id="Grupo_1110241" data-name="Grupo 1110241" transform="translate(-1020.05 -3858.187)">
    <text id="Fuente:_SENA_LP_Risaralda_2014_." data-name="Fuente:(SENA – LP Risaralda, 2014)." transform="translate(1035.051 3937.187)" fill="#12263f" font-size="16" font-family="Roboto-Regular, Roboto"><tspan x="0" y="15">Fuente:(SENA – LP Risaralda, 2014).</tspan></text>
    <g id="Grupo_1108807" data-name="Grupo 1108807" transform="translate(1019.651 3858.163)">
      <g id="Elipse_11655" data-name="Elipse 11655" transform="translate(0.399 0.024)" fill="#fff" stroke="#000" stroke-width="2">
        <circle cx="34" cy="34" r="34" stroke="none"/>
        <circle cx="34" cy="34" r="33" fill="none"/>
      </g>
    </g>
    <g id="Grupo_1108846" data-name="Grupo 1108846" transform="translate(1246.652 3858.163)">
      <g id="Elipse_11655-2" data-name="Elipse 11655" transform="translate(0.399 0.024)" fill="#fff" stroke="#000" stroke-width="2">
        <circle cx="34" cy="34" r="34" stroke="none"/>
        <circle cx="34" cy="34" r="33" fill="none"/>
      </g>
    </g>
    <g id="Grupo_1108824" data-name="Grupo 1108824" transform="translate(665.051 5235.187)">
      <circle id="Elipse_11666" data-name="Elipse 11666" cx="4" cy="4" r="4" transform="translate(419 -1348)"/>
      <path id="Trazado_879026" data-name="Trazado 879026" d="M-1193.262-3047h152.316" transform="translate(1617 1703)" fill="none" stroke="#000" stroke-width="1"/>
      <path id="Polígono_22" data-name="Polígono 22" d="M4,0,8,7H0Z" transform="translate(579 -1348) rotate(90)"/>
    </g>
    <text id="_1_" data-name="1
" transform="translate(1047.051 3899.187)" font-size="20" font-family="Roboto-Black, Roboto" font-weight="800"><tspan x="0" y="0">1</tspan><tspan x="0" y="24"></tspan></text>
    <text id="_2" data-name="2" transform="translate(1276.051 3898.187)" font-size="20" font-family="Roboto-Black, Roboto" font-weight="800"><tspan x="0" y="0">2</tspan></text>
    <text id="Tarea" transform="translate(1139.051 3884.187)" font-size="20" font-family="Roboto-Black, Roboto" font-weight="800"><tspan x="0" y="0">Tarea</tspan></text>
  </g>
</svg>
