<svg xmlns="http://www.w3.org/2000/svg" width="117.066" height="117.066" viewBox="0 0 117.066 117.066"><path d="M117.586,67.512h-6.293V64.871a3.274,3.274,0,0,0-6.548,0v2.641H84.485V20.022a4.234,4.234,0,0,0-4.216-4.243H63.041a3.185,3.185,0,0,0-3.117-2.613h-1.4V11.227A5.219,5.219,0,0,0,53.321,6H37.473a5.233,5.233,0,0,0-5.227,5.227v1.939H30.869a3.205,3.205,0,0,0-3.144,2.613H10.215A4.234,4.234,0,0,0,6,20.022v94.642a4.22,4.22,0,0,0,4.215,4.215H51.789a5.457,5.457,0,0,0,5.3,4.187h60.5a5.472,5.472,0,0,0,5.48-5.452V72.963A5.472,5.472,0,0,0,117.586,67.512Zm-9.975-2.641a.41.41,0,0,1,.393-.394.414.414,0,0,1,.421.394v6.294h-.815Zm-1.433,9.161h3.681a1.434,1.434,0,0,0,1.433-1.433V70.379h6.294a2.6,2.6,0,0,1,2.614,2.585v5.592H54.5V72.963a2.588,2.588,0,0,1,2.585-2.585h6.323V72.6a1.433,1.433,0,0,0,1.433,1.433H68.5A1.434,1.434,0,0,0,69.929,72.6V70.379h34.816V72.6A1.433,1.433,0,0,0,106.178,74.031ZM67.007,64.679a1.5,1.5,0,0,0,.049.161c0,.011.006.02.006.031v6.294h-.786V64.871a.389.389,0,0,1,.393-.394A.385.385,0,0,1,67.007,64.679ZM81.618,20.022v47.49h-3.2V18.646h1.854a1.365,1.365,0,0,1,1.349,1.377ZM30.532,16.369a.329.329,0,0,1,.337-.337h2.81A1.434,1.434,0,0,0,35.112,14.6V11.227a2.392,2.392,0,0,1,2.361-2.361H53.321a2.349,2.349,0,0,1,2.332,2.361V14.6a1.434,1.434,0,0,0,1.433,1.434h2.838a.324.324,0,0,1,.309.337v7.615a.324.324,0,0,1-.309.337H30.869a.329.329,0,0,1-.337-.337V16.369Zm-2.866,2.276v5.339a3.207,3.207,0,0,0,3.2,3.2H59.925a3.193,3.193,0,0,0,3.176-3.2V18.646H75.549V67.512h-5.62V65.826h1.264a1.433,1.433,0,0,0,0-2.866H69.3a3.236,3.236,0,0,0-5.257,0H48.572a1.433,1.433,0,0,0,0,2.866H63.409v1.686H57.087a5.422,5.422,0,0,0-3.578,1.349H43.458a1.433,1.433,0,0,0,0,2.866h8.323a5.46,5.46,0,0,0-.146,1.236v16.3H48.572a1.433,1.433,0,0,0,0,2.867h3.063v3.034H43.458a1.433,1.433,0,0,0,0,2.867h8.177v11.914h-36.7v-91.3Zm-18.8,96.019V20.022a1.364,1.364,0,0,1,1.349-1.377H12.07v92.731A1.434,1.434,0,0,0,13.5,112.81H51.635v3.2H10.215a1.335,1.335,0,0,1-1.349-1.349Zm45.635,2.95v-5.25l7.836,7.835H57.087A2.588,2.588,0,0,1,54.5,117.615Zm9.161-9.8v-3.124h5.17v5.17H66.286A5.474,5.474,0,0,0,63.662,107.813Zm-1.883,2.524a2.588,2.588,0,0,1,2.585,2.585v5.251l-7.836-7.836Zm55.807,9.863H67.231v-7.278c0-.066-.008-.131-.01-.2h3.045a1.433,1.433,0,0,0,1.433-1.433v-8.037a1.434,1.434,0,0,0-1.433-1.433H62.229a1.433,1.433,0,0,0-1.433,1.433v4.215H54.5V81.422h65.7v36.193a2.6,2.6,0,0,1-2.614,2.585ZM84.316,86.086H76.279a1.433,1.433,0,0,0-1.433,1.433v8.036a1.434,1.434,0,0,0,1.433,1.433h8.036a1.433,1.433,0,0,0,1.433-1.433V87.519A1.433,1.433,0,0,0,84.316,86.086Zm-1.433,8.036h-5.17v-5.17h5.17Zm15.512-8.036H90.357a1.434,1.434,0,0,0-1.433,1.433v8.036a1.434,1.434,0,0,0,1.433,1.433h8.037a1.434,1.434,0,0,0,1.433-1.433V87.519A1.434,1.434,0,0,0,98.394,86.086Zm-1.433,8.036H91.79v-5.17h5.171Zm15.484-8.036h-8.037a1.433,1.433,0,0,0-1.433,1.433v8.036a1.433,1.433,0,0,0,1.433,1.433h8.037a1.434,1.434,0,0,0,1.433-1.433V87.519A1.433,1.433,0,0,0,112.444,86.086Zm-1.433,8.036h-5.17v-5.17h5.17Zm-26.7,7.7H76.279a1.434,1.434,0,0,0-1.433,1.433v8.037a1.433,1.433,0,0,0,1.433,1.433h8.036a1.433,1.433,0,0,0,1.433-1.433v-8.037A1.433,1.433,0,0,0,84.316,101.822Zm-1.433,8.037h-5.17v-5.17h5.17Zm15.512-8.037H90.357a1.434,1.434,0,0,0-1.433,1.433v8.037a1.434,1.434,0,0,0,1.433,1.433h8.037a1.434,1.434,0,0,0,1.433-1.433v-8.037A1.434,1.434,0,0,0,98.394,101.822Zm-1.433,8.037H91.79v-5.17h5.171Zm15.484-8.037h-8.037a1.433,1.433,0,0,0-1.433,1.433v8.037a1.433,1.433,0,0,0,1.433,1.433h8.037a1.434,1.434,0,0,0,1.433-1.433v-8.037A1.433,1.433,0,0,0,112.444,101.822Zm-1.433,8.037h-5.17v-5.17h5.17Zm-90.624-6.8H36.377a1.434,1.434,0,0,0,1.433-1.433V85.637A1.434,1.434,0,0,0,36.377,84.2H20.387a1.433,1.433,0,0,0-1.433,1.433v15.989a1.434,1.434,0,0,0,1.433,1.433ZM21.821,87.07H34.943v13.123H21.821ZM20.387,50.456H36.377a1.434,1.434,0,0,0,1.433-1.433V33.033A1.434,1.434,0,0,0,36.377,31.6H20.387a1.433,1.433,0,0,0-1.433,1.433V49.022a1.434,1.434,0,0,0,1.433,1.433Zm1.433-15.989H34.943V47.589H21.821Zm11.707,3.442-5.62,7.924a1.432,1.432,0,0,1-1.053.6c-.039,0-.077,0-.116,0a1.434,1.434,0,0,1-1.019-.426L23.386,43.65a1.433,1.433,0,0,1,2.039-2.014l1.132,1.145,4.633-6.531a1.433,1.433,0,0,1,2.338,1.658ZM20.387,76.757H36.377a1.433,1.433,0,0,0,1.433-1.433V59.335A1.434,1.434,0,0,0,36.377,57.9H20.387a1.433,1.433,0,0,0-1.433,1.433V75.324a1.433,1.433,0,0,0,1.433,1.433Zm1.433-15.989H34.943V73.891H21.821ZM47.139,38.091a1.433,1.433,0,0,1,1.433-1.433H71.193a1.433,1.433,0,0,1,0,2.866H48.572A1.433,1.433,0,0,1,47.139,38.091Zm-5.114,5.9a1.433,1.433,0,0,1,1.433-1.433H71.193a1.433,1.433,0,0,1,0,2.867H43.458A1.434,1.434,0,0,1,42.025,43.992Zm-8.5,20.219-5.62,7.924a1.433,1.433,0,0,1-1.053.6c-.039,0-.077,0-.116,0a1.434,1.434,0,0,1-1.019-.426l-2.332-2.36a1.433,1.433,0,0,1,2.039-2.015l1.132,1.145,4.633-6.531a1.433,1.433,0,0,1,2.338,1.659Zm0,26.3-5.62,7.9a1.43,1.43,0,0,1-1.048.6c-.04,0-.08.005-.12.005a1.435,1.435,0,0,1-1.014-.42L23.392,96.26a1.433,1.433,0,0,1,2.027-2.027l1.134,1.134,4.638-6.516a1.433,1.433,0,0,1,2.335,1.663Z" transform="translate(-6 -6)"/></svg>