<svg xmlns="http://www.w3.org/2000/svg" width="93" height="94" viewBox="0 0 93 94"><g transform="translate(-597.458 -8335.6)"><ellipse cx="46.5" cy="47" rx="46.5" ry="47" transform="translate(597.458 8335.6)" fill="#e69999"/><g transform="translate(613.943 8355.572)"><path d="M31.6,30.579a8.017,8.017,0,1,0,2.386,5.707A8.067,8.067,0,0,0,31.6,30.579ZM30.332,40.724a6.277,6.277,0,1,1,0-8.878,6.277,6.277,0,0,1,0,8.878Z" transform="translate(-1.428 -2.501)"/><path d="M53.325,49.18V16.9a.9.9,0,0,0-.9-.9H47.944a.9.9,0,0,0-.9.9V49.18H45.254V30.348a.9.9,0,0,0-.9-.9H39.873a.9.9,0,0,0-.9.9V49.18H37.183V25.864a.9.9,0,0,0-.9-.9H31.8a.9.9,0,0,0-.9.9v.55A10.747,10.747,0,0,0,15.2,40.477L4.812,50.878a2.691,2.691,0,1,0,3.806,3.806l10.4-10.4a10.715,10.715,0,0,0,11.891-.655V49.18H27.318a.9.9,0,1,0,0,1.794H53.325a.9.9,0,0,0,0-1.794ZM14.956,45.8l-1.269-1.269.634-.634L15.59,45.17ZM7.35,53.416a.911.911,0,0,1-1.27,0,.9.9,0,0,1,0-1.27L12.419,45.8l1.272,1.272ZM16.861,43.9l-1.273-1.273.666-.667c.193.228.39.454.6.67s.441.411.669.6Zm1.266-2.539a8.968,8.968,0,1,1,12.682,0A8.968,8.968,0,0,1,18.127,41.366ZM32.7,49.18V41.946a10.77,10.77,0,0,0,0-13.843V26.761h2.69V49.18Zm8.071,0V31.245h2.69V49.18Zm8.071,0V17.794h2.69V49.18Z" transform="translate(-0.003 -1.24)"/><path d="M25.69,17.45A2.69,2.69,0,1,0,28.169,19.1l6.124-5.562a2.592,2.592,0,0,0,2.414.059l2.7,2.7a2.66,2.66,0,0,0-.27,1.153,2.69,2.69,0,1,0,5.16-1.062L52.246,9.06a2.656,2.656,0,0,0,1.245.32,2.7,2.7,0,1,0-2.47-1.628l-7.943,7.329a2.591,2.591,0,0,0-2.4-.05l-2.7-2.7a2.66,2.66,0,0,0,.27-1.153,2.69,2.69,0,1,0-5.169,1.045l-6.124,5.561A2.656,2.656,0,0,0,25.69,17.45Zm0,3.587a.9.9,0,1,1,.633-1.531c.009.011.011.025.021.035l.006,0a.886.886,0,0,1,.237.595.9.9,0,0,1-.9.9ZM53.49,5.792a.9.9,0,1,1-.629,1.534c-.009-.011-.011-.024-.021-.035l-.01-.007a.887.887,0,0,1-.237-.6.9.9,0,0,1,.9-.9ZM42.461,16.813c.009.011.011.024.021.035l.01.007a.886.886,0,0,1,.237.6.9.9,0,1,1-1.537-.624l.01-.007.007-.01a.89.89,0,0,1,1.253,0Zm-6.906-6.537A.894.894,0,0,1,36.2,11.8l-.01.007-.007.01a.891.891,0,0,1-1.257-.006c-.009-.011-.012-.025-.022-.036l-.007-.005a.886.886,0,0,1-.236-.594.9.9,0,0,1,.9-.9Z" transform="translate(-1.962)"/><path d="M14.9,12.077h6.977a.9.9,0,0,0,.874-1.1,8.96,8.96,0,0,0-7.753-6.916.886.886,0,0,0-.7.224.9.9,0,0,0-.3.667V11.18A.9.9,0,0,0,14.9,12.077Zm.9-6.048a7.17,7.17,0,0,1,4.862,4.254H15.794Z" transform="translate(-1.032 -0.007)"/><path d="M12.968,21.958a8.939,8.939,0,0,0,8.909-7.974.9.9,0,0,0-.891-.994H12.071V5.117a.9.9,0,0,0-1.1-.874,8.97,8.97,0,0,0,1.992,17.716ZM10.277,6.336v7.551a.9.9,0,0,0,.9.9h8.74a7.175,7.175,0,1,1-9.637-8.448Z" transform="translate(0 -0.024)"/><circle cx="0.897" cy="0.897" r="0.897" transform="translate(20.142 32.695)"/><circle cx="0.897" cy="0.897" r="0.897" transform="translate(23.729 32.695)"/><circle cx="0.897" cy="0.897" r="0.897" transform="translate(27.316 32.695)"/></g></g></svg>