<svg xmlns="http://www.w3.org/2000/svg" width="308" height="258" viewBox="0 0 308 258">
  <g id="Grupo_1110243" data-name="Grupo 1110243" transform="translate(-9854 7431)">
    <text id="Fuente:_SENA_LP_Risaralda_2014_." data-name="Fuente:(SENA – LP Risaralda, 2014)." transform="translate(9858 -7206)" fill="#12263f" font-size="16" font-family="Roboto-Regular, Roboto"><tspan x="0" y="15">Fuente:(SENA – LP Risaralda, 2014).</tspan></text>
    <g id="Grupo_1108847" data-name="Grupo 1108847" transform="translate(10146 -7242) rotate(180)">
      <g id="Elipse_11655" data-name="Elipse 11655" transform="translate(0 0)" fill="#fff" stroke="#000" stroke-width="2">
        <circle cx="23" cy="23" r="23" stroke="none"/>
        <circle cx="23" cy="23" r="22" fill="none"/>
      </g>
    </g>
    <g id="Grupo_1108851" data-name="Grupo 1108851" transform="translate(10146 -7385) rotate(180)">
      <g id="Elipse_11655-2" data-name="Elipse 11655" transform="translate(0 0)" fill="#fff" stroke="#000" stroke-width="2">
        <circle cx="23" cy="23" r="23" stroke="none"/>
        <circle cx="23" cy="23" r="22" fill="none"/>
      </g>
    </g>
    <g id="Grupo_1108852" data-name="Grupo 1108852" transform="translate(10034 -7316) rotate(180)">
      <g id="Elipse_11655-3" data-name="Elipse 11655" transform="translate(0 0)" fill="#fff" stroke="#000" stroke-width="2">
        <circle cx="23" cy="23" r="23" stroke="none"/>
        <circle cx="23" cy="23" r="22" fill="none"/>
      </g>
    </g>
    <g id="Grupo_1108853" data-name="Grupo 1108853" transform="translate(9900 -7316) rotate(180)">
      <g id="Elipse_11655-4" data-name="Elipse 11655" transform="translate(0 0)" fill="#fff" stroke="#000" stroke-width="2">
        <circle cx="23" cy="23" r="23" stroke="none"/>
        <circle cx="23" cy="23" r="22" fill="none"/>
      </g>
    </g>
    <text id="_11_" data-name="11
" transform="translate(10115 -7405)" font-size="13" font-family="Roboto-Black, Roboto" font-weight="800"><tspan x="0" y="0">11</tspan><tspan x="0" y="16"></tspan></text>
    <text id="F" transform="translate(10061 -7289)" font-size="13" font-family="Roboto-Black, Roboto" font-weight="800"><tspan x="0" y="0">F</tspan></text>
    <text id="D" transform="translate(9939 -7325)" font-size="13" font-family="Roboto-Black, Roboto" font-weight="800"><tspan x="0" y="0">D</tspan></text>
    <g id="Grupo_1108854" data-name="Grupo 1108854" transform="translate(10107.704 -7276.618) rotate(180)">
      <circle id="Elipse_11666" data-name="Elipse 11666" cx="2.5" cy="2.5" r="2.5" transform="translate(69.704 43.382)"/>
      <path id="Trazado_879026" data-name="Trazado 879026" d="M-1190.575-3045.33l67.953,42.442" transform="translate(1196.468 3049.706)" fill="none" stroke="#000" stroke-width="1"/>
      <path id="Polígono_22" data-name="Polígono 22" d="M2.5,0,5,5H0Z" transform="matrix(0.574, -0.819, 0.819, 0.574, 1.723, 4.79)"/>
      <circle id="Elipse_11671" data-name="Elipse 11671" cx="2.5" cy="2.5" r="2.5" transform="translate(73.204 75.25)"/>
      <path id="Trazado_879041" data-name="Trazado 879041" d="M-1190.82-3048.054l70.2-35.9" transform="translate(1195.827 3161.706)" fill="none" stroke="#000" stroke-width="1"/>
    </g>
    <path id="Polígono_28" data-name="Polígono 28" d="M2.5,0,5,5H0Z" transform="matrix(0.438, 0.899, -0.899, 0.438, 10104.809, -7393.913)"/>
    <g id="Grupo_1108855" data-name="Grupo 1108855" transform="translate(9897.296 -7342.382)">
      <circle id="Elipse_11666-2" data-name="Elipse 11666" cx="2.5" cy="2.5" r="2.5" transform="translate(0.704 0.382)"/>
      <path id="Trazado_879026-2" data-name="Trazado 879026" d="M-1193.262-3047h85.041" transform="translate(1196.467 3049.882)" fill="none" stroke="#000" stroke-width="1"/>
      <path id="Polígono_22-2" data-name="Polígono 22" d="M3.5,0,7,5H0Z" transform="translate(90.704 -0.618) rotate(90)"/>
    </g>
    <text id="_12_" data-name="12
" transform="translate(10115 -7259)" font-size="13" font-family="Roboto-Black, Roboto" font-weight="800"><tspan x="0" y="0">12</tspan><tspan x="0" y="16"></tspan></text>
    <text id="_10_" data-name="10
" transform="translate(10003 -7333)" font-size="13" font-family="Roboto-Black, Roboto" font-weight="800"><tspan x="0" y="0">10</tspan><tspan x="0" y="16"></tspan></text>
    <text id="_9_" data-name="9
" transform="translate(9873 -7333)" font-size="13" font-family="Roboto-Black, Roboto" font-weight="800"><tspan x="0" y="0">9</tspan><tspan x="0" y="16"></tspan></text>
    <text id="E" transform="translate(10058 -7377)" font-size="13" font-family="Roboto-Black, Roboto" font-weight="800"><tspan x="0" y="0">E</tspan></text>
    <text id="Suceso_final." data-name="Suceso final." transform="translate(9858 -7232)" fill="#12263f" font-size="14" font-family="Roboto-Regular, Roboto"><tspan x="0" y="13">Suceso final.</tspan></text>
  </g>
</svg>
