<svg xmlns="http://www.w3.org/2000/svg" width="93" height="94" viewBox="0 0 93 94"><g transform="translate(-557.458 -8058.337)"><ellipse cx="46.5" cy="47" rx="46.5" ry="47" transform="translate(557.458 8058.337)" fill="#e69999"/><g transform="translate(577.051 8075.903)"><path d="M50.985,37.91h-3.03V34.34a.83.83,0,0,0-.83-.83H37.44a.83.83,0,0,0-.83.83v3.57H16.388V35.828h1.876a.83.83,0,0,0,.83-.83V20.776a.83.83,0,0,0-.83-.83H16.388V15.984a5.2,5.2,0,1,0-5.388,0v3.959H9.12a.83.83,0,0,0-.83.83V35a.83.83,0,0,0,.83.83H11v2.081H2.83a.83.83,0,0,0-.83.83V50.8a.83.83,0,0,0,.83.83H50.985a.83.83,0,0,0,.83-.83V38.74A.83.83,0,0,0,50.985,37.91ZM9.951,26.256h7.483v3.263H9.951ZM13.693,8.01a3.539,3.539,0,1,1-3.539,3.538A3.539,3.539,0,0,1,13.693,8.01Zm-1.032,8.635a5.175,5.175,0,0,0,2.067,0v3.3H12.661Zm-.836,4.963h5.609V24.6H9.951V21.608ZM9.951,31.18h7.483v2.989H9.951Zm4.776,4.649v2.08H12.661V35.828Zm23.543-.664h8.024V37.9H38.27Zm11.885,14.8H3.661V39.57H50.155Z" transform="translate(0 -0.547)"/><path d="M43.464,51.625H14.217a.83.83,0,1,0,0,1.661H43.464a.83.83,0,1,0,0-1.661Z" transform="translate(-1.933 -8.234)"/><path d="M30.069,3.115A3.448,3.448,0,0,0,26.625,6.56V21.338a3.447,3.447,0,0,0,3.444,3.444h4.249a.459.459,0,0,1,.4.228l2.554,4.424a.83.83,0,0,0,1.439,0l2.554-4.424a.457.457,0,0,1,.4-.228H45.9a3.448,3.448,0,0,0,3.444-3.444V6.56A3.448,3.448,0,0,0,45.9,3.115ZM47.688,6.56V21.338A1.785,1.785,0,0,1,45.9,23.122H41.655a2.121,2.121,0,0,0-1.833,1.059l-1.835,3.182-1.835-3.179a2.124,2.124,0,0,0-1.833-1.059h-4.25a1.785,1.785,0,0,1-1.783-1.783V6.56a1.786,1.786,0,0,1,1.783-1.784H45.9A1.786,1.786,0,0,1,47.688,6.56Z" transform="translate(-4.18)"/><path d="M40.851,8.134a.83.83,0,0,0-1.079.793v4.217a.682.682,0,0,1-1.365,0V8.93a.83.83,0,0,0-1.079-.793A5.954,5.954,0,0,0,35.987,18.9l-.182,2.248a1.623,1.623,0,0,0,1.617,1.754h3.328a1.624,1.624,0,0,0,1.617-1.754L42.187,18.9a5.953,5.953,0,0,0-1.336-10.77Zm.108,9.548a.83.83,0,0,0-.465.814l.262,2.744-3.291.041.226-2.785a.83.83,0,0,0-.466-.814,4.295,4.295,0,0,1-.477-7.461v2.92a2.343,2.343,0,1,0,4.686,0V10.224a4.293,4.293,0,0,1-.476,7.461Z" transform="translate(-5.285 -0.845)"/></g></g></svg>