<svg xmlns="http://www.w3.org/2000/svg" width="308" height="251" viewBox="0 0 308 251">
  <g id="Grupo_1110242" data-name="Grupo 1110242" transform="translate(-9854 7917)">
    <text id="Fuente:_SENA_LP_Risaralda_2014_." data-name="Fuente:(SENA – LP Risaralda, 2014)." transform="translate(9858 -7691)" fill="#12263f" font-size="16" font-family="Roboto-Regular, Roboto"><tspan x="0" y="15">Fuente:(SENA – LP Risaralda, 2014).</tspan></text>
    <g id="Grupo_1108856" data-name="Grupo 1108856" transform="translate(9181 -1012)">
      <text id="Suceso_inicial." data-name="Suceso inicial." transform="translate(681 -6714)" fill="#12263f" font-size="14" font-family="Roboto-Regular, Roboto"><tspan x="0" y="13">Suceso inicial.</tspan></text>
      <g id="Grupo_1108847" data-name="Grupo 1108847" transform="translate(673 -6905)">
        <g id="Elipse_11655" data-name="Elipse 11655" transform="translate(0 0)" fill="#fff" stroke="#000" stroke-width="2">
          <circle cx="23" cy="23" r="23" stroke="none"/>
          <circle cx="23" cy="23" r="22" fill="none"/>
        </g>
      </g>
      <text id="_6_" data-name="6
" transform="translate(691 -6877)" font-size="13" font-family="Roboto-Black, Roboto" font-weight="800"><tspan x="0" y="0">6</tspan><tspan x="0" y="16"></tspan></text>
      <text id="A" transform="translate(746 -6853)" font-size="13" font-family="Roboto-Black, Roboto" font-weight="800"><tspan x="0" y="0">A</tspan></text>
      <g id="Grupo_1108850" data-name="Grupo 1108850" transform="translate(673 -6831)">
        <g id="Elipse_11655-2" data-name="Elipse 11655" transform="translate(0 0)" fill="#fff" stroke="#000" stroke-width="2">
          <circle cx="23" cy="23" r="23" stroke="none"/>
          <circle cx="23" cy="23" r="22" fill="none"/>
        </g>
      </g>
      <text id="_7_" data-name="7
" transform="translate(691 -6803)" font-size="13" font-family="Roboto-Black, Roboto" font-weight="800"><tspan x="0" y="0">7</tspan><tspan x="0" y="16"></tspan></text>
      <g id="Grupo_1108851" data-name="Grupo 1108851" transform="translate(673 -6762)">
        <g id="Elipse_11655-3" data-name="Elipse 11655" transform="translate(0 0)" fill="#fff" stroke="#000" stroke-width="2">
          <circle cx="23" cy="23" r="23" stroke="none"/>
          <circle cx="23" cy="23" r="22" fill="none"/>
        </g>
      </g>
      <text id="_8_" data-name="8
" transform="translate(691 -6734)" font-size="13" font-family="Roboto-Black, Roboto" font-weight="800"><tspan x="0" y="0">8</tspan><tspan x="0" y="16"></tspan></text>
      <g id="Grupo_1108852" data-name="Grupo 1108852" transform="translate(785 -6831)">
        <g id="Elipse_11655-4" data-name="Elipse 11655" transform="translate(0 0)" fill="#fff" stroke="#000" stroke-width="2">
          <circle cx="23" cy="23" r="23" stroke="none"/>
          <circle cx="23" cy="23" r="22" fill="none"/>
        </g>
      </g>
      <text id="_9_" data-name="9
" transform="translate(803 -6803)" font-size="13" font-family="Roboto-Black, Roboto" font-weight="800"><tspan x="0" y="0">9</tspan><tspan x="0" y="16"></tspan></text>
      <g id="Grupo_1108853" data-name="Grupo 1108853" transform="translate(919 -6831)">
        <g id="Elipse_11655-5" data-name="Elipse 11655" transform="translate(0 0)" fill="#fff" stroke="#000" stroke-width="2">
          <circle cx="23" cy="23" r="23" stroke="none"/>
          <circle cx="23" cy="23" r="22" fill="none"/>
        </g>
      </g>
      <text id="_10_" data-name="10
" transform="translate(935 -6803)" font-size="13" font-family="Roboto-Black, Roboto" font-weight="800"><tspan x="0" y="0">10</tspan><tspan x="0" y="16"></tspan></text>
      <text id="B" transform="translate(746 -6794)" font-size="13" font-family="Roboto-Black, Roboto" font-weight="800"><tspan x="0" y="0">B</tspan></text>
      <text id="C" transform="translate(755 -6757)" font-size="13" font-family="Roboto-Black, Roboto" font-weight="800"><tspan x="0" y="0">C</tspan></text>
      <text id="D" transform="translate(867 -6812)" font-size="13" font-family="Roboto-Black, Roboto" font-weight="800"><tspan x="0" y="0">D</tspan></text>
      <g id="Grupo_1108849" data-name="Grupo 1108849" transform="translate(716.296 -6810.382)">
        <circle id="Elipse_11666" data-name="Elipse 11666" cx="2.5" cy="2.5" r="2.5" transform="translate(0.704 0.382)"/>
        <path id="Trazado_879026" data-name="Trazado 879026" d="M-1193.262-3047h63.041" transform="translate(1196.468 3049.706)" fill="none" stroke="#000" stroke-width="1"/>
        <path id="Polígono_22" data-name="Polígono 22" d="M2.5,0,5,5H0Z" transform="translate(68.704 0.382) rotate(90)"/>
      </g>
      <g id="Grupo_1108854" data-name="Grupo 1108854" transform="translate(711.296 -6870.382)">
        <circle id="Elipse_11666-2" data-name="Elipse 11666" cx="2.5" cy="2.5" r="2.5" transform="translate(0.704 0.382)"/>
        <path id="Trazado_879026-2" data-name="Trazado 879026" d="M-1193.262-3047l70.64,44.112" transform="translate(1196.468 3049.706)" fill="none" stroke="#000" stroke-width="1"/>
        <path id="Polígono_22-2" data-name="Polígono 22" d="M2.5,0,5,5H0Z" transform="translate(76.675 46.144) rotate(124)"/>
        <path id="Trazado_879040" data-name="Trazado 879040" d="M-1193.262-3047l70.64,44.112" transform="translate(1196.468 3049.706)" fill="none" stroke="#000" stroke-width="1"/>
        <circle id="Elipse_11671" data-name="Elipse 11671" cx="2.5" cy="2.5" r="2.5" transform="translate(0.064 112.382)"/>
        <path id="Trazado_879041" data-name="Trazado 879041" d="M-1193.262-3047l72.638-36.956" transform="translate(1195.827 3161.706)" fill="none" stroke="#000" stroke-width="1"/>
      </g>
      <path id="Polígono_28" data-name="Polígono 28" d="M2.5,0,5,5H0Z" transform="translate(787.355 -6795.861) rotate(59)"/>
      <g id="Grupo_1108855" data-name="Grupo 1108855" transform="translate(828.296 -6810.382)">
        <circle id="Elipse_11666-3" data-name="Elipse 11666" cx="2.5" cy="2.5" r="2.5" transform="translate(0.704 0.382)"/>
        <path id="Trazado_879026-3" data-name="Trazado 879026" d="M-1193.262-3047h85.041" transform="translate(1196.467 3049.882)" fill="none" stroke="#000" stroke-width="1"/>
        <path id="Polígono_22-3" data-name="Polígono 22" d="M3.5,0,7,5H0Z" transform="translate(90.704 -0.618) rotate(90)"/>
      </g>
    </g>
  </g>
</svg>
