<svg xmlns="http://www.w3.org/2000/svg" width="1030" height="291" viewBox="0 0 1030 291"><g transform="translate(-285 -7156.746)"><rect width="1030" height="291" transform="translate(285 7156.746)" fill="#b0c0d2"/><g transform="translate(3757.051 10397.262)"><g transform="translate(-4367.051 -11748.516)"><circle cx="26" cy="26" r="26" transform="translate(1247.051 8535)" fill="#fff"/><path d="M26,2a24.007,24.007,0,0,0-9.341,46.115A24.007,24.007,0,0,0,35.341,3.885,23.848,23.848,0,0,0,26,2m0-2A26,26,0,1,1,0,26,26,26,0,0,1,26,0Z" transform="translate(1247.051 8535)"/><path d="M-955.668-3054.715h-46.383v-1h46.383Z" transform="translate(2251.445 11608)"/><path d="M-977.775-3021h-1v-34.434h1Z" transform="translate(2251.826 11608)"/></g><g transform="translate(-4254.051 -11748.516)"><circle cx="26" cy="26" r="26" transform="translate(1247.051 8535)" fill="#fff"/><path d="M26,2a24.007,24.007,0,0,0-9.341,46.115A24.007,24.007,0,0,0,35.341,3.885,23.848,23.848,0,0,0,26,2m0-2A26,26,0,1,1,0,26,26,26,0,0,1,26,0Z" transform="translate(1247.051 8535)"/><path d="M-956.168-3054.715h-45.882v-1h45.882Z" transform="translate(2251.946 11608)"/><path d="M-977.775-3021h-1v-34.434h1Z" transform="translate(2251.826 11608)"/></g><g transform="translate(-4127.051 -11748.516)"><circle cx="26" cy="26" r="26" transform="translate(1247.051 8535)" fill="#fff"/><path d="M26,2a24.007,24.007,0,0,0-9.341,46.115A24.007,24.007,0,0,0,35.341,3.885,23.848,23.848,0,0,0,26,2m0-2A26,26,0,1,1,0,26,26,26,0,0,1,26,0Z" transform="translate(1247.051 8535)"/><path d="M-956.1-3054.715h-45.955v-1H-956.1Z" transform="translate(2251.874 11608)"/><path d="M-977.775-3021h-1v-34.434h1Z" transform="translate(2251.826 11608)"/></g><g transform="translate(-4155.051 -11609.516)"><circle cx="26" cy="26" r="26" transform="translate(1247.051 8535)" fill="#fff"/><path d="M26,2a24.007,24.007,0,0,0-9.341,46.115A24.007,24.007,0,0,0,35.341,3.885,23.848,23.848,0,0,0,26,2m0-2A26,26,0,1,1,0,26,26,26,0,0,1,26,0Z" transform="translate(1247.051 8535)"/><path d="M-956-3054.715h-46.046v-1H-956Z" transform="translate(2251.782 11608)"/><path d="M-977.775-3021h-1v-34.434h1Z" transform="translate(2251.826 11608)"/></g><g transform="translate(-4045.051 -11609.516)"><circle cx="26" cy="26" r="26" transform="translate(1247.051 8535)" fill="#fff"/><path d="M26,2a24.007,24.007,0,0,0-9.341,46.115A24.007,24.007,0,0,0,35.341,3.885,23.848,23.848,0,0,0,26,2m0-2A26,26,0,1,1,0,26,26,26,0,0,1,26,0Z" transform="translate(1247.051 8535)"/><path d="M-956.1-3054.715h-45.95v-1h45.95Z" transform="translate(2251.878 11608)"/><path d="M-977.775-3021h-1v-34.434h1Z" transform="translate(2251.826 11608)"/></g><g transform="translate(-4389.051 -11609.516)"><circle cx="26" cy="26" r="26" transform="translate(1247.051 8535)" fill="#fff"/><path d="M26,2a24.007,24.007,0,0,0-9.341,46.115A24.007,24.007,0,0,0,35.341,3.885,23.848,23.848,0,0,0,26,2m0-2A26,26,0,1,1,0,26,26,26,0,0,1,26,0Z" transform="translate(1247.051 8535)"/><path d="M-956.09-3054.715h-45.96v-1h45.96Z" transform="translate(2251.868 11608)"/><path d="M-977.775-3021h-1v-34.434h1Z" transform="translate(2251.826 11608)"/></g><g transform="translate(-4488.051 -11609.516)"><circle cx="26" cy="26" r="26" transform="translate(1247.051 8535)" fill="#fff"/><path d="M26,2a24.007,24.007,0,0,0-9.341,46.115A24.007,24.007,0,0,0,35.341,3.885,23.848,23.848,0,0,0,26,2m0-2A26,26,0,1,1,0,26,26,26,0,0,1,26,0Z" transform="translate(1247.051 8535)"/><path d="M-955.827-3054.715h-46.224v-1h46.224Z" transform="translate(2251.604 11608)"/><path d="M-977.775-3021h-1v-34.434h1Z" transform="translate(2251.826 11608)"/></g><g transform="translate(-4279.051 -11609.516)"><circle cx="26" cy="26" r="26" transform="translate(1247.051 8535)" fill="#fff"/><path d="M26,2a24.007,24.007,0,0,0-9.341,46.115A24.007,24.007,0,0,0,35.341,3.885,23.848,23.848,0,0,0,26,2m0-2A26,26,0,1,1,0,26,26,26,0,0,1,26,0Z" transform="translate(1247.051 8535)"/><path d="M-955.98-3054.715h-46.07v-1h46.07Z" transform="translate(2251.758 11608)"/><path d="M-977.775-3021h-1v-34.434h1Z" transform="translate(2251.826 11608)"/></g><path d="M7.594,9.977H2.82V15H1.32V3.625H8.367V4.859H2.82V8.75H7.594Zm7.391,4.188a3.07,3.07,0,0,1-2.477.992,2.628,2.628,0,0,1-2.059-.785,3.4,3.4,0,0,1-.715-2.324v-5.5H11.18v5.461q0,1.922,1.563,1.922a2.163,2.163,0,0,0,2.2-1.234V6.547h1.445V15H15.016Zm7.109.992a3.693,3.693,0,0,1-2.8-1.129,4.19,4.19,0,0,1-1.078-3.02v-.266A5.073,5.073,0,0,1,18.7,8.5a3.748,3.748,0,0,1,1.344-1.547,3.378,3.378,0,0,1,1.871-.559,3.166,3.166,0,0,1,2.563,1.086,4.7,4.7,0,0,1,.914,3.109v.6H19.664a3,3,0,0,0,.73,2.02,2.3,2.3,0,0,0,1.777.77,2.517,2.517,0,0,0,1.3-.312,3.259,3.259,0,0,0,.93-.828l.883.688A3.55,3.55,0,0,1,22.094,15.156Zm-.18-7.578a1.928,1.928,0,0,0-1.469.637A3.1,3.1,0,0,0,19.711,10h4.234V9.891a2.753,2.753,0,0,0-.594-1.707A1.815,1.815,0,0,0,21.914,7.578ZM28.43,6.547l.047,1.063a3.08,3.08,0,0,1,2.531-1.219q2.68,0,2.7,3.023V15H32.266V9.406a1.946,1.946,0,0,0-.418-1.352,1.675,1.675,0,0,0-1.277-.437,2.086,2.086,0,0,0-1.234.375,2.546,2.546,0,0,0-.828.984V15H27.063V6.547ZM37.852,4.5V6.547H39.43V7.664H37.852v5.242a1.171,1.171,0,0,0,.211.762.888.888,0,0,0,.719.254,3.5,3.5,0,0,0,.688-.094V15a4.19,4.19,0,0,1-1.109.156A1.8,1.8,0,0,1,36.9,14.57a2.517,2.517,0,0,1-.492-1.664V7.664H34.867V6.547h1.539V4.5Zm6.773,10.656a3.693,3.693,0,0,1-2.8-1.129,4.19,4.19,0,0,1-1.078-3.02v-.266A5.073,5.073,0,0,1,41.23,8.5a3.748,3.748,0,0,1,1.344-1.547,3.378,3.378,0,0,1,1.871-.559,3.166,3.166,0,0,1,2.563,1.086,4.7,4.7,0,0,1,.914,3.109v.6H42.2a3,3,0,0,0,.73,2.02,2.3,2.3,0,0,0,1.777.77,2.517,2.517,0,0,0,1.3-.312,3.259,3.259,0,0,0,.93-.828l.883.688A3.55,3.55,0,0,1,44.625,15.156Zm-.18-7.578a1.928,1.928,0,0,0-1.469.637A3.1,3.1,0,0,0,42.242,10h4.234V9.891a2.753,2.753,0,0,0-.594-1.707A1.815,1.815,0,0,0,44.445,7.578Zm5.1,6.664a.905.905,0,0,1,.223-.625.848.848,0,0,1,.668-.25.874.874,0,0,1,.676.25.887.887,0,0,1,.23.625.839.839,0,0,1-.23.6.89.89,0,0,1-.676.242.8.8,0,0,1-.891-.844Zm.008-6.9a.905.905,0,0,1,.223-.625.848.848,0,0,1,.668-.25.874.874,0,0,1,.676.25.887.887,0,0,1,.23.625.839.839,0,0,1-.23.6.89.89,0,0,1-.676.242.8.8,0,0,1-.891-.844Zm3.859,3.039a12.079,12.079,0,0,1,.473-3.391A9.85,9.85,0,0,1,55.3,4.039a6,6,0,0,1,1.945-1.875l.3.953a6.222,6.222,0,0,0-1.871,2.672,11.583,11.583,0,0,0-.8,4.023l-.008.664a11.643,11.643,0,0,0,1.1,5.234,6.252,6.252,0,0,0,1.578,2.078l-.3.883a6.192,6.192,0,0,1-1.984-1.937A10.859,10.859,0,0,1,53.414,10.383Zm9.1-.453a7.053,7.053,0,0,1-2.809-1.363,2.6,2.6,0,0,1-.879-2A2.751,2.751,0,0,1,59.9,4.348,4.269,4.269,0,0,1,62.7,3.469a4.66,4.66,0,0,1,2.09.453,3.436,3.436,0,0,1,1.422,1.25,3.2,3.2,0,0,1,.5,1.742H65.2a2.069,2.069,0,0,0-.656-1.621A2.675,2.675,0,0,0,62.7,4.7a2.736,2.736,0,0,0-1.73.488,1.628,1.628,0,0,0-.621,1.355,1.465,1.465,0,0,0,.59,1.176,5.79,5.79,0,0,0,2.008.879,9.3,9.3,0,0,1,2.219.879A3.367,3.367,0,0,1,66.348,10.6a2.861,2.861,0,0,1,.387,1.508,2.658,2.658,0,0,1-1.078,2.215,4.6,4.6,0,0,1-2.883.832,5.347,5.347,0,0,1-2.187-.449,3.681,3.681,0,0,1-1.566-1.23,3,3,0,0,1-.551-1.773h1.508a1.959,1.959,0,0,0,.762,1.629,3.207,3.207,0,0,0,2.035.6,2.948,2.948,0,0,0,1.82-.484,1.573,1.573,0,0,0,.633-1.32,1.545,1.545,0,0,0-.586-1.293A6.755,6.755,0,0,0,62.516,9.93Zm12.57-.187h-4.93v4.031h5.727V15H68.656V3.625H75.8V4.859H70.156V8.516h4.93ZM86.492,15H84.984L79.258,6.234V15H77.75V3.625h1.508L85,12.43v-8.8h1.492Zm9.086-2.969H90.813L89.742,15H88.2L92.539,3.625h1.313L98.2,15H96.664ZM91.266,10.8h3.867L93.2,5.477Zm20.208-.883h-7.828V8.734h7.828Zm8.191,3.859h5.391V15h-6.9V3.625h1.508Zm8.6-3.227V15h-1.5V3.625h4.2a4.215,4.215,0,0,1,2.926.953A3.231,3.231,0,0,1,134.945,7.1a3.188,3.188,0,0,1-1.035,2.551,4.4,4.4,0,0,1-2.965.895Zm0-1.227h2.7a2.7,2.7,0,0,0,1.844-.566,2.069,2.069,0,0,0,.641-1.637,2.138,2.138,0,0,0-.641-1.625,2.527,2.527,0,0,0-1.758-.633h-2.781ZM144.992,10.4H142.32V15h-1.508V3.625h3.766a4.457,4.457,0,0,1,2.957.875,3.148,3.148,0,0,1,1.035,2.547A3.062,3.062,0,0,1,148,8.9a3.428,3.428,0,0,1-1.6,1.18l2.672,4.828V15h-1.609ZM142.32,9.172h2.3a2.6,2.6,0,0,0,1.777-.578,1.953,1.953,0,0,0,.66-1.547,2.057,2.057,0,0,0-.629-1.617,2.666,2.666,0,0,0-1.816-.57h-2.3Zm9.7,5.828H150.57V6.547h1.445ZM150.453,4.3a.863.863,0,0,1,.215-.594.807.807,0,0,1,.637-.242.819.819,0,0,1,.641.242.854.854,0,0,1,.219.594.826.826,0,0,1-.219.586.834.834,0,0,1-.641.234.821.821,0,0,1-.637-.234A.834.834,0,0,1,150.453,4.3Zm8.8,8.453a1.064,1.064,0,0,0-.441-.91,4.249,4.249,0,0,0-1.539-.559,7.277,7.277,0,0,1-1.742-.562,2.479,2.479,0,0,1-.953-.781,1.869,1.869,0,0,1-.309-1.078,2.193,2.193,0,0,1,.879-1.758,3.432,3.432,0,0,1,2.246-.719,3.532,3.532,0,0,1,2.332.742,2.357,2.357,0,0,1,.895,1.9h-1.453a1.3,1.3,0,0,0-.5-1.023,1.888,1.888,0,0,0-1.27-.43,1.976,1.976,0,0,0-1.234.344,1.082,1.082,0,0,0-.445.9.877.877,0,0,0,.414.789,5.1,5.1,0,0,0,1.5.508,7.8,7.8,0,0,1,1.754.578,2.558,2.558,0,0,1,1,.809,1.988,1.988,0,0,1,.324,1.152,2.163,2.163,0,0,1-.906,1.816,3.8,3.8,0,0,1-2.352.684,4.257,4.257,0,0,1-1.8-.359,2.922,2.922,0,0,1-1.223-1,2.42,2.42,0,0,1-.441-1.395h1.445A1.5,1.5,0,0,0,156,13.551a2.258,2.258,0,0,0,1.434.426,2.331,2.331,0,0,0,1.316-.332A1.02,1.02,0,0,0,159.25,12.758ZM167.8,15a3.036,3.036,0,0,1-.2-.891,3.225,3.225,0,0,1-2.406,1.047,2.984,2.984,0,0,1-2.051-.707,2.287,2.287,0,0,1-.8-1.793,2.39,2.39,0,0,1,1-2.051,4.733,4.733,0,0,1,2.824-.73h1.406V9.211A1.623,1.623,0,0,0,167.117,8a1.821,1.821,0,0,0-1.336-.449,2.107,2.107,0,0,0-1.3.391,1.151,1.151,0,0,0-.523.945h-1.453a2,2,0,0,1,.449-1.223,3.066,3.066,0,0,1,1.219-.934,4.1,4.1,0,0,1,1.691-.344,3.342,3.342,0,0,1,2.289.73,2.635,2.635,0,0,1,.859,2.012v3.891a4.757,4.757,0,0,0,.3,1.852V15Zm-2.4-1.1a2.54,2.54,0,0,0,1.289-.352,2.127,2.127,0,0,0,.883-.914V10.9h-1.133q-2.656,0-2.656,1.555a1.316,1.316,0,0,0,.453,1.063A1.742,1.742,0,0,0,165.4,13.9Zm9.969-6.055a4.331,4.331,0,0,0-.711-.055A1.9,1.9,0,0,0,172.727,9v6h-1.445V6.547h1.406l.023.977a2.251,2.251,0,0,1,2.016-1.133,1.477,1.477,0,0,1,.641.109ZM181.6,15a3.036,3.036,0,0,1-.2-.891,3.225,3.225,0,0,1-2.406,1.047,2.984,2.984,0,0,1-2.051-.707,2.287,2.287,0,0,1-.8-1.793,2.39,2.39,0,0,1,1-2.051,4.733,4.733,0,0,1,2.824-.73h1.406V9.211A1.623,1.623,0,0,0,180.922,8a1.821,1.821,0,0,0-1.336-.449,2.107,2.107,0,0,0-1.3.391,1.151,1.151,0,0,0-.523.945h-1.453a2,2,0,0,1,.449-1.223,3.066,3.066,0,0,1,1.219-.934,4.1,4.1,0,0,1,1.691-.344,3.342,3.342,0,0,1,2.289.73,2.635,2.635,0,0,1,.859,2.012v3.891a4.757,4.757,0,0,0,.3,1.852V15Zm-2.4-1.1a2.54,2.54,0,0,0,1.289-.352,2.127,2.127,0,0,0,.883-.914V10.9h-1.133q-2.656,0-2.656,1.555a1.316,1.316,0,0,0,.453,1.063A1.742,1.742,0,0,0,179.2,13.9Zm7.453,1.1h-1.445V3h1.445Zm1.961-4.3a4.952,4.952,0,0,1,.922-3.129,3.137,3.137,0,0,1,4.766-.168V3h1.445V15h-1.328l-.07-.906a2.943,2.943,0,0,1-2.414,1.063,2.887,2.887,0,0,1-2.395-1.2,5.008,5.008,0,0,1-.926-3.141Zm1.445.164a3.749,3.749,0,0,0,.594,2.25,1.919,1.919,0,0,0,1.641.813A2.108,2.108,0,0,0,194.3,12.7V8.813a2.125,2.125,0,0,0-1.992-1.2,1.929,1.929,0,0,0-1.656.82A4.128,4.128,0,0,0,190.063,10.867ZM203.211,15a3.036,3.036,0,0,1-.2-.891,3.225,3.225,0,0,1-2.406,1.047,2.984,2.984,0,0,1-2.051-.707,2.287,2.287,0,0,1-.8-1.793,2.39,2.39,0,0,1,1-2.051,4.733,4.733,0,0,1,2.824-.73h1.406V9.211A1.623,1.623,0,0,0,202.531,8a1.821,1.821,0,0,0-1.336-.449,2.107,2.107,0,0,0-1.3.391,1.151,1.151,0,0,0-.523.945h-1.453a2,2,0,0,1,.449-1.223,3.066,3.066,0,0,1,1.219-.934,4.1,4.1,0,0,1,1.691-.344,3.342,3.342,0,0,1,2.289.73,2.635,2.635,0,0,1,.859,2.012v3.891a4.757,4.757,0,0,0,.3,1.852V15Zm-2.4-1.1a2.54,2.54,0,0,0,1.289-.352,2.127,2.127,0,0,0,.883-.914V10.9h-1.133q-2.656,0-2.656,1.555a1.316,1.316,0,0,0,.453,1.063A1.742,1.742,0,0,0,200.813,13.9Zm5.836,3.367-.82-.562a3.77,3.77,0,0,0,.766-2.109v-1.3h1.414v1.133A3.559,3.559,0,0,1,207.621,16,3.7,3.7,0,0,1,206.648,17.266ZM221.1,15h-7.453V13.961l3.938-4.375a9.355,9.355,0,0,0,1.207-1.613,2.692,2.692,0,0,0,.332-1.285,2.041,2.041,0,0,0-.539-1.461,1.885,1.885,0,0,0-1.437-.57,2.232,2.232,0,0,0-1.676.613,2.343,2.343,0,0,0-.6,1.707H213.43a3.355,3.355,0,0,1,1.012-2.539,3.751,3.751,0,0,1,2.707-.969,3.6,3.6,0,0,1,2.508.832,2.838,2.838,0,0,1,.922,2.215q0,1.68-2.141,4l-3.047,3.3H221.1Zm8.664-4.852a6.61,6.61,0,0,1-.867,3.773,3.6,3.6,0,0,1-5.406.027,6.274,6.274,0,0,1-.906-3.605V8.414a6.463,6.463,0,0,1,.867-3.727,3.668,3.668,0,0,1,5.422-.043,6.237,6.237,0,0,1,.891,3.629ZM228.32,8.172A5.3,5.3,0,0,0,227.8,5.5a1.775,1.775,0,0,0-1.633-.84,1.751,1.751,0,0,0-1.617.836,5.171,5.171,0,0,0-.523,2.57v2.313a5.381,5.381,0,0,0,.535,2.723,1.771,1.771,0,0,0,1.621.879,1.747,1.747,0,0,0,1.59-.828,5.186,5.186,0,0,0,.543-2.609ZM236.367,15h-1.453V5.367L232,6.438V5.125l4.141-1.555h.227ZM246.7,11.18h1.578v1.18H246.7V15H245.25V12.359h-5.18v-.852l5.094-7.883H246.7Zm-4.992,0h3.539V5.6l-.172.313Zm11.359-.719a12.084,12.084,0,0,1-.457,3.34,9.876,9.876,0,0,1-1.4,2.949,6.127,6.127,0,0,1-1.973,1.922l-.3-.883a6.281,6.281,0,0,0,1.934-2.863,12.387,12.387,0,0,0,.746-4.309v-.25a12.861,12.861,0,0,0-.344-3.051,10.3,10.3,0,0,0-.957-2.527,5.838,5.838,0,0,0-1.379-1.742l.3-.883a6.1,6.1,0,0,1,1.965,1.906,9.9,9.9,0,0,1,1.4,2.945A12.364,12.364,0,0,1,253.07,10.461Zm2.258,3.781a.905.905,0,0,1,.223-.625.848.848,0,0,1,.668-.25.874.874,0,0,1,.676.25.887.887,0,0,1,.23.625.839.839,0,0,1-.23.6.89.89,0,0,1-.676.242.8.8,0,0,1-.891-.844Z" transform="translate(-3121 -3009.516)" fill="#12263f"/><circle cx="4" cy="4" r="4" transform="translate(-3073 -3191.516)"/><path d="M-1134.778-3046.5h-58.484v-1h58.484Z" transform="translate(-1875 -140.516)"/><path d="M4,0,8,7H0Z" transform="translate(-3007.5 -3191.516) rotate(90)"/><circle cx="4" cy="4" r="4" transform="translate(-2961 -3191.516)"/><path d="M-1121.051-3046.5h-72.211v-1h72.211Z" transform="translate(-1763 -140.516)"/><path d="M4,0,8,7H0Z" transform="translate(-2880.551 -3191.516) rotate(90)"/><circle cx="4" cy="4" r="4" transform="translate(-2986 -3052.516)"/><path d="M-1122.771-3046.5h-70.491v-1h70.491Z" transform="translate(-1788 -1.516)"/><path d="M4,0,8,7H0Z" transform="translate(-2908.051 -3052.516) rotate(90)"/><circle cx="4" cy="4" r="4" transform="translate(-3097 -3052.516)"/><path d="M-1135.94-3046.5h-57.322v-1h57.322Z" transform="translate(-1899 -1.516)"/><path d="M4,0,8,7H0Z" transform="translate(-3032 -3052.516) rotate(90)"/><path d="M4,0,8,7H0Z" transform="translate(-3143.051 -3052.516) rotate(90)"/><circle cx="4" cy="4" r="4" transform="translate(-3196 -3052.516)"/><path d="M-1147.266-3046.5h-46v-1h46Z" transform="translate(-1998 -1.516)"/><circle cx="4" cy="4" r="4" transform="translate(-2861 -3052.016)"/><path d="M-1137.551-3046.5h-55.711v-1h55.711Z" transform="translate(-1663 -1.016)"/><path d="M4,0,8,7H0Z" transform="translate(-2798.051 -3052.016) rotate(90)"/><path d="M.859,0V-11.375H4.523a5.39,5.39,0,0,1,2.711.684,4.805,4.805,0,0,1,1.879,1.93A5.826,5.826,0,0,1,9.8-5.969v.523a5.86,5.86,0,0,1-.66,2.8A4.826,4.826,0,0,1,7.277-.707,5.271,5.271,0,0,1,4.6,0ZM3.6-9.258v7.148h.953a2.133,2.133,0,0,0,1.813-.84A4.116,4.116,0,0,0,7-5.445v-.492a4.082,4.082,0,0,0-.633-2.484,2.17,2.17,0,0,0-1.844-.836Z" transform="translate(-3045 -3193.516)"/><path d="M10.172-1.406A4.409,4.409,0,0,1,8.32-.273a7.986,7.986,0,0,1-2.672.43,4.764,4.764,0,0,1-3.57-1.367,5.534,5.534,0,0,1-1.43-3.8L.641-6a6.788,6.788,0,0,1,.594-2.934,4.409,4.409,0,0,1,1.7-1.93,4.807,4.807,0,0,1,2.559-.676,5.039,5.039,0,0,1,3.3.973,4.121,4.121,0,0,1,1.371,2.9H7.523a2.157,2.157,0,0,0-.609-1.359A1.966,1.966,0,0,0,5.586-9.43a1.789,1.789,0,0,0-1.594.875,4.672,4.672,0,0,0-.57,2.5v.688A4.574,4.574,0,0,0,4-2.809a2.059,2.059,0,0,0,1.832.855A2.3,2.3,0,0,0,7.43-2.43V-4.2H5.523V-6.078h4.648Z" transform="translate(-2922 -3193.516)"/><path d="M10.367,0H7.641V-4.75H3.6V0H.859V-11.375H3.6v4.516H7.641v-4.516h2.727Z" transform="translate(-2888 -3116.516)"/><path d="M8.023-4.531H3.6V0H.859V-11.375H8.469v2.117H3.6v2.617H8.023Z" transform="translate(-3019 -3116.516)"/><path d="M.859,0V-11.375H4.945a5.786,5.786,0,0,1,3.34.8A2.677,2.677,0,0,1,9.43-8.234a2.707,2.707,0,0,1-.406,1.508,2.367,2.367,0,0,1-1.2.922A2.4,2.4,0,0,1,9.2-4.93a2.544,2.544,0,0,1,.477,1.563A3.012,3.012,0,0,1,8.613-.855,5.038,5.038,0,0,1,5.477,0ZM3.6-4.836v2.727H5.4a1.709,1.709,0,0,0,1.141-.34,1.189,1.189,0,0,0,.4-.957,1.261,1.261,0,0,0-1.414-1.43Zm0-1.8h1.43a2.036,2.036,0,0,0,1.281-.328A1.163,1.163,0,0,0,6.7-7.906a1.221,1.221,0,0,0-.414-1.035,2.221,2.221,0,0,0-1.336-.316H3.6Z" transform="translate(-3127 -3116.516)"/><path d="M7.32-2.125H3.563L2.906,0H-.023L4.148-11.375H6.727L10.93,0H7.984Zm-3.1-2.117H6.664L5.438-8.187Z" transform="translate(-3176 -3056.516)"/><path d="M10.063-3.852a4.154,4.154,0,0,1-.641,2.1A3.866,3.866,0,0,1,7.777-.344a5.6,5.6,0,0,1-2.418.5A4.467,4.467,0,0,1,1.828-1.3,6.032,6.032,0,0,1,.539-5.43v-.562a6.885,6.885,0,0,1,.582-2.926A4.41,4.41,0,0,1,2.8-10.855a4.676,4.676,0,0,1,2.531-.684,4.9,4.9,0,0,1,3.328,1.09,4.306,4.306,0,0,1,1.43,3H7.352a2.037,2.037,0,0,0-.523-1.492,2.153,2.153,0,0,0-1.5-.453,1.638,1.638,0,0,0-1.5.766,4.921,4.921,0,0,0-.5,2.445v.8a5.445,5.445,0,0,0,.457,2.6,1.672,1.672,0,0,0,1.574.781A2.106,2.106,0,0,0,6.8-2.437a1.89,1.89,0,0,0,.531-1.414Z" transform="translate(-3061 -3056.516)"/><path d="M7.914-4.82H3.6v2.711H8.7V0H.859V-11.375H8.711v2.117H3.6v2.4H7.914Z" transform="translate(-2946 -3056.516)"/><path d="M3.781,0H1.047V-11.375H3.781Z" transform="translate(-2833 -3056.516)"/><path d="M.488,88.611l-.975-.22,20-88.5.975.22Z" transform="translate(-3113.5 -3161.762)"/><circle cx="4" cy="4" r="4" transform="translate(-3098 -3166.516)"/><path d="M4,0,8,7H0Z" transform="translate(-3109.89 -3072.206) rotate(-167)"/><g transform="translate(113)"><path d="M.488,88.611l-.975-.22,20-88.5.975.22Z" transform="translate(-3113.5 -3161.762)"/><circle cx="4" cy="4" r="4" transform="translate(-3098 -3166.516)"/><path d="M4,0,8,7H0Z" transform="translate(-3109.89 -3072.206) rotate(-167)"/></g><g transform="translate(239)"><path d="M.488,88.611l-.975-.22,20-88.5.975.22Z" transform="translate(-3113.5 -3161.762)"/><circle cx="4" cy="4" r="4" transform="translate(-3098 -3166.516)"/><path d="M4,0,8,7H0Z" transform="translate(-3109.89 -3072.206) rotate(-167)"/></g></g></g></svg>