<svg xmlns="http://www.w3.org/2000/svg" xmlns:xlink="http://www.w3.org/1999/xlink" width="1239" height="182" viewBox="0 0 1239 182"><defs><clipPath id="a"><rect width="282" height="95" transform="translate(1000.051 2542.28)" fill="#fff"/></clipPath><filter id="b" x="1146.816" y="-586.746" width="304.369" height="304.576" filterUnits="userSpaceOnUse"><feOffset dx="3" dy="3" input="SourceAlpha"/><feGaussianBlur stdDeviation="3" result="c"/><feFlood flood-opacity="0.161"/><feComposite operator="in" in2="c"/><feComposite in="SourceGraphic"/></filter><filter id="d" x="899.45" y="66.169" width="304.369" height="304.576" filterUnits="userSpaceOnUse"><feOffset dx="3" dy="3" input="SourceAlpha"/><feGaussianBlur stdDeviation="3" result="e"/><feFlood flood-opacity="0.161"/><feComposite operator="in" in2="e"/><feComposite in="SourceGraphic"/></filter><clipPath id="f"><rect width="210" height="137" transform="translate(1210.051 2044.28)" fill="#fff"/></clipPath><filter id="g" x="1053.316" y="-142" width="304.369" height="304.576" filterUnits="userSpaceOnUse"><feOffset dx="3" dy="3" input="SourceAlpha"/><feGaussianBlur stdDeviation="3" result="h"/><feFlood flood-opacity="0.161"/><feComposite operator="in" in2="h"/><feComposite in="SourceGraphic"/></filter><clipPath id="i"><rect width="111" height="111" transform="translate(-4058.5 -9395)" fill="#fff" stroke="#707070" stroke-width="1"/></clipPath><clipPath id="j"><rect width="116" height="310" transform="translate(158.684 4.065)" fill="#fff"/></clipPath><filter id="k" x="-164.735" y="30.968" width="304.369" height="304.576" filterUnits="userSpaceOnUse"><feOffset dx="3" dy="3" input="SourceAlpha"/><feGaussianBlur stdDeviation="3" result="l"/><feFlood flood-opacity="0.161"/><feComposite operator="in" in2="l"/><feComposite in="SourceGraphic"/></filter></defs><g transform="translate(-181 -2188.678)"><rect width="1239" height="182" transform="translate(181 2188.678)" fill="#e69999"/><g transform="translate(4239.5 11654.678)"><g transform="translate(-4153.051 -11921.28)" clip-path="url(#a)"><g transform="translate(1000 1874.534)"><g transform="matrix(1, 0, 0, 1, -905.45, 580.75)" filter="url(#b)"><path d="M164.77,483.141a99.262,99.262,0,0,1-22.651-2.584,1.206,1.206,0,0,1-.9-1.439l3.556-15.689a83.114,83.114,0,0,1-26.494-11.485l-9.1,13.351a1.205,1.205,0,0,1-1.681.31A102.961,102.961,0,0,1,72.608,425.12a1.2,1.2,0,0,1,.564-1.595l14.423-7a84.734,84.734,0,0,1-7.535-27.969l-15.981,1.254a1.257,1.257,0,0,1-.878-.286,1.2,1.2,0,0,1-.418-.824,100.778,100.778,0,0,1,9.836-52.643,1.2,1.2,0,0,1,1.6-.547l14.418,6.947a85.133,85.133,0,0,1,17.174-23.27l-10.985-11.76a1.2,1.2,0,0,1,.036-1.681c5.676-5.577,12.651-10.566,21.951-15.7l1.968-.987a77.772,77.772,0,0,1,10.422-4.608c.759-.258,1.519-.535,2.277-.81,1.332-.486,2.71-.988,4.11-1.389l6.507-1.647a1.2,1.2,0,0,1,1.469.9l3.554,15.725a81.845,81.845,0,0,1,17.8-1.893,88.95,88.95,0,0,1,11.167.7l2.347-15.907a1.206,1.206,0,0,1,1.337-1.02c7.8.95,16.3,3.35,25.981,7.339.909.437,1.753.835,2.6,1.233a80.585,80.585,0,0,1,9.513,5.033,100.474,100.474,0,0,1,11.027,7.648,1.206,1.206,0,0,1,.211,1.707l-10.029,12.6a84.79,84.79,0,0,1,18.953,21.9l13.849-8.1a1.2,1.2,0,0,1,1.635.411l1.75,2.857,2.188,4.529c.742,1.53,1.508,3.113,2.207,4.724.439,1.242.874,2.4,1.309,3.561a72.4,72.4,0,0,1,3.03,9.35c2.7,9.122,3.314,18.582,3.562,26.623a1.2,1.2,0,0,1-1.2,1.242H250.255a83.973,83.973,0,0,1-5.373,28.5l15,5.81a1.2,1.2,0,0,1,.7,1.535l-.317.9c-.277.79-.553,1.576-.887,2.329l-2.282,4.733c-.7,1.428-1.425,2.905-2.209,4.332-.486.81-.942,1.585-1.4,2.36a78.416,78.416,0,0,1-5.906,9.046,101.791,101.791,0,0,1-18.658,19.448,1.179,1.179,0,0,1-.891.267,1.2,1.2,0,0,1-.814-.447l-10.029-12.557a85.925,85.925,0,0,1-25.6,13.6l4.871,15.425a1.2,1.2,0,0,1-.8,1.516,108.056,108.056,0,0,1-30.883,4.576m-20.936-4.663a101.93,101.93,0,0,0,49.954-1.878l-4.862-15.4a1.2,1.2,0,0,1,.789-1.511A83.557,83.557,0,0,0,216.637,445.4a1.2,1.2,0,0,1,1.687.193l10.009,12.528a98.262,98.262,0,0,0,17.321-18.255,76.879,76.879,0,0,0,5.755-8.82c.459-.781.918-1.562,1.386-2.338.733-1.337,1.414-2.725,2.134-4.192l2.256-4.68c.271-.607.5-1.265.737-1.928l-15.029-5.823a1.2,1.2,0,0,1-.687-1.564,81.582,81.582,0,0,0,5.648-29.951,1.2,1.2,0,0,1,1.2-1.2H265.1c-.269-7.61-.942-16.379-3.443-24.848a71.057,71.057,0,0,0-2.955-9.112c-.442-1.177-.883-2.351-1.3-3.527-.647-1.486-1.4-3.045-2.132-4.555l-2.134-4.426-1.074-1.746L238.2,339.259a1.2,1.2,0,0,1-1.649-.434A82.462,82.462,0,0,0,216.631,315.8a1.2,1.2,0,0,1-.191-1.691l10.007-12.572a88.978,88.978,0,0,0-9.838-6.759,77.647,77.647,0,0,0-9.293-4.913c-.848-.4-1.7-.8-2.549-1.213a100.351,100.351,0,0,0-24.127-6.994l-2.347,15.909a1.215,1.215,0,0,1-1.36,1.017,86.428,86.428,0,0,0-12.017-.839,78.828,78.828,0,0,0-18.421,2.1,1.189,1.189,0,0,1-.917-.147,1.2,1.2,0,0,1-.539-.758l-3.548-15.7-5.274,1.335c-1.281.367-2.559.833-3.911,1.325-.775.283-1.552.566-2.338.832a76.011,76.011,0,0,0-10.1,4.476l-1.933.967c-8.6,4.751-15.172,9.379-20.536,14.473l10.993,11.771a1.2,1.2,0,0,1-.058,1.7A82.777,82.777,0,0,0,90.272,344.59a1.205,1.205,0,0,1-1.606.558L74.253,338.2A98.387,98.387,0,0,0,65.1,387.319l15.968-1.254a1.25,1.25,0,0,1,.878.287,1.206,1.206,0,0,1,.417.825,82.336,82.336,0,0,0,7.913,29.4,1.2,1.2,0,0,1-.562,1.6L75.3,425.17a100.59,100.59,0,0,0,32.576,37.76l9.089-13.331a1.2,1.2,0,0,1,1.673-.317,80.758,80.758,0,0,0,27.841,12.07,1.2,1.2,0,0,1,.911,1.441Zm21.179-34.429a62.916,62.916,0,1,1,62.917-62.916,62.986,62.986,0,0,1-62.917,62.916m0-123.425a60.508,60.508,0,1,0,60.509,60.509,60.577,60.577,0,0,0-60.509-60.509" transform="matrix(0.6, 0.8, -0.8, 0.6, 1501.08, -798.61)" fill="#fff"/></g><g transform="matrix(1, 0, 0, 1, -905.45, 580.75)" filter="url(#d)"><path d="M164.77,483.141a99.262,99.262,0,0,1-22.651-2.584,1.206,1.206,0,0,1-.9-1.439l3.556-15.689a83.114,83.114,0,0,1-26.494-11.485l-9.1,13.351a1.205,1.205,0,0,1-1.681.31A102.961,102.961,0,0,1,72.608,425.12a1.2,1.2,0,0,1,.564-1.595l14.423-7a84.734,84.734,0,0,1-7.535-27.969l-15.981,1.254a1.257,1.257,0,0,1-.878-.286,1.2,1.2,0,0,1-.418-.824,100.778,100.778,0,0,1,9.836-52.643,1.2,1.2,0,0,1,1.6-.547l14.418,6.947a85.133,85.133,0,0,1,17.174-23.27l-10.985-11.76a1.2,1.2,0,0,1,.036-1.681c5.676-5.577,12.651-10.566,21.951-15.7l1.968-.987a77.772,77.772,0,0,1,10.422-4.608c.759-.258,1.519-.535,2.277-.81,1.332-.486,2.71-.988,4.11-1.389l6.507-1.647a1.2,1.2,0,0,1,1.469.9l3.554,15.725a81.845,81.845,0,0,1,17.8-1.893,88.95,88.95,0,0,1,11.167.7l2.347-15.907a1.206,1.206,0,0,1,1.337-1.02c7.8.95,16.3,3.35,25.981,7.339.909.437,1.753.835,2.6,1.233a80.585,80.585,0,0,1,9.513,5.033,100.474,100.474,0,0,1,11.027,7.648,1.206,1.206,0,0,1,.211,1.707l-10.029,12.6a84.79,84.79,0,0,1,18.953,21.9l13.849-8.1a1.2,1.2,0,0,1,1.635.411l1.75,2.857,2.188,4.529c.742,1.53,1.508,3.113,2.207,4.724.439,1.242.874,2.4,1.309,3.561a72.4,72.4,0,0,1,3.03,9.35c2.7,9.122,3.314,18.582,3.562,26.623a1.2,1.2,0,0,1-1.2,1.242H250.255a83.973,83.973,0,0,1-5.373,28.5l15,5.81a1.2,1.2,0,0,1,.7,1.535l-.317.9c-.277.79-.553,1.576-.887,2.329l-2.282,4.733c-.7,1.428-1.425,2.905-2.209,4.332-.486.81-.942,1.585-1.4,2.36a78.416,78.416,0,0,1-5.906,9.046,101.791,101.791,0,0,1-18.658,19.448,1.179,1.179,0,0,1-.891.267,1.2,1.2,0,0,1-.814-.447l-10.029-12.557a85.925,85.925,0,0,1-25.6,13.6l4.871,15.425a1.2,1.2,0,0,1-.8,1.516,108.056,108.056,0,0,1-30.883,4.576m-20.936-4.663a101.93,101.93,0,0,0,49.954-1.878l-4.862-15.4a1.2,1.2,0,0,1,.789-1.511A83.557,83.557,0,0,0,216.637,445.4a1.2,1.2,0,0,1,1.687.193l10.009,12.528a98.262,98.262,0,0,0,17.321-18.255,76.879,76.879,0,0,0,5.755-8.82c.459-.781.918-1.562,1.386-2.338.733-1.337,1.414-2.725,2.134-4.192l2.256-4.68c.271-.607.5-1.265.737-1.928l-15.029-5.823a1.2,1.2,0,0,1-.687-1.564,81.582,81.582,0,0,0,5.648-29.951,1.2,1.2,0,0,1,1.2-1.2H265.1c-.269-7.61-.942-16.379-3.443-24.848a71.057,71.057,0,0,0-2.955-9.112c-.442-1.177-.883-2.351-1.3-3.527-.647-1.486-1.4-3.045-2.132-4.555l-2.134-4.426-1.074-1.746L238.2,339.259a1.2,1.2,0,0,1-1.649-.434A82.462,82.462,0,0,0,216.631,315.8a1.2,1.2,0,0,1-.191-1.691l10.007-12.572a88.978,88.978,0,0,0-9.838-6.759,77.647,77.647,0,0,0-9.293-4.913c-.848-.4-1.7-.8-2.549-1.213a100.351,100.351,0,0,0-24.127-6.994l-2.347,15.909a1.215,1.215,0,0,1-1.36,1.017,86.428,86.428,0,0,0-12.017-.839,78.828,78.828,0,0,0-18.421,2.1,1.189,1.189,0,0,1-.917-.147,1.2,1.2,0,0,1-.539-.758l-3.548-15.7-5.274,1.335c-1.281.367-2.559.833-3.911,1.325-.775.283-1.552.566-2.338.832a76.011,76.011,0,0,0-10.1,4.476l-1.933.967c-8.6,4.751-15.172,9.379-20.536,14.473l10.993,11.771a1.2,1.2,0,0,1-.058,1.7A82.777,82.777,0,0,0,90.272,344.59a1.205,1.205,0,0,1-1.606.558L74.253,338.2A98.387,98.387,0,0,0,65.1,387.319l15.968-1.254a1.25,1.25,0,0,1,.878.287,1.206,1.206,0,0,1,.417.825,82.336,82.336,0,0,0,7.913,29.4,1.2,1.2,0,0,1-.562,1.6L75.3,425.17a100.59,100.59,0,0,0,32.576,37.76l9.089-13.331a1.2,1.2,0,0,1,1.673-.317,80.758,80.758,0,0,0,27.841,12.07,1.2,1.2,0,0,1,.911,1.441Zm21.179-34.429a62.916,62.916,0,1,1,62.917-62.916,62.986,62.986,0,0,1-62.917,62.916m0-123.425a60.508,60.508,0,1,0,60.509,60.509,60.577,60.577,0,0,0-60.509-60.509" transform="matrix(0.6, 0.8, -0.8, 0.6, 1253.71, -145.69)" fill="#fff"/></g></g></g><g transform="translate(-4239.551 -11509.28)" clip-path="url(#f)"><g transform="matrix(1, 0, 0, 1, 181.05, 2043.28)" filter="url(#g)"><path d="M164.77,483.141a99.262,99.262,0,0,1-22.651-2.584,1.206,1.206,0,0,1-.9-1.439l3.556-15.689a83.114,83.114,0,0,1-26.494-11.485l-9.1,13.351a1.205,1.205,0,0,1-1.681.31A102.961,102.961,0,0,1,72.608,425.12a1.2,1.2,0,0,1,.564-1.595l14.423-7a84.734,84.734,0,0,1-7.535-27.969l-15.981,1.254a1.257,1.257,0,0,1-.878-.286,1.2,1.2,0,0,1-.418-.824,100.778,100.778,0,0,1,9.836-52.643,1.2,1.2,0,0,1,1.6-.547l14.418,6.947a85.133,85.133,0,0,1,17.174-23.27l-10.985-11.76a1.2,1.2,0,0,1,.036-1.681c5.676-5.577,12.651-10.566,21.951-15.7l1.968-.987a77.772,77.772,0,0,1,10.422-4.608c.759-.258,1.519-.535,2.277-.81,1.332-.486,2.71-.988,4.11-1.389l6.507-1.647a1.2,1.2,0,0,1,1.469.9l3.554,15.725a81.845,81.845,0,0,1,17.8-1.893,88.95,88.95,0,0,1,11.167.7l2.347-15.907a1.206,1.206,0,0,1,1.337-1.02c7.8.95,16.3,3.35,25.981,7.339.909.437,1.753.835,2.6,1.233a80.585,80.585,0,0,1,9.513,5.033,100.474,100.474,0,0,1,11.027,7.648,1.206,1.206,0,0,1,.211,1.707l-10.029,12.6a84.79,84.79,0,0,1,18.953,21.9l13.849-8.1a1.2,1.2,0,0,1,1.635.411l1.75,2.857,2.188,4.529c.742,1.53,1.508,3.113,2.207,4.724.439,1.242.874,2.4,1.309,3.561a72.4,72.4,0,0,1,3.03,9.35c2.7,9.122,3.314,18.582,3.562,26.623a1.2,1.2,0,0,1-1.2,1.242H250.255a83.973,83.973,0,0,1-5.373,28.5l15,5.81a1.2,1.2,0,0,1,.7,1.535l-.317.9c-.277.79-.553,1.576-.887,2.329l-2.282,4.733c-.7,1.428-1.425,2.905-2.209,4.332-.486.81-.942,1.585-1.4,2.36a78.416,78.416,0,0,1-5.906,9.046,101.791,101.791,0,0,1-18.658,19.448,1.179,1.179,0,0,1-.891.267,1.2,1.2,0,0,1-.814-.447l-10.029-12.557a85.925,85.925,0,0,1-25.6,13.6l4.871,15.425a1.2,1.2,0,0,1-.8,1.516,108.056,108.056,0,0,1-30.883,4.576m-20.936-4.663a101.93,101.93,0,0,0,49.954-1.878l-4.862-15.4a1.2,1.2,0,0,1,.789-1.511A83.557,83.557,0,0,0,216.637,445.4a1.2,1.2,0,0,1,1.687.193l10.009,12.528a98.262,98.262,0,0,0,17.321-18.255,76.879,76.879,0,0,0,5.755-8.82c.459-.781.918-1.562,1.386-2.338.733-1.337,1.414-2.725,2.134-4.192l2.256-4.68c.271-.607.5-1.265.737-1.928l-15.029-5.823a1.2,1.2,0,0,1-.687-1.564,81.582,81.582,0,0,0,5.648-29.951,1.2,1.2,0,0,1,1.2-1.2H265.1c-.269-7.61-.942-16.379-3.443-24.848a71.057,71.057,0,0,0-2.955-9.112c-.442-1.177-.883-2.351-1.3-3.527-.647-1.486-1.4-3.045-2.132-4.555l-2.134-4.426-1.074-1.746L238.2,339.259a1.2,1.2,0,0,1-1.649-.434A82.462,82.462,0,0,0,216.631,315.8a1.2,1.2,0,0,1-.191-1.691l10.007-12.572a88.978,88.978,0,0,0-9.838-6.759,77.647,77.647,0,0,0-9.293-4.913c-.848-.4-1.7-.8-2.549-1.213a100.351,100.351,0,0,0-24.127-6.994l-2.347,15.909a1.215,1.215,0,0,1-1.36,1.017,86.428,86.428,0,0,0-12.017-.839,78.828,78.828,0,0,0-18.421,2.1,1.189,1.189,0,0,1-.917-.147,1.2,1.2,0,0,1-.539-.758l-3.548-15.7-5.274,1.335c-1.281.367-2.559.833-3.911,1.325-.775.283-1.552.566-2.338.832a76.011,76.011,0,0,0-10.1,4.476l-1.933.967c-8.6,4.751-15.172,9.379-20.536,14.473l10.993,11.771a1.2,1.2,0,0,1-.058,1.7A82.777,82.777,0,0,0,90.272,344.59a1.205,1.205,0,0,1-1.606.558L74.253,338.2A98.387,98.387,0,0,0,65.1,387.319l15.968-1.254a1.25,1.25,0,0,1,.878.287,1.206,1.206,0,0,1,.417.825,82.336,82.336,0,0,0,7.913,29.4,1.2,1.2,0,0,1-.562,1.6L75.3,425.17a100.59,100.59,0,0,0,32.576,37.76l9.089-13.331a1.2,1.2,0,0,1,1.673-.317,80.758,80.758,0,0,0,27.841,12.07,1.2,1.2,0,0,1,.911,1.441Zm21.179-34.429a62.916,62.916,0,1,1,62.917-62.916,62.986,62.986,0,0,1-62.917,62.916m0-123.425a60.508,60.508,0,1,0,60.509,60.509,60.577,60.577,0,0,0-60.509-60.509" transform="matrix(0.6, 0.8, -0.8, 0.6, 1407.58, -353.86)" fill="#fff"/></g></g><g clip-path="url(#i)"><g transform="translate(-4058.551 -9424.967)"><g transform="translate(-158.684 -4.065)" clip-path="url(#j)"><g transform="matrix(1, 0, 0, 1, 158.73, -36.97)" filter="url(#k)"><path d="M164.77,483.141a99.262,99.262,0,0,1-22.651-2.584,1.206,1.206,0,0,1-.9-1.439l3.556-15.689a83.114,83.114,0,0,1-26.494-11.485l-9.1,13.351a1.205,1.205,0,0,1-1.681.31A102.961,102.961,0,0,1,72.608,425.12a1.2,1.2,0,0,1,.564-1.595l14.423-7a84.734,84.734,0,0,1-7.535-27.969l-15.981,1.254a1.257,1.257,0,0,1-.878-.286,1.2,1.2,0,0,1-.418-.824,100.778,100.778,0,0,1,9.836-52.643,1.2,1.2,0,0,1,1.6-.547l14.418,6.947a85.133,85.133,0,0,1,17.174-23.27l-10.985-11.76a1.2,1.2,0,0,1,.036-1.681c5.676-5.577,12.651-10.566,21.951-15.7l1.968-.987a77.772,77.772,0,0,1,10.422-4.608c.759-.258,1.519-.535,2.277-.81,1.332-.486,2.71-.988,4.11-1.389l6.507-1.647a1.2,1.2,0,0,1,1.469.9l3.554,15.725a81.845,81.845,0,0,1,17.8-1.893,88.95,88.95,0,0,1,11.167.7l2.347-15.907a1.206,1.206,0,0,1,1.337-1.02c7.8.95,16.3,3.35,25.981,7.339.909.437,1.753.835,2.6,1.233a80.585,80.585,0,0,1,9.513,5.033,100.474,100.474,0,0,1,11.027,7.648,1.206,1.206,0,0,1,.211,1.707l-10.029,12.6a84.79,84.79,0,0,1,18.953,21.9l13.849-8.1a1.2,1.2,0,0,1,1.635.411l1.75,2.857,2.188,4.529c.742,1.53,1.508,3.113,2.207,4.724.439,1.242.874,2.4,1.309,3.561a72.4,72.4,0,0,1,3.03,9.35c2.7,9.122,3.314,18.582,3.562,26.623a1.2,1.2,0,0,1-1.2,1.242H250.255a83.973,83.973,0,0,1-5.373,28.5l15,5.81a1.2,1.2,0,0,1,.7,1.535l-.317.9c-.277.79-.553,1.576-.887,2.329l-2.282,4.733c-.7,1.428-1.425,2.905-2.209,4.332-.486.81-.942,1.585-1.4,2.36a78.416,78.416,0,0,1-5.906,9.046,101.791,101.791,0,0,1-18.658,19.448,1.179,1.179,0,0,1-.891.267,1.2,1.2,0,0,1-.814-.447l-10.029-12.557a85.925,85.925,0,0,1-25.6,13.6l4.871,15.425a1.2,1.2,0,0,1-.8,1.516,108.056,108.056,0,0,1-30.883,4.576m-20.936-4.663a101.93,101.93,0,0,0,49.954-1.878l-4.862-15.4a1.2,1.2,0,0,1,.789-1.511A83.557,83.557,0,0,0,216.637,445.4a1.2,1.2,0,0,1,1.687.193l10.009,12.528a98.262,98.262,0,0,0,17.321-18.255,76.879,76.879,0,0,0,5.755-8.82c.459-.781.918-1.562,1.386-2.338.733-1.337,1.414-2.725,2.134-4.192l2.256-4.68c.271-.607.5-1.265.737-1.928l-15.029-5.823a1.2,1.2,0,0,1-.687-1.564,81.582,81.582,0,0,0,5.648-29.951,1.2,1.2,0,0,1,1.2-1.2H265.1c-.269-7.61-.942-16.379-3.443-24.848a71.057,71.057,0,0,0-2.955-9.112c-.442-1.177-.883-2.351-1.3-3.527-.647-1.486-1.4-3.045-2.132-4.555l-2.134-4.426-1.074-1.746L238.2,339.259a1.2,1.2,0,0,1-1.649-.434A82.462,82.462,0,0,0,216.631,315.8a1.2,1.2,0,0,1-.191-1.691l10.007-12.572a88.978,88.978,0,0,0-9.838-6.759,77.647,77.647,0,0,0-9.293-4.913c-.848-.4-1.7-.8-2.549-1.213a100.351,100.351,0,0,0-24.127-6.994l-2.347,15.909a1.215,1.215,0,0,1-1.36,1.017,86.428,86.428,0,0,0-12.017-.839,78.828,78.828,0,0,0-18.421,2.1,1.189,1.189,0,0,1-.917-.147,1.2,1.2,0,0,1-.539-.758l-3.548-15.7-5.274,1.335c-1.281.367-2.559.833-3.911,1.325-.775.283-1.552.566-2.338.832a76.011,76.011,0,0,0-10.1,4.476l-1.933.967c-8.6,4.751-15.172,9.379-20.536,14.473l10.993,11.771a1.2,1.2,0,0,1-.058,1.7A82.777,82.777,0,0,0,90.272,344.59a1.205,1.205,0,0,1-1.606.558L74.253,338.2A98.387,98.387,0,0,0,65.1,387.319l15.968-1.254a1.25,1.25,0,0,1,.878.287,1.206,1.206,0,0,1,.417.825,82.336,82.336,0,0,0,7.913,29.4,1.2,1.2,0,0,1-.562,1.6L75.3,425.17a100.59,100.59,0,0,0,32.576,37.76l9.089-13.331a1.2,1.2,0,0,1,1.673-.317,80.758,80.758,0,0,0,27.841,12.07,1.2,1.2,0,0,1,.911,1.441Zm21.179-34.429a62.916,62.916,0,1,1,62.917-62.916,62.986,62.986,0,0,1-62.917,62.916m0-123.425a60.508,60.508,0,1,0,60.509,60.509,60.577,60.577,0,0,0-60.509-60.509" transform="matrix(0.6, 0.8, -0.8, 0.6, 189.52, -180.89)" fill="#fff"/></g></g></g></g></g></g></svg>