<svg xmlns="http://www.w3.org/2000/svg" width="93" height="94" viewBox="0 0 93 94">
  <g id="Grupo_1110206" data-name="Grupo 1110206" transform="translate(-1175.288 -9908.095)">
    <ellipse id="Elipse_11700" data-name="Elipse 11700" cx="46.5" cy="47" rx="46.5" ry="47" transform="translate(1175.288 9908.095)" fill="#e69999"/>
    <g id="advantage_10103231" transform="translate(1194.361 9926.29)">
      <g id="Grupo_1109205" data-name="Grupo 1109205" transform="translate(0.59 0.567)">
        <path id="Trazado_881217" data-name="Trazado 881217" d="M188.541,58.942V79.31a1.4,1.4,0,0,1-1.4,1.4h-4.449a1.4,1.4,0,0,1-1.4-1.4V58.942h-2.677a.807.807,0,0,1-.6-1.347l6.3-7a.807.807,0,0,1,1.2,0l6.3,7a.807.807,0,0,1-.6,1.347h-2.677Z" transform="translate(-161.648 -45.995)" fill="#2a92fa" fill-rule="evenodd"/>
        <path id="Trazado_881218" data-name="Trazado 881218" d="M205.62,65.217V85.584a1.4,1.4,0,0,1-1.4,1.4h-2.328a1.4,1.4,0,0,1-1.4-1.4V65.217h-2.677a.807.807,0,0,1-.6-1.347l5.84-6.49,5.84,6.49a.807.807,0,0,1-.6,1.347Z" transform="translate(-178.727 -52.269)" fill="#5caeff" fill-rule="evenodd"/>
        <path id="Trazado_881219" data-name="Trazado 881219" d="M334.793,19.742V31.327a1.4,1.4,0,0,1-1.4,1.4h-4.449a1.4,1.4,0,0,1-1.4-1.4V19.742H324.87a.807.807,0,0,1-.6-1.347l6.3-7a.807.807,0,0,1,1.2,0l6.3,7a.807.807,0,0,1-.6,1.347h-2.677Z" transform="translate(-291.74 -11.126)" fill="#29b933" fill-rule="evenodd"/>
        <path id="Trazado_881220" data-name="Trazado 881220" d="M351.872,26.017V37.6a1.4,1.4,0,0,1-1.4,1.4h-2.328a1.4,1.4,0,0,1-1.4-1.4V26.017H344.07a.807.807,0,0,1-.6-1.347l5.84-6.49,5.84,6.49a.807.807,0,0,1-.6,1.347Z" transform="translate(-308.819 -17.401)" fill="#2dd62d" fill-rule="evenodd"/>
        <path id="Trazado_881221" data-name="Trazado 881221" d="M42.29,102.5V131.58a1.4,1.4,0,0,1-1.4,1.4H36.443a1.4,1.4,0,0,1-1.4-1.4V102.5H32.367a.807.807,0,0,1-.6-1.347l6.3-7a.807.807,0,0,1,1.2,0l6.3,7a.807.807,0,0,1-.6,1.347Z" transform="translate(-31.557 -84.737)" fill="#f0414a" fill-rule="evenodd"/>
        <path id="Trazado_881222" data-name="Trazado 881222" d="M59.369,108.772v29.082a1.4,1.4,0,0,1-1.4,1.4H55.643a1.4,1.4,0,0,1-1.4-1.4V108.772H51.567a.807.807,0,0,1-.6-1.347l5.84-6.49,5.84,6.49a.807.807,0,0,1-.6,1.347H59.369Z" transform="translate(-48.636 -91.012)" fill="#fb545c" fill-rule="evenodd"/>
      </g>
      <circle id="Elipse_11701" data-name="Elipse 11701" cx="13.957" cy="13.957" r="13.957" transform="translate(16.565 40.752) rotate(-45)" fill="#aadbfb"/>
      <path id="Trazado_881223" data-name="Trazado 881223" d="M260.57,276.7a13.957,13.957,0,1,1,12.9-13.917A13.958,13.958,0,0,1,260.57,276.7Z" transform="translate(-223.202 -222.028)" fill="#c8e8fb" fill-rule="evenodd"/>
      <path id="Trazado_881224" data-name="Trazado 881224" d="M303.983,292.68c.121,0,.244,0,.364,0,3.105-.082,3.095.989,6.812.974l3.865-.3a1.449,1.449,0,1,0,0-2.893h.825a1.548,1.548,0,0,0,0-3.1h.444a1.548,1.548,0,0,0,0-3.1h.57a1.548,1.548,0,0,0,0-3.1h-4.469c.088-1.773.828-3.256.03-5.564-.412-1.191-1.083-1.832-1.865-1.714-2.853.428.066,6.795-4.383,8.134a10.012,10.012,0,0,1-1.954.218h-.235l-1.341,0v10.441h1.338Z" transform="translate(-272.101 -244.276)" fill="#f9c795" fill-rule="evenodd"/>
      <path id="Trazado_881225" data-name="Trazado 881225" d="M369.949,293.275a1.428,1.428,0,0,0-.407-2.82h-2.3a.452.452,0,0,0,0,.9h2.2a1.019,1.019,0,0,1,.968.5.943.943,0,0,1,.1.408A1.209,1.209,0,0,1,369.949,293.275Zm.32-2.82a1.1,1.1,0,0,0,0-2.192h-2.756a.452.452,0,1,1,0-.9h2.853a1.548,1.548,0,1,1,0,3.1Zm.444-3.1h.1a1.548,1.548,0,0,0,0-3.1H367.9a.452.452,0,1,0,0,.9h2.81a1.1,1.1,0,0,1,0,2.192Zm.569-3.1a1.1,1.1,0,0,0,0-2.192h-4.861a.452.452,0,0,1-.452-.452,14.089,14.089,0,0,1,.425-1.934,7.053,7.053,0,0,0-.142-3.822,2.849,2.849,0,0,0-.68-1.169,1.18,1.18,0,0,0-1.637.115,1.405,1.405,0,0,1,1.141-.92c.782-.117,1.453.524,1.865,1.714.8,2.308.057,3.791-.03,5.564h4.469a1.548,1.548,0,1,1,0,3.1h-.1Z" transform="translate(-326.618 -244.274)" fill="#e6b17c" fill-rule="evenodd"/>
      <path id="Trazado_881226" data-name="Trazado 881226" d="M278.458,353.961h1.265a.862.862,0,0,0,.859-.86V342.647a.862.862,0,0,0-.859-.86h-2.529a.862.862,0,0,0-.86.86V353.1a.862.862,0,0,0,.86.86Z" transform="translate(-248.697 -304.684)" fill="#2a93fc" fill-rule="evenodd"/>
      <path id="Trazado_881227" data-name="Trazado 881227" d="M280.583,350.433v-7.788a.862.862,0,0,0-.86-.86h-2.529a.862.862,0,0,0-.86.86v7.788Z" transform="translate(-248.697 -304.683)" fill="#5caeff" fill-rule="evenodd"/>
      <path id="Trazado_881228" data-name="Trazado 881228" d="M69.922,51.612H67.291a.552.552,0,1,0,0,1.1H69.1c.692,0,.955.411.969.8a.975.975,0,0,1-1.012.991l-3.843.3A10.376,10.376,0,0,1,61.69,54.3a9,9,0,0,0-3.077-.468V44.5a10.385,10.385,0,0,0,1.8-.233c2.819-.849,3.058-3.516,3.233-5.463.157-1.754.306-2.536,1.069-2.649.681-.1,1.108.908,1.261,1.347a6.9,6.9,0,0,1,.138,3.769,13.86,13.86,0,0,0-.2,1.585.552.552,0,0,0,.553.58h4.466a1,1,0,1,1,0,1.99H67.949a.552.552,0,1,0,0,1.1h2.416a1,1,0,1,1,0,1.991H67.558a.552.552,0,1,0,0,1.1h2.363a1,1,0,0,1,0,1.991ZM57.509,54.4a.31.31,0,0,1-.307.307h-2.53a.311.311,0,0,1-.307-.307V43.945a.311.311,0,0,1,.307-.307H57.2a.311.311,0,0,1,.307.307Zm14.957-6.879a2.09,2.09,0,0,0-.452-1.3,2.1,2.1,0,0,0-1.08-3.9H67.071c.035-.29.083-.579.133-.878a8,8,0,0,0-.184-4.311c-.513-1.481-1.412-2.239-2.468-2.079-1.7.255-1.857,1.978-2.006,3.643-.171,1.9-.348,3.871-2.452,4.5a10.1,10.1,0,0,1-1.59.19,1.414,1.414,0,0,0-1.3-.863h-2.53a1.414,1.414,0,0,0-1.412,1.412V54.4a1.414,1.414,0,0,0,1.412,1.412H57.2a1.414,1.414,0,0,0,1.306-.875,7.908,7.908,0,0,1,2.864.418,11.4,11.4,0,0,0,3.786.557c.04,0,.08,0,.12,0l3.863-.3a2.072,2.072,0,0,0,2.031-2.137,1.957,1.957,0,0,0-.308-.979,2.094,2.094,0,0,0,.665-3.222,2.1,2.1,0,0,0,.937-1.747ZM62.485,60.139a13.4,13.4,0,1,0-13.4-13.4A13.42,13.42,0,0,0,62.485,60.139ZM47.812,40.709a.847.847,0,0,1-.847-.845V19.5a.553.553,0,0,0-.553-.553H43.736a.254.254,0,0,1-.189-.424l6.3-7a.256.256,0,0,1,.379,0l6.3,7a.254.254,0,0,1-.19.424H53.659a.553.553,0,0,0-.553.553V35.672a14.6,14.6,0,0,0-3.819,5.037H47.812Zm14.673-8.484a14.434,14.434,0,0,0-8.273,2.6V20.049h2.125a1.36,1.36,0,0,0,1.011-2.269l-6.3-7a1.359,1.359,0,0,0-2.02,0l-6.3,7a1.359,1.359,0,0,0,1.01,2.269h2.125V39.865a1.953,1.953,0,0,0,1.951,1.95h1.023a14.509,14.509,0,1,0,13.65-9.589ZM59.707,14.188l6.3-7a.254.254,0,0,1,.379,0l6.3,7a.255.255,0,0,1-.189.425H69.821a.552.552,0,0,0-.553.552V26.749a.848.848,0,0,1-.846.847h-4.45a.848.848,0,0,1-.847-.847V15.165a.552.552,0,0,0-.553-.552H59.9a.255.255,0,0,1-.189-.425Zm.189,1.529a1.359,1.359,0,0,1-1.01-2.268l6.3-7a1.359,1.359,0,0,1,2.021,0l6.3,7a1.359,1.359,0,0,1-1.01,2.268H70.373V26.749A1.954,1.954,0,0,1,68.422,28.7h-4.45a1.953,1.953,0,0,1-1.951-1.951V15.717H59.9ZM40.41,23.606a.24.24,0,0,1-.233.151H37.5a.553.553,0,0,0-.553.552V53.391a.846.846,0,0,1-.847.847H31.652a.847.847,0,0,1-.846-.847V24.309a.553.553,0,0,0-.553-.552H27.576a.254.254,0,0,1-.189-.425l6.3-7a.254.254,0,0,1,.378,0l6.3,7a.24.24,0,0,1,.044.274ZM34.887,15.59a1.359,1.359,0,0,0-2.021,0l-6.3,7a1.359,1.359,0,0,0,1.01,2.269H29.7V53.391a1.953,1.953,0,0,0,1.951,1.951H36.1a1.953,1.953,0,0,0,1.951-1.951V24.862h2.125a1.36,1.36,0,0,0,1.011-2.269l-6.3-7Z" transform="translate(-26.214 -5.996)" fill-rule="evenodd"/>
    </g>
  </g>
</svg>
