<svg xmlns="http://www.w3.org/2000/svg" width="202.394" height="9" viewBox="0 0 202.394 9"><g transform="translate(-411.793 -5179)"><path d="M6308.254-6421.305h-6.46l4.009-4.009-4.009-4.009h6.46v1h-4.046l3.009,3.009-3.009,3.009h4.046Z" transform="translate(-5890 11608.324)"/><path d="M6308.254-6421.305h-6.46l4.009-4.009-4.009-4.009h6.46v1h-4.046l3.009,3.009-3.009,3.009h4.046Z" transform="translate(-5833.254 11608.324)"/><text transform="translate(477 5186)" fill="#12263f" font-size="8" font-family="Roboto-Regular, Roboto"><tspan x="0" y="0">(</tspan></text><text transform="translate(515 5186)" fill="#12263f" font-size="8" font-family="Roboto-Regular, Roboto"><tspan x="0" y="0">)</tspan></text><path d="M3.875-2.629H1.41V-.613H4.273V0H.66V-5.687H4.234v.617H1.41v1.828H3.875ZM6.715-.512a1.041,1.041,0,0,0,.676-.234.825.825,0,0,0,.32-.586h.684a1.31,1.31,0,0,1-.25.691,1.647,1.647,0,0,1-.615.523,1.775,1.775,0,0,1-.814.2A1.741,1.741,0,0,1,5.342-.5a2.3,2.3,0,0,1-.51-1.576V-2.2a2.545,2.545,0,0,1,.227-1.1,1.726,1.726,0,0,1,.65-.746,1.848,1.848,0,0,1,1-.266,1.7,1.7,0,0,1,1.182.426,1.522,1.522,0,0,1,.5,1.105H7.711A1,1,0,0,0,7.4-3.447a.966.966,0,0,0-.689-.264,1.011,1.011,0,0,0-.854.4,1.862,1.862,0,0,0-.3,1.146v.137a1.825,1.825,0,0,0,.3,1.125A1.016,1.016,0,0,0,6.715-.512Zm2.508.133a.453.453,0,0,1,.111-.312.424.424,0,0,1,.334-.125.437.437,0,0,1,.338.125.443.443,0,0,1,.115.313.419.419,0,0,1-.115.3.445.445,0,0,1-.338.121.432.432,0,0,1-.334-.121A.428.428,0,0,1,9.223-.379Zm4.043-1.93A6.039,6.039,0,0,1,13.5-4a4.925,4.925,0,0,1,.705-1.477,3,3,0,0,1,.973-.937l.148.477a3.111,3.111,0,0,0-.936,1.336,5.791,5.791,0,0,0-.4,2.012l0,.332A5.822,5.822,0,0,0,14.539.355a3.126,3.126,0,0,0,.789,1.039l-.148.441a3.1,3.1,0,0,1-.992-.969A5.43,5.43,0,0,1,13.266-2.309ZM19-1.91h.789v.59H19V0h-.727V-1.32h-2.59v-.426l2.547-3.941H19Zm-2.5,0h1.77V-4.7l-.086.156Zm5.68-.359A6.042,6.042,0,0,1,21.959-.6a4.938,4.938,0,0,1-.7,1.475,3.064,3.064,0,0,1-.986.961l-.152-.441a3.14,3.14,0,0,0,.967-1.432,6.194,6.194,0,0,0,.373-2.154v-.125a6.431,6.431,0,0,0-.172-1.525,5.148,5.148,0,0,0-.479-1.264,2.919,2.919,0,0,0-.689-.871l.152-.441a3.052,3.052,0,0,1,.982.953,4.948,4.948,0,0,1,.7,1.473A6.182,6.182,0,0,1,22.188-2.27Z" transform="translate(592 5186)" fill="#12263f"/></g></svg>