<svg xmlns="http://www.w3.org/2000/svg" width="202.394" height="9" viewBox="0 0 202.394 9"><g transform="translate(-411.793 -5179)"><path d="M6308.254-6421.305h-6.46l4.009-4.009-4.009-4.009h6.46v1h-4.046l3.009,3.009-3.009,3.009h4.046Z" transform="translate(-5890 11608.324)"/><path d="M6308.254-6421.305h-6.46l4.009-4.009-4.009-4.009h6.46v1h-4.046l3.009,3.009-3.009,3.009h4.046Z" transform="translate(-5833.254 11608.324)"/><text transform="translate(477 5186)" fill="#12263f" font-size="8" font-family="Roboto-Regular, Roboto"><tspan x="0" y="0">(</tspan></text><text transform="translate(515 5186)" fill="#12263f" font-size="8" font-family="Roboto-Regular, Roboto"><tspan x="0" y="0">)</tspan></text><path d="M3.875-2.629H1.41V-.613H4.273V0H.66V-5.687H4.234v.617H1.41v1.828H3.875ZM6.715-.512a1.041,1.041,0,0,0,.676-.234.825.825,0,0,0,.32-.586h.684a1.31,1.31,0,0,1-.25.691,1.647,1.647,0,0,1-.615.523,1.775,1.775,0,0,1-.814.2A1.741,1.741,0,0,1,5.342-.5a2.3,2.3,0,0,1-.51-1.576V-2.2a2.545,2.545,0,0,1,.227-1.1,1.726,1.726,0,0,1,.65-.746,1.848,1.848,0,0,1,1-.266,1.7,1.7,0,0,1,1.182.426,1.522,1.522,0,0,1,.5,1.105H7.711A1,1,0,0,0,7.4-3.447a.966.966,0,0,0-.689-.264,1.011,1.011,0,0,0-.854.4,1.862,1.862,0,0,0-.3,1.146v.137a1.825,1.825,0,0,0,.3,1.125A1.016,1.016,0,0,0,6.715-.512Zm2.508.133a.453.453,0,0,1,.111-.312.424.424,0,0,1,.334-.125.437.437,0,0,1,.338.125.443.443,0,0,1,.115.313.419.419,0,0,1-.115.3.445.445,0,0,1-.338.121.432.432,0,0,1-.334-.121A.428.428,0,0,1,9.223-.379Zm4.043-1.93A6.039,6.039,0,0,1,13.5-4a4.925,4.925,0,0,1,.705-1.477,3,3,0,0,1,.973-.937l.148.477a3.111,3.111,0,0,0-.936,1.336,5.791,5.791,0,0,0-.4,2.012l0,.332A5.822,5.822,0,0,0,14.539.355a3.126,3.126,0,0,0,.789,1.039l-.148.441a3.1,3.1,0,0,1-.992-.969A5.43,5.43,0,0,1,13.266-2.309ZM17-3.2h.543a1.193,1.193,0,0,0,.8-.27.9.9,0,0,0,.293-.707.882.882,0,0,0-1-1A1.036,1.036,0,0,0,16.9-4.9a.936.936,0,0,0-.279.709H15.9a1.451,1.451,0,0,1,.494-1.123,1.8,1.8,0,0,1,1.256-.447,1.779,1.779,0,0,1,1.262.426,1.538,1.538,0,0,1,.457,1.184,1.248,1.248,0,0,1-.24.719,1.451,1.451,0,0,1-.654.52,1.4,1.4,0,0,1,.725.492,1.367,1.367,0,0,1,.256.84,1.551,1.551,0,0,1-.5,1.215,1.872,1.872,0,0,1-1.3.449,1.922,1.922,0,0,1-1.3-.434,1.438,1.438,0,0,1-.5-1.145h.727a.93.93,0,0,0,.293.719,1.114,1.114,0,0,0,.785.27,1.093,1.093,0,0,0,.8-.273,1.054,1.054,0,0,0,.277-.785.956.956,0,0,0-.3-.762,1.328,1.328,0,0,0-.879-.273H17Zm5.184.926A6.042,6.042,0,0,1,21.959-.6a4.938,4.938,0,0,1-.7,1.475,3.064,3.064,0,0,1-.986.961l-.152-.441a3.14,3.14,0,0,0,.967-1.432,6.194,6.194,0,0,0,.373-2.154v-.125a6.431,6.431,0,0,0-.172-1.525,5.148,5.148,0,0,0-.479-1.264,2.919,2.919,0,0,0-.689-.871l.152-.441a3.052,3.052,0,0,1,.982.953,4.948,4.948,0,0,1,.7,1.473A6.182,6.182,0,0,1,22.188-2.27Z" transform="translate(592 5186)" fill="#12263f"/></g></svg>